%TF.GenerationSoftware,KiCad,Pcbnew,8.0.3*%
%TF.CreationDate,2024-06-16T18:08:47+12:00*%
%TF.ProjectId,power_supply,706f7765-725f-4737-9570-706c792e6b69,0.1.1*%
%TF.SameCoordinates,Original*%
%TF.FileFunction,Drillmap*%
%TF.FilePolarity,Positive*%
%FSLAX45Y45*%
G04 Gerber Fmt 4.5, Leading zero omitted, Abs format (unit mm)*
G04 Created by KiCad (PCBNEW 8.0.3) date 2024-06-16 18:08:47*
%MOMM*%
%LPD*%
G01*
G04 APERTURE LIST*
%ADD10C,0.050000*%
%ADD11C,0.200000*%
%ADD12C,0.320000*%
G04 APERTURE END LIST*
D10*
X18600000Y-6600000D02*
G75*
G02*
X19000000Y-7000000I0J-400000D01*
G01*
X19000000Y-10100000D02*
X19000000Y-7000000D01*
X12000000Y-10500000D02*
G75*
G02*
X11600000Y-10100000I0J400000D01*
G01*
X12000000Y-6600000D02*
X18600000Y-6600000D01*
X11600000Y-10100000D02*
X11600000Y-7000000D01*
X19000000Y-10100000D02*
G75*
G02*
X18600000Y-10500000I-400000J0D01*
G01*
X12000000Y-10500000D02*
X18600000Y-10500000D01*
X11600000Y-7000000D02*
G75*
G02*
X12000000Y-6600000I400000J0D01*
G01*
D11*
D12*
X11840000Y-6840000D02*
X12160000Y-7160000D01*
X12160000Y-6840000D02*
X11840000Y-7160000D01*
X11840000Y-9940000D02*
X12160000Y-10260000D01*
X12160000Y-9940000D02*
X11840000Y-10260000D01*
X18440000Y-6840000D02*
X18760000Y-7160000D01*
X18760000Y-6840000D02*
X18440000Y-7160000D01*
X18440000Y-9940000D02*
X18760000Y-10260000D01*
X18760000Y-9940000D02*
X18440000Y-10260000D01*
D11*
X11858277Y-10813984D02*
X11858277Y-10613984D01*
X11858277Y-10613984D02*
X11905896Y-10613984D01*
X11905896Y-10613984D02*
X11934467Y-10623508D01*
X11934467Y-10623508D02*
X11953515Y-10642555D01*
X11953515Y-10642555D02*
X11963039Y-10661603D01*
X11963039Y-10661603D02*
X11972562Y-10699698D01*
X11972562Y-10699698D02*
X11972562Y-10728270D01*
X11972562Y-10728270D02*
X11963039Y-10766365D01*
X11963039Y-10766365D02*
X11953515Y-10785412D01*
X11953515Y-10785412D02*
X11934467Y-10804460D01*
X11934467Y-10804460D02*
X11905896Y-10813984D01*
X11905896Y-10813984D02*
X11858277Y-10813984D01*
X12058277Y-10813984D02*
X12058277Y-10680650D01*
X12058277Y-10718746D02*
X12067801Y-10699698D01*
X12067801Y-10699698D02*
X12077324Y-10690174D01*
X12077324Y-10690174D02*
X12096372Y-10680650D01*
X12096372Y-10680650D02*
X12115420Y-10680650D01*
X12182086Y-10813984D02*
X12182086Y-10680650D01*
X12182086Y-10613984D02*
X12172562Y-10623508D01*
X12172562Y-10623508D02*
X12182086Y-10633031D01*
X12182086Y-10633031D02*
X12191610Y-10623508D01*
X12191610Y-10623508D02*
X12182086Y-10613984D01*
X12182086Y-10613984D02*
X12182086Y-10633031D01*
X12305896Y-10813984D02*
X12286848Y-10804460D01*
X12286848Y-10804460D02*
X12277324Y-10785412D01*
X12277324Y-10785412D02*
X12277324Y-10613984D01*
X12410658Y-10813984D02*
X12391610Y-10804460D01*
X12391610Y-10804460D02*
X12382086Y-10785412D01*
X12382086Y-10785412D02*
X12382086Y-10613984D01*
X12639229Y-10813984D02*
X12639229Y-10613984D01*
X12639229Y-10613984D02*
X12705896Y-10756841D01*
X12705896Y-10756841D02*
X12772562Y-10613984D01*
X12772562Y-10613984D02*
X12772562Y-10813984D01*
X12953515Y-10813984D02*
X12953515Y-10709222D01*
X12953515Y-10709222D02*
X12943991Y-10690174D01*
X12943991Y-10690174D02*
X12924943Y-10680650D01*
X12924943Y-10680650D02*
X12886848Y-10680650D01*
X12886848Y-10680650D02*
X12867801Y-10690174D01*
X12953515Y-10804460D02*
X12934467Y-10813984D01*
X12934467Y-10813984D02*
X12886848Y-10813984D01*
X12886848Y-10813984D02*
X12867801Y-10804460D01*
X12867801Y-10804460D02*
X12858277Y-10785412D01*
X12858277Y-10785412D02*
X12858277Y-10766365D01*
X12858277Y-10766365D02*
X12867801Y-10747317D01*
X12867801Y-10747317D02*
X12886848Y-10737793D01*
X12886848Y-10737793D02*
X12934467Y-10737793D01*
X12934467Y-10737793D02*
X12953515Y-10728270D01*
X13048753Y-10680650D02*
X13048753Y-10880650D01*
X13048753Y-10690174D02*
X13067801Y-10680650D01*
X13067801Y-10680650D02*
X13105896Y-10680650D01*
X13105896Y-10680650D02*
X13124943Y-10690174D01*
X13124943Y-10690174D02*
X13134467Y-10699698D01*
X13134467Y-10699698D02*
X13143991Y-10718746D01*
X13143991Y-10718746D02*
X13143991Y-10775889D01*
X13143991Y-10775889D02*
X13134467Y-10794936D01*
X13134467Y-10794936D02*
X13124943Y-10804460D01*
X13124943Y-10804460D02*
X13105896Y-10813984D01*
X13105896Y-10813984D02*
X13067801Y-10813984D01*
X13067801Y-10813984D02*
X13048753Y-10804460D01*
X13229705Y-10794936D02*
X13239229Y-10804460D01*
X13239229Y-10804460D02*
X13229705Y-10813984D01*
X13229705Y-10813984D02*
X13220182Y-10804460D01*
X13220182Y-10804460D02*
X13229705Y-10794936D01*
X13229705Y-10794936D02*
X13229705Y-10813984D01*
X13229705Y-10690174D02*
X13239229Y-10699698D01*
X13239229Y-10699698D02*
X13229705Y-10709222D01*
X13229705Y-10709222D02*
X13220182Y-10699698D01*
X13220182Y-10699698D02*
X13229705Y-10690174D01*
X13229705Y-10690174D02*
X13229705Y-10709222D01*
X11397500Y-11042500D02*
X11597500Y-11242500D01*
X11597500Y-11042500D02*
X11397500Y-11242500D01*
X11839229Y-11033984D02*
X11963039Y-11033984D01*
X11963039Y-11033984D02*
X11896372Y-11110174D01*
X11896372Y-11110174D02*
X11924943Y-11110174D01*
X11924943Y-11110174D02*
X11943991Y-11119698D01*
X11943991Y-11119698D02*
X11953515Y-11129222D01*
X11953515Y-11129222D02*
X11963039Y-11148270D01*
X11963039Y-11148270D02*
X11963039Y-11195888D01*
X11963039Y-11195888D02*
X11953515Y-11214936D01*
X11953515Y-11214936D02*
X11943991Y-11224460D01*
X11943991Y-11224460D02*
X11924943Y-11233984D01*
X11924943Y-11233984D02*
X11867801Y-11233984D01*
X11867801Y-11233984D02*
X11848753Y-11224460D01*
X11848753Y-11224460D02*
X11839229Y-11214936D01*
X12048753Y-11214936D02*
X12058277Y-11224460D01*
X12058277Y-11224460D02*
X12048753Y-11233984D01*
X12048753Y-11233984D02*
X12039229Y-11224460D01*
X12039229Y-11224460D02*
X12048753Y-11214936D01*
X12048753Y-11214936D02*
X12048753Y-11233984D01*
X12134467Y-11053031D02*
X12143991Y-11043508D01*
X12143991Y-11043508D02*
X12163039Y-11033984D01*
X12163039Y-11033984D02*
X12210658Y-11033984D01*
X12210658Y-11033984D02*
X12229705Y-11043508D01*
X12229705Y-11043508D02*
X12239229Y-11053031D01*
X12239229Y-11053031D02*
X12248753Y-11072079D01*
X12248753Y-11072079D02*
X12248753Y-11091127D01*
X12248753Y-11091127D02*
X12239229Y-11119698D01*
X12239229Y-11119698D02*
X12124943Y-11233984D01*
X12124943Y-11233984D02*
X12248753Y-11233984D01*
X12372562Y-11033984D02*
X12391610Y-11033984D01*
X12391610Y-11033984D02*
X12410658Y-11043508D01*
X12410658Y-11043508D02*
X12420182Y-11053031D01*
X12420182Y-11053031D02*
X12429705Y-11072079D01*
X12429705Y-11072079D02*
X12439229Y-11110174D01*
X12439229Y-11110174D02*
X12439229Y-11157793D01*
X12439229Y-11157793D02*
X12429705Y-11195888D01*
X12429705Y-11195888D02*
X12420182Y-11214936D01*
X12420182Y-11214936D02*
X12410658Y-11224460D01*
X12410658Y-11224460D02*
X12391610Y-11233984D01*
X12391610Y-11233984D02*
X12372562Y-11233984D01*
X12372562Y-11233984D02*
X12353515Y-11224460D01*
X12353515Y-11224460D02*
X12343991Y-11214936D01*
X12343991Y-11214936D02*
X12334467Y-11195888D01*
X12334467Y-11195888D02*
X12324943Y-11157793D01*
X12324943Y-11157793D02*
X12324943Y-11110174D01*
X12324943Y-11110174D02*
X12334467Y-11072079D01*
X12334467Y-11072079D02*
X12343991Y-11053031D01*
X12343991Y-11053031D02*
X12353515Y-11043508D01*
X12353515Y-11043508D02*
X12372562Y-11033984D01*
X12563039Y-11033984D02*
X12582086Y-11033984D01*
X12582086Y-11033984D02*
X12601134Y-11043508D01*
X12601134Y-11043508D02*
X12610658Y-11053031D01*
X12610658Y-11053031D02*
X12620182Y-11072079D01*
X12620182Y-11072079D02*
X12629705Y-11110174D01*
X12629705Y-11110174D02*
X12629705Y-11157793D01*
X12629705Y-11157793D02*
X12620182Y-11195888D01*
X12620182Y-11195888D02*
X12610658Y-11214936D01*
X12610658Y-11214936D02*
X12601134Y-11224460D01*
X12601134Y-11224460D02*
X12582086Y-11233984D01*
X12582086Y-11233984D02*
X12563039Y-11233984D01*
X12563039Y-11233984D02*
X12543991Y-11224460D01*
X12543991Y-11224460D02*
X12534467Y-11214936D01*
X12534467Y-11214936D02*
X12524943Y-11195888D01*
X12524943Y-11195888D02*
X12515420Y-11157793D01*
X12515420Y-11157793D02*
X12515420Y-11110174D01*
X12515420Y-11110174D02*
X12524943Y-11072079D01*
X12524943Y-11072079D02*
X12534467Y-11053031D01*
X12534467Y-11053031D02*
X12543991Y-11043508D01*
X12543991Y-11043508D02*
X12563039Y-11033984D01*
X12715420Y-11233984D02*
X12715420Y-11100650D01*
X12715420Y-11119698D02*
X12724943Y-11110174D01*
X12724943Y-11110174D02*
X12743991Y-11100650D01*
X12743991Y-11100650D02*
X12772563Y-11100650D01*
X12772563Y-11100650D02*
X12791610Y-11110174D01*
X12791610Y-11110174D02*
X12801134Y-11129222D01*
X12801134Y-11129222D02*
X12801134Y-11233984D01*
X12801134Y-11129222D02*
X12810658Y-11110174D01*
X12810658Y-11110174D02*
X12829705Y-11100650D01*
X12829705Y-11100650D02*
X12858277Y-11100650D01*
X12858277Y-11100650D02*
X12877324Y-11110174D01*
X12877324Y-11110174D02*
X12886848Y-11129222D01*
X12886848Y-11129222D02*
X12886848Y-11233984D01*
X12982086Y-11233984D02*
X12982086Y-11100650D01*
X12982086Y-11119698D02*
X12991610Y-11110174D01*
X12991610Y-11110174D02*
X13010658Y-11100650D01*
X13010658Y-11100650D02*
X13039229Y-11100650D01*
X13039229Y-11100650D02*
X13058277Y-11110174D01*
X13058277Y-11110174D02*
X13067801Y-11129222D01*
X13067801Y-11129222D02*
X13067801Y-11233984D01*
X13067801Y-11129222D02*
X13077324Y-11110174D01*
X13077324Y-11110174D02*
X13096372Y-11100650D01*
X13096372Y-11100650D02*
X13124943Y-11100650D01*
X13124943Y-11100650D02*
X13143991Y-11110174D01*
X13143991Y-11110174D02*
X13153515Y-11129222D01*
X13153515Y-11129222D02*
X13153515Y-11233984D01*
X13543991Y-11024460D02*
X13372563Y-11281603D01*
X13801134Y-11033984D02*
X13820182Y-11033984D01*
X13820182Y-11033984D02*
X13839229Y-11043508D01*
X13839229Y-11043508D02*
X13848753Y-11053031D01*
X13848753Y-11053031D02*
X13858277Y-11072079D01*
X13858277Y-11072079D02*
X13867801Y-11110174D01*
X13867801Y-11110174D02*
X13867801Y-11157793D01*
X13867801Y-11157793D02*
X13858277Y-11195888D01*
X13858277Y-11195888D02*
X13848753Y-11214936D01*
X13848753Y-11214936D02*
X13839229Y-11224460D01*
X13839229Y-11224460D02*
X13820182Y-11233984D01*
X13820182Y-11233984D02*
X13801134Y-11233984D01*
X13801134Y-11233984D02*
X13782086Y-11224460D01*
X13782086Y-11224460D02*
X13772563Y-11214936D01*
X13772563Y-11214936D02*
X13763039Y-11195888D01*
X13763039Y-11195888D02*
X13753515Y-11157793D01*
X13753515Y-11157793D02*
X13753515Y-11110174D01*
X13753515Y-11110174D02*
X13763039Y-11072079D01*
X13763039Y-11072079D02*
X13772563Y-11053031D01*
X13772563Y-11053031D02*
X13782086Y-11043508D01*
X13782086Y-11043508D02*
X13801134Y-11033984D01*
X13953515Y-11214936D02*
X13963039Y-11224460D01*
X13963039Y-11224460D02*
X13953515Y-11233984D01*
X13953515Y-11233984D02*
X13943991Y-11224460D01*
X13943991Y-11224460D02*
X13953515Y-11214936D01*
X13953515Y-11214936D02*
X13953515Y-11233984D01*
X14153515Y-11233984D02*
X14039229Y-11233984D01*
X14096372Y-11233984D02*
X14096372Y-11033984D01*
X14096372Y-11033984D02*
X14077325Y-11062555D01*
X14077325Y-11062555D02*
X14058277Y-11081603D01*
X14058277Y-11081603D02*
X14039229Y-11091127D01*
X14229706Y-11053031D02*
X14239229Y-11043508D01*
X14239229Y-11043508D02*
X14258277Y-11033984D01*
X14258277Y-11033984D02*
X14305896Y-11033984D01*
X14305896Y-11033984D02*
X14324944Y-11043508D01*
X14324944Y-11043508D02*
X14334467Y-11053031D01*
X14334467Y-11053031D02*
X14343991Y-11072079D01*
X14343991Y-11072079D02*
X14343991Y-11091127D01*
X14343991Y-11091127D02*
X14334467Y-11119698D01*
X14334467Y-11119698D02*
X14220182Y-11233984D01*
X14220182Y-11233984D02*
X14343991Y-11233984D01*
X14515420Y-11033984D02*
X14477325Y-11033984D01*
X14477325Y-11033984D02*
X14458277Y-11043508D01*
X14458277Y-11043508D02*
X14448753Y-11053031D01*
X14448753Y-11053031D02*
X14429706Y-11081603D01*
X14429706Y-11081603D02*
X14420182Y-11119698D01*
X14420182Y-11119698D02*
X14420182Y-11195888D01*
X14420182Y-11195888D02*
X14429706Y-11214936D01*
X14429706Y-11214936D02*
X14439229Y-11224460D01*
X14439229Y-11224460D02*
X14458277Y-11233984D01*
X14458277Y-11233984D02*
X14496372Y-11233984D01*
X14496372Y-11233984D02*
X14515420Y-11224460D01*
X14515420Y-11224460D02*
X14524944Y-11214936D01*
X14524944Y-11214936D02*
X14534467Y-11195888D01*
X14534467Y-11195888D02*
X14534467Y-11148270D01*
X14534467Y-11148270D02*
X14524944Y-11129222D01*
X14524944Y-11129222D02*
X14515420Y-11119698D01*
X14515420Y-11119698D02*
X14496372Y-11110174D01*
X14496372Y-11110174D02*
X14458277Y-11110174D01*
X14458277Y-11110174D02*
X14439229Y-11119698D01*
X14439229Y-11119698D02*
X14429706Y-11129222D01*
X14429706Y-11129222D02*
X14420182Y-11148270D01*
X14658277Y-11033984D02*
X14677325Y-11033984D01*
X14677325Y-11033984D02*
X14696372Y-11043508D01*
X14696372Y-11043508D02*
X14705896Y-11053031D01*
X14705896Y-11053031D02*
X14715420Y-11072079D01*
X14715420Y-11072079D02*
X14724944Y-11110174D01*
X14724944Y-11110174D02*
X14724944Y-11157793D01*
X14724944Y-11157793D02*
X14715420Y-11195888D01*
X14715420Y-11195888D02*
X14705896Y-11214936D01*
X14705896Y-11214936D02*
X14696372Y-11224460D01*
X14696372Y-11224460D02*
X14677325Y-11233984D01*
X14677325Y-11233984D02*
X14658277Y-11233984D01*
X14658277Y-11233984D02*
X14639229Y-11224460D01*
X14639229Y-11224460D02*
X14629706Y-11214936D01*
X14629706Y-11214936D02*
X14620182Y-11195888D01*
X14620182Y-11195888D02*
X14610658Y-11157793D01*
X14610658Y-11157793D02*
X14610658Y-11110174D01*
X14610658Y-11110174D02*
X14620182Y-11072079D01*
X14620182Y-11072079D02*
X14629706Y-11053031D01*
X14629706Y-11053031D02*
X14639229Y-11043508D01*
X14639229Y-11043508D02*
X14658277Y-11033984D01*
X14801134Y-11033984D02*
X14801134Y-11072079D01*
X14877325Y-11033984D02*
X14877325Y-11072079D01*
X15172563Y-11310174D02*
X15163039Y-11300650D01*
X15163039Y-11300650D02*
X15143991Y-11272079D01*
X15143991Y-11272079D02*
X15134468Y-11253031D01*
X15134468Y-11253031D02*
X15124944Y-11224460D01*
X15124944Y-11224460D02*
X15115420Y-11176841D01*
X15115420Y-11176841D02*
X15115420Y-11138746D01*
X15115420Y-11138746D02*
X15124944Y-11091127D01*
X15124944Y-11091127D02*
X15134468Y-11062555D01*
X15134468Y-11062555D02*
X15143991Y-11043508D01*
X15143991Y-11043508D02*
X15163039Y-11014936D01*
X15163039Y-11014936D02*
X15172563Y-11005412D01*
X15334468Y-11100650D02*
X15334468Y-11233984D01*
X15286848Y-11024460D02*
X15239229Y-11167317D01*
X15239229Y-11167317D02*
X15363039Y-11167317D01*
X15591610Y-11233984D02*
X15591610Y-11033984D01*
X15677325Y-11233984D02*
X15677325Y-11129222D01*
X15677325Y-11129222D02*
X15667801Y-11110174D01*
X15667801Y-11110174D02*
X15648753Y-11100650D01*
X15648753Y-11100650D02*
X15620182Y-11100650D01*
X15620182Y-11100650D02*
X15601134Y-11110174D01*
X15601134Y-11110174D02*
X15591610Y-11119698D01*
X15801134Y-11233984D02*
X15782087Y-11224460D01*
X15782087Y-11224460D02*
X15772563Y-11214936D01*
X15772563Y-11214936D02*
X15763039Y-11195888D01*
X15763039Y-11195888D02*
X15763039Y-11138746D01*
X15763039Y-11138746D02*
X15772563Y-11119698D01*
X15772563Y-11119698D02*
X15782087Y-11110174D01*
X15782087Y-11110174D02*
X15801134Y-11100650D01*
X15801134Y-11100650D02*
X15829706Y-11100650D01*
X15829706Y-11100650D02*
X15848753Y-11110174D01*
X15848753Y-11110174D02*
X15858277Y-11119698D01*
X15858277Y-11119698D02*
X15867801Y-11138746D01*
X15867801Y-11138746D02*
X15867801Y-11195888D01*
X15867801Y-11195888D02*
X15858277Y-11214936D01*
X15858277Y-11214936D02*
X15848753Y-11224460D01*
X15848753Y-11224460D02*
X15829706Y-11233984D01*
X15829706Y-11233984D02*
X15801134Y-11233984D01*
X15982087Y-11233984D02*
X15963039Y-11224460D01*
X15963039Y-11224460D02*
X15953515Y-11205412D01*
X15953515Y-11205412D02*
X15953515Y-11033984D01*
X16134468Y-11224460D02*
X16115420Y-11233984D01*
X16115420Y-11233984D02*
X16077325Y-11233984D01*
X16077325Y-11233984D02*
X16058277Y-11224460D01*
X16058277Y-11224460D02*
X16048753Y-11205412D01*
X16048753Y-11205412D02*
X16048753Y-11129222D01*
X16048753Y-11129222D02*
X16058277Y-11110174D01*
X16058277Y-11110174D02*
X16077325Y-11100650D01*
X16077325Y-11100650D02*
X16115420Y-11100650D01*
X16115420Y-11100650D02*
X16134468Y-11110174D01*
X16134468Y-11110174D02*
X16143991Y-11129222D01*
X16143991Y-11129222D02*
X16143991Y-11148270D01*
X16143991Y-11148270D02*
X16048753Y-11167317D01*
X16220182Y-11224460D02*
X16239230Y-11233984D01*
X16239230Y-11233984D02*
X16277325Y-11233984D01*
X16277325Y-11233984D02*
X16296372Y-11224460D01*
X16296372Y-11224460D02*
X16305896Y-11205412D01*
X16305896Y-11205412D02*
X16305896Y-11195888D01*
X16305896Y-11195888D02*
X16296372Y-11176841D01*
X16296372Y-11176841D02*
X16277325Y-11167317D01*
X16277325Y-11167317D02*
X16248753Y-11167317D01*
X16248753Y-11167317D02*
X16229706Y-11157793D01*
X16229706Y-11157793D02*
X16220182Y-11138746D01*
X16220182Y-11138746D02*
X16220182Y-11129222D01*
X16220182Y-11129222D02*
X16229706Y-11110174D01*
X16229706Y-11110174D02*
X16248753Y-11100650D01*
X16248753Y-11100650D02*
X16277325Y-11100650D01*
X16277325Y-11100650D02*
X16296372Y-11110174D01*
X16372563Y-11310174D02*
X16382087Y-11300650D01*
X16382087Y-11300650D02*
X16401134Y-11272079D01*
X16401134Y-11272079D02*
X16410658Y-11253031D01*
X16410658Y-11253031D02*
X16420182Y-11224460D01*
X16420182Y-11224460D02*
X16429706Y-11176841D01*
X16429706Y-11176841D02*
X16429706Y-11138746D01*
X16429706Y-11138746D02*
X16420182Y-11091127D01*
X16420182Y-11091127D02*
X16410658Y-11062555D01*
X16410658Y-11062555D02*
X16401134Y-11043508D01*
X16401134Y-11043508D02*
X16382087Y-11014936D01*
X16382087Y-11014936D02*
X16372563Y-11005412D01*
X16734468Y-11310174D02*
X16724944Y-11300650D01*
X16724944Y-11300650D02*
X16705896Y-11272079D01*
X16705896Y-11272079D02*
X16696372Y-11253031D01*
X16696372Y-11253031D02*
X16686849Y-11224460D01*
X16686849Y-11224460D02*
X16677325Y-11176841D01*
X16677325Y-11176841D02*
X16677325Y-11138746D01*
X16677325Y-11138746D02*
X16686849Y-11091127D01*
X16686849Y-11091127D02*
X16696372Y-11062555D01*
X16696372Y-11062555D02*
X16705896Y-11043508D01*
X16705896Y-11043508D02*
X16724944Y-11014936D01*
X16724944Y-11014936D02*
X16734468Y-11005412D01*
X16810658Y-11100650D02*
X16810658Y-11233984D01*
X16810658Y-11119698D02*
X16820182Y-11110174D01*
X16820182Y-11110174D02*
X16839230Y-11100650D01*
X16839230Y-11100650D02*
X16867801Y-11100650D01*
X16867801Y-11100650D02*
X16886849Y-11110174D01*
X16886849Y-11110174D02*
X16896373Y-11129222D01*
X16896373Y-11129222D02*
X16896373Y-11233984D01*
X17020182Y-11233984D02*
X17001134Y-11224460D01*
X17001134Y-11224460D02*
X16991611Y-11214936D01*
X16991611Y-11214936D02*
X16982087Y-11195888D01*
X16982087Y-11195888D02*
X16982087Y-11138746D01*
X16982087Y-11138746D02*
X16991611Y-11119698D01*
X16991611Y-11119698D02*
X17001134Y-11110174D01*
X17001134Y-11110174D02*
X17020182Y-11100650D01*
X17020182Y-11100650D02*
X17048754Y-11100650D01*
X17048754Y-11100650D02*
X17067801Y-11110174D01*
X17067801Y-11110174D02*
X17077325Y-11119698D01*
X17077325Y-11119698D02*
X17086849Y-11138746D01*
X17086849Y-11138746D02*
X17086849Y-11195888D01*
X17086849Y-11195888D02*
X17077325Y-11214936D01*
X17077325Y-11214936D02*
X17067801Y-11224460D01*
X17067801Y-11224460D02*
X17048754Y-11233984D01*
X17048754Y-11233984D02*
X17020182Y-11233984D01*
X17143992Y-11100650D02*
X17220182Y-11100650D01*
X17172563Y-11033984D02*
X17172563Y-11205412D01*
X17172563Y-11205412D02*
X17182087Y-11224460D01*
X17182087Y-11224460D02*
X17201134Y-11233984D01*
X17201134Y-11233984D02*
X17220182Y-11233984D01*
X17439230Y-11100650D02*
X17439230Y-11300650D01*
X17439230Y-11110174D02*
X17458277Y-11100650D01*
X17458277Y-11100650D02*
X17496373Y-11100650D01*
X17496373Y-11100650D02*
X17515420Y-11110174D01*
X17515420Y-11110174D02*
X17524944Y-11119698D01*
X17524944Y-11119698D02*
X17534468Y-11138746D01*
X17534468Y-11138746D02*
X17534468Y-11195888D01*
X17534468Y-11195888D02*
X17524944Y-11214936D01*
X17524944Y-11214936D02*
X17515420Y-11224460D01*
X17515420Y-11224460D02*
X17496373Y-11233984D01*
X17496373Y-11233984D02*
X17458277Y-11233984D01*
X17458277Y-11233984D02*
X17439230Y-11224460D01*
X17648754Y-11233984D02*
X17629706Y-11224460D01*
X17629706Y-11224460D02*
X17620182Y-11205412D01*
X17620182Y-11205412D02*
X17620182Y-11033984D01*
X17810658Y-11233984D02*
X17810658Y-11129222D01*
X17810658Y-11129222D02*
X17801135Y-11110174D01*
X17801135Y-11110174D02*
X17782087Y-11100650D01*
X17782087Y-11100650D02*
X17743992Y-11100650D01*
X17743992Y-11100650D02*
X17724944Y-11110174D01*
X17810658Y-11224460D02*
X17791611Y-11233984D01*
X17791611Y-11233984D02*
X17743992Y-11233984D01*
X17743992Y-11233984D02*
X17724944Y-11224460D01*
X17724944Y-11224460D02*
X17715420Y-11205412D01*
X17715420Y-11205412D02*
X17715420Y-11186365D01*
X17715420Y-11186365D02*
X17724944Y-11167317D01*
X17724944Y-11167317D02*
X17743992Y-11157793D01*
X17743992Y-11157793D02*
X17791611Y-11157793D01*
X17791611Y-11157793D02*
X17810658Y-11148270D01*
X17877325Y-11100650D02*
X17953515Y-11100650D01*
X17905896Y-11033984D02*
X17905896Y-11205412D01*
X17905896Y-11205412D02*
X17915420Y-11224460D01*
X17915420Y-11224460D02*
X17934468Y-11233984D01*
X17934468Y-11233984D02*
X17953515Y-11233984D01*
X18096373Y-11224460D02*
X18077325Y-11233984D01*
X18077325Y-11233984D02*
X18039230Y-11233984D01*
X18039230Y-11233984D02*
X18020182Y-11224460D01*
X18020182Y-11224460D02*
X18010658Y-11205412D01*
X18010658Y-11205412D02*
X18010658Y-11129222D01*
X18010658Y-11129222D02*
X18020182Y-11110174D01*
X18020182Y-11110174D02*
X18039230Y-11100650D01*
X18039230Y-11100650D02*
X18077325Y-11100650D01*
X18077325Y-11100650D02*
X18096373Y-11110174D01*
X18096373Y-11110174D02*
X18105896Y-11129222D01*
X18105896Y-11129222D02*
X18105896Y-11148270D01*
X18105896Y-11148270D02*
X18010658Y-11167317D01*
X18277325Y-11233984D02*
X18277325Y-11033984D01*
X18277325Y-11224460D02*
X18258277Y-11233984D01*
X18258277Y-11233984D02*
X18220182Y-11233984D01*
X18220182Y-11233984D02*
X18201135Y-11224460D01*
X18201135Y-11224460D02*
X18191611Y-11214936D01*
X18191611Y-11214936D02*
X18182087Y-11195888D01*
X18182087Y-11195888D02*
X18182087Y-11138746D01*
X18182087Y-11138746D02*
X18191611Y-11119698D01*
X18191611Y-11119698D02*
X18201135Y-11110174D01*
X18201135Y-11110174D02*
X18220182Y-11100650D01*
X18220182Y-11100650D02*
X18258277Y-11100650D01*
X18258277Y-11100650D02*
X18277325Y-11110174D01*
X18353516Y-11310174D02*
X18363039Y-11300650D01*
X18363039Y-11300650D02*
X18382087Y-11272079D01*
X18382087Y-11272079D02*
X18391611Y-11253031D01*
X18391611Y-11253031D02*
X18401135Y-11224460D01*
X18401135Y-11224460D02*
X18410658Y-11176841D01*
X18410658Y-11176841D02*
X18410658Y-11138746D01*
X18410658Y-11138746D02*
X18401135Y-11091127D01*
X18401135Y-11091127D02*
X18391611Y-11062555D01*
X18391611Y-11062555D02*
X18382087Y-11043508D01*
X18382087Y-11043508D02*
X18363039Y-11014936D01*
X18363039Y-11014936D02*
X18353516Y-11005412D01*
M02*
