%TF.GenerationSoftware,KiCad,Pcbnew,8.0.3*%
%TF.CreationDate,2024-06-16T18:08:45+12:00*%
%TF.ProjectId,power_supply,706f7765-725f-4737-9570-706c792e6b69,0.1.1*%
%TF.SameCoordinates,Original*%
%TF.FileFunction,Soldermask,Top*%
%TF.FilePolarity,Negative*%
%FSLAX46Y46*%
G04 Gerber Fmt 4.6, Leading zero omitted, Abs format (unit mm)*
G04 Created by KiCad (PCBNEW 8.0.3) date 2024-06-16 18:08:45*
%MOMM*%
%LPD*%
G01*
G04 APERTURE LIST*
G04 Aperture macros list*
%AMRoundRect*
0 Rectangle with rounded corners*
0 $1 Rounding radius*
0 $2 $3 $4 $5 $6 $7 $8 $9 X,Y pos of 4 corners*
0 Add a 4 corners polygon primitive as box body*
4,1,4,$2,$3,$4,$5,$6,$7,$8,$9,$2,$3,0*
0 Add four circle primitives for the rounded corners*
1,1,$1+$1,$2,$3*
1,1,$1+$1,$4,$5*
1,1,$1+$1,$6,$7*
1,1,$1+$1,$8,$9*
0 Add four rect primitives between the rounded corners*
20,1,$1+$1,$2,$3,$4,$5,0*
20,1,$1+$1,$4,$5,$6,$7,0*
20,1,$1+$1,$6,$7,$8,$9,0*
20,1,$1+$1,$8,$9,$2,$3,0*%
G04 Aperture macros list end*
%ADD10RoundRect,0.150000X-0.725000X-0.150000X0.725000X-0.150000X0.725000X0.150000X-0.725000X0.150000X0*%
%ADD11C,3.200000*%
%ADD12RoundRect,0.160000X-1.440000X0.640000X-1.440000X-0.640000X1.440000X-0.640000X1.440000X0.640000X0*%
%ADD13RoundRect,0.250000X0.650000X-0.325000X0.650000X0.325000X-0.650000X0.325000X-0.650000X-0.325000X0*%
%ADD14R,1.905000X2.000000*%
%ADD15O,1.905000X2.000000*%
%ADD16RoundRect,0.250000X-0.600000X-0.600000X0.600000X-0.600000X0.600000X0.600000X-0.600000X0.600000X0*%
%ADD17C,1.700000*%
%ADD18RoundRect,0.250000X1.425000X-0.362500X1.425000X0.362500X-1.425000X0.362500X-1.425000X-0.362500X0*%
%ADD19RoundRect,0.225000X-0.225000X-0.250000X0.225000X-0.250000X0.225000X0.250000X-0.225000X0.250000X0*%
%ADD20RoundRect,0.250000X-0.625000X0.400000X-0.625000X-0.400000X0.625000X-0.400000X0.625000X0.400000X0*%
%ADD21RoundRect,0.250000X0.475000X-0.250000X0.475000X0.250000X-0.475000X0.250000X-0.475000X-0.250000X0*%
%ADD22RoundRect,0.250000X-0.900000X1.000000X-0.900000X-1.000000X0.900000X-1.000000X0.900000X1.000000X0*%
%ADD23RoundRect,0.250000X-1.000000X-1.350000X1.000000X-1.350000X1.000000X1.350000X-1.000000X1.350000X0*%
%ADD24RoundRect,0.250000X0.600000X-0.600000X0.600000X0.600000X-0.600000X0.600000X-0.600000X-0.600000X0*%
%ADD25RoundRect,0.200000X0.275000X-0.200000X0.275000X0.200000X-0.275000X0.200000X-0.275000X-0.200000X0*%
%ADD26RoundRect,0.225000X-0.250000X0.225000X-0.250000X-0.225000X0.250000X-0.225000X0.250000X0.225000X0*%
%ADD27R,1.600000X1.600000*%
%ADD28C,1.600000*%
%ADD29C,1.440000*%
G04 APERTURE END LIST*
D10*
%TO.C,U1*%
X152350000Y-90540000D03*
X152350000Y-91810000D03*
X152350000Y-93080000D03*
X152350000Y-94350000D03*
X157500000Y-94350000D03*
X157500000Y-93080000D03*
X157500000Y-91810000D03*
X157500000Y-90540000D03*
%TD*%
D11*
%TO.C,H1*%
X120000000Y-70000000D03*
%TD*%
%TO.C,H2*%
X186000000Y-70000000D03*
%TD*%
D12*
%TO.C,C1*%
X136900000Y-93440000D03*
X141900000Y-93440000D03*
%TD*%
D13*
%TO.C,C5*%
X151400000Y-77915000D03*
X151400000Y-74965000D03*
%TD*%
D14*
%TO.C,Q1*%
X152385000Y-88045000D03*
D15*
X154925000Y-88045000D03*
X157465000Y-88045000D03*
%TD*%
D16*
%TO.C,J2*%
X123707500Y-80420000D03*
D17*
X126247500Y-80420000D03*
X123707500Y-82960000D03*
X126247500Y-82960000D03*
X123707500Y-85500000D03*
X126247500Y-85500000D03*
X123707500Y-88040000D03*
X126247500Y-88040000D03*
X123707500Y-90580000D03*
X126247500Y-90580000D03*
%TD*%
D18*
%TO.C,R1*%
X165660000Y-89472500D03*
X165660000Y-83547500D03*
%TD*%
D19*
%TO.C,C6*%
X157475000Y-95940000D03*
X159025000Y-95940000D03*
%TD*%
D20*
%TO.C,RS1*%
X159900000Y-90640000D03*
X159900000Y-93740000D03*
%TD*%
D11*
%TO.C,H4*%
X120000000Y-101000000D03*
%TD*%
%TO.C,H3*%
X186000000Y-101000000D03*
%TD*%
D21*
%TO.C,C3*%
X162600000Y-85390000D03*
X162600000Y-83490000D03*
%TD*%
D22*
%TO.C,D1*%
X154900000Y-77890000D03*
X154900000Y-82190000D03*
%TD*%
D23*
%TO.C,L1*%
X136700000Y-82240000D03*
X147800000Y-82240000D03*
%TD*%
D24*
%TO.C,J3*%
X173920000Y-87100000D03*
D17*
X173920000Y-84560000D03*
X176460000Y-87100000D03*
X176460000Y-84560000D03*
X179000000Y-87100000D03*
X179000000Y-84560000D03*
X181540000Y-87100000D03*
X181540000Y-84560000D03*
X184080000Y-87100000D03*
X184080000Y-84560000D03*
%TD*%
D25*
%TO.C,R2*%
X168500000Y-94065000D03*
X168500000Y-92415000D03*
%TD*%
D26*
%TO.C,C2*%
X150400000Y-92165000D03*
X150400000Y-93715000D03*
%TD*%
D27*
%TO.C,C4*%
X161600000Y-77892651D03*
D28*
X161600000Y-74392651D03*
%TD*%
D29*
%TO.C,RV1*%
X163875000Y-91565000D03*
X166415000Y-94105000D03*
X163875000Y-96645000D03*
%TD*%
M02*
