M48
; DRILL file {KiCad 8.0.3} date 2024-06-06T01:48:58+1200
; FORMAT={-:-/ absolute / metric / decimal}
; #@! TF.CreationDate,2024-06-06T01:48:58+12:00
; #@! TF.GenerationSoftware,Kicad,Pcbnew,8.0.3
; #@! TF.FileFunction,Plated,1,2,PTH
FMAT,2
METRIC
; #@! TA.AperFunction,Plated,PTH,ViaDrill
T1C0.300
; #@! TA.AperFunction,Plated,PTH,ViaDrill
T2C0.500
; #@! TA.AperFunction,Plated,PTH,ViaDrill
T3C0.800
; #@! TA.AperFunction,Plated,PTH,ComponentDrill
T4C0.800
; #@! TA.AperFunction,Plated,PTH,ComponentDrill
T5C1.000
; #@! TA.AperFunction,Plated,PTH,ComponentDrill
T6C1.100
%
G90
G05
T1
X128.778Y-86.995
X131.064Y-89.281
X131.064Y-91.821
X131.064Y-98.425
X131.064Y-100.203
X159.5Y-92.64
X159.5Y-94.74
X160.3Y-92.64
X160.3Y-94.74
X168.5Y-91.64
X179.0Y-90.64
X181.6Y-90.74
T2
X150.8Y-95.34
X152.3Y-95.34
X153.0Y-73.64
X153.0Y-74.74
X160.1Y-95.74
T3
X144.5Y-93.39
X154.5Y-74.04
X156.25Y-74.09
X158.0Y-74.09
X159.75Y-74.09
T4
X161.6Y-74.393
X161.6Y-77.893
X163.875Y-91.565
X163.875Y-96.645
X166.415Y-94.105
T5
X123.707Y-80.42
X123.707Y-82.96
X123.707Y-85.5
X123.707Y-88.04
X123.707Y-90.58
X126.247Y-80.42
X126.247Y-82.96
X126.247Y-85.5
X126.247Y-88.04
X126.247Y-90.58
X173.92Y-84.56
X173.92Y-87.1
X176.46Y-84.56
X176.46Y-87.1
X179.0Y-84.56
X179.0Y-87.1
X181.54Y-84.56
X181.54Y-87.1
X184.08Y-84.56
X184.08Y-87.1
T6
X152.385Y-88.045
X154.925Y-88.045
X157.465Y-88.045
M30
