%TF.GenerationSoftware,KiCad,Pcbnew,8.0.3*%
%TF.CreationDate,2024-06-07T01:36:30+12:00*%
%TF.ProjectId,mechanical_switch_breakout,6d656368-616e-4696-9361-6c5f73776974,0.1.0*%
%TF.SameCoordinates,Original*%
%TF.FileFunction,Legend,Top*%
%TF.FilePolarity,Positive*%
%FSLAX46Y46*%
G04 Gerber Fmt 4.6, Leading zero omitted, Abs format (unit mm)*
G04 Created by KiCad (PCBNEW 8.0.3) date 2024-06-07 01:36:30*
%MOMM*%
%LPD*%
G01*
G04 APERTURE LIST*
%ADD10C,0.120000*%
G04 APERTURE END LIST*
D10*
%TO.C,J1*%
X124650000Y-59980000D02*
X124650000Y-62640000D01*
X124650000Y-62640000D02*
X134930000Y-62640000D01*
X125600000Y-59582929D02*
X125600000Y-59980000D01*
X125600000Y-68640000D02*
X125600000Y-62640000D01*
X126360000Y-59582929D02*
X126360000Y-59980000D01*
X126360000Y-62640000D02*
X126360000Y-68640000D01*
X126360000Y-68640000D02*
X125600000Y-68640000D01*
X127250000Y-59980000D02*
X127250000Y-62640000D01*
X128140000Y-59582929D02*
X128140000Y-59980000D01*
X128140000Y-68640000D02*
X128140000Y-62640000D01*
X128900000Y-59582929D02*
X128900000Y-59980000D01*
X128900000Y-62640000D02*
X128900000Y-68640000D01*
X128900000Y-68640000D02*
X128140000Y-68640000D01*
X129790000Y-59980000D02*
X129790000Y-62640000D01*
X130680000Y-59582929D02*
X130680000Y-59980000D01*
X130680000Y-68640000D02*
X130680000Y-62640000D01*
X131440000Y-59582929D02*
X131440000Y-59980000D01*
X131440000Y-62640000D02*
X131440000Y-68640000D01*
X131440000Y-68640000D02*
X130680000Y-68640000D01*
X132330000Y-59980000D02*
X132330000Y-62640000D01*
X133220000Y-59650000D02*
X133220000Y-59980000D01*
X133220000Y-68640000D02*
X133220000Y-62640000D01*
X133320000Y-62640000D02*
X133320000Y-68640000D01*
X133440000Y-62640000D02*
X133440000Y-68640000D01*
X133560000Y-62640000D02*
X133560000Y-68640000D01*
X133600000Y-57270000D02*
X134870000Y-57270000D01*
X133680000Y-62640000D02*
X133680000Y-68640000D01*
X133800000Y-62640000D02*
X133800000Y-68640000D01*
X133920000Y-62640000D02*
X133920000Y-68640000D01*
X133980000Y-59650000D02*
X133980000Y-59980000D01*
X133980000Y-62640000D02*
X133980000Y-68640000D01*
X133980000Y-68640000D02*
X133220000Y-68640000D01*
X134870000Y-57270000D02*
X134870000Y-58540000D01*
X134930000Y-59980000D02*
X124650000Y-59980000D01*
X134930000Y-62640000D02*
X134930000Y-59980000D01*
%TO.C,SW2*%
X89565000Y-56555000D02*
X103535000Y-56555000D01*
X89565000Y-70525000D02*
X89565000Y-56555000D01*
X103535000Y-56555000D02*
X103535000Y-70525000D01*
X103535000Y-70525000D02*
X89565000Y-70525000D01*
%TO.C,SW1*%
X70515000Y-56555000D02*
X84485000Y-56555000D01*
X70515000Y-70525000D02*
X70515000Y-56555000D01*
X84485000Y-56555000D02*
X84485000Y-70525000D01*
X84485000Y-70525000D02*
X70515000Y-70525000D01*
%TO.C,SW3*%
X108615000Y-56555000D02*
X122585000Y-56555000D01*
X108615000Y-70525000D02*
X108615000Y-56555000D01*
X122585000Y-56555000D02*
X122585000Y-70525000D01*
X122585000Y-70525000D02*
X108615000Y-70525000D01*
%TD*%
M02*
