%TF.GenerationSoftware,KiCad,Pcbnew,8.0.3*%
%TF.CreationDate,2024-06-08T15:38:27+12:00*%
%TF.ProjectId,toggle_switch_breakout,746f6767-6c65-45f7-9377-697463685f62,0.1.1*%
%TF.SameCoordinates,Original*%
%TF.FileFunction,Copper,L2,Bot*%
%TF.FilePolarity,Positive*%
%FSLAX46Y46*%
G04 Gerber Fmt 4.6, Leading zero omitted, Abs format (unit mm)*
G04 Created by KiCad (PCBNEW 8.0.3) date 2024-06-08 15:38:27*
%MOMM*%
%LPD*%
G01*
G04 APERTURE LIST*
%TA.AperFunction,ComponentPad*%
%ADD10O,3.200000X2.000000*%
%TD*%
%TA.AperFunction,ComponentPad*%
%ADD11R,1.700000X1.700000*%
%TD*%
%TA.AperFunction,ComponentPad*%
%ADD12O,1.700000X1.700000*%
%TD*%
G04 APERTURE END LIST*
D10*
%TO.P,SW2,1,A*%
%TO.N,/COMMON*%
X110000000Y-63100000D03*
%TO.P,SW2,2,B*%
%TO.N,/SW_2*%
X110000000Y-67800000D03*
%TD*%
%TO.P,SW1,1,A*%
%TO.N,/COMMON*%
X100000000Y-63100000D03*
%TO.P,SW1,2,B*%
%TO.N,/SW_1*%
X100000000Y-67800000D03*
%TD*%
D11*
%TO.P,J1,1,Pin_1*%
%TO.N,/SW_2*%
X108800000Y-54100000D03*
D12*
%TO.P,J1,2,Pin_2*%
%TO.N,/SW_1*%
X106260000Y-54100000D03*
%TO.P,J1,3,Pin_3*%
%TO.N,unconnected-(J1-Pin_3-Pad3)*%
X103720000Y-54100000D03*
%TO.P,J1,4,Pin_4*%
%TO.N,/COMMON*%
X101180000Y-54100000D03*
%TD*%
%TA.AperFunction,Conductor*%
%TO.N,/COMMON*%
G36*
X113004418Y-52400816D02*
G01*
X113233020Y-52417165D01*
X113250529Y-52419683D01*
X113470144Y-52467458D01*
X113487103Y-52472437D01*
X113697694Y-52550983D01*
X113713777Y-52558327D01*
X113911036Y-52666040D01*
X113925919Y-52675605D01*
X114105836Y-52810289D01*
X114119207Y-52821875D01*
X114278124Y-52980792D01*
X114289710Y-52994163D01*
X114424394Y-53174080D01*
X114433959Y-53188963D01*
X114541669Y-53386217D01*
X114549019Y-53402311D01*
X114627559Y-53612887D01*
X114632543Y-53629862D01*
X114680316Y-53849470D01*
X114682834Y-53866982D01*
X114699184Y-54095581D01*
X114699500Y-54104427D01*
X114699500Y-69095572D01*
X114699184Y-69104418D01*
X114682834Y-69333017D01*
X114680316Y-69350529D01*
X114632543Y-69570137D01*
X114627559Y-69587112D01*
X114549019Y-69797688D01*
X114541669Y-69813782D01*
X114433959Y-70011036D01*
X114424394Y-70025919D01*
X114289710Y-70205836D01*
X114278124Y-70219207D01*
X114119207Y-70378124D01*
X114105836Y-70389710D01*
X113925919Y-70524394D01*
X113911036Y-70533959D01*
X113713782Y-70641669D01*
X113697688Y-70649019D01*
X113487112Y-70727559D01*
X113470137Y-70732543D01*
X113250529Y-70780316D01*
X113233017Y-70782834D01*
X113004418Y-70799184D01*
X112995572Y-70799500D01*
X97004428Y-70799500D01*
X96995582Y-70799184D01*
X96766982Y-70782834D01*
X96749470Y-70780316D01*
X96529862Y-70732543D01*
X96512887Y-70727559D01*
X96302311Y-70649019D01*
X96286217Y-70641669D01*
X96088963Y-70533959D01*
X96074080Y-70524394D01*
X95894163Y-70389710D01*
X95880792Y-70378124D01*
X95721875Y-70219207D01*
X95710289Y-70205836D01*
X95575605Y-70025919D01*
X95566040Y-70011036D01*
X95458330Y-69813782D01*
X95450983Y-69797694D01*
X95372437Y-69587103D01*
X95367458Y-69570144D01*
X95319683Y-69350529D01*
X95317165Y-69333017D01*
X95314839Y-69300500D01*
X95300816Y-69104418D01*
X95300500Y-69095572D01*
X95300500Y-67681902D01*
X97899500Y-67681902D01*
X97899500Y-67918097D01*
X97936446Y-68151368D01*
X98009433Y-68375996D01*
X98116657Y-68586433D01*
X98255483Y-68777510D01*
X98422490Y-68944517D01*
X98613567Y-69083343D01*
X98712991Y-69134002D01*
X98824003Y-69190566D01*
X98824005Y-69190566D01*
X98824008Y-69190568D01*
X98944412Y-69229689D01*
X99048631Y-69263553D01*
X99281903Y-69300500D01*
X99281908Y-69300500D01*
X100718097Y-69300500D01*
X100951368Y-69263553D01*
X101175992Y-69190568D01*
X101386433Y-69083343D01*
X101577510Y-68944517D01*
X101744517Y-68777510D01*
X101883343Y-68586433D01*
X101990568Y-68375992D01*
X102063553Y-68151368D01*
X102100500Y-67918097D01*
X102100500Y-67681902D01*
X107899500Y-67681902D01*
X107899500Y-67918097D01*
X107936446Y-68151368D01*
X108009433Y-68375996D01*
X108116657Y-68586433D01*
X108255483Y-68777510D01*
X108422490Y-68944517D01*
X108613567Y-69083343D01*
X108712991Y-69134002D01*
X108824003Y-69190566D01*
X108824005Y-69190566D01*
X108824008Y-69190568D01*
X108944412Y-69229689D01*
X109048631Y-69263553D01*
X109281903Y-69300500D01*
X109281908Y-69300500D01*
X110718097Y-69300500D01*
X110951368Y-69263553D01*
X111175992Y-69190568D01*
X111386433Y-69083343D01*
X111577510Y-68944517D01*
X111744517Y-68777510D01*
X111883343Y-68586433D01*
X111990568Y-68375992D01*
X112063553Y-68151368D01*
X112100500Y-67918097D01*
X112100500Y-67681902D01*
X112063553Y-67448631D01*
X111990566Y-67224003D01*
X111883342Y-67013566D01*
X111744517Y-66822490D01*
X111577510Y-66655483D01*
X111386433Y-66516657D01*
X111175996Y-66409433D01*
X110951368Y-66336446D01*
X110718097Y-66299500D01*
X110718092Y-66299500D01*
X109281908Y-66299500D01*
X109281903Y-66299500D01*
X109048631Y-66336446D01*
X108824003Y-66409433D01*
X108613566Y-66516657D01*
X108504550Y-66595862D01*
X108422490Y-66655483D01*
X108422488Y-66655485D01*
X108422487Y-66655485D01*
X108255485Y-66822487D01*
X108255485Y-66822488D01*
X108255483Y-66822490D01*
X108195862Y-66904550D01*
X108116657Y-67013566D01*
X108009433Y-67224003D01*
X107936446Y-67448631D01*
X107899500Y-67681902D01*
X102100500Y-67681902D01*
X102063553Y-67448631D01*
X101990566Y-67224003D01*
X101883342Y-67013566D01*
X101744517Y-66822490D01*
X101577510Y-66655483D01*
X101386433Y-66516657D01*
X101175996Y-66409433D01*
X100951368Y-66336446D01*
X100718097Y-66299500D01*
X100718092Y-66299500D01*
X99281908Y-66299500D01*
X99281903Y-66299500D01*
X99048631Y-66336446D01*
X98824003Y-66409433D01*
X98613566Y-66516657D01*
X98504550Y-66595862D01*
X98422490Y-66655483D01*
X98422488Y-66655485D01*
X98422487Y-66655485D01*
X98255485Y-66822487D01*
X98255485Y-66822488D01*
X98255483Y-66822490D01*
X98195862Y-66904550D01*
X98116657Y-67013566D01*
X98009433Y-67224003D01*
X97936446Y-67448631D01*
X97899500Y-67681902D01*
X95300500Y-67681902D01*
X95300500Y-54104427D01*
X95300658Y-54099999D01*
X102364341Y-54099999D01*
X102364341Y-54100000D01*
X102384936Y-54335403D01*
X102384938Y-54335413D01*
X102446094Y-54563655D01*
X102446096Y-54563659D01*
X102446097Y-54563663D01*
X102450000Y-54572032D01*
X102545965Y-54777830D01*
X102545967Y-54777834D01*
X102654281Y-54932521D01*
X102681505Y-54971401D01*
X102848599Y-55138495D01*
X102945384Y-55206265D01*
X103042165Y-55274032D01*
X103042167Y-55274033D01*
X103042170Y-55274035D01*
X103256337Y-55373903D01*
X103484592Y-55435063D01*
X103661034Y-55450500D01*
X103719999Y-55455659D01*
X103720000Y-55455659D01*
X103720001Y-55455659D01*
X103778966Y-55450500D01*
X103955408Y-55435063D01*
X104183663Y-55373903D01*
X104397830Y-55274035D01*
X104591401Y-55138495D01*
X104758495Y-54971401D01*
X104888425Y-54785842D01*
X104943002Y-54742217D01*
X105012500Y-54735023D01*
X105074855Y-54766546D01*
X105091575Y-54785842D01*
X105221500Y-54971395D01*
X105221505Y-54971401D01*
X105388599Y-55138495D01*
X105485384Y-55206265D01*
X105582165Y-55274032D01*
X105582167Y-55274033D01*
X105582170Y-55274035D01*
X105796337Y-55373903D01*
X106024592Y-55435063D01*
X106201034Y-55450500D01*
X106259999Y-55455659D01*
X106260000Y-55455659D01*
X106260001Y-55455659D01*
X106318966Y-55450500D01*
X106495408Y-55435063D01*
X106723663Y-55373903D01*
X106937830Y-55274035D01*
X107131401Y-55138495D01*
X107253329Y-55016566D01*
X107314648Y-54983084D01*
X107384340Y-54988068D01*
X107440274Y-55029939D01*
X107457189Y-55060917D01*
X107506202Y-55192328D01*
X107506206Y-55192335D01*
X107592452Y-55307544D01*
X107592455Y-55307547D01*
X107707664Y-55393793D01*
X107707671Y-55393797D01*
X107842517Y-55444091D01*
X107842516Y-55444091D01*
X107849444Y-55444835D01*
X107902127Y-55450500D01*
X109697872Y-55450499D01*
X109757483Y-55444091D01*
X109892331Y-55393796D01*
X110007546Y-55307546D01*
X110093796Y-55192331D01*
X110144091Y-55057483D01*
X110150500Y-54997873D01*
X110150499Y-53202128D01*
X110144091Y-53142517D01*
X110142810Y-53139083D01*
X110093797Y-53007671D01*
X110093793Y-53007664D01*
X110007547Y-52892455D01*
X110007544Y-52892452D01*
X109892335Y-52806206D01*
X109892328Y-52806202D01*
X109757482Y-52755908D01*
X109757483Y-52755908D01*
X109697883Y-52749501D01*
X109697881Y-52749500D01*
X109697873Y-52749500D01*
X109697864Y-52749500D01*
X107902129Y-52749500D01*
X107902123Y-52749501D01*
X107842516Y-52755908D01*
X107707671Y-52806202D01*
X107707664Y-52806206D01*
X107592455Y-52892452D01*
X107592452Y-52892455D01*
X107506206Y-53007664D01*
X107506203Y-53007669D01*
X107457189Y-53139083D01*
X107415317Y-53195016D01*
X107349853Y-53219433D01*
X107281580Y-53204581D01*
X107253326Y-53183430D01*
X107131402Y-53061506D01*
X107131395Y-53061501D01*
X106937834Y-52925967D01*
X106937830Y-52925965D01*
X106898637Y-52907689D01*
X106723663Y-52826097D01*
X106723659Y-52826096D01*
X106723655Y-52826094D01*
X106495413Y-52764938D01*
X106495403Y-52764936D01*
X106260001Y-52744341D01*
X106259999Y-52744341D01*
X106024596Y-52764936D01*
X106024586Y-52764938D01*
X105796344Y-52826094D01*
X105796335Y-52826098D01*
X105582171Y-52925964D01*
X105582169Y-52925965D01*
X105388597Y-53061505D01*
X105221505Y-53228597D01*
X105091575Y-53414158D01*
X105036998Y-53457783D01*
X104967500Y-53464977D01*
X104905145Y-53433454D01*
X104888425Y-53414158D01*
X104758494Y-53228597D01*
X104591402Y-53061506D01*
X104591395Y-53061501D01*
X104397834Y-52925967D01*
X104397830Y-52925965D01*
X104358637Y-52907689D01*
X104183663Y-52826097D01*
X104183659Y-52826096D01*
X104183655Y-52826094D01*
X103955413Y-52764938D01*
X103955403Y-52764936D01*
X103720001Y-52744341D01*
X103719999Y-52744341D01*
X103484596Y-52764936D01*
X103484586Y-52764938D01*
X103256344Y-52826094D01*
X103256335Y-52826098D01*
X103042171Y-52925964D01*
X103042169Y-52925965D01*
X102848597Y-53061505D01*
X102681505Y-53228597D01*
X102545965Y-53422169D01*
X102545964Y-53422171D01*
X102446098Y-53636335D01*
X102446094Y-53636344D01*
X102384938Y-53864586D01*
X102384936Y-53864596D01*
X102364341Y-54099999D01*
X95300658Y-54099999D01*
X95300816Y-54095581D01*
X95317165Y-53866982D01*
X95319683Y-53849470D01*
X95367459Y-53629851D01*
X95372436Y-53612900D01*
X95450985Y-53402299D01*
X95458325Y-53386227D01*
X95566044Y-53188956D01*
X95575600Y-53174086D01*
X95710294Y-52994156D01*
X95721868Y-52980799D01*
X95880799Y-52821868D01*
X95894156Y-52810294D01*
X96074086Y-52675600D01*
X96088956Y-52666044D01*
X96286227Y-52558325D01*
X96302299Y-52550985D01*
X96512900Y-52472436D01*
X96529851Y-52467459D01*
X96749472Y-52419682D01*
X96766977Y-52417165D01*
X96995582Y-52400816D01*
X97004428Y-52400500D01*
X97047595Y-52400500D01*
X112952405Y-52400500D01*
X112995572Y-52400500D01*
X113004418Y-52400816D01*
G37*
%TD.AperFunction*%
%TD*%
M02*
