%TF.GenerationSoftware,KiCad,Pcbnew,8.0.3*%
%TF.CreationDate,2024-06-08T15:38:25+12:00*%
%TF.ProjectId,toggle_switch_breakout,746f6767-6c65-45f7-9377-697463685f62,0.1.1*%
%TF.SameCoordinates,Original*%
%TF.FileFunction,Drillmap*%
%TF.FilePolarity,Positive*%
%FSLAX45Y45*%
G04 Gerber Fmt 4.5, Leading zero omitted, Abs format (unit mm)*
G04 Created by KiCad (PCBNEW 8.0.3) date 2024-06-08 15:38:25*
%MOMM*%
%LPD*%
G01*
G04 APERTURE LIST*
%ADD10C,0.100000*%
%ADD11C,0.200000*%
G04 APERTURE END LIST*
D10*
X9700000Y-5210000D02*
X11300000Y-5210000D01*
X11300000Y-7110000D02*
X9700000Y-7110000D01*
X9500000Y-5410000D02*
G75*
G02*
X9700000Y-5210000I200000J0D01*
G01*
X11500000Y-5410000D02*
X11500000Y-6910000D01*
X9700000Y-7110000D02*
G75*
G02*
X9500000Y-6910000I0J200000D01*
G01*
X11500000Y-6910000D02*
G75*
G02*
X11300000Y-7110000I-200000J0D01*
G01*
X9500000Y-6910000D02*
X9500000Y-5410000D01*
X11300000Y-5210000D02*
G75*
G02*
X11500000Y-5410000I0J-200000D01*
G01*
D11*
D10*
X9950000Y-6260000D02*
X10050000Y-6360000D01*
X10050000Y-6260000D02*
X9950000Y-6360000D01*
X10060000Y-6260000D02*
X9940000Y-6260000D01*
X9940000Y-6360000D02*
G75*
G02*
X9940000Y-6260000I0J50000D01*
G01*
X9940000Y-6360000D02*
X10060000Y-6360000D01*
X10060000Y-6360000D02*
G75*
G03*
X10060000Y-6260000I0J50000D01*
G01*
X9950000Y-6730000D02*
X10050000Y-6830000D01*
X10050000Y-6730000D02*
X9950000Y-6830000D01*
X10060000Y-6730000D02*
X9940000Y-6730000D01*
X9940000Y-6830000D02*
G75*
G02*
X9940000Y-6730000I0J50000D01*
G01*
X9940000Y-6830000D02*
X10060000Y-6830000D01*
X10060000Y-6830000D02*
G75*
G03*
X10060000Y-6730000I0J50000D01*
G01*
X10068000Y-5360000D02*
X10168000Y-5460000D01*
X10168000Y-5360000D02*
X10068000Y-5460000D01*
X10322000Y-5360000D02*
X10422000Y-5460000D01*
X10422000Y-5360000D02*
X10322000Y-5460000D01*
X10576000Y-5360000D02*
X10676000Y-5460000D01*
X10676000Y-5360000D02*
X10576000Y-5460000D01*
X10830000Y-5360000D02*
X10930000Y-5460000D01*
X10930000Y-5360000D02*
X10830000Y-5460000D01*
X10950000Y-6260000D02*
X11050000Y-6360000D01*
X11050000Y-6260000D02*
X10950000Y-6360000D01*
X11060000Y-6260000D02*
X10940000Y-6260000D01*
X10940000Y-6360000D02*
G75*
G02*
X10940000Y-6260000I0J50000D01*
G01*
X10940000Y-6360000D02*
X11060000Y-6360000D01*
X11060000Y-6360000D02*
G75*
G03*
X11060000Y-6260000I0J50000D01*
G01*
X10950000Y-6730000D02*
X11050000Y-6830000D01*
X11050000Y-6730000D02*
X10950000Y-6830000D01*
X11060000Y-6730000D02*
X10940000Y-6730000D01*
X10940000Y-6830000D02*
G75*
G02*
X10940000Y-6730000I0J50000D01*
G01*
X10940000Y-6830000D02*
X11060000Y-6830000D01*
X11060000Y-6830000D02*
G75*
G03*
X11060000Y-6730000I0J50000D01*
G01*
D11*
X9755777Y-7426484D02*
X9755777Y-7226484D01*
X9755777Y-7226484D02*
X9803396Y-7226484D01*
X9803396Y-7226484D02*
X9831967Y-7236008D01*
X9831967Y-7236008D02*
X9851015Y-7255055D01*
X9851015Y-7255055D02*
X9860539Y-7274103D01*
X9860539Y-7274103D02*
X9870063Y-7312198D01*
X9870063Y-7312198D02*
X9870063Y-7340769D01*
X9870063Y-7340769D02*
X9860539Y-7378865D01*
X9860539Y-7378865D02*
X9851015Y-7397912D01*
X9851015Y-7397912D02*
X9831967Y-7416960D01*
X9831967Y-7416960D02*
X9803396Y-7426484D01*
X9803396Y-7426484D02*
X9755777Y-7426484D01*
X9955777Y-7426484D02*
X9955777Y-7293150D01*
X9955777Y-7331246D02*
X9965301Y-7312198D01*
X9965301Y-7312198D02*
X9974824Y-7302674D01*
X9974824Y-7302674D02*
X9993872Y-7293150D01*
X9993872Y-7293150D02*
X10012920Y-7293150D01*
X10079586Y-7426484D02*
X10079586Y-7293150D01*
X10079586Y-7226484D02*
X10070063Y-7236008D01*
X10070063Y-7236008D02*
X10079586Y-7245531D01*
X10079586Y-7245531D02*
X10089110Y-7236008D01*
X10089110Y-7236008D02*
X10079586Y-7226484D01*
X10079586Y-7226484D02*
X10079586Y-7245531D01*
X10203396Y-7426484D02*
X10184348Y-7416960D01*
X10184348Y-7416960D02*
X10174824Y-7397912D01*
X10174824Y-7397912D02*
X10174824Y-7226484D01*
X10308158Y-7426484D02*
X10289110Y-7416960D01*
X10289110Y-7416960D02*
X10279586Y-7397912D01*
X10279586Y-7397912D02*
X10279586Y-7226484D01*
X10536729Y-7426484D02*
X10536729Y-7226484D01*
X10536729Y-7226484D02*
X10603396Y-7369341D01*
X10603396Y-7369341D02*
X10670063Y-7226484D01*
X10670063Y-7226484D02*
X10670063Y-7426484D01*
X10851015Y-7426484D02*
X10851015Y-7321722D01*
X10851015Y-7321722D02*
X10841491Y-7302674D01*
X10841491Y-7302674D02*
X10822444Y-7293150D01*
X10822444Y-7293150D02*
X10784348Y-7293150D01*
X10784348Y-7293150D02*
X10765301Y-7302674D01*
X10851015Y-7416960D02*
X10831967Y-7426484D01*
X10831967Y-7426484D02*
X10784348Y-7426484D01*
X10784348Y-7426484D02*
X10765301Y-7416960D01*
X10765301Y-7416960D02*
X10755777Y-7397912D01*
X10755777Y-7397912D02*
X10755777Y-7378865D01*
X10755777Y-7378865D02*
X10765301Y-7359817D01*
X10765301Y-7359817D02*
X10784348Y-7350293D01*
X10784348Y-7350293D02*
X10831967Y-7350293D01*
X10831967Y-7350293D02*
X10851015Y-7340769D01*
X10946253Y-7293150D02*
X10946253Y-7493150D01*
X10946253Y-7302674D02*
X10965301Y-7293150D01*
X10965301Y-7293150D02*
X11003396Y-7293150D01*
X11003396Y-7293150D02*
X11022444Y-7302674D01*
X11022444Y-7302674D02*
X11031967Y-7312198D01*
X11031967Y-7312198D02*
X11041491Y-7331246D01*
X11041491Y-7331246D02*
X11041491Y-7388388D01*
X11041491Y-7388388D02*
X11031967Y-7407436D01*
X11031967Y-7407436D02*
X11022444Y-7416960D01*
X11022444Y-7416960D02*
X11003396Y-7426484D01*
X11003396Y-7426484D02*
X10965301Y-7426484D01*
X10965301Y-7426484D02*
X10946253Y-7416960D01*
X11127205Y-7407436D02*
X11136729Y-7416960D01*
X11136729Y-7416960D02*
X11127205Y-7426484D01*
X11127205Y-7426484D02*
X11117682Y-7416960D01*
X11117682Y-7416960D02*
X11127205Y-7407436D01*
X11127205Y-7407436D02*
X11127205Y-7426484D01*
X11127205Y-7302674D02*
X11136729Y-7312198D01*
X11136729Y-7312198D02*
X11127205Y-7321722D01*
X11127205Y-7321722D02*
X11117682Y-7312198D01*
X11117682Y-7312198D02*
X11127205Y-7302674D01*
X11127205Y-7302674D02*
X11127205Y-7321722D01*
D10*
X9395000Y-7705000D02*
X9495000Y-7805000D01*
X9495000Y-7705000D02*
X9395000Y-7805000D01*
D11*
X9860539Y-7846484D02*
X9746253Y-7846484D01*
X9803396Y-7846484D02*
X9803396Y-7646484D01*
X9803396Y-7646484D02*
X9784348Y-7675055D01*
X9784348Y-7675055D02*
X9765301Y-7694103D01*
X9765301Y-7694103D02*
X9746253Y-7703627D01*
X9946253Y-7827436D02*
X9955777Y-7836960D01*
X9955777Y-7836960D02*
X9946253Y-7846484D01*
X9946253Y-7846484D02*
X9936729Y-7836960D01*
X9936729Y-7836960D02*
X9946253Y-7827436D01*
X9946253Y-7827436D02*
X9946253Y-7846484D01*
X10079586Y-7646484D02*
X10098634Y-7646484D01*
X10098634Y-7646484D02*
X10117682Y-7656008D01*
X10117682Y-7656008D02*
X10127205Y-7665531D01*
X10127205Y-7665531D02*
X10136729Y-7684579D01*
X10136729Y-7684579D02*
X10146253Y-7722674D01*
X10146253Y-7722674D02*
X10146253Y-7770293D01*
X10146253Y-7770293D02*
X10136729Y-7808388D01*
X10136729Y-7808388D02*
X10127205Y-7827436D01*
X10127205Y-7827436D02*
X10117682Y-7836960D01*
X10117682Y-7836960D02*
X10098634Y-7846484D01*
X10098634Y-7846484D02*
X10079586Y-7846484D01*
X10079586Y-7846484D02*
X10060539Y-7836960D01*
X10060539Y-7836960D02*
X10051015Y-7827436D01*
X10051015Y-7827436D02*
X10041491Y-7808388D01*
X10041491Y-7808388D02*
X10031967Y-7770293D01*
X10031967Y-7770293D02*
X10031967Y-7722674D01*
X10031967Y-7722674D02*
X10041491Y-7684579D01*
X10041491Y-7684579D02*
X10051015Y-7665531D01*
X10051015Y-7665531D02*
X10060539Y-7656008D01*
X10060539Y-7656008D02*
X10079586Y-7646484D01*
X10270063Y-7646484D02*
X10289110Y-7646484D01*
X10289110Y-7646484D02*
X10308158Y-7656008D01*
X10308158Y-7656008D02*
X10317682Y-7665531D01*
X10317682Y-7665531D02*
X10327205Y-7684579D01*
X10327205Y-7684579D02*
X10336729Y-7722674D01*
X10336729Y-7722674D02*
X10336729Y-7770293D01*
X10336729Y-7770293D02*
X10327205Y-7808388D01*
X10327205Y-7808388D02*
X10317682Y-7827436D01*
X10317682Y-7827436D02*
X10308158Y-7836960D01*
X10308158Y-7836960D02*
X10289110Y-7846484D01*
X10289110Y-7846484D02*
X10270063Y-7846484D01*
X10270063Y-7846484D02*
X10251015Y-7836960D01*
X10251015Y-7836960D02*
X10241491Y-7827436D01*
X10241491Y-7827436D02*
X10231967Y-7808388D01*
X10231967Y-7808388D02*
X10222444Y-7770293D01*
X10222444Y-7770293D02*
X10222444Y-7722674D01*
X10222444Y-7722674D02*
X10231967Y-7684579D01*
X10231967Y-7684579D02*
X10241491Y-7665531D01*
X10241491Y-7665531D02*
X10251015Y-7656008D01*
X10251015Y-7656008D02*
X10270063Y-7646484D01*
X10460539Y-7646484D02*
X10479586Y-7646484D01*
X10479586Y-7646484D02*
X10498634Y-7656008D01*
X10498634Y-7656008D02*
X10508158Y-7665531D01*
X10508158Y-7665531D02*
X10517682Y-7684579D01*
X10517682Y-7684579D02*
X10527205Y-7722674D01*
X10527205Y-7722674D02*
X10527205Y-7770293D01*
X10527205Y-7770293D02*
X10517682Y-7808388D01*
X10517682Y-7808388D02*
X10508158Y-7827436D01*
X10508158Y-7827436D02*
X10498634Y-7836960D01*
X10498634Y-7836960D02*
X10479586Y-7846484D01*
X10479586Y-7846484D02*
X10460539Y-7846484D01*
X10460539Y-7846484D02*
X10441491Y-7836960D01*
X10441491Y-7836960D02*
X10431967Y-7827436D01*
X10431967Y-7827436D02*
X10422444Y-7808388D01*
X10422444Y-7808388D02*
X10412920Y-7770293D01*
X10412920Y-7770293D02*
X10412920Y-7722674D01*
X10412920Y-7722674D02*
X10422444Y-7684579D01*
X10422444Y-7684579D02*
X10431967Y-7665531D01*
X10431967Y-7665531D02*
X10441491Y-7656008D01*
X10441491Y-7656008D02*
X10460539Y-7646484D01*
X10612920Y-7846484D02*
X10612920Y-7713150D01*
X10612920Y-7732198D02*
X10622444Y-7722674D01*
X10622444Y-7722674D02*
X10641491Y-7713150D01*
X10641491Y-7713150D02*
X10670063Y-7713150D01*
X10670063Y-7713150D02*
X10689110Y-7722674D01*
X10689110Y-7722674D02*
X10698634Y-7741722D01*
X10698634Y-7741722D02*
X10698634Y-7846484D01*
X10698634Y-7741722D02*
X10708158Y-7722674D01*
X10708158Y-7722674D02*
X10727205Y-7713150D01*
X10727205Y-7713150D02*
X10755777Y-7713150D01*
X10755777Y-7713150D02*
X10774825Y-7722674D01*
X10774825Y-7722674D02*
X10784348Y-7741722D01*
X10784348Y-7741722D02*
X10784348Y-7846484D01*
X10879586Y-7846484D02*
X10879586Y-7713150D01*
X10879586Y-7732198D02*
X10889110Y-7722674D01*
X10889110Y-7722674D02*
X10908158Y-7713150D01*
X10908158Y-7713150D02*
X10936729Y-7713150D01*
X10936729Y-7713150D02*
X10955777Y-7722674D01*
X10955777Y-7722674D02*
X10965301Y-7741722D01*
X10965301Y-7741722D02*
X10965301Y-7846484D01*
X10965301Y-7741722D02*
X10974825Y-7722674D01*
X10974825Y-7722674D02*
X10993872Y-7713150D01*
X10993872Y-7713150D02*
X11022444Y-7713150D01*
X11022444Y-7713150D02*
X11041491Y-7722674D01*
X11041491Y-7722674D02*
X11051015Y-7741722D01*
X11051015Y-7741722D02*
X11051015Y-7846484D01*
X11441491Y-7636960D02*
X11270063Y-7894103D01*
X11698634Y-7646484D02*
X11717682Y-7646484D01*
X11717682Y-7646484D02*
X11736729Y-7656008D01*
X11736729Y-7656008D02*
X11746253Y-7665531D01*
X11746253Y-7665531D02*
X11755777Y-7684579D01*
X11755777Y-7684579D02*
X11765301Y-7722674D01*
X11765301Y-7722674D02*
X11765301Y-7770293D01*
X11765301Y-7770293D02*
X11755777Y-7808388D01*
X11755777Y-7808388D02*
X11746253Y-7827436D01*
X11746253Y-7827436D02*
X11736729Y-7836960D01*
X11736729Y-7836960D02*
X11717682Y-7846484D01*
X11717682Y-7846484D02*
X11698634Y-7846484D01*
X11698634Y-7846484D02*
X11679586Y-7836960D01*
X11679586Y-7836960D02*
X11670063Y-7827436D01*
X11670063Y-7827436D02*
X11660539Y-7808388D01*
X11660539Y-7808388D02*
X11651015Y-7770293D01*
X11651015Y-7770293D02*
X11651015Y-7722674D01*
X11651015Y-7722674D02*
X11660539Y-7684579D01*
X11660539Y-7684579D02*
X11670063Y-7665531D01*
X11670063Y-7665531D02*
X11679586Y-7656008D01*
X11679586Y-7656008D02*
X11698634Y-7646484D01*
X11851015Y-7827436D02*
X11860539Y-7836960D01*
X11860539Y-7836960D02*
X11851015Y-7846484D01*
X11851015Y-7846484D02*
X11841491Y-7836960D01*
X11841491Y-7836960D02*
X11851015Y-7827436D01*
X11851015Y-7827436D02*
X11851015Y-7846484D01*
X11984348Y-7646484D02*
X12003396Y-7646484D01*
X12003396Y-7646484D02*
X12022444Y-7656008D01*
X12022444Y-7656008D02*
X12031967Y-7665531D01*
X12031967Y-7665531D02*
X12041491Y-7684579D01*
X12041491Y-7684579D02*
X12051015Y-7722674D01*
X12051015Y-7722674D02*
X12051015Y-7770293D01*
X12051015Y-7770293D02*
X12041491Y-7808388D01*
X12041491Y-7808388D02*
X12031967Y-7827436D01*
X12031967Y-7827436D02*
X12022444Y-7836960D01*
X12022444Y-7836960D02*
X12003396Y-7846484D01*
X12003396Y-7846484D02*
X11984348Y-7846484D01*
X11984348Y-7846484D02*
X11965301Y-7836960D01*
X11965301Y-7836960D02*
X11955777Y-7827436D01*
X11955777Y-7827436D02*
X11946253Y-7808388D01*
X11946253Y-7808388D02*
X11936729Y-7770293D01*
X11936729Y-7770293D02*
X11936729Y-7722674D01*
X11936729Y-7722674D02*
X11946253Y-7684579D01*
X11946253Y-7684579D02*
X11955777Y-7665531D01*
X11955777Y-7665531D02*
X11965301Y-7656008D01*
X11965301Y-7656008D02*
X11984348Y-7646484D01*
X12117682Y-7646484D02*
X12241491Y-7646484D01*
X12241491Y-7646484D02*
X12174825Y-7722674D01*
X12174825Y-7722674D02*
X12203396Y-7722674D01*
X12203396Y-7722674D02*
X12222444Y-7732198D01*
X12222444Y-7732198D02*
X12231967Y-7741722D01*
X12231967Y-7741722D02*
X12241491Y-7760769D01*
X12241491Y-7760769D02*
X12241491Y-7808388D01*
X12241491Y-7808388D02*
X12231967Y-7827436D01*
X12231967Y-7827436D02*
X12222444Y-7836960D01*
X12222444Y-7836960D02*
X12203396Y-7846484D01*
X12203396Y-7846484D02*
X12146253Y-7846484D01*
X12146253Y-7846484D02*
X12127206Y-7836960D01*
X12127206Y-7836960D02*
X12117682Y-7827436D01*
X12336729Y-7846484D02*
X12374825Y-7846484D01*
X12374825Y-7846484D02*
X12393872Y-7836960D01*
X12393872Y-7836960D02*
X12403396Y-7827436D01*
X12403396Y-7827436D02*
X12422444Y-7798865D01*
X12422444Y-7798865D02*
X12431967Y-7760769D01*
X12431967Y-7760769D02*
X12431967Y-7684579D01*
X12431967Y-7684579D02*
X12422444Y-7665531D01*
X12422444Y-7665531D02*
X12412920Y-7656008D01*
X12412920Y-7656008D02*
X12393872Y-7646484D01*
X12393872Y-7646484D02*
X12355777Y-7646484D01*
X12355777Y-7646484D02*
X12336729Y-7656008D01*
X12336729Y-7656008D02*
X12327206Y-7665531D01*
X12327206Y-7665531D02*
X12317682Y-7684579D01*
X12317682Y-7684579D02*
X12317682Y-7732198D01*
X12317682Y-7732198D02*
X12327206Y-7751246D01*
X12327206Y-7751246D02*
X12336729Y-7760769D01*
X12336729Y-7760769D02*
X12355777Y-7770293D01*
X12355777Y-7770293D02*
X12393872Y-7770293D01*
X12393872Y-7770293D02*
X12412920Y-7760769D01*
X12412920Y-7760769D02*
X12422444Y-7751246D01*
X12422444Y-7751246D02*
X12431967Y-7732198D01*
X12603396Y-7713150D02*
X12603396Y-7846484D01*
X12555777Y-7636960D02*
X12508158Y-7779817D01*
X12508158Y-7779817D02*
X12631967Y-7779817D01*
X12698634Y-7646484D02*
X12698634Y-7684579D01*
X12774825Y-7646484D02*
X12774825Y-7684579D01*
X13070063Y-7922674D02*
X13060539Y-7913150D01*
X13060539Y-7913150D02*
X13041491Y-7884579D01*
X13041491Y-7884579D02*
X13031968Y-7865531D01*
X13031968Y-7865531D02*
X13022444Y-7836960D01*
X13022444Y-7836960D02*
X13012920Y-7789341D01*
X13012920Y-7789341D02*
X13012920Y-7751246D01*
X13012920Y-7751246D02*
X13022444Y-7703627D01*
X13022444Y-7703627D02*
X13031968Y-7675055D01*
X13031968Y-7675055D02*
X13041491Y-7656008D01*
X13041491Y-7656008D02*
X13060539Y-7627436D01*
X13060539Y-7627436D02*
X13070063Y-7617912D01*
X13231968Y-7713150D02*
X13231968Y-7846484D01*
X13184348Y-7636960D02*
X13136729Y-7779817D01*
X13136729Y-7779817D02*
X13260539Y-7779817D01*
X13489110Y-7846484D02*
X13489110Y-7646484D01*
X13574825Y-7846484D02*
X13574825Y-7741722D01*
X13574825Y-7741722D02*
X13565301Y-7722674D01*
X13565301Y-7722674D02*
X13546253Y-7713150D01*
X13546253Y-7713150D02*
X13517682Y-7713150D01*
X13517682Y-7713150D02*
X13498634Y-7722674D01*
X13498634Y-7722674D02*
X13489110Y-7732198D01*
X13698634Y-7846484D02*
X13679587Y-7836960D01*
X13679587Y-7836960D02*
X13670063Y-7827436D01*
X13670063Y-7827436D02*
X13660539Y-7808388D01*
X13660539Y-7808388D02*
X13660539Y-7751246D01*
X13660539Y-7751246D02*
X13670063Y-7732198D01*
X13670063Y-7732198D02*
X13679587Y-7722674D01*
X13679587Y-7722674D02*
X13698634Y-7713150D01*
X13698634Y-7713150D02*
X13727206Y-7713150D01*
X13727206Y-7713150D02*
X13746253Y-7722674D01*
X13746253Y-7722674D02*
X13755777Y-7732198D01*
X13755777Y-7732198D02*
X13765301Y-7751246D01*
X13765301Y-7751246D02*
X13765301Y-7808388D01*
X13765301Y-7808388D02*
X13755777Y-7827436D01*
X13755777Y-7827436D02*
X13746253Y-7836960D01*
X13746253Y-7836960D02*
X13727206Y-7846484D01*
X13727206Y-7846484D02*
X13698634Y-7846484D01*
X13879587Y-7846484D02*
X13860539Y-7836960D01*
X13860539Y-7836960D02*
X13851015Y-7817912D01*
X13851015Y-7817912D02*
X13851015Y-7646484D01*
X14031968Y-7836960D02*
X14012920Y-7846484D01*
X14012920Y-7846484D02*
X13974825Y-7846484D01*
X13974825Y-7846484D02*
X13955777Y-7836960D01*
X13955777Y-7836960D02*
X13946253Y-7817912D01*
X13946253Y-7817912D02*
X13946253Y-7741722D01*
X13946253Y-7741722D02*
X13955777Y-7722674D01*
X13955777Y-7722674D02*
X13974825Y-7713150D01*
X13974825Y-7713150D02*
X14012920Y-7713150D01*
X14012920Y-7713150D02*
X14031968Y-7722674D01*
X14031968Y-7722674D02*
X14041491Y-7741722D01*
X14041491Y-7741722D02*
X14041491Y-7760769D01*
X14041491Y-7760769D02*
X13946253Y-7779817D01*
X14117682Y-7836960D02*
X14136730Y-7846484D01*
X14136730Y-7846484D02*
X14174825Y-7846484D01*
X14174825Y-7846484D02*
X14193872Y-7836960D01*
X14193872Y-7836960D02*
X14203396Y-7817912D01*
X14203396Y-7817912D02*
X14203396Y-7808388D01*
X14203396Y-7808388D02*
X14193872Y-7789341D01*
X14193872Y-7789341D02*
X14174825Y-7779817D01*
X14174825Y-7779817D02*
X14146253Y-7779817D01*
X14146253Y-7779817D02*
X14127206Y-7770293D01*
X14127206Y-7770293D02*
X14117682Y-7751246D01*
X14117682Y-7751246D02*
X14117682Y-7741722D01*
X14117682Y-7741722D02*
X14127206Y-7722674D01*
X14127206Y-7722674D02*
X14146253Y-7713150D01*
X14146253Y-7713150D02*
X14174825Y-7713150D01*
X14174825Y-7713150D02*
X14193872Y-7722674D01*
X14441492Y-7770293D02*
X14593873Y-7770293D01*
X14517682Y-7846484D02*
X14517682Y-7694103D01*
X14927206Y-7713150D02*
X14927206Y-7846484D01*
X14879587Y-7636960D02*
X14831968Y-7779817D01*
X14831968Y-7779817D02*
X14955777Y-7779817D01*
X15174825Y-7836960D02*
X15193873Y-7846484D01*
X15193873Y-7846484D02*
X15231968Y-7846484D01*
X15231968Y-7846484D02*
X15251015Y-7836960D01*
X15251015Y-7836960D02*
X15260539Y-7817912D01*
X15260539Y-7817912D02*
X15260539Y-7808388D01*
X15260539Y-7808388D02*
X15251015Y-7789341D01*
X15251015Y-7789341D02*
X15231968Y-7779817D01*
X15231968Y-7779817D02*
X15203396Y-7779817D01*
X15203396Y-7779817D02*
X15184349Y-7770293D01*
X15184349Y-7770293D02*
X15174825Y-7751246D01*
X15174825Y-7751246D02*
X15174825Y-7741722D01*
X15174825Y-7741722D02*
X15184349Y-7722674D01*
X15184349Y-7722674D02*
X15203396Y-7713150D01*
X15203396Y-7713150D02*
X15231968Y-7713150D01*
X15231968Y-7713150D02*
X15251015Y-7722674D01*
X15374825Y-7846484D02*
X15355777Y-7836960D01*
X15355777Y-7836960D02*
X15346254Y-7817912D01*
X15346254Y-7817912D02*
X15346254Y-7646484D01*
X15479587Y-7846484D02*
X15460539Y-7836960D01*
X15460539Y-7836960D02*
X15451015Y-7827436D01*
X15451015Y-7827436D02*
X15441492Y-7808388D01*
X15441492Y-7808388D02*
X15441492Y-7751246D01*
X15441492Y-7751246D02*
X15451015Y-7732198D01*
X15451015Y-7732198D02*
X15460539Y-7722674D01*
X15460539Y-7722674D02*
X15479587Y-7713150D01*
X15479587Y-7713150D02*
X15508158Y-7713150D01*
X15508158Y-7713150D02*
X15527206Y-7722674D01*
X15527206Y-7722674D02*
X15536730Y-7732198D01*
X15536730Y-7732198D02*
X15546254Y-7751246D01*
X15546254Y-7751246D02*
X15546254Y-7808388D01*
X15546254Y-7808388D02*
X15536730Y-7827436D01*
X15536730Y-7827436D02*
X15527206Y-7836960D01*
X15527206Y-7836960D02*
X15508158Y-7846484D01*
X15508158Y-7846484D02*
X15479587Y-7846484D01*
X15603396Y-7713150D02*
X15679587Y-7713150D01*
X15631968Y-7646484D02*
X15631968Y-7817912D01*
X15631968Y-7817912D02*
X15641492Y-7836960D01*
X15641492Y-7836960D02*
X15660539Y-7846484D01*
X15660539Y-7846484D02*
X15679587Y-7846484D01*
X15736730Y-7836960D02*
X15755777Y-7846484D01*
X15755777Y-7846484D02*
X15793873Y-7846484D01*
X15793873Y-7846484D02*
X15812920Y-7836960D01*
X15812920Y-7836960D02*
X15822444Y-7817912D01*
X15822444Y-7817912D02*
X15822444Y-7808388D01*
X15822444Y-7808388D02*
X15812920Y-7789341D01*
X15812920Y-7789341D02*
X15793873Y-7779817D01*
X15793873Y-7779817D02*
X15765301Y-7779817D01*
X15765301Y-7779817D02*
X15746254Y-7770293D01*
X15746254Y-7770293D02*
X15736730Y-7751246D01*
X15736730Y-7751246D02*
X15736730Y-7741722D01*
X15736730Y-7741722D02*
X15746254Y-7722674D01*
X15746254Y-7722674D02*
X15765301Y-7713150D01*
X15765301Y-7713150D02*
X15793873Y-7713150D01*
X15793873Y-7713150D02*
X15812920Y-7722674D01*
X15889111Y-7922674D02*
X15898635Y-7913150D01*
X15898635Y-7913150D02*
X15917682Y-7884579D01*
X15917682Y-7884579D02*
X15927206Y-7865531D01*
X15927206Y-7865531D02*
X15936730Y-7836960D01*
X15936730Y-7836960D02*
X15946254Y-7789341D01*
X15946254Y-7789341D02*
X15946254Y-7751246D01*
X15946254Y-7751246D02*
X15936730Y-7703627D01*
X15936730Y-7703627D02*
X15927206Y-7675055D01*
X15927206Y-7675055D02*
X15917682Y-7656008D01*
X15917682Y-7656008D02*
X15898635Y-7627436D01*
X15898635Y-7627436D02*
X15889111Y-7617912D01*
M02*
