%TF.GenerationSoftware,KiCad,Pcbnew,8.0.3*%
%TF.CreationDate,2024-06-07T22:11:16+12:00*%
%TF.ProjectId,mechanical_switch_breakout,6d656368-616e-4696-9361-6c5f73776974,0.1.0*%
%TF.SameCoordinates,Original*%
%TF.FileFunction,Legend,Bot*%
%TF.FilePolarity,Positive*%
%FSLAX46Y46*%
G04 Gerber Fmt 4.6, Leading zero omitted, Abs format (unit mm)*
G04 Created by KiCad (PCBNEW 8.0.3) date 2024-06-07 22:11:16*
%MOMM*%
%LPD*%
G01*
G04 APERTURE LIST*
%ADD10C,0.120000*%
G04 APERTURE END LIST*
D10*
%TO.C,J1*%
X124730000Y-58500000D02*
X124730000Y-57230000D01*
X124730000Y-57230000D02*
X126000000Y-57230000D01*
X128160000Y-59940000D02*
X128160000Y-59542929D01*
X128920000Y-59940000D02*
X128920000Y-59542929D01*
X130700000Y-59940000D02*
X130700000Y-59542929D01*
X131460000Y-59940000D02*
X131460000Y-59542929D01*
X133240000Y-59940000D02*
X133240000Y-59542929D01*
X134000000Y-59940000D02*
X134000000Y-59542929D01*
X125620000Y-59940000D02*
X125620000Y-59610000D01*
X126380000Y-59940000D02*
X126380000Y-59610000D01*
X134950000Y-59940000D02*
X124670000Y-59940000D01*
X127270000Y-62600000D02*
X127270000Y-59940000D01*
X129810000Y-62600000D02*
X129810000Y-59940000D01*
X132350000Y-62600000D02*
X132350000Y-59940000D01*
X134950000Y-62600000D02*
X134950000Y-59940000D01*
X124670000Y-59940000D02*
X124670000Y-62600000D01*
X125620000Y-68600000D02*
X125620000Y-62600000D01*
X125680000Y-68600000D02*
X125680000Y-62600000D01*
X125800000Y-68600000D02*
X125800000Y-62600000D01*
X125920000Y-68600000D02*
X125920000Y-62600000D01*
X126040000Y-68600000D02*
X126040000Y-62600000D01*
X126160000Y-68600000D02*
X126160000Y-62600000D01*
X126280000Y-68600000D02*
X126280000Y-62600000D01*
X128160000Y-68600000D02*
X128160000Y-62600000D01*
X130700000Y-68600000D02*
X130700000Y-62600000D01*
X133240000Y-68600000D02*
X133240000Y-62600000D01*
X124670000Y-62600000D02*
X134950000Y-62600000D01*
X126380000Y-68600000D02*
X125620000Y-68600000D01*
X126380000Y-62600000D02*
X126380000Y-68600000D01*
X128920000Y-68600000D02*
X128160000Y-68600000D01*
X128920000Y-62600000D02*
X128920000Y-68600000D01*
X131460000Y-68600000D02*
X130700000Y-68600000D01*
X131460000Y-62600000D02*
X131460000Y-68600000D01*
X134000000Y-68600000D02*
X133240000Y-68600000D01*
X134000000Y-62600000D02*
X134000000Y-68600000D01*
%TD*%
M02*
