%TF.GenerationSoftware,KiCad,Pcbnew,8.0.3*%
%TF.CreationDate,2024-06-07T22:11:16+12:00*%
%TF.ProjectId,mechanical_switch_breakout,6d656368-616e-4696-9361-6c5f73776974,0.1.0*%
%TF.SameCoordinates,Original*%
%TF.FileFunction,Copper,L2,Bot*%
%TF.FilePolarity,Positive*%
%FSLAX46Y46*%
G04 Gerber Fmt 4.6, Leading zero omitted, Abs format (unit mm)*
G04 Created by KiCad (PCBNEW 8.0.3) date 2024-06-07 22:11:16*
%MOMM*%
%LPD*%
G01*
G04 APERTURE LIST*
%TA.AperFunction,ComponentPad*%
%ADD10R,1.700000X1.700000*%
%TD*%
%TA.AperFunction,ComponentPad*%
%ADD11O,1.700000X1.700000*%
%TD*%
%TA.AperFunction,ComponentPad*%
%ADD12C,2.200000*%
%TD*%
G04 APERTURE END LIST*
D10*
%TO.P,J1,1,Pin_1*%
%TO.N,/COMMON*%
X126000000Y-58500000D03*
D11*
%TO.P,J1,2,Pin_2*%
%TO.N,/SW_3*%
X128540000Y-58500000D03*
%TO.P,J1,3,Pin_3*%
%TO.N,/SW_2*%
X131080000Y-58500000D03*
%TO.P,J1,4,Pin_4*%
%TO.N,/SW_1*%
X133620000Y-58500000D03*
%TD*%
D12*
%TO.P,SW2,1,A*%
%TO.N,/COMMON*%
X99090000Y-58460000D03*
%TO.P,SW2,2,B*%
%TO.N,/SW_2*%
X92740000Y-61000000D03*
%TD*%
%TO.P,SW1,1,A*%
%TO.N,/COMMON*%
X80040000Y-58460000D03*
%TO.P,SW1,2,B*%
%TO.N,/SW_1*%
X73690000Y-61000000D03*
%TD*%
%TO.P,SW3,1,A*%
%TO.N,/COMMON*%
X118140000Y-58460000D03*
%TO.P,SW3,2,B*%
%TO.N,/SW_3*%
X111790000Y-61000000D03*
%TD*%
%TA.AperFunction,Conductor*%
%TO.N,/COMMON*%
G36*
X134885242Y-54840501D02*
G01*
X134909905Y-54840501D01*
X134953071Y-54840501D01*
X134961917Y-54840817D01*
X135190523Y-54857166D01*
X135208024Y-54859683D01*
X135427642Y-54907457D01*
X135444601Y-54912436D01*
X135655197Y-54990985D01*
X135671277Y-54998329D01*
X135868535Y-55106040D01*
X135883418Y-55115605D01*
X136063335Y-55250289D01*
X136076706Y-55261875D01*
X136235624Y-55420793D01*
X136247210Y-55434164D01*
X136381894Y-55614081D01*
X136391459Y-55628964D01*
X136499167Y-55826216D01*
X136506517Y-55842309D01*
X136585060Y-56052890D01*
X136590044Y-56069866D01*
X136637815Y-56289469D01*
X136640333Y-56306981D01*
X136656683Y-56535581D01*
X136656999Y-56544427D01*
X136656999Y-70535571D01*
X136656683Y-70544417D01*
X136640333Y-70773018D01*
X136637815Y-70790530D01*
X136590044Y-71010133D01*
X136585060Y-71027109D01*
X136506517Y-71237690D01*
X136499167Y-71253783D01*
X136391459Y-71451035D01*
X136381894Y-71465918D01*
X136247210Y-71645835D01*
X136235624Y-71659206D01*
X136076706Y-71818124D01*
X136063335Y-71829710D01*
X135883418Y-71964394D01*
X135868535Y-71973959D01*
X135671283Y-72081667D01*
X135655190Y-72089017D01*
X135444609Y-72167560D01*
X135427633Y-72172544D01*
X135208030Y-72220315D01*
X135190518Y-72222833D01*
X134961917Y-72239183D01*
X134953071Y-72239499D01*
X70961929Y-72239499D01*
X70953083Y-72239183D01*
X70724481Y-72222833D01*
X70706969Y-72220315D01*
X70487366Y-72172544D01*
X70470390Y-72167560D01*
X70259809Y-72089017D01*
X70243716Y-72081667D01*
X70046464Y-71973959D01*
X70031581Y-71964394D01*
X69851664Y-71829710D01*
X69838293Y-71818124D01*
X69679375Y-71659206D01*
X69667789Y-71645835D01*
X69533105Y-71465918D01*
X69523540Y-71451035D01*
X69415832Y-71253783D01*
X69408485Y-71237697D01*
X69329936Y-71027101D01*
X69324957Y-71010142D01*
X69277183Y-70790524D01*
X69274666Y-70773018D01*
X69258317Y-70544417D01*
X69258001Y-70535571D01*
X69258001Y-70467743D01*
X69258000Y-70467737D01*
X69258000Y-63449448D01*
X71269500Y-63449448D01*
X71269500Y-63630551D01*
X71297829Y-63809410D01*
X71353787Y-63981636D01*
X71353788Y-63981639D01*
X71436006Y-64142997D01*
X71542441Y-64289494D01*
X71542445Y-64289499D01*
X71670500Y-64417554D01*
X71670505Y-64417558D01*
X71798287Y-64510396D01*
X71817006Y-64523996D01*
X71887016Y-64559668D01*
X71978360Y-64606211D01*
X71978363Y-64606212D01*
X72064476Y-64634191D01*
X72150591Y-64662171D01*
X72233429Y-64675291D01*
X72329449Y-64690500D01*
X72329454Y-64690500D01*
X72510551Y-64690500D01*
X72597259Y-64676765D01*
X72689409Y-64662171D01*
X72861639Y-64606211D01*
X73022994Y-64523996D01*
X73169501Y-64417553D01*
X73297553Y-64289501D01*
X73403996Y-64142994D01*
X73486211Y-63981639D01*
X73542171Y-63809409D01*
X73560958Y-63690793D01*
X73570500Y-63630551D01*
X73570500Y-63449448D01*
X73560961Y-63389223D01*
X75199500Y-63389223D01*
X75199500Y-63690776D01*
X75199501Y-63690793D01*
X75238861Y-63989766D01*
X75316913Y-64281060D01*
X75432314Y-64559661D01*
X75432318Y-64559671D01*
X75583099Y-64820831D01*
X75766679Y-65060078D01*
X75766685Y-65060085D01*
X75979914Y-65273314D01*
X75979921Y-65273320D01*
X76219168Y-65456900D01*
X76480328Y-65607681D01*
X76480329Y-65607681D01*
X76480332Y-65607683D01*
X76666072Y-65684619D01*
X76758939Y-65723086D01*
X76758940Y-65723086D01*
X76758942Y-65723087D01*
X77050232Y-65801138D01*
X77349217Y-65840500D01*
X77349224Y-65840500D01*
X77650776Y-65840500D01*
X77650783Y-65840500D01*
X77949768Y-65801138D01*
X78241058Y-65723087D01*
X78519668Y-65607683D01*
X78780832Y-65456900D01*
X79020080Y-65273319D01*
X79233319Y-65060080D01*
X79416900Y-64820832D01*
X79567683Y-64559668D01*
X79683087Y-64281058D01*
X79761138Y-63989768D01*
X79800500Y-63690783D01*
X79800500Y-63449448D01*
X81429500Y-63449448D01*
X81429500Y-63630551D01*
X81457829Y-63809410D01*
X81513787Y-63981636D01*
X81513788Y-63981639D01*
X81596006Y-64142997D01*
X81702441Y-64289494D01*
X81702445Y-64289499D01*
X81830500Y-64417554D01*
X81830505Y-64417558D01*
X81958287Y-64510396D01*
X81977006Y-64523996D01*
X82047016Y-64559668D01*
X82138360Y-64606211D01*
X82138363Y-64606212D01*
X82224476Y-64634191D01*
X82310591Y-64662171D01*
X82393429Y-64675291D01*
X82489449Y-64690500D01*
X82489454Y-64690500D01*
X82670551Y-64690500D01*
X82757259Y-64676765D01*
X82849409Y-64662171D01*
X83021639Y-64606211D01*
X83182994Y-64523996D01*
X83329501Y-64417553D01*
X83457553Y-64289501D01*
X83563996Y-64142994D01*
X83646211Y-63981639D01*
X83702171Y-63809409D01*
X83720958Y-63690793D01*
X83730500Y-63630551D01*
X83730500Y-63449448D01*
X90319500Y-63449448D01*
X90319500Y-63630551D01*
X90347829Y-63809410D01*
X90403787Y-63981636D01*
X90403788Y-63981639D01*
X90486006Y-64142997D01*
X90592441Y-64289494D01*
X90592445Y-64289499D01*
X90720500Y-64417554D01*
X90720505Y-64417558D01*
X90848287Y-64510396D01*
X90867006Y-64523996D01*
X90937016Y-64559668D01*
X91028360Y-64606211D01*
X91028363Y-64606212D01*
X91114476Y-64634191D01*
X91200591Y-64662171D01*
X91283429Y-64675291D01*
X91379449Y-64690500D01*
X91379454Y-64690500D01*
X91560551Y-64690500D01*
X91647259Y-64676765D01*
X91739409Y-64662171D01*
X91911639Y-64606211D01*
X92072994Y-64523996D01*
X92219501Y-64417553D01*
X92347553Y-64289501D01*
X92453996Y-64142994D01*
X92536211Y-63981639D01*
X92592171Y-63809409D01*
X92610958Y-63690793D01*
X92620500Y-63630551D01*
X92620500Y-63449448D01*
X92610961Y-63389223D01*
X94249500Y-63389223D01*
X94249500Y-63690776D01*
X94249501Y-63690793D01*
X94288861Y-63989766D01*
X94366913Y-64281060D01*
X94482314Y-64559661D01*
X94482318Y-64559671D01*
X94633099Y-64820831D01*
X94816679Y-65060078D01*
X94816685Y-65060085D01*
X95029914Y-65273314D01*
X95029921Y-65273320D01*
X95269168Y-65456900D01*
X95530328Y-65607681D01*
X95530329Y-65607681D01*
X95530332Y-65607683D01*
X95716072Y-65684619D01*
X95808939Y-65723086D01*
X95808940Y-65723086D01*
X95808942Y-65723087D01*
X96100232Y-65801138D01*
X96399217Y-65840500D01*
X96399224Y-65840500D01*
X96700776Y-65840500D01*
X96700783Y-65840500D01*
X96999768Y-65801138D01*
X97291058Y-65723087D01*
X97569668Y-65607683D01*
X97830832Y-65456900D01*
X98070080Y-65273319D01*
X98283319Y-65060080D01*
X98466900Y-64820832D01*
X98617683Y-64559668D01*
X98733087Y-64281058D01*
X98811138Y-63989768D01*
X98850500Y-63690783D01*
X98850500Y-63449448D01*
X100479500Y-63449448D01*
X100479500Y-63630551D01*
X100507829Y-63809410D01*
X100563787Y-63981636D01*
X100563788Y-63981639D01*
X100646006Y-64142997D01*
X100752441Y-64289494D01*
X100752445Y-64289499D01*
X100880500Y-64417554D01*
X100880505Y-64417558D01*
X101008287Y-64510396D01*
X101027006Y-64523996D01*
X101097016Y-64559668D01*
X101188360Y-64606211D01*
X101188363Y-64606212D01*
X101274476Y-64634191D01*
X101360591Y-64662171D01*
X101443429Y-64675291D01*
X101539449Y-64690500D01*
X101539454Y-64690500D01*
X101720551Y-64690500D01*
X101807259Y-64676765D01*
X101899409Y-64662171D01*
X102071639Y-64606211D01*
X102232994Y-64523996D01*
X102379501Y-64417553D01*
X102507553Y-64289501D01*
X102613996Y-64142994D01*
X102696211Y-63981639D01*
X102752171Y-63809409D01*
X102770958Y-63690793D01*
X102780500Y-63630551D01*
X102780500Y-63449448D01*
X109369500Y-63449448D01*
X109369500Y-63630551D01*
X109397829Y-63809410D01*
X109453787Y-63981636D01*
X109453788Y-63981639D01*
X109536006Y-64142997D01*
X109642441Y-64289494D01*
X109642445Y-64289499D01*
X109770500Y-64417554D01*
X109770505Y-64417558D01*
X109898287Y-64510396D01*
X109917006Y-64523996D01*
X109987016Y-64559668D01*
X110078360Y-64606211D01*
X110078363Y-64606212D01*
X110164476Y-64634191D01*
X110250591Y-64662171D01*
X110333429Y-64675291D01*
X110429449Y-64690500D01*
X110429454Y-64690500D01*
X110610551Y-64690500D01*
X110697259Y-64676765D01*
X110789409Y-64662171D01*
X110961639Y-64606211D01*
X111122994Y-64523996D01*
X111269501Y-64417553D01*
X111397553Y-64289501D01*
X111503996Y-64142994D01*
X111586211Y-63981639D01*
X111642171Y-63809409D01*
X111660958Y-63690793D01*
X111670500Y-63630551D01*
X111670500Y-63449448D01*
X111660961Y-63389223D01*
X113299500Y-63389223D01*
X113299500Y-63690776D01*
X113299501Y-63690793D01*
X113338861Y-63989766D01*
X113416913Y-64281060D01*
X113532314Y-64559661D01*
X113532318Y-64559671D01*
X113683099Y-64820831D01*
X113866679Y-65060078D01*
X113866685Y-65060085D01*
X114079914Y-65273314D01*
X114079921Y-65273320D01*
X114319168Y-65456900D01*
X114580328Y-65607681D01*
X114580329Y-65607681D01*
X114580332Y-65607683D01*
X114766072Y-65684619D01*
X114858939Y-65723086D01*
X114858940Y-65723086D01*
X114858942Y-65723087D01*
X115150232Y-65801138D01*
X115449217Y-65840500D01*
X115449224Y-65840500D01*
X115750776Y-65840500D01*
X115750783Y-65840500D01*
X116049768Y-65801138D01*
X116341058Y-65723087D01*
X116619668Y-65607683D01*
X116880832Y-65456900D01*
X117120080Y-65273319D01*
X117333319Y-65060080D01*
X117516900Y-64820832D01*
X117667683Y-64559668D01*
X117783087Y-64281058D01*
X117861138Y-63989768D01*
X117900500Y-63690783D01*
X117900500Y-63449448D01*
X119529500Y-63449448D01*
X119529500Y-63630551D01*
X119557829Y-63809410D01*
X119613787Y-63981636D01*
X119613788Y-63981639D01*
X119696006Y-64142997D01*
X119802441Y-64289494D01*
X119802445Y-64289499D01*
X119930500Y-64417554D01*
X119930505Y-64417558D01*
X120058287Y-64510396D01*
X120077006Y-64523996D01*
X120147016Y-64559668D01*
X120238360Y-64606211D01*
X120238363Y-64606212D01*
X120324476Y-64634191D01*
X120410591Y-64662171D01*
X120493429Y-64675291D01*
X120589449Y-64690500D01*
X120589454Y-64690500D01*
X120770551Y-64690500D01*
X120857259Y-64676765D01*
X120949409Y-64662171D01*
X121121639Y-64606211D01*
X121282994Y-64523996D01*
X121429501Y-64417553D01*
X121557553Y-64289501D01*
X121663996Y-64142994D01*
X121746211Y-63981639D01*
X121802171Y-63809409D01*
X121820958Y-63690793D01*
X121830500Y-63630551D01*
X121830500Y-63449448D01*
X121814019Y-63345397D01*
X121802171Y-63270591D01*
X121746211Y-63098361D01*
X121746211Y-63098360D01*
X121717740Y-63042484D01*
X121663996Y-62937006D01*
X121650396Y-62918287D01*
X121557558Y-62790505D01*
X121557554Y-62790500D01*
X121429499Y-62662445D01*
X121429494Y-62662441D01*
X121282997Y-62556006D01*
X121282996Y-62556005D01*
X121282994Y-62556004D01*
X121212996Y-62520338D01*
X121121639Y-62473788D01*
X121121636Y-62473787D01*
X120949410Y-62417829D01*
X120770551Y-62389500D01*
X120770546Y-62389500D01*
X120589454Y-62389500D01*
X120589449Y-62389500D01*
X120410589Y-62417829D01*
X120238363Y-62473787D01*
X120238360Y-62473788D01*
X120077002Y-62556006D01*
X119930505Y-62662441D01*
X119930500Y-62662445D01*
X119802445Y-62790500D01*
X119802441Y-62790505D01*
X119696006Y-62937002D01*
X119613788Y-63098360D01*
X119613787Y-63098363D01*
X119557829Y-63270589D01*
X119529500Y-63449448D01*
X117900500Y-63449448D01*
X117900500Y-63389217D01*
X117861138Y-63090232D01*
X117783087Y-62798942D01*
X117779592Y-62790505D01*
X117726546Y-62662441D01*
X117667683Y-62520332D01*
X117640811Y-62473789D01*
X117516900Y-62259168D01*
X117333320Y-62019921D01*
X117333314Y-62019914D01*
X117120085Y-61806685D01*
X117120078Y-61806679D01*
X116880831Y-61623099D01*
X116619671Y-61472318D01*
X116619661Y-61472314D01*
X116341060Y-61356913D01*
X116049766Y-61278861D01*
X115750793Y-61239501D01*
X115750788Y-61239500D01*
X115750783Y-61239500D01*
X115449217Y-61239500D01*
X115449211Y-61239500D01*
X115449206Y-61239501D01*
X115150233Y-61278861D01*
X114858939Y-61356913D01*
X114580338Y-61472314D01*
X114580328Y-61472318D01*
X114319168Y-61623099D01*
X114079921Y-61806679D01*
X114079914Y-61806685D01*
X113866685Y-62019914D01*
X113866679Y-62019921D01*
X113683099Y-62259168D01*
X113532318Y-62520328D01*
X113532314Y-62520338D01*
X113416913Y-62798939D01*
X113338861Y-63090233D01*
X113299501Y-63389206D01*
X113299500Y-63389223D01*
X111660961Y-63389223D01*
X111654019Y-63345397D01*
X111642171Y-63270591D01*
X111586211Y-63098361D01*
X111586211Y-63098360D01*
X111557740Y-63042484D01*
X111503996Y-62937006D01*
X111490396Y-62918287D01*
X111397558Y-62790505D01*
X111397554Y-62790500D01*
X111394284Y-62787230D01*
X111360799Y-62725907D01*
X111365783Y-62656215D01*
X111407655Y-62600282D01*
X111473119Y-62575865D01*
X111510910Y-62578974D01*
X111538852Y-62585683D01*
X111790000Y-62605449D01*
X112041148Y-62585683D01*
X112286111Y-62526873D01*
X112518859Y-62430466D01*
X112733659Y-62298836D01*
X112925224Y-62135224D01*
X113088836Y-61943659D01*
X113220466Y-61728859D01*
X113316873Y-61496111D01*
X113375683Y-61251148D01*
X113395449Y-61000000D01*
X113375683Y-60748852D01*
X113316873Y-60503889D01*
X113220466Y-60271141D01*
X113220466Y-60271140D01*
X113088839Y-60056346D01*
X113088838Y-60056343D01*
X113051875Y-60013066D01*
X112925224Y-59864776D01*
X112798571Y-59756604D01*
X112733656Y-59701161D01*
X112733653Y-59701160D01*
X112518859Y-59569533D01*
X112286110Y-59473126D01*
X112041151Y-59414317D01*
X111790000Y-59394551D01*
X111538848Y-59414317D01*
X111293889Y-59473126D01*
X111061140Y-59569533D01*
X110846346Y-59701160D01*
X110846343Y-59701161D01*
X110654776Y-59864776D01*
X110491161Y-60056343D01*
X110491160Y-60056346D01*
X110359533Y-60271140D01*
X110263126Y-60503889D01*
X110204317Y-60748848D01*
X110184551Y-61000000D01*
X110204317Y-61251151D01*
X110263126Y-61496110D01*
X110359533Y-61728859D01*
X110491160Y-61943653D01*
X110491161Y-61943656D01*
X110654778Y-62135226D01*
X110697007Y-62171293D01*
X110735201Y-62229799D01*
X110735700Y-62299667D01*
X110698346Y-62358714D01*
X110634999Y-62388192D01*
X110615418Y-62388893D01*
X110615418Y-62389500D01*
X110429449Y-62389500D01*
X110250589Y-62417829D01*
X110078363Y-62473787D01*
X110078360Y-62473788D01*
X109917002Y-62556006D01*
X109770505Y-62662441D01*
X109770500Y-62662445D01*
X109642445Y-62790500D01*
X109642441Y-62790505D01*
X109536006Y-62937002D01*
X109453788Y-63098360D01*
X109453787Y-63098363D01*
X109397829Y-63270589D01*
X109369500Y-63449448D01*
X102780500Y-63449448D01*
X102764019Y-63345397D01*
X102752171Y-63270591D01*
X102696211Y-63098361D01*
X102696211Y-63098360D01*
X102667740Y-63042484D01*
X102613996Y-62937006D01*
X102600396Y-62918287D01*
X102507558Y-62790505D01*
X102507554Y-62790500D01*
X102379499Y-62662445D01*
X102379494Y-62662441D01*
X102232997Y-62556006D01*
X102232996Y-62556005D01*
X102232994Y-62556004D01*
X102162996Y-62520338D01*
X102071639Y-62473788D01*
X102071636Y-62473787D01*
X101899410Y-62417829D01*
X101720551Y-62389500D01*
X101720546Y-62389500D01*
X101539454Y-62389500D01*
X101539449Y-62389500D01*
X101360589Y-62417829D01*
X101188363Y-62473787D01*
X101188360Y-62473788D01*
X101027002Y-62556006D01*
X100880505Y-62662441D01*
X100880500Y-62662445D01*
X100752445Y-62790500D01*
X100752441Y-62790505D01*
X100646006Y-62937002D01*
X100563788Y-63098360D01*
X100563787Y-63098363D01*
X100507829Y-63270589D01*
X100479500Y-63449448D01*
X98850500Y-63449448D01*
X98850500Y-63389217D01*
X98811138Y-63090232D01*
X98733087Y-62798942D01*
X98729592Y-62790505D01*
X98676546Y-62662441D01*
X98617683Y-62520332D01*
X98590811Y-62473789D01*
X98466900Y-62259168D01*
X98283320Y-62019921D01*
X98283314Y-62019914D01*
X98070085Y-61806685D01*
X98070078Y-61806679D01*
X97830831Y-61623099D01*
X97569671Y-61472318D01*
X97569661Y-61472314D01*
X97291060Y-61356913D01*
X96999766Y-61278861D01*
X96700793Y-61239501D01*
X96700788Y-61239500D01*
X96700783Y-61239500D01*
X96399217Y-61239500D01*
X96399211Y-61239500D01*
X96399206Y-61239501D01*
X96100233Y-61278861D01*
X95808939Y-61356913D01*
X95530338Y-61472314D01*
X95530328Y-61472318D01*
X95269168Y-61623099D01*
X95029921Y-61806679D01*
X95029914Y-61806685D01*
X94816685Y-62019914D01*
X94816679Y-62019921D01*
X94633099Y-62259168D01*
X94482318Y-62520328D01*
X94482314Y-62520338D01*
X94366913Y-62798939D01*
X94288861Y-63090233D01*
X94249501Y-63389206D01*
X94249500Y-63389223D01*
X92610961Y-63389223D01*
X92604019Y-63345397D01*
X92592171Y-63270591D01*
X92536211Y-63098361D01*
X92536211Y-63098360D01*
X92507740Y-63042484D01*
X92453996Y-62937006D01*
X92440396Y-62918287D01*
X92347558Y-62790505D01*
X92347554Y-62790500D01*
X92344284Y-62787230D01*
X92310799Y-62725907D01*
X92315783Y-62656215D01*
X92357655Y-62600282D01*
X92423119Y-62575865D01*
X92460910Y-62578974D01*
X92488852Y-62585683D01*
X92740000Y-62605449D01*
X92991148Y-62585683D01*
X93236111Y-62526873D01*
X93468859Y-62430466D01*
X93683659Y-62298836D01*
X93875224Y-62135224D01*
X94038836Y-61943659D01*
X94170466Y-61728859D01*
X94266873Y-61496111D01*
X94325683Y-61251148D01*
X94345449Y-61000000D01*
X94325683Y-60748852D01*
X94266873Y-60503889D01*
X94170466Y-60271141D01*
X94170466Y-60271140D01*
X94038839Y-60056346D01*
X94038838Y-60056343D01*
X94001875Y-60013066D01*
X93875224Y-59864776D01*
X93748571Y-59756604D01*
X93683656Y-59701161D01*
X93683653Y-59701160D01*
X93468859Y-59569533D01*
X93236110Y-59473126D01*
X92991151Y-59414317D01*
X92740000Y-59394551D01*
X92488848Y-59414317D01*
X92243889Y-59473126D01*
X92011140Y-59569533D01*
X91796346Y-59701160D01*
X91796343Y-59701161D01*
X91604776Y-59864776D01*
X91441161Y-60056343D01*
X91441160Y-60056346D01*
X91309533Y-60271140D01*
X91213126Y-60503889D01*
X91154317Y-60748848D01*
X91134551Y-61000000D01*
X91154317Y-61251151D01*
X91213126Y-61496110D01*
X91309533Y-61728859D01*
X91441160Y-61943653D01*
X91441161Y-61943656D01*
X91604778Y-62135226D01*
X91647007Y-62171293D01*
X91685201Y-62229799D01*
X91685700Y-62299667D01*
X91648346Y-62358714D01*
X91584999Y-62388192D01*
X91565418Y-62388893D01*
X91565418Y-62389500D01*
X91379449Y-62389500D01*
X91200589Y-62417829D01*
X91028363Y-62473787D01*
X91028360Y-62473788D01*
X90867002Y-62556006D01*
X90720505Y-62662441D01*
X90720500Y-62662445D01*
X90592445Y-62790500D01*
X90592441Y-62790505D01*
X90486006Y-62937002D01*
X90403788Y-63098360D01*
X90403787Y-63098363D01*
X90347829Y-63270589D01*
X90319500Y-63449448D01*
X83730500Y-63449448D01*
X83714019Y-63345397D01*
X83702171Y-63270591D01*
X83646211Y-63098361D01*
X83646211Y-63098360D01*
X83617740Y-63042484D01*
X83563996Y-62937006D01*
X83550396Y-62918287D01*
X83457558Y-62790505D01*
X83457554Y-62790500D01*
X83329499Y-62662445D01*
X83329494Y-62662441D01*
X83182997Y-62556006D01*
X83182996Y-62556005D01*
X83182994Y-62556004D01*
X83112996Y-62520338D01*
X83021639Y-62473788D01*
X83021636Y-62473787D01*
X82849410Y-62417829D01*
X82670551Y-62389500D01*
X82670546Y-62389500D01*
X82489454Y-62389500D01*
X82489449Y-62389500D01*
X82310589Y-62417829D01*
X82138363Y-62473787D01*
X82138360Y-62473788D01*
X81977002Y-62556006D01*
X81830505Y-62662441D01*
X81830500Y-62662445D01*
X81702445Y-62790500D01*
X81702441Y-62790505D01*
X81596006Y-62937002D01*
X81513788Y-63098360D01*
X81513787Y-63098363D01*
X81457829Y-63270589D01*
X81429500Y-63449448D01*
X79800500Y-63449448D01*
X79800500Y-63389217D01*
X79761138Y-63090232D01*
X79683087Y-62798942D01*
X79679592Y-62790505D01*
X79626546Y-62662441D01*
X79567683Y-62520332D01*
X79540811Y-62473789D01*
X79416900Y-62259168D01*
X79233320Y-62019921D01*
X79233314Y-62019914D01*
X79020085Y-61806685D01*
X79020078Y-61806679D01*
X78780831Y-61623099D01*
X78519671Y-61472318D01*
X78519661Y-61472314D01*
X78241060Y-61356913D01*
X77949766Y-61278861D01*
X77650793Y-61239501D01*
X77650788Y-61239500D01*
X77650783Y-61239500D01*
X77349217Y-61239500D01*
X77349211Y-61239500D01*
X77349206Y-61239501D01*
X77050233Y-61278861D01*
X76758939Y-61356913D01*
X76480338Y-61472314D01*
X76480328Y-61472318D01*
X76219168Y-61623099D01*
X75979921Y-61806679D01*
X75979914Y-61806685D01*
X75766685Y-62019914D01*
X75766679Y-62019921D01*
X75583099Y-62259168D01*
X75432318Y-62520328D01*
X75432314Y-62520338D01*
X75316913Y-62798939D01*
X75238861Y-63090233D01*
X75199501Y-63389206D01*
X75199500Y-63389223D01*
X73560961Y-63389223D01*
X73554019Y-63345397D01*
X73542171Y-63270591D01*
X73486211Y-63098361D01*
X73486211Y-63098360D01*
X73457740Y-63042484D01*
X73403996Y-62937006D01*
X73390396Y-62918287D01*
X73297558Y-62790505D01*
X73297554Y-62790500D01*
X73294284Y-62787230D01*
X73260799Y-62725907D01*
X73265783Y-62656215D01*
X73307655Y-62600282D01*
X73373119Y-62575865D01*
X73410910Y-62578974D01*
X73438852Y-62585683D01*
X73690000Y-62605449D01*
X73941148Y-62585683D01*
X74186111Y-62526873D01*
X74418859Y-62430466D01*
X74633659Y-62298836D01*
X74825224Y-62135224D01*
X74988836Y-61943659D01*
X75120466Y-61728859D01*
X75216873Y-61496111D01*
X75275683Y-61251148D01*
X75295449Y-61000000D01*
X75275683Y-60748852D01*
X75216873Y-60503889D01*
X75120466Y-60271141D01*
X75120466Y-60271140D01*
X74988839Y-60056346D01*
X74988838Y-60056343D01*
X74951875Y-60013066D01*
X74825224Y-59864776D01*
X74698571Y-59756604D01*
X74633656Y-59701161D01*
X74633653Y-59701160D01*
X74418859Y-59569533D01*
X74186110Y-59473126D01*
X73941151Y-59414317D01*
X73690000Y-59394551D01*
X73438848Y-59414317D01*
X73193889Y-59473126D01*
X72961140Y-59569533D01*
X72746346Y-59701160D01*
X72746343Y-59701161D01*
X72554776Y-59864776D01*
X72391161Y-60056343D01*
X72391160Y-60056346D01*
X72259533Y-60271140D01*
X72163126Y-60503889D01*
X72104317Y-60748848D01*
X72084551Y-61000000D01*
X72104317Y-61251151D01*
X72163126Y-61496110D01*
X72259533Y-61728859D01*
X72391160Y-61943653D01*
X72391161Y-61943656D01*
X72554778Y-62135226D01*
X72597007Y-62171293D01*
X72635201Y-62229799D01*
X72635700Y-62299667D01*
X72598346Y-62358714D01*
X72534999Y-62388192D01*
X72515418Y-62388893D01*
X72515418Y-62389500D01*
X72329449Y-62389500D01*
X72150589Y-62417829D01*
X71978363Y-62473787D01*
X71978360Y-62473788D01*
X71817002Y-62556006D01*
X71670505Y-62662441D01*
X71670500Y-62662445D01*
X71542445Y-62790500D01*
X71542441Y-62790505D01*
X71436006Y-62937002D01*
X71353788Y-63098360D01*
X71353787Y-63098363D01*
X71297829Y-63270589D01*
X71269500Y-63449448D01*
X69258000Y-63449448D01*
X69258000Y-58499999D01*
X127184341Y-58499999D01*
X127184341Y-58500000D01*
X127204936Y-58735403D01*
X127204938Y-58735413D01*
X127266094Y-58963655D01*
X127266096Y-58963659D01*
X127266097Y-58963663D01*
X127270000Y-58972032D01*
X127365965Y-59177830D01*
X127365967Y-59177834D01*
X127474281Y-59332521D01*
X127501505Y-59371401D01*
X127668599Y-59538495D01*
X127765384Y-59606265D01*
X127862165Y-59674032D01*
X127862167Y-59674033D01*
X127862170Y-59674035D01*
X128076337Y-59773903D01*
X128304592Y-59835063D01*
X128492918Y-59851539D01*
X128539999Y-59855659D01*
X128540000Y-59855659D01*
X128540001Y-59855659D01*
X128579234Y-59852226D01*
X128775408Y-59835063D01*
X129003663Y-59773903D01*
X129217830Y-59674035D01*
X129411401Y-59538495D01*
X129578495Y-59371401D01*
X129708425Y-59185842D01*
X129763002Y-59142217D01*
X129832500Y-59135023D01*
X129894855Y-59166546D01*
X129911575Y-59185842D01*
X130041500Y-59371395D01*
X130041505Y-59371401D01*
X130208599Y-59538495D01*
X130305384Y-59606265D01*
X130402165Y-59674032D01*
X130402167Y-59674033D01*
X130402170Y-59674035D01*
X130616337Y-59773903D01*
X130844592Y-59835063D01*
X131032918Y-59851539D01*
X131079999Y-59855659D01*
X131080000Y-59855659D01*
X131080001Y-59855659D01*
X131119234Y-59852226D01*
X131315408Y-59835063D01*
X131543663Y-59773903D01*
X131757830Y-59674035D01*
X131951401Y-59538495D01*
X132118495Y-59371401D01*
X132248425Y-59185842D01*
X132303002Y-59142217D01*
X132372500Y-59135023D01*
X132434855Y-59166546D01*
X132451575Y-59185842D01*
X132581500Y-59371395D01*
X132581505Y-59371401D01*
X132748599Y-59538495D01*
X132845384Y-59606265D01*
X132942165Y-59674032D01*
X132942167Y-59674033D01*
X132942170Y-59674035D01*
X133156337Y-59773903D01*
X133384592Y-59835063D01*
X133572918Y-59851539D01*
X133619999Y-59855659D01*
X133620000Y-59855659D01*
X133620001Y-59855659D01*
X133659234Y-59852226D01*
X133855408Y-59835063D01*
X134083663Y-59773903D01*
X134297830Y-59674035D01*
X134491401Y-59538495D01*
X134658495Y-59371401D01*
X134794035Y-59177830D01*
X134893903Y-58963663D01*
X134955063Y-58735408D01*
X134975659Y-58500000D01*
X134955063Y-58264592D01*
X134893903Y-58036337D01*
X134794035Y-57822171D01*
X134788425Y-57814158D01*
X134658494Y-57628597D01*
X134491402Y-57461506D01*
X134491395Y-57461501D01*
X134297834Y-57325967D01*
X134297830Y-57325965D01*
X134297828Y-57325964D01*
X134083663Y-57226097D01*
X134083659Y-57226096D01*
X134083655Y-57226094D01*
X133855413Y-57164938D01*
X133855403Y-57164936D01*
X133620001Y-57144341D01*
X133619999Y-57144341D01*
X133384596Y-57164936D01*
X133384586Y-57164938D01*
X133156344Y-57226094D01*
X133156335Y-57226098D01*
X132942171Y-57325964D01*
X132942169Y-57325965D01*
X132748597Y-57461505D01*
X132581505Y-57628597D01*
X132451575Y-57814158D01*
X132396998Y-57857783D01*
X132327500Y-57864977D01*
X132265145Y-57833454D01*
X132248425Y-57814158D01*
X132118494Y-57628597D01*
X131951402Y-57461506D01*
X131951395Y-57461501D01*
X131757834Y-57325967D01*
X131757830Y-57325965D01*
X131757828Y-57325964D01*
X131543663Y-57226097D01*
X131543659Y-57226096D01*
X131543655Y-57226094D01*
X131315413Y-57164938D01*
X131315403Y-57164936D01*
X131080001Y-57144341D01*
X131079999Y-57144341D01*
X130844596Y-57164936D01*
X130844586Y-57164938D01*
X130616344Y-57226094D01*
X130616335Y-57226098D01*
X130402171Y-57325964D01*
X130402169Y-57325965D01*
X130208597Y-57461505D01*
X130041505Y-57628597D01*
X129911575Y-57814158D01*
X129856998Y-57857783D01*
X129787500Y-57864977D01*
X129725145Y-57833454D01*
X129708425Y-57814158D01*
X129578494Y-57628597D01*
X129411402Y-57461506D01*
X129411395Y-57461501D01*
X129217834Y-57325967D01*
X129217830Y-57325965D01*
X129217828Y-57325964D01*
X129003663Y-57226097D01*
X129003659Y-57226096D01*
X129003655Y-57226094D01*
X128775413Y-57164938D01*
X128775403Y-57164936D01*
X128540001Y-57144341D01*
X128539999Y-57144341D01*
X128304596Y-57164936D01*
X128304586Y-57164938D01*
X128076344Y-57226094D01*
X128076335Y-57226098D01*
X127862171Y-57325964D01*
X127862169Y-57325965D01*
X127668597Y-57461505D01*
X127501505Y-57628597D01*
X127365965Y-57822169D01*
X127365964Y-57822171D01*
X127266098Y-58036335D01*
X127266094Y-58036344D01*
X127204938Y-58264586D01*
X127204936Y-58264596D01*
X127184341Y-58499999D01*
X69258000Y-58499999D01*
X69258000Y-56544426D01*
X69258316Y-56535580D01*
X69274665Y-56306982D01*
X69277183Y-56289470D01*
X69313056Y-56124566D01*
X69324959Y-56069851D01*
X69329936Y-56052900D01*
X69408485Y-55842299D01*
X69415825Y-55826227D01*
X69523544Y-55628956D01*
X69533100Y-55614086D01*
X69667794Y-55434156D01*
X69679368Y-55420799D01*
X69838299Y-55261868D01*
X69851656Y-55250294D01*
X70031586Y-55115600D01*
X70046456Y-55106044D01*
X70243727Y-54998325D01*
X70259799Y-54990985D01*
X70470400Y-54912436D01*
X70487351Y-54907459D01*
X70706972Y-54859682D01*
X70724477Y-54857165D01*
X70953081Y-54840816D01*
X70961927Y-54840500D01*
X134885238Y-54840500D01*
X134885242Y-54840501D01*
G37*
%TD.AperFunction*%
%TD*%
M02*
