%TF.GenerationSoftware,KiCad,Pcbnew,8.0.3*%
%TF.CreationDate,2024-06-07T01:51:14+12:00*%
%TF.ProjectId,toggle_switch_breakout,746f6767-6c65-45f7-9377-697463685f62,0.1.0*%
%TF.SameCoordinates,Original*%
%TF.FileFunction,Legend,Top*%
%TF.FilePolarity,Positive*%
%FSLAX46Y46*%
G04 Gerber Fmt 4.6, Leading zero omitted, Abs format (unit mm)*
G04 Created by KiCad (PCBNEW 8.0.3) date 2024-06-07 01:51:14*
%MOMM*%
%LPD*%
G01*
G04 APERTURE LIST*
%ADD10C,0.120000*%
G04 APERTURE END LIST*
D10*
%TO.C,J1*%
X94850000Y-61825200D02*
X94850000Y-64485200D01*
X94850000Y-64485200D02*
X105130000Y-64485200D01*
X95800000Y-61428129D02*
X95800000Y-61825200D01*
X95800000Y-70485200D02*
X95800000Y-64485200D01*
X96560000Y-61428129D02*
X96560000Y-61825200D01*
X96560000Y-64485200D02*
X96560000Y-70485200D01*
X96560000Y-70485200D02*
X95800000Y-70485200D01*
X97450000Y-61825200D02*
X97450000Y-64485200D01*
X98340000Y-61428129D02*
X98340000Y-61825200D01*
X98340000Y-70485200D02*
X98340000Y-64485200D01*
X99100000Y-61428129D02*
X99100000Y-61825200D01*
X99100000Y-64485200D02*
X99100000Y-70485200D01*
X99100000Y-70485200D02*
X98340000Y-70485200D01*
X99990000Y-61825200D02*
X99990000Y-64485200D01*
X100880000Y-61428129D02*
X100880000Y-61825200D01*
X100880000Y-70485200D02*
X100880000Y-64485200D01*
X101640000Y-61428129D02*
X101640000Y-61825200D01*
X101640000Y-64485200D02*
X101640000Y-70485200D01*
X101640000Y-70485200D02*
X100880000Y-70485200D01*
X102530000Y-61825200D02*
X102530000Y-64485200D01*
X103420000Y-61495200D02*
X103420000Y-61825200D01*
X103420000Y-70485200D02*
X103420000Y-64485200D01*
X103520000Y-64485200D02*
X103520000Y-70485200D01*
X103640000Y-64485200D02*
X103640000Y-70485200D01*
X103760000Y-64485200D02*
X103760000Y-70485200D01*
X103800000Y-59115200D02*
X105070000Y-59115200D01*
X103880000Y-64485200D02*
X103880000Y-70485200D01*
X104000000Y-64485200D02*
X104000000Y-70485200D01*
X104120000Y-64485200D02*
X104120000Y-70485200D01*
X104180000Y-61495200D02*
X104180000Y-61825200D01*
X104180000Y-64485200D02*
X104180000Y-70485200D01*
X104180000Y-70485200D02*
X103420000Y-70485200D01*
X105070000Y-59115200D02*
X105070000Y-60385200D01*
X105130000Y-61825200D02*
X94850000Y-61825200D01*
X105130000Y-64485200D02*
X105130000Y-61825200D01*
%TD*%
M02*
