%TF.GenerationSoftware,KiCad,Pcbnew,8.0.3*%
%TF.CreationDate,2024-06-07T01:51:13+12:00*%
%TF.ProjectId,toggle_switch_breakout,746f6767-6c65-45f7-9377-697463685f62,0.1.0*%
%TF.SameCoordinates,Original*%
%TF.FileFunction,Drillmap*%
%TF.FilePolarity,Positive*%
%FSLAX45Y45*%
G04 Gerber Fmt 4.5, Leading zero omitted, Abs format (unit mm)*
G04 Created by KiCad (PCBNEW 8.0.3) date 2024-06-07 01:51:13*
%MOMM*%
%LPD*%
G01*
G04 APERTURE LIST*
%ADD10C,0.100000*%
%ADD11C,0.200000*%
G04 APERTURE END LIST*
D10*
X12410000Y-5650000D02*
G75*
G02*
X12610000Y-5850000I0J-200000D01*
G01*
X9410000Y-7250000D02*
G75*
G02*
X9210000Y-7050000I0J200000D01*
G01*
X9210000Y-7050000D02*
X9210000Y-5850000D01*
X12610000Y-7050000D02*
G75*
G02*
X12410000Y-7250000I-200000J0D01*
G01*
X12410000Y-5650000D02*
X9410000Y-5650000D01*
X12610000Y-7050000D02*
X12610000Y-5850000D01*
X9210000Y-5850000D02*
G75*
G02*
X9410000Y-5650000I200000J0D01*
G01*
X9410000Y-7250000D02*
X12410000Y-7250000D01*
D11*
X9465777Y-7566484D02*
X9465777Y-7366484D01*
X9465777Y-7366484D02*
X9513396Y-7366484D01*
X9513396Y-7366484D02*
X9541967Y-7376008D01*
X9541967Y-7376008D02*
X9561015Y-7395055D01*
X9561015Y-7395055D02*
X9570539Y-7414103D01*
X9570539Y-7414103D02*
X9580063Y-7452198D01*
X9580063Y-7452198D02*
X9580063Y-7480769D01*
X9580063Y-7480769D02*
X9570539Y-7518865D01*
X9570539Y-7518865D02*
X9561015Y-7537912D01*
X9561015Y-7537912D02*
X9541967Y-7556960D01*
X9541967Y-7556960D02*
X9513396Y-7566484D01*
X9513396Y-7566484D02*
X9465777Y-7566484D01*
X9665777Y-7566484D02*
X9665777Y-7433150D01*
X9665777Y-7471246D02*
X9675301Y-7452198D01*
X9675301Y-7452198D02*
X9684824Y-7442674D01*
X9684824Y-7442674D02*
X9703872Y-7433150D01*
X9703872Y-7433150D02*
X9722920Y-7433150D01*
X9789586Y-7566484D02*
X9789586Y-7433150D01*
X9789586Y-7366484D02*
X9780063Y-7376008D01*
X9780063Y-7376008D02*
X9789586Y-7385531D01*
X9789586Y-7385531D02*
X9799110Y-7376008D01*
X9799110Y-7376008D02*
X9789586Y-7366484D01*
X9789586Y-7366484D02*
X9789586Y-7385531D01*
X9913396Y-7566484D02*
X9894348Y-7556960D01*
X9894348Y-7556960D02*
X9884824Y-7537912D01*
X9884824Y-7537912D02*
X9884824Y-7366484D01*
X10018158Y-7566484D02*
X9999110Y-7556960D01*
X9999110Y-7556960D02*
X9989586Y-7537912D01*
X9989586Y-7537912D02*
X9989586Y-7366484D01*
X10246729Y-7566484D02*
X10246729Y-7366484D01*
X10246729Y-7366484D02*
X10313396Y-7509341D01*
X10313396Y-7509341D02*
X10380063Y-7366484D01*
X10380063Y-7366484D02*
X10380063Y-7566484D01*
X10561015Y-7566484D02*
X10561015Y-7461722D01*
X10561015Y-7461722D02*
X10551491Y-7442674D01*
X10551491Y-7442674D02*
X10532444Y-7433150D01*
X10532444Y-7433150D02*
X10494348Y-7433150D01*
X10494348Y-7433150D02*
X10475301Y-7442674D01*
X10561015Y-7556960D02*
X10541967Y-7566484D01*
X10541967Y-7566484D02*
X10494348Y-7566484D01*
X10494348Y-7566484D02*
X10475301Y-7556960D01*
X10475301Y-7556960D02*
X10465777Y-7537912D01*
X10465777Y-7537912D02*
X10465777Y-7518865D01*
X10465777Y-7518865D02*
X10475301Y-7499817D01*
X10475301Y-7499817D02*
X10494348Y-7490293D01*
X10494348Y-7490293D02*
X10541967Y-7490293D01*
X10541967Y-7490293D02*
X10561015Y-7480769D01*
X10656253Y-7433150D02*
X10656253Y-7633150D01*
X10656253Y-7442674D02*
X10675301Y-7433150D01*
X10675301Y-7433150D02*
X10713396Y-7433150D01*
X10713396Y-7433150D02*
X10732444Y-7442674D01*
X10732444Y-7442674D02*
X10741967Y-7452198D01*
X10741967Y-7452198D02*
X10751491Y-7471246D01*
X10751491Y-7471246D02*
X10751491Y-7528388D01*
X10751491Y-7528388D02*
X10741967Y-7547436D01*
X10741967Y-7547436D02*
X10732444Y-7556960D01*
X10732444Y-7556960D02*
X10713396Y-7566484D01*
X10713396Y-7566484D02*
X10675301Y-7566484D01*
X10675301Y-7566484D02*
X10656253Y-7556960D01*
X10837205Y-7547436D02*
X10846729Y-7556960D01*
X10846729Y-7556960D02*
X10837205Y-7566484D01*
X10837205Y-7566484D02*
X10827682Y-7556960D01*
X10827682Y-7556960D02*
X10837205Y-7547436D01*
X10837205Y-7547436D02*
X10837205Y-7566484D01*
X10837205Y-7442674D02*
X10846729Y-7452198D01*
X10846729Y-7452198D02*
X10837205Y-7461722D01*
X10837205Y-7461722D02*
X10827682Y-7452198D01*
X10827682Y-7452198D02*
X10837205Y-7442674D01*
X10837205Y-7442674D02*
X10837205Y-7461722D01*
M02*
