%TF.GenerationSoftware,KiCad,Pcbnew,8.0.3*%
%TF.CreationDate,2024-06-16T18:07:54+12:00*%
%TF.ProjectId,microcontroller,6d696372-6f63-46f6-9e74-726f6c6c6572,0.1.3*%
%TF.SameCoordinates,Original*%
%TF.FileFunction,Copper,L1,Top*%
%TF.FilePolarity,Positive*%
%FSLAX46Y46*%
G04 Gerber Fmt 4.6, Leading zero omitted, Abs format (unit mm)*
G04 Created by KiCad (PCBNEW 8.0.3) date 2024-06-16 18:07:54*
%MOMM*%
%LPD*%
G01*
G04 APERTURE LIST*
G04 Aperture macros list*
%AMRoundRect*
0 Rectangle with rounded corners*
0 $1 Rounding radius*
0 $2 $3 $4 $5 $6 $7 $8 $9 X,Y pos of 4 corners*
0 Add a 4 corners polygon primitive as box body*
4,1,4,$2,$3,$4,$5,$6,$7,$8,$9,$2,$3,0*
0 Add four circle primitives for the rounded corners*
1,1,$1+$1,$2,$3*
1,1,$1+$1,$4,$5*
1,1,$1+$1,$6,$7*
1,1,$1+$1,$8,$9*
0 Add four rect primitives between the rounded corners*
20,1,$1+$1,$2,$3,$4,$5,0*
20,1,$1+$1,$4,$5,$6,$7,0*
20,1,$1+$1,$6,$7,$8,$9,0*
20,1,$1+$1,$8,$9,$2,$3,0*%
G04 Aperture macros list end*
%TA.AperFunction,SMDPad,CuDef*%
%ADD10RoundRect,0.250000X-0.475000X0.250000X-0.475000X-0.250000X0.475000X-0.250000X0.475000X0.250000X0*%
%TD*%
%TA.AperFunction,SMDPad,CuDef*%
%ADD11RoundRect,0.079500X-0.910500X-0.185500X0.910500X-0.185500X0.910500X0.185500X-0.910500X0.185500X0*%
%TD*%
%TA.AperFunction,SMDPad,CuDef*%
%ADD12RoundRect,0.175000X0.175000X0.425000X-0.175000X0.425000X-0.175000X-0.425000X0.175000X-0.425000X0*%
%TD*%
%TA.AperFunction,SMDPad,CuDef*%
%ADD13RoundRect,0.190000X-0.190000X-0.410000X0.190000X-0.410000X0.190000X0.410000X-0.190000X0.410000X0*%
%TD*%
%TA.AperFunction,SMDPad,CuDef*%
%ADD14RoundRect,0.200000X-0.200000X-0.400000X0.200000X-0.400000X0.200000X0.400000X-0.200000X0.400000X0*%
%TD*%
%TA.AperFunction,SMDPad,CuDef*%
%ADD15RoundRect,0.175000X-0.175000X-0.425000X0.175000X-0.425000X0.175000X0.425000X-0.175000X0.425000X0*%
%TD*%
%TA.AperFunction,SMDPad,CuDef*%
%ADD16RoundRect,0.190000X0.190000X0.410000X-0.190000X0.410000X-0.190000X-0.410000X0.190000X-0.410000X0*%
%TD*%
%TA.AperFunction,SMDPad,CuDef*%
%ADD17RoundRect,0.200000X0.200000X0.400000X-0.200000X0.400000X-0.200000X-0.400000X0.200000X-0.400000X0*%
%TD*%
%TA.AperFunction,ComponentPad*%
%ADD18O,1.100000X1.700000*%
%TD*%
%TA.AperFunction,ComponentPad*%
%ADD19O,1.700000X1.700000*%
%TD*%
%TA.AperFunction,ComponentPad*%
%ADD20R,1.700000X1.700000*%
%TD*%
%TA.AperFunction,SMDPad,CuDef*%
%ADD21RoundRect,0.225000X0.250000X-0.225000X0.250000X0.225000X-0.250000X0.225000X-0.250000X-0.225000X0*%
%TD*%
%TA.AperFunction,SMDPad,CuDef*%
%ADD22RoundRect,0.200000X0.200000X0.275000X-0.200000X0.275000X-0.200000X-0.275000X0.200000X-0.275000X0*%
%TD*%
%TA.AperFunction,SMDPad,CuDef*%
%ADD23RoundRect,0.112500X-0.112500X0.187500X-0.112500X-0.187500X0.112500X-0.187500X0.112500X0.187500X0*%
%TD*%
%TA.AperFunction,SMDPad,CuDef*%
%ADD24RoundRect,0.218750X-0.256250X0.218750X-0.256250X-0.218750X0.256250X-0.218750X0.256250X0.218750X0*%
%TD*%
%TA.AperFunction,SMDPad,CuDef*%
%ADD25RoundRect,0.250000X-0.250000X-0.475000X0.250000X-0.475000X0.250000X0.475000X-0.250000X0.475000X0*%
%TD*%
%TA.AperFunction,SMDPad,CuDef*%
%ADD26RoundRect,0.200000X-0.200000X-0.275000X0.200000X-0.275000X0.200000X0.275000X-0.200000X0.275000X0*%
%TD*%
%TA.AperFunction,SMDPad,CuDef*%
%ADD27RoundRect,0.225000X-0.250000X0.225000X-0.250000X-0.225000X0.250000X-0.225000X0.250000X0.225000X0*%
%TD*%
%TA.AperFunction,SMDPad,CuDef*%
%ADD28RoundRect,0.200000X0.275000X-0.200000X0.275000X0.200000X-0.275000X0.200000X-0.275000X-0.200000X0*%
%TD*%
%TA.AperFunction,ComponentPad*%
%ADD29C,2.600000*%
%TD*%
%TA.AperFunction,SMDPad,CuDef*%
%ADD30C,17.900000*%
%TD*%
%TA.AperFunction,ComponentPad*%
%ADD31RoundRect,0.250000X-0.600000X-0.600000X0.600000X-0.600000X0.600000X0.600000X-0.600000X0.600000X0*%
%TD*%
%TA.AperFunction,ComponentPad*%
%ADD32C,1.700000*%
%TD*%
%TA.AperFunction,SMDPad,CuDef*%
%ADD33RoundRect,0.225000X-0.225000X-0.250000X0.225000X-0.250000X0.225000X0.250000X-0.225000X0.250000X0*%
%TD*%
%TA.AperFunction,ComponentPad*%
%ADD34C,1.600000*%
%TD*%
%TA.AperFunction,SMDPad,CuDef*%
%ADD35RoundRect,0.375000X0.625000X0.375000X-0.625000X0.375000X-0.625000X-0.375000X0.625000X-0.375000X0*%
%TD*%
%TA.AperFunction,SMDPad,CuDef*%
%ADD36RoundRect,0.500000X0.500000X1.400000X-0.500000X1.400000X-0.500000X-1.400000X0.500000X-1.400000X0*%
%TD*%
%TA.AperFunction,SMDPad,CuDef*%
%ADD37RoundRect,0.225000X0.225000X0.250000X-0.225000X0.250000X-0.225000X-0.250000X0.225000X-0.250000X0*%
%TD*%
%TA.AperFunction,SMDPad,CuDef*%
%ADD38RoundRect,0.075000X-0.662500X-0.075000X0.662500X-0.075000X0.662500X0.075000X-0.662500X0.075000X0*%
%TD*%
%TA.AperFunction,SMDPad,CuDef*%
%ADD39RoundRect,0.075000X-0.075000X-0.662500X0.075000X-0.662500X0.075000X0.662500X-0.075000X0.662500X0*%
%TD*%
%TA.AperFunction,SMDPad,CuDef*%
%ADD40R,1.400000X1.200000*%
%TD*%
%TA.AperFunction,ViaPad*%
%ADD41C,1.600000*%
%TD*%
%TA.AperFunction,ViaPad*%
%ADD42C,0.600000*%
%TD*%
%TA.AperFunction,ViaPad*%
%ADD43C,1.000000*%
%TD*%
%TA.AperFunction,Conductor*%
%ADD44C,0.300000*%
%TD*%
%TA.AperFunction,Conductor*%
%ADD45C,0.500000*%
%TD*%
%TA.AperFunction,Conductor*%
%ADD46C,0.800000*%
%TD*%
%TA.AperFunction,Conductor*%
%ADD47C,1.200000*%
%TD*%
%TA.AperFunction,Conductor*%
%ADD48C,0.130000*%
%TD*%
G04 APERTURE END LIST*
D10*
%TO.P,C9,1*%
%TO.N,VBUS*%
X172700000Y-69912000D03*
%TO.P,C9,2*%
%TO.N,GND*%
X172700000Y-71812000D03*
%TD*%
D11*
%TO.P,U3,1,32KHZ*%
%TO.N,unconnected-(U3-32KHZ-Pad1)*%
X126059000Y-90170000D03*
%TO.P,U3,2,VCC*%
%TO.N,+3V3*%
X126059000Y-91440000D03*
%TO.P,U3,3,~{INT}/SQW*%
%TO.N,unconnected-(U3-~{INT}{slash}SQW-Pad3)*%
X126059000Y-92710000D03*
%TO.P,U3,4,~{RST}*%
%TO.N,unconnected-(U3-~{RST}-Pad4)*%
X126059000Y-93980000D03*
%TO.P,U3,5,GND*%
%TO.N,GND*%
X130989000Y-93980000D03*
%TO.P,U3,6,VBAT*%
%TO.N,+BATT*%
X130989000Y-92710000D03*
%TO.P,U3,7,SDA*%
%TO.N,SDA*%
X130989000Y-91440000D03*
%TO.P,U3,8,SCL*%
%TO.N,SCL*%
X130989000Y-90170000D03*
%TD*%
D12*
%TO.P,J1,A5,CC1*%
%TO.N,USB_CC1*%
X155100000Y-71520000D03*
D13*
%TO.P,J1,A9,VBUS*%
%TO.N,VBUS*%
X153080000Y-71520000D03*
D14*
%TO.P,J1,A12,GND*%
%TO.N,GND*%
X151850000Y-71520000D03*
D15*
%TO.P,J1,B5,CC2*%
%TO.N,USB_CC2*%
X154100000Y-71520000D03*
D16*
%TO.P,J1,B9,VBUS*%
%TO.N,VBUS*%
X156120000Y-71520000D03*
D17*
%TO.P,J1,B12,GND*%
%TO.N,GND*%
X157350000Y-71520000D03*
D18*
%TO.P,J1,S1,SHIELD*%
%TO.N,unconnected-(J1-SHIELD-PadS1)*%
X158920000Y-71440000D03*
%TO.N,unconnected-(J1-SHIELD-PadS1)_1*%
X158920000Y-67640000D03*
%TO.N,unconnected-(J1-SHIELD-PadS1)_2*%
X150280000Y-71440000D03*
%TO.N,unconnected-(J1-SHIELD-PadS1)_0*%
X150280000Y-67640000D03*
%TD*%
D19*
%TO.P,J3,4,Pin_4*%
%TO.N,+3V3*%
X134493000Y-99949000D03*
%TO.P,J3,3,Pin_3*%
%TO.N,TOGGLE_SW_3*%
X137033000Y-99949000D03*
%TO.P,J3,2,Pin_2*%
%TO.N,TOGGLE_SW_2*%
X139573000Y-99949000D03*
D20*
%TO.P,J3,1,Pin_1*%
%TO.N,TOGGLE_SW_1*%
X142113000Y-99949000D03*
%TD*%
D21*
%TO.P,C12,1*%
%TO.N,HSE_IN*%
X153900000Y-89975000D03*
%TO.P,C12,2*%
%TO.N,GND*%
X153900000Y-88425000D03*
%TD*%
D22*
%TO.P,R2,1*%
%TO.N,/BOOT0*%
X157525000Y-83100000D03*
%TO.P,R2,2*%
%TO.N,/JMP_BOOT0*%
X155875000Y-83100000D03*
%TD*%
D23*
%TO.P,D2,1,K*%
%TO.N,VBUS*%
X161036000Y-69689000D03*
%TO.P,D2,2,A*%
%TO.N,GND*%
X161036000Y-71789000D03*
%TD*%
D20*
%TO.P,J2,1,Pin_1*%
%TO.N,GND*%
X162860000Y-79700000D03*
D19*
%TO.P,J2,2,Pin_2*%
%TO.N,/SWCLK*%
X165400000Y-79700000D03*
%TO.P,J2,3,Pin_3*%
%TO.N,/SWDIO*%
X167940000Y-79700000D03*
%TO.P,J2,4,Pin_4*%
%TO.N,+3V3*%
X170480000Y-79700000D03*
%TD*%
D24*
%TO.P,D1,1,K*%
%TO.N,/PWR_LED_K*%
X119888000Y-84556500D03*
%TO.P,D1,2,A*%
%TO.N,/PWR_LED_A*%
X119888000Y-86131500D03*
%TD*%
D25*
%TO.P,C10,1*%
%TO.N,+3V3*%
X166035000Y-75688000D03*
%TO.P,C10,2*%
%TO.N,GND*%
X167935000Y-75688000D03*
%TD*%
D26*
%TO.P,R6,1*%
%TO.N,SCL*%
X130112000Y-99949000D03*
%TO.P,R6,2*%
%TO.N,+3V3*%
X131762000Y-99949000D03*
%TD*%
D20*
%TO.P,JP1,1,A*%
%TO.N,+3V3*%
X119888000Y-91318000D03*
D19*
%TO.P,JP1,2,B*%
%TO.N,/PWR_LED_A*%
X119888000Y-88778000D03*
%TD*%
D20*
%TO.P,J4,1,Pin_1*%
%TO.N,MECH_SW_1*%
X142113000Y-91949000D03*
D19*
%TO.P,J4,2,Pin_2*%
%TO.N,MECH_SW_2*%
X139573000Y-91949000D03*
%TO.P,J4,3,Pin_3*%
%TO.N,MECH_SW_3*%
X137033000Y-91949000D03*
%TO.P,J4,4,Pin_4*%
%TO.N,+3V3*%
X134493000Y-91949000D03*
%TD*%
D27*
%TO.P,C5,1*%
%TO.N,+3V3*%
X168300000Y-85825000D03*
%TO.P,C5,2*%
%TO.N,GND*%
X168300000Y-87375000D03*
%TD*%
D28*
%TO.P,R3,1*%
%TO.N,GND*%
X151806000Y-76837000D03*
%TO.P,R3,2*%
%TO.N,USB_CC2*%
X151806000Y-75187000D03*
%TD*%
D29*
%TO.P,BT1,1,+*%
%TO.N,+BATT*%
X125950000Y-77000000D03*
X147050000Y-77000000D03*
D30*
%TO.P,BT1,2,-*%
%TO.N,GND*%
X136500000Y-77000000D03*
%TD*%
D27*
%TO.P,C6,1*%
%TO.N,+3.3VA*%
X156300000Y-90625000D03*
%TO.P,C6,2*%
%TO.N,GND*%
X156300000Y-92175000D03*
%TD*%
%TO.P,C1,1*%
%TO.N,+3V3*%
X169900000Y-85825000D03*
%TO.P,C1,2*%
%TO.N,GND*%
X169900000Y-87375000D03*
%TD*%
D31*
%TO.P,J5,1,Pin_1*%
%TO.N,GND*%
X178435000Y-80420000D03*
D32*
%TO.P,J5,2,Pin_2*%
X180975000Y-80420000D03*
%TO.P,J5,3,Pin_3*%
X178435000Y-82960000D03*
%TO.P,J5,4,Pin_4*%
%TO.N,LATCH*%
X180975000Y-82960000D03*
%TO.P,J5,5,Pin_5*%
%TO.N,CLK*%
X178435000Y-85500000D03*
%TO.P,J5,6,Pin_6*%
%TO.N,OE*%
X180975000Y-85500000D03*
%TO.P,J5,7,Pin_7*%
%TO.N,SER*%
X178435000Y-88040000D03*
%TO.P,J5,8,Pin_8*%
%TO.N,+3V3*%
X180975000Y-88040000D03*
%TO.P,J5,9,Pin_9*%
%TO.N,VBUS*%
X178435000Y-90580000D03*
%TO.P,J5,10,Pin_10*%
X180975000Y-90580000D03*
%TD*%
D21*
%TO.P,C14,1*%
%TO.N,+3V3*%
X124079000Y-91326000D03*
%TO.P,C14,2*%
%TO.N,GND*%
X124079000Y-89776000D03*
%TD*%
D23*
%TO.P,D3,1,K*%
%TO.N,USB_CC1*%
X155596400Y-73499000D03*
%TO.P,D3,2,A*%
%TO.N,GND*%
X155596400Y-75599000D03*
%TD*%
D22*
%TO.P,FB1,1*%
%TO.N,+3.3VA*%
X153725000Y-95300000D03*
%TO.P,FB1,2*%
%TO.N,+3V3*%
X152075000Y-95300000D03*
%TD*%
D23*
%TO.P,D4,1,K*%
%TO.N,USB_CC2*%
X153596400Y-73499000D03*
%TO.P,D4,2,A*%
%TO.N,GND*%
X153596400Y-75599000D03*
%TD*%
D21*
%TO.P,C4,1*%
%TO.N,+3V3*%
X156300000Y-86375000D03*
%TO.P,C4,2*%
%TO.N,GND*%
X156300000Y-84825000D03*
%TD*%
D33*
%TO.P,C7,1*%
%TO.N,+3.3VA*%
X155225000Y-95300000D03*
%TO.P,C7,2*%
%TO.N,GND*%
X156775000Y-95300000D03*
%TD*%
D34*
%TO.P,R9,1*%
%TO.N,LDR*%
X170280000Y-94975000D03*
%TO.P,R9,2*%
%TO.N,GND*%
X173280000Y-94975000D03*
%TD*%
D22*
%TO.P,R7,1*%
%TO.N,SDA*%
X128714000Y-99949000D03*
%TO.P,R7,2*%
%TO.N,+3V3*%
X127064000Y-99949000D03*
%TD*%
D20*
%TO.P,JP2,1,A*%
%TO.N,+3V3*%
X151060000Y-85800000D03*
D19*
%TO.P,JP2,2,B*%
%TO.N,/JMP_BOOT0*%
X153600000Y-85800000D03*
%TD*%
D35*
%TO.P,U1,1,GND*%
%TO.N,GND*%
X170135000Y-73162000D03*
%TO.P,U1,2,VO*%
%TO.N,+3V3*%
X170135000Y-70862000D03*
D36*
X163835000Y-70862000D03*
D35*
%TO.P,U1,3,VI*%
%TO.N,VBUS*%
X170135000Y-68562000D03*
%TD*%
D37*
%TO.P,C2,1*%
%TO.N,+3V3*%
X165675000Y-95100000D03*
%TO.P,C2,2*%
%TO.N,GND*%
X164125000Y-95100000D03*
%TD*%
D26*
%TO.P,R5,1*%
%TO.N,GND*%
X152800000Y-83100000D03*
%TO.P,R5,2*%
%TO.N,/JMP_BOOT0*%
X154450000Y-83100000D03*
%TD*%
D33*
%TO.P,C3,1*%
%TO.N,+3V3*%
X159025000Y-83100000D03*
%TO.P,C3,2*%
%TO.N,GND*%
X160575000Y-83100000D03*
%TD*%
D38*
%TO.P,U2,1,VBAT*%
%TO.N,+3V3*%
X158137500Y-86350000D03*
%TO.P,U2,2,PC13*%
%TO.N,unconnected-(U2-PC13-Pad2)*%
X158137500Y-86850000D03*
%TO.P,U2,3,PC14*%
%TO.N,unconnected-(U2-PC14-Pad3)*%
X158137500Y-87350000D03*
%TO.P,U2,4,PC15*%
%TO.N,unconnected-(U2-PC15-Pad4)*%
X158137500Y-87850000D03*
%TO.P,U2,5,PD0*%
%TO.N,HSE_IN*%
X158137500Y-88350000D03*
%TO.P,U2,6,PD1*%
%TO.N,HSE_OUT*%
X158137500Y-88850000D03*
%TO.P,U2,7,NRST*%
%TO.N,/NRST*%
X158137500Y-89350000D03*
%TO.P,U2,8,VSSA*%
%TO.N,GND*%
X158137500Y-89850000D03*
%TO.P,U2,9,VDDA*%
%TO.N,+3.3VA*%
X158137500Y-90350000D03*
%TO.P,U2,10,PA0*%
%TO.N,unconnected-(U2-PA0-Pad10)*%
X158137500Y-90850000D03*
%TO.P,U2,11,PA1*%
%TO.N,USB_CC2*%
X158137500Y-91350000D03*
%TO.P,U2,12,PA2*%
%TO.N,USB_CC1*%
X158137500Y-91850000D03*
D39*
%TO.P,U2,13,PA3*%
%TO.N,MECH_SW_1*%
X159550000Y-93262500D03*
%TO.P,U2,14,PA4*%
%TO.N,MECH_SW_2*%
X160050000Y-93262500D03*
%TO.P,U2,15,PA5*%
%TO.N,MECH_SW_3*%
X160550000Y-93262500D03*
%TO.P,U2,16,PA6*%
%TO.N,TOGGLE_SW_3*%
X161050000Y-93262500D03*
%TO.P,U2,17,PA7*%
%TO.N,TOGGLE_SW_2*%
X161550000Y-93262500D03*
%TO.P,U2,18,PB0*%
%TO.N,TOGGLE_SW_1*%
X162050000Y-93262500D03*
%TO.P,U2,19,PB1*%
%TO.N,LDR*%
X162550000Y-93262500D03*
%TO.P,U2,20,PB2*%
%TO.N,unconnected-(U2-PB2-Pad20)*%
X163050000Y-93262500D03*
%TO.P,U2,21,PB10*%
%TO.N,SCL*%
X163550000Y-93262500D03*
%TO.P,U2,22,PB11*%
%TO.N,SDA*%
X164050000Y-93262500D03*
%TO.P,U2,23,VSS*%
%TO.N,GND*%
X164550000Y-93262500D03*
%TO.P,U2,24,VDD*%
%TO.N,+3V3*%
X165050000Y-93262500D03*
D38*
%TO.P,U2,25,PB12*%
%TO.N,LATCH*%
X166462500Y-91850000D03*
%TO.P,U2,26,PB13*%
%TO.N,CLK*%
X166462500Y-91350000D03*
%TO.P,U2,27,PB14*%
%TO.N,OE*%
X166462500Y-90850000D03*
%TO.P,U2,28,PB15*%
%TO.N,SER*%
X166462500Y-90350000D03*
%TO.P,U2,29,PA8*%
%TO.N,unconnected-(U2-PA8-Pad29)*%
X166462500Y-89850000D03*
%TO.P,U2,30,PA9*%
%TO.N,unconnected-(U2-PA9-Pad30)*%
X166462500Y-89350000D03*
%TO.P,U2,31,PA10*%
%TO.N,unconnected-(U2-PA10-Pad31)*%
X166462500Y-88850000D03*
%TO.P,U2,32,PA11*%
%TO.N,unconnected-(U2-PA11-Pad32)*%
X166462500Y-88350000D03*
%TO.P,U2,33,PA12*%
%TO.N,unconnected-(U2-PA12-Pad33)*%
X166462500Y-87850000D03*
%TO.P,U2,34,PA13*%
%TO.N,/SWDIO*%
X166462500Y-87350000D03*
%TO.P,U2,35,VSS*%
%TO.N,GND*%
X166462500Y-86850000D03*
%TO.P,U2,36,VDD*%
%TO.N,+3V3*%
X166462500Y-86350000D03*
D39*
%TO.P,U2,37,PA14*%
%TO.N,/SWCLK*%
X165050000Y-84937500D03*
%TO.P,U2,38,PA15*%
%TO.N,unconnected-(U2-PA15-Pad38)*%
X164550000Y-84937500D03*
%TO.P,U2,39,PB3*%
%TO.N,unconnected-(U2-PB3-Pad39)*%
X164050000Y-84937500D03*
%TO.P,U2,40,PB4*%
%TO.N,unconnected-(U2-PB4-Pad40)*%
X163550000Y-84937500D03*
%TO.P,U2,41,PB5*%
%TO.N,unconnected-(U2-PB5-Pad41)*%
X163050000Y-84937500D03*
%TO.P,U2,42,PB6*%
%TO.N,unconnected-(U2-PB6-Pad42)*%
X162550000Y-84937500D03*
%TO.P,U2,43,PB7*%
%TO.N,unconnected-(U2-PB7-Pad43)*%
X162050000Y-84937500D03*
%TO.P,U2,44,BOOT0*%
%TO.N,/BOOT0*%
X161550000Y-84937500D03*
%TO.P,U2,45,PB8*%
%TO.N,unconnected-(U2-PB8-Pad45)*%
X161050000Y-84937500D03*
%TO.P,U2,46,PB9*%
%TO.N,unconnected-(U2-PB9-Pad46)*%
X160550000Y-84937500D03*
%TO.P,U2,47,VSS*%
%TO.N,GND*%
X160050000Y-84937500D03*
%TO.P,U2,48,VDD*%
%TO.N,+3V3*%
X159550000Y-84937500D03*
%TD*%
D28*
%TO.P,R8,1*%
%TO.N,+3V3*%
X168240000Y-96620000D03*
%TO.P,R8,2*%
%TO.N,LDR*%
X168240000Y-94970000D03*
%TD*%
%TO.P,R1,1*%
%TO.N,/PWR_LED_K*%
X119888000Y-83057000D03*
%TO.P,R1,2*%
%TO.N,GND*%
X119888000Y-81407000D03*
%TD*%
D37*
%TO.P,C8,1*%
%TO.N,+3V3*%
X150575000Y-95300000D03*
%TO.P,C8,2*%
%TO.N,GND*%
X149025000Y-95300000D03*
%TD*%
D27*
%TO.P,C11,1*%
%TO.N,/NRST*%
X158300000Y-93725000D03*
%TO.P,C11,2*%
%TO.N,GND*%
X158300000Y-95275000D03*
%TD*%
%TO.P,C13,1*%
%TO.N,HSE_OUT*%
X153900000Y-91525000D03*
%TO.P,C13,2*%
%TO.N,GND*%
X153900000Y-93075000D03*
%TD*%
D40*
%TO.P,Y1,1,1*%
%TO.N,HSE_IN*%
X150500000Y-88650000D03*
%TO.P,Y1,2,2*%
%TO.N,GND*%
X148300000Y-88650000D03*
%TO.P,Y1,3,3*%
%TO.N,HSE_OUT*%
X148300000Y-90350000D03*
%TO.P,Y1,4,4*%
%TO.N,GND*%
X150500000Y-90350000D03*
%TD*%
D28*
%TO.P,R4,1*%
%TO.N,GND*%
X157394000Y-76837000D03*
%TO.P,R4,2*%
%TO.N,USB_CC1*%
X157394000Y-75187000D03*
%TD*%
D41*
%TO.N,GND*%
X172065000Y-75434000D03*
D42*
X151800000Y-90300000D03*
X147200000Y-88600000D03*
X152000000Y-83100000D03*
X156800000Y-96100000D03*
X132300000Y-94000000D03*
X153543000Y-74930000D03*
X155702000Y-74930000D03*
D41*
X157394000Y-73012000D03*
D43*
X170900000Y-87300000D03*
D42*
X119888000Y-80645000D03*
X158242000Y-76835000D03*
D41*
X151806000Y-73012000D03*
D42*
X158300000Y-96100000D03*
X151003000Y-76835000D03*
D43*
X160500000Y-82100000D03*
D41*
X151806000Y-69964000D03*
D42*
X153900000Y-93900000D03*
X155500000Y-84800000D03*
X157000000Y-89700000D03*
D43*
X164100000Y-96100000D03*
D41*
X172065000Y-73402000D03*
D43*
X124079000Y-88773000D03*
D41*
X130000000Y-84500000D03*
D42*
X148200000Y-95300000D03*
X161036000Y-72390000D03*
X153900000Y-87600000D03*
D41*
X170033000Y-75434000D03*
D42*
X157100000Y-92400000D03*
%TO.N,+BATT*%
X132700000Y-89900000D03*
X132700000Y-87600000D03*
%TO.N,/NRST*%
X158200000Y-92700000D03*
X159400000Y-90600000D03*
%TO.N,USB_CC2*%
X159004000Y-77978000D03*
X162052000Y-86360000D03*
X162052000Y-83439000D03*
X160147000Y-79121000D03*
%TO.N,USB_CC1*%
X160782000Y-78486000D03*
X162941000Y-86360000D03*
X162941000Y-83439000D03*
X159766000Y-77343000D03*
%TO.N,SCL*%
X127800000Y-98400000D03*
X129500000Y-98400000D03*
%TO.N,OE*%
X172212000Y-88900000D03*
X172339000Y-87376000D03*
%TO.N,CLK*%
X173228000Y-88900000D03*
X173228000Y-86233000D03*
%TO.N,LATCH*%
X174244000Y-84836000D03*
X174244000Y-88900000D03*
%TD*%
D44*
%TO.N,GND*%
X152800000Y-83100000D02*
X152000000Y-83100000D01*
D45*
X164125000Y-96075000D02*
X164100000Y-96100000D01*
X124079000Y-89776000D02*
X124079000Y-88773000D01*
D44*
X164550000Y-94050000D02*
X164125000Y-94475000D01*
X157150000Y-89850000D02*
X157000000Y-89700000D01*
X155525000Y-84825000D02*
X155500000Y-84800000D01*
X155596400Y-75599000D02*
X155596400Y-75035600D01*
D45*
X169900000Y-87375000D02*
X168300000Y-87375000D01*
D44*
X147250000Y-88650000D02*
X147200000Y-88600000D01*
D46*
X136500000Y-78000000D02*
X130000000Y-84500000D01*
D44*
X164550000Y-93262500D02*
X164550000Y-94050000D01*
D45*
X169900000Y-87375000D02*
X170825000Y-87375000D01*
X160575000Y-83100000D02*
X160575000Y-82175000D01*
D44*
X156775000Y-96075000D02*
X156800000Y-96100000D01*
X149025000Y-95300000D02*
X148200000Y-95300000D01*
X156775000Y-95300000D02*
X156775000Y-96075000D01*
X166462500Y-86850000D02*
X167199882Y-86850000D01*
D45*
X160575000Y-82175000D02*
X160500000Y-82100000D01*
D44*
X167199882Y-86850000D02*
X167724882Y-87375000D01*
X160050000Y-84937500D02*
X160050000Y-84150000D01*
D45*
X170825000Y-87375000D02*
X170900000Y-87300000D01*
D44*
X130989000Y-93980000D02*
X132280000Y-93980000D01*
X157394000Y-76837000D02*
X158240000Y-76837000D01*
X161036000Y-71789000D02*
X161036000Y-72390000D01*
X156875000Y-92175000D02*
X157100000Y-92400000D01*
X164125000Y-94475000D02*
X164125000Y-95100000D01*
X151806000Y-76837000D02*
X151005000Y-76837000D01*
D46*
X136500000Y-77000000D02*
X136500000Y-78000000D01*
D44*
X132280000Y-93980000D02*
X132300000Y-94000000D01*
D46*
X151850000Y-71520000D02*
X151850000Y-72968000D01*
D44*
X160050000Y-84150000D02*
X160575000Y-83625000D01*
X158300000Y-95275000D02*
X158300000Y-96100000D01*
D46*
X151850000Y-71520000D02*
X151850000Y-70008000D01*
D44*
X151750000Y-90350000D02*
X151800000Y-90300000D01*
X153900000Y-88425000D02*
X153900000Y-87600000D01*
X151005000Y-76837000D02*
X151003000Y-76835000D01*
X167724882Y-87375000D02*
X168300000Y-87375000D01*
X153900000Y-93075000D02*
X153900000Y-93900000D01*
X160575000Y-83625000D02*
X160575000Y-83100000D01*
D46*
X157350000Y-71520000D02*
X157350000Y-72968000D01*
D44*
X158137500Y-89850000D02*
X157150000Y-89850000D01*
X155596400Y-75035600D02*
X155702000Y-74930000D01*
D46*
X151850000Y-72968000D02*
X151806000Y-73012000D01*
D44*
X156300000Y-84825000D02*
X155525000Y-84825000D01*
X153596400Y-74983400D02*
X153543000Y-74930000D01*
D46*
X151850000Y-70008000D02*
X151806000Y-69964000D01*
D44*
X119888000Y-81407000D02*
X119888000Y-80645000D01*
D46*
X157350000Y-72968000D02*
X157394000Y-73012000D01*
D44*
X158240000Y-76837000D02*
X158242000Y-76835000D01*
X156300000Y-92175000D02*
X156875000Y-92175000D01*
X150500000Y-90350000D02*
X151750000Y-90350000D01*
X148300000Y-88650000D02*
X147250000Y-88650000D01*
X153596400Y-75599000D02*
X153596400Y-74983400D01*
D45*
X164125000Y-95100000D02*
X164125000Y-96075000D01*
D44*
%TO.N,+BATT*%
X125950000Y-83550000D02*
X130000000Y-87600000D01*
X130000000Y-87600000D02*
X132700000Y-87600000D01*
X130989000Y-92710000D02*
X131979000Y-92710000D01*
X125950000Y-77000000D02*
X125950000Y-83550000D01*
X140900000Y-87600000D02*
X132700000Y-87600000D01*
X147050000Y-77000000D02*
X147050000Y-81450000D01*
X131979000Y-92710000D02*
X132700000Y-91989000D01*
X147050000Y-81450000D02*
X140900000Y-87600000D01*
X132700000Y-91989000D02*
X132700000Y-89900000D01*
D45*
%TO.N,+3V3*%
X129667000Y-88773000D02*
X127000000Y-91440000D01*
X127000000Y-91440000D02*
X126059000Y-91440000D01*
D44*
X152112500Y-95300000D02*
X150575000Y-95300000D01*
D45*
X126059000Y-91440000D02*
X124193000Y-91440000D01*
D44*
X156300000Y-86375000D02*
X155675000Y-87000000D01*
X119888000Y-91318000D02*
X124071000Y-91318000D01*
D45*
X124193000Y-91440000D02*
X124079000Y-91326000D01*
X134493000Y-88773000D02*
X129667000Y-88773000D01*
D44*
X165050000Y-94050000D02*
X165675000Y-94675000D01*
D45*
X168400000Y-77600000D02*
X168400000Y-77620000D01*
X167116000Y-77600000D02*
X168400000Y-77600000D01*
D44*
X165050000Y-93262500D02*
X165050000Y-94050000D01*
D45*
X160528000Y-77597000D02*
X157025000Y-81100000D01*
X166035000Y-75688000D02*
X166035000Y-76519000D01*
D44*
X159550000Y-84937500D02*
X159550000Y-84150000D01*
D45*
X157025000Y-81100000D02*
X159025000Y-83100000D01*
D44*
X158137500Y-86350000D02*
X156325000Y-86350000D01*
X167775000Y-85825000D02*
X168300000Y-85825000D01*
X150575000Y-95300000D02*
X150575000Y-95121000D01*
X166462500Y-86350000D02*
X167250000Y-86350000D01*
D45*
X168400000Y-77600000D02*
X180724000Y-77600000D01*
D44*
X124071000Y-91318000D02*
X124079000Y-91326000D01*
X167195000Y-96620000D02*
X165675000Y-95100000D01*
D45*
X170480000Y-79700000D02*
X169900000Y-80280000D01*
X167116000Y-77600000D02*
X167113000Y-77597000D01*
D44*
X159025000Y-83625000D02*
X159025000Y-83100000D01*
D45*
X134493000Y-91949000D02*
X134493000Y-99949000D01*
X151900000Y-81100000D02*
X151060000Y-81940000D01*
D44*
X155675000Y-87000000D02*
X152260000Y-87000000D01*
D45*
X162306000Y-104013000D02*
X168240000Y-98079000D01*
X134493000Y-91949000D02*
X134493000Y-88773000D01*
D44*
X165675000Y-94675000D02*
X165675000Y-95100000D01*
D45*
X167113000Y-77597000D02*
X160528000Y-77597000D01*
D44*
X167250000Y-86350000D02*
X167775000Y-85825000D01*
D45*
X124079000Y-96964000D02*
X124079000Y-91326000D01*
X183007000Y-86008000D02*
X180975000Y-88040000D01*
X183007000Y-79883000D02*
X183007000Y-86008000D01*
X151900000Y-81100000D02*
X157025000Y-81100000D01*
X131128000Y-104013000D02*
X162306000Y-104013000D01*
X180724000Y-77600000D02*
X183007000Y-79883000D01*
X127064000Y-99949000D02*
X131128000Y-104013000D01*
D44*
X131762000Y-99949000D02*
X134493000Y-99949000D01*
X159550000Y-84150000D02*
X159025000Y-83625000D01*
X168240000Y-96620000D02*
X167195000Y-96620000D01*
X150575000Y-95121000D02*
X144227000Y-88773000D01*
X156325000Y-86350000D02*
X156300000Y-86375000D01*
X152260000Y-87000000D02*
X151060000Y-85800000D01*
D45*
X169900000Y-85825000D02*
X168300000Y-85825000D01*
X127064000Y-99949000D02*
X124079000Y-96964000D01*
X168400000Y-77620000D02*
X170480000Y-79700000D01*
X166035000Y-76519000D02*
X167116000Y-77600000D01*
X168240000Y-98079000D02*
X168240000Y-96620000D01*
X169900000Y-80280000D02*
X169900000Y-85825000D01*
X151060000Y-81940000D02*
X144227000Y-88773000D01*
X151060000Y-81940000D02*
X151060000Y-85800000D01*
X144227000Y-88773000D02*
X134493000Y-88773000D01*
D44*
%TO.N,+3.3VA*%
X155225000Y-95300000D02*
X155225000Y-91700000D01*
X155225000Y-91700000D02*
X156300000Y-90625000D01*
X158137500Y-90350000D02*
X156575000Y-90350000D01*
X156575000Y-90350000D02*
X156300000Y-90625000D01*
X153687500Y-95300000D02*
X155225000Y-95300000D01*
D47*
%TO.N,VBUS*%
X169193000Y-68562000D02*
X168231000Y-67600000D01*
D46*
X156120000Y-71520000D02*
X156120000Y-70320000D01*
X156120000Y-70320000D02*
X155400000Y-69600000D01*
D47*
X160731000Y-69600000D02*
X162731000Y-67600000D01*
X178435000Y-90580000D02*
X182851000Y-90580000D01*
D46*
X153080000Y-71520000D02*
X153080000Y-70420000D01*
X153900000Y-69600000D02*
X154400000Y-69600000D01*
D47*
X170135000Y-68562000D02*
X169193000Y-68562000D01*
D46*
X153080000Y-70420000D02*
X153900000Y-69600000D01*
D47*
X155400000Y-69600000D02*
X160731000Y-69600000D01*
X184531000Y-88900000D02*
X184531000Y-77900000D01*
X162731000Y-67600000D02*
X168231000Y-67600000D01*
X184531000Y-77900000D02*
X174231000Y-67600000D01*
X182851000Y-90580000D02*
X184531000Y-88900000D01*
D46*
X154400000Y-69600000D02*
X155400000Y-69600000D01*
D47*
X174231000Y-67600000D02*
X168231000Y-67600000D01*
D48*
%TO.N,/NRST*%
X158200000Y-93625000D02*
X158300000Y-93725000D01*
X158200000Y-92700000D02*
X158200000Y-93625000D01*
X158137500Y-89350000D02*
X158874999Y-89350000D01*
X158874999Y-89350000D02*
X159400000Y-89875001D01*
X159400000Y-89875001D02*
X159400000Y-90600000D01*
%TO.N,HSE_IN*%
X150500000Y-88650000D02*
X152575000Y-88650000D01*
X153900000Y-89975000D02*
X155525000Y-88350000D01*
X153900000Y-89900000D02*
X153900000Y-89975000D01*
X152575000Y-88650000D02*
X153900000Y-89975000D01*
X155525000Y-88350000D02*
X158137500Y-88350000D01*
%TO.N,HSE_OUT*%
X158137500Y-88850000D02*
X156950000Y-88850000D01*
X149475000Y-91525000D02*
X148300000Y-90350000D01*
X156950000Y-88850000D02*
X154275000Y-91525000D01*
X153900000Y-91525000D02*
X149475000Y-91525000D01*
X154275000Y-91525000D02*
X153900000Y-91525000D01*
D44*
%TO.N,/PWR_LED_K*%
X119888000Y-84556500D02*
X119888000Y-83057000D01*
%TO.N,/PWR_LED_A*%
X119888000Y-88778000D02*
X119888000Y-86131500D01*
D48*
%TO.N,USB_CC2*%
X151806000Y-75187000D02*
X154597000Y-77978000D01*
X154597000Y-77978000D02*
X159004000Y-77978000D01*
X160147000Y-79121000D02*
X160147000Y-80391000D01*
X161925000Y-82169000D02*
X162052000Y-82296000D01*
X160147000Y-80391000D02*
X161925000Y-82169000D01*
X154100000Y-72893000D02*
X151806000Y-75187000D01*
X159378320Y-91350000D02*
X158137500Y-91350000D01*
X162052000Y-82296000D02*
X162052000Y-83439000D01*
X162052000Y-88676320D02*
X159378320Y-91350000D01*
X154100000Y-71520000D02*
X154100000Y-72893000D01*
X162052000Y-86360000D02*
X162052000Y-88676320D01*
%TO.N,USB_CC1*%
X162433000Y-81915000D02*
X162941000Y-82423000D01*
X162941000Y-86360000D02*
X162941000Y-88519000D01*
X155100000Y-72893000D02*
X157394000Y-75187000D01*
X155100000Y-71520000D02*
X155100000Y-72893000D01*
X162941000Y-88519000D02*
X159610000Y-91850000D01*
X162941000Y-82423000D02*
X162941000Y-83439000D01*
X160782000Y-78486000D02*
X160782000Y-80264000D01*
X159610000Y-91850000D02*
X158137500Y-91850000D01*
X160782000Y-80264000D02*
X162433000Y-81915000D01*
X157610000Y-75187000D02*
X157394000Y-75187000D01*
X159766000Y-77343000D02*
X157610000Y-75187000D01*
%TO.N,/SWCLK*%
X165050000Y-84937500D02*
X165050000Y-80050000D01*
X165050000Y-80050000D02*
X165400000Y-79700000D01*
%TO.N,/SWDIO*%
X165550000Y-87350000D02*
X165200000Y-87000000D01*
X165200000Y-87000000D02*
X165200000Y-86300000D01*
X165200000Y-86300000D02*
X167940000Y-83560000D01*
X166462500Y-87350000D02*
X165550000Y-87350000D01*
X167940000Y-83560000D02*
X167940000Y-79700000D01*
%TO.N,TOGGLE_SW_2*%
X140716000Y-98806000D02*
X143256000Y-98806000D01*
X144018000Y-99568000D02*
X159258000Y-99568000D01*
X161550000Y-97276000D02*
X161550000Y-93262500D01*
X159258000Y-99568000D02*
X161550000Y-97276000D01*
X143256000Y-98806000D02*
X144018000Y-99568000D01*
X139573000Y-99949000D02*
X140716000Y-98806000D01*
%TO.N,TOGGLE_SW_3*%
X161050000Y-97268000D02*
X161050000Y-93262500D01*
X137033000Y-99949000D02*
X138557000Y-98425000D01*
X159131000Y-99187000D02*
X161050000Y-97268000D01*
X144145000Y-99187000D02*
X159131000Y-99187000D01*
X138557000Y-98425000D02*
X143383000Y-98425000D01*
X143383000Y-98425000D02*
X144145000Y-99187000D01*
%TO.N,TOGGLE_SW_1*%
X162050000Y-97284000D02*
X162050000Y-93262500D01*
X159385000Y-99949000D02*
X162050000Y-97284000D01*
X142113000Y-99949000D02*
X159385000Y-99949000D01*
%TO.N,/JMP_BOOT0*%
X155875000Y-83100000D02*
X154450000Y-83100000D01*
X154450000Y-84950000D02*
X153600000Y-85800000D01*
X154450000Y-83100000D02*
X154450000Y-84950000D01*
%TO.N,MECH_SW_2*%
X139573000Y-91949000D02*
X144652000Y-97028000D01*
X160050000Y-95728000D02*
X160050000Y-93262500D01*
X144652000Y-97028000D02*
X158750000Y-97028000D01*
X158750000Y-97028000D02*
X160050000Y-95728000D01*
%TO.N,MECH_SW_1*%
X146811000Y-96647000D02*
X158623000Y-96647000D01*
X158623000Y-96647000D02*
X159550000Y-95720000D01*
X159550000Y-95720000D02*
X159550000Y-93262500D01*
X142113000Y-91949000D02*
X146811000Y-96647000D01*
%TO.N,MECH_SW_3*%
X158877000Y-97409000D02*
X160550000Y-95736000D01*
X137033000Y-91949000D02*
X142493000Y-97409000D01*
X142493000Y-97409000D02*
X158877000Y-97409000D01*
X160550000Y-95736000D02*
X160550000Y-93262500D01*
%TO.N,/BOOT0*%
X161550000Y-84937500D02*
X161550000Y-85950000D01*
X161400000Y-86100000D02*
X159400000Y-86100000D01*
X159400000Y-86100000D02*
X157525000Y-84225000D01*
X161550000Y-85950000D02*
X161400000Y-86100000D01*
X157525000Y-84225000D02*
X157525000Y-83100000D01*
%TO.N,SCL*%
X127800000Y-92369000D02*
X127800000Y-96700000D01*
X129500000Y-98400000D02*
X130112000Y-99012000D01*
X130112000Y-99012000D02*
X130112000Y-99949000D01*
X129999000Y-90170000D02*
X127800000Y-92369000D01*
X127800000Y-96700000D02*
X127800000Y-98400000D01*
X130989000Y-90170000D02*
X129999000Y-90170000D01*
X130112000Y-99949000D02*
X132398000Y-102235000D01*
X162600000Y-94600000D02*
X162900000Y-94300000D01*
X162600000Y-99600000D02*
X162600000Y-94600000D01*
X163249999Y-94300000D02*
X163550000Y-93999999D01*
X159965000Y-102235000D02*
X162600000Y-99600000D01*
X163550000Y-93999999D02*
X163550000Y-93262500D01*
X162900000Y-94300000D02*
X163249999Y-94300000D01*
X132398000Y-102235000D02*
X159965000Y-102235000D01*
%TO.N,SDA*%
X163300000Y-94816338D02*
X164050000Y-94066338D01*
X130989000Y-91440000D02*
X129999000Y-91440000D01*
X164050000Y-94066338D02*
X164050000Y-93262500D01*
X163300000Y-100000000D02*
X163300000Y-94816338D01*
X160303000Y-102997000D02*
X163300000Y-100000000D01*
X129999000Y-91440000D02*
X128714000Y-92725000D01*
X131762000Y-102997000D02*
X160303000Y-102997000D01*
X128714000Y-92725000D02*
X128714000Y-99949000D01*
X128714000Y-99949000D02*
X131762000Y-102997000D01*
%TO.N,SER*%
X167206000Y-90350000D02*
X168783000Y-88773000D01*
X166462500Y-90350000D02*
X167206000Y-90350000D01*
X170942000Y-88773000D02*
X171675000Y-88040000D01*
X168783000Y-88773000D02*
X170942000Y-88773000D01*
X171675000Y-88040000D02*
X178435000Y-88040000D01*
%TO.N,OE*%
X167894000Y-90678000D02*
X169037000Y-89535000D01*
X171577000Y-89535000D02*
X172212000Y-88900000D01*
X166462500Y-90850000D02*
X167722000Y-90850000D01*
X167722000Y-90850000D02*
X167894000Y-90678000D01*
X169037000Y-89535000D02*
X171577000Y-89535000D01*
X179607000Y-86868000D02*
X180975000Y-85500000D01*
X172847000Y-86868000D02*
X179607000Y-86868000D01*
X172339000Y-87376000D02*
X172847000Y-86868000D01*
%TO.N,CLK*%
X171159000Y-91350000D02*
X172720000Y-89789000D01*
X173228000Y-86233000D02*
X173961000Y-85500000D01*
X173228000Y-89281000D02*
X173228000Y-88900000D01*
X173961000Y-85500000D02*
X178435000Y-85500000D01*
X172720000Y-89789000D02*
X173228000Y-89281000D01*
X166462500Y-91350000D02*
X171159000Y-91350000D01*
%TO.N,LATCH*%
X174244000Y-89789000D02*
X174244000Y-88900000D01*
X167640000Y-92202000D02*
X171831000Y-92202000D01*
X167288000Y-91850000D02*
X167640000Y-92202000D01*
X174244000Y-84836000D02*
X174879000Y-84201000D01*
X174879000Y-84201000D02*
X179734000Y-84201000D01*
X179734000Y-84201000D02*
X180975000Y-82960000D01*
X173609000Y-90424000D02*
X174244000Y-89789000D01*
X171831000Y-92202000D02*
X173609000Y-90424000D01*
X166462500Y-91850000D02*
X167288000Y-91850000D01*
%TO.N,LDR*%
X165220000Y-92010000D02*
X168180000Y-94970000D01*
X168180000Y-94970000D02*
X168240000Y-94970000D01*
D45*
X170275000Y-94970000D02*
X170280000Y-94975000D01*
X168240000Y-94970000D02*
X170275000Y-94970000D01*
D48*
X162550000Y-92270000D02*
X162810000Y-92010000D01*
X162550000Y-93262500D02*
X162550000Y-92270000D01*
X162810000Y-92010000D02*
X165220000Y-92010000D01*
%TD*%
%TA.AperFunction,Conductor*%
%TO.N,GND*%
G36*
X173278039Y-71389685D02*
G01*
X173323794Y-71442489D01*
X173335000Y-71494000D01*
X173335000Y-76326000D01*
X173315315Y-76393039D01*
X173262511Y-76438794D01*
X173211000Y-76450000D01*
X167617000Y-76450000D01*
X167549961Y-76430315D01*
X167504206Y-76377511D01*
X167493000Y-76326000D01*
X167493000Y-75050000D01*
X167512685Y-74982961D01*
X167565489Y-74937206D01*
X167617000Y-74926000D01*
X169017000Y-74926000D01*
X169017000Y-72510000D01*
X169036685Y-72442961D01*
X169089489Y-72397206D01*
X169141000Y-72386000D01*
X172065000Y-72386000D01*
X172065000Y-71494000D01*
X172084685Y-71426961D01*
X172137489Y-71381206D01*
X172189000Y-71370000D01*
X173211000Y-71370000D01*
X173278039Y-71389685D01*
G37*
%TD.AperFunction*%
%TD*%
%TA.AperFunction,Conductor*%
%TO.N,+3V3*%
G36*
X166674039Y-69349685D02*
G01*
X166719794Y-69402489D01*
X166731000Y-69454000D01*
X166731000Y-70100000D01*
X170925000Y-70100000D01*
X170992039Y-70119685D01*
X171037794Y-70172489D01*
X171049000Y-70224000D01*
X171049000Y-71500000D01*
X171029315Y-71567039D01*
X170976511Y-71612794D01*
X170925000Y-71624000D01*
X166731000Y-71624000D01*
X166731000Y-76326000D01*
X166711315Y-76393039D01*
X166658511Y-76438794D01*
X166607000Y-76450000D01*
X163045000Y-76450000D01*
X162977961Y-76430315D01*
X162932206Y-76377511D01*
X162921000Y-76326000D01*
X162921000Y-69454000D01*
X162940685Y-69386961D01*
X162993489Y-69341206D01*
X163045000Y-69330000D01*
X166607000Y-69330000D01*
X166674039Y-69349685D01*
G37*
%TD.AperFunction*%
%TD*%
%TA.AperFunction,Conductor*%
%TO.N,VBUS*%
G36*
X173532039Y-67833685D02*
G01*
X173577794Y-67886489D01*
X173589000Y-67938000D01*
X173589000Y-70230000D01*
X173569315Y-70297039D01*
X173516511Y-70342794D01*
X173465000Y-70354000D01*
X171935000Y-70354000D01*
X171867961Y-70334315D01*
X171822206Y-70281511D01*
X171811000Y-70230000D01*
X171811000Y-69338000D01*
X169141000Y-69338000D01*
X169073961Y-69318315D01*
X169028206Y-69265511D01*
X169017000Y-69214000D01*
X169017000Y-67938000D01*
X169036685Y-67870961D01*
X169089489Y-67825206D01*
X169141000Y-67814000D01*
X173465000Y-67814000D01*
X173532039Y-67833685D01*
G37*
%TD.AperFunction*%
%TD*%
M02*
