%TF.GenerationSoftware,KiCad,Pcbnew,8.0.2*%
%TF.CreationDate,2024-05-29T18:12:24+12:00*%
%TF.ProjectId,microcontroller,6d696372-6f63-46f6-9e74-726f6c6c6572,0.1.0*%
%TF.SameCoordinates,Original*%
%TF.FileFunction,Legend,Top*%
%TF.FilePolarity,Positive*%
%FSLAX46Y46*%
G04 Gerber Fmt 4.6, Leading zero omitted, Abs format (unit mm)*
G04 Created by KiCad (PCBNEW 8.0.2) date 2024-05-29 18:12:24*
%MOMM*%
%LPD*%
G01*
G04 APERTURE LIST*
%ADD10C,0.153000*%
%ADD11C,0.120000*%
%ADD12C,0.300000*%
G04 APERTURE END LIST*
D10*
X125414942Y-103744663D02*
X124938752Y-103744663D01*
X124938752Y-103744663D02*
X124938752Y-102744663D01*
X125748276Y-103220853D02*
X126081609Y-103220853D01*
X126224466Y-103744663D02*
X125748276Y-103744663D01*
X125748276Y-103744663D02*
X125748276Y-102744663D01*
X125748276Y-102744663D02*
X126224466Y-102744663D01*
X126653038Y-103744663D02*
X126653038Y-102744663D01*
X126653038Y-102744663D02*
X126891133Y-102744663D01*
X126891133Y-102744663D02*
X127033990Y-102792282D01*
X127033990Y-102792282D02*
X127129228Y-102887520D01*
X127129228Y-102887520D02*
X127176847Y-102982758D01*
X127176847Y-102982758D02*
X127224466Y-103173234D01*
X127224466Y-103173234D02*
X127224466Y-103316091D01*
X127224466Y-103316091D02*
X127176847Y-103506567D01*
X127176847Y-103506567D02*
X127129228Y-103601805D01*
X127129228Y-103601805D02*
X127033990Y-103697044D01*
X127033990Y-103697044D02*
X126891133Y-103744663D01*
X126891133Y-103744663D02*
X126653038Y-103744663D01*
X161618752Y-82088710D02*
X162380657Y-82088710D01*
X164190180Y-82374424D02*
X164142561Y-82422044D01*
X164142561Y-82422044D02*
X163999704Y-82469663D01*
X163999704Y-82469663D02*
X163904466Y-82469663D01*
X163904466Y-82469663D02*
X163761609Y-82422044D01*
X163761609Y-82422044D02*
X163666371Y-82326805D01*
X163666371Y-82326805D02*
X163618752Y-82231567D01*
X163618752Y-82231567D02*
X163571133Y-82041091D01*
X163571133Y-82041091D02*
X163571133Y-81898234D01*
X163571133Y-81898234D02*
X163618752Y-81707758D01*
X163618752Y-81707758D02*
X163666371Y-81612520D01*
X163666371Y-81612520D02*
X163761609Y-81517282D01*
X163761609Y-81517282D02*
X163904466Y-81469663D01*
X163904466Y-81469663D02*
X163999704Y-81469663D01*
X163999704Y-81469663D02*
X164142561Y-81517282D01*
X164142561Y-81517282D02*
X164190180Y-81564901D01*
X165094942Y-82469663D02*
X164618752Y-82469663D01*
X164618752Y-82469663D02*
X164618752Y-81469663D01*
X165428276Y-82469663D02*
X165428276Y-81469663D01*
X165999704Y-82469663D02*
X165571133Y-81898234D01*
X165999704Y-81469663D02*
X165428276Y-82041091D01*
X167190181Y-82469663D02*
X167190181Y-81469663D01*
X167190181Y-81469663D02*
X167428276Y-81469663D01*
X167428276Y-81469663D02*
X167571133Y-81517282D01*
X167571133Y-81517282D02*
X167666371Y-81612520D01*
X167666371Y-81612520D02*
X167713990Y-81707758D01*
X167713990Y-81707758D02*
X167761609Y-81898234D01*
X167761609Y-81898234D02*
X167761609Y-82041091D01*
X167761609Y-82041091D02*
X167713990Y-82231567D01*
X167713990Y-82231567D02*
X167666371Y-82326805D01*
X167666371Y-82326805D02*
X167571133Y-82422044D01*
X167571133Y-82422044D02*
X167428276Y-82469663D01*
X167428276Y-82469663D02*
X167190181Y-82469663D01*
X168190181Y-82469663D02*
X168190181Y-81469663D01*
X168856847Y-81469663D02*
X169047323Y-81469663D01*
X169047323Y-81469663D02*
X169142561Y-81517282D01*
X169142561Y-81517282D02*
X169237799Y-81612520D01*
X169237799Y-81612520D02*
X169285418Y-81802996D01*
X169285418Y-81802996D02*
X169285418Y-82136329D01*
X169285418Y-82136329D02*
X169237799Y-82326805D01*
X169237799Y-82326805D02*
X169142561Y-82422044D01*
X169142561Y-82422044D02*
X169047323Y-82469663D01*
X169047323Y-82469663D02*
X168856847Y-82469663D01*
X168856847Y-82469663D02*
X168761609Y-82422044D01*
X168761609Y-82422044D02*
X168666371Y-82326805D01*
X168666371Y-82326805D02*
X168618752Y-82136329D01*
X168618752Y-82136329D02*
X168618752Y-81802996D01*
X168618752Y-81802996D02*
X168666371Y-81612520D01*
X168666371Y-81612520D02*
X168761609Y-81517282D01*
X168761609Y-81517282D02*
X168856847Y-81469663D01*
X170475895Y-82088710D02*
X171237800Y-82088710D01*
X170856847Y-82469663D02*
X170856847Y-81707758D01*
X150472085Y-83645853D02*
X150614942Y-83693472D01*
X150614942Y-83693472D02*
X150662561Y-83741091D01*
X150662561Y-83741091D02*
X150710180Y-83836329D01*
X150710180Y-83836329D02*
X150710180Y-83979186D01*
X150710180Y-83979186D02*
X150662561Y-84074424D01*
X150662561Y-84074424D02*
X150614942Y-84122044D01*
X150614942Y-84122044D02*
X150519704Y-84169663D01*
X150519704Y-84169663D02*
X150138752Y-84169663D01*
X150138752Y-84169663D02*
X150138752Y-83169663D01*
X150138752Y-83169663D02*
X150472085Y-83169663D01*
X150472085Y-83169663D02*
X150567323Y-83217282D01*
X150567323Y-83217282D02*
X150614942Y-83264901D01*
X150614942Y-83264901D02*
X150662561Y-83360139D01*
X150662561Y-83360139D02*
X150662561Y-83455377D01*
X150662561Y-83455377D02*
X150614942Y-83550615D01*
X150614942Y-83550615D02*
X150567323Y-83598234D01*
X150567323Y-83598234D02*
X150472085Y-83645853D01*
X150472085Y-83645853D02*
X150138752Y-83645853D01*
X151329228Y-83169663D02*
X151424466Y-83169663D01*
X151424466Y-83169663D02*
X151519704Y-83217282D01*
X151519704Y-83217282D02*
X151567323Y-83264901D01*
X151567323Y-83264901D02*
X151614942Y-83360139D01*
X151614942Y-83360139D02*
X151662561Y-83550615D01*
X151662561Y-83550615D02*
X151662561Y-83788710D01*
X151662561Y-83788710D02*
X151614942Y-83979186D01*
X151614942Y-83979186D02*
X151567323Y-84074424D01*
X151567323Y-84074424D02*
X151519704Y-84122044D01*
X151519704Y-84122044D02*
X151424466Y-84169663D01*
X151424466Y-84169663D02*
X151329228Y-84169663D01*
X151329228Y-84169663D02*
X151233990Y-84122044D01*
X151233990Y-84122044D02*
X151186371Y-84074424D01*
X151186371Y-84074424D02*
X151138752Y-83979186D01*
X151138752Y-83979186D02*
X151091133Y-83788710D01*
X151091133Y-83788710D02*
X151091133Y-83550615D01*
X151091133Y-83550615D02*
X151138752Y-83360139D01*
X151138752Y-83360139D02*
X151186371Y-83264901D01*
X151186371Y-83264901D02*
X151233990Y-83217282D01*
X151233990Y-83217282D02*
X151329228Y-83169663D01*
X173908424Y-71504857D02*
X173956044Y-71552476D01*
X173956044Y-71552476D02*
X174003663Y-71695333D01*
X174003663Y-71695333D02*
X174003663Y-71790571D01*
X174003663Y-71790571D02*
X173956044Y-71933428D01*
X173956044Y-71933428D02*
X173860805Y-72028666D01*
X173860805Y-72028666D02*
X173765567Y-72076285D01*
X173765567Y-72076285D02*
X173575091Y-72123904D01*
X173575091Y-72123904D02*
X173432234Y-72123904D01*
X173432234Y-72123904D02*
X173241758Y-72076285D01*
X173241758Y-72076285D02*
X173146520Y-72028666D01*
X173146520Y-72028666D02*
X173051282Y-71933428D01*
X173051282Y-71933428D02*
X173003663Y-71790571D01*
X173003663Y-71790571D02*
X173003663Y-71695333D01*
X173003663Y-71695333D02*
X173051282Y-71552476D01*
X173051282Y-71552476D02*
X173098901Y-71504857D01*
X174003663Y-70552476D02*
X174003663Y-71123904D01*
X174003663Y-70838190D02*
X173003663Y-70838190D01*
X173003663Y-70838190D02*
X173146520Y-70933428D01*
X173146520Y-70933428D02*
X173241758Y-71028666D01*
X173241758Y-71028666D02*
X173289377Y-71123904D01*
X173003663Y-69933428D02*
X173003663Y-69838190D01*
X173003663Y-69838190D02*
X173051282Y-69742952D01*
X173051282Y-69742952D02*
X173098901Y-69695333D01*
X173098901Y-69695333D02*
X173194139Y-69647714D01*
X173194139Y-69647714D02*
X173384615Y-69600095D01*
X173384615Y-69600095D02*
X173622710Y-69600095D01*
X173622710Y-69600095D02*
X173813186Y-69647714D01*
X173813186Y-69647714D02*
X173908424Y-69695333D01*
X173908424Y-69695333D02*
X173956044Y-69742952D01*
X173956044Y-69742952D02*
X174003663Y-69838190D01*
X174003663Y-69838190D02*
X174003663Y-69933428D01*
X174003663Y-69933428D02*
X173956044Y-70028666D01*
X173956044Y-70028666D02*
X173908424Y-70076285D01*
X173908424Y-70076285D02*
X173813186Y-70123904D01*
X173813186Y-70123904D02*
X173622710Y-70171523D01*
X173622710Y-70171523D02*
X173384615Y-70171523D01*
X173384615Y-70171523D02*
X173194139Y-70123904D01*
X173194139Y-70123904D02*
X173098901Y-70076285D01*
X173098901Y-70076285D02*
X173051282Y-70028666D01*
X173051282Y-70028666D02*
X173003663Y-69933428D01*
X127168095Y-87781463D02*
X127168095Y-88590986D01*
X127168095Y-88590986D02*
X127215714Y-88686224D01*
X127215714Y-88686224D02*
X127263333Y-88733844D01*
X127263333Y-88733844D02*
X127358571Y-88781463D01*
X127358571Y-88781463D02*
X127549047Y-88781463D01*
X127549047Y-88781463D02*
X127644285Y-88733844D01*
X127644285Y-88733844D02*
X127691904Y-88686224D01*
X127691904Y-88686224D02*
X127739523Y-88590986D01*
X127739523Y-88590986D02*
X127739523Y-87781463D01*
X128739523Y-88781463D02*
X128168095Y-88781463D01*
X128453809Y-88781463D02*
X128453809Y-87781463D01*
X128453809Y-87781463D02*
X128358571Y-87924320D01*
X128358571Y-87924320D02*
X128263333Y-88019558D01*
X128263333Y-88019558D02*
X128168095Y-88067177D01*
X148066666Y-66554663D02*
X148066666Y-67268948D01*
X148066666Y-67268948D02*
X148019047Y-67411805D01*
X148019047Y-67411805D02*
X147923809Y-67507044D01*
X147923809Y-67507044D02*
X147780952Y-67554663D01*
X147780952Y-67554663D02*
X147685714Y-67554663D01*
X148447619Y-66554663D02*
X149066666Y-66554663D01*
X149066666Y-66554663D02*
X148733333Y-66935615D01*
X148733333Y-66935615D02*
X148876190Y-66935615D01*
X148876190Y-66935615D02*
X148971428Y-66983234D01*
X148971428Y-66983234D02*
X149019047Y-67030853D01*
X149019047Y-67030853D02*
X149066666Y-67126091D01*
X149066666Y-67126091D02*
X149066666Y-67364186D01*
X149066666Y-67364186D02*
X149019047Y-67459424D01*
X149019047Y-67459424D02*
X148971428Y-67507044D01*
X148971428Y-67507044D02*
X148876190Y-67554663D01*
X148876190Y-67554663D02*
X148590476Y-67554663D01*
X148590476Y-67554663D02*
X148495238Y-67507044D01*
X148495238Y-67507044D02*
X148447619Y-67459424D01*
X152759424Y-89342857D02*
X152807044Y-89390476D01*
X152807044Y-89390476D02*
X152854663Y-89533333D01*
X152854663Y-89533333D02*
X152854663Y-89628571D01*
X152854663Y-89628571D02*
X152807044Y-89771428D01*
X152807044Y-89771428D02*
X152711805Y-89866666D01*
X152711805Y-89866666D02*
X152616567Y-89914285D01*
X152616567Y-89914285D02*
X152426091Y-89961904D01*
X152426091Y-89961904D02*
X152283234Y-89961904D01*
X152283234Y-89961904D02*
X152092758Y-89914285D01*
X152092758Y-89914285D02*
X151997520Y-89866666D01*
X151997520Y-89866666D02*
X151902282Y-89771428D01*
X151902282Y-89771428D02*
X151854663Y-89628571D01*
X151854663Y-89628571D02*
X151854663Y-89533333D01*
X151854663Y-89533333D02*
X151902282Y-89390476D01*
X151902282Y-89390476D02*
X151949901Y-89342857D01*
X152854663Y-88390476D02*
X152854663Y-88961904D01*
X152854663Y-88676190D02*
X151854663Y-88676190D01*
X151854663Y-88676190D02*
X151997520Y-88771428D01*
X151997520Y-88771428D02*
X152092758Y-88866666D01*
X152092758Y-88866666D02*
X152140377Y-88961904D01*
X151854663Y-88057142D02*
X151854663Y-87438095D01*
X151854663Y-87438095D02*
X152235615Y-87771428D01*
X152235615Y-87771428D02*
X152235615Y-87628571D01*
X152235615Y-87628571D02*
X152283234Y-87533333D01*
X152283234Y-87533333D02*
X152330853Y-87485714D01*
X152330853Y-87485714D02*
X152426091Y-87438095D01*
X152426091Y-87438095D02*
X152664186Y-87438095D01*
X152664186Y-87438095D02*
X152759424Y-87485714D01*
X152759424Y-87485714D02*
X152807044Y-87533333D01*
X152807044Y-87533333D02*
X152854663Y-87628571D01*
X152854663Y-87628571D02*
X152854663Y-87914285D01*
X152854663Y-87914285D02*
X152807044Y-88009523D01*
X152807044Y-88009523D02*
X152759424Y-88057142D01*
X135966667Y-89177044D02*
X136109524Y-89224663D01*
X136109524Y-89224663D02*
X136347619Y-89224663D01*
X136347619Y-89224663D02*
X136442857Y-89177044D01*
X136442857Y-89177044D02*
X136490476Y-89129424D01*
X136490476Y-89129424D02*
X136538095Y-89034186D01*
X136538095Y-89034186D02*
X136538095Y-88938948D01*
X136538095Y-88938948D02*
X136490476Y-88843710D01*
X136490476Y-88843710D02*
X136442857Y-88796091D01*
X136442857Y-88796091D02*
X136347619Y-88748472D01*
X136347619Y-88748472D02*
X136157143Y-88700853D01*
X136157143Y-88700853D02*
X136061905Y-88653234D01*
X136061905Y-88653234D02*
X136014286Y-88605615D01*
X136014286Y-88605615D02*
X135966667Y-88510377D01*
X135966667Y-88510377D02*
X135966667Y-88415139D01*
X135966667Y-88415139D02*
X136014286Y-88319901D01*
X136014286Y-88319901D02*
X136061905Y-88272282D01*
X136061905Y-88272282D02*
X136157143Y-88224663D01*
X136157143Y-88224663D02*
X136395238Y-88224663D01*
X136395238Y-88224663D02*
X136538095Y-88272282D01*
X136871429Y-88224663D02*
X137109524Y-89224663D01*
X137109524Y-89224663D02*
X137300000Y-88510377D01*
X137300000Y-88510377D02*
X137490476Y-89224663D01*
X137490476Y-89224663D02*
X137728572Y-88224663D01*
X138633333Y-89224663D02*
X138061905Y-89224663D01*
X138347619Y-89224663D02*
X138347619Y-88224663D01*
X138347619Y-88224663D02*
X138252381Y-88367520D01*
X138252381Y-88367520D02*
X138157143Y-88462758D01*
X138157143Y-88462758D02*
X138061905Y-88510377D01*
X156533333Y-82154663D02*
X156200000Y-81678472D01*
X155961905Y-82154663D02*
X155961905Y-81154663D01*
X155961905Y-81154663D02*
X156342857Y-81154663D01*
X156342857Y-81154663D02*
X156438095Y-81202282D01*
X156438095Y-81202282D02*
X156485714Y-81249901D01*
X156485714Y-81249901D02*
X156533333Y-81345139D01*
X156533333Y-81345139D02*
X156533333Y-81487996D01*
X156533333Y-81487996D02*
X156485714Y-81583234D01*
X156485714Y-81583234D02*
X156438095Y-81630853D01*
X156438095Y-81630853D02*
X156342857Y-81678472D01*
X156342857Y-81678472D02*
X155961905Y-81678472D01*
X156866667Y-81154663D02*
X157533333Y-81154663D01*
X157533333Y-81154663D02*
X157104762Y-82154663D01*
X127961905Y-100229663D02*
X127961905Y-99229663D01*
X127961905Y-99229663D02*
X128200000Y-99229663D01*
X128200000Y-99229663D02*
X128342857Y-99277282D01*
X128342857Y-99277282D02*
X128438095Y-99372520D01*
X128438095Y-99372520D02*
X128485714Y-99467758D01*
X128485714Y-99467758D02*
X128533333Y-99658234D01*
X128533333Y-99658234D02*
X128533333Y-99801091D01*
X128533333Y-99801091D02*
X128485714Y-99991567D01*
X128485714Y-99991567D02*
X128438095Y-100086805D01*
X128438095Y-100086805D02*
X128342857Y-100182044D01*
X128342857Y-100182044D02*
X128200000Y-100229663D01*
X128200000Y-100229663D02*
X127961905Y-100229663D01*
X129485714Y-100229663D02*
X128914286Y-100229663D01*
X129200000Y-100229663D02*
X129200000Y-99229663D01*
X129200000Y-99229663D02*
X129104762Y-99372520D01*
X129104762Y-99372520D02*
X129009524Y-99467758D01*
X129009524Y-99467758D02*
X128914286Y-99515377D01*
X162209142Y-76047424D02*
X162161523Y-76095044D01*
X162161523Y-76095044D02*
X162018666Y-76142663D01*
X162018666Y-76142663D02*
X161923428Y-76142663D01*
X161923428Y-76142663D02*
X161780571Y-76095044D01*
X161780571Y-76095044D02*
X161685333Y-75999805D01*
X161685333Y-75999805D02*
X161637714Y-75904567D01*
X161637714Y-75904567D02*
X161590095Y-75714091D01*
X161590095Y-75714091D02*
X161590095Y-75571234D01*
X161590095Y-75571234D02*
X161637714Y-75380758D01*
X161637714Y-75380758D02*
X161685333Y-75285520D01*
X161685333Y-75285520D02*
X161780571Y-75190282D01*
X161780571Y-75190282D02*
X161923428Y-75142663D01*
X161923428Y-75142663D02*
X162018666Y-75142663D01*
X162018666Y-75142663D02*
X162161523Y-75190282D01*
X162161523Y-75190282D02*
X162209142Y-75237901D01*
X163161523Y-76142663D02*
X162590095Y-76142663D01*
X162875809Y-76142663D02*
X162875809Y-75142663D01*
X162875809Y-75142663D02*
X162780571Y-75285520D01*
X162780571Y-75285520D02*
X162685333Y-75380758D01*
X162685333Y-75380758D02*
X162590095Y-75428377D01*
X164113904Y-76142663D02*
X163542476Y-76142663D01*
X163828190Y-76142663D02*
X163828190Y-75142663D01*
X163828190Y-75142663D02*
X163732952Y-75285520D01*
X163732952Y-75285520D02*
X163637714Y-75380758D01*
X163637714Y-75380758D02*
X163542476Y-75428377D01*
X134284663Y-95542857D02*
X133808472Y-95876190D01*
X134284663Y-96114285D02*
X133284663Y-96114285D01*
X133284663Y-96114285D02*
X133284663Y-95733333D01*
X133284663Y-95733333D02*
X133332282Y-95638095D01*
X133332282Y-95638095D02*
X133379901Y-95590476D01*
X133379901Y-95590476D02*
X133475139Y-95542857D01*
X133475139Y-95542857D02*
X133617996Y-95542857D01*
X133617996Y-95542857D02*
X133713234Y-95590476D01*
X133713234Y-95590476D02*
X133760853Y-95638095D01*
X133760853Y-95638095D02*
X133808472Y-95733333D01*
X133808472Y-95733333D02*
X133808472Y-96114285D01*
X134284663Y-94590476D02*
X134284663Y-95161904D01*
X134284663Y-94876190D02*
X133284663Y-94876190D01*
X133284663Y-94876190D02*
X133427520Y-94971428D01*
X133427520Y-94971428D02*
X133522758Y-95066666D01*
X133522758Y-95066666D02*
X133570377Y-95161904D01*
X134284663Y-93638095D02*
X134284663Y-94209523D01*
X134284663Y-93923809D02*
X133284663Y-93923809D01*
X133284663Y-93923809D02*
X133427520Y-94019047D01*
X133427520Y-94019047D02*
X133522758Y-94114285D01*
X133522758Y-94114285D02*
X133570377Y-94209523D01*
X147914663Y-101433333D02*
X148628948Y-101433333D01*
X148628948Y-101433333D02*
X148771805Y-101480952D01*
X148771805Y-101480952D02*
X148867044Y-101576190D01*
X148867044Y-101576190D02*
X148914663Y-101719047D01*
X148914663Y-101719047D02*
X148914663Y-101814285D01*
X148914663Y-100433333D02*
X148914663Y-101004761D01*
X148914663Y-100719047D02*
X147914663Y-100719047D01*
X147914663Y-100719047D02*
X148057520Y-100814285D01*
X148057520Y-100814285D02*
X148152758Y-100909523D01*
X148152758Y-100909523D02*
X148200377Y-101004761D01*
X168659424Y-89766666D02*
X168707044Y-89814285D01*
X168707044Y-89814285D02*
X168754663Y-89957142D01*
X168754663Y-89957142D02*
X168754663Y-90052380D01*
X168754663Y-90052380D02*
X168707044Y-90195237D01*
X168707044Y-90195237D02*
X168611805Y-90290475D01*
X168611805Y-90290475D02*
X168516567Y-90338094D01*
X168516567Y-90338094D02*
X168326091Y-90385713D01*
X168326091Y-90385713D02*
X168183234Y-90385713D01*
X168183234Y-90385713D02*
X167992758Y-90338094D01*
X167992758Y-90338094D02*
X167897520Y-90290475D01*
X167897520Y-90290475D02*
X167802282Y-90195237D01*
X167802282Y-90195237D02*
X167754663Y-90052380D01*
X167754663Y-90052380D02*
X167754663Y-89957142D01*
X167754663Y-89957142D02*
X167802282Y-89814285D01*
X167802282Y-89814285D02*
X167849901Y-89766666D01*
X167754663Y-88909523D02*
X167754663Y-89099999D01*
X167754663Y-89099999D02*
X167802282Y-89195237D01*
X167802282Y-89195237D02*
X167849901Y-89242856D01*
X167849901Y-89242856D02*
X167992758Y-89338094D01*
X167992758Y-89338094D02*
X168183234Y-89385713D01*
X168183234Y-89385713D02*
X168564186Y-89385713D01*
X168564186Y-89385713D02*
X168659424Y-89338094D01*
X168659424Y-89338094D02*
X168707044Y-89290475D01*
X168707044Y-89290475D02*
X168754663Y-89195237D01*
X168754663Y-89195237D02*
X168754663Y-89004761D01*
X168754663Y-89004761D02*
X168707044Y-88909523D01*
X168707044Y-88909523D02*
X168659424Y-88861904D01*
X168659424Y-88861904D02*
X168564186Y-88814285D01*
X168564186Y-88814285D02*
X168326091Y-88814285D01*
X168326091Y-88814285D02*
X168230853Y-88861904D01*
X168230853Y-88861904D02*
X168183234Y-88909523D01*
X168183234Y-88909523D02*
X168135615Y-89004761D01*
X168135615Y-89004761D02*
X168135615Y-89195237D01*
X168135615Y-89195237D02*
X168183234Y-89290475D01*
X168183234Y-89290475D02*
X168230853Y-89338094D01*
X168230853Y-89338094D02*
X168326091Y-89385713D01*
X152909333Y-76641663D02*
X152576000Y-76165472D01*
X152337905Y-76641663D02*
X152337905Y-75641663D01*
X152337905Y-75641663D02*
X152718857Y-75641663D01*
X152718857Y-75641663D02*
X152814095Y-75689282D01*
X152814095Y-75689282D02*
X152861714Y-75736901D01*
X152861714Y-75736901D02*
X152909333Y-75832139D01*
X152909333Y-75832139D02*
X152909333Y-75974996D01*
X152909333Y-75974996D02*
X152861714Y-76070234D01*
X152861714Y-76070234D02*
X152814095Y-76117853D01*
X152814095Y-76117853D02*
X152718857Y-76165472D01*
X152718857Y-76165472D02*
X152337905Y-76165472D01*
X153385524Y-76641663D02*
X153576000Y-76641663D01*
X153576000Y-76641663D02*
X153671238Y-76594044D01*
X153671238Y-76594044D02*
X153718857Y-76546424D01*
X153718857Y-76546424D02*
X153814095Y-76403567D01*
X153814095Y-76403567D02*
X153861714Y-76213091D01*
X153861714Y-76213091D02*
X153861714Y-75832139D01*
X153861714Y-75832139D02*
X153814095Y-75736901D01*
X153814095Y-75736901D02*
X153766476Y-75689282D01*
X153766476Y-75689282D02*
X153671238Y-75641663D01*
X153671238Y-75641663D02*
X153480762Y-75641663D01*
X153480762Y-75641663D02*
X153385524Y-75689282D01*
X153385524Y-75689282D02*
X153337905Y-75736901D01*
X153337905Y-75736901D02*
X153290286Y-75832139D01*
X153290286Y-75832139D02*
X153290286Y-76070234D01*
X153290286Y-76070234D02*
X153337905Y-76165472D01*
X153337905Y-76165472D02*
X153385524Y-76213091D01*
X153385524Y-76213091D02*
X153480762Y-76260710D01*
X153480762Y-76260710D02*
X153671238Y-76260710D01*
X153671238Y-76260710D02*
X153766476Y-76213091D01*
X153766476Y-76213091D02*
X153814095Y-76165472D01*
X153814095Y-76165472D02*
X153861714Y-76070234D01*
X122114285Y-76830853D02*
X122257142Y-76878472D01*
X122257142Y-76878472D02*
X122304761Y-76926091D01*
X122304761Y-76926091D02*
X122352380Y-77021329D01*
X122352380Y-77021329D02*
X122352380Y-77164186D01*
X122352380Y-77164186D02*
X122304761Y-77259424D01*
X122304761Y-77259424D02*
X122257142Y-77307044D01*
X122257142Y-77307044D02*
X122161904Y-77354663D01*
X122161904Y-77354663D02*
X121780952Y-77354663D01*
X121780952Y-77354663D02*
X121780952Y-76354663D01*
X121780952Y-76354663D02*
X122114285Y-76354663D01*
X122114285Y-76354663D02*
X122209523Y-76402282D01*
X122209523Y-76402282D02*
X122257142Y-76449901D01*
X122257142Y-76449901D02*
X122304761Y-76545139D01*
X122304761Y-76545139D02*
X122304761Y-76640377D01*
X122304761Y-76640377D02*
X122257142Y-76735615D01*
X122257142Y-76735615D02*
X122209523Y-76783234D01*
X122209523Y-76783234D02*
X122114285Y-76830853D01*
X122114285Y-76830853D02*
X121780952Y-76830853D01*
X122638095Y-76354663D02*
X123209523Y-76354663D01*
X122923809Y-77354663D02*
X122923809Y-76354663D01*
X124066666Y-77354663D02*
X123495238Y-77354663D01*
X123780952Y-77354663D02*
X123780952Y-76354663D01*
X123780952Y-76354663D02*
X123685714Y-76497520D01*
X123685714Y-76497520D02*
X123590476Y-76592758D01*
X123590476Y-76592758D02*
X123495238Y-76640377D01*
X155933333Y-93959424D02*
X155885714Y-94007044D01*
X155885714Y-94007044D02*
X155742857Y-94054663D01*
X155742857Y-94054663D02*
X155647619Y-94054663D01*
X155647619Y-94054663D02*
X155504762Y-94007044D01*
X155504762Y-94007044D02*
X155409524Y-93911805D01*
X155409524Y-93911805D02*
X155361905Y-93816567D01*
X155361905Y-93816567D02*
X155314286Y-93626091D01*
X155314286Y-93626091D02*
X155314286Y-93483234D01*
X155314286Y-93483234D02*
X155361905Y-93292758D01*
X155361905Y-93292758D02*
X155409524Y-93197520D01*
X155409524Y-93197520D02*
X155504762Y-93102282D01*
X155504762Y-93102282D02*
X155647619Y-93054663D01*
X155647619Y-93054663D02*
X155742857Y-93054663D01*
X155742857Y-93054663D02*
X155885714Y-93102282D01*
X155885714Y-93102282D02*
X155933333Y-93149901D01*
X156266667Y-93054663D02*
X156933333Y-93054663D01*
X156933333Y-93054663D02*
X156504762Y-94054663D01*
X170259424Y-89366666D02*
X170307044Y-89414285D01*
X170307044Y-89414285D02*
X170354663Y-89557142D01*
X170354663Y-89557142D02*
X170354663Y-89652380D01*
X170354663Y-89652380D02*
X170307044Y-89795237D01*
X170307044Y-89795237D02*
X170211805Y-89890475D01*
X170211805Y-89890475D02*
X170116567Y-89938094D01*
X170116567Y-89938094D02*
X169926091Y-89985713D01*
X169926091Y-89985713D02*
X169783234Y-89985713D01*
X169783234Y-89985713D02*
X169592758Y-89938094D01*
X169592758Y-89938094D02*
X169497520Y-89890475D01*
X169497520Y-89890475D02*
X169402282Y-89795237D01*
X169402282Y-89795237D02*
X169354663Y-89652380D01*
X169354663Y-89652380D02*
X169354663Y-89557142D01*
X169354663Y-89557142D02*
X169402282Y-89414285D01*
X169402282Y-89414285D02*
X169449901Y-89366666D01*
X169449901Y-88985713D02*
X169402282Y-88938094D01*
X169402282Y-88938094D02*
X169354663Y-88842856D01*
X169354663Y-88842856D02*
X169354663Y-88604761D01*
X169354663Y-88604761D02*
X169402282Y-88509523D01*
X169402282Y-88509523D02*
X169449901Y-88461904D01*
X169449901Y-88461904D02*
X169545139Y-88414285D01*
X169545139Y-88414285D02*
X169640377Y-88414285D01*
X169640377Y-88414285D02*
X169783234Y-88461904D01*
X169783234Y-88461904D02*
X170354663Y-89033332D01*
X170354663Y-89033332D02*
X170354663Y-88414285D01*
X122429424Y-90666666D02*
X122477044Y-90714285D01*
X122477044Y-90714285D02*
X122524663Y-90857142D01*
X122524663Y-90857142D02*
X122524663Y-90952380D01*
X122524663Y-90952380D02*
X122477044Y-91095237D01*
X122477044Y-91095237D02*
X122381805Y-91190475D01*
X122381805Y-91190475D02*
X122286567Y-91238094D01*
X122286567Y-91238094D02*
X122096091Y-91285713D01*
X122096091Y-91285713D02*
X121953234Y-91285713D01*
X121953234Y-91285713D02*
X121762758Y-91238094D01*
X121762758Y-91238094D02*
X121667520Y-91190475D01*
X121667520Y-91190475D02*
X121572282Y-91095237D01*
X121572282Y-91095237D02*
X121524663Y-90952380D01*
X121524663Y-90952380D02*
X121524663Y-90857142D01*
X121524663Y-90857142D02*
X121572282Y-90714285D01*
X121572282Y-90714285D02*
X121619901Y-90666666D01*
X122524663Y-89714285D02*
X122524663Y-90285713D01*
X122524663Y-89999999D02*
X121524663Y-89999999D01*
X121524663Y-89999999D02*
X121667520Y-90095237D01*
X121667520Y-90095237D02*
X121762758Y-90190475D01*
X121762758Y-90190475D02*
X121810377Y-90285713D01*
X152066666Y-96660853D02*
X151733333Y-96660853D01*
X151733333Y-97184663D02*
X151733333Y-96184663D01*
X151733333Y-96184663D02*
X152209523Y-96184663D01*
X152923809Y-96660853D02*
X153066666Y-96708472D01*
X153066666Y-96708472D02*
X153114285Y-96756091D01*
X153114285Y-96756091D02*
X153161904Y-96851329D01*
X153161904Y-96851329D02*
X153161904Y-96994186D01*
X153161904Y-96994186D02*
X153114285Y-97089424D01*
X153114285Y-97089424D02*
X153066666Y-97137044D01*
X153066666Y-97137044D02*
X152971428Y-97184663D01*
X152971428Y-97184663D02*
X152590476Y-97184663D01*
X152590476Y-97184663D02*
X152590476Y-96184663D01*
X152590476Y-96184663D02*
X152923809Y-96184663D01*
X152923809Y-96184663D02*
X153019047Y-96232282D01*
X153019047Y-96232282D02*
X153066666Y-96279901D01*
X153066666Y-96279901D02*
X153114285Y-96375139D01*
X153114285Y-96375139D02*
X153114285Y-96470377D01*
X153114285Y-96470377D02*
X153066666Y-96565615D01*
X153066666Y-96565615D02*
X153019047Y-96613234D01*
X153019047Y-96613234D02*
X152923809Y-96660853D01*
X152923809Y-96660853D02*
X152590476Y-96660853D01*
X154114285Y-97184663D02*
X153542857Y-97184663D01*
X153828571Y-97184663D02*
X153828571Y-96184663D01*
X153828571Y-96184663D02*
X153733333Y-96327520D01*
X153733333Y-96327520D02*
X153638095Y-96422758D01*
X153638095Y-96422758D02*
X153542857Y-96470377D01*
X156659424Y-88766666D02*
X156707044Y-88814285D01*
X156707044Y-88814285D02*
X156754663Y-88957142D01*
X156754663Y-88957142D02*
X156754663Y-89052380D01*
X156754663Y-89052380D02*
X156707044Y-89195237D01*
X156707044Y-89195237D02*
X156611805Y-89290475D01*
X156611805Y-89290475D02*
X156516567Y-89338094D01*
X156516567Y-89338094D02*
X156326091Y-89385713D01*
X156326091Y-89385713D02*
X156183234Y-89385713D01*
X156183234Y-89385713D02*
X155992758Y-89338094D01*
X155992758Y-89338094D02*
X155897520Y-89290475D01*
X155897520Y-89290475D02*
X155802282Y-89195237D01*
X155802282Y-89195237D02*
X155754663Y-89052380D01*
X155754663Y-89052380D02*
X155754663Y-88957142D01*
X155754663Y-88957142D02*
X155802282Y-88814285D01*
X155802282Y-88814285D02*
X155849901Y-88766666D01*
X155754663Y-87861904D02*
X155754663Y-88338094D01*
X155754663Y-88338094D02*
X156230853Y-88385713D01*
X156230853Y-88385713D02*
X156183234Y-88338094D01*
X156183234Y-88338094D02*
X156135615Y-88242856D01*
X156135615Y-88242856D02*
X156135615Y-88004761D01*
X156135615Y-88004761D02*
X156183234Y-87909523D01*
X156183234Y-87909523D02*
X156230853Y-87861904D01*
X156230853Y-87861904D02*
X156326091Y-87814285D01*
X156326091Y-87814285D02*
X156564186Y-87814285D01*
X156564186Y-87814285D02*
X156659424Y-87861904D01*
X156659424Y-87861904D02*
X156707044Y-87909523D01*
X156707044Y-87909523D02*
X156754663Y-88004761D01*
X156754663Y-88004761D02*
X156754663Y-88242856D01*
X156754663Y-88242856D02*
X156707044Y-88338094D01*
X156707044Y-88338094D02*
X156659424Y-88385713D01*
X155833333Y-97459424D02*
X155785714Y-97507044D01*
X155785714Y-97507044D02*
X155642857Y-97554663D01*
X155642857Y-97554663D02*
X155547619Y-97554663D01*
X155547619Y-97554663D02*
X155404762Y-97507044D01*
X155404762Y-97507044D02*
X155309524Y-97411805D01*
X155309524Y-97411805D02*
X155261905Y-97316567D01*
X155261905Y-97316567D02*
X155214286Y-97126091D01*
X155214286Y-97126091D02*
X155214286Y-96983234D01*
X155214286Y-96983234D02*
X155261905Y-96792758D01*
X155261905Y-96792758D02*
X155309524Y-96697520D01*
X155309524Y-96697520D02*
X155404762Y-96602282D01*
X155404762Y-96602282D02*
X155547619Y-96554663D01*
X155547619Y-96554663D02*
X155642857Y-96554663D01*
X155642857Y-96554663D02*
X155785714Y-96602282D01*
X155785714Y-96602282D02*
X155833333Y-96649901D01*
X156404762Y-96983234D02*
X156309524Y-96935615D01*
X156309524Y-96935615D02*
X156261905Y-96887996D01*
X156261905Y-96887996D02*
X156214286Y-96792758D01*
X156214286Y-96792758D02*
X156214286Y-96745139D01*
X156214286Y-96745139D02*
X156261905Y-96649901D01*
X156261905Y-96649901D02*
X156309524Y-96602282D01*
X156309524Y-96602282D02*
X156404762Y-96554663D01*
X156404762Y-96554663D02*
X156595238Y-96554663D01*
X156595238Y-96554663D02*
X156690476Y-96602282D01*
X156690476Y-96602282D02*
X156738095Y-96649901D01*
X156738095Y-96649901D02*
X156785714Y-96745139D01*
X156785714Y-96745139D02*
X156785714Y-96792758D01*
X156785714Y-96792758D02*
X156738095Y-96887996D01*
X156738095Y-96887996D02*
X156690476Y-96935615D01*
X156690476Y-96935615D02*
X156595238Y-96983234D01*
X156595238Y-96983234D02*
X156404762Y-96983234D01*
X156404762Y-96983234D02*
X156309524Y-97030853D01*
X156309524Y-97030853D02*
X156261905Y-97078472D01*
X156261905Y-97078472D02*
X156214286Y-97173710D01*
X156214286Y-97173710D02*
X156214286Y-97364186D01*
X156214286Y-97364186D02*
X156261905Y-97459424D01*
X156261905Y-97459424D02*
X156309524Y-97507044D01*
X156309524Y-97507044D02*
X156404762Y-97554663D01*
X156404762Y-97554663D02*
X156595238Y-97554663D01*
X156595238Y-97554663D02*
X156690476Y-97507044D01*
X156690476Y-97507044D02*
X156738095Y-97459424D01*
X156738095Y-97459424D02*
X156785714Y-97364186D01*
X156785714Y-97364186D02*
X156785714Y-97173710D01*
X156785714Y-97173710D02*
X156738095Y-97078472D01*
X156738095Y-97078472D02*
X156690476Y-97030853D01*
X156690476Y-97030853D02*
X156595238Y-96983234D01*
X171613333Y-92529663D02*
X171280000Y-92053472D01*
X171041905Y-92529663D02*
X171041905Y-91529663D01*
X171041905Y-91529663D02*
X171422857Y-91529663D01*
X171422857Y-91529663D02*
X171518095Y-91577282D01*
X171518095Y-91577282D02*
X171565714Y-91624901D01*
X171565714Y-91624901D02*
X171613333Y-91720139D01*
X171613333Y-91720139D02*
X171613333Y-91862996D01*
X171613333Y-91862996D02*
X171565714Y-91958234D01*
X171565714Y-91958234D02*
X171518095Y-92005853D01*
X171518095Y-92005853D02*
X171422857Y-92053472D01*
X171422857Y-92053472D02*
X171041905Y-92053472D01*
X172518095Y-91529663D02*
X172041905Y-91529663D01*
X172041905Y-91529663D02*
X171994286Y-92005853D01*
X171994286Y-92005853D02*
X172041905Y-91958234D01*
X172041905Y-91958234D02*
X172137143Y-91910615D01*
X172137143Y-91910615D02*
X172375238Y-91910615D01*
X172375238Y-91910615D02*
X172470476Y-91958234D01*
X172470476Y-91958234D02*
X172518095Y-92005853D01*
X172518095Y-92005853D02*
X172565714Y-92101091D01*
X172565714Y-92101091D02*
X172565714Y-92339186D01*
X172565714Y-92339186D02*
X172518095Y-92434424D01*
X172518095Y-92434424D02*
X172470476Y-92482044D01*
X172470476Y-92482044D02*
X172375238Y-92529663D01*
X172375238Y-92529663D02*
X172137143Y-92529663D01*
X172137143Y-92529663D02*
X172041905Y-92482044D01*
X172041905Y-92482044D02*
X171994286Y-92434424D01*
X134254663Y-92442857D02*
X133778472Y-92776190D01*
X134254663Y-93014285D02*
X133254663Y-93014285D01*
X133254663Y-93014285D02*
X133254663Y-92633333D01*
X133254663Y-92633333D02*
X133302282Y-92538095D01*
X133302282Y-92538095D02*
X133349901Y-92490476D01*
X133349901Y-92490476D02*
X133445139Y-92442857D01*
X133445139Y-92442857D02*
X133587996Y-92442857D01*
X133587996Y-92442857D02*
X133683234Y-92490476D01*
X133683234Y-92490476D02*
X133730853Y-92538095D01*
X133730853Y-92538095D02*
X133778472Y-92633333D01*
X133778472Y-92633333D02*
X133778472Y-93014285D01*
X134254663Y-91490476D02*
X134254663Y-92061904D01*
X134254663Y-91776190D02*
X133254663Y-91776190D01*
X133254663Y-91776190D02*
X133397520Y-91871428D01*
X133397520Y-91871428D02*
X133492758Y-91966666D01*
X133492758Y-91966666D02*
X133540377Y-92061904D01*
X133349901Y-91109523D02*
X133302282Y-91061904D01*
X133302282Y-91061904D02*
X133254663Y-90966666D01*
X133254663Y-90966666D02*
X133254663Y-90728571D01*
X133254663Y-90728571D02*
X133302282Y-90633333D01*
X133302282Y-90633333D02*
X133349901Y-90585714D01*
X133349901Y-90585714D02*
X133445139Y-90538095D01*
X133445139Y-90538095D02*
X133540377Y-90538095D01*
X133540377Y-90538095D02*
X133683234Y-90585714D01*
X133683234Y-90585714D02*
X134254663Y-91157142D01*
X134254663Y-91157142D02*
X134254663Y-90538095D01*
X140883333Y-98154663D02*
X140550000Y-97678472D01*
X140311905Y-98154663D02*
X140311905Y-97154663D01*
X140311905Y-97154663D02*
X140692857Y-97154663D01*
X140692857Y-97154663D02*
X140788095Y-97202282D01*
X140788095Y-97202282D02*
X140835714Y-97249901D01*
X140835714Y-97249901D02*
X140883333Y-97345139D01*
X140883333Y-97345139D02*
X140883333Y-97487996D01*
X140883333Y-97487996D02*
X140835714Y-97583234D01*
X140835714Y-97583234D02*
X140788095Y-97630853D01*
X140788095Y-97630853D02*
X140692857Y-97678472D01*
X140692857Y-97678472D02*
X140311905Y-97678472D01*
X141264286Y-97249901D02*
X141311905Y-97202282D01*
X141311905Y-97202282D02*
X141407143Y-97154663D01*
X141407143Y-97154663D02*
X141645238Y-97154663D01*
X141645238Y-97154663D02*
X141740476Y-97202282D01*
X141740476Y-97202282D02*
X141788095Y-97249901D01*
X141788095Y-97249901D02*
X141835714Y-97345139D01*
X141835714Y-97345139D02*
X141835714Y-97440377D01*
X141835714Y-97440377D02*
X141788095Y-97583234D01*
X141788095Y-97583234D02*
X141216667Y-98154663D01*
X141216667Y-98154663D02*
X141835714Y-98154663D01*
X171032095Y-67816663D02*
X171032095Y-68626186D01*
X171032095Y-68626186D02*
X171079714Y-68721424D01*
X171079714Y-68721424D02*
X171127333Y-68769044D01*
X171127333Y-68769044D02*
X171222571Y-68816663D01*
X171222571Y-68816663D02*
X171413047Y-68816663D01*
X171413047Y-68816663D02*
X171508285Y-68769044D01*
X171508285Y-68769044D02*
X171555904Y-68721424D01*
X171555904Y-68721424D02*
X171603523Y-68626186D01*
X171603523Y-68626186D02*
X171603523Y-67816663D01*
X172032095Y-67911901D02*
X172079714Y-67864282D01*
X172079714Y-67864282D02*
X172174952Y-67816663D01*
X172174952Y-67816663D02*
X172413047Y-67816663D01*
X172413047Y-67816663D02*
X172508285Y-67864282D01*
X172508285Y-67864282D02*
X172555904Y-67911901D01*
X172555904Y-67911901D02*
X172603523Y-68007139D01*
X172603523Y-68007139D02*
X172603523Y-68102377D01*
X172603523Y-68102377D02*
X172555904Y-68245234D01*
X172555904Y-68245234D02*
X171984476Y-68816663D01*
X171984476Y-68816663D02*
X172603523Y-68816663D01*
X164723333Y-97629424D02*
X164675714Y-97677044D01*
X164675714Y-97677044D02*
X164532857Y-97724663D01*
X164532857Y-97724663D02*
X164437619Y-97724663D01*
X164437619Y-97724663D02*
X164294762Y-97677044D01*
X164294762Y-97677044D02*
X164199524Y-97581805D01*
X164199524Y-97581805D02*
X164151905Y-97486567D01*
X164151905Y-97486567D02*
X164104286Y-97296091D01*
X164104286Y-97296091D02*
X164104286Y-97153234D01*
X164104286Y-97153234D02*
X164151905Y-96962758D01*
X164151905Y-96962758D02*
X164199524Y-96867520D01*
X164199524Y-96867520D02*
X164294762Y-96772282D01*
X164294762Y-96772282D02*
X164437619Y-96724663D01*
X164437619Y-96724663D02*
X164532857Y-96724663D01*
X164532857Y-96724663D02*
X164675714Y-96772282D01*
X164675714Y-96772282D02*
X164723333Y-96819901D01*
X165056667Y-96724663D02*
X165675714Y-96724663D01*
X165675714Y-96724663D02*
X165342381Y-97105615D01*
X165342381Y-97105615D02*
X165485238Y-97105615D01*
X165485238Y-97105615D02*
X165580476Y-97153234D01*
X165580476Y-97153234D02*
X165628095Y-97200853D01*
X165628095Y-97200853D02*
X165675714Y-97296091D01*
X165675714Y-97296091D02*
X165675714Y-97534186D01*
X165675714Y-97534186D02*
X165628095Y-97629424D01*
X165628095Y-97629424D02*
X165580476Y-97677044D01*
X165580476Y-97677044D02*
X165485238Y-97724663D01*
X165485238Y-97724663D02*
X165199524Y-97724663D01*
X165199524Y-97724663D02*
X165104286Y-97677044D01*
X165104286Y-97677044D02*
X165056667Y-97629424D01*
X153458333Y-82124663D02*
X153125000Y-81648472D01*
X152886905Y-82124663D02*
X152886905Y-81124663D01*
X152886905Y-81124663D02*
X153267857Y-81124663D01*
X153267857Y-81124663D02*
X153363095Y-81172282D01*
X153363095Y-81172282D02*
X153410714Y-81219901D01*
X153410714Y-81219901D02*
X153458333Y-81315139D01*
X153458333Y-81315139D02*
X153458333Y-81457996D01*
X153458333Y-81457996D02*
X153410714Y-81553234D01*
X153410714Y-81553234D02*
X153363095Y-81600853D01*
X153363095Y-81600853D02*
X153267857Y-81648472D01*
X153267857Y-81648472D02*
X152886905Y-81648472D01*
X154029762Y-81553234D02*
X153934524Y-81505615D01*
X153934524Y-81505615D02*
X153886905Y-81457996D01*
X153886905Y-81457996D02*
X153839286Y-81362758D01*
X153839286Y-81362758D02*
X153839286Y-81315139D01*
X153839286Y-81315139D02*
X153886905Y-81219901D01*
X153886905Y-81219901D02*
X153934524Y-81172282D01*
X153934524Y-81172282D02*
X154029762Y-81124663D01*
X154029762Y-81124663D02*
X154220238Y-81124663D01*
X154220238Y-81124663D02*
X154315476Y-81172282D01*
X154315476Y-81172282D02*
X154363095Y-81219901D01*
X154363095Y-81219901D02*
X154410714Y-81315139D01*
X154410714Y-81315139D02*
X154410714Y-81362758D01*
X154410714Y-81362758D02*
X154363095Y-81457996D01*
X154363095Y-81457996D02*
X154315476Y-81505615D01*
X154315476Y-81505615D02*
X154220238Y-81553234D01*
X154220238Y-81553234D02*
X154029762Y-81553234D01*
X154029762Y-81553234D02*
X153934524Y-81600853D01*
X153934524Y-81600853D02*
X153886905Y-81648472D01*
X153886905Y-81648472D02*
X153839286Y-81743710D01*
X153839286Y-81743710D02*
X153839286Y-81934186D01*
X153839286Y-81934186D02*
X153886905Y-82029424D01*
X153886905Y-82029424D02*
X153934524Y-82077044D01*
X153934524Y-82077044D02*
X154029762Y-82124663D01*
X154029762Y-82124663D02*
X154220238Y-82124663D01*
X154220238Y-82124663D02*
X154315476Y-82077044D01*
X154315476Y-82077044D02*
X154363095Y-82029424D01*
X154363095Y-82029424D02*
X154410714Y-81934186D01*
X154410714Y-81934186D02*
X154410714Y-81743710D01*
X154410714Y-81743710D02*
X154363095Y-81648472D01*
X154363095Y-81648472D02*
X154315476Y-81600853D01*
X154315476Y-81600853D02*
X154220238Y-81553234D01*
X158933333Y-82029424D02*
X158885714Y-82077044D01*
X158885714Y-82077044D02*
X158742857Y-82124663D01*
X158742857Y-82124663D02*
X158647619Y-82124663D01*
X158647619Y-82124663D02*
X158504762Y-82077044D01*
X158504762Y-82077044D02*
X158409524Y-81981805D01*
X158409524Y-81981805D02*
X158361905Y-81886567D01*
X158361905Y-81886567D02*
X158314286Y-81696091D01*
X158314286Y-81696091D02*
X158314286Y-81553234D01*
X158314286Y-81553234D02*
X158361905Y-81362758D01*
X158361905Y-81362758D02*
X158409524Y-81267520D01*
X158409524Y-81267520D02*
X158504762Y-81172282D01*
X158504762Y-81172282D02*
X158647619Y-81124663D01*
X158647619Y-81124663D02*
X158742857Y-81124663D01*
X158742857Y-81124663D02*
X158885714Y-81172282D01*
X158885714Y-81172282D02*
X158933333Y-81219901D01*
X159790476Y-81457996D02*
X159790476Y-82124663D01*
X159552381Y-81077044D02*
X159314286Y-81791329D01*
X159314286Y-81791329D02*
X159933333Y-81791329D01*
X139716667Y-89177044D02*
X139859524Y-89224663D01*
X139859524Y-89224663D02*
X140097619Y-89224663D01*
X140097619Y-89224663D02*
X140192857Y-89177044D01*
X140192857Y-89177044D02*
X140240476Y-89129424D01*
X140240476Y-89129424D02*
X140288095Y-89034186D01*
X140288095Y-89034186D02*
X140288095Y-88938948D01*
X140288095Y-88938948D02*
X140240476Y-88843710D01*
X140240476Y-88843710D02*
X140192857Y-88796091D01*
X140192857Y-88796091D02*
X140097619Y-88748472D01*
X140097619Y-88748472D02*
X139907143Y-88700853D01*
X139907143Y-88700853D02*
X139811905Y-88653234D01*
X139811905Y-88653234D02*
X139764286Y-88605615D01*
X139764286Y-88605615D02*
X139716667Y-88510377D01*
X139716667Y-88510377D02*
X139716667Y-88415139D01*
X139716667Y-88415139D02*
X139764286Y-88319901D01*
X139764286Y-88319901D02*
X139811905Y-88272282D01*
X139811905Y-88272282D02*
X139907143Y-88224663D01*
X139907143Y-88224663D02*
X140145238Y-88224663D01*
X140145238Y-88224663D02*
X140288095Y-88272282D01*
X140621429Y-88224663D02*
X140859524Y-89224663D01*
X140859524Y-89224663D02*
X141050000Y-88510377D01*
X141050000Y-88510377D02*
X141240476Y-89224663D01*
X141240476Y-89224663D02*
X141478572Y-88224663D01*
X141811905Y-88319901D02*
X141859524Y-88272282D01*
X141859524Y-88272282D02*
X141954762Y-88224663D01*
X141954762Y-88224663D02*
X142192857Y-88224663D01*
X142192857Y-88224663D02*
X142288095Y-88272282D01*
X142288095Y-88272282D02*
X142335714Y-88319901D01*
X142335714Y-88319901D02*
X142383333Y-88415139D01*
X142383333Y-88415139D02*
X142383333Y-88510377D01*
X142383333Y-88510377D02*
X142335714Y-88653234D01*
X142335714Y-88653234D02*
X141764286Y-89224663D01*
X141764286Y-89224663D02*
X142383333Y-89224663D01*
X137133333Y-98154663D02*
X136800000Y-97678472D01*
X136561905Y-98154663D02*
X136561905Y-97154663D01*
X136561905Y-97154663D02*
X136942857Y-97154663D01*
X136942857Y-97154663D02*
X137038095Y-97202282D01*
X137038095Y-97202282D02*
X137085714Y-97249901D01*
X137085714Y-97249901D02*
X137133333Y-97345139D01*
X137133333Y-97345139D02*
X137133333Y-97487996D01*
X137133333Y-97487996D02*
X137085714Y-97583234D01*
X137085714Y-97583234D02*
X137038095Y-97630853D01*
X137038095Y-97630853D02*
X136942857Y-97678472D01*
X136942857Y-97678472D02*
X136561905Y-97678472D01*
X138085714Y-98154663D02*
X137514286Y-98154663D01*
X137800000Y-98154663D02*
X137800000Y-97154663D01*
X137800000Y-97154663D02*
X137704762Y-97297520D01*
X137704762Y-97297520D02*
X137609524Y-97392758D01*
X137609524Y-97392758D02*
X137514286Y-97440377D01*
X157438095Y-84054663D02*
X157438095Y-84864186D01*
X157438095Y-84864186D02*
X157485714Y-84959424D01*
X157485714Y-84959424D02*
X157533333Y-85007044D01*
X157533333Y-85007044D02*
X157628571Y-85054663D01*
X157628571Y-85054663D02*
X157819047Y-85054663D01*
X157819047Y-85054663D02*
X157914285Y-85007044D01*
X157914285Y-85007044D02*
X157961904Y-84959424D01*
X157961904Y-84959424D02*
X158009523Y-84864186D01*
X158009523Y-84864186D02*
X158009523Y-84054663D01*
X158390476Y-84054663D02*
X159009523Y-84054663D01*
X159009523Y-84054663D02*
X158676190Y-84435615D01*
X158676190Y-84435615D02*
X158819047Y-84435615D01*
X158819047Y-84435615D02*
X158914285Y-84483234D01*
X158914285Y-84483234D02*
X158961904Y-84530853D01*
X158961904Y-84530853D02*
X159009523Y-84626091D01*
X159009523Y-84626091D02*
X159009523Y-84864186D01*
X159009523Y-84864186D02*
X158961904Y-84959424D01*
X158961904Y-84959424D02*
X158914285Y-85007044D01*
X158914285Y-85007044D02*
X158819047Y-85054663D01*
X158819047Y-85054663D02*
X158533333Y-85054663D01*
X158533333Y-85054663D02*
X158438095Y-85007044D01*
X158438095Y-85007044D02*
X158390476Y-84959424D01*
X168694663Y-93011666D02*
X168218472Y-93344999D01*
X168694663Y-93583094D02*
X167694663Y-93583094D01*
X167694663Y-93583094D02*
X167694663Y-93202142D01*
X167694663Y-93202142D02*
X167742282Y-93106904D01*
X167742282Y-93106904D02*
X167789901Y-93059285D01*
X167789901Y-93059285D02*
X167885139Y-93011666D01*
X167885139Y-93011666D02*
X168027996Y-93011666D01*
X168027996Y-93011666D02*
X168123234Y-93059285D01*
X168123234Y-93059285D02*
X168170853Y-93106904D01*
X168170853Y-93106904D02*
X168218472Y-93202142D01*
X168218472Y-93202142D02*
X168218472Y-93583094D01*
X168027996Y-92154523D02*
X168694663Y-92154523D01*
X167647044Y-92392618D02*
X168361329Y-92630713D01*
X168361329Y-92630713D02*
X168361329Y-92011666D01*
X130858333Y-101699663D02*
X130525000Y-101223472D01*
X130286905Y-101699663D02*
X130286905Y-100699663D01*
X130286905Y-100699663D02*
X130667857Y-100699663D01*
X130667857Y-100699663D02*
X130763095Y-100747282D01*
X130763095Y-100747282D02*
X130810714Y-100794901D01*
X130810714Y-100794901D02*
X130858333Y-100890139D01*
X130858333Y-100890139D02*
X130858333Y-101032996D01*
X130858333Y-101032996D02*
X130810714Y-101128234D01*
X130810714Y-101128234D02*
X130763095Y-101175853D01*
X130763095Y-101175853D02*
X130667857Y-101223472D01*
X130667857Y-101223472D02*
X130286905Y-101223472D01*
X131715476Y-100699663D02*
X131525000Y-100699663D01*
X131525000Y-100699663D02*
X131429762Y-100747282D01*
X131429762Y-100747282D02*
X131382143Y-100794901D01*
X131382143Y-100794901D02*
X131286905Y-100937758D01*
X131286905Y-100937758D02*
X131239286Y-101128234D01*
X131239286Y-101128234D02*
X131239286Y-101509186D01*
X131239286Y-101509186D02*
X131286905Y-101604424D01*
X131286905Y-101604424D02*
X131334524Y-101652044D01*
X131334524Y-101652044D02*
X131429762Y-101699663D01*
X131429762Y-101699663D02*
X131620238Y-101699663D01*
X131620238Y-101699663D02*
X131715476Y-101652044D01*
X131715476Y-101652044D02*
X131763095Y-101604424D01*
X131763095Y-101604424D02*
X131810714Y-101509186D01*
X131810714Y-101509186D02*
X131810714Y-101271091D01*
X131810714Y-101271091D02*
X131763095Y-101175853D01*
X131763095Y-101175853D02*
X131715476Y-101128234D01*
X131715476Y-101128234D02*
X131620238Y-101080615D01*
X131620238Y-101080615D02*
X131429762Y-101080615D01*
X131429762Y-101080615D02*
X131334524Y-101128234D01*
X131334524Y-101128234D02*
X131286905Y-101175853D01*
X131286905Y-101175853D02*
X131239286Y-101271091D01*
X149633333Y-97089424D02*
X149585714Y-97137044D01*
X149585714Y-97137044D02*
X149442857Y-97184663D01*
X149442857Y-97184663D02*
X149347619Y-97184663D01*
X149347619Y-97184663D02*
X149204762Y-97137044D01*
X149204762Y-97137044D02*
X149109524Y-97041805D01*
X149109524Y-97041805D02*
X149061905Y-96946567D01*
X149061905Y-96946567D02*
X149014286Y-96756091D01*
X149014286Y-96756091D02*
X149014286Y-96613234D01*
X149014286Y-96613234D02*
X149061905Y-96422758D01*
X149061905Y-96422758D02*
X149109524Y-96327520D01*
X149109524Y-96327520D02*
X149204762Y-96232282D01*
X149204762Y-96232282D02*
X149347619Y-96184663D01*
X149347619Y-96184663D02*
X149442857Y-96184663D01*
X149442857Y-96184663D02*
X149585714Y-96232282D01*
X149585714Y-96232282D02*
X149633333Y-96279901D01*
X150109524Y-97184663D02*
X150300000Y-97184663D01*
X150300000Y-97184663D02*
X150395238Y-97137044D01*
X150395238Y-97137044D02*
X150442857Y-97089424D01*
X150442857Y-97089424D02*
X150538095Y-96946567D01*
X150538095Y-96946567D02*
X150585714Y-96756091D01*
X150585714Y-96756091D02*
X150585714Y-96375139D01*
X150585714Y-96375139D02*
X150538095Y-96279901D01*
X150538095Y-96279901D02*
X150490476Y-96232282D01*
X150490476Y-96232282D02*
X150395238Y-96184663D01*
X150395238Y-96184663D02*
X150204762Y-96184663D01*
X150204762Y-96184663D02*
X150109524Y-96232282D01*
X150109524Y-96232282D02*
X150061905Y-96279901D01*
X150061905Y-96279901D02*
X150014286Y-96375139D01*
X150014286Y-96375139D02*
X150014286Y-96613234D01*
X150014286Y-96613234D02*
X150061905Y-96708472D01*
X150061905Y-96708472D02*
X150109524Y-96756091D01*
X150109524Y-96756091D02*
X150204762Y-96803710D01*
X150204762Y-96803710D02*
X150395238Y-96803710D01*
X150395238Y-96803710D02*
X150490476Y-96756091D01*
X150490476Y-96756091D02*
X150538095Y-96708472D01*
X150538095Y-96708472D02*
X150585714Y-96613234D01*
X144583333Y-98154663D02*
X144250000Y-97678472D01*
X144011905Y-98154663D02*
X144011905Y-97154663D01*
X144011905Y-97154663D02*
X144392857Y-97154663D01*
X144392857Y-97154663D02*
X144488095Y-97202282D01*
X144488095Y-97202282D02*
X144535714Y-97249901D01*
X144535714Y-97249901D02*
X144583333Y-97345139D01*
X144583333Y-97345139D02*
X144583333Y-97487996D01*
X144583333Y-97487996D02*
X144535714Y-97583234D01*
X144535714Y-97583234D02*
X144488095Y-97630853D01*
X144488095Y-97630853D02*
X144392857Y-97678472D01*
X144392857Y-97678472D02*
X144011905Y-97678472D01*
X144916667Y-97154663D02*
X145535714Y-97154663D01*
X145535714Y-97154663D02*
X145202381Y-97535615D01*
X145202381Y-97535615D02*
X145345238Y-97535615D01*
X145345238Y-97535615D02*
X145440476Y-97583234D01*
X145440476Y-97583234D02*
X145488095Y-97630853D01*
X145488095Y-97630853D02*
X145535714Y-97726091D01*
X145535714Y-97726091D02*
X145535714Y-97964186D01*
X145535714Y-97964186D02*
X145488095Y-98059424D01*
X145488095Y-98059424D02*
X145440476Y-98107044D01*
X145440476Y-98107044D02*
X145345238Y-98154663D01*
X145345238Y-98154663D02*
X145059524Y-98154663D01*
X145059524Y-98154663D02*
X144964286Y-98107044D01*
X144964286Y-98107044D02*
X144916667Y-98059424D01*
X159957142Y-95459424D02*
X159909523Y-95507044D01*
X159909523Y-95507044D02*
X159766666Y-95554663D01*
X159766666Y-95554663D02*
X159671428Y-95554663D01*
X159671428Y-95554663D02*
X159528571Y-95507044D01*
X159528571Y-95507044D02*
X159433333Y-95411805D01*
X159433333Y-95411805D02*
X159385714Y-95316567D01*
X159385714Y-95316567D02*
X159338095Y-95126091D01*
X159338095Y-95126091D02*
X159338095Y-94983234D01*
X159338095Y-94983234D02*
X159385714Y-94792758D01*
X159385714Y-94792758D02*
X159433333Y-94697520D01*
X159433333Y-94697520D02*
X159528571Y-94602282D01*
X159528571Y-94602282D02*
X159671428Y-94554663D01*
X159671428Y-94554663D02*
X159766666Y-94554663D01*
X159766666Y-94554663D02*
X159909523Y-94602282D01*
X159909523Y-94602282D02*
X159957142Y-94649901D01*
X160909523Y-95554663D02*
X160338095Y-95554663D01*
X160623809Y-95554663D02*
X160623809Y-94554663D01*
X160623809Y-94554663D02*
X160528571Y-94697520D01*
X160528571Y-94697520D02*
X160433333Y-94792758D01*
X160433333Y-94792758D02*
X160338095Y-94840377D01*
X161290476Y-94649901D02*
X161338095Y-94602282D01*
X161338095Y-94602282D02*
X161433333Y-94554663D01*
X161433333Y-94554663D02*
X161671428Y-94554663D01*
X161671428Y-94554663D02*
X161766666Y-94602282D01*
X161766666Y-94602282D02*
X161814285Y-94649901D01*
X161814285Y-94649901D02*
X161861904Y-94745139D01*
X161861904Y-94745139D02*
X161861904Y-94840377D01*
X161861904Y-94840377D02*
X161814285Y-94983234D01*
X161814285Y-94983234D02*
X161242857Y-95554663D01*
X161242857Y-95554663D02*
X161861904Y-95554663D01*
X152759424Y-92942857D02*
X152807044Y-92990476D01*
X152807044Y-92990476D02*
X152854663Y-93133333D01*
X152854663Y-93133333D02*
X152854663Y-93228571D01*
X152854663Y-93228571D02*
X152807044Y-93371428D01*
X152807044Y-93371428D02*
X152711805Y-93466666D01*
X152711805Y-93466666D02*
X152616567Y-93514285D01*
X152616567Y-93514285D02*
X152426091Y-93561904D01*
X152426091Y-93561904D02*
X152283234Y-93561904D01*
X152283234Y-93561904D02*
X152092758Y-93514285D01*
X152092758Y-93514285D02*
X151997520Y-93466666D01*
X151997520Y-93466666D02*
X151902282Y-93371428D01*
X151902282Y-93371428D02*
X151854663Y-93228571D01*
X151854663Y-93228571D02*
X151854663Y-93133333D01*
X151854663Y-93133333D02*
X151902282Y-92990476D01*
X151902282Y-92990476D02*
X151949901Y-92942857D01*
X152854663Y-91990476D02*
X152854663Y-92561904D01*
X152854663Y-92276190D02*
X151854663Y-92276190D01*
X151854663Y-92276190D02*
X151997520Y-92371428D01*
X151997520Y-92371428D02*
X152092758Y-92466666D01*
X152092758Y-92466666D02*
X152140377Y-92561904D01*
X152187996Y-91133333D02*
X152854663Y-91133333D01*
X151807044Y-91371428D02*
X152521329Y-91609523D01*
X152521329Y-91609523D02*
X152521329Y-90990476D01*
X148923809Y-91928472D02*
X148923809Y-92404663D01*
X148590476Y-91404663D02*
X148923809Y-91928472D01*
X148923809Y-91928472D02*
X149257142Y-91404663D01*
X150114285Y-92404663D02*
X149542857Y-92404663D01*
X149828571Y-92404663D02*
X149828571Y-91404663D01*
X149828571Y-91404663D02*
X149733333Y-91547520D01*
X149733333Y-91547520D02*
X149638095Y-91642758D01*
X149638095Y-91642758D02*
X149542857Y-91690377D01*
X156657142Y-76754663D02*
X156323809Y-76278472D01*
X156085714Y-76754663D02*
X156085714Y-75754663D01*
X156085714Y-75754663D02*
X156466666Y-75754663D01*
X156466666Y-75754663D02*
X156561904Y-75802282D01*
X156561904Y-75802282D02*
X156609523Y-75849901D01*
X156609523Y-75849901D02*
X156657142Y-75945139D01*
X156657142Y-75945139D02*
X156657142Y-76087996D01*
X156657142Y-76087996D02*
X156609523Y-76183234D01*
X156609523Y-76183234D02*
X156561904Y-76230853D01*
X156561904Y-76230853D02*
X156466666Y-76278472D01*
X156466666Y-76278472D02*
X156085714Y-76278472D01*
X157609523Y-76754663D02*
X157038095Y-76754663D01*
X157323809Y-76754663D02*
X157323809Y-75754663D01*
X157323809Y-75754663D02*
X157228571Y-75897520D01*
X157228571Y-75897520D02*
X157133333Y-75992758D01*
X157133333Y-75992758D02*
X157038095Y-76040377D01*
X158228571Y-75754663D02*
X158323809Y-75754663D01*
X158323809Y-75754663D02*
X158419047Y-75802282D01*
X158419047Y-75802282D02*
X158466666Y-75849901D01*
X158466666Y-75849901D02*
X158514285Y-75945139D01*
X158514285Y-75945139D02*
X158561904Y-76135615D01*
X158561904Y-76135615D02*
X158561904Y-76373710D01*
X158561904Y-76373710D02*
X158514285Y-76564186D01*
X158514285Y-76564186D02*
X158466666Y-76659424D01*
X158466666Y-76659424D02*
X158419047Y-76707044D01*
X158419047Y-76707044D02*
X158323809Y-76754663D01*
X158323809Y-76754663D02*
X158228571Y-76754663D01*
X158228571Y-76754663D02*
X158133333Y-76707044D01*
X158133333Y-76707044D02*
X158085714Y-76659424D01*
X158085714Y-76659424D02*
X158038095Y-76564186D01*
X158038095Y-76564186D02*
X157990476Y-76373710D01*
X157990476Y-76373710D02*
X157990476Y-76135615D01*
X157990476Y-76135615D02*
X158038095Y-75945139D01*
X158038095Y-75945139D02*
X158085714Y-75849901D01*
X158085714Y-75849901D02*
X158133333Y-75802282D01*
X158133333Y-75802282D02*
X158228571Y-75754663D01*
X143416667Y-89177044D02*
X143559524Y-89224663D01*
X143559524Y-89224663D02*
X143797619Y-89224663D01*
X143797619Y-89224663D02*
X143892857Y-89177044D01*
X143892857Y-89177044D02*
X143940476Y-89129424D01*
X143940476Y-89129424D02*
X143988095Y-89034186D01*
X143988095Y-89034186D02*
X143988095Y-88938948D01*
X143988095Y-88938948D02*
X143940476Y-88843710D01*
X143940476Y-88843710D02*
X143892857Y-88796091D01*
X143892857Y-88796091D02*
X143797619Y-88748472D01*
X143797619Y-88748472D02*
X143607143Y-88700853D01*
X143607143Y-88700853D02*
X143511905Y-88653234D01*
X143511905Y-88653234D02*
X143464286Y-88605615D01*
X143464286Y-88605615D02*
X143416667Y-88510377D01*
X143416667Y-88510377D02*
X143416667Y-88415139D01*
X143416667Y-88415139D02*
X143464286Y-88319901D01*
X143464286Y-88319901D02*
X143511905Y-88272282D01*
X143511905Y-88272282D02*
X143607143Y-88224663D01*
X143607143Y-88224663D02*
X143845238Y-88224663D01*
X143845238Y-88224663D02*
X143988095Y-88272282D01*
X144321429Y-88224663D02*
X144559524Y-89224663D01*
X144559524Y-89224663D02*
X144750000Y-88510377D01*
X144750000Y-88510377D02*
X144940476Y-89224663D01*
X144940476Y-89224663D02*
X145178572Y-88224663D01*
X145464286Y-88224663D02*
X146083333Y-88224663D01*
X146083333Y-88224663D02*
X145750000Y-88605615D01*
X145750000Y-88605615D02*
X145892857Y-88605615D01*
X145892857Y-88605615D02*
X145988095Y-88653234D01*
X145988095Y-88653234D02*
X146035714Y-88700853D01*
X146035714Y-88700853D02*
X146083333Y-88796091D01*
X146083333Y-88796091D02*
X146083333Y-89034186D01*
X146083333Y-89034186D02*
X146035714Y-89129424D01*
X146035714Y-89129424D02*
X145988095Y-89177044D01*
X145988095Y-89177044D02*
X145892857Y-89224663D01*
X145892857Y-89224663D02*
X145607143Y-89224663D01*
X145607143Y-89224663D02*
X145511905Y-89177044D01*
X145511905Y-89177044D02*
X145464286Y-89129424D01*
D11*
%TO.C,C10*%
X171134000Y-70600748D02*
X171134000Y-71123252D01*
X172604000Y-70600748D02*
X172604000Y-71123252D01*
%TO.C,U1*%
D12*
X125615000Y-89499200D02*
G75*
G02*
X125315000Y-89499200I-150000J0D01*
G01*
X125315000Y-89499200D02*
G75*
G02*
X125615000Y-89499200I150000J0D01*
G01*
D11*
%TO.C,J3*%
X149930000Y-68690000D02*
X149930000Y-70390000D01*
X159270000Y-68690000D02*
X159270000Y-70390000D01*
%TO.C,C13*%
X153390000Y-89340580D02*
X153390000Y-89059420D01*
X154410000Y-89340580D02*
X154410000Y-89059420D01*
%TO.C,SW1*%
X135970000Y-89770000D02*
X137300000Y-89770000D01*
X135970000Y-91100000D02*
X135970000Y-89770000D01*
X135970000Y-92370000D02*
X135970000Y-94970000D01*
X135970000Y-92370000D02*
X138630000Y-92370000D01*
X135970000Y-94970000D02*
X138630000Y-94970000D01*
X138630000Y-92370000D02*
X138630000Y-94970000D01*
%TO.C,R7*%
X156937258Y-82577500D02*
X156462742Y-82577500D01*
X156937258Y-83622500D02*
X156462742Y-83622500D01*
%TO.C,J4*%
X161530000Y-81030000D02*
X161530000Y-79700000D01*
X162860000Y-81030000D02*
X161530000Y-81030000D01*
X164130000Y-78370000D02*
X171810000Y-78370000D01*
X164130000Y-81030000D02*
X164130000Y-78370000D01*
X164130000Y-81030000D02*
X171810000Y-81030000D01*
X171810000Y-81030000D02*
X171810000Y-78370000D01*
%TO.C,D1*%
X127965000Y-101062500D02*
X127965000Y-103347500D01*
X127965000Y-103347500D02*
X129435000Y-103347500D01*
X129435000Y-103347500D02*
X129435000Y-101062500D01*
%TO.C,C11*%
X165892748Y-74953000D02*
X166415252Y-74953000D01*
X165892748Y-76423000D02*
X166415252Y-76423000D01*
%TO.C,R11*%
X131877500Y-94662742D02*
X131877500Y-95137258D01*
X132922500Y-94662742D02*
X132922500Y-95137258D01*
%TO.C,JP1*%
X124670000Y-97170000D02*
X126000000Y-97170000D01*
X124670000Y-98500000D02*
X124670000Y-97170000D01*
X124670000Y-99770000D02*
X124670000Y-102370000D01*
X124670000Y-99770000D02*
X127330000Y-99770000D01*
X124670000Y-102370000D02*
X127330000Y-102370000D01*
X127330000Y-99770000D02*
X127330000Y-102370000D01*
%TO.C,J1*%
X134640000Y-99770000D02*
X134640000Y-102430000D01*
X144860000Y-99770000D02*
X134640000Y-99770000D01*
X144860000Y-99770000D02*
X144860000Y-102430000D01*
X144860000Y-102430000D02*
X134640000Y-102430000D01*
X146130000Y-99770000D02*
X147460000Y-99770000D01*
X147460000Y-99770000D02*
X147460000Y-101100000D01*
%TO.C,C6*%
X167790000Y-86459420D02*
X167790000Y-86740580D01*
X168810000Y-86459420D02*
X168810000Y-86740580D01*
%TO.C,R9*%
X152838742Y-74267500D02*
X153313258Y-74267500D01*
X152838742Y-75312500D02*
X153313258Y-75312500D01*
%TO.C,C7*%
X155790000Y-91259420D02*
X155790000Y-91540580D01*
X156810000Y-91259420D02*
X156810000Y-91540580D01*
%TO.C,C2*%
X169390000Y-86459420D02*
X169390000Y-86740580D01*
X170410000Y-86459420D02*
X170410000Y-86740580D01*
%TO.C,J2*%
X175070000Y-96030000D02*
X175070000Y-73110000D01*
X177730000Y-73110000D02*
X175070000Y-73110000D01*
X177730000Y-96030000D02*
X175070000Y-96030000D01*
X177730000Y-96030000D02*
X177730000Y-73110000D01*
X177730000Y-97300000D02*
X177730000Y-98630000D01*
X177730000Y-98630000D02*
X176400000Y-98630000D01*
%TO.C,C1*%
X122990000Y-90640580D02*
X122990000Y-90359420D01*
X124010000Y-90640580D02*
X124010000Y-90359420D01*
%TO.C,FB1*%
X153062779Y-94790000D02*
X152737221Y-94790000D01*
X153062779Y-95810000D02*
X152737221Y-95810000D01*
%TO.C,C5*%
X155790000Y-85740580D02*
X155790000Y-85459420D01*
X156810000Y-85740580D02*
X156810000Y-85459420D01*
%TO.C,C8*%
X155859420Y-94790000D02*
X156140580Y-94790000D01*
X155859420Y-95810000D02*
X156140580Y-95810000D01*
%TO.C,R5*%
X170380000Y-92875000D02*
X173180000Y-92875000D01*
X170380000Y-97075000D02*
X173180000Y-97075000D01*
X170380000Y-97075000D02*
G75*
G02*
X170393963Y-92865758I1400000J2100000D01*
G01*
X173180000Y-92875000D02*
G75*
G02*
X173166037Y-97084242I-1400000J-2100000D01*
G01*
%TO.C,R12*%
X131877500Y-92037258D02*
X131877500Y-91562742D01*
X132922500Y-92037258D02*
X132922500Y-91562742D01*
%TO.C,JP2*%
X149730000Y-87130000D02*
X149730000Y-85800000D01*
X151060000Y-87130000D02*
X149730000Y-87130000D01*
X152330000Y-84470000D02*
X154930000Y-84470000D01*
X152330000Y-87130000D02*
X152330000Y-84470000D01*
X152330000Y-87130000D02*
X154930000Y-87130000D01*
X154930000Y-87130000D02*
X154930000Y-84470000D01*
%TO.C,R2*%
X140812742Y-95777500D02*
X141287258Y-95777500D01*
X140812742Y-96822500D02*
X141287258Y-96822500D01*
%TO.C,U2*%
X164244000Y-67452000D02*
X164244000Y-68712000D01*
X164244000Y-74272000D02*
X164244000Y-73012000D01*
X168004000Y-67452000D02*
X164244000Y-67452000D01*
X168004000Y-74272000D02*
X164244000Y-74272000D01*
X169524000Y-74502000D02*
X169044000Y-74502000D01*
X169284000Y-74172000D01*
X169524000Y-74502000D01*
G36*
X169524000Y-74502000D02*
G01*
X169044000Y-74502000D01*
X169284000Y-74172000D01*
X169524000Y-74502000D01*
G37*
%TO.C,C3*%
X165040580Y-94590000D02*
X164759420Y-94590000D01*
X165040580Y-95610000D02*
X164759420Y-95610000D01*
%TO.C,R8*%
X153387742Y-82577500D02*
X153862258Y-82577500D01*
X153387742Y-83622500D02*
X153862258Y-83622500D01*
%TO.C,C4*%
X159659420Y-82590000D02*
X159940580Y-82590000D01*
X159659420Y-83610000D02*
X159940580Y-83610000D01*
%TO.C,SW2*%
X139720000Y-89770000D02*
X141050000Y-89770000D01*
X139720000Y-91100000D02*
X139720000Y-89770000D01*
X139720000Y-92370000D02*
X139720000Y-94970000D01*
X139720000Y-92370000D02*
X142380000Y-92370000D01*
X139720000Y-94970000D02*
X142380000Y-94970000D01*
X142380000Y-92370000D02*
X142380000Y-94970000D01*
%TO.C,R1*%
X137062742Y-95777500D02*
X137537258Y-95777500D01*
X137062742Y-96822500D02*
X137537258Y-96822500D01*
%TO.C,U3*%
X158690000Y-85490000D02*
X158690000Y-85940000D01*
X158690000Y-92710000D02*
X158690000Y-92260000D01*
X159140000Y-85490000D02*
X158690000Y-85490000D01*
X159140000Y-92710000D02*
X158690000Y-92710000D01*
X165460000Y-85490000D02*
X165910000Y-85490000D01*
X165460000Y-92710000D02*
X165910000Y-92710000D01*
X165910000Y-85490000D02*
X165910000Y-85940000D01*
X165910000Y-92710000D02*
X165910000Y-92260000D01*
X158100000Y-85940000D02*
X157760000Y-85470000D01*
X158440000Y-85470000D01*
X158100000Y-85940000D01*
G36*
X158100000Y-85940000D02*
G01*
X157760000Y-85470000D01*
X158440000Y-85470000D01*
X158100000Y-85940000D01*
G37*
%TO.C,R4*%
X167717500Y-96032258D02*
X167717500Y-95557742D01*
X168762500Y-96032258D02*
X168762500Y-95557742D01*
%TO.C,R6*%
X130787742Y-102152500D02*
X131262258Y-102152500D01*
X130787742Y-103197500D02*
X131262258Y-103197500D01*
%TO.C,C9*%
X149940580Y-94790000D02*
X149659420Y-94790000D01*
X149940580Y-95810000D02*
X149659420Y-95810000D01*
%TO.C,R3*%
X144512742Y-95777500D02*
X144987258Y-95777500D01*
X144512742Y-96822500D02*
X144987258Y-96822500D01*
%TO.C,C12*%
X157790000Y-94359420D02*
X157790000Y-94640580D01*
X158810000Y-94359420D02*
X158810000Y-94640580D01*
%TO.C,C14*%
X153390000Y-92159420D02*
X153390000Y-92440580D01*
X154410000Y-92159420D02*
X154410000Y-92440580D01*
%TO.C,Y1*%
X151400000Y-87850000D02*
X147400000Y-87850000D01*
X151400000Y-91150000D02*
X151400000Y-87850000D01*
%TO.C,R10*%
X156361258Y-74267500D02*
X155886742Y-74267500D01*
X156361258Y-75312500D02*
X155886742Y-75312500D01*
%TO.C,SW3*%
X143420000Y-89770000D02*
X144750000Y-89770000D01*
X143420000Y-91100000D02*
X143420000Y-89770000D01*
X143420000Y-92370000D02*
X143420000Y-94970000D01*
X143420000Y-92370000D02*
X146080000Y-92370000D01*
X143420000Y-94970000D02*
X146080000Y-94970000D01*
X146080000Y-92370000D02*
X146080000Y-94970000D01*
%TD*%
M02*
