%TF.GenerationSoftware,KiCad,Pcbnew,8.0.2*%
%TF.CreationDate,2024-05-29T18:12:24+12:00*%
%TF.ProjectId,microcontroller,6d696372-6f63-46f6-9e74-726f6c6c6572,0.1.0*%
%TF.SameCoordinates,Original*%
%TF.FileFunction,Copper,L2,Bot*%
%TF.FilePolarity,Positive*%
%FSLAX46Y46*%
G04 Gerber Fmt 4.6, Leading zero omitted, Abs format (unit mm)*
G04 Created by KiCad (PCBNEW 8.0.2) date 2024-05-29 18:12:24*
%MOMM*%
%LPD*%
G01*
G04 APERTURE LIST*
%TA.AperFunction,ComponentPad*%
%ADD10O,1.100000X1.700000*%
%TD*%
%TA.AperFunction,ComponentPad*%
%ADD11R,1.700000X1.700000*%
%TD*%
%TA.AperFunction,ComponentPad*%
%ADD12O,1.700000X1.700000*%
%TD*%
%TA.AperFunction,ComponentPad*%
%ADD13C,2.600000*%
%TD*%
%TA.AperFunction,ComponentPad*%
%ADD14C,1.600000*%
%TD*%
%TA.AperFunction,ViaPad*%
%ADD15C,0.600000*%
%TD*%
%TA.AperFunction,ViaPad*%
%ADD16C,1.600000*%
%TD*%
%TA.AperFunction,ViaPad*%
%ADD17C,1.000000*%
%TD*%
%TA.AperFunction,Conductor*%
%ADD18C,0.300000*%
%TD*%
%TA.AperFunction,Conductor*%
%ADD19C,0.130000*%
%TD*%
G04 APERTURE END LIST*
D10*
%TO.P,J3,S1,SHIELD*%
%TO.N,unconnected-(J3-SHIELD-PadS1)*%
X158920000Y-71440000D03*
%TO.N,unconnected-(J3-SHIELD-PadS1)_1*%
X158920000Y-67640000D03*
%TO.N,unconnected-(J3-SHIELD-PadS1)_2*%
X150280000Y-71440000D03*
%TO.N,unconnected-(J3-SHIELD-PadS1)_0*%
X150280000Y-67640000D03*
%TD*%
D11*
%TO.P,SW1,1,A*%
%TO.N,+3V3*%
X137300000Y-91100000D03*
D12*
%TO.P,SW1,2,B*%
%TO.N,POWER_SW*%
X137300000Y-93640000D03*
%TD*%
D11*
%TO.P,J4,1,Pin_1*%
%TO.N,GND*%
X162860000Y-79700000D03*
D12*
%TO.P,J4,2,Pin_2*%
%TO.N,/SWCLK*%
X165400000Y-79700000D03*
%TO.P,J4,3,Pin_3*%
%TO.N,/SWDIO*%
X167940000Y-79700000D03*
%TO.P,J4,4,Pin_4*%
%TO.N,+3V3*%
X170480000Y-79700000D03*
%TD*%
D11*
%TO.P,JP1,1,A*%
%TO.N,+3V3*%
X126000000Y-98500000D03*
D12*
%TO.P,JP1,2,B*%
%TO.N,/PWR_LED_A*%
X126000000Y-101040000D03*
%TD*%
D11*
%TO.P,J1,1,Pin_1*%
%TO.N,GND*%
X146130000Y-101100000D03*
D12*
%TO.P,J1,2,Pin_2*%
%TO.N,SECOND_SW_H*%
X143590000Y-101100000D03*
%TO.P,J1,3,Pin_3*%
%TO.N,MINUTE_SW_H*%
X141050000Y-101100000D03*
%TO.P,J1,4,Pin_4*%
%TO.N,HOUR_SW_H*%
X138510000Y-101100000D03*
%TO.P,J1,5,Pin_5*%
%TO.N,+3V3*%
X135970000Y-101100000D03*
%TD*%
D13*
%TO.P,BT1,1,+*%
%TO.N,+BATT*%
X125950000Y-77000000D03*
X147050000Y-77000000D03*
%TD*%
D11*
%TO.P,J2,1,Pin_1*%
%TO.N,GND*%
X176400000Y-97300000D03*
D12*
%TO.P,J2,2,Pin_2*%
X176400000Y-94760000D03*
%TO.P,J2,3,Pin_3*%
X176400000Y-92220000D03*
%TO.P,J2,4,Pin_4*%
%TO.N,LATCH*%
X176400000Y-89680000D03*
%TO.P,J2,5,Pin_5*%
%TO.N,CLK*%
X176400000Y-87140000D03*
%TO.P,J2,6,Pin_6*%
%TO.N,OE*%
X176400000Y-84600000D03*
%TO.P,J2,7,Pin_7*%
%TO.N,SER*%
X176400000Y-82060000D03*
%TO.P,J2,8,Pin_8*%
%TO.N,+3V3*%
X176400000Y-79520000D03*
%TO.P,J2,9,Pin_9*%
%TO.N,VBUS*%
X176400000Y-76980000D03*
%TO.P,J2,10,Pin_10*%
X176400000Y-74440000D03*
%TD*%
D14*
%TO.P,R5,1*%
%TO.N,LDR*%
X170280000Y-94975000D03*
%TO.P,R5,2*%
%TO.N,GND*%
X173280000Y-94975000D03*
%TD*%
D11*
%TO.P,JP2,1,A*%
%TO.N,+3V3*%
X151060000Y-85800000D03*
D12*
%TO.P,JP2,2,B*%
%TO.N,/JMP_BOOT0*%
X153600000Y-85800000D03*
%TD*%
D11*
%TO.P,SW2,1,A*%
%TO.N,+3V3*%
X141050000Y-91100000D03*
D12*
%TO.P,SW2,2,B*%
%TO.N,MODE_SW*%
X141050000Y-93640000D03*
%TD*%
D11*
%TO.P,SW3,1,A*%
%TO.N,+3V3*%
X144750000Y-91100000D03*
D12*
%TO.P,SW3,2,B*%
%TO.N,ADJUST_SW*%
X144750000Y-93640000D03*
%TD*%
D15*
%TO.N,GND*%
X135700000Y-96300000D03*
D16*
X171234000Y-75434000D03*
D15*
X143200000Y-96300000D03*
X151800000Y-90300000D03*
X147200000Y-88600000D03*
X152000000Y-83100000D03*
X156800000Y-96100000D03*
X130400000Y-89500000D03*
D16*
X157394000Y-73012000D03*
D17*
X170900000Y-87300000D03*
D16*
X151806000Y-73012000D03*
D15*
X158300000Y-96100000D03*
X157700000Y-74800000D03*
X132600000Y-102700000D03*
D17*
X160500000Y-82100000D03*
D16*
X151806000Y-69964000D03*
D15*
X153900000Y-93900000D03*
X155500000Y-84800000D03*
X139500000Y-96300000D03*
X157000000Y-89700000D03*
D17*
X164100000Y-96100000D03*
D15*
X151500000Y-74800000D03*
D16*
X171234000Y-73402000D03*
X130000000Y-84500000D03*
D15*
X148200000Y-95300000D03*
X153900000Y-87600000D03*
X123500000Y-88900000D03*
D16*
X169202000Y-75434000D03*
D15*
X157100000Y-92400000D03*
%TO.N,+3V3*%
X129500000Y-98500000D03*
X131500000Y-97500000D03*
%TO.N,/NRST*%
X158200000Y-92700000D03*
X159400000Y-90600000D03*
%TO.N,USB_CC2*%
X155400000Y-79100000D03*
X153900000Y-77600000D03*
X162200000Y-86300000D03*
X162200000Y-83600000D03*
%TO.N,USB_CC1*%
X155500000Y-76700000D03*
X163100000Y-86400000D03*
X163100000Y-83600000D03*
X156100000Y-78400000D03*
%TD*%
D18*
%TO.N,+3V3*%
X129500000Y-98500000D02*
X130500000Y-98500000D01*
X130500000Y-98500000D02*
X131500000Y-97500000D01*
D19*
%TO.N,/NRST*%
X159400000Y-91500000D02*
X158200000Y-92700000D01*
X159400000Y-90600000D02*
X159400000Y-91500000D01*
%TO.N,USB_CC2*%
X155400000Y-79100000D02*
X153900000Y-77600000D01*
X162200000Y-86300000D02*
X162200000Y-83600000D01*
%TO.N,USB_CC1*%
X155500000Y-77800000D02*
X155500000Y-76700000D01*
X156100000Y-78400000D02*
X155500000Y-77800000D01*
X163100000Y-86400000D02*
X163100000Y-83600000D01*
%TD*%
%TA.AperFunction,Conductor*%
%TO.N,GND*%
G36*
X149603190Y-66320185D02*
G01*
X149648945Y-66372989D01*
X149658889Y-66442147D01*
X149629864Y-66505703D01*
X149614817Y-66520352D01*
X149610344Y-66524022D01*
X149464024Y-66670342D01*
X149349058Y-66842403D01*
X149269870Y-67033579D01*
X149269868Y-67033587D01*
X149229500Y-67236530D01*
X149229500Y-68043469D01*
X149269868Y-68246412D01*
X149269870Y-68246420D01*
X149349058Y-68437596D01*
X149464024Y-68609657D01*
X149610342Y-68755975D01*
X149610345Y-68755977D01*
X149782402Y-68870941D01*
X149973580Y-68950130D01*
X150176530Y-68990499D01*
X150176534Y-68990500D01*
X150176535Y-68990500D01*
X150383466Y-68990500D01*
X150383467Y-68990499D01*
X150586420Y-68950130D01*
X150777598Y-68870941D01*
X150949655Y-68755977D01*
X151095977Y-68609655D01*
X151210941Y-68437598D01*
X151290130Y-68246420D01*
X151330500Y-68043465D01*
X151330500Y-67236535D01*
X151290130Y-67033580D01*
X151210941Y-66842402D01*
X151095977Y-66670345D01*
X151095975Y-66670342D01*
X150949655Y-66524022D01*
X150945183Y-66520352D01*
X150905849Y-66462606D01*
X150903980Y-66392762D01*
X150940168Y-66332994D01*
X151002924Y-66302278D01*
X151023849Y-66300500D01*
X158176151Y-66300500D01*
X158243190Y-66320185D01*
X158288945Y-66372989D01*
X158298889Y-66442147D01*
X158269864Y-66505703D01*
X158254817Y-66520352D01*
X158250344Y-66524022D01*
X158104024Y-66670342D01*
X157989058Y-66842403D01*
X157909870Y-67033579D01*
X157909868Y-67033587D01*
X157869500Y-67236530D01*
X157869500Y-68043469D01*
X157909868Y-68246412D01*
X157909870Y-68246420D01*
X157989058Y-68437596D01*
X158104024Y-68609657D01*
X158250342Y-68755975D01*
X158250345Y-68755977D01*
X158422402Y-68870941D01*
X158613580Y-68950130D01*
X158816530Y-68990499D01*
X158816534Y-68990500D01*
X158816535Y-68990500D01*
X159023466Y-68990500D01*
X159023467Y-68990499D01*
X159226420Y-68950130D01*
X159417598Y-68870941D01*
X159589655Y-68755977D01*
X159735977Y-68609655D01*
X159850941Y-68437598D01*
X159930130Y-68246420D01*
X159970500Y-68043465D01*
X159970500Y-67236535D01*
X159930130Y-67033580D01*
X159850941Y-66842402D01*
X159735977Y-66670345D01*
X159735975Y-66670342D01*
X159589655Y-66524022D01*
X159585183Y-66520352D01*
X159545849Y-66462606D01*
X159543980Y-66392762D01*
X159580168Y-66332994D01*
X159642924Y-66302278D01*
X159663849Y-66300500D01*
X181952405Y-66300500D01*
X181996949Y-66300500D01*
X182003032Y-66300648D01*
X182356532Y-66318015D01*
X182368640Y-66319208D01*
X182440518Y-66329870D01*
X182715717Y-66370692D01*
X182727635Y-66373062D01*
X183068008Y-66458321D01*
X183079646Y-66461852D01*
X183409996Y-66580054D01*
X183421237Y-66584710D01*
X183646857Y-66691419D01*
X183738433Y-66734731D01*
X183749150Y-66740459D01*
X184050102Y-66920843D01*
X184060217Y-66927601D01*
X184342049Y-67136622D01*
X184351455Y-67144342D01*
X184611436Y-67379974D01*
X184620025Y-67388563D01*
X184781782Y-67567035D01*
X184855657Y-67648544D01*
X184863377Y-67657950D01*
X185072396Y-67939779D01*
X185079156Y-67949897D01*
X185256885Y-68246420D01*
X185259533Y-68250837D01*
X185265270Y-68261570D01*
X185415289Y-68578762D01*
X185419945Y-68590003D01*
X185538147Y-68920353D01*
X185541680Y-68931998D01*
X185626934Y-69272351D01*
X185629308Y-69284287D01*
X185680791Y-69631359D01*
X185681984Y-69643468D01*
X185699351Y-69996966D01*
X185699500Y-70003051D01*
X185699500Y-100996948D01*
X185699351Y-101003033D01*
X185681984Y-101356531D01*
X185680791Y-101368640D01*
X185629308Y-101715712D01*
X185626934Y-101727648D01*
X185541680Y-102068001D01*
X185538147Y-102079646D01*
X185419945Y-102409996D01*
X185415289Y-102421237D01*
X185265270Y-102738429D01*
X185259533Y-102749162D01*
X185079156Y-103050102D01*
X185072396Y-103060220D01*
X184863377Y-103342049D01*
X184855657Y-103351455D01*
X184620033Y-103611428D01*
X184611428Y-103620033D01*
X184351455Y-103855657D01*
X184342049Y-103863377D01*
X184060220Y-104072396D01*
X184050102Y-104079156D01*
X183749162Y-104259533D01*
X183738429Y-104265270D01*
X183421237Y-104415289D01*
X183409996Y-104419945D01*
X183079646Y-104538147D01*
X183068001Y-104541680D01*
X182727648Y-104626934D01*
X182715712Y-104629308D01*
X182368640Y-104680791D01*
X182356531Y-104681984D01*
X182023016Y-104698369D01*
X182003031Y-104699351D01*
X181996949Y-104699500D01*
X120003051Y-104699500D01*
X119996968Y-104699351D01*
X119975811Y-104698311D01*
X119643468Y-104681984D01*
X119631359Y-104680791D01*
X119284287Y-104629308D01*
X119272351Y-104626934D01*
X118931998Y-104541680D01*
X118920353Y-104538147D01*
X118590003Y-104419945D01*
X118578762Y-104415289D01*
X118261570Y-104265270D01*
X118250842Y-104259535D01*
X117949897Y-104079156D01*
X117939779Y-104072396D01*
X117657950Y-103863377D01*
X117648544Y-103855657D01*
X117532295Y-103750296D01*
X117388563Y-103620025D01*
X117379974Y-103611436D01*
X117144342Y-103351455D01*
X117136622Y-103342049D01*
X116927603Y-103060220D01*
X116920843Y-103050102D01*
X116831174Y-102900498D01*
X116740459Y-102749150D01*
X116734729Y-102738429D01*
X116584710Y-102421237D01*
X116580054Y-102409996D01*
X116461852Y-102079646D01*
X116458319Y-102068001D01*
X116455846Y-102058127D01*
X116373062Y-101727635D01*
X116370691Y-101715712D01*
X116339235Y-101503655D01*
X116319208Y-101368640D01*
X116318015Y-101356530D01*
X116300649Y-101003032D01*
X116300500Y-100996948D01*
X116300500Y-100875441D01*
X118099500Y-100875441D01*
X118099500Y-101124558D01*
X118099501Y-101124575D01*
X118131632Y-101368640D01*
X118132018Y-101371565D01*
X118183491Y-101563663D01*
X118196498Y-101612207D01*
X118291830Y-101842361D01*
X118291837Y-101842376D01*
X118416400Y-102058126D01*
X118568060Y-102255774D01*
X118568066Y-102255781D01*
X118744218Y-102431933D01*
X118744225Y-102431939D01*
X118941873Y-102583599D01*
X119157623Y-102708162D01*
X119157638Y-102708169D01*
X119243978Y-102743932D01*
X119387793Y-102803502D01*
X119628435Y-102867982D01*
X119875435Y-102900500D01*
X119875442Y-102900500D01*
X120124558Y-102900500D01*
X120124565Y-102900500D01*
X120371565Y-102867982D01*
X120612207Y-102803502D01*
X120842373Y-102708164D01*
X121058127Y-102583599D01*
X121255776Y-102431938D01*
X121431938Y-102255776D01*
X121583599Y-102058127D01*
X121708164Y-101842373D01*
X121803502Y-101612207D01*
X121867982Y-101371565D01*
X121900500Y-101124565D01*
X121900500Y-101039999D01*
X124644341Y-101039999D01*
X124644341Y-101040000D01*
X124664936Y-101275403D01*
X124664938Y-101275413D01*
X124726094Y-101503655D01*
X124726096Y-101503659D01*
X124726097Y-101503663D01*
X124754072Y-101563655D01*
X124825965Y-101717830D01*
X124825967Y-101717834D01*
X124913171Y-101842373D01*
X124961505Y-101911401D01*
X125128599Y-102078495D01*
X125214285Y-102138493D01*
X125322165Y-102214032D01*
X125322167Y-102214033D01*
X125322170Y-102214035D01*
X125536337Y-102313903D01*
X125764592Y-102375063D01*
X125952918Y-102391539D01*
X125999999Y-102395659D01*
X126000000Y-102395659D01*
X126000001Y-102395659D01*
X126039234Y-102392226D01*
X126235408Y-102375063D01*
X126463663Y-102313903D01*
X126677830Y-102214035D01*
X126871401Y-102078495D01*
X127038495Y-101911401D01*
X127174035Y-101717830D01*
X127273903Y-101503663D01*
X127335063Y-101275408D01*
X127350410Y-101099999D01*
X134614341Y-101099999D01*
X134614341Y-101100000D01*
X134634936Y-101335403D01*
X134634938Y-101335413D01*
X134696094Y-101563655D01*
X134696096Y-101563659D01*
X134696097Y-101563663D01*
X134767988Y-101717834D01*
X134795965Y-101777830D01*
X134795967Y-101777834D01*
X134889493Y-101911402D01*
X134931505Y-101971401D01*
X135098599Y-102138495D01*
X135195384Y-102206265D01*
X135292165Y-102274032D01*
X135292167Y-102274033D01*
X135292170Y-102274035D01*
X135506337Y-102373903D01*
X135506343Y-102373904D01*
X135506344Y-102373905D01*
X135510666Y-102375063D01*
X135734592Y-102435063D01*
X135922918Y-102451539D01*
X135969999Y-102455659D01*
X135970000Y-102455659D01*
X135970001Y-102455659D01*
X136009234Y-102452226D01*
X136205408Y-102435063D01*
X136433663Y-102373903D01*
X136647830Y-102274035D01*
X136841401Y-102138495D01*
X137008495Y-101971401D01*
X137138425Y-101785842D01*
X137193002Y-101742217D01*
X137262500Y-101735023D01*
X137324855Y-101766546D01*
X137341575Y-101785842D01*
X137471500Y-101971395D01*
X137471505Y-101971401D01*
X137638599Y-102138495D01*
X137735384Y-102206265D01*
X137832165Y-102274032D01*
X137832167Y-102274033D01*
X137832170Y-102274035D01*
X138046337Y-102373903D01*
X138046343Y-102373904D01*
X138046344Y-102373905D01*
X138050666Y-102375063D01*
X138274592Y-102435063D01*
X138462918Y-102451539D01*
X138509999Y-102455659D01*
X138510000Y-102455659D01*
X138510001Y-102455659D01*
X138549234Y-102452226D01*
X138745408Y-102435063D01*
X138973663Y-102373903D01*
X139187830Y-102274035D01*
X139381401Y-102138495D01*
X139548495Y-101971401D01*
X139678425Y-101785842D01*
X139733002Y-101742217D01*
X139802500Y-101735023D01*
X139864855Y-101766546D01*
X139881575Y-101785842D01*
X140011500Y-101971395D01*
X140011505Y-101971401D01*
X140178599Y-102138495D01*
X140275384Y-102206265D01*
X140372165Y-102274032D01*
X140372167Y-102274033D01*
X140372170Y-102274035D01*
X140586337Y-102373903D01*
X140586343Y-102373904D01*
X140586344Y-102373905D01*
X140590666Y-102375063D01*
X140814592Y-102435063D01*
X141002918Y-102451539D01*
X141049999Y-102455659D01*
X141050000Y-102455659D01*
X141050001Y-102455659D01*
X141089234Y-102452226D01*
X141285408Y-102435063D01*
X141513663Y-102373903D01*
X141727830Y-102274035D01*
X141921401Y-102138495D01*
X142088495Y-101971401D01*
X142218425Y-101785842D01*
X142273002Y-101742217D01*
X142342500Y-101735023D01*
X142404855Y-101766546D01*
X142421575Y-101785842D01*
X142551500Y-101971395D01*
X142551505Y-101971401D01*
X142718599Y-102138495D01*
X142815384Y-102206265D01*
X142912165Y-102274032D01*
X142912167Y-102274033D01*
X142912170Y-102274035D01*
X143126337Y-102373903D01*
X143126343Y-102373904D01*
X143126344Y-102373905D01*
X143130666Y-102375063D01*
X143354592Y-102435063D01*
X143542918Y-102451539D01*
X143589999Y-102455659D01*
X143590000Y-102455659D01*
X143590001Y-102455659D01*
X143629234Y-102452226D01*
X143825408Y-102435063D01*
X144053663Y-102373903D01*
X144267830Y-102274035D01*
X144461401Y-102138495D01*
X144628495Y-101971401D01*
X144764035Y-101777830D01*
X144863903Y-101563663D01*
X144925063Y-101335408D01*
X144945659Y-101100000D01*
X144926012Y-100875441D01*
X180099500Y-100875441D01*
X180099500Y-101124558D01*
X180099501Y-101124575D01*
X180131632Y-101368640D01*
X180132018Y-101371565D01*
X180183491Y-101563663D01*
X180196498Y-101612207D01*
X180291830Y-101842361D01*
X180291837Y-101842376D01*
X180416400Y-102058126D01*
X180568060Y-102255774D01*
X180568066Y-102255781D01*
X180744218Y-102431933D01*
X180744225Y-102431939D01*
X180941873Y-102583599D01*
X181157623Y-102708162D01*
X181157638Y-102708169D01*
X181243978Y-102743932D01*
X181387793Y-102803502D01*
X181628435Y-102867982D01*
X181875435Y-102900500D01*
X181875442Y-102900500D01*
X182124558Y-102900500D01*
X182124565Y-102900500D01*
X182371565Y-102867982D01*
X182612207Y-102803502D01*
X182842373Y-102708164D01*
X183058127Y-102583599D01*
X183255776Y-102431938D01*
X183431938Y-102255776D01*
X183583599Y-102058127D01*
X183708164Y-101842373D01*
X183803502Y-101612207D01*
X183867982Y-101371565D01*
X183900500Y-101124565D01*
X183900500Y-100875435D01*
X183867982Y-100628435D01*
X183803502Y-100387793D01*
X183737561Y-100228597D01*
X183708169Y-100157638D01*
X183708162Y-100157623D01*
X183583599Y-99941873D01*
X183431939Y-99744225D01*
X183431933Y-99744218D01*
X183255781Y-99568066D01*
X183255774Y-99568060D01*
X183058126Y-99416400D01*
X182842376Y-99291837D01*
X182842361Y-99291830D01*
X182612207Y-99196498D01*
X182511472Y-99169506D01*
X182371565Y-99132018D01*
X182371564Y-99132017D01*
X182371561Y-99132017D01*
X182124575Y-99099501D01*
X182124570Y-99099500D01*
X182124565Y-99099500D01*
X181875435Y-99099500D01*
X181875429Y-99099500D01*
X181875424Y-99099501D01*
X181628438Y-99132017D01*
X181387792Y-99196498D01*
X181157638Y-99291830D01*
X181157623Y-99291837D01*
X180941873Y-99416400D01*
X180744225Y-99568060D01*
X180744218Y-99568066D01*
X180568066Y-99744218D01*
X180568060Y-99744225D01*
X180416400Y-99941873D01*
X180291837Y-100157623D01*
X180291830Y-100157638D01*
X180196498Y-100387792D01*
X180132017Y-100628438D01*
X180099501Y-100875424D01*
X180099500Y-100875441D01*
X144926012Y-100875441D01*
X144925063Y-100864592D01*
X144863903Y-100636337D01*
X144764035Y-100422171D01*
X144758425Y-100414158D01*
X144628494Y-100228597D01*
X144461402Y-100061506D01*
X144461395Y-100061501D01*
X144267834Y-99925967D01*
X144267830Y-99925965D01*
X144179296Y-99884681D01*
X144053663Y-99826097D01*
X144053659Y-99826096D01*
X144053655Y-99826094D01*
X143825413Y-99764938D01*
X143825403Y-99764936D01*
X143590001Y-99744341D01*
X143589999Y-99744341D01*
X143354596Y-99764936D01*
X143354586Y-99764938D01*
X143126344Y-99826094D01*
X143126335Y-99826098D01*
X142912171Y-99925964D01*
X142912169Y-99925965D01*
X142718597Y-100061505D01*
X142551505Y-100228597D01*
X142421575Y-100414158D01*
X142366998Y-100457783D01*
X142297500Y-100464977D01*
X142235145Y-100433454D01*
X142218425Y-100414158D01*
X142088494Y-100228597D01*
X141921402Y-100061506D01*
X141921395Y-100061501D01*
X141727834Y-99925967D01*
X141727830Y-99925965D01*
X141639296Y-99884681D01*
X141513663Y-99826097D01*
X141513659Y-99826096D01*
X141513655Y-99826094D01*
X141285413Y-99764938D01*
X141285403Y-99764936D01*
X141050001Y-99744341D01*
X141049999Y-99744341D01*
X140814596Y-99764936D01*
X140814586Y-99764938D01*
X140586344Y-99826094D01*
X140586335Y-99826098D01*
X140372171Y-99925964D01*
X140372169Y-99925965D01*
X140178597Y-100061505D01*
X140011505Y-100228597D01*
X139881575Y-100414158D01*
X139826998Y-100457783D01*
X139757500Y-100464977D01*
X139695145Y-100433454D01*
X139678425Y-100414158D01*
X139548494Y-100228597D01*
X139381402Y-100061506D01*
X139381395Y-100061501D01*
X139187834Y-99925967D01*
X139187830Y-99925965D01*
X139099296Y-99884681D01*
X138973663Y-99826097D01*
X138973659Y-99826096D01*
X138973655Y-99826094D01*
X138745413Y-99764938D01*
X138745403Y-99764936D01*
X138510001Y-99744341D01*
X138509999Y-99744341D01*
X138274596Y-99764936D01*
X138274586Y-99764938D01*
X138046344Y-99826094D01*
X138046335Y-99826098D01*
X137832171Y-99925964D01*
X137832169Y-99925965D01*
X137638597Y-100061505D01*
X137471505Y-100228597D01*
X137341575Y-100414158D01*
X137286998Y-100457783D01*
X137217500Y-100464977D01*
X137155145Y-100433454D01*
X137138425Y-100414158D01*
X137008494Y-100228597D01*
X136841402Y-100061506D01*
X136841395Y-100061501D01*
X136647834Y-99925967D01*
X136647830Y-99925965D01*
X136559296Y-99884681D01*
X136433663Y-99826097D01*
X136433659Y-99826096D01*
X136433655Y-99826094D01*
X136205413Y-99764938D01*
X136205403Y-99764936D01*
X135970001Y-99744341D01*
X135969999Y-99744341D01*
X135734596Y-99764936D01*
X135734586Y-99764938D01*
X135506344Y-99826094D01*
X135506335Y-99826098D01*
X135292171Y-99925964D01*
X135292169Y-99925965D01*
X135098597Y-100061505D01*
X134931505Y-100228597D01*
X134795965Y-100422169D01*
X134795964Y-100422171D01*
X134696098Y-100636335D01*
X134696094Y-100636344D01*
X134634938Y-100864586D01*
X134634936Y-100864596D01*
X134614341Y-101099999D01*
X127350410Y-101099999D01*
X127355659Y-101040000D01*
X127335063Y-100804592D01*
X127273903Y-100576337D01*
X127174035Y-100362171D01*
X127080507Y-100228599D01*
X127038496Y-100168600D01*
X127027519Y-100157623D01*
X126916567Y-100046671D01*
X126883084Y-99985351D01*
X126888068Y-99915659D01*
X126929939Y-99859725D01*
X126960915Y-99842810D01*
X127092331Y-99793796D01*
X127207546Y-99707546D01*
X127293796Y-99592331D01*
X127344091Y-99457483D01*
X127350500Y-99397873D01*
X127350499Y-98499996D01*
X128694435Y-98499996D01*
X128694435Y-98500003D01*
X128714630Y-98679249D01*
X128714631Y-98679254D01*
X128774211Y-98849523D01*
X128870184Y-99002262D01*
X128997738Y-99129816D01*
X129150478Y-99225789D01*
X129320739Y-99285366D01*
X129320745Y-99285368D01*
X129320750Y-99285369D01*
X129499996Y-99305565D01*
X129500000Y-99305565D01*
X129500004Y-99305565D01*
X129679249Y-99285369D01*
X129679251Y-99285368D01*
X129679255Y-99285368D01*
X129679258Y-99285366D01*
X129679262Y-99285366D01*
X129769377Y-99253832D01*
X129849522Y-99225789D01*
X129939096Y-99169505D01*
X130005068Y-99150500D01*
X130564071Y-99150500D01*
X130656987Y-99132017D01*
X130689744Y-99125501D01*
X130808127Y-99076465D01*
X130914669Y-99005277D01*
X131598224Y-98321720D01*
X131659545Y-98288237D01*
X131672019Y-98286183D01*
X131679255Y-98285368D01*
X131849522Y-98225789D01*
X132002262Y-98129816D01*
X132129816Y-98002262D01*
X132225789Y-97849522D01*
X132285368Y-97679255D01*
X132285369Y-97679249D01*
X132305565Y-97500003D01*
X132305565Y-97499996D01*
X132285369Y-97320750D01*
X132285368Y-97320745D01*
X132245288Y-97206204D01*
X132225789Y-97150478D01*
X132225174Y-97149500D01*
X132129815Y-96997737D01*
X132002262Y-96870184D01*
X131849523Y-96774211D01*
X131679254Y-96714631D01*
X131679249Y-96714630D01*
X131500004Y-96694435D01*
X131499996Y-96694435D01*
X131320750Y-96714630D01*
X131320745Y-96714631D01*
X131150476Y-96774211D01*
X130997737Y-96870184D01*
X130870184Y-96997737D01*
X130774210Y-97150478D01*
X130714632Y-97320744D01*
X130714630Y-97320752D01*
X130713815Y-97327988D01*
X130686743Y-97392400D01*
X130678277Y-97401775D01*
X130266873Y-97813181D01*
X130205550Y-97846666D01*
X130179192Y-97849500D01*
X130005068Y-97849500D01*
X129939096Y-97830494D01*
X129849522Y-97774210D01*
X129849518Y-97774209D01*
X129679262Y-97714633D01*
X129679249Y-97714630D01*
X129500004Y-97694435D01*
X129499996Y-97694435D01*
X129320750Y-97714630D01*
X129320745Y-97714631D01*
X129150476Y-97774211D01*
X128997737Y-97870184D01*
X128870184Y-97997737D01*
X128774211Y-98150476D01*
X128714631Y-98320745D01*
X128714630Y-98320750D01*
X128694435Y-98499996D01*
X127350499Y-98499996D01*
X127350499Y-97602128D01*
X127344091Y-97542517D01*
X127328234Y-97500003D01*
X127293797Y-97407671D01*
X127293793Y-97407664D01*
X127207547Y-97292455D01*
X127207544Y-97292452D01*
X127092335Y-97206206D01*
X127092328Y-97206202D01*
X126957482Y-97155908D01*
X126957483Y-97155908D01*
X126897883Y-97149501D01*
X126897881Y-97149500D01*
X126897873Y-97149500D01*
X126897864Y-97149500D01*
X125102129Y-97149500D01*
X125102123Y-97149501D01*
X125042516Y-97155908D01*
X124907671Y-97206202D01*
X124907664Y-97206206D01*
X124792455Y-97292452D01*
X124792452Y-97292455D01*
X124706206Y-97407664D01*
X124706202Y-97407671D01*
X124655908Y-97542517D01*
X124649501Y-97602116D01*
X124649501Y-97602123D01*
X124649500Y-97602135D01*
X124649500Y-99397870D01*
X124649501Y-99397876D01*
X124655908Y-99457483D01*
X124706202Y-99592328D01*
X124706206Y-99592335D01*
X124792452Y-99707544D01*
X124792455Y-99707547D01*
X124907664Y-99793793D01*
X124907671Y-99793797D01*
X125039081Y-99842810D01*
X125095015Y-99884681D01*
X125119432Y-99950145D01*
X125104580Y-100018418D01*
X125083430Y-100046673D01*
X124961503Y-100168600D01*
X124825965Y-100362169D01*
X124825964Y-100362171D01*
X124726098Y-100576335D01*
X124726094Y-100576344D01*
X124664938Y-100804586D01*
X124664936Y-100804596D01*
X124644341Y-101039999D01*
X121900500Y-101039999D01*
X121900500Y-100875435D01*
X121867982Y-100628435D01*
X121803502Y-100387793D01*
X121737561Y-100228597D01*
X121708169Y-100157638D01*
X121708162Y-100157623D01*
X121583599Y-99941873D01*
X121431939Y-99744225D01*
X121431933Y-99744218D01*
X121255781Y-99568066D01*
X121255774Y-99568060D01*
X121058126Y-99416400D01*
X120842376Y-99291837D01*
X120842361Y-99291830D01*
X120612207Y-99196498D01*
X120511472Y-99169506D01*
X120371565Y-99132018D01*
X120371564Y-99132017D01*
X120371561Y-99132017D01*
X120124575Y-99099501D01*
X120124570Y-99099500D01*
X120124565Y-99099500D01*
X119875435Y-99099500D01*
X119875429Y-99099500D01*
X119875424Y-99099501D01*
X119628438Y-99132017D01*
X119387792Y-99196498D01*
X119157638Y-99291830D01*
X119157623Y-99291837D01*
X118941873Y-99416400D01*
X118744225Y-99568060D01*
X118744218Y-99568066D01*
X118568066Y-99744218D01*
X118568060Y-99744225D01*
X118416400Y-99941873D01*
X118291837Y-100157623D01*
X118291830Y-100157638D01*
X118196498Y-100387792D01*
X118132017Y-100628438D01*
X118099501Y-100875424D01*
X118099500Y-100875441D01*
X116300500Y-100875441D01*
X116300500Y-93639999D01*
X135944341Y-93639999D01*
X135944341Y-93640000D01*
X135964936Y-93875403D01*
X135964938Y-93875413D01*
X136026094Y-94103655D01*
X136026096Y-94103659D01*
X136026097Y-94103663D01*
X136125965Y-94317830D01*
X136125967Y-94317834D01*
X136234281Y-94472521D01*
X136261505Y-94511401D01*
X136428599Y-94678495D01*
X136525384Y-94746265D01*
X136622165Y-94814032D01*
X136622167Y-94814033D01*
X136622170Y-94814035D01*
X136836337Y-94913903D01*
X137064592Y-94975063D01*
X137252918Y-94991539D01*
X137299999Y-94995659D01*
X137300000Y-94995659D01*
X137300001Y-94995659D01*
X137339234Y-94992226D01*
X137535408Y-94975063D01*
X137763663Y-94913903D01*
X137977830Y-94814035D01*
X138171401Y-94678495D01*
X138338495Y-94511401D01*
X138474035Y-94317830D01*
X138573903Y-94103663D01*
X138635063Y-93875408D01*
X138655659Y-93640000D01*
X138655659Y-93639999D01*
X139694341Y-93639999D01*
X139694341Y-93640000D01*
X139714936Y-93875403D01*
X139714938Y-93875413D01*
X139776094Y-94103655D01*
X139776096Y-94103659D01*
X139776097Y-94103663D01*
X139875965Y-94317830D01*
X139875967Y-94317834D01*
X139984281Y-94472521D01*
X140011505Y-94511401D01*
X140178599Y-94678495D01*
X140275384Y-94746265D01*
X140372165Y-94814032D01*
X140372167Y-94814033D01*
X140372170Y-94814035D01*
X140586337Y-94913903D01*
X140814592Y-94975063D01*
X141002918Y-94991539D01*
X141049999Y-94995659D01*
X141050000Y-94995659D01*
X141050001Y-94995659D01*
X141089234Y-94992226D01*
X141285408Y-94975063D01*
X141513663Y-94913903D01*
X141727830Y-94814035D01*
X141921401Y-94678495D01*
X142088495Y-94511401D01*
X142224035Y-94317830D01*
X142323903Y-94103663D01*
X142385063Y-93875408D01*
X142405659Y-93640000D01*
X142405659Y-93639999D01*
X143394341Y-93639999D01*
X143394341Y-93640000D01*
X143414936Y-93875403D01*
X143414938Y-93875413D01*
X143476094Y-94103655D01*
X143476096Y-94103659D01*
X143476097Y-94103663D01*
X143575965Y-94317830D01*
X143575967Y-94317834D01*
X143684281Y-94472521D01*
X143711505Y-94511401D01*
X143878599Y-94678495D01*
X143975384Y-94746265D01*
X144072165Y-94814032D01*
X144072167Y-94814033D01*
X144072170Y-94814035D01*
X144286337Y-94913903D01*
X144514592Y-94975063D01*
X144702918Y-94991539D01*
X144749999Y-94995659D01*
X144750000Y-94995659D01*
X144750001Y-94995659D01*
X144789234Y-94992226D01*
X144985408Y-94975063D01*
X144985651Y-94974998D01*
X168974532Y-94974998D01*
X168974532Y-94975001D01*
X168994364Y-95201686D01*
X168994366Y-95201697D01*
X169053258Y-95421488D01*
X169053261Y-95421497D01*
X169149431Y-95627732D01*
X169149432Y-95627734D01*
X169279954Y-95814141D01*
X169440858Y-95975045D01*
X169440861Y-95975047D01*
X169627266Y-96105568D01*
X169833504Y-96201739D01*
X170053308Y-96260635D01*
X170215230Y-96274801D01*
X170279998Y-96280468D01*
X170280000Y-96280468D01*
X170280002Y-96280468D01*
X170336673Y-96275509D01*
X170506692Y-96260635D01*
X170726496Y-96201739D01*
X170932734Y-96105568D01*
X171119139Y-95975047D01*
X171280047Y-95814139D01*
X171410568Y-95627734D01*
X171506739Y-95421496D01*
X171565635Y-95201692D01*
X171583661Y-94995659D01*
X171585468Y-94975001D01*
X171585468Y-94974998D01*
X171565635Y-94748313D01*
X171565635Y-94748308D01*
X171506739Y-94528504D01*
X171410568Y-94322266D01*
X171280047Y-94135861D01*
X171280045Y-94135858D01*
X171119141Y-93974954D01*
X170932734Y-93844432D01*
X170932732Y-93844431D01*
X170726497Y-93748261D01*
X170726488Y-93748258D01*
X170506697Y-93689366D01*
X170506693Y-93689365D01*
X170506692Y-93689365D01*
X170506691Y-93689364D01*
X170506686Y-93689364D01*
X170280002Y-93669532D01*
X170279998Y-93669532D01*
X170053313Y-93689364D01*
X170053302Y-93689366D01*
X169833511Y-93748258D01*
X169833502Y-93748261D01*
X169627267Y-93844431D01*
X169627265Y-93844432D01*
X169440858Y-93974954D01*
X169279954Y-94135858D01*
X169149432Y-94322265D01*
X169149431Y-94322267D01*
X169053261Y-94528502D01*
X169053258Y-94528511D01*
X168994366Y-94748302D01*
X168994364Y-94748313D01*
X168974532Y-94974998D01*
X144985651Y-94974998D01*
X145213663Y-94913903D01*
X145427830Y-94814035D01*
X145621401Y-94678495D01*
X145788495Y-94511401D01*
X145924035Y-94317830D01*
X146023903Y-94103663D01*
X146085063Y-93875408D01*
X146105659Y-93640000D01*
X146085063Y-93404592D01*
X146038626Y-93231285D01*
X146023905Y-93176344D01*
X146023904Y-93176343D01*
X146023903Y-93176337D01*
X145924035Y-92962171D01*
X145788495Y-92768599D01*
X145719892Y-92699996D01*
X157394435Y-92699996D01*
X157394435Y-92700003D01*
X157414630Y-92879249D01*
X157414631Y-92879254D01*
X157474211Y-93049523D01*
X157553893Y-93176335D01*
X157570184Y-93202262D01*
X157697738Y-93329816D01*
X157788080Y-93386582D01*
X157816749Y-93404596D01*
X157850478Y-93425789D01*
X158020745Y-93485368D01*
X158020750Y-93485369D01*
X158199996Y-93505565D01*
X158200000Y-93505565D01*
X158200004Y-93505565D01*
X158379249Y-93485369D01*
X158379252Y-93485368D01*
X158379255Y-93485368D01*
X158549522Y-93425789D01*
X158702262Y-93329816D01*
X158829816Y-93202262D01*
X158925789Y-93049522D01*
X158985368Y-92879255D01*
X159001447Y-92736547D01*
X159028513Y-92672134D01*
X159036976Y-92662760D01*
X159852513Y-91847225D01*
X159926962Y-91718275D01*
X159965500Y-91574450D01*
X159965500Y-91425550D01*
X159965500Y-91217940D01*
X159985185Y-91150901D01*
X160001819Y-91130259D01*
X160003590Y-91128488D01*
X160029816Y-91102262D01*
X160125789Y-90949522D01*
X160185368Y-90779255D01*
X160205565Y-90600000D01*
X160200089Y-90551402D01*
X160185369Y-90420750D01*
X160185368Y-90420745D01*
X160125788Y-90250476D01*
X160058673Y-90143664D01*
X160029816Y-90097738D01*
X159902262Y-89970184D01*
X159815079Y-89915403D01*
X159749523Y-89874211D01*
X159579254Y-89814631D01*
X159579249Y-89814630D01*
X159400004Y-89794435D01*
X159399996Y-89794435D01*
X159220750Y-89814630D01*
X159220745Y-89814631D01*
X159050476Y-89874211D01*
X158897737Y-89970184D01*
X158770184Y-90097737D01*
X158674211Y-90250476D01*
X158614631Y-90420745D01*
X158614630Y-90420750D01*
X158594435Y-90599996D01*
X158594435Y-90600003D01*
X158614630Y-90779249D01*
X158614631Y-90779254D01*
X158674211Y-90949523D01*
X158770184Y-91102262D01*
X158796410Y-91128488D01*
X158829895Y-91189811D01*
X158824911Y-91259503D01*
X158796410Y-91303850D01*
X158237247Y-91863013D01*
X158175924Y-91896498D01*
X158163450Y-91898552D01*
X158020749Y-91914630D01*
X158020745Y-91914631D01*
X157850476Y-91974211D01*
X157697737Y-92070184D01*
X157570184Y-92197737D01*
X157474211Y-92350476D01*
X157414631Y-92520745D01*
X157414630Y-92520750D01*
X157394435Y-92699996D01*
X145719892Y-92699996D01*
X145666567Y-92646671D01*
X145633084Y-92585351D01*
X145638068Y-92515659D01*
X145679939Y-92459725D01*
X145710915Y-92442810D01*
X145842331Y-92393796D01*
X145957546Y-92307546D01*
X146043796Y-92192331D01*
X146094091Y-92057483D01*
X146100500Y-91997873D01*
X146100499Y-90202128D01*
X146094091Y-90142517D01*
X146043796Y-90007669D01*
X146043795Y-90007668D01*
X146043793Y-90007664D01*
X145957547Y-89892455D01*
X145957544Y-89892452D01*
X145842335Y-89806206D01*
X145842328Y-89806202D01*
X145707482Y-89755908D01*
X145707483Y-89755908D01*
X145647883Y-89749501D01*
X145647881Y-89749500D01*
X145647873Y-89749500D01*
X145647864Y-89749500D01*
X143852129Y-89749500D01*
X143852123Y-89749501D01*
X143792516Y-89755908D01*
X143657671Y-89806202D01*
X143657664Y-89806206D01*
X143542455Y-89892452D01*
X143542452Y-89892455D01*
X143456206Y-90007664D01*
X143456202Y-90007671D01*
X143405908Y-90142517D01*
X143399501Y-90202116D01*
X143399501Y-90202123D01*
X143399500Y-90202135D01*
X143399500Y-91997870D01*
X143399501Y-91997876D01*
X143405908Y-92057483D01*
X143456202Y-92192328D01*
X143456206Y-92192335D01*
X143542452Y-92307544D01*
X143542455Y-92307547D01*
X143657664Y-92393793D01*
X143657671Y-92393797D01*
X143789081Y-92442810D01*
X143845015Y-92484681D01*
X143869432Y-92550145D01*
X143854580Y-92618418D01*
X143833430Y-92646673D01*
X143711503Y-92768600D01*
X143575965Y-92962169D01*
X143575964Y-92962171D01*
X143476098Y-93176335D01*
X143476094Y-93176344D01*
X143414938Y-93404586D01*
X143414936Y-93404596D01*
X143394341Y-93639999D01*
X142405659Y-93639999D01*
X142385063Y-93404592D01*
X142338626Y-93231285D01*
X142323905Y-93176344D01*
X142323904Y-93176343D01*
X142323903Y-93176337D01*
X142224035Y-92962171D01*
X142088495Y-92768599D01*
X141966567Y-92646671D01*
X141933084Y-92585351D01*
X141938068Y-92515659D01*
X141979939Y-92459725D01*
X142010915Y-92442810D01*
X142142331Y-92393796D01*
X142257546Y-92307546D01*
X142343796Y-92192331D01*
X142394091Y-92057483D01*
X142400500Y-91997873D01*
X142400499Y-90202128D01*
X142394091Y-90142517D01*
X142343796Y-90007669D01*
X142343795Y-90007668D01*
X142343793Y-90007664D01*
X142257547Y-89892455D01*
X142257544Y-89892452D01*
X142142335Y-89806206D01*
X142142328Y-89806202D01*
X142007482Y-89755908D01*
X142007483Y-89755908D01*
X141947883Y-89749501D01*
X141947881Y-89749500D01*
X141947873Y-89749500D01*
X141947864Y-89749500D01*
X140152129Y-89749500D01*
X140152123Y-89749501D01*
X140092516Y-89755908D01*
X139957671Y-89806202D01*
X139957664Y-89806206D01*
X139842455Y-89892452D01*
X139842452Y-89892455D01*
X139756206Y-90007664D01*
X139756202Y-90007671D01*
X139705908Y-90142517D01*
X139699501Y-90202116D01*
X139699501Y-90202123D01*
X139699500Y-90202135D01*
X139699500Y-91997870D01*
X139699501Y-91997876D01*
X139705908Y-92057483D01*
X139756202Y-92192328D01*
X139756206Y-92192335D01*
X139842452Y-92307544D01*
X139842455Y-92307547D01*
X139957664Y-92393793D01*
X139957671Y-92393797D01*
X140089081Y-92442810D01*
X140145015Y-92484681D01*
X140169432Y-92550145D01*
X140154580Y-92618418D01*
X140133430Y-92646673D01*
X140011503Y-92768600D01*
X139875965Y-92962169D01*
X139875964Y-92962171D01*
X139776098Y-93176335D01*
X139776094Y-93176344D01*
X139714938Y-93404586D01*
X139714936Y-93404596D01*
X139694341Y-93639999D01*
X138655659Y-93639999D01*
X138635063Y-93404592D01*
X138588626Y-93231285D01*
X138573905Y-93176344D01*
X138573904Y-93176343D01*
X138573903Y-93176337D01*
X138474035Y-92962171D01*
X138338495Y-92768599D01*
X138216567Y-92646671D01*
X138183084Y-92585351D01*
X138188068Y-92515659D01*
X138229939Y-92459725D01*
X138260915Y-92442810D01*
X138392331Y-92393796D01*
X138507546Y-92307546D01*
X138593796Y-92192331D01*
X138644091Y-92057483D01*
X138650500Y-91997873D01*
X138650499Y-90202128D01*
X138644091Y-90142517D01*
X138593796Y-90007669D01*
X138593795Y-90007668D01*
X138593793Y-90007664D01*
X138507547Y-89892455D01*
X138507544Y-89892452D01*
X138392335Y-89806206D01*
X138392328Y-89806202D01*
X138257482Y-89755908D01*
X138257483Y-89755908D01*
X138197883Y-89749501D01*
X138197881Y-89749500D01*
X138197873Y-89749500D01*
X138197864Y-89749500D01*
X136402129Y-89749500D01*
X136402123Y-89749501D01*
X136342516Y-89755908D01*
X136207671Y-89806202D01*
X136207664Y-89806206D01*
X136092455Y-89892452D01*
X136092452Y-89892455D01*
X136006206Y-90007664D01*
X136006202Y-90007671D01*
X135955908Y-90142517D01*
X135949501Y-90202116D01*
X135949501Y-90202123D01*
X135949500Y-90202135D01*
X135949500Y-91997870D01*
X135949501Y-91997876D01*
X135955908Y-92057483D01*
X136006202Y-92192328D01*
X136006206Y-92192335D01*
X136092452Y-92307544D01*
X136092455Y-92307547D01*
X136207664Y-92393793D01*
X136207671Y-92393797D01*
X136339081Y-92442810D01*
X136395015Y-92484681D01*
X136419432Y-92550145D01*
X136404580Y-92618418D01*
X136383430Y-92646673D01*
X136261503Y-92768600D01*
X136125965Y-92962169D01*
X136125964Y-92962171D01*
X136026098Y-93176335D01*
X136026094Y-93176344D01*
X135964938Y-93404586D01*
X135964936Y-93404596D01*
X135944341Y-93639999D01*
X116300500Y-93639999D01*
X116300500Y-84902135D01*
X149709500Y-84902135D01*
X149709500Y-86697870D01*
X149709501Y-86697876D01*
X149715908Y-86757483D01*
X149766202Y-86892328D01*
X149766206Y-86892335D01*
X149852452Y-87007544D01*
X149852455Y-87007547D01*
X149967664Y-87093793D01*
X149967671Y-87093797D01*
X150102517Y-87144091D01*
X150102516Y-87144091D01*
X150109444Y-87144835D01*
X150162127Y-87150500D01*
X151957872Y-87150499D01*
X152017483Y-87144091D01*
X152152331Y-87093796D01*
X152267546Y-87007546D01*
X152353796Y-86892331D01*
X152402810Y-86760916D01*
X152444681Y-86704984D01*
X152510145Y-86680566D01*
X152578418Y-86695417D01*
X152606673Y-86716569D01*
X152728599Y-86838495D01*
X152819668Y-86902262D01*
X152922165Y-86974032D01*
X152922167Y-86974033D01*
X152922170Y-86974035D01*
X153136337Y-87073903D01*
X153364592Y-87135063D01*
X153541034Y-87150500D01*
X153599999Y-87155659D01*
X153600000Y-87155659D01*
X153600001Y-87155659D01*
X153658966Y-87150500D01*
X153835408Y-87135063D01*
X154063663Y-87073903D01*
X154277830Y-86974035D01*
X154471401Y-86838495D01*
X154638495Y-86671401D01*
X154774035Y-86477830D01*
X154873903Y-86263663D01*
X154935063Y-86035408D01*
X154955659Y-85800000D01*
X154952896Y-85768425D01*
X154941529Y-85638495D01*
X154935063Y-85564592D01*
X154873903Y-85336337D01*
X154774035Y-85122171D01*
X154733069Y-85063664D01*
X154638494Y-84928597D01*
X154471402Y-84761506D01*
X154471395Y-84761501D01*
X154277834Y-84625967D01*
X154277830Y-84625965D01*
X154222146Y-84599999D01*
X154063663Y-84526097D01*
X154063659Y-84526096D01*
X154063655Y-84526094D01*
X153835413Y-84464938D01*
X153835403Y-84464936D01*
X153600001Y-84444341D01*
X153599999Y-84444341D01*
X153364596Y-84464936D01*
X153364586Y-84464938D01*
X153136344Y-84526094D01*
X153136335Y-84526098D01*
X152922171Y-84625964D01*
X152922169Y-84625965D01*
X152728600Y-84761503D01*
X152606673Y-84883430D01*
X152545350Y-84916914D01*
X152475658Y-84911930D01*
X152419725Y-84870058D01*
X152402810Y-84839081D01*
X152353797Y-84707671D01*
X152353793Y-84707664D01*
X152267547Y-84592455D01*
X152267544Y-84592452D01*
X152152335Y-84506206D01*
X152152328Y-84506202D01*
X152017482Y-84455908D01*
X152017483Y-84455908D01*
X151957883Y-84449501D01*
X151957881Y-84449500D01*
X151957873Y-84449500D01*
X151957864Y-84449500D01*
X150162129Y-84449500D01*
X150162123Y-84449501D01*
X150102516Y-84455908D01*
X149967671Y-84506202D01*
X149967664Y-84506206D01*
X149852455Y-84592452D01*
X149852452Y-84592455D01*
X149766206Y-84707664D01*
X149766202Y-84707671D01*
X149715908Y-84842517D01*
X149709501Y-84902116D01*
X149709500Y-84902135D01*
X116300500Y-84902135D01*
X116300500Y-83599996D01*
X161394435Y-83599996D01*
X161394435Y-83600003D01*
X161414630Y-83779249D01*
X161414631Y-83779254D01*
X161474211Y-83949523D01*
X161570184Y-84102262D01*
X161598181Y-84130259D01*
X161631666Y-84191582D01*
X161634500Y-84217940D01*
X161634500Y-85682060D01*
X161614815Y-85749099D01*
X161598181Y-85769741D01*
X161570184Y-85797737D01*
X161474211Y-85950476D01*
X161414631Y-86120745D01*
X161414630Y-86120750D01*
X161394435Y-86299996D01*
X161394435Y-86300003D01*
X161414630Y-86479249D01*
X161414631Y-86479254D01*
X161474211Y-86649523D01*
X161509060Y-86704984D01*
X161570184Y-86802262D01*
X161697738Y-86929816D01*
X161850478Y-87025789D01*
X161987974Y-87073901D01*
X162020745Y-87085368D01*
X162020750Y-87085369D01*
X162199996Y-87105565D01*
X162200000Y-87105565D01*
X162200004Y-87105565D01*
X162379249Y-87085369D01*
X162379252Y-87085368D01*
X162379255Y-87085368D01*
X162379256Y-87085367D01*
X162379259Y-87085367D01*
X162418188Y-87071744D01*
X162520012Y-87036114D01*
X162589788Y-87032552D01*
X162626935Y-87048161D01*
X162667899Y-87073901D01*
X162750475Y-87125788D01*
X162920745Y-87185368D01*
X162920750Y-87185369D01*
X163099996Y-87205565D01*
X163100000Y-87205565D01*
X163100004Y-87205565D01*
X163279249Y-87185369D01*
X163279252Y-87185368D01*
X163279255Y-87185368D01*
X163449522Y-87125789D01*
X163602262Y-87029816D01*
X163729816Y-86902262D01*
X163825789Y-86749522D01*
X163885368Y-86579255D01*
X163885369Y-86579249D01*
X163905565Y-86400003D01*
X163905565Y-86399996D01*
X163885369Y-86220750D01*
X163885368Y-86220745D01*
X163825788Y-86050476D01*
X163762955Y-85950478D01*
X163729816Y-85897738D01*
X163701819Y-85869741D01*
X163668334Y-85808418D01*
X163665500Y-85782060D01*
X163665500Y-84217940D01*
X163685185Y-84150901D01*
X163701819Y-84130259D01*
X163729816Y-84102262D01*
X163825789Y-83949522D01*
X163885368Y-83779255D01*
X163905565Y-83600000D01*
X163901227Y-83561501D01*
X163885369Y-83420750D01*
X163885368Y-83420745D01*
X163845742Y-83307500D01*
X163825789Y-83250478D01*
X163729816Y-83097738D01*
X163602262Y-82970184D01*
X163540541Y-82931402D01*
X163449523Y-82874211D01*
X163279254Y-82814631D01*
X163279249Y-82814630D01*
X163100004Y-82794435D01*
X163099996Y-82794435D01*
X162920750Y-82814630D01*
X162920737Y-82814633D01*
X162750480Y-82874209D01*
X162715970Y-82895893D01*
X162648733Y-82914892D01*
X162584030Y-82895893D01*
X162549519Y-82874209D01*
X162379262Y-82814633D01*
X162379249Y-82814630D01*
X162200004Y-82794435D01*
X162199996Y-82794435D01*
X162020750Y-82814630D01*
X162020745Y-82814631D01*
X161850476Y-82874211D01*
X161697737Y-82970184D01*
X161570184Y-83097737D01*
X161474211Y-83250476D01*
X161414631Y-83420745D01*
X161414630Y-83420750D01*
X161394435Y-83599996D01*
X116300500Y-83599996D01*
X116300500Y-76999995D01*
X124144451Y-76999995D01*
X124144451Y-77000004D01*
X124164616Y-77269101D01*
X124224664Y-77532188D01*
X124224666Y-77532195D01*
X124321630Y-77779254D01*
X124323257Y-77783398D01*
X124458185Y-78017102D01*
X124562912Y-78148425D01*
X124626442Y-78228089D01*
X124795950Y-78385368D01*
X124824259Y-78411635D01*
X125047226Y-78563651D01*
X125290359Y-78680738D01*
X125548228Y-78760280D01*
X125548229Y-78760280D01*
X125548232Y-78760281D01*
X125815063Y-78800499D01*
X125815068Y-78800499D01*
X125815071Y-78800500D01*
X125815072Y-78800500D01*
X126084928Y-78800500D01*
X126084929Y-78800500D01*
X126084936Y-78800499D01*
X126351767Y-78760281D01*
X126351768Y-78760280D01*
X126351772Y-78760280D01*
X126609641Y-78680738D01*
X126852775Y-78563651D01*
X127075741Y-78411635D01*
X127249942Y-78250000D01*
X127273557Y-78228089D01*
X127273557Y-78228087D01*
X127273561Y-78228085D01*
X127441815Y-78017102D01*
X127576743Y-77783398D01*
X127675334Y-77532195D01*
X127735383Y-77269103D01*
X127755549Y-77000000D01*
X127755549Y-76999995D01*
X145244451Y-76999995D01*
X145244451Y-77000004D01*
X145264616Y-77269101D01*
X145324664Y-77532188D01*
X145324666Y-77532195D01*
X145421630Y-77779254D01*
X145423257Y-77783398D01*
X145558185Y-78017102D01*
X145662912Y-78148425D01*
X145726442Y-78228089D01*
X145895950Y-78385368D01*
X145924259Y-78411635D01*
X146147226Y-78563651D01*
X146390359Y-78680738D01*
X146648228Y-78760280D01*
X146648229Y-78760280D01*
X146648232Y-78760281D01*
X146915063Y-78800499D01*
X146915068Y-78800499D01*
X146915071Y-78800500D01*
X146915072Y-78800500D01*
X147184928Y-78800500D01*
X147184929Y-78800500D01*
X147184936Y-78800499D01*
X147451767Y-78760281D01*
X147451768Y-78760280D01*
X147451772Y-78760280D01*
X147709641Y-78680738D01*
X147952775Y-78563651D01*
X148175741Y-78411635D01*
X148349942Y-78250000D01*
X148373557Y-78228089D01*
X148373557Y-78228087D01*
X148373561Y-78228085D01*
X148541815Y-78017102D01*
X148676743Y-77783398D01*
X148748724Y-77599996D01*
X153094435Y-77599996D01*
X153094435Y-77600003D01*
X153114630Y-77779249D01*
X153114631Y-77779254D01*
X153174211Y-77949523D01*
X153237646Y-78050478D01*
X153270184Y-78102262D01*
X153397738Y-78229816D01*
X153550478Y-78325789D01*
X153720745Y-78385368D01*
X153720750Y-78385369D01*
X153863450Y-78401447D01*
X153927864Y-78428513D01*
X153937248Y-78436986D01*
X154563013Y-79062751D01*
X154596498Y-79124074D01*
X154598552Y-79136548D01*
X154614630Y-79279250D01*
X154614631Y-79279254D01*
X154674211Y-79449523D01*
X154718495Y-79520000D01*
X154770184Y-79602262D01*
X154897738Y-79729816D01*
X155050478Y-79825789D01*
X155220745Y-79885368D01*
X155220750Y-79885369D01*
X155399996Y-79905565D01*
X155400000Y-79905565D01*
X155400004Y-79905565D01*
X155579249Y-79885369D01*
X155579252Y-79885368D01*
X155579255Y-79885368D01*
X155749522Y-79825789D01*
X155902262Y-79729816D01*
X155932079Y-79699999D01*
X164044341Y-79699999D01*
X164044341Y-79700000D01*
X164064936Y-79935403D01*
X164064938Y-79935413D01*
X164126094Y-80163655D01*
X164126096Y-80163659D01*
X164126097Y-80163663D01*
X164206004Y-80335023D01*
X164225965Y-80377830D01*
X164225967Y-80377834D01*
X164334281Y-80532521D01*
X164361505Y-80571401D01*
X164528599Y-80738495D01*
X164602156Y-80790000D01*
X164722165Y-80874032D01*
X164722167Y-80874033D01*
X164722170Y-80874035D01*
X164936337Y-80973903D01*
X165164592Y-81035063D01*
X165352918Y-81051539D01*
X165399999Y-81055659D01*
X165400000Y-81055659D01*
X165400001Y-81055659D01*
X165439234Y-81052226D01*
X165635408Y-81035063D01*
X165863663Y-80973903D01*
X166077830Y-80874035D01*
X166271401Y-80738495D01*
X166438495Y-80571401D01*
X166564532Y-80391402D01*
X166568425Y-80385842D01*
X166623002Y-80342217D01*
X166692500Y-80335023D01*
X166754855Y-80366546D01*
X166771575Y-80385842D01*
X166901500Y-80571395D01*
X166901505Y-80571401D01*
X167068599Y-80738495D01*
X167142156Y-80790000D01*
X167262165Y-80874032D01*
X167262167Y-80874033D01*
X167262170Y-80874035D01*
X167476337Y-80973903D01*
X167704592Y-81035063D01*
X167892918Y-81051539D01*
X167939999Y-81055659D01*
X167940000Y-81055659D01*
X167940001Y-81055659D01*
X167979234Y-81052226D01*
X168175408Y-81035063D01*
X168403663Y-80973903D01*
X168617830Y-80874035D01*
X168811401Y-80738495D01*
X168978495Y-80571401D01*
X169104532Y-80391402D01*
X169108425Y-80385842D01*
X169163002Y-80342217D01*
X169232500Y-80335023D01*
X169294855Y-80366546D01*
X169311575Y-80385842D01*
X169441500Y-80571395D01*
X169441505Y-80571401D01*
X169608599Y-80738495D01*
X169682156Y-80790000D01*
X169802165Y-80874032D01*
X169802167Y-80874033D01*
X169802170Y-80874035D01*
X170016337Y-80973903D01*
X170244592Y-81035063D01*
X170432918Y-81051539D01*
X170479999Y-81055659D01*
X170480000Y-81055659D01*
X170480001Y-81055659D01*
X170519234Y-81052226D01*
X170715408Y-81035063D01*
X170943663Y-80973903D01*
X171157830Y-80874035D01*
X171351401Y-80738495D01*
X171518495Y-80571401D01*
X171654035Y-80377830D01*
X171753903Y-80163663D01*
X171815063Y-79935408D01*
X171835659Y-79700000D01*
X171815063Y-79464592D01*
X171763737Y-79273039D01*
X171753905Y-79236344D01*
X171753904Y-79236343D01*
X171753903Y-79236337D01*
X171654035Y-79022171D01*
X171648425Y-79014158D01*
X171518494Y-78828597D01*
X171351402Y-78661506D01*
X171351395Y-78661501D01*
X171157834Y-78525967D01*
X171157830Y-78525965D01*
X171157828Y-78525964D01*
X170943663Y-78426097D01*
X170943659Y-78426096D01*
X170943655Y-78426094D01*
X170715413Y-78364938D01*
X170715403Y-78364936D01*
X170480001Y-78344341D01*
X170479999Y-78344341D01*
X170244596Y-78364936D01*
X170244586Y-78364938D01*
X170016344Y-78426094D01*
X170016335Y-78426098D01*
X169802171Y-78525964D01*
X169802169Y-78525965D01*
X169608597Y-78661505D01*
X169441505Y-78828597D01*
X169311575Y-79014158D01*
X169256998Y-79057783D01*
X169187500Y-79064977D01*
X169125145Y-79033454D01*
X169108425Y-79014158D01*
X168978494Y-78828597D01*
X168811402Y-78661506D01*
X168811395Y-78661501D01*
X168617834Y-78525967D01*
X168617830Y-78525965D01*
X168617828Y-78525964D01*
X168403663Y-78426097D01*
X168403659Y-78426096D01*
X168403655Y-78426094D01*
X168175413Y-78364938D01*
X168175403Y-78364936D01*
X167940001Y-78344341D01*
X167939999Y-78344341D01*
X167704596Y-78364936D01*
X167704586Y-78364938D01*
X167476344Y-78426094D01*
X167476335Y-78426098D01*
X167262171Y-78525964D01*
X167262169Y-78525965D01*
X167068597Y-78661505D01*
X166901505Y-78828597D01*
X166771575Y-79014158D01*
X166716998Y-79057783D01*
X166647500Y-79064977D01*
X166585145Y-79033454D01*
X166568425Y-79014158D01*
X166438494Y-78828597D01*
X166271402Y-78661506D01*
X166271395Y-78661501D01*
X166077834Y-78525967D01*
X166077830Y-78525965D01*
X166077828Y-78525964D01*
X165863663Y-78426097D01*
X165863659Y-78426096D01*
X165863655Y-78426094D01*
X165635413Y-78364938D01*
X165635403Y-78364936D01*
X165400001Y-78344341D01*
X165399999Y-78344341D01*
X165164596Y-78364936D01*
X165164586Y-78364938D01*
X164936344Y-78426094D01*
X164936335Y-78426098D01*
X164722171Y-78525964D01*
X164722169Y-78525965D01*
X164528597Y-78661505D01*
X164361505Y-78828597D01*
X164225965Y-79022169D01*
X164225964Y-79022171D01*
X164126098Y-79236335D01*
X164126094Y-79236344D01*
X164064938Y-79464586D01*
X164064936Y-79464596D01*
X164044341Y-79699999D01*
X155932079Y-79699999D01*
X156029816Y-79602262D01*
X156125789Y-79449522D01*
X156185368Y-79279255D01*
X156185369Y-79279243D01*
X156185473Y-79278793D01*
X156185624Y-79278522D01*
X156187668Y-79272682D01*
X156188690Y-79273039D01*
X156219573Y-79217809D01*
X156273017Y-79188626D01*
X156272682Y-79187668D01*
X156278504Y-79185630D01*
X156278793Y-79185473D01*
X156279243Y-79185369D01*
X156279255Y-79185368D01*
X156449522Y-79125789D01*
X156602262Y-79029816D01*
X156729816Y-78902262D01*
X156825789Y-78749522D01*
X156885368Y-78579255D01*
X156891372Y-78525967D01*
X156905565Y-78400003D01*
X156905565Y-78399996D01*
X156885369Y-78220750D01*
X156885368Y-78220745D01*
X156825788Y-78050476D01*
X156729815Y-77897737D01*
X156602262Y-77770184D01*
X156449523Y-77674211D01*
X156279254Y-77614631D01*
X156279250Y-77614630D01*
X156175616Y-77602954D01*
X156111202Y-77575887D01*
X156071647Y-77518292D01*
X156065500Y-77479734D01*
X156065500Y-77317940D01*
X156085185Y-77250901D01*
X156101819Y-77230259D01*
X156129816Y-77202262D01*
X156225789Y-77049522D01*
X156285368Y-76879255D01*
X156285369Y-76879249D01*
X156305565Y-76700003D01*
X156305565Y-76699996D01*
X156285369Y-76520750D01*
X156285368Y-76520745D01*
X156283825Y-76516335D01*
X156225789Y-76350478D01*
X156129816Y-76197738D01*
X156002262Y-76070184D01*
X155849523Y-75974211D01*
X155679254Y-75914631D01*
X155679249Y-75914630D01*
X155500004Y-75894435D01*
X155499996Y-75894435D01*
X155320750Y-75914630D01*
X155320745Y-75914631D01*
X155150476Y-75974211D01*
X154997737Y-76070184D01*
X154870184Y-76197737D01*
X154774211Y-76350476D01*
X154714631Y-76520745D01*
X154714630Y-76520750D01*
X154694435Y-76699996D01*
X154694435Y-76700003D01*
X154714630Y-76879249D01*
X154714632Y-76879257D01*
X154755948Y-76997332D01*
X154759509Y-77067111D01*
X154724780Y-77127738D01*
X154662787Y-77159965D01*
X154593211Y-77153559D01*
X154538143Y-77110556D01*
X154533924Y-77104275D01*
X154529816Y-77097738D01*
X154402262Y-76970184D01*
X154249523Y-76874211D01*
X154079254Y-76814631D01*
X154079249Y-76814630D01*
X153900004Y-76794435D01*
X153899996Y-76794435D01*
X153720750Y-76814630D01*
X153720745Y-76814631D01*
X153550476Y-76874211D01*
X153397737Y-76970184D01*
X153270184Y-77097737D01*
X153174211Y-77250476D01*
X153114631Y-77420745D01*
X153114630Y-77420750D01*
X153094435Y-77599996D01*
X148748724Y-77599996D01*
X148775334Y-77532195D01*
X148835383Y-77269103D01*
X148855549Y-77000000D01*
X148854050Y-76980000D01*
X148835383Y-76730898D01*
X148835383Y-76730897D01*
X148775334Y-76467805D01*
X148676743Y-76216602D01*
X148541815Y-75982898D01*
X148373561Y-75771915D01*
X148373560Y-75771914D01*
X148373557Y-75771910D01*
X148175741Y-75588365D01*
X147952775Y-75436349D01*
X147952769Y-75436346D01*
X147952768Y-75436345D01*
X147952767Y-75436344D01*
X147709643Y-75319263D01*
X147709645Y-75319263D01*
X147451773Y-75239720D01*
X147451767Y-75239718D01*
X147184936Y-75199500D01*
X147184929Y-75199500D01*
X146915071Y-75199500D01*
X146915063Y-75199500D01*
X146648232Y-75239718D01*
X146648226Y-75239720D01*
X146390358Y-75319262D01*
X146147230Y-75436346D01*
X145924258Y-75588365D01*
X145726442Y-75771910D01*
X145558185Y-75982898D01*
X145423258Y-76216599D01*
X145423256Y-76216603D01*
X145324666Y-76467804D01*
X145324664Y-76467811D01*
X145264616Y-76730898D01*
X145244451Y-76999995D01*
X127755549Y-76999995D01*
X127754050Y-76980000D01*
X127735383Y-76730898D01*
X127735383Y-76730897D01*
X127675334Y-76467805D01*
X127576743Y-76216602D01*
X127441815Y-75982898D01*
X127273561Y-75771915D01*
X127273560Y-75771914D01*
X127273557Y-75771910D01*
X127075741Y-75588365D01*
X126852775Y-75436349D01*
X126852769Y-75436346D01*
X126852768Y-75436345D01*
X126852767Y-75436344D01*
X126609643Y-75319263D01*
X126609645Y-75319263D01*
X126351773Y-75239720D01*
X126351767Y-75239718D01*
X126084936Y-75199500D01*
X126084929Y-75199500D01*
X125815071Y-75199500D01*
X125815063Y-75199500D01*
X125548232Y-75239718D01*
X125548226Y-75239720D01*
X125290358Y-75319262D01*
X125047230Y-75436346D01*
X124824258Y-75588365D01*
X124626442Y-75771910D01*
X124458185Y-75982898D01*
X124323258Y-76216599D01*
X124323256Y-76216603D01*
X124224666Y-76467804D01*
X124224664Y-76467811D01*
X124164616Y-76730898D01*
X124144451Y-76999995D01*
X116300500Y-76999995D01*
X116300500Y-74439999D01*
X175044341Y-74439999D01*
X175044341Y-74440000D01*
X175064936Y-74675403D01*
X175064938Y-74675413D01*
X175126094Y-74903655D01*
X175126096Y-74903659D01*
X175126097Y-74903663D01*
X175225965Y-75117830D01*
X175225967Y-75117834D01*
X175361501Y-75311395D01*
X175361506Y-75311402D01*
X175528597Y-75478493D01*
X175528603Y-75478498D01*
X175714158Y-75608425D01*
X175757783Y-75663002D01*
X175764977Y-75732500D01*
X175733454Y-75794855D01*
X175714158Y-75811575D01*
X175528597Y-75941505D01*
X175361505Y-76108597D01*
X175225965Y-76302169D01*
X175225964Y-76302171D01*
X175126098Y-76516335D01*
X175126094Y-76516344D01*
X175064938Y-76744586D01*
X175064936Y-76744596D01*
X175044341Y-76979999D01*
X175044341Y-76980000D01*
X175064936Y-77215403D01*
X175064938Y-77215413D01*
X175126094Y-77443655D01*
X175126096Y-77443659D01*
X175126097Y-77443663D01*
X175205821Y-77614631D01*
X175225965Y-77657830D01*
X175225967Y-77657834D01*
X175361501Y-77851395D01*
X175361506Y-77851402D01*
X175528597Y-78018493D01*
X175528603Y-78018498D01*
X175714158Y-78148425D01*
X175757783Y-78203002D01*
X175764977Y-78272500D01*
X175733454Y-78334855D01*
X175714158Y-78351575D01*
X175528597Y-78481505D01*
X175361505Y-78648597D01*
X175225965Y-78842169D01*
X175225964Y-78842171D01*
X175126098Y-79056335D01*
X175126094Y-79056344D01*
X175064938Y-79284586D01*
X175064936Y-79284596D01*
X175044341Y-79519999D01*
X175044341Y-79520000D01*
X175064936Y-79755403D01*
X175064938Y-79755413D01*
X175126094Y-79983655D01*
X175126096Y-79983659D01*
X175126097Y-79983663D01*
X175210029Y-80163655D01*
X175225965Y-80197830D01*
X175225967Y-80197834D01*
X175322029Y-80335023D01*
X175352002Y-80377830D01*
X175361501Y-80391395D01*
X175361506Y-80391402D01*
X175528597Y-80558493D01*
X175528603Y-80558498D01*
X175714158Y-80688425D01*
X175757783Y-80743002D01*
X175764977Y-80812500D01*
X175733454Y-80874855D01*
X175714158Y-80891575D01*
X175528597Y-81021505D01*
X175361505Y-81188597D01*
X175225965Y-81382169D01*
X175225964Y-81382171D01*
X175126098Y-81596335D01*
X175126094Y-81596344D01*
X175064938Y-81824586D01*
X175064936Y-81824596D01*
X175044341Y-82059999D01*
X175044341Y-82060000D01*
X175064936Y-82295403D01*
X175064938Y-82295413D01*
X175126094Y-82523655D01*
X175126096Y-82523659D01*
X175126097Y-82523663D01*
X175225965Y-82737830D01*
X175225967Y-82737834D01*
X175361501Y-82931395D01*
X175361506Y-82931402D01*
X175528597Y-83098493D01*
X175528603Y-83098498D01*
X175714158Y-83228425D01*
X175757783Y-83283002D01*
X175764977Y-83352500D01*
X175733454Y-83414855D01*
X175714158Y-83431575D01*
X175528597Y-83561505D01*
X175361505Y-83728597D01*
X175225965Y-83922169D01*
X175225964Y-83922171D01*
X175126098Y-84136335D01*
X175126094Y-84136344D01*
X175064938Y-84364586D01*
X175064936Y-84364596D01*
X175044341Y-84599999D01*
X175044341Y-84600000D01*
X175064936Y-84835403D01*
X175064938Y-84835413D01*
X175126094Y-85063655D01*
X175126096Y-85063659D01*
X175126097Y-85063663D01*
X175225965Y-85277830D01*
X175225967Y-85277834D01*
X175361501Y-85471395D01*
X175361506Y-85471402D01*
X175528597Y-85638493D01*
X175528603Y-85638498D01*
X175714158Y-85768425D01*
X175757783Y-85823002D01*
X175764977Y-85892500D01*
X175733454Y-85954855D01*
X175714158Y-85971575D01*
X175528597Y-86101505D01*
X175361505Y-86268597D01*
X175225965Y-86462169D01*
X175225964Y-86462171D01*
X175126098Y-86676335D01*
X175126094Y-86676344D01*
X175064938Y-86904586D01*
X175064936Y-86904596D01*
X175044341Y-87139999D01*
X175044341Y-87140000D01*
X175064936Y-87375403D01*
X175064938Y-87375413D01*
X175126094Y-87603655D01*
X175126096Y-87603659D01*
X175126097Y-87603663D01*
X175225965Y-87817830D01*
X175225967Y-87817834D01*
X175361501Y-88011395D01*
X175361506Y-88011402D01*
X175528597Y-88178493D01*
X175528603Y-88178498D01*
X175714158Y-88308425D01*
X175757783Y-88363002D01*
X175764977Y-88432500D01*
X175733454Y-88494855D01*
X175714158Y-88511575D01*
X175528597Y-88641505D01*
X175361505Y-88808597D01*
X175225965Y-89002169D01*
X175225964Y-89002171D01*
X175126098Y-89216335D01*
X175126094Y-89216344D01*
X175064938Y-89444586D01*
X175064936Y-89444596D01*
X175044341Y-89679999D01*
X175044341Y-89680000D01*
X175064936Y-89915403D01*
X175064938Y-89915413D01*
X175126094Y-90143655D01*
X175126096Y-90143659D01*
X175126097Y-90143663D01*
X175153363Y-90202135D01*
X175225965Y-90357830D01*
X175225967Y-90357834D01*
X175270022Y-90420750D01*
X175361505Y-90551401D01*
X175528599Y-90718495D01*
X175615365Y-90779249D01*
X175722165Y-90854032D01*
X175722167Y-90854033D01*
X175722170Y-90854035D01*
X175936337Y-90953903D01*
X176164592Y-91015063D01*
X176352918Y-91031539D01*
X176399999Y-91035659D01*
X176400000Y-91035659D01*
X176400001Y-91035659D01*
X176439234Y-91032226D01*
X176635408Y-91015063D01*
X176863663Y-90953903D01*
X177077830Y-90854035D01*
X177271401Y-90718495D01*
X177438495Y-90551401D01*
X177574035Y-90357830D01*
X177673903Y-90143663D01*
X177735063Y-89915408D01*
X177755659Y-89680000D01*
X177735063Y-89444592D01*
X177673903Y-89216337D01*
X177574035Y-89002171D01*
X177438495Y-88808599D01*
X177438494Y-88808597D01*
X177271402Y-88641506D01*
X177271396Y-88641501D01*
X177085842Y-88511575D01*
X177042217Y-88456998D01*
X177035023Y-88387500D01*
X177066546Y-88325145D01*
X177085842Y-88308425D01*
X177108026Y-88292891D01*
X177271401Y-88178495D01*
X177438495Y-88011401D01*
X177574035Y-87817830D01*
X177673903Y-87603663D01*
X177735063Y-87375408D01*
X177755659Y-87140000D01*
X177735063Y-86904592D01*
X177679674Y-86697876D01*
X177673905Y-86676344D01*
X177673904Y-86676343D01*
X177673903Y-86676337D01*
X177574035Y-86462171D01*
X177460485Y-86300003D01*
X177438494Y-86268597D01*
X177271402Y-86101506D01*
X177271396Y-86101501D01*
X177085842Y-85971575D01*
X177042217Y-85916998D01*
X177035023Y-85847500D01*
X177066546Y-85785145D01*
X177085842Y-85768425D01*
X177135831Y-85733422D01*
X177271401Y-85638495D01*
X177438495Y-85471401D01*
X177574035Y-85277830D01*
X177673903Y-85063663D01*
X177735063Y-84835408D01*
X177755659Y-84600000D01*
X177735063Y-84364592D01*
X177673903Y-84136337D01*
X177574035Y-83922171D01*
X177473961Y-83779249D01*
X177438494Y-83728597D01*
X177271402Y-83561506D01*
X177271396Y-83561501D01*
X177085842Y-83431575D01*
X177042217Y-83376998D01*
X177035023Y-83307500D01*
X177066546Y-83245145D01*
X177085842Y-83228425D01*
X177108026Y-83212891D01*
X177271401Y-83098495D01*
X177438495Y-82931401D01*
X177574035Y-82737830D01*
X177673903Y-82523663D01*
X177735063Y-82295408D01*
X177755659Y-82060000D01*
X177735063Y-81824592D01*
X177673903Y-81596337D01*
X177574035Y-81382171D01*
X177438495Y-81188599D01*
X177438494Y-81188597D01*
X177271402Y-81021506D01*
X177271396Y-81021501D01*
X177085842Y-80891575D01*
X177042217Y-80836998D01*
X177035023Y-80767500D01*
X177066546Y-80705145D01*
X177085842Y-80688425D01*
X177108026Y-80672891D01*
X177271401Y-80558495D01*
X177438495Y-80391401D01*
X177574035Y-80197830D01*
X177673903Y-79983663D01*
X177735063Y-79755408D01*
X177755659Y-79520000D01*
X177735063Y-79284592D01*
X177675622Y-79062751D01*
X177673905Y-79056344D01*
X177673904Y-79056343D01*
X177673903Y-79056337D01*
X177574035Y-78842171D01*
X177564531Y-78828597D01*
X177438494Y-78648597D01*
X177271402Y-78481506D01*
X177271396Y-78481501D01*
X177085842Y-78351575D01*
X177042217Y-78296998D01*
X177035023Y-78227500D01*
X177066546Y-78165145D01*
X177085842Y-78148425D01*
X177151769Y-78102262D01*
X177271401Y-78018495D01*
X177438495Y-77851401D01*
X177574035Y-77657830D01*
X177673903Y-77443663D01*
X177735063Y-77215408D01*
X177755659Y-76980000D01*
X177735063Y-76744592D01*
X177688626Y-76571285D01*
X177673905Y-76516344D01*
X177673904Y-76516343D01*
X177673903Y-76516337D01*
X177574035Y-76302171D01*
X177514120Y-76216602D01*
X177438494Y-76108597D01*
X177271402Y-75941506D01*
X177271396Y-75941501D01*
X177085842Y-75811575D01*
X177042217Y-75756998D01*
X177035023Y-75687500D01*
X177066546Y-75625145D01*
X177085842Y-75608425D01*
X177108026Y-75592891D01*
X177271401Y-75478495D01*
X177438495Y-75311401D01*
X177574035Y-75117830D01*
X177673903Y-74903663D01*
X177735063Y-74675408D01*
X177755659Y-74440000D01*
X177735063Y-74204592D01*
X177673903Y-73976337D01*
X177574035Y-73762171D01*
X177438495Y-73568599D01*
X177438494Y-73568597D01*
X177271402Y-73401506D01*
X177271395Y-73401501D01*
X177077834Y-73265967D01*
X177077830Y-73265965D01*
X177077828Y-73265964D01*
X176863663Y-73166097D01*
X176863659Y-73166096D01*
X176863655Y-73166094D01*
X176635413Y-73104938D01*
X176635403Y-73104936D01*
X176400001Y-73084341D01*
X176399999Y-73084341D01*
X176164596Y-73104936D01*
X176164586Y-73104938D01*
X175936344Y-73166094D01*
X175936335Y-73166098D01*
X175722171Y-73265964D01*
X175722169Y-73265965D01*
X175528597Y-73401505D01*
X175361505Y-73568597D01*
X175225965Y-73762169D01*
X175225964Y-73762171D01*
X175126098Y-73976335D01*
X175126094Y-73976344D01*
X175064938Y-74204586D01*
X175064936Y-74204596D01*
X175044341Y-74439999D01*
X116300500Y-74439999D01*
X116300500Y-70003051D01*
X116300649Y-69996967D01*
X116306619Y-69875441D01*
X118099500Y-69875441D01*
X118099500Y-70124558D01*
X118099501Y-70124575D01*
X118132017Y-70371561D01*
X118196498Y-70612207D01*
X118291830Y-70842361D01*
X118291837Y-70842376D01*
X118416400Y-71058126D01*
X118568060Y-71255774D01*
X118568066Y-71255781D01*
X118744218Y-71431933D01*
X118744225Y-71431939D01*
X118941873Y-71583599D01*
X119157623Y-71708162D01*
X119157638Y-71708169D01*
X119256825Y-71749253D01*
X119387793Y-71803502D01*
X119628435Y-71867982D01*
X119875435Y-71900500D01*
X119875442Y-71900500D01*
X120124558Y-71900500D01*
X120124565Y-71900500D01*
X120371565Y-71867982D01*
X120612207Y-71803502D01*
X120842373Y-71708164D01*
X121058127Y-71583599D01*
X121255776Y-71431938D01*
X121431938Y-71255776D01*
X121583599Y-71058127D01*
X121596068Y-71036530D01*
X149229500Y-71036530D01*
X149229500Y-71843469D01*
X149269868Y-72046412D01*
X149269870Y-72046420D01*
X149349058Y-72237596D01*
X149464024Y-72409657D01*
X149610342Y-72555975D01*
X149610345Y-72555977D01*
X149782402Y-72670941D01*
X149973580Y-72750130D01*
X150176530Y-72790499D01*
X150176534Y-72790500D01*
X150176535Y-72790500D01*
X150383466Y-72790500D01*
X150383467Y-72790499D01*
X150586420Y-72750130D01*
X150777598Y-72670941D01*
X150949655Y-72555977D01*
X151095977Y-72409655D01*
X151210941Y-72237598D01*
X151290130Y-72046420D01*
X151330500Y-71843465D01*
X151330500Y-71036535D01*
X151330499Y-71036530D01*
X157869500Y-71036530D01*
X157869500Y-71843469D01*
X157909868Y-72046412D01*
X157909870Y-72046420D01*
X157989058Y-72237596D01*
X158104024Y-72409657D01*
X158250342Y-72555975D01*
X158250345Y-72555977D01*
X158422402Y-72670941D01*
X158613580Y-72750130D01*
X158816530Y-72790499D01*
X158816534Y-72790500D01*
X158816535Y-72790500D01*
X159023466Y-72790500D01*
X159023467Y-72790499D01*
X159226420Y-72750130D01*
X159417598Y-72670941D01*
X159589655Y-72555977D01*
X159735977Y-72409655D01*
X159850941Y-72237598D01*
X159930130Y-72046420D01*
X159970500Y-71843465D01*
X159970500Y-71036535D01*
X159930130Y-70833580D01*
X159850941Y-70642402D01*
X159735977Y-70470345D01*
X159735975Y-70470342D01*
X159589657Y-70324024D01*
X159503626Y-70266541D01*
X159417598Y-70209059D01*
X159226420Y-70129870D01*
X159226412Y-70129868D01*
X159023469Y-70089500D01*
X159023465Y-70089500D01*
X158816535Y-70089500D01*
X158816530Y-70089500D01*
X158613587Y-70129868D01*
X158613579Y-70129870D01*
X158422403Y-70209058D01*
X158250342Y-70324024D01*
X158104024Y-70470342D01*
X157989058Y-70642403D01*
X157909870Y-70833579D01*
X157909868Y-70833587D01*
X157869500Y-71036530D01*
X151330499Y-71036530D01*
X151290130Y-70833580D01*
X151210941Y-70642402D01*
X151095977Y-70470345D01*
X151095975Y-70470342D01*
X150949657Y-70324024D01*
X150863626Y-70266541D01*
X150777598Y-70209059D01*
X150586420Y-70129870D01*
X150586412Y-70129868D01*
X150383469Y-70089500D01*
X150383465Y-70089500D01*
X150176535Y-70089500D01*
X150176530Y-70089500D01*
X149973587Y-70129868D01*
X149973579Y-70129870D01*
X149782403Y-70209058D01*
X149610342Y-70324024D01*
X149464024Y-70470342D01*
X149349058Y-70642403D01*
X149269870Y-70833579D01*
X149269868Y-70833587D01*
X149229500Y-71036530D01*
X121596068Y-71036530D01*
X121708164Y-70842373D01*
X121803502Y-70612207D01*
X121867982Y-70371565D01*
X121900500Y-70124565D01*
X121900500Y-69875441D01*
X180099500Y-69875441D01*
X180099500Y-70124558D01*
X180099501Y-70124575D01*
X180132017Y-70371561D01*
X180196498Y-70612207D01*
X180291830Y-70842361D01*
X180291837Y-70842376D01*
X180416400Y-71058126D01*
X180568060Y-71255774D01*
X180568066Y-71255781D01*
X180744218Y-71431933D01*
X180744225Y-71431939D01*
X180941873Y-71583599D01*
X181157623Y-71708162D01*
X181157638Y-71708169D01*
X181256825Y-71749253D01*
X181387793Y-71803502D01*
X181628435Y-71867982D01*
X181875435Y-71900500D01*
X181875442Y-71900500D01*
X182124558Y-71900500D01*
X182124565Y-71900500D01*
X182371565Y-71867982D01*
X182612207Y-71803502D01*
X182842373Y-71708164D01*
X183058127Y-71583599D01*
X183255776Y-71431938D01*
X183431938Y-71255776D01*
X183583599Y-71058127D01*
X183708164Y-70842373D01*
X183803502Y-70612207D01*
X183867982Y-70371565D01*
X183900500Y-70124565D01*
X183900500Y-69875435D01*
X183867982Y-69628435D01*
X183803502Y-69387793D01*
X183708164Y-69157627D01*
X183583599Y-68941873D01*
X183529171Y-68870941D01*
X183431939Y-68744225D01*
X183431933Y-68744218D01*
X183255781Y-68568066D01*
X183255774Y-68568060D01*
X183058126Y-68416400D01*
X182842376Y-68291837D01*
X182842361Y-68291830D01*
X182612207Y-68196498D01*
X182371561Y-68132017D01*
X182124575Y-68099501D01*
X182124570Y-68099500D01*
X182124565Y-68099500D01*
X181875435Y-68099500D01*
X181875429Y-68099500D01*
X181875424Y-68099501D01*
X181628438Y-68132017D01*
X181387792Y-68196498D01*
X181157638Y-68291830D01*
X181157623Y-68291837D01*
X180941873Y-68416400D01*
X180744225Y-68568060D01*
X180744218Y-68568066D01*
X180568066Y-68744218D01*
X180568060Y-68744225D01*
X180416400Y-68941873D01*
X180291837Y-69157623D01*
X180291830Y-69157638D01*
X180196498Y-69387792D01*
X180132017Y-69628438D01*
X180099501Y-69875424D01*
X180099500Y-69875441D01*
X121900500Y-69875441D01*
X121900500Y-69875435D01*
X121867982Y-69628435D01*
X121803502Y-69387793D01*
X121708164Y-69157627D01*
X121583599Y-68941873D01*
X121529171Y-68870941D01*
X121431939Y-68744225D01*
X121431933Y-68744218D01*
X121255781Y-68568066D01*
X121255774Y-68568060D01*
X121058126Y-68416400D01*
X120842376Y-68291837D01*
X120842361Y-68291830D01*
X120612207Y-68196498D01*
X120371561Y-68132017D01*
X120124575Y-68099501D01*
X120124570Y-68099500D01*
X120124565Y-68099500D01*
X119875435Y-68099500D01*
X119875429Y-68099500D01*
X119875424Y-68099501D01*
X119628438Y-68132017D01*
X119387792Y-68196498D01*
X119157638Y-68291830D01*
X119157623Y-68291837D01*
X118941873Y-68416400D01*
X118744225Y-68568060D01*
X118744218Y-68568066D01*
X118568066Y-68744218D01*
X118568060Y-68744225D01*
X118416400Y-68941873D01*
X118291837Y-69157623D01*
X118291830Y-69157638D01*
X118196498Y-69387792D01*
X118132017Y-69628438D01*
X118099501Y-69875424D01*
X118099500Y-69875441D01*
X116306619Y-69875441D01*
X116306620Y-69875424D01*
X116318015Y-69643465D01*
X116319208Y-69631359D01*
X116352752Y-69405224D01*
X116370692Y-69284278D01*
X116373061Y-69272367D01*
X116458322Y-68931986D01*
X116461852Y-68920353D01*
X116524873Y-68744224D01*
X116580055Y-68589999D01*
X116584710Y-68578762D01*
X116661501Y-68416400D01*
X116734735Y-68261557D01*
X116740454Y-68250857D01*
X116920851Y-67949884D01*
X116927594Y-67939791D01*
X117136630Y-67657939D01*
X117144333Y-67648554D01*
X117379983Y-67388553D01*
X117388553Y-67379983D01*
X117648554Y-67144333D01*
X117657939Y-67136630D01*
X117939791Y-66927594D01*
X117949884Y-66920851D01*
X118250857Y-66740454D01*
X118261557Y-66734735D01*
X118578762Y-66584710D01*
X118589999Y-66580055D01*
X118920361Y-66461849D01*
X118931986Y-66458322D01*
X119272367Y-66373061D01*
X119284278Y-66370692D01*
X119631359Y-66319207D01*
X119643465Y-66318015D01*
X119996967Y-66300648D01*
X120003051Y-66300500D01*
X120047595Y-66300500D01*
X149536151Y-66300500D01*
X149603190Y-66320185D01*
G37*
%TD.AperFunction*%
%TD*%
M02*
