M48
; DRILL file {KiCad 8.0.3} date 2024-06-16T18:07:52+1200
; FORMAT={-:-/ absolute / metric / decimal}
; #@! TF.CreationDate,2024-06-16T18:07:52+12:00
; #@! TF.GenerationSoftware,Kicad,Pcbnew,8.0.3
; #@! TF.FileFunction,Plated,1,2,PTH
FMAT,2
METRIC
; #@! TA.AperFunction,Plated,PTH,ViaDrill
T1C0.300
; #@! TA.AperFunction,Plated,PTH,ViaDrill
T2C0.500
; #@! TA.AperFunction,Plated,PTH,ComponentDrill
T3C0.600
; #@! TA.AperFunction,Plated,PTH,ViaDrill
T4C0.800
; #@! TA.AperFunction,Plated,PTH,ComponentDrill
T5C0.800
; #@! TA.AperFunction,Plated,PTH,ComponentDrill
T6C1.000
; #@! TA.AperFunction,Plated,PTH,ComponentDrill
T7C1.900
%
G90
G05
T1
X119.888Y-80.645
X127.8Y-98.4
X129.5Y-98.4
X132.3Y-94.0
X132.7Y-87.6
X132.7Y-89.9
X147.2Y-88.6
X148.2Y-95.3
X151.003Y-76.835
X151.8Y-90.3
X152.0Y-83.1
X153.543Y-74.93
X153.9Y-87.6
X153.9Y-93.9
X155.5Y-84.8
X155.702Y-74.93
X156.8Y-96.1
X157.0Y-89.7
X157.1Y-92.4
X158.2Y-92.7
X158.242Y-76.835
X158.3Y-96.1
X159.004Y-77.978
X159.4Y-90.6
X159.766Y-77.343
X160.147Y-79.121
X160.782Y-78.486
X161.036Y-72.39
X162.052Y-83.439
X162.052Y-86.36
X162.941Y-83.439
X162.941Y-86.36
X172.212Y-88.9
X172.339Y-87.376
X173.228Y-86.233
X173.228Y-88.9
X174.244Y-84.836
X174.244Y-88.9
T2
X124.079Y-88.773
X160.5Y-82.1
X164.1Y-96.1
X170.9Y-87.3
T4
X130.0Y-84.5
X151.806Y-69.964
X151.806Y-73.012
X157.394Y-73.012
X170.033Y-75.434
X172.065Y-73.402
X172.065Y-75.434
T5
X170.28Y-94.975
X173.28Y-94.975
T6
X119.888Y-88.778
X119.888Y-91.318
X134.493Y-91.949
X134.493Y-99.949
X137.033Y-91.949
X137.033Y-99.949
X139.573Y-91.949
X139.573Y-99.949
X142.113Y-91.949
X142.113Y-99.949
X151.06Y-85.8
X153.6Y-85.8
X162.86Y-79.7
X165.4Y-79.7
X167.94Y-79.7
X170.48Y-79.7
X178.435Y-80.42
X178.435Y-82.96
X178.435Y-85.5
X178.435Y-88.04
X178.435Y-90.58
X180.975Y-80.42
X180.975Y-82.96
X180.975Y-85.5
X180.975Y-88.04
X180.975Y-90.58
T7
X125.95Y-77.0
X147.05Y-77.0
T3
G00X150.28Y-67.94
M15
G01X150.28Y-67.34
M16
G05
G00X150.28Y-71.74
M15
G01X150.28Y-71.14
M16
G05
G00X158.92Y-67.94
M15
G01X158.92Y-67.34
M16
G05
G00X158.92Y-71.74
M15
G01X158.92Y-71.14
M16
G05
M30
