%TF.GenerationSoftware,KiCad,Pcbnew,8.0.3*%
%TF.CreationDate,2024-06-07T01:40:52+12:00*%
%TF.ProjectId,microcontroller,6d696372-6f63-46f6-9e74-726f6c6c6572,0.1.2*%
%TF.SameCoordinates,Original*%
%TF.FileFunction,Legend,Top*%
%TF.FilePolarity,Positive*%
%FSLAX46Y46*%
G04 Gerber Fmt 4.6, Leading zero omitted, Abs format (unit mm)*
G04 Created by KiCad (PCBNEW 8.0.3) date 2024-06-07 01:40:52*
%MOMM*%
%LPD*%
G01*
G04 APERTURE LIST*
%ADD10C,0.153000*%
%ADD11C,0.120000*%
%ADD12C,0.300000*%
G04 APERTURE END LIST*
D10*
X119305942Y-93976663D02*
X118829752Y-93976663D01*
X118829752Y-93976663D02*
X118829752Y-92976663D01*
X119639276Y-93452853D02*
X119972609Y-93452853D01*
X120115466Y-93976663D02*
X119639276Y-93976663D01*
X119639276Y-93976663D02*
X119639276Y-92976663D01*
X119639276Y-92976663D02*
X120115466Y-92976663D01*
X120544038Y-93976663D02*
X120544038Y-92976663D01*
X120544038Y-92976663D02*
X120782133Y-92976663D01*
X120782133Y-92976663D02*
X120924990Y-93024282D01*
X120924990Y-93024282D02*
X121020228Y-93119520D01*
X121020228Y-93119520D02*
X121067847Y-93214758D01*
X121067847Y-93214758D02*
X121115466Y-93405234D01*
X121115466Y-93405234D02*
X121115466Y-93548091D01*
X121115466Y-93548091D02*
X121067847Y-93738567D01*
X121067847Y-93738567D02*
X121020228Y-93833805D01*
X121020228Y-93833805D02*
X120924990Y-93929044D01*
X120924990Y-93929044D02*
X120782133Y-93976663D01*
X120782133Y-93976663D02*
X120544038Y-93976663D01*
X161618752Y-82088710D02*
X162380657Y-82088710D01*
X164190180Y-82374424D02*
X164142561Y-82422044D01*
X164142561Y-82422044D02*
X163999704Y-82469663D01*
X163999704Y-82469663D02*
X163904466Y-82469663D01*
X163904466Y-82469663D02*
X163761609Y-82422044D01*
X163761609Y-82422044D02*
X163666371Y-82326805D01*
X163666371Y-82326805D02*
X163618752Y-82231567D01*
X163618752Y-82231567D02*
X163571133Y-82041091D01*
X163571133Y-82041091D02*
X163571133Y-81898234D01*
X163571133Y-81898234D02*
X163618752Y-81707758D01*
X163618752Y-81707758D02*
X163666371Y-81612520D01*
X163666371Y-81612520D02*
X163761609Y-81517282D01*
X163761609Y-81517282D02*
X163904466Y-81469663D01*
X163904466Y-81469663D02*
X163999704Y-81469663D01*
X163999704Y-81469663D02*
X164142561Y-81517282D01*
X164142561Y-81517282D02*
X164190180Y-81564901D01*
X165094942Y-82469663D02*
X164618752Y-82469663D01*
X164618752Y-82469663D02*
X164618752Y-81469663D01*
X165428276Y-82469663D02*
X165428276Y-81469663D01*
X165999704Y-82469663D02*
X165571133Y-81898234D01*
X165999704Y-81469663D02*
X165428276Y-82041091D01*
X167190181Y-82469663D02*
X167190181Y-81469663D01*
X167190181Y-81469663D02*
X167428276Y-81469663D01*
X167428276Y-81469663D02*
X167571133Y-81517282D01*
X167571133Y-81517282D02*
X167666371Y-81612520D01*
X167666371Y-81612520D02*
X167713990Y-81707758D01*
X167713990Y-81707758D02*
X167761609Y-81898234D01*
X167761609Y-81898234D02*
X167761609Y-82041091D01*
X167761609Y-82041091D02*
X167713990Y-82231567D01*
X167713990Y-82231567D02*
X167666371Y-82326805D01*
X167666371Y-82326805D02*
X167571133Y-82422044D01*
X167571133Y-82422044D02*
X167428276Y-82469663D01*
X167428276Y-82469663D02*
X167190181Y-82469663D01*
X168190181Y-82469663D02*
X168190181Y-81469663D01*
X168856847Y-81469663D02*
X169047323Y-81469663D01*
X169047323Y-81469663D02*
X169142561Y-81517282D01*
X169142561Y-81517282D02*
X169237799Y-81612520D01*
X169237799Y-81612520D02*
X169285418Y-81802996D01*
X169285418Y-81802996D02*
X169285418Y-82136329D01*
X169285418Y-82136329D02*
X169237799Y-82326805D01*
X169237799Y-82326805D02*
X169142561Y-82422044D01*
X169142561Y-82422044D02*
X169047323Y-82469663D01*
X169047323Y-82469663D02*
X168856847Y-82469663D01*
X168856847Y-82469663D02*
X168761609Y-82422044D01*
X168761609Y-82422044D02*
X168666371Y-82326805D01*
X168666371Y-82326805D02*
X168618752Y-82136329D01*
X168618752Y-82136329D02*
X168618752Y-81802996D01*
X168618752Y-81802996D02*
X168666371Y-81612520D01*
X168666371Y-81612520D02*
X168761609Y-81517282D01*
X168761609Y-81517282D02*
X168856847Y-81469663D01*
X170475895Y-82088710D02*
X171237800Y-82088710D01*
X170856847Y-82469663D02*
X170856847Y-81707758D01*
X150472085Y-83645853D02*
X150614942Y-83693472D01*
X150614942Y-83693472D02*
X150662561Y-83741091D01*
X150662561Y-83741091D02*
X150710180Y-83836329D01*
X150710180Y-83836329D02*
X150710180Y-83979186D01*
X150710180Y-83979186D02*
X150662561Y-84074424D01*
X150662561Y-84074424D02*
X150614942Y-84122044D01*
X150614942Y-84122044D02*
X150519704Y-84169663D01*
X150519704Y-84169663D02*
X150138752Y-84169663D01*
X150138752Y-84169663D02*
X150138752Y-83169663D01*
X150138752Y-83169663D02*
X150472085Y-83169663D01*
X150472085Y-83169663D02*
X150567323Y-83217282D01*
X150567323Y-83217282D02*
X150614942Y-83264901D01*
X150614942Y-83264901D02*
X150662561Y-83360139D01*
X150662561Y-83360139D02*
X150662561Y-83455377D01*
X150662561Y-83455377D02*
X150614942Y-83550615D01*
X150614942Y-83550615D02*
X150567323Y-83598234D01*
X150567323Y-83598234D02*
X150472085Y-83645853D01*
X150472085Y-83645853D02*
X150138752Y-83645853D01*
X151329228Y-83169663D02*
X151424466Y-83169663D01*
X151424466Y-83169663D02*
X151519704Y-83217282D01*
X151519704Y-83217282D02*
X151567323Y-83264901D01*
X151567323Y-83264901D02*
X151614942Y-83360139D01*
X151614942Y-83360139D02*
X151662561Y-83550615D01*
X151662561Y-83550615D02*
X151662561Y-83788710D01*
X151662561Y-83788710D02*
X151614942Y-83979186D01*
X151614942Y-83979186D02*
X151567323Y-84074424D01*
X151567323Y-84074424D02*
X151519704Y-84122044D01*
X151519704Y-84122044D02*
X151424466Y-84169663D01*
X151424466Y-84169663D02*
X151329228Y-84169663D01*
X151329228Y-84169663D02*
X151233990Y-84122044D01*
X151233990Y-84122044D02*
X151186371Y-84074424D01*
X151186371Y-84074424D02*
X151138752Y-83979186D01*
X151138752Y-83979186D02*
X151091133Y-83788710D01*
X151091133Y-83788710D02*
X151091133Y-83550615D01*
X151091133Y-83550615D02*
X151138752Y-83360139D01*
X151138752Y-83360139D02*
X151186371Y-83264901D01*
X151186371Y-83264901D02*
X151233990Y-83217282D01*
X151233990Y-83217282D02*
X151329228Y-83169663D01*
X174739424Y-71504857D02*
X174787044Y-71552476D01*
X174787044Y-71552476D02*
X174834663Y-71695333D01*
X174834663Y-71695333D02*
X174834663Y-71790571D01*
X174834663Y-71790571D02*
X174787044Y-71933428D01*
X174787044Y-71933428D02*
X174691805Y-72028666D01*
X174691805Y-72028666D02*
X174596567Y-72076285D01*
X174596567Y-72076285D02*
X174406091Y-72123904D01*
X174406091Y-72123904D02*
X174263234Y-72123904D01*
X174263234Y-72123904D02*
X174072758Y-72076285D01*
X174072758Y-72076285D02*
X173977520Y-72028666D01*
X173977520Y-72028666D02*
X173882282Y-71933428D01*
X173882282Y-71933428D02*
X173834663Y-71790571D01*
X173834663Y-71790571D02*
X173834663Y-71695333D01*
X173834663Y-71695333D02*
X173882282Y-71552476D01*
X173882282Y-71552476D02*
X173929901Y-71504857D01*
X174834663Y-70552476D02*
X174834663Y-71123904D01*
X174834663Y-70838190D02*
X173834663Y-70838190D01*
X173834663Y-70838190D02*
X173977520Y-70933428D01*
X173977520Y-70933428D02*
X174072758Y-71028666D01*
X174072758Y-71028666D02*
X174120377Y-71123904D01*
X173834663Y-69933428D02*
X173834663Y-69838190D01*
X173834663Y-69838190D02*
X173882282Y-69742952D01*
X173882282Y-69742952D02*
X173929901Y-69695333D01*
X173929901Y-69695333D02*
X174025139Y-69647714D01*
X174025139Y-69647714D02*
X174215615Y-69600095D01*
X174215615Y-69600095D02*
X174453710Y-69600095D01*
X174453710Y-69600095D02*
X174644186Y-69647714D01*
X174644186Y-69647714D02*
X174739424Y-69695333D01*
X174739424Y-69695333D02*
X174787044Y-69742952D01*
X174787044Y-69742952D02*
X174834663Y-69838190D01*
X174834663Y-69838190D02*
X174834663Y-69933428D01*
X174834663Y-69933428D02*
X174787044Y-70028666D01*
X174787044Y-70028666D02*
X174739424Y-70076285D01*
X174739424Y-70076285D02*
X174644186Y-70123904D01*
X174644186Y-70123904D02*
X174453710Y-70171523D01*
X174453710Y-70171523D02*
X174215615Y-70171523D01*
X174215615Y-70171523D02*
X174025139Y-70123904D01*
X174025139Y-70123904D02*
X173929901Y-70076285D01*
X173929901Y-70076285D02*
X173882282Y-70028666D01*
X173882282Y-70028666D02*
X173834663Y-69933428D01*
X127762095Y-87770463D02*
X127762095Y-88579986D01*
X127762095Y-88579986D02*
X127809714Y-88675224D01*
X127809714Y-88675224D02*
X127857333Y-88722844D01*
X127857333Y-88722844D02*
X127952571Y-88770463D01*
X127952571Y-88770463D02*
X128143047Y-88770463D01*
X128143047Y-88770463D02*
X128238285Y-88722844D01*
X128238285Y-88722844D02*
X128285904Y-88675224D01*
X128285904Y-88675224D02*
X128333523Y-88579986D01*
X128333523Y-88579986D02*
X128333523Y-87770463D01*
X129333523Y-88770463D02*
X128762095Y-88770463D01*
X129047809Y-88770463D02*
X129047809Y-87770463D01*
X129047809Y-87770463D02*
X128952571Y-87913320D01*
X128952571Y-87913320D02*
X128857333Y-88008558D01*
X128857333Y-88008558D02*
X128762095Y-88056177D01*
X148066666Y-66554663D02*
X148066666Y-67268948D01*
X148066666Y-67268948D02*
X148019047Y-67411805D01*
X148019047Y-67411805D02*
X147923809Y-67507044D01*
X147923809Y-67507044D02*
X147780952Y-67554663D01*
X147780952Y-67554663D02*
X147685714Y-67554663D01*
X148971428Y-66887996D02*
X148971428Y-67554663D01*
X148733333Y-66507044D02*
X148495238Y-67221329D01*
X148495238Y-67221329D02*
X149114285Y-67221329D01*
X143897663Y-100282333D02*
X144611948Y-100282333D01*
X144611948Y-100282333D02*
X144754805Y-100329952D01*
X144754805Y-100329952D02*
X144850044Y-100425190D01*
X144850044Y-100425190D02*
X144897663Y-100568047D01*
X144897663Y-100568047D02*
X144897663Y-100663285D01*
X144897663Y-99282333D02*
X144897663Y-99853761D01*
X144897663Y-99568047D02*
X143897663Y-99568047D01*
X143897663Y-99568047D02*
X144040520Y-99663285D01*
X144040520Y-99663285D02*
X144135758Y-99758523D01*
X144135758Y-99758523D02*
X144183377Y-99853761D01*
X152759424Y-89342857D02*
X152807044Y-89390476D01*
X152807044Y-89390476D02*
X152854663Y-89533333D01*
X152854663Y-89533333D02*
X152854663Y-89628571D01*
X152854663Y-89628571D02*
X152807044Y-89771428D01*
X152807044Y-89771428D02*
X152711805Y-89866666D01*
X152711805Y-89866666D02*
X152616567Y-89914285D01*
X152616567Y-89914285D02*
X152426091Y-89961904D01*
X152426091Y-89961904D02*
X152283234Y-89961904D01*
X152283234Y-89961904D02*
X152092758Y-89914285D01*
X152092758Y-89914285D02*
X151997520Y-89866666D01*
X151997520Y-89866666D02*
X151902282Y-89771428D01*
X151902282Y-89771428D02*
X151854663Y-89628571D01*
X151854663Y-89628571D02*
X151854663Y-89533333D01*
X151854663Y-89533333D02*
X151902282Y-89390476D01*
X151902282Y-89390476D02*
X151949901Y-89342857D01*
X152854663Y-88390476D02*
X152854663Y-88961904D01*
X152854663Y-88676190D02*
X151854663Y-88676190D01*
X151854663Y-88676190D02*
X151997520Y-88771428D01*
X151997520Y-88771428D02*
X152092758Y-88866666D01*
X152092758Y-88866666D02*
X152140377Y-88961904D01*
X151854663Y-88057142D02*
X151854663Y-87438095D01*
X151854663Y-87438095D02*
X152235615Y-87771428D01*
X152235615Y-87771428D02*
X152235615Y-87628571D01*
X152235615Y-87628571D02*
X152283234Y-87533333D01*
X152283234Y-87533333D02*
X152330853Y-87485714D01*
X152330853Y-87485714D02*
X152426091Y-87438095D01*
X152426091Y-87438095D02*
X152664186Y-87438095D01*
X152664186Y-87438095D02*
X152759424Y-87485714D01*
X152759424Y-87485714D02*
X152807044Y-87533333D01*
X152807044Y-87533333D02*
X152854663Y-87628571D01*
X152854663Y-87628571D02*
X152854663Y-87914285D01*
X152854663Y-87914285D02*
X152807044Y-88009523D01*
X152807044Y-88009523D02*
X152759424Y-88057142D01*
X156533333Y-82154663D02*
X156200000Y-81678472D01*
X155961905Y-82154663D02*
X155961905Y-81154663D01*
X155961905Y-81154663D02*
X156342857Y-81154663D01*
X156342857Y-81154663D02*
X156438095Y-81202282D01*
X156438095Y-81202282D02*
X156485714Y-81249901D01*
X156485714Y-81249901D02*
X156533333Y-81345139D01*
X156533333Y-81345139D02*
X156533333Y-81487996D01*
X156533333Y-81487996D02*
X156485714Y-81583234D01*
X156485714Y-81583234D02*
X156438095Y-81630853D01*
X156438095Y-81630853D02*
X156342857Y-81678472D01*
X156342857Y-81678472D02*
X155961905Y-81678472D01*
X157390476Y-81487996D02*
X157390476Y-82154663D01*
X157152381Y-81107044D02*
X156914286Y-81821329D01*
X156914286Y-81821329D02*
X157533333Y-81821329D01*
X160297905Y-68780663D02*
X160297905Y-67780663D01*
X160297905Y-67780663D02*
X160536000Y-67780663D01*
X160536000Y-67780663D02*
X160678857Y-67828282D01*
X160678857Y-67828282D02*
X160774095Y-67923520D01*
X160774095Y-67923520D02*
X160821714Y-68018758D01*
X160821714Y-68018758D02*
X160869333Y-68209234D01*
X160869333Y-68209234D02*
X160869333Y-68352091D01*
X160869333Y-68352091D02*
X160821714Y-68542567D01*
X160821714Y-68542567D02*
X160774095Y-68637805D01*
X160774095Y-68637805D02*
X160678857Y-68733044D01*
X160678857Y-68733044D02*
X160536000Y-68780663D01*
X160536000Y-68780663D02*
X160297905Y-68780663D01*
X161250286Y-67875901D02*
X161297905Y-67828282D01*
X161297905Y-67828282D02*
X161393143Y-67780663D01*
X161393143Y-67780663D02*
X161631238Y-67780663D01*
X161631238Y-67780663D02*
X161726476Y-67828282D01*
X161726476Y-67828282D02*
X161774095Y-67875901D01*
X161774095Y-67875901D02*
X161821714Y-67971139D01*
X161821714Y-67971139D02*
X161821714Y-68066377D01*
X161821714Y-68066377D02*
X161774095Y-68209234D01*
X161774095Y-68209234D02*
X161202667Y-68780663D01*
X161202667Y-68780663D02*
X161821714Y-68780663D01*
X120927905Y-85798663D02*
X120927905Y-84798663D01*
X120927905Y-84798663D02*
X121166000Y-84798663D01*
X121166000Y-84798663D02*
X121308857Y-84846282D01*
X121308857Y-84846282D02*
X121404095Y-84941520D01*
X121404095Y-84941520D02*
X121451714Y-85036758D01*
X121451714Y-85036758D02*
X121499333Y-85227234D01*
X121499333Y-85227234D02*
X121499333Y-85370091D01*
X121499333Y-85370091D02*
X121451714Y-85560567D01*
X121451714Y-85560567D02*
X121404095Y-85655805D01*
X121404095Y-85655805D02*
X121308857Y-85751044D01*
X121308857Y-85751044D02*
X121166000Y-85798663D01*
X121166000Y-85798663D02*
X120927905Y-85798663D01*
X122451714Y-85798663D02*
X121880286Y-85798663D01*
X122166000Y-85798663D02*
X122166000Y-84798663D01*
X122166000Y-84798663D02*
X122070762Y-84941520D01*
X122070762Y-84941520D02*
X121975524Y-85036758D01*
X121975524Y-85036758D02*
X121880286Y-85084377D01*
X163040142Y-76047424D02*
X162992523Y-76095044D01*
X162992523Y-76095044D02*
X162849666Y-76142663D01*
X162849666Y-76142663D02*
X162754428Y-76142663D01*
X162754428Y-76142663D02*
X162611571Y-76095044D01*
X162611571Y-76095044D02*
X162516333Y-75999805D01*
X162516333Y-75999805D02*
X162468714Y-75904567D01*
X162468714Y-75904567D02*
X162421095Y-75714091D01*
X162421095Y-75714091D02*
X162421095Y-75571234D01*
X162421095Y-75571234D02*
X162468714Y-75380758D01*
X162468714Y-75380758D02*
X162516333Y-75285520D01*
X162516333Y-75285520D02*
X162611571Y-75190282D01*
X162611571Y-75190282D02*
X162754428Y-75142663D01*
X162754428Y-75142663D02*
X162849666Y-75142663D01*
X162849666Y-75142663D02*
X162992523Y-75190282D01*
X162992523Y-75190282D02*
X163040142Y-75237901D01*
X163992523Y-76142663D02*
X163421095Y-76142663D01*
X163706809Y-76142663D02*
X163706809Y-75142663D01*
X163706809Y-75142663D02*
X163611571Y-75285520D01*
X163611571Y-75285520D02*
X163516333Y-75380758D01*
X163516333Y-75380758D02*
X163421095Y-75428377D01*
X164944904Y-76142663D02*
X164373476Y-76142663D01*
X164659190Y-76142663D02*
X164659190Y-75142663D01*
X164659190Y-75142663D02*
X164563952Y-75285520D01*
X164563952Y-75285520D02*
X164468714Y-75380758D01*
X164468714Y-75380758D02*
X164373476Y-75428377D01*
X130770333Y-101927663D02*
X130437000Y-101451472D01*
X130198905Y-101927663D02*
X130198905Y-100927663D01*
X130198905Y-100927663D02*
X130579857Y-100927663D01*
X130579857Y-100927663D02*
X130675095Y-100975282D01*
X130675095Y-100975282D02*
X130722714Y-101022901D01*
X130722714Y-101022901D02*
X130770333Y-101118139D01*
X130770333Y-101118139D02*
X130770333Y-101260996D01*
X130770333Y-101260996D02*
X130722714Y-101356234D01*
X130722714Y-101356234D02*
X130675095Y-101403853D01*
X130675095Y-101403853D02*
X130579857Y-101451472D01*
X130579857Y-101451472D02*
X130198905Y-101451472D01*
X131341762Y-101356234D02*
X131246524Y-101308615D01*
X131246524Y-101308615D02*
X131198905Y-101260996D01*
X131198905Y-101260996D02*
X131151286Y-101165758D01*
X131151286Y-101165758D02*
X131151286Y-101118139D01*
X131151286Y-101118139D02*
X131198905Y-101022901D01*
X131198905Y-101022901D02*
X131246524Y-100975282D01*
X131246524Y-100975282D02*
X131341762Y-100927663D01*
X131341762Y-100927663D02*
X131532238Y-100927663D01*
X131532238Y-100927663D02*
X131627476Y-100975282D01*
X131627476Y-100975282D02*
X131675095Y-101022901D01*
X131675095Y-101022901D02*
X131722714Y-101118139D01*
X131722714Y-101118139D02*
X131722714Y-101165758D01*
X131722714Y-101165758D02*
X131675095Y-101260996D01*
X131675095Y-101260996D02*
X131627476Y-101308615D01*
X131627476Y-101308615D02*
X131532238Y-101356234D01*
X131532238Y-101356234D02*
X131341762Y-101356234D01*
X131341762Y-101356234D02*
X131246524Y-101403853D01*
X131246524Y-101403853D02*
X131198905Y-101451472D01*
X131198905Y-101451472D02*
X131151286Y-101546710D01*
X131151286Y-101546710D02*
X131151286Y-101737186D01*
X131151286Y-101737186D02*
X131198905Y-101832424D01*
X131198905Y-101832424D02*
X131246524Y-101880044D01*
X131246524Y-101880044D02*
X131341762Y-101927663D01*
X131341762Y-101927663D02*
X131532238Y-101927663D01*
X131532238Y-101927663D02*
X131627476Y-101880044D01*
X131627476Y-101880044D02*
X131675095Y-101832424D01*
X131675095Y-101832424D02*
X131722714Y-101737186D01*
X131722714Y-101737186D02*
X131722714Y-101546710D01*
X131722714Y-101546710D02*
X131675095Y-101451472D01*
X131675095Y-101451472D02*
X131627476Y-101403853D01*
X131627476Y-101403853D02*
X131532238Y-101356234D01*
X143897663Y-92282333D02*
X144611948Y-92282333D01*
X144611948Y-92282333D02*
X144754805Y-92329952D01*
X144754805Y-92329952D02*
X144850044Y-92425190D01*
X144850044Y-92425190D02*
X144897663Y-92568047D01*
X144897663Y-92568047D02*
X144897663Y-92663285D01*
X143992901Y-91853761D02*
X143945282Y-91806142D01*
X143945282Y-91806142D02*
X143897663Y-91710904D01*
X143897663Y-91710904D02*
X143897663Y-91472809D01*
X143897663Y-91472809D02*
X143945282Y-91377571D01*
X143945282Y-91377571D02*
X143992901Y-91329952D01*
X143992901Y-91329952D02*
X144088139Y-91282333D01*
X144088139Y-91282333D02*
X144183377Y-91282333D01*
X144183377Y-91282333D02*
X144326234Y-91329952D01*
X144326234Y-91329952D02*
X144897663Y-91901380D01*
X144897663Y-91901380D02*
X144897663Y-91282333D01*
X168659424Y-89766666D02*
X168707044Y-89814285D01*
X168707044Y-89814285D02*
X168754663Y-89957142D01*
X168754663Y-89957142D02*
X168754663Y-90052380D01*
X168754663Y-90052380D02*
X168707044Y-90195237D01*
X168707044Y-90195237D02*
X168611805Y-90290475D01*
X168611805Y-90290475D02*
X168516567Y-90338094D01*
X168516567Y-90338094D02*
X168326091Y-90385713D01*
X168326091Y-90385713D02*
X168183234Y-90385713D01*
X168183234Y-90385713D02*
X167992758Y-90338094D01*
X167992758Y-90338094D02*
X167897520Y-90290475D01*
X167897520Y-90290475D02*
X167802282Y-90195237D01*
X167802282Y-90195237D02*
X167754663Y-90052380D01*
X167754663Y-90052380D02*
X167754663Y-89957142D01*
X167754663Y-89957142D02*
X167802282Y-89814285D01*
X167802282Y-89814285D02*
X167849901Y-89766666D01*
X167754663Y-88909523D02*
X167754663Y-89099999D01*
X167754663Y-89099999D02*
X167802282Y-89195237D01*
X167802282Y-89195237D02*
X167849901Y-89242856D01*
X167849901Y-89242856D02*
X167992758Y-89338094D01*
X167992758Y-89338094D02*
X168183234Y-89385713D01*
X168183234Y-89385713D02*
X168564186Y-89385713D01*
X168564186Y-89385713D02*
X168659424Y-89338094D01*
X168659424Y-89338094D02*
X168707044Y-89290475D01*
X168707044Y-89290475D02*
X168754663Y-89195237D01*
X168754663Y-89195237D02*
X168754663Y-89004761D01*
X168754663Y-89004761D02*
X168707044Y-88909523D01*
X168707044Y-88909523D02*
X168659424Y-88861904D01*
X168659424Y-88861904D02*
X168564186Y-88814285D01*
X168564186Y-88814285D02*
X168326091Y-88814285D01*
X168326091Y-88814285D02*
X168230853Y-88861904D01*
X168230853Y-88861904D02*
X168183234Y-88909523D01*
X168183234Y-88909523D02*
X168135615Y-89004761D01*
X168135615Y-89004761D02*
X168135615Y-89195237D01*
X168135615Y-89195237D02*
X168183234Y-89290475D01*
X168183234Y-89290475D02*
X168230853Y-89338094D01*
X168230853Y-89338094D02*
X168326091Y-89385713D01*
X151471333Y-78686663D02*
X151138000Y-78210472D01*
X150899905Y-78686663D02*
X150899905Y-77686663D01*
X150899905Y-77686663D02*
X151280857Y-77686663D01*
X151280857Y-77686663D02*
X151376095Y-77734282D01*
X151376095Y-77734282D02*
X151423714Y-77781901D01*
X151423714Y-77781901D02*
X151471333Y-77877139D01*
X151471333Y-77877139D02*
X151471333Y-78019996D01*
X151471333Y-78019996D02*
X151423714Y-78115234D01*
X151423714Y-78115234D02*
X151376095Y-78162853D01*
X151376095Y-78162853D02*
X151280857Y-78210472D01*
X151280857Y-78210472D02*
X150899905Y-78210472D01*
X152376095Y-77686663D02*
X151899905Y-77686663D01*
X151899905Y-77686663D02*
X151852286Y-78162853D01*
X151852286Y-78162853D02*
X151899905Y-78115234D01*
X151899905Y-78115234D02*
X151995143Y-78067615D01*
X151995143Y-78067615D02*
X152233238Y-78067615D01*
X152233238Y-78067615D02*
X152328476Y-78115234D01*
X152328476Y-78115234D02*
X152376095Y-78162853D01*
X152376095Y-78162853D02*
X152423714Y-78258091D01*
X152423714Y-78258091D02*
X152423714Y-78496186D01*
X152423714Y-78496186D02*
X152376095Y-78591424D01*
X152376095Y-78591424D02*
X152328476Y-78639044D01*
X152328476Y-78639044D02*
X152233238Y-78686663D01*
X152233238Y-78686663D02*
X151995143Y-78686663D01*
X151995143Y-78686663D02*
X151899905Y-78639044D01*
X151899905Y-78639044D02*
X151852286Y-78591424D01*
X122114285Y-76830853D02*
X122257142Y-76878472D01*
X122257142Y-76878472D02*
X122304761Y-76926091D01*
X122304761Y-76926091D02*
X122352380Y-77021329D01*
X122352380Y-77021329D02*
X122352380Y-77164186D01*
X122352380Y-77164186D02*
X122304761Y-77259424D01*
X122304761Y-77259424D02*
X122257142Y-77307044D01*
X122257142Y-77307044D02*
X122161904Y-77354663D01*
X122161904Y-77354663D02*
X121780952Y-77354663D01*
X121780952Y-77354663D02*
X121780952Y-76354663D01*
X121780952Y-76354663D02*
X122114285Y-76354663D01*
X122114285Y-76354663D02*
X122209523Y-76402282D01*
X122209523Y-76402282D02*
X122257142Y-76449901D01*
X122257142Y-76449901D02*
X122304761Y-76545139D01*
X122304761Y-76545139D02*
X122304761Y-76640377D01*
X122304761Y-76640377D02*
X122257142Y-76735615D01*
X122257142Y-76735615D02*
X122209523Y-76783234D01*
X122209523Y-76783234D02*
X122114285Y-76830853D01*
X122114285Y-76830853D02*
X121780952Y-76830853D01*
X122638095Y-76354663D02*
X123209523Y-76354663D01*
X122923809Y-77354663D02*
X122923809Y-76354663D01*
X124066666Y-77354663D02*
X123495238Y-77354663D01*
X123780952Y-77354663D02*
X123780952Y-76354663D01*
X123780952Y-76354663D02*
X123685714Y-76497520D01*
X123685714Y-76497520D02*
X123590476Y-76592758D01*
X123590476Y-76592758D02*
X123495238Y-76640377D01*
X155933333Y-93959424D02*
X155885714Y-94007044D01*
X155885714Y-94007044D02*
X155742857Y-94054663D01*
X155742857Y-94054663D02*
X155647619Y-94054663D01*
X155647619Y-94054663D02*
X155504762Y-94007044D01*
X155504762Y-94007044D02*
X155409524Y-93911805D01*
X155409524Y-93911805D02*
X155361905Y-93816567D01*
X155361905Y-93816567D02*
X155314286Y-93626091D01*
X155314286Y-93626091D02*
X155314286Y-93483234D01*
X155314286Y-93483234D02*
X155361905Y-93292758D01*
X155361905Y-93292758D02*
X155409524Y-93197520D01*
X155409524Y-93197520D02*
X155504762Y-93102282D01*
X155504762Y-93102282D02*
X155647619Y-93054663D01*
X155647619Y-93054663D02*
X155742857Y-93054663D01*
X155742857Y-93054663D02*
X155885714Y-93102282D01*
X155885714Y-93102282D02*
X155933333Y-93149901D01*
X156266667Y-93054663D02*
X156933333Y-93054663D01*
X156933333Y-93054663D02*
X156504762Y-94054663D01*
X170259424Y-89366666D02*
X170307044Y-89414285D01*
X170307044Y-89414285D02*
X170354663Y-89557142D01*
X170354663Y-89557142D02*
X170354663Y-89652380D01*
X170354663Y-89652380D02*
X170307044Y-89795237D01*
X170307044Y-89795237D02*
X170211805Y-89890475D01*
X170211805Y-89890475D02*
X170116567Y-89938094D01*
X170116567Y-89938094D02*
X169926091Y-89985713D01*
X169926091Y-89985713D02*
X169783234Y-89985713D01*
X169783234Y-89985713D02*
X169592758Y-89938094D01*
X169592758Y-89938094D02*
X169497520Y-89890475D01*
X169497520Y-89890475D02*
X169402282Y-89795237D01*
X169402282Y-89795237D02*
X169354663Y-89652380D01*
X169354663Y-89652380D02*
X169354663Y-89557142D01*
X169354663Y-89557142D02*
X169402282Y-89414285D01*
X169402282Y-89414285D02*
X169449901Y-89366666D01*
X169449901Y-88985713D02*
X169402282Y-88938094D01*
X169402282Y-88938094D02*
X169354663Y-88842856D01*
X169354663Y-88842856D02*
X169354663Y-88604761D01*
X169354663Y-88604761D02*
X169402282Y-88509523D01*
X169402282Y-88509523D02*
X169449901Y-88461904D01*
X169449901Y-88461904D02*
X169545139Y-88414285D01*
X169545139Y-88414285D02*
X169640377Y-88414285D01*
X169640377Y-88414285D02*
X169783234Y-88461904D01*
X169783234Y-88461904D02*
X170354663Y-89033332D01*
X170354663Y-89033332D02*
X170354663Y-88414285D01*
X179371666Y-73774663D02*
X179371666Y-74488948D01*
X179371666Y-74488948D02*
X179324047Y-74631805D01*
X179324047Y-74631805D02*
X179228809Y-74727044D01*
X179228809Y-74727044D02*
X179085952Y-74774663D01*
X179085952Y-74774663D02*
X178990714Y-74774663D01*
X179752619Y-73774663D02*
X180371666Y-73774663D01*
X180371666Y-73774663D02*
X180038333Y-74155615D01*
X180038333Y-74155615D02*
X180181190Y-74155615D01*
X180181190Y-74155615D02*
X180276428Y-74203234D01*
X180276428Y-74203234D02*
X180324047Y-74250853D01*
X180324047Y-74250853D02*
X180371666Y-74346091D01*
X180371666Y-74346091D02*
X180371666Y-74584186D01*
X180371666Y-74584186D02*
X180324047Y-74679424D01*
X180324047Y-74679424D02*
X180276428Y-74727044D01*
X180276428Y-74727044D02*
X180181190Y-74774663D01*
X180181190Y-74774663D02*
X179895476Y-74774663D01*
X179895476Y-74774663D02*
X179800238Y-74727044D01*
X179800238Y-74727044D02*
X179752619Y-74679424D01*
X123008424Y-90717666D02*
X123056044Y-90765285D01*
X123056044Y-90765285D02*
X123103663Y-90908142D01*
X123103663Y-90908142D02*
X123103663Y-91003380D01*
X123103663Y-91003380D02*
X123056044Y-91146237D01*
X123056044Y-91146237D02*
X122960805Y-91241475D01*
X122960805Y-91241475D02*
X122865567Y-91289094D01*
X122865567Y-91289094D02*
X122675091Y-91336713D01*
X122675091Y-91336713D02*
X122532234Y-91336713D01*
X122532234Y-91336713D02*
X122341758Y-91289094D01*
X122341758Y-91289094D02*
X122246520Y-91241475D01*
X122246520Y-91241475D02*
X122151282Y-91146237D01*
X122151282Y-91146237D02*
X122103663Y-91003380D01*
X122103663Y-91003380D02*
X122103663Y-90908142D01*
X122103663Y-90908142D02*
X122151282Y-90765285D01*
X122151282Y-90765285D02*
X122198901Y-90717666D01*
X123103663Y-89765285D02*
X123103663Y-90336713D01*
X123103663Y-90050999D02*
X122103663Y-90050999D01*
X122103663Y-90050999D02*
X122246520Y-90146237D01*
X122246520Y-90146237D02*
X122341758Y-90241475D01*
X122341758Y-90241475D02*
X122389377Y-90336713D01*
X154836905Y-77162663D02*
X154836905Y-76162663D01*
X154836905Y-76162663D02*
X155075000Y-76162663D01*
X155075000Y-76162663D02*
X155217857Y-76210282D01*
X155217857Y-76210282D02*
X155313095Y-76305520D01*
X155313095Y-76305520D02*
X155360714Y-76400758D01*
X155360714Y-76400758D02*
X155408333Y-76591234D01*
X155408333Y-76591234D02*
X155408333Y-76734091D01*
X155408333Y-76734091D02*
X155360714Y-76924567D01*
X155360714Y-76924567D02*
X155313095Y-77019805D01*
X155313095Y-77019805D02*
X155217857Y-77115044D01*
X155217857Y-77115044D02*
X155075000Y-77162663D01*
X155075000Y-77162663D02*
X154836905Y-77162663D01*
X155741667Y-76162663D02*
X156360714Y-76162663D01*
X156360714Y-76162663D02*
X156027381Y-76543615D01*
X156027381Y-76543615D02*
X156170238Y-76543615D01*
X156170238Y-76543615D02*
X156265476Y-76591234D01*
X156265476Y-76591234D02*
X156313095Y-76638853D01*
X156313095Y-76638853D02*
X156360714Y-76734091D01*
X156360714Y-76734091D02*
X156360714Y-76972186D01*
X156360714Y-76972186D02*
X156313095Y-77067424D01*
X156313095Y-77067424D02*
X156265476Y-77115044D01*
X156265476Y-77115044D02*
X156170238Y-77162663D01*
X156170238Y-77162663D02*
X155884524Y-77162663D01*
X155884524Y-77162663D02*
X155789286Y-77115044D01*
X155789286Y-77115044D02*
X155741667Y-77067424D01*
X152066666Y-96660853D02*
X151733333Y-96660853D01*
X151733333Y-97184663D02*
X151733333Y-96184663D01*
X151733333Y-96184663D02*
X152209523Y-96184663D01*
X152923809Y-96660853D02*
X153066666Y-96708472D01*
X153066666Y-96708472D02*
X153114285Y-96756091D01*
X153114285Y-96756091D02*
X153161904Y-96851329D01*
X153161904Y-96851329D02*
X153161904Y-96994186D01*
X153161904Y-96994186D02*
X153114285Y-97089424D01*
X153114285Y-97089424D02*
X153066666Y-97137044D01*
X153066666Y-97137044D02*
X152971428Y-97184663D01*
X152971428Y-97184663D02*
X152590476Y-97184663D01*
X152590476Y-97184663D02*
X152590476Y-96184663D01*
X152590476Y-96184663D02*
X152923809Y-96184663D01*
X152923809Y-96184663D02*
X153019047Y-96232282D01*
X153019047Y-96232282D02*
X153066666Y-96279901D01*
X153066666Y-96279901D02*
X153114285Y-96375139D01*
X153114285Y-96375139D02*
X153114285Y-96470377D01*
X153114285Y-96470377D02*
X153066666Y-96565615D01*
X153066666Y-96565615D02*
X153019047Y-96613234D01*
X153019047Y-96613234D02*
X152923809Y-96660853D01*
X152923809Y-96660853D02*
X152590476Y-96660853D01*
X154114285Y-97184663D02*
X153542857Y-97184663D01*
X153828571Y-97184663D02*
X153828571Y-96184663D01*
X153828571Y-96184663D02*
X153733333Y-96327520D01*
X153733333Y-96327520D02*
X153638095Y-96422758D01*
X153638095Y-96422758D02*
X153542857Y-96470377D01*
X152858305Y-77162663D02*
X152858305Y-76162663D01*
X152858305Y-76162663D02*
X153096400Y-76162663D01*
X153096400Y-76162663D02*
X153239257Y-76210282D01*
X153239257Y-76210282D02*
X153334495Y-76305520D01*
X153334495Y-76305520D02*
X153382114Y-76400758D01*
X153382114Y-76400758D02*
X153429733Y-76591234D01*
X153429733Y-76591234D02*
X153429733Y-76734091D01*
X153429733Y-76734091D02*
X153382114Y-76924567D01*
X153382114Y-76924567D02*
X153334495Y-77019805D01*
X153334495Y-77019805D02*
X153239257Y-77115044D01*
X153239257Y-77115044D02*
X153096400Y-77162663D01*
X153096400Y-77162663D02*
X152858305Y-77162663D01*
X154286876Y-76495996D02*
X154286876Y-77162663D01*
X154048781Y-76115044D02*
X153810686Y-76829329D01*
X153810686Y-76829329D02*
X154429733Y-76829329D01*
X156659424Y-88766666D02*
X156707044Y-88814285D01*
X156707044Y-88814285D02*
X156754663Y-88957142D01*
X156754663Y-88957142D02*
X156754663Y-89052380D01*
X156754663Y-89052380D02*
X156707044Y-89195237D01*
X156707044Y-89195237D02*
X156611805Y-89290475D01*
X156611805Y-89290475D02*
X156516567Y-89338094D01*
X156516567Y-89338094D02*
X156326091Y-89385713D01*
X156326091Y-89385713D02*
X156183234Y-89385713D01*
X156183234Y-89385713D02*
X155992758Y-89338094D01*
X155992758Y-89338094D02*
X155897520Y-89290475D01*
X155897520Y-89290475D02*
X155802282Y-89195237D01*
X155802282Y-89195237D02*
X155754663Y-89052380D01*
X155754663Y-89052380D02*
X155754663Y-88957142D01*
X155754663Y-88957142D02*
X155802282Y-88814285D01*
X155802282Y-88814285D02*
X155849901Y-88766666D01*
X155754663Y-87861904D02*
X155754663Y-88338094D01*
X155754663Y-88338094D02*
X156230853Y-88385713D01*
X156230853Y-88385713D02*
X156183234Y-88338094D01*
X156183234Y-88338094D02*
X156135615Y-88242856D01*
X156135615Y-88242856D02*
X156135615Y-88004761D01*
X156135615Y-88004761D02*
X156183234Y-87909523D01*
X156183234Y-87909523D02*
X156230853Y-87861904D01*
X156230853Y-87861904D02*
X156326091Y-87814285D01*
X156326091Y-87814285D02*
X156564186Y-87814285D01*
X156564186Y-87814285D02*
X156659424Y-87861904D01*
X156659424Y-87861904D02*
X156707044Y-87909523D01*
X156707044Y-87909523D02*
X156754663Y-88004761D01*
X156754663Y-88004761D02*
X156754663Y-88242856D01*
X156754663Y-88242856D02*
X156707044Y-88338094D01*
X156707044Y-88338094D02*
X156659424Y-88385713D01*
X155833333Y-97459424D02*
X155785714Y-97507044D01*
X155785714Y-97507044D02*
X155642857Y-97554663D01*
X155642857Y-97554663D02*
X155547619Y-97554663D01*
X155547619Y-97554663D02*
X155404762Y-97507044D01*
X155404762Y-97507044D02*
X155309524Y-97411805D01*
X155309524Y-97411805D02*
X155261905Y-97316567D01*
X155261905Y-97316567D02*
X155214286Y-97126091D01*
X155214286Y-97126091D02*
X155214286Y-96983234D01*
X155214286Y-96983234D02*
X155261905Y-96792758D01*
X155261905Y-96792758D02*
X155309524Y-96697520D01*
X155309524Y-96697520D02*
X155404762Y-96602282D01*
X155404762Y-96602282D02*
X155547619Y-96554663D01*
X155547619Y-96554663D02*
X155642857Y-96554663D01*
X155642857Y-96554663D02*
X155785714Y-96602282D01*
X155785714Y-96602282D02*
X155833333Y-96649901D01*
X156404762Y-96983234D02*
X156309524Y-96935615D01*
X156309524Y-96935615D02*
X156261905Y-96887996D01*
X156261905Y-96887996D02*
X156214286Y-96792758D01*
X156214286Y-96792758D02*
X156214286Y-96745139D01*
X156214286Y-96745139D02*
X156261905Y-96649901D01*
X156261905Y-96649901D02*
X156309524Y-96602282D01*
X156309524Y-96602282D02*
X156404762Y-96554663D01*
X156404762Y-96554663D02*
X156595238Y-96554663D01*
X156595238Y-96554663D02*
X156690476Y-96602282D01*
X156690476Y-96602282D02*
X156738095Y-96649901D01*
X156738095Y-96649901D02*
X156785714Y-96745139D01*
X156785714Y-96745139D02*
X156785714Y-96792758D01*
X156785714Y-96792758D02*
X156738095Y-96887996D01*
X156738095Y-96887996D02*
X156690476Y-96935615D01*
X156690476Y-96935615D02*
X156595238Y-96983234D01*
X156595238Y-96983234D02*
X156404762Y-96983234D01*
X156404762Y-96983234D02*
X156309524Y-97030853D01*
X156309524Y-97030853D02*
X156261905Y-97078472D01*
X156261905Y-97078472D02*
X156214286Y-97173710D01*
X156214286Y-97173710D02*
X156214286Y-97364186D01*
X156214286Y-97364186D02*
X156261905Y-97459424D01*
X156261905Y-97459424D02*
X156309524Y-97507044D01*
X156309524Y-97507044D02*
X156404762Y-97554663D01*
X156404762Y-97554663D02*
X156595238Y-97554663D01*
X156595238Y-97554663D02*
X156690476Y-97507044D01*
X156690476Y-97507044D02*
X156738095Y-97459424D01*
X156738095Y-97459424D02*
X156785714Y-97364186D01*
X156785714Y-97364186D02*
X156785714Y-97173710D01*
X156785714Y-97173710D02*
X156738095Y-97078472D01*
X156738095Y-97078472D02*
X156690476Y-97030853D01*
X156690476Y-97030853D02*
X156595238Y-96983234D01*
X171613333Y-92529663D02*
X171280000Y-92053472D01*
X171041905Y-92529663D02*
X171041905Y-91529663D01*
X171041905Y-91529663D02*
X171422857Y-91529663D01*
X171422857Y-91529663D02*
X171518095Y-91577282D01*
X171518095Y-91577282D02*
X171565714Y-91624901D01*
X171565714Y-91624901D02*
X171613333Y-91720139D01*
X171613333Y-91720139D02*
X171613333Y-91862996D01*
X171613333Y-91862996D02*
X171565714Y-91958234D01*
X171565714Y-91958234D02*
X171518095Y-92005853D01*
X171518095Y-92005853D02*
X171422857Y-92053472D01*
X171422857Y-92053472D02*
X171041905Y-92053472D01*
X171994286Y-91624901D02*
X172041905Y-91577282D01*
X172041905Y-91577282D02*
X172137143Y-91529663D01*
X172137143Y-91529663D02*
X172375238Y-91529663D01*
X172375238Y-91529663D02*
X172470476Y-91577282D01*
X172470476Y-91577282D02*
X172518095Y-91624901D01*
X172518095Y-91624901D02*
X172565714Y-91720139D01*
X172565714Y-91720139D02*
X172565714Y-91815377D01*
X172565714Y-91815377D02*
X172518095Y-91958234D01*
X172518095Y-91958234D02*
X171946667Y-92529663D01*
X171946667Y-92529663D02*
X172565714Y-92529663D01*
X127722333Y-101927663D02*
X127389000Y-101451472D01*
X127150905Y-101927663D02*
X127150905Y-100927663D01*
X127150905Y-100927663D02*
X127531857Y-100927663D01*
X127531857Y-100927663D02*
X127627095Y-100975282D01*
X127627095Y-100975282D02*
X127674714Y-101022901D01*
X127674714Y-101022901D02*
X127722333Y-101118139D01*
X127722333Y-101118139D02*
X127722333Y-101260996D01*
X127722333Y-101260996D02*
X127674714Y-101356234D01*
X127674714Y-101356234D02*
X127627095Y-101403853D01*
X127627095Y-101403853D02*
X127531857Y-101451472D01*
X127531857Y-101451472D02*
X127150905Y-101451472D01*
X128198524Y-101927663D02*
X128389000Y-101927663D01*
X128389000Y-101927663D02*
X128484238Y-101880044D01*
X128484238Y-101880044D02*
X128531857Y-101832424D01*
X128531857Y-101832424D02*
X128627095Y-101689567D01*
X128627095Y-101689567D02*
X128674714Y-101499091D01*
X128674714Y-101499091D02*
X128674714Y-101118139D01*
X128674714Y-101118139D02*
X128627095Y-101022901D01*
X128627095Y-101022901D02*
X128579476Y-100975282D01*
X128579476Y-100975282D02*
X128484238Y-100927663D01*
X128484238Y-100927663D02*
X128293762Y-100927663D01*
X128293762Y-100927663D02*
X128198524Y-100975282D01*
X128198524Y-100975282D02*
X128150905Y-101022901D01*
X128150905Y-101022901D02*
X128103286Y-101118139D01*
X128103286Y-101118139D02*
X128103286Y-101356234D01*
X128103286Y-101356234D02*
X128150905Y-101451472D01*
X128150905Y-101451472D02*
X128198524Y-101499091D01*
X128198524Y-101499091D02*
X128293762Y-101546710D01*
X128293762Y-101546710D02*
X128484238Y-101546710D01*
X128484238Y-101546710D02*
X128579476Y-101499091D01*
X128579476Y-101499091D02*
X128627095Y-101451472D01*
X128627095Y-101451472D02*
X128674714Y-101356234D01*
X171863095Y-67816663D02*
X171863095Y-68626186D01*
X171863095Y-68626186D02*
X171910714Y-68721424D01*
X171910714Y-68721424D02*
X171958333Y-68769044D01*
X171958333Y-68769044D02*
X172053571Y-68816663D01*
X172053571Y-68816663D02*
X172244047Y-68816663D01*
X172244047Y-68816663D02*
X172339285Y-68769044D01*
X172339285Y-68769044D02*
X172386904Y-68721424D01*
X172386904Y-68721424D02*
X172434523Y-68626186D01*
X172434523Y-68626186D02*
X172434523Y-67816663D01*
X172863095Y-67911901D02*
X172910714Y-67864282D01*
X172910714Y-67864282D02*
X173005952Y-67816663D01*
X173005952Y-67816663D02*
X173244047Y-67816663D01*
X173244047Y-67816663D02*
X173339285Y-67864282D01*
X173339285Y-67864282D02*
X173386904Y-67911901D01*
X173386904Y-67911901D02*
X173434523Y-68007139D01*
X173434523Y-68007139D02*
X173434523Y-68102377D01*
X173434523Y-68102377D02*
X173386904Y-68245234D01*
X173386904Y-68245234D02*
X172815476Y-68816663D01*
X172815476Y-68816663D02*
X173434523Y-68816663D01*
X164723333Y-97629424D02*
X164675714Y-97677044D01*
X164675714Y-97677044D02*
X164532857Y-97724663D01*
X164532857Y-97724663D02*
X164437619Y-97724663D01*
X164437619Y-97724663D02*
X164294762Y-97677044D01*
X164294762Y-97677044D02*
X164199524Y-97581805D01*
X164199524Y-97581805D02*
X164151905Y-97486567D01*
X164151905Y-97486567D02*
X164104286Y-97296091D01*
X164104286Y-97296091D02*
X164104286Y-97153234D01*
X164104286Y-97153234D02*
X164151905Y-96962758D01*
X164151905Y-96962758D02*
X164199524Y-96867520D01*
X164199524Y-96867520D02*
X164294762Y-96772282D01*
X164294762Y-96772282D02*
X164437619Y-96724663D01*
X164437619Y-96724663D02*
X164532857Y-96724663D01*
X164532857Y-96724663D02*
X164675714Y-96772282D01*
X164675714Y-96772282D02*
X164723333Y-96819901D01*
X165056667Y-96724663D02*
X165675714Y-96724663D01*
X165675714Y-96724663D02*
X165342381Y-97105615D01*
X165342381Y-97105615D02*
X165485238Y-97105615D01*
X165485238Y-97105615D02*
X165580476Y-97153234D01*
X165580476Y-97153234D02*
X165628095Y-97200853D01*
X165628095Y-97200853D02*
X165675714Y-97296091D01*
X165675714Y-97296091D02*
X165675714Y-97534186D01*
X165675714Y-97534186D02*
X165628095Y-97629424D01*
X165628095Y-97629424D02*
X165580476Y-97677044D01*
X165580476Y-97677044D02*
X165485238Y-97724663D01*
X165485238Y-97724663D02*
X165199524Y-97724663D01*
X165199524Y-97724663D02*
X165104286Y-97677044D01*
X165104286Y-97677044D02*
X165056667Y-97629424D01*
X153458333Y-82124663D02*
X153125000Y-81648472D01*
X152886905Y-82124663D02*
X152886905Y-81124663D01*
X152886905Y-81124663D02*
X153267857Y-81124663D01*
X153267857Y-81124663D02*
X153363095Y-81172282D01*
X153363095Y-81172282D02*
X153410714Y-81219901D01*
X153410714Y-81219901D02*
X153458333Y-81315139D01*
X153458333Y-81315139D02*
X153458333Y-81457996D01*
X153458333Y-81457996D02*
X153410714Y-81553234D01*
X153410714Y-81553234D02*
X153363095Y-81600853D01*
X153363095Y-81600853D02*
X153267857Y-81648472D01*
X153267857Y-81648472D02*
X152886905Y-81648472D01*
X153791667Y-81124663D02*
X154458333Y-81124663D01*
X154458333Y-81124663D02*
X154029762Y-82124663D01*
X158933333Y-82029424D02*
X158885714Y-82077044D01*
X158885714Y-82077044D02*
X158742857Y-82124663D01*
X158742857Y-82124663D02*
X158647619Y-82124663D01*
X158647619Y-82124663D02*
X158504762Y-82077044D01*
X158504762Y-82077044D02*
X158409524Y-81981805D01*
X158409524Y-81981805D02*
X158361905Y-81886567D01*
X158361905Y-81886567D02*
X158314286Y-81696091D01*
X158314286Y-81696091D02*
X158314286Y-81553234D01*
X158314286Y-81553234D02*
X158361905Y-81362758D01*
X158361905Y-81362758D02*
X158409524Y-81267520D01*
X158409524Y-81267520D02*
X158504762Y-81172282D01*
X158504762Y-81172282D02*
X158647619Y-81124663D01*
X158647619Y-81124663D02*
X158742857Y-81124663D01*
X158742857Y-81124663D02*
X158885714Y-81172282D01*
X158885714Y-81172282D02*
X158933333Y-81219901D01*
X159790476Y-81457996D02*
X159790476Y-82124663D01*
X159552381Y-81077044D02*
X159314286Y-81791329D01*
X159314286Y-81791329D02*
X159933333Y-81791329D01*
X157438095Y-84054663D02*
X157438095Y-84864186D01*
X157438095Y-84864186D02*
X157485714Y-84959424D01*
X157485714Y-84959424D02*
X157533333Y-85007044D01*
X157533333Y-85007044D02*
X157628571Y-85054663D01*
X157628571Y-85054663D02*
X157819047Y-85054663D01*
X157819047Y-85054663D02*
X157914285Y-85007044D01*
X157914285Y-85007044D02*
X157961904Y-84959424D01*
X157961904Y-84959424D02*
X158009523Y-84864186D01*
X158009523Y-84864186D02*
X158009523Y-84054663D01*
X158390476Y-84054663D02*
X159009523Y-84054663D01*
X159009523Y-84054663D02*
X158676190Y-84435615D01*
X158676190Y-84435615D02*
X158819047Y-84435615D01*
X158819047Y-84435615D02*
X158914285Y-84483234D01*
X158914285Y-84483234D02*
X158961904Y-84530853D01*
X158961904Y-84530853D02*
X159009523Y-84626091D01*
X159009523Y-84626091D02*
X159009523Y-84864186D01*
X159009523Y-84864186D02*
X158961904Y-84959424D01*
X158961904Y-84959424D02*
X158914285Y-85007044D01*
X158914285Y-85007044D02*
X158819047Y-85054663D01*
X158819047Y-85054663D02*
X158533333Y-85054663D01*
X158533333Y-85054663D02*
X158438095Y-85007044D01*
X158438095Y-85007044D02*
X158390476Y-84959424D01*
X168694663Y-93011666D02*
X168218472Y-93344999D01*
X168694663Y-93583094D02*
X167694663Y-93583094D01*
X167694663Y-93583094D02*
X167694663Y-93202142D01*
X167694663Y-93202142D02*
X167742282Y-93106904D01*
X167742282Y-93106904D02*
X167789901Y-93059285D01*
X167789901Y-93059285D02*
X167885139Y-93011666D01*
X167885139Y-93011666D02*
X168027996Y-93011666D01*
X168027996Y-93011666D02*
X168123234Y-93059285D01*
X168123234Y-93059285D02*
X168170853Y-93106904D01*
X168170853Y-93106904D02*
X168218472Y-93202142D01*
X168218472Y-93202142D02*
X168218472Y-93583094D01*
X168694663Y-92059285D02*
X168694663Y-92630713D01*
X168694663Y-92344999D02*
X167694663Y-92344999D01*
X167694663Y-92344999D02*
X167837520Y-92440237D01*
X167837520Y-92440237D02*
X167932758Y-92535475D01*
X167932758Y-92535475D02*
X167980377Y-92630713D01*
X121499333Y-82750663D02*
X121166000Y-82274472D01*
X120927905Y-82750663D02*
X120927905Y-81750663D01*
X120927905Y-81750663D02*
X121308857Y-81750663D01*
X121308857Y-81750663D02*
X121404095Y-81798282D01*
X121404095Y-81798282D02*
X121451714Y-81845901D01*
X121451714Y-81845901D02*
X121499333Y-81941139D01*
X121499333Y-81941139D02*
X121499333Y-82083996D01*
X121499333Y-82083996D02*
X121451714Y-82179234D01*
X121451714Y-82179234D02*
X121404095Y-82226853D01*
X121404095Y-82226853D02*
X121308857Y-82274472D01*
X121308857Y-82274472D02*
X120927905Y-82274472D01*
X121832667Y-81750663D02*
X122451714Y-81750663D01*
X122451714Y-81750663D02*
X122118381Y-82131615D01*
X122118381Y-82131615D02*
X122261238Y-82131615D01*
X122261238Y-82131615D02*
X122356476Y-82179234D01*
X122356476Y-82179234D02*
X122404095Y-82226853D01*
X122404095Y-82226853D02*
X122451714Y-82322091D01*
X122451714Y-82322091D02*
X122451714Y-82560186D01*
X122451714Y-82560186D02*
X122404095Y-82655424D01*
X122404095Y-82655424D02*
X122356476Y-82703044D01*
X122356476Y-82703044D02*
X122261238Y-82750663D01*
X122261238Y-82750663D02*
X121975524Y-82750663D01*
X121975524Y-82750663D02*
X121880286Y-82703044D01*
X121880286Y-82703044D02*
X121832667Y-82655424D01*
X149633333Y-97089424D02*
X149585714Y-97137044D01*
X149585714Y-97137044D02*
X149442857Y-97184663D01*
X149442857Y-97184663D02*
X149347619Y-97184663D01*
X149347619Y-97184663D02*
X149204762Y-97137044D01*
X149204762Y-97137044D02*
X149109524Y-97041805D01*
X149109524Y-97041805D02*
X149061905Y-96946567D01*
X149061905Y-96946567D02*
X149014286Y-96756091D01*
X149014286Y-96756091D02*
X149014286Y-96613234D01*
X149014286Y-96613234D02*
X149061905Y-96422758D01*
X149061905Y-96422758D02*
X149109524Y-96327520D01*
X149109524Y-96327520D02*
X149204762Y-96232282D01*
X149204762Y-96232282D02*
X149347619Y-96184663D01*
X149347619Y-96184663D02*
X149442857Y-96184663D01*
X149442857Y-96184663D02*
X149585714Y-96232282D01*
X149585714Y-96232282D02*
X149633333Y-96279901D01*
X150109524Y-97184663D02*
X150300000Y-97184663D01*
X150300000Y-97184663D02*
X150395238Y-97137044D01*
X150395238Y-97137044D02*
X150442857Y-97089424D01*
X150442857Y-97089424D02*
X150538095Y-96946567D01*
X150538095Y-96946567D02*
X150585714Y-96756091D01*
X150585714Y-96756091D02*
X150585714Y-96375139D01*
X150585714Y-96375139D02*
X150538095Y-96279901D01*
X150538095Y-96279901D02*
X150490476Y-96232282D01*
X150490476Y-96232282D02*
X150395238Y-96184663D01*
X150395238Y-96184663D02*
X150204762Y-96184663D01*
X150204762Y-96184663D02*
X150109524Y-96232282D01*
X150109524Y-96232282D02*
X150061905Y-96279901D01*
X150061905Y-96279901D02*
X150014286Y-96375139D01*
X150014286Y-96375139D02*
X150014286Y-96613234D01*
X150014286Y-96613234D02*
X150061905Y-96708472D01*
X150061905Y-96708472D02*
X150109524Y-96756091D01*
X150109524Y-96756091D02*
X150204762Y-96803710D01*
X150204762Y-96803710D02*
X150395238Y-96803710D01*
X150395238Y-96803710D02*
X150490476Y-96756091D01*
X150490476Y-96756091D02*
X150538095Y-96708472D01*
X150538095Y-96708472D02*
X150585714Y-96613234D01*
X159957142Y-95459424D02*
X159909523Y-95507044D01*
X159909523Y-95507044D02*
X159766666Y-95554663D01*
X159766666Y-95554663D02*
X159671428Y-95554663D01*
X159671428Y-95554663D02*
X159528571Y-95507044D01*
X159528571Y-95507044D02*
X159433333Y-95411805D01*
X159433333Y-95411805D02*
X159385714Y-95316567D01*
X159385714Y-95316567D02*
X159338095Y-95126091D01*
X159338095Y-95126091D02*
X159338095Y-94983234D01*
X159338095Y-94983234D02*
X159385714Y-94792758D01*
X159385714Y-94792758D02*
X159433333Y-94697520D01*
X159433333Y-94697520D02*
X159528571Y-94602282D01*
X159528571Y-94602282D02*
X159671428Y-94554663D01*
X159671428Y-94554663D02*
X159766666Y-94554663D01*
X159766666Y-94554663D02*
X159909523Y-94602282D01*
X159909523Y-94602282D02*
X159957142Y-94649901D01*
X160909523Y-95554663D02*
X160338095Y-95554663D01*
X160623809Y-95554663D02*
X160623809Y-94554663D01*
X160623809Y-94554663D02*
X160528571Y-94697520D01*
X160528571Y-94697520D02*
X160433333Y-94792758D01*
X160433333Y-94792758D02*
X160338095Y-94840377D01*
X161290476Y-94649901D02*
X161338095Y-94602282D01*
X161338095Y-94602282D02*
X161433333Y-94554663D01*
X161433333Y-94554663D02*
X161671428Y-94554663D01*
X161671428Y-94554663D02*
X161766666Y-94602282D01*
X161766666Y-94602282D02*
X161814285Y-94649901D01*
X161814285Y-94649901D02*
X161861904Y-94745139D01*
X161861904Y-94745139D02*
X161861904Y-94840377D01*
X161861904Y-94840377D02*
X161814285Y-94983234D01*
X161814285Y-94983234D02*
X161242857Y-95554663D01*
X161242857Y-95554663D02*
X161861904Y-95554663D01*
X152759424Y-92942857D02*
X152807044Y-92990476D01*
X152807044Y-92990476D02*
X152854663Y-93133333D01*
X152854663Y-93133333D02*
X152854663Y-93228571D01*
X152854663Y-93228571D02*
X152807044Y-93371428D01*
X152807044Y-93371428D02*
X152711805Y-93466666D01*
X152711805Y-93466666D02*
X152616567Y-93514285D01*
X152616567Y-93514285D02*
X152426091Y-93561904D01*
X152426091Y-93561904D02*
X152283234Y-93561904D01*
X152283234Y-93561904D02*
X152092758Y-93514285D01*
X152092758Y-93514285D02*
X151997520Y-93466666D01*
X151997520Y-93466666D02*
X151902282Y-93371428D01*
X151902282Y-93371428D02*
X151854663Y-93228571D01*
X151854663Y-93228571D02*
X151854663Y-93133333D01*
X151854663Y-93133333D02*
X151902282Y-92990476D01*
X151902282Y-92990476D02*
X151949901Y-92942857D01*
X152854663Y-91990476D02*
X152854663Y-92561904D01*
X152854663Y-92276190D02*
X151854663Y-92276190D01*
X151854663Y-92276190D02*
X151997520Y-92371428D01*
X151997520Y-92371428D02*
X152092758Y-92466666D01*
X152092758Y-92466666D02*
X152140377Y-92561904D01*
X152187996Y-91133333D02*
X152854663Y-91133333D01*
X151807044Y-91371428D02*
X152521329Y-91609523D01*
X152521329Y-91609523D02*
X152521329Y-90990476D01*
X148923809Y-91928472D02*
X148923809Y-92404663D01*
X148590476Y-91404663D02*
X148923809Y-91928472D01*
X148923809Y-91928472D02*
X149257142Y-91404663D01*
X150114285Y-92404663D02*
X149542857Y-92404663D01*
X149828571Y-92404663D02*
X149828571Y-91404663D01*
X149828571Y-91404663D02*
X149733333Y-91547520D01*
X149733333Y-91547520D02*
X149638095Y-91642758D01*
X149638095Y-91642758D02*
X149542857Y-91690377D01*
X157313333Y-78686663D02*
X156980000Y-78210472D01*
X156741905Y-78686663D02*
X156741905Y-77686663D01*
X156741905Y-77686663D02*
X157122857Y-77686663D01*
X157122857Y-77686663D02*
X157218095Y-77734282D01*
X157218095Y-77734282D02*
X157265714Y-77781901D01*
X157265714Y-77781901D02*
X157313333Y-77877139D01*
X157313333Y-77877139D02*
X157313333Y-78019996D01*
X157313333Y-78019996D02*
X157265714Y-78115234D01*
X157265714Y-78115234D02*
X157218095Y-78162853D01*
X157218095Y-78162853D02*
X157122857Y-78210472D01*
X157122857Y-78210472D02*
X156741905Y-78210472D01*
X158170476Y-77686663D02*
X157980000Y-77686663D01*
X157980000Y-77686663D02*
X157884762Y-77734282D01*
X157884762Y-77734282D02*
X157837143Y-77781901D01*
X157837143Y-77781901D02*
X157741905Y-77924758D01*
X157741905Y-77924758D02*
X157694286Y-78115234D01*
X157694286Y-78115234D02*
X157694286Y-78496186D01*
X157694286Y-78496186D02*
X157741905Y-78591424D01*
X157741905Y-78591424D02*
X157789524Y-78639044D01*
X157789524Y-78639044D02*
X157884762Y-78686663D01*
X157884762Y-78686663D02*
X158075238Y-78686663D01*
X158075238Y-78686663D02*
X158170476Y-78639044D01*
X158170476Y-78639044D02*
X158218095Y-78591424D01*
X158218095Y-78591424D02*
X158265714Y-78496186D01*
X158265714Y-78496186D02*
X158265714Y-78258091D01*
X158265714Y-78258091D02*
X158218095Y-78162853D01*
X158218095Y-78162853D02*
X158170476Y-78115234D01*
X158170476Y-78115234D02*
X158075238Y-78067615D01*
X158075238Y-78067615D02*
X157884762Y-78067615D01*
X157884762Y-78067615D02*
X157789524Y-78115234D01*
X157789524Y-78115234D02*
X157741905Y-78162853D01*
X157741905Y-78162853D02*
X157694286Y-78258091D01*
D11*
%TO.C,C10*%
X171965000Y-70600748D02*
X171965000Y-71123252D01*
X173435000Y-70600748D02*
X173435000Y-71123252D01*
%TO.C,U1*%
D12*
X126209000Y-89488200D02*
G75*
G02*
X125909000Y-89488200I-150000J0D01*
G01*
X125909000Y-89488200D02*
G75*
G02*
X126209000Y-89488200I150000J0D01*
G01*
D11*
%TO.C,J4*%
X149930000Y-68690000D02*
X149930000Y-70390000D01*
X159270000Y-68690000D02*
X159270000Y-70390000D01*
%TO.C,J1*%
X133163000Y-98619000D02*
X133163000Y-101279000D01*
X140843000Y-98619000D02*
X133163000Y-98619000D01*
X140843000Y-98619000D02*
X140843000Y-101279000D01*
X140843000Y-101279000D02*
X133163000Y-101279000D01*
X142113000Y-98619000D02*
X143443000Y-98619000D01*
X143443000Y-98619000D02*
X143443000Y-99949000D01*
%TO.C,C13*%
X153390000Y-89340580D02*
X153390000Y-89059420D01*
X154410000Y-89340580D02*
X154410000Y-89059420D01*
%TO.C,R4*%
X156937258Y-82577500D02*
X156462742Y-82577500D01*
X156937258Y-83622500D02*
X156462742Y-83622500D01*
%TO.C,D2*%
X160186000Y-69129000D02*
X160186000Y-71789000D01*
X161886000Y-69129000D02*
X160186000Y-69129000D01*
X161886000Y-69129000D02*
X161886000Y-71789000D01*
%TO.C,J5*%
X161530000Y-81030000D02*
X161530000Y-79700000D01*
X162860000Y-81030000D02*
X161530000Y-81030000D01*
X164130000Y-78370000D02*
X171810000Y-78370000D01*
X164130000Y-81030000D02*
X164130000Y-78370000D01*
X164130000Y-81030000D02*
X171810000Y-81030000D01*
X171810000Y-81030000D02*
X171810000Y-78370000D01*
%TO.C,D1*%
X119153000Y-83859000D02*
X119153000Y-86144000D01*
X120623000Y-83859000D02*
X119153000Y-83859000D01*
X120623000Y-86144000D02*
X120623000Y-83859000D01*
%TO.C,C11*%
X166723748Y-74953000D02*
X167246252Y-74953000D01*
X166723748Y-76423000D02*
X167246252Y-76423000D01*
%TO.C,R8*%
X130699742Y-99426500D02*
X131174258Y-99426500D01*
X130699742Y-100471500D02*
X131174258Y-100471500D01*
%TO.C,JP1*%
X118558000Y-90048000D02*
X118558000Y-87448000D01*
X121218000Y-87448000D02*
X118558000Y-87448000D01*
X121218000Y-90048000D02*
X118558000Y-90048000D01*
X121218000Y-90048000D02*
X121218000Y-87448000D01*
X121218000Y-91318000D02*
X121218000Y-92648000D01*
X121218000Y-92648000D02*
X119888000Y-92648000D01*
%TO.C,J2*%
X133163000Y-90619000D02*
X133163000Y-93279000D01*
X140843000Y-90619000D02*
X133163000Y-90619000D01*
X140843000Y-90619000D02*
X140843000Y-93279000D01*
X140843000Y-93279000D02*
X133163000Y-93279000D01*
X142113000Y-90619000D02*
X143443000Y-90619000D01*
X143443000Y-90619000D02*
X143443000Y-91949000D01*
%TO.C,C6*%
X167790000Y-86459420D02*
X167790000Y-86740580D01*
X168810000Y-86459420D02*
X168810000Y-86740580D01*
%TO.C,R5*%
X151283500Y-76249258D02*
X151283500Y-75774742D01*
X152328500Y-76249258D02*
X152328500Y-75774742D01*
%TO.C,C7*%
X155790000Y-91259420D02*
X155790000Y-91540580D01*
X156810000Y-91259420D02*
X156810000Y-91540580D01*
%TO.C,C2*%
X169390000Y-86459420D02*
X169390000Y-86740580D01*
X170410000Y-86459420D02*
X170410000Y-86740580D01*
%TO.C,J3*%
X173755000Y-79920000D02*
X173755000Y-80920000D01*
X173755000Y-80920000D02*
X174755000Y-80420000D01*
X174755000Y-80420000D02*
X173755000Y-79920000D01*
X175145000Y-75210000D02*
X184265000Y-75210000D01*
X175145000Y-83450000D02*
X176455000Y-83450000D01*
X175145000Y-95790000D02*
X175145000Y-75210000D01*
X176455000Y-76510000D02*
X182955000Y-76510000D01*
X176455000Y-83450000D02*
X176455000Y-76510000D01*
X176455000Y-87550000D02*
X175145000Y-87550000D01*
X176455000Y-87550000D02*
X176455000Y-87550000D01*
X176455000Y-94490000D02*
X176455000Y-87550000D01*
X182955000Y-76510000D02*
X182955000Y-94490000D01*
X182955000Y-94490000D02*
X176455000Y-94490000D01*
X184265000Y-75210000D02*
X184265000Y-95790000D01*
X184265000Y-95790000D02*
X175145000Y-95790000D01*
%TO.C,C1*%
X123569000Y-90691580D02*
X123569000Y-90410420D01*
X124589000Y-90691580D02*
X124589000Y-90410420D01*
%TO.C,D3*%
X154746400Y-72939000D02*
X154746400Y-75599000D01*
X156446400Y-72939000D02*
X154746400Y-72939000D01*
X156446400Y-72939000D02*
X156446400Y-75599000D01*
%TO.C,FB1*%
X153062779Y-94790000D02*
X152737221Y-94790000D01*
X153062779Y-95810000D02*
X152737221Y-95810000D01*
%TO.C,D4*%
X152746400Y-72939000D02*
X152746400Y-75599000D01*
X154446400Y-72939000D02*
X152746400Y-72939000D01*
X154446400Y-72939000D02*
X154446400Y-75599000D01*
%TO.C,C5*%
X155790000Y-85740580D02*
X155790000Y-85459420D01*
X156810000Y-85740580D02*
X156810000Y-85459420D01*
%TO.C,C8*%
X155859420Y-94790000D02*
X156140580Y-94790000D01*
X155859420Y-95810000D02*
X156140580Y-95810000D01*
%TO.C,R2*%
X170380000Y-92875000D02*
X173180000Y-92875000D01*
X170380000Y-97075000D02*
X173180000Y-97075000D01*
X170380000Y-97075000D02*
G75*
G02*
X170393963Y-92865758I1400000J2100000D01*
G01*
X173180000Y-92875000D02*
G75*
G02*
X173166037Y-97084242I-1400000J-2100000D01*
G01*
%TO.C,R9*%
X128126258Y-99426500D02*
X127651742Y-99426500D01*
X128126258Y-100471500D02*
X127651742Y-100471500D01*
%TO.C,JP2*%
X149730000Y-87130000D02*
X149730000Y-85800000D01*
X151060000Y-87130000D02*
X149730000Y-87130000D01*
X152330000Y-84470000D02*
X154930000Y-84470000D01*
X152330000Y-87130000D02*
X152330000Y-84470000D01*
X152330000Y-87130000D02*
X154930000Y-87130000D01*
X154930000Y-87130000D02*
X154930000Y-84470000D01*
%TO.C,U2*%
X165075000Y-67452000D02*
X165075000Y-68712000D01*
X165075000Y-74272000D02*
X165075000Y-73012000D01*
X168835000Y-67452000D02*
X165075000Y-67452000D01*
X168835000Y-74272000D02*
X165075000Y-74272000D01*
X170355000Y-74502000D02*
X169875000Y-74502000D01*
X170115000Y-74172000D01*
X170355000Y-74502000D01*
G36*
X170355000Y-74502000D02*
G01*
X169875000Y-74502000D01*
X170115000Y-74172000D01*
X170355000Y-74502000D01*
G37*
%TO.C,C3*%
X165040580Y-94590000D02*
X164759420Y-94590000D01*
X165040580Y-95610000D02*
X164759420Y-95610000D01*
%TO.C,R7*%
X153387742Y-82577500D02*
X153862258Y-82577500D01*
X153387742Y-83622500D02*
X153862258Y-83622500D01*
%TO.C,C4*%
X159659420Y-82590000D02*
X159940580Y-82590000D01*
X159659420Y-83610000D02*
X159940580Y-83610000D01*
%TO.C,U3*%
X158690000Y-85490000D02*
X158690000Y-85940000D01*
X158690000Y-92710000D02*
X158690000Y-92260000D01*
X159140000Y-85490000D02*
X158690000Y-85490000D01*
X159140000Y-92710000D02*
X158690000Y-92710000D01*
X165460000Y-85490000D02*
X165910000Y-85490000D01*
X165460000Y-92710000D02*
X165910000Y-92710000D01*
X165910000Y-85490000D02*
X165910000Y-85940000D01*
X165910000Y-92710000D02*
X165910000Y-92260000D01*
X158100000Y-85940000D02*
X157760000Y-85470000D01*
X158440000Y-85470000D01*
X158100000Y-85940000D01*
G36*
X158100000Y-85940000D02*
G01*
X157760000Y-85470000D01*
X158440000Y-85470000D01*
X158100000Y-85940000D01*
G37*
%TO.C,R1*%
X167717500Y-96032258D02*
X167717500Y-95557742D01*
X168762500Y-96032258D02*
X168762500Y-95557742D01*
%TO.C,R3*%
X119365500Y-82469258D02*
X119365500Y-81994742D01*
X120410500Y-82469258D02*
X120410500Y-81994742D01*
%TO.C,C9*%
X149940580Y-94790000D02*
X149659420Y-94790000D01*
X149940580Y-95810000D02*
X149659420Y-95810000D01*
%TO.C,C12*%
X157790000Y-94359420D02*
X157790000Y-94640580D01*
X158810000Y-94359420D02*
X158810000Y-94640580D01*
%TO.C,C14*%
X153390000Y-92159420D02*
X153390000Y-92440580D01*
X154410000Y-92159420D02*
X154410000Y-92440580D01*
%TO.C,Y1*%
X151400000Y-87850000D02*
X147400000Y-87850000D01*
X151400000Y-91150000D02*
X151400000Y-87850000D01*
%TO.C,R6*%
X156871500Y-76249258D02*
X156871500Y-75774742D01*
X157916500Y-76249258D02*
X157916500Y-75774742D01*
%TD*%
M02*
