%TF.GenerationSoftware,KiCad,Pcbnew,8.0.3*%
%TF.CreationDate,2024-06-09T23:31:15+12:00*%
%TF.ProjectId,microcontroller,6d696372-6f63-46f6-9e74-726f6c6c6572,0.1.3*%
%TF.SameCoordinates,Original*%
%TF.FileFunction,Paste,Top*%
%TF.FilePolarity,Positive*%
%FSLAX46Y46*%
G04 Gerber Fmt 4.6, Leading zero omitted, Abs format (unit mm)*
G04 Created by KiCad (PCBNEW 8.0.3) date 2024-06-09 23:31:15*
%MOMM*%
%LPD*%
G01*
G04 APERTURE LIST*
G04 Aperture macros list*
%AMRoundRect*
0 Rectangle with rounded corners*
0 $1 Rounding radius*
0 $2 $3 $4 $5 $6 $7 $8 $9 X,Y pos of 4 corners*
0 Add a 4 corners polygon primitive as box body*
4,1,4,$2,$3,$4,$5,$6,$7,$8,$9,$2,$3,0*
0 Add four circle primitives for the rounded corners*
1,1,$1+$1,$2,$3*
1,1,$1+$1,$4,$5*
1,1,$1+$1,$6,$7*
1,1,$1+$1,$8,$9*
0 Add four rect primitives between the rounded corners*
20,1,$1+$1,$2,$3,$4,$5,0*
20,1,$1+$1,$4,$5,$6,$7,0*
20,1,$1+$1,$6,$7,$8,$9,0*
20,1,$1+$1,$8,$9,$2,$3,0*%
G04 Aperture macros list end*
%ADD10RoundRect,0.250000X-0.475000X0.250000X-0.475000X-0.250000X0.475000X-0.250000X0.475000X0.250000X0*%
%ADD11RoundRect,0.079500X-0.910500X-0.185500X0.910500X-0.185500X0.910500X0.185500X-0.910500X0.185500X0*%
%ADD12RoundRect,0.175000X0.175000X0.425000X-0.175000X0.425000X-0.175000X-0.425000X0.175000X-0.425000X0*%
%ADD13RoundRect,0.190000X-0.190000X-0.410000X0.190000X-0.410000X0.190000X0.410000X-0.190000X0.410000X0*%
%ADD14RoundRect,0.200000X-0.200000X-0.400000X0.200000X-0.400000X0.200000X0.400000X-0.200000X0.400000X0*%
%ADD15RoundRect,0.175000X-0.175000X-0.425000X0.175000X-0.425000X0.175000X0.425000X-0.175000X0.425000X0*%
%ADD16RoundRect,0.190000X0.190000X0.410000X-0.190000X0.410000X-0.190000X-0.410000X0.190000X-0.410000X0*%
%ADD17RoundRect,0.200000X0.200000X0.400000X-0.200000X0.400000X-0.200000X-0.400000X0.200000X-0.400000X0*%
%ADD18O,1.100000X1.700000*%
%ADD19RoundRect,0.225000X0.250000X-0.225000X0.250000X0.225000X-0.250000X0.225000X-0.250000X-0.225000X0*%
%ADD20RoundRect,0.200000X0.200000X0.275000X-0.200000X0.275000X-0.200000X-0.275000X0.200000X-0.275000X0*%
%ADD21RoundRect,0.112500X-0.112500X0.187500X-0.112500X-0.187500X0.112500X-0.187500X0.112500X0.187500X0*%
%ADD22RoundRect,0.218750X-0.256250X0.218750X-0.256250X-0.218750X0.256250X-0.218750X0.256250X0.218750X0*%
%ADD23RoundRect,0.250000X-0.250000X-0.475000X0.250000X-0.475000X0.250000X0.475000X-0.250000X0.475000X0*%
%ADD24RoundRect,0.200000X-0.200000X-0.275000X0.200000X-0.275000X0.200000X0.275000X-0.200000X0.275000X0*%
%ADD25RoundRect,0.225000X-0.250000X0.225000X-0.250000X-0.225000X0.250000X-0.225000X0.250000X0.225000X0*%
%ADD26RoundRect,0.200000X0.275000X-0.200000X0.275000X0.200000X-0.275000X0.200000X-0.275000X-0.200000X0*%
%ADD27C,17.900000*%
%ADD28RoundRect,0.218750X0.218750X0.256250X-0.218750X0.256250X-0.218750X-0.256250X0.218750X-0.256250X0*%
%ADD29RoundRect,0.225000X-0.225000X-0.250000X0.225000X-0.250000X0.225000X0.250000X-0.225000X0.250000X0*%
%ADD30RoundRect,0.375000X0.625000X0.375000X-0.625000X0.375000X-0.625000X-0.375000X0.625000X-0.375000X0*%
%ADD31RoundRect,0.500000X0.500000X1.400000X-0.500000X1.400000X-0.500000X-1.400000X0.500000X-1.400000X0*%
%ADD32RoundRect,0.225000X0.225000X0.250000X-0.225000X0.250000X-0.225000X-0.250000X0.225000X-0.250000X0*%
%ADD33RoundRect,0.075000X-0.662500X-0.075000X0.662500X-0.075000X0.662500X0.075000X-0.662500X0.075000X0*%
%ADD34RoundRect,0.075000X-0.075000X-0.662500X0.075000X-0.662500X0.075000X0.662500X-0.075000X0.662500X0*%
%ADD35R,1.400000X1.200000*%
G04 APERTURE END LIST*
D10*
%TO.C,C10*%
X172700000Y-69912000D03*
X172700000Y-71812000D03*
%TD*%
D11*
%TO.C,U1*%
X126059000Y-90170000D03*
X126059000Y-91440000D03*
X126059000Y-92710000D03*
X126059000Y-93980000D03*
X130989000Y-93980000D03*
X130989000Y-92710000D03*
X130989000Y-91440000D03*
X130989000Y-90170000D03*
%TD*%
D12*
%TO.C,J4*%
X155100000Y-71520000D03*
D13*
X153080000Y-71520000D03*
D14*
X151850000Y-71520000D03*
D15*
X154100000Y-71520000D03*
D16*
X156120000Y-71520000D03*
D17*
X157350000Y-71520000D03*
D18*
X158920000Y-71440000D03*
X158920000Y-67640000D03*
X150280000Y-71440000D03*
X150280000Y-67640000D03*
%TD*%
D19*
%TO.C,C13*%
X153900000Y-89975000D03*
X153900000Y-88425000D03*
%TD*%
D20*
%TO.C,R4*%
X157525000Y-83100000D03*
X155875000Y-83100000D03*
%TD*%
D21*
%TO.C,D2*%
X161036000Y-69689000D03*
X161036000Y-71789000D03*
%TD*%
D22*
%TO.C,D1*%
X119888000Y-84556500D03*
X119888000Y-86131500D03*
%TD*%
D23*
%TO.C,C11*%
X166035000Y-75688000D03*
X167935000Y-75688000D03*
%TD*%
D24*
%TO.C,R8*%
X130112000Y-99949000D03*
X131762000Y-99949000D03*
%TD*%
D25*
%TO.C,C6*%
X168300000Y-85825000D03*
X168300000Y-87375000D03*
%TD*%
D26*
%TO.C,R5*%
X151806000Y-76837000D03*
X151806000Y-75187000D03*
%TD*%
D27*
%TO.C,BT1*%
X136500000Y-77000000D03*
%TD*%
D25*
%TO.C,C7*%
X156300000Y-90625000D03*
X156300000Y-92175000D03*
%TD*%
%TO.C,C2*%
X169900000Y-85825000D03*
X169900000Y-87375000D03*
%TD*%
D19*
%TO.C,C1*%
X124079000Y-91326000D03*
X124079000Y-89776000D03*
%TD*%
D21*
%TO.C,D3*%
X155596400Y-73499000D03*
X155596400Y-75599000D03*
%TD*%
D28*
%TO.C,FB1*%
X153687500Y-95300000D03*
X152112500Y-95300000D03*
%TD*%
D21*
%TO.C,D4*%
X153596400Y-73499000D03*
X153596400Y-75599000D03*
%TD*%
D19*
%TO.C,C5*%
X156300000Y-86375000D03*
X156300000Y-84825000D03*
%TD*%
D29*
%TO.C,C8*%
X155225000Y-95300000D03*
X156775000Y-95300000D03*
%TD*%
D20*
%TO.C,R9*%
X128714000Y-99949000D03*
X127064000Y-99949000D03*
%TD*%
D30*
%TO.C,U2*%
X170135000Y-73162000D03*
X170135000Y-70862000D03*
D31*
X163835000Y-70862000D03*
D30*
X170135000Y-68562000D03*
%TD*%
D32*
%TO.C,C3*%
X165675000Y-95100000D03*
X164125000Y-95100000D03*
%TD*%
D24*
%TO.C,R7*%
X152800000Y-83100000D03*
X154450000Y-83100000D03*
%TD*%
D29*
%TO.C,C4*%
X159025000Y-83100000D03*
X160575000Y-83100000D03*
%TD*%
D33*
%TO.C,U3*%
X158137500Y-86350000D03*
X158137500Y-86850000D03*
X158137500Y-87350000D03*
X158137500Y-87850000D03*
X158137500Y-88350000D03*
X158137500Y-88850000D03*
X158137500Y-89350000D03*
X158137500Y-89850000D03*
X158137500Y-90350000D03*
X158137500Y-90850000D03*
X158137500Y-91350000D03*
X158137500Y-91850000D03*
D34*
X159550000Y-93262500D03*
X160050000Y-93262500D03*
X160550000Y-93262500D03*
X161050000Y-93262500D03*
X161550000Y-93262500D03*
X162050000Y-93262500D03*
X162550000Y-93262500D03*
X163050000Y-93262500D03*
X163550000Y-93262500D03*
X164050000Y-93262500D03*
X164550000Y-93262500D03*
X165050000Y-93262500D03*
D33*
X166462500Y-91850000D03*
X166462500Y-91350000D03*
X166462500Y-90850000D03*
X166462500Y-90350000D03*
X166462500Y-89850000D03*
X166462500Y-89350000D03*
X166462500Y-88850000D03*
X166462500Y-88350000D03*
X166462500Y-87850000D03*
X166462500Y-87350000D03*
X166462500Y-86850000D03*
X166462500Y-86350000D03*
D34*
X165050000Y-84937500D03*
X164550000Y-84937500D03*
X164050000Y-84937500D03*
X163550000Y-84937500D03*
X163050000Y-84937500D03*
X162550000Y-84937500D03*
X162050000Y-84937500D03*
X161550000Y-84937500D03*
X161050000Y-84937500D03*
X160550000Y-84937500D03*
X160050000Y-84937500D03*
X159550000Y-84937500D03*
%TD*%
D26*
%TO.C,R1*%
X168240000Y-96620000D03*
X168240000Y-94970000D03*
%TD*%
%TO.C,R3*%
X119888000Y-83057000D03*
X119888000Y-81407000D03*
%TD*%
D32*
%TO.C,C9*%
X150575000Y-95300000D03*
X149025000Y-95300000D03*
%TD*%
D25*
%TO.C,C12*%
X158300000Y-93725000D03*
X158300000Y-95275000D03*
%TD*%
%TO.C,C14*%
X153900000Y-91525000D03*
X153900000Y-93075000D03*
%TD*%
D35*
%TO.C,Y1*%
X150500000Y-88650000D03*
X148300000Y-88650000D03*
X148300000Y-90350000D03*
X150500000Y-90350000D03*
%TD*%
D26*
%TO.C,R6*%
X157394000Y-76837000D03*
X157394000Y-75187000D03*
%TD*%
M02*
