%TF.GenerationSoftware,KiCad,Pcbnew,8.0.3*%
%TF.CreationDate,2024-06-16T18:07:54+12:00*%
%TF.ProjectId,microcontroller,6d696372-6f63-46f6-9e74-726f6c6c6572,0.1.3*%
%TF.SameCoordinates,Original*%
%TF.FileFunction,Legend,Top*%
%TF.FilePolarity,Positive*%
%FSLAX46Y46*%
G04 Gerber Fmt 4.6, Leading zero omitted, Abs format (unit mm)*
G04 Created by KiCad (PCBNEW 8.0.3) date 2024-06-16 18:07:54*
%MOMM*%
%LPD*%
G01*
G04 APERTURE LIST*
%ADD10C,0.153000*%
%ADD11C,0.120000*%
%ADD12C,0.300000*%
G04 APERTURE END LIST*
D10*
X119305942Y-93976663D02*
X118829752Y-93976663D01*
X118829752Y-93976663D02*
X118829752Y-92976663D01*
X119639276Y-93452853D02*
X119972609Y-93452853D01*
X120115466Y-93976663D02*
X119639276Y-93976663D01*
X119639276Y-93976663D02*
X119639276Y-92976663D01*
X119639276Y-92976663D02*
X120115466Y-92976663D01*
X120544038Y-93976663D02*
X120544038Y-92976663D01*
X120544038Y-92976663D02*
X120782133Y-92976663D01*
X120782133Y-92976663D02*
X120924990Y-93024282D01*
X120924990Y-93024282D02*
X121020228Y-93119520D01*
X121020228Y-93119520D02*
X121067847Y-93214758D01*
X121067847Y-93214758D02*
X121115466Y-93405234D01*
X121115466Y-93405234D02*
X121115466Y-93548091D01*
X121115466Y-93548091D02*
X121067847Y-93738567D01*
X121067847Y-93738567D02*
X121020228Y-93833805D01*
X121020228Y-93833805D02*
X120924990Y-93929044D01*
X120924990Y-93929044D02*
X120782133Y-93976663D01*
X120782133Y-93976663D02*
X120544038Y-93976663D01*
X161618752Y-82088710D02*
X162380657Y-82088710D01*
X164190180Y-82374424D02*
X164142561Y-82422044D01*
X164142561Y-82422044D02*
X163999704Y-82469663D01*
X163999704Y-82469663D02*
X163904466Y-82469663D01*
X163904466Y-82469663D02*
X163761609Y-82422044D01*
X163761609Y-82422044D02*
X163666371Y-82326805D01*
X163666371Y-82326805D02*
X163618752Y-82231567D01*
X163618752Y-82231567D02*
X163571133Y-82041091D01*
X163571133Y-82041091D02*
X163571133Y-81898234D01*
X163571133Y-81898234D02*
X163618752Y-81707758D01*
X163618752Y-81707758D02*
X163666371Y-81612520D01*
X163666371Y-81612520D02*
X163761609Y-81517282D01*
X163761609Y-81517282D02*
X163904466Y-81469663D01*
X163904466Y-81469663D02*
X163999704Y-81469663D01*
X163999704Y-81469663D02*
X164142561Y-81517282D01*
X164142561Y-81517282D02*
X164190180Y-81564901D01*
X165094942Y-82469663D02*
X164618752Y-82469663D01*
X164618752Y-82469663D02*
X164618752Y-81469663D01*
X165428276Y-82469663D02*
X165428276Y-81469663D01*
X165999704Y-82469663D02*
X165571133Y-81898234D01*
X165999704Y-81469663D02*
X165428276Y-82041091D01*
X167190181Y-82469663D02*
X167190181Y-81469663D01*
X167190181Y-81469663D02*
X167428276Y-81469663D01*
X167428276Y-81469663D02*
X167571133Y-81517282D01*
X167571133Y-81517282D02*
X167666371Y-81612520D01*
X167666371Y-81612520D02*
X167713990Y-81707758D01*
X167713990Y-81707758D02*
X167761609Y-81898234D01*
X167761609Y-81898234D02*
X167761609Y-82041091D01*
X167761609Y-82041091D02*
X167713990Y-82231567D01*
X167713990Y-82231567D02*
X167666371Y-82326805D01*
X167666371Y-82326805D02*
X167571133Y-82422044D01*
X167571133Y-82422044D02*
X167428276Y-82469663D01*
X167428276Y-82469663D02*
X167190181Y-82469663D01*
X168190181Y-82469663D02*
X168190181Y-81469663D01*
X168856847Y-81469663D02*
X169047323Y-81469663D01*
X169047323Y-81469663D02*
X169142561Y-81517282D01*
X169142561Y-81517282D02*
X169237799Y-81612520D01*
X169237799Y-81612520D02*
X169285418Y-81802996D01*
X169285418Y-81802996D02*
X169285418Y-82136329D01*
X169285418Y-82136329D02*
X169237799Y-82326805D01*
X169237799Y-82326805D02*
X169142561Y-82422044D01*
X169142561Y-82422044D02*
X169047323Y-82469663D01*
X169047323Y-82469663D02*
X168856847Y-82469663D01*
X168856847Y-82469663D02*
X168761609Y-82422044D01*
X168761609Y-82422044D02*
X168666371Y-82326805D01*
X168666371Y-82326805D02*
X168618752Y-82136329D01*
X168618752Y-82136329D02*
X168618752Y-81802996D01*
X168618752Y-81802996D02*
X168666371Y-81612520D01*
X168666371Y-81612520D02*
X168761609Y-81517282D01*
X168761609Y-81517282D02*
X168856847Y-81469663D01*
X170475895Y-82088710D02*
X171237800Y-82088710D01*
X170856847Y-82469663D02*
X170856847Y-81707758D01*
X150472085Y-83745853D02*
X150614942Y-83793472D01*
X150614942Y-83793472D02*
X150662561Y-83841091D01*
X150662561Y-83841091D02*
X150710180Y-83936329D01*
X150710180Y-83936329D02*
X150710180Y-84079186D01*
X150710180Y-84079186D02*
X150662561Y-84174424D01*
X150662561Y-84174424D02*
X150614942Y-84222044D01*
X150614942Y-84222044D02*
X150519704Y-84269663D01*
X150519704Y-84269663D02*
X150138752Y-84269663D01*
X150138752Y-84269663D02*
X150138752Y-83269663D01*
X150138752Y-83269663D02*
X150472085Y-83269663D01*
X150472085Y-83269663D02*
X150567323Y-83317282D01*
X150567323Y-83317282D02*
X150614942Y-83364901D01*
X150614942Y-83364901D02*
X150662561Y-83460139D01*
X150662561Y-83460139D02*
X150662561Y-83555377D01*
X150662561Y-83555377D02*
X150614942Y-83650615D01*
X150614942Y-83650615D02*
X150567323Y-83698234D01*
X150567323Y-83698234D02*
X150472085Y-83745853D01*
X150472085Y-83745853D02*
X150138752Y-83745853D01*
X151329228Y-83269663D02*
X151424466Y-83269663D01*
X151424466Y-83269663D02*
X151519704Y-83317282D01*
X151519704Y-83317282D02*
X151567323Y-83364901D01*
X151567323Y-83364901D02*
X151614942Y-83460139D01*
X151614942Y-83460139D02*
X151662561Y-83650615D01*
X151662561Y-83650615D02*
X151662561Y-83888710D01*
X151662561Y-83888710D02*
X151614942Y-84079186D01*
X151614942Y-84079186D02*
X151567323Y-84174424D01*
X151567323Y-84174424D02*
X151519704Y-84222044D01*
X151519704Y-84222044D02*
X151424466Y-84269663D01*
X151424466Y-84269663D02*
X151329228Y-84269663D01*
X151329228Y-84269663D02*
X151233990Y-84222044D01*
X151233990Y-84222044D02*
X151186371Y-84174424D01*
X151186371Y-84174424D02*
X151138752Y-84079186D01*
X151138752Y-84079186D02*
X151091133Y-83888710D01*
X151091133Y-83888710D02*
X151091133Y-83650615D01*
X151091133Y-83650615D02*
X151138752Y-83460139D01*
X151138752Y-83460139D02*
X151186371Y-83364901D01*
X151186371Y-83364901D02*
X151233990Y-83317282D01*
X151233990Y-83317282D02*
X151329228Y-83269663D01*
X174739424Y-71028666D02*
X174787044Y-71076285D01*
X174787044Y-71076285D02*
X174834663Y-71219142D01*
X174834663Y-71219142D02*
X174834663Y-71314380D01*
X174834663Y-71314380D02*
X174787044Y-71457237D01*
X174787044Y-71457237D02*
X174691805Y-71552475D01*
X174691805Y-71552475D02*
X174596567Y-71600094D01*
X174596567Y-71600094D02*
X174406091Y-71647713D01*
X174406091Y-71647713D02*
X174263234Y-71647713D01*
X174263234Y-71647713D02*
X174072758Y-71600094D01*
X174072758Y-71600094D02*
X173977520Y-71552475D01*
X173977520Y-71552475D02*
X173882282Y-71457237D01*
X173882282Y-71457237D02*
X173834663Y-71314380D01*
X173834663Y-71314380D02*
X173834663Y-71219142D01*
X173834663Y-71219142D02*
X173882282Y-71076285D01*
X173882282Y-71076285D02*
X173929901Y-71028666D01*
X174834663Y-70552475D02*
X174834663Y-70361999D01*
X174834663Y-70361999D02*
X174787044Y-70266761D01*
X174787044Y-70266761D02*
X174739424Y-70219142D01*
X174739424Y-70219142D02*
X174596567Y-70123904D01*
X174596567Y-70123904D02*
X174406091Y-70076285D01*
X174406091Y-70076285D02*
X174025139Y-70076285D01*
X174025139Y-70076285D02*
X173929901Y-70123904D01*
X173929901Y-70123904D02*
X173882282Y-70171523D01*
X173882282Y-70171523D02*
X173834663Y-70266761D01*
X173834663Y-70266761D02*
X173834663Y-70457237D01*
X173834663Y-70457237D02*
X173882282Y-70552475D01*
X173882282Y-70552475D02*
X173929901Y-70600094D01*
X173929901Y-70600094D02*
X174025139Y-70647713D01*
X174025139Y-70647713D02*
X174263234Y-70647713D01*
X174263234Y-70647713D02*
X174358472Y-70600094D01*
X174358472Y-70600094D02*
X174406091Y-70552475D01*
X174406091Y-70552475D02*
X174453710Y-70457237D01*
X174453710Y-70457237D02*
X174453710Y-70266761D01*
X174453710Y-70266761D02*
X174406091Y-70171523D01*
X174406091Y-70171523D02*
X174358472Y-70123904D01*
X174358472Y-70123904D02*
X174263234Y-70076285D01*
X127762095Y-87770463D02*
X127762095Y-88579986D01*
X127762095Y-88579986D02*
X127809714Y-88675224D01*
X127809714Y-88675224D02*
X127857333Y-88722844D01*
X127857333Y-88722844D02*
X127952571Y-88770463D01*
X127952571Y-88770463D02*
X128143047Y-88770463D01*
X128143047Y-88770463D02*
X128238285Y-88722844D01*
X128238285Y-88722844D02*
X128285904Y-88675224D01*
X128285904Y-88675224D02*
X128333523Y-88579986D01*
X128333523Y-88579986D02*
X128333523Y-87770463D01*
X128714476Y-87770463D02*
X129333523Y-87770463D01*
X129333523Y-87770463D02*
X129000190Y-88151415D01*
X129000190Y-88151415D02*
X129143047Y-88151415D01*
X129143047Y-88151415D02*
X129238285Y-88199034D01*
X129238285Y-88199034D02*
X129285904Y-88246653D01*
X129285904Y-88246653D02*
X129333523Y-88341891D01*
X129333523Y-88341891D02*
X129333523Y-88579986D01*
X129333523Y-88579986D02*
X129285904Y-88675224D01*
X129285904Y-88675224D02*
X129238285Y-88722844D01*
X129238285Y-88722844D02*
X129143047Y-88770463D01*
X129143047Y-88770463D02*
X128857333Y-88770463D01*
X128857333Y-88770463D02*
X128762095Y-88722844D01*
X128762095Y-88722844D02*
X128714476Y-88675224D01*
X148066666Y-66554663D02*
X148066666Y-67268948D01*
X148066666Y-67268948D02*
X148019047Y-67411805D01*
X148019047Y-67411805D02*
X147923809Y-67507044D01*
X147923809Y-67507044D02*
X147780952Y-67554663D01*
X147780952Y-67554663D02*
X147685714Y-67554663D01*
X149066666Y-67554663D02*
X148495238Y-67554663D01*
X148780952Y-67554663D02*
X148780952Y-66554663D01*
X148780952Y-66554663D02*
X148685714Y-66697520D01*
X148685714Y-66697520D02*
X148590476Y-66792758D01*
X148590476Y-66792758D02*
X148495238Y-66840377D01*
X152759424Y-89342857D02*
X152807044Y-89390476D01*
X152807044Y-89390476D02*
X152854663Y-89533333D01*
X152854663Y-89533333D02*
X152854663Y-89628571D01*
X152854663Y-89628571D02*
X152807044Y-89771428D01*
X152807044Y-89771428D02*
X152711805Y-89866666D01*
X152711805Y-89866666D02*
X152616567Y-89914285D01*
X152616567Y-89914285D02*
X152426091Y-89961904D01*
X152426091Y-89961904D02*
X152283234Y-89961904D01*
X152283234Y-89961904D02*
X152092758Y-89914285D01*
X152092758Y-89914285D02*
X151997520Y-89866666D01*
X151997520Y-89866666D02*
X151902282Y-89771428D01*
X151902282Y-89771428D02*
X151854663Y-89628571D01*
X151854663Y-89628571D02*
X151854663Y-89533333D01*
X151854663Y-89533333D02*
X151902282Y-89390476D01*
X151902282Y-89390476D02*
X151949901Y-89342857D01*
X152854663Y-88390476D02*
X152854663Y-88961904D01*
X152854663Y-88676190D02*
X151854663Y-88676190D01*
X151854663Y-88676190D02*
X151997520Y-88771428D01*
X151997520Y-88771428D02*
X152092758Y-88866666D01*
X152092758Y-88866666D02*
X152140377Y-88961904D01*
X151949901Y-88009523D02*
X151902282Y-87961904D01*
X151902282Y-87961904D02*
X151854663Y-87866666D01*
X151854663Y-87866666D02*
X151854663Y-87628571D01*
X151854663Y-87628571D02*
X151902282Y-87533333D01*
X151902282Y-87533333D02*
X151949901Y-87485714D01*
X151949901Y-87485714D02*
X152045139Y-87438095D01*
X152045139Y-87438095D02*
X152140377Y-87438095D01*
X152140377Y-87438095D02*
X152283234Y-87485714D01*
X152283234Y-87485714D02*
X152854663Y-88057142D01*
X152854663Y-88057142D02*
X152854663Y-87438095D01*
X156533333Y-82154663D02*
X156200000Y-81678472D01*
X155961905Y-82154663D02*
X155961905Y-81154663D01*
X155961905Y-81154663D02*
X156342857Y-81154663D01*
X156342857Y-81154663D02*
X156438095Y-81202282D01*
X156438095Y-81202282D02*
X156485714Y-81249901D01*
X156485714Y-81249901D02*
X156533333Y-81345139D01*
X156533333Y-81345139D02*
X156533333Y-81487996D01*
X156533333Y-81487996D02*
X156485714Y-81583234D01*
X156485714Y-81583234D02*
X156438095Y-81630853D01*
X156438095Y-81630853D02*
X156342857Y-81678472D01*
X156342857Y-81678472D02*
X155961905Y-81678472D01*
X156914286Y-81249901D02*
X156961905Y-81202282D01*
X156961905Y-81202282D02*
X157057143Y-81154663D01*
X157057143Y-81154663D02*
X157295238Y-81154663D01*
X157295238Y-81154663D02*
X157390476Y-81202282D01*
X157390476Y-81202282D02*
X157438095Y-81249901D01*
X157438095Y-81249901D02*
X157485714Y-81345139D01*
X157485714Y-81345139D02*
X157485714Y-81440377D01*
X157485714Y-81440377D02*
X157438095Y-81583234D01*
X157438095Y-81583234D02*
X156866667Y-82154663D01*
X156866667Y-82154663D02*
X157485714Y-82154663D01*
X160297905Y-68780663D02*
X160297905Y-67780663D01*
X160297905Y-67780663D02*
X160536000Y-67780663D01*
X160536000Y-67780663D02*
X160678857Y-67828282D01*
X160678857Y-67828282D02*
X160774095Y-67923520D01*
X160774095Y-67923520D02*
X160821714Y-68018758D01*
X160821714Y-68018758D02*
X160869333Y-68209234D01*
X160869333Y-68209234D02*
X160869333Y-68352091D01*
X160869333Y-68352091D02*
X160821714Y-68542567D01*
X160821714Y-68542567D02*
X160774095Y-68637805D01*
X160774095Y-68637805D02*
X160678857Y-68733044D01*
X160678857Y-68733044D02*
X160536000Y-68780663D01*
X160536000Y-68780663D02*
X160297905Y-68780663D01*
X161250286Y-67875901D02*
X161297905Y-67828282D01*
X161297905Y-67828282D02*
X161393143Y-67780663D01*
X161393143Y-67780663D02*
X161631238Y-67780663D01*
X161631238Y-67780663D02*
X161726476Y-67828282D01*
X161726476Y-67828282D02*
X161774095Y-67875901D01*
X161774095Y-67875901D02*
X161821714Y-67971139D01*
X161821714Y-67971139D02*
X161821714Y-68066377D01*
X161821714Y-68066377D02*
X161774095Y-68209234D01*
X161774095Y-68209234D02*
X161202667Y-68780663D01*
X161202667Y-68780663D02*
X161821714Y-68780663D01*
X120927905Y-85798663D02*
X120927905Y-84798663D01*
X120927905Y-84798663D02*
X121166000Y-84798663D01*
X121166000Y-84798663D02*
X121308857Y-84846282D01*
X121308857Y-84846282D02*
X121404095Y-84941520D01*
X121404095Y-84941520D02*
X121451714Y-85036758D01*
X121451714Y-85036758D02*
X121499333Y-85227234D01*
X121499333Y-85227234D02*
X121499333Y-85370091D01*
X121499333Y-85370091D02*
X121451714Y-85560567D01*
X121451714Y-85560567D02*
X121404095Y-85655805D01*
X121404095Y-85655805D02*
X121308857Y-85751044D01*
X121308857Y-85751044D02*
X121166000Y-85798663D01*
X121166000Y-85798663D02*
X120927905Y-85798663D01*
X122451714Y-85798663D02*
X121880286Y-85798663D01*
X122166000Y-85798663D02*
X122166000Y-84798663D01*
X122166000Y-84798663D02*
X122070762Y-84941520D01*
X122070762Y-84941520D02*
X121975524Y-85036758D01*
X121975524Y-85036758D02*
X121880286Y-85084377D01*
X163040142Y-76047424D02*
X162992523Y-76095044D01*
X162992523Y-76095044D02*
X162849666Y-76142663D01*
X162849666Y-76142663D02*
X162754428Y-76142663D01*
X162754428Y-76142663D02*
X162611571Y-76095044D01*
X162611571Y-76095044D02*
X162516333Y-75999805D01*
X162516333Y-75999805D02*
X162468714Y-75904567D01*
X162468714Y-75904567D02*
X162421095Y-75714091D01*
X162421095Y-75714091D02*
X162421095Y-75571234D01*
X162421095Y-75571234D02*
X162468714Y-75380758D01*
X162468714Y-75380758D02*
X162516333Y-75285520D01*
X162516333Y-75285520D02*
X162611571Y-75190282D01*
X162611571Y-75190282D02*
X162754428Y-75142663D01*
X162754428Y-75142663D02*
X162849666Y-75142663D01*
X162849666Y-75142663D02*
X162992523Y-75190282D01*
X162992523Y-75190282D02*
X163040142Y-75237901D01*
X163992523Y-76142663D02*
X163421095Y-76142663D01*
X163706809Y-76142663D02*
X163706809Y-75142663D01*
X163706809Y-75142663D02*
X163611571Y-75285520D01*
X163611571Y-75285520D02*
X163516333Y-75380758D01*
X163516333Y-75380758D02*
X163421095Y-75428377D01*
X164611571Y-75142663D02*
X164706809Y-75142663D01*
X164706809Y-75142663D02*
X164802047Y-75190282D01*
X164802047Y-75190282D02*
X164849666Y-75237901D01*
X164849666Y-75237901D02*
X164897285Y-75333139D01*
X164897285Y-75333139D02*
X164944904Y-75523615D01*
X164944904Y-75523615D02*
X164944904Y-75761710D01*
X164944904Y-75761710D02*
X164897285Y-75952186D01*
X164897285Y-75952186D02*
X164849666Y-76047424D01*
X164849666Y-76047424D02*
X164802047Y-76095044D01*
X164802047Y-76095044D02*
X164706809Y-76142663D01*
X164706809Y-76142663D02*
X164611571Y-76142663D01*
X164611571Y-76142663D02*
X164516333Y-76095044D01*
X164516333Y-76095044D02*
X164468714Y-76047424D01*
X164468714Y-76047424D02*
X164421095Y-75952186D01*
X164421095Y-75952186D02*
X164373476Y-75761710D01*
X164373476Y-75761710D02*
X164373476Y-75523615D01*
X164373476Y-75523615D02*
X164421095Y-75333139D01*
X164421095Y-75333139D02*
X164468714Y-75237901D01*
X164468714Y-75237901D02*
X164516333Y-75190282D01*
X164516333Y-75190282D02*
X164611571Y-75142663D01*
X130770333Y-101927663D02*
X130437000Y-101451472D01*
X130198905Y-101927663D02*
X130198905Y-100927663D01*
X130198905Y-100927663D02*
X130579857Y-100927663D01*
X130579857Y-100927663D02*
X130675095Y-100975282D01*
X130675095Y-100975282D02*
X130722714Y-101022901D01*
X130722714Y-101022901D02*
X130770333Y-101118139D01*
X130770333Y-101118139D02*
X130770333Y-101260996D01*
X130770333Y-101260996D02*
X130722714Y-101356234D01*
X130722714Y-101356234D02*
X130675095Y-101403853D01*
X130675095Y-101403853D02*
X130579857Y-101451472D01*
X130579857Y-101451472D02*
X130198905Y-101451472D01*
X131627476Y-100927663D02*
X131437000Y-100927663D01*
X131437000Y-100927663D02*
X131341762Y-100975282D01*
X131341762Y-100975282D02*
X131294143Y-101022901D01*
X131294143Y-101022901D02*
X131198905Y-101165758D01*
X131198905Y-101165758D02*
X131151286Y-101356234D01*
X131151286Y-101356234D02*
X131151286Y-101737186D01*
X131151286Y-101737186D02*
X131198905Y-101832424D01*
X131198905Y-101832424D02*
X131246524Y-101880044D01*
X131246524Y-101880044D02*
X131341762Y-101927663D01*
X131341762Y-101927663D02*
X131532238Y-101927663D01*
X131532238Y-101927663D02*
X131627476Y-101880044D01*
X131627476Y-101880044D02*
X131675095Y-101832424D01*
X131675095Y-101832424D02*
X131722714Y-101737186D01*
X131722714Y-101737186D02*
X131722714Y-101499091D01*
X131722714Y-101499091D02*
X131675095Y-101403853D01*
X131675095Y-101403853D02*
X131627476Y-101356234D01*
X131627476Y-101356234D02*
X131532238Y-101308615D01*
X131532238Y-101308615D02*
X131341762Y-101308615D01*
X131341762Y-101308615D02*
X131246524Y-101356234D01*
X131246524Y-101356234D02*
X131198905Y-101403853D01*
X131198905Y-101403853D02*
X131151286Y-101499091D01*
X168659424Y-89166666D02*
X168707044Y-89214285D01*
X168707044Y-89214285D02*
X168754663Y-89357142D01*
X168754663Y-89357142D02*
X168754663Y-89452380D01*
X168754663Y-89452380D02*
X168707044Y-89595237D01*
X168707044Y-89595237D02*
X168611805Y-89690475D01*
X168611805Y-89690475D02*
X168516567Y-89738094D01*
X168516567Y-89738094D02*
X168326091Y-89785713D01*
X168326091Y-89785713D02*
X168183234Y-89785713D01*
X168183234Y-89785713D02*
X167992758Y-89738094D01*
X167992758Y-89738094D02*
X167897520Y-89690475D01*
X167897520Y-89690475D02*
X167802282Y-89595237D01*
X167802282Y-89595237D02*
X167754663Y-89452380D01*
X167754663Y-89452380D02*
X167754663Y-89357142D01*
X167754663Y-89357142D02*
X167802282Y-89214285D01*
X167802282Y-89214285D02*
X167849901Y-89166666D01*
X167754663Y-88261904D02*
X167754663Y-88738094D01*
X167754663Y-88738094D02*
X168230853Y-88785713D01*
X168230853Y-88785713D02*
X168183234Y-88738094D01*
X168183234Y-88738094D02*
X168135615Y-88642856D01*
X168135615Y-88642856D02*
X168135615Y-88404761D01*
X168135615Y-88404761D02*
X168183234Y-88309523D01*
X168183234Y-88309523D02*
X168230853Y-88261904D01*
X168230853Y-88261904D02*
X168326091Y-88214285D01*
X168326091Y-88214285D02*
X168564186Y-88214285D01*
X168564186Y-88214285D02*
X168659424Y-88261904D01*
X168659424Y-88261904D02*
X168707044Y-88309523D01*
X168707044Y-88309523D02*
X168754663Y-88404761D01*
X168754663Y-88404761D02*
X168754663Y-88642856D01*
X168754663Y-88642856D02*
X168707044Y-88738094D01*
X168707044Y-88738094D02*
X168659424Y-88785713D01*
X151471333Y-78686663D02*
X151138000Y-78210472D01*
X150899905Y-78686663D02*
X150899905Y-77686663D01*
X150899905Y-77686663D02*
X151280857Y-77686663D01*
X151280857Y-77686663D02*
X151376095Y-77734282D01*
X151376095Y-77734282D02*
X151423714Y-77781901D01*
X151423714Y-77781901D02*
X151471333Y-77877139D01*
X151471333Y-77877139D02*
X151471333Y-78019996D01*
X151471333Y-78019996D02*
X151423714Y-78115234D01*
X151423714Y-78115234D02*
X151376095Y-78162853D01*
X151376095Y-78162853D02*
X151280857Y-78210472D01*
X151280857Y-78210472D02*
X150899905Y-78210472D01*
X151804667Y-77686663D02*
X152423714Y-77686663D01*
X152423714Y-77686663D02*
X152090381Y-78067615D01*
X152090381Y-78067615D02*
X152233238Y-78067615D01*
X152233238Y-78067615D02*
X152328476Y-78115234D01*
X152328476Y-78115234D02*
X152376095Y-78162853D01*
X152376095Y-78162853D02*
X152423714Y-78258091D01*
X152423714Y-78258091D02*
X152423714Y-78496186D01*
X152423714Y-78496186D02*
X152376095Y-78591424D01*
X152376095Y-78591424D02*
X152328476Y-78639044D01*
X152328476Y-78639044D02*
X152233238Y-78686663D01*
X152233238Y-78686663D02*
X151947524Y-78686663D01*
X151947524Y-78686663D02*
X151852286Y-78639044D01*
X151852286Y-78639044D02*
X151804667Y-78591424D01*
X122114285Y-76830853D02*
X122257142Y-76878472D01*
X122257142Y-76878472D02*
X122304761Y-76926091D01*
X122304761Y-76926091D02*
X122352380Y-77021329D01*
X122352380Y-77021329D02*
X122352380Y-77164186D01*
X122352380Y-77164186D02*
X122304761Y-77259424D01*
X122304761Y-77259424D02*
X122257142Y-77307044D01*
X122257142Y-77307044D02*
X122161904Y-77354663D01*
X122161904Y-77354663D02*
X121780952Y-77354663D01*
X121780952Y-77354663D02*
X121780952Y-76354663D01*
X121780952Y-76354663D02*
X122114285Y-76354663D01*
X122114285Y-76354663D02*
X122209523Y-76402282D01*
X122209523Y-76402282D02*
X122257142Y-76449901D01*
X122257142Y-76449901D02*
X122304761Y-76545139D01*
X122304761Y-76545139D02*
X122304761Y-76640377D01*
X122304761Y-76640377D02*
X122257142Y-76735615D01*
X122257142Y-76735615D02*
X122209523Y-76783234D01*
X122209523Y-76783234D02*
X122114285Y-76830853D01*
X122114285Y-76830853D02*
X121780952Y-76830853D01*
X122638095Y-76354663D02*
X123209523Y-76354663D01*
X122923809Y-77354663D02*
X122923809Y-76354663D01*
X124066666Y-77354663D02*
X123495238Y-77354663D01*
X123780952Y-77354663D02*
X123780952Y-76354663D01*
X123780952Y-76354663D02*
X123685714Y-76497520D01*
X123685714Y-76497520D02*
X123590476Y-76592758D01*
X123590476Y-76592758D02*
X123495238Y-76640377D01*
X155933333Y-93959424D02*
X155885714Y-94007044D01*
X155885714Y-94007044D02*
X155742857Y-94054663D01*
X155742857Y-94054663D02*
X155647619Y-94054663D01*
X155647619Y-94054663D02*
X155504762Y-94007044D01*
X155504762Y-94007044D02*
X155409524Y-93911805D01*
X155409524Y-93911805D02*
X155361905Y-93816567D01*
X155361905Y-93816567D02*
X155314286Y-93626091D01*
X155314286Y-93626091D02*
X155314286Y-93483234D01*
X155314286Y-93483234D02*
X155361905Y-93292758D01*
X155361905Y-93292758D02*
X155409524Y-93197520D01*
X155409524Y-93197520D02*
X155504762Y-93102282D01*
X155504762Y-93102282D02*
X155647619Y-93054663D01*
X155647619Y-93054663D02*
X155742857Y-93054663D01*
X155742857Y-93054663D02*
X155885714Y-93102282D01*
X155885714Y-93102282D02*
X155933333Y-93149901D01*
X156790476Y-93054663D02*
X156600000Y-93054663D01*
X156600000Y-93054663D02*
X156504762Y-93102282D01*
X156504762Y-93102282D02*
X156457143Y-93149901D01*
X156457143Y-93149901D02*
X156361905Y-93292758D01*
X156361905Y-93292758D02*
X156314286Y-93483234D01*
X156314286Y-93483234D02*
X156314286Y-93864186D01*
X156314286Y-93864186D02*
X156361905Y-93959424D01*
X156361905Y-93959424D02*
X156409524Y-94007044D01*
X156409524Y-94007044D02*
X156504762Y-94054663D01*
X156504762Y-94054663D02*
X156695238Y-94054663D01*
X156695238Y-94054663D02*
X156790476Y-94007044D01*
X156790476Y-94007044D02*
X156838095Y-93959424D01*
X156838095Y-93959424D02*
X156885714Y-93864186D01*
X156885714Y-93864186D02*
X156885714Y-93626091D01*
X156885714Y-93626091D02*
X156838095Y-93530853D01*
X156838095Y-93530853D02*
X156790476Y-93483234D01*
X156790476Y-93483234D02*
X156695238Y-93435615D01*
X156695238Y-93435615D02*
X156504762Y-93435615D01*
X156504762Y-93435615D02*
X156409524Y-93483234D01*
X156409524Y-93483234D02*
X156361905Y-93530853D01*
X156361905Y-93530853D02*
X156314286Y-93626091D01*
X170259424Y-89066666D02*
X170307044Y-89114285D01*
X170307044Y-89114285D02*
X170354663Y-89257142D01*
X170354663Y-89257142D02*
X170354663Y-89352380D01*
X170354663Y-89352380D02*
X170307044Y-89495237D01*
X170307044Y-89495237D02*
X170211805Y-89590475D01*
X170211805Y-89590475D02*
X170116567Y-89638094D01*
X170116567Y-89638094D02*
X169926091Y-89685713D01*
X169926091Y-89685713D02*
X169783234Y-89685713D01*
X169783234Y-89685713D02*
X169592758Y-89638094D01*
X169592758Y-89638094D02*
X169497520Y-89590475D01*
X169497520Y-89590475D02*
X169402282Y-89495237D01*
X169402282Y-89495237D02*
X169354663Y-89352380D01*
X169354663Y-89352380D02*
X169354663Y-89257142D01*
X169354663Y-89257142D02*
X169402282Y-89114285D01*
X169402282Y-89114285D02*
X169449901Y-89066666D01*
X170354663Y-88114285D02*
X170354663Y-88685713D01*
X170354663Y-88399999D02*
X169354663Y-88399999D01*
X169354663Y-88399999D02*
X169497520Y-88495237D01*
X169497520Y-88495237D02*
X169592758Y-88590475D01*
X169592758Y-88590475D02*
X169640377Y-88685713D01*
X123008424Y-91193857D02*
X123056044Y-91241476D01*
X123056044Y-91241476D02*
X123103663Y-91384333D01*
X123103663Y-91384333D02*
X123103663Y-91479571D01*
X123103663Y-91479571D02*
X123056044Y-91622428D01*
X123056044Y-91622428D02*
X122960805Y-91717666D01*
X122960805Y-91717666D02*
X122865567Y-91765285D01*
X122865567Y-91765285D02*
X122675091Y-91812904D01*
X122675091Y-91812904D02*
X122532234Y-91812904D01*
X122532234Y-91812904D02*
X122341758Y-91765285D01*
X122341758Y-91765285D02*
X122246520Y-91717666D01*
X122246520Y-91717666D02*
X122151282Y-91622428D01*
X122151282Y-91622428D02*
X122103663Y-91479571D01*
X122103663Y-91479571D02*
X122103663Y-91384333D01*
X122103663Y-91384333D02*
X122151282Y-91241476D01*
X122151282Y-91241476D02*
X122198901Y-91193857D01*
X123103663Y-90241476D02*
X123103663Y-90812904D01*
X123103663Y-90527190D02*
X122103663Y-90527190D01*
X122103663Y-90527190D02*
X122246520Y-90622428D01*
X122246520Y-90622428D02*
X122341758Y-90717666D01*
X122341758Y-90717666D02*
X122389377Y-90812904D01*
X122436996Y-89384333D02*
X123103663Y-89384333D01*
X122056044Y-89622428D02*
X122770329Y-89860523D01*
X122770329Y-89860523D02*
X122770329Y-89241476D01*
X154836905Y-77162663D02*
X154836905Y-76162663D01*
X154836905Y-76162663D02*
X155075000Y-76162663D01*
X155075000Y-76162663D02*
X155217857Y-76210282D01*
X155217857Y-76210282D02*
X155313095Y-76305520D01*
X155313095Y-76305520D02*
X155360714Y-76400758D01*
X155360714Y-76400758D02*
X155408333Y-76591234D01*
X155408333Y-76591234D02*
X155408333Y-76734091D01*
X155408333Y-76734091D02*
X155360714Y-76924567D01*
X155360714Y-76924567D02*
X155313095Y-77019805D01*
X155313095Y-77019805D02*
X155217857Y-77115044D01*
X155217857Y-77115044D02*
X155075000Y-77162663D01*
X155075000Y-77162663D02*
X154836905Y-77162663D01*
X155741667Y-76162663D02*
X156360714Y-76162663D01*
X156360714Y-76162663D02*
X156027381Y-76543615D01*
X156027381Y-76543615D02*
X156170238Y-76543615D01*
X156170238Y-76543615D02*
X156265476Y-76591234D01*
X156265476Y-76591234D02*
X156313095Y-76638853D01*
X156313095Y-76638853D02*
X156360714Y-76734091D01*
X156360714Y-76734091D02*
X156360714Y-76972186D01*
X156360714Y-76972186D02*
X156313095Y-77067424D01*
X156313095Y-77067424D02*
X156265476Y-77115044D01*
X156265476Y-77115044D02*
X156170238Y-77162663D01*
X156170238Y-77162663D02*
X155884524Y-77162663D01*
X155884524Y-77162663D02*
X155789286Y-77115044D01*
X155789286Y-77115044D02*
X155741667Y-77067424D01*
X152066666Y-96660853D02*
X151733333Y-96660853D01*
X151733333Y-97184663D02*
X151733333Y-96184663D01*
X151733333Y-96184663D02*
X152209523Y-96184663D01*
X152923809Y-96660853D02*
X153066666Y-96708472D01*
X153066666Y-96708472D02*
X153114285Y-96756091D01*
X153114285Y-96756091D02*
X153161904Y-96851329D01*
X153161904Y-96851329D02*
X153161904Y-96994186D01*
X153161904Y-96994186D02*
X153114285Y-97089424D01*
X153114285Y-97089424D02*
X153066666Y-97137044D01*
X153066666Y-97137044D02*
X152971428Y-97184663D01*
X152971428Y-97184663D02*
X152590476Y-97184663D01*
X152590476Y-97184663D02*
X152590476Y-96184663D01*
X152590476Y-96184663D02*
X152923809Y-96184663D01*
X152923809Y-96184663D02*
X153019047Y-96232282D01*
X153019047Y-96232282D02*
X153066666Y-96279901D01*
X153066666Y-96279901D02*
X153114285Y-96375139D01*
X153114285Y-96375139D02*
X153114285Y-96470377D01*
X153114285Y-96470377D02*
X153066666Y-96565615D01*
X153066666Y-96565615D02*
X153019047Y-96613234D01*
X153019047Y-96613234D02*
X152923809Y-96660853D01*
X152923809Y-96660853D02*
X152590476Y-96660853D01*
X154114285Y-97184663D02*
X153542857Y-97184663D01*
X153828571Y-97184663D02*
X153828571Y-96184663D01*
X153828571Y-96184663D02*
X153733333Y-96327520D01*
X153733333Y-96327520D02*
X153638095Y-96422758D01*
X153638095Y-96422758D02*
X153542857Y-96470377D01*
X152858305Y-77162663D02*
X152858305Y-76162663D01*
X152858305Y-76162663D02*
X153096400Y-76162663D01*
X153096400Y-76162663D02*
X153239257Y-76210282D01*
X153239257Y-76210282D02*
X153334495Y-76305520D01*
X153334495Y-76305520D02*
X153382114Y-76400758D01*
X153382114Y-76400758D02*
X153429733Y-76591234D01*
X153429733Y-76591234D02*
X153429733Y-76734091D01*
X153429733Y-76734091D02*
X153382114Y-76924567D01*
X153382114Y-76924567D02*
X153334495Y-77019805D01*
X153334495Y-77019805D02*
X153239257Y-77115044D01*
X153239257Y-77115044D02*
X153096400Y-77162663D01*
X153096400Y-77162663D02*
X152858305Y-77162663D01*
X154286876Y-76495996D02*
X154286876Y-77162663D01*
X154048781Y-76115044D02*
X153810686Y-76829329D01*
X153810686Y-76829329D02*
X154429733Y-76829329D01*
X156659424Y-88166666D02*
X156707044Y-88214285D01*
X156707044Y-88214285D02*
X156754663Y-88357142D01*
X156754663Y-88357142D02*
X156754663Y-88452380D01*
X156754663Y-88452380D02*
X156707044Y-88595237D01*
X156707044Y-88595237D02*
X156611805Y-88690475D01*
X156611805Y-88690475D02*
X156516567Y-88738094D01*
X156516567Y-88738094D02*
X156326091Y-88785713D01*
X156326091Y-88785713D02*
X156183234Y-88785713D01*
X156183234Y-88785713D02*
X155992758Y-88738094D01*
X155992758Y-88738094D02*
X155897520Y-88690475D01*
X155897520Y-88690475D02*
X155802282Y-88595237D01*
X155802282Y-88595237D02*
X155754663Y-88452380D01*
X155754663Y-88452380D02*
X155754663Y-88357142D01*
X155754663Y-88357142D02*
X155802282Y-88214285D01*
X155802282Y-88214285D02*
X155849901Y-88166666D01*
X156087996Y-87309523D02*
X156754663Y-87309523D01*
X155707044Y-87547618D02*
X156421329Y-87785713D01*
X156421329Y-87785713D02*
X156421329Y-87166666D01*
X155333333Y-97059424D02*
X155285714Y-97107044D01*
X155285714Y-97107044D02*
X155142857Y-97154663D01*
X155142857Y-97154663D02*
X155047619Y-97154663D01*
X155047619Y-97154663D02*
X154904762Y-97107044D01*
X154904762Y-97107044D02*
X154809524Y-97011805D01*
X154809524Y-97011805D02*
X154761905Y-96916567D01*
X154761905Y-96916567D02*
X154714286Y-96726091D01*
X154714286Y-96726091D02*
X154714286Y-96583234D01*
X154714286Y-96583234D02*
X154761905Y-96392758D01*
X154761905Y-96392758D02*
X154809524Y-96297520D01*
X154809524Y-96297520D02*
X154904762Y-96202282D01*
X154904762Y-96202282D02*
X155047619Y-96154663D01*
X155047619Y-96154663D02*
X155142857Y-96154663D01*
X155142857Y-96154663D02*
X155285714Y-96202282D01*
X155285714Y-96202282D02*
X155333333Y-96249901D01*
X155666667Y-96154663D02*
X156333333Y-96154663D01*
X156333333Y-96154663D02*
X155904762Y-97154663D01*
X171613333Y-92529663D02*
X171280000Y-92053472D01*
X171041905Y-92529663D02*
X171041905Y-91529663D01*
X171041905Y-91529663D02*
X171422857Y-91529663D01*
X171422857Y-91529663D02*
X171518095Y-91577282D01*
X171518095Y-91577282D02*
X171565714Y-91624901D01*
X171565714Y-91624901D02*
X171613333Y-91720139D01*
X171613333Y-91720139D02*
X171613333Y-91862996D01*
X171613333Y-91862996D02*
X171565714Y-91958234D01*
X171565714Y-91958234D02*
X171518095Y-92005853D01*
X171518095Y-92005853D02*
X171422857Y-92053472D01*
X171422857Y-92053472D02*
X171041905Y-92053472D01*
X172089524Y-92529663D02*
X172280000Y-92529663D01*
X172280000Y-92529663D02*
X172375238Y-92482044D01*
X172375238Y-92482044D02*
X172422857Y-92434424D01*
X172422857Y-92434424D02*
X172518095Y-92291567D01*
X172518095Y-92291567D02*
X172565714Y-92101091D01*
X172565714Y-92101091D02*
X172565714Y-91720139D01*
X172565714Y-91720139D02*
X172518095Y-91624901D01*
X172518095Y-91624901D02*
X172470476Y-91577282D01*
X172470476Y-91577282D02*
X172375238Y-91529663D01*
X172375238Y-91529663D02*
X172184762Y-91529663D01*
X172184762Y-91529663D02*
X172089524Y-91577282D01*
X172089524Y-91577282D02*
X172041905Y-91624901D01*
X172041905Y-91624901D02*
X171994286Y-91720139D01*
X171994286Y-91720139D02*
X171994286Y-91958234D01*
X171994286Y-91958234D02*
X172041905Y-92053472D01*
X172041905Y-92053472D02*
X172089524Y-92101091D01*
X172089524Y-92101091D02*
X172184762Y-92148710D01*
X172184762Y-92148710D02*
X172375238Y-92148710D01*
X172375238Y-92148710D02*
X172470476Y-92101091D01*
X172470476Y-92101091D02*
X172518095Y-92053472D01*
X172518095Y-92053472D02*
X172565714Y-91958234D01*
X127722333Y-101927663D02*
X127389000Y-101451472D01*
X127150905Y-101927663D02*
X127150905Y-100927663D01*
X127150905Y-100927663D02*
X127531857Y-100927663D01*
X127531857Y-100927663D02*
X127627095Y-100975282D01*
X127627095Y-100975282D02*
X127674714Y-101022901D01*
X127674714Y-101022901D02*
X127722333Y-101118139D01*
X127722333Y-101118139D02*
X127722333Y-101260996D01*
X127722333Y-101260996D02*
X127674714Y-101356234D01*
X127674714Y-101356234D02*
X127627095Y-101403853D01*
X127627095Y-101403853D02*
X127531857Y-101451472D01*
X127531857Y-101451472D02*
X127150905Y-101451472D01*
X128055667Y-100927663D02*
X128722333Y-100927663D01*
X128722333Y-100927663D02*
X128293762Y-101927663D01*
X171863095Y-67816663D02*
X171863095Y-68626186D01*
X171863095Y-68626186D02*
X171910714Y-68721424D01*
X171910714Y-68721424D02*
X171958333Y-68769044D01*
X171958333Y-68769044D02*
X172053571Y-68816663D01*
X172053571Y-68816663D02*
X172244047Y-68816663D01*
X172244047Y-68816663D02*
X172339285Y-68769044D01*
X172339285Y-68769044D02*
X172386904Y-68721424D01*
X172386904Y-68721424D02*
X172434523Y-68626186D01*
X172434523Y-68626186D02*
X172434523Y-67816663D01*
X173434523Y-68816663D02*
X172863095Y-68816663D01*
X173148809Y-68816663D02*
X173148809Y-67816663D01*
X173148809Y-67816663D02*
X173053571Y-67959520D01*
X173053571Y-67959520D02*
X172958333Y-68054758D01*
X172958333Y-68054758D02*
X172863095Y-68102377D01*
X165333333Y-96859424D02*
X165285714Y-96907044D01*
X165285714Y-96907044D02*
X165142857Y-96954663D01*
X165142857Y-96954663D02*
X165047619Y-96954663D01*
X165047619Y-96954663D02*
X164904762Y-96907044D01*
X164904762Y-96907044D02*
X164809524Y-96811805D01*
X164809524Y-96811805D02*
X164761905Y-96716567D01*
X164761905Y-96716567D02*
X164714286Y-96526091D01*
X164714286Y-96526091D02*
X164714286Y-96383234D01*
X164714286Y-96383234D02*
X164761905Y-96192758D01*
X164761905Y-96192758D02*
X164809524Y-96097520D01*
X164809524Y-96097520D02*
X164904762Y-96002282D01*
X164904762Y-96002282D02*
X165047619Y-95954663D01*
X165047619Y-95954663D02*
X165142857Y-95954663D01*
X165142857Y-95954663D02*
X165285714Y-96002282D01*
X165285714Y-96002282D02*
X165333333Y-96049901D01*
X165714286Y-96049901D02*
X165761905Y-96002282D01*
X165761905Y-96002282D02*
X165857143Y-95954663D01*
X165857143Y-95954663D02*
X166095238Y-95954663D01*
X166095238Y-95954663D02*
X166190476Y-96002282D01*
X166190476Y-96002282D02*
X166238095Y-96049901D01*
X166238095Y-96049901D02*
X166285714Y-96145139D01*
X166285714Y-96145139D02*
X166285714Y-96240377D01*
X166285714Y-96240377D02*
X166238095Y-96383234D01*
X166238095Y-96383234D02*
X165666667Y-96954663D01*
X165666667Y-96954663D02*
X166285714Y-96954663D01*
X153458333Y-82124663D02*
X153125000Y-81648472D01*
X152886905Y-82124663D02*
X152886905Y-81124663D01*
X152886905Y-81124663D02*
X153267857Y-81124663D01*
X153267857Y-81124663D02*
X153363095Y-81172282D01*
X153363095Y-81172282D02*
X153410714Y-81219901D01*
X153410714Y-81219901D02*
X153458333Y-81315139D01*
X153458333Y-81315139D02*
X153458333Y-81457996D01*
X153458333Y-81457996D02*
X153410714Y-81553234D01*
X153410714Y-81553234D02*
X153363095Y-81600853D01*
X153363095Y-81600853D02*
X153267857Y-81648472D01*
X153267857Y-81648472D02*
X152886905Y-81648472D01*
X154363095Y-81124663D02*
X153886905Y-81124663D01*
X153886905Y-81124663D02*
X153839286Y-81600853D01*
X153839286Y-81600853D02*
X153886905Y-81553234D01*
X153886905Y-81553234D02*
X153982143Y-81505615D01*
X153982143Y-81505615D02*
X154220238Y-81505615D01*
X154220238Y-81505615D02*
X154315476Y-81553234D01*
X154315476Y-81553234D02*
X154363095Y-81600853D01*
X154363095Y-81600853D02*
X154410714Y-81696091D01*
X154410714Y-81696091D02*
X154410714Y-81934186D01*
X154410714Y-81934186D02*
X154363095Y-82029424D01*
X154363095Y-82029424D02*
X154315476Y-82077044D01*
X154315476Y-82077044D02*
X154220238Y-82124663D01*
X154220238Y-82124663D02*
X153982143Y-82124663D01*
X153982143Y-82124663D02*
X153886905Y-82077044D01*
X153886905Y-82077044D02*
X153839286Y-82029424D01*
X158933333Y-82029424D02*
X158885714Y-82077044D01*
X158885714Y-82077044D02*
X158742857Y-82124663D01*
X158742857Y-82124663D02*
X158647619Y-82124663D01*
X158647619Y-82124663D02*
X158504762Y-82077044D01*
X158504762Y-82077044D02*
X158409524Y-81981805D01*
X158409524Y-81981805D02*
X158361905Y-81886567D01*
X158361905Y-81886567D02*
X158314286Y-81696091D01*
X158314286Y-81696091D02*
X158314286Y-81553234D01*
X158314286Y-81553234D02*
X158361905Y-81362758D01*
X158361905Y-81362758D02*
X158409524Y-81267520D01*
X158409524Y-81267520D02*
X158504762Y-81172282D01*
X158504762Y-81172282D02*
X158647619Y-81124663D01*
X158647619Y-81124663D02*
X158742857Y-81124663D01*
X158742857Y-81124663D02*
X158885714Y-81172282D01*
X158885714Y-81172282D02*
X158933333Y-81219901D01*
X159266667Y-81124663D02*
X159885714Y-81124663D01*
X159885714Y-81124663D02*
X159552381Y-81505615D01*
X159552381Y-81505615D02*
X159695238Y-81505615D01*
X159695238Y-81505615D02*
X159790476Y-81553234D01*
X159790476Y-81553234D02*
X159838095Y-81600853D01*
X159838095Y-81600853D02*
X159885714Y-81696091D01*
X159885714Y-81696091D02*
X159885714Y-81934186D01*
X159885714Y-81934186D02*
X159838095Y-82029424D01*
X159838095Y-82029424D02*
X159790476Y-82077044D01*
X159790476Y-82077044D02*
X159695238Y-82124663D01*
X159695238Y-82124663D02*
X159409524Y-82124663D01*
X159409524Y-82124663D02*
X159314286Y-82077044D01*
X159314286Y-82077044D02*
X159266667Y-82029424D01*
X157438095Y-84054663D02*
X157438095Y-84864186D01*
X157438095Y-84864186D02*
X157485714Y-84959424D01*
X157485714Y-84959424D02*
X157533333Y-85007044D01*
X157533333Y-85007044D02*
X157628571Y-85054663D01*
X157628571Y-85054663D02*
X157819047Y-85054663D01*
X157819047Y-85054663D02*
X157914285Y-85007044D01*
X157914285Y-85007044D02*
X157961904Y-84959424D01*
X157961904Y-84959424D02*
X158009523Y-84864186D01*
X158009523Y-84864186D02*
X158009523Y-84054663D01*
X158438095Y-84149901D02*
X158485714Y-84102282D01*
X158485714Y-84102282D02*
X158580952Y-84054663D01*
X158580952Y-84054663D02*
X158819047Y-84054663D01*
X158819047Y-84054663D02*
X158914285Y-84102282D01*
X158914285Y-84102282D02*
X158961904Y-84149901D01*
X158961904Y-84149901D02*
X159009523Y-84245139D01*
X159009523Y-84245139D02*
X159009523Y-84340377D01*
X159009523Y-84340377D02*
X158961904Y-84483234D01*
X158961904Y-84483234D02*
X158390476Y-85054663D01*
X158390476Y-85054663D02*
X159009523Y-85054663D01*
X168073333Y-94154663D02*
X167740000Y-93678472D01*
X167501905Y-94154663D02*
X167501905Y-93154663D01*
X167501905Y-93154663D02*
X167882857Y-93154663D01*
X167882857Y-93154663D02*
X167978095Y-93202282D01*
X167978095Y-93202282D02*
X168025714Y-93249901D01*
X168025714Y-93249901D02*
X168073333Y-93345139D01*
X168073333Y-93345139D02*
X168073333Y-93487996D01*
X168073333Y-93487996D02*
X168025714Y-93583234D01*
X168025714Y-93583234D02*
X167978095Y-93630853D01*
X167978095Y-93630853D02*
X167882857Y-93678472D01*
X167882857Y-93678472D02*
X167501905Y-93678472D01*
X168644762Y-93583234D02*
X168549524Y-93535615D01*
X168549524Y-93535615D02*
X168501905Y-93487996D01*
X168501905Y-93487996D02*
X168454286Y-93392758D01*
X168454286Y-93392758D02*
X168454286Y-93345139D01*
X168454286Y-93345139D02*
X168501905Y-93249901D01*
X168501905Y-93249901D02*
X168549524Y-93202282D01*
X168549524Y-93202282D02*
X168644762Y-93154663D01*
X168644762Y-93154663D02*
X168835238Y-93154663D01*
X168835238Y-93154663D02*
X168930476Y-93202282D01*
X168930476Y-93202282D02*
X168978095Y-93249901D01*
X168978095Y-93249901D02*
X169025714Y-93345139D01*
X169025714Y-93345139D02*
X169025714Y-93392758D01*
X169025714Y-93392758D02*
X168978095Y-93487996D01*
X168978095Y-93487996D02*
X168930476Y-93535615D01*
X168930476Y-93535615D02*
X168835238Y-93583234D01*
X168835238Y-93583234D02*
X168644762Y-93583234D01*
X168644762Y-93583234D02*
X168549524Y-93630853D01*
X168549524Y-93630853D02*
X168501905Y-93678472D01*
X168501905Y-93678472D02*
X168454286Y-93773710D01*
X168454286Y-93773710D02*
X168454286Y-93964186D01*
X168454286Y-93964186D02*
X168501905Y-94059424D01*
X168501905Y-94059424D02*
X168549524Y-94107044D01*
X168549524Y-94107044D02*
X168644762Y-94154663D01*
X168644762Y-94154663D02*
X168835238Y-94154663D01*
X168835238Y-94154663D02*
X168930476Y-94107044D01*
X168930476Y-94107044D02*
X168978095Y-94059424D01*
X168978095Y-94059424D02*
X169025714Y-93964186D01*
X169025714Y-93964186D02*
X169025714Y-93773710D01*
X169025714Y-93773710D02*
X168978095Y-93678472D01*
X168978095Y-93678472D02*
X168930476Y-93630853D01*
X168930476Y-93630853D02*
X168835238Y-93583234D01*
X121499333Y-82750663D02*
X121166000Y-82274472D01*
X120927905Y-82750663D02*
X120927905Y-81750663D01*
X120927905Y-81750663D02*
X121308857Y-81750663D01*
X121308857Y-81750663D02*
X121404095Y-81798282D01*
X121404095Y-81798282D02*
X121451714Y-81845901D01*
X121451714Y-81845901D02*
X121499333Y-81941139D01*
X121499333Y-81941139D02*
X121499333Y-82083996D01*
X121499333Y-82083996D02*
X121451714Y-82179234D01*
X121451714Y-82179234D02*
X121404095Y-82226853D01*
X121404095Y-82226853D02*
X121308857Y-82274472D01*
X121308857Y-82274472D02*
X120927905Y-82274472D01*
X122451714Y-82750663D02*
X121880286Y-82750663D01*
X122166000Y-82750663D02*
X122166000Y-81750663D01*
X122166000Y-81750663D02*
X122070762Y-81893520D01*
X122070762Y-81893520D02*
X121975524Y-81988758D01*
X121975524Y-81988758D02*
X121880286Y-82036377D01*
X149633333Y-97089424D02*
X149585714Y-97137044D01*
X149585714Y-97137044D02*
X149442857Y-97184663D01*
X149442857Y-97184663D02*
X149347619Y-97184663D01*
X149347619Y-97184663D02*
X149204762Y-97137044D01*
X149204762Y-97137044D02*
X149109524Y-97041805D01*
X149109524Y-97041805D02*
X149061905Y-96946567D01*
X149061905Y-96946567D02*
X149014286Y-96756091D01*
X149014286Y-96756091D02*
X149014286Y-96613234D01*
X149014286Y-96613234D02*
X149061905Y-96422758D01*
X149061905Y-96422758D02*
X149109524Y-96327520D01*
X149109524Y-96327520D02*
X149204762Y-96232282D01*
X149204762Y-96232282D02*
X149347619Y-96184663D01*
X149347619Y-96184663D02*
X149442857Y-96184663D01*
X149442857Y-96184663D02*
X149585714Y-96232282D01*
X149585714Y-96232282D02*
X149633333Y-96279901D01*
X150204762Y-96613234D02*
X150109524Y-96565615D01*
X150109524Y-96565615D02*
X150061905Y-96517996D01*
X150061905Y-96517996D02*
X150014286Y-96422758D01*
X150014286Y-96422758D02*
X150014286Y-96375139D01*
X150014286Y-96375139D02*
X150061905Y-96279901D01*
X150061905Y-96279901D02*
X150109524Y-96232282D01*
X150109524Y-96232282D02*
X150204762Y-96184663D01*
X150204762Y-96184663D02*
X150395238Y-96184663D01*
X150395238Y-96184663D02*
X150490476Y-96232282D01*
X150490476Y-96232282D02*
X150538095Y-96279901D01*
X150538095Y-96279901D02*
X150585714Y-96375139D01*
X150585714Y-96375139D02*
X150585714Y-96422758D01*
X150585714Y-96422758D02*
X150538095Y-96517996D01*
X150538095Y-96517996D02*
X150490476Y-96565615D01*
X150490476Y-96565615D02*
X150395238Y-96613234D01*
X150395238Y-96613234D02*
X150204762Y-96613234D01*
X150204762Y-96613234D02*
X150109524Y-96660853D01*
X150109524Y-96660853D02*
X150061905Y-96708472D01*
X150061905Y-96708472D02*
X150014286Y-96803710D01*
X150014286Y-96803710D02*
X150014286Y-96994186D01*
X150014286Y-96994186D02*
X150061905Y-97089424D01*
X150061905Y-97089424D02*
X150109524Y-97137044D01*
X150109524Y-97137044D02*
X150204762Y-97184663D01*
X150204762Y-97184663D02*
X150395238Y-97184663D01*
X150395238Y-97184663D02*
X150490476Y-97137044D01*
X150490476Y-97137044D02*
X150538095Y-97089424D01*
X150538095Y-97089424D02*
X150585714Y-96994186D01*
X150585714Y-96994186D02*
X150585714Y-96803710D01*
X150585714Y-96803710D02*
X150538095Y-96708472D01*
X150538095Y-96708472D02*
X150490476Y-96660853D01*
X150490476Y-96660853D02*
X150395238Y-96613234D01*
X159757142Y-95459424D02*
X159709523Y-95507044D01*
X159709523Y-95507044D02*
X159566666Y-95554663D01*
X159566666Y-95554663D02*
X159471428Y-95554663D01*
X159471428Y-95554663D02*
X159328571Y-95507044D01*
X159328571Y-95507044D02*
X159233333Y-95411805D01*
X159233333Y-95411805D02*
X159185714Y-95316567D01*
X159185714Y-95316567D02*
X159138095Y-95126091D01*
X159138095Y-95126091D02*
X159138095Y-94983234D01*
X159138095Y-94983234D02*
X159185714Y-94792758D01*
X159185714Y-94792758D02*
X159233333Y-94697520D01*
X159233333Y-94697520D02*
X159328571Y-94602282D01*
X159328571Y-94602282D02*
X159471428Y-94554663D01*
X159471428Y-94554663D02*
X159566666Y-94554663D01*
X159566666Y-94554663D02*
X159709523Y-94602282D01*
X159709523Y-94602282D02*
X159757142Y-94649901D01*
X160709523Y-95554663D02*
X160138095Y-95554663D01*
X160423809Y-95554663D02*
X160423809Y-94554663D01*
X160423809Y-94554663D02*
X160328571Y-94697520D01*
X160328571Y-94697520D02*
X160233333Y-94792758D01*
X160233333Y-94792758D02*
X160138095Y-94840377D01*
X161661904Y-95554663D02*
X161090476Y-95554663D01*
X161376190Y-95554663D02*
X161376190Y-94554663D01*
X161376190Y-94554663D02*
X161280952Y-94697520D01*
X161280952Y-94697520D02*
X161185714Y-94792758D01*
X161185714Y-94792758D02*
X161090476Y-94840377D01*
X152759424Y-92942857D02*
X152807044Y-92990476D01*
X152807044Y-92990476D02*
X152854663Y-93133333D01*
X152854663Y-93133333D02*
X152854663Y-93228571D01*
X152854663Y-93228571D02*
X152807044Y-93371428D01*
X152807044Y-93371428D02*
X152711805Y-93466666D01*
X152711805Y-93466666D02*
X152616567Y-93514285D01*
X152616567Y-93514285D02*
X152426091Y-93561904D01*
X152426091Y-93561904D02*
X152283234Y-93561904D01*
X152283234Y-93561904D02*
X152092758Y-93514285D01*
X152092758Y-93514285D02*
X151997520Y-93466666D01*
X151997520Y-93466666D02*
X151902282Y-93371428D01*
X151902282Y-93371428D02*
X151854663Y-93228571D01*
X151854663Y-93228571D02*
X151854663Y-93133333D01*
X151854663Y-93133333D02*
X151902282Y-92990476D01*
X151902282Y-92990476D02*
X151949901Y-92942857D01*
X152854663Y-91990476D02*
X152854663Y-92561904D01*
X152854663Y-92276190D02*
X151854663Y-92276190D01*
X151854663Y-92276190D02*
X151997520Y-92371428D01*
X151997520Y-92371428D02*
X152092758Y-92466666D01*
X152092758Y-92466666D02*
X152140377Y-92561904D01*
X151854663Y-91657142D02*
X151854663Y-91038095D01*
X151854663Y-91038095D02*
X152235615Y-91371428D01*
X152235615Y-91371428D02*
X152235615Y-91228571D01*
X152235615Y-91228571D02*
X152283234Y-91133333D01*
X152283234Y-91133333D02*
X152330853Y-91085714D01*
X152330853Y-91085714D02*
X152426091Y-91038095D01*
X152426091Y-91038095D02*
X152664186Y-91038095D01*
X152664186Y-91038095D02*
X152759424Y-91085714D01*
X152759424Y-91085714D02*
X152807044Y-91133333D01*
X152807044Y-91133333D02*
X152854663Y-91228571D01*
X152854663Y-91228571D02*
X152854663Y-91514285D01*
X152854663Y-91514285D02*
X152807044Y-91609523D01*
X152807044Y-91609523D02*
X152759424Y-91657142D01*
X148923809Y-91928472D02*
X148923809Y-92404663D01*
X148590476Y-91404663D02*
X148923809Y-91928472D01*
X148923809Y-91928472D02*
X149257142Y-91404663D01*
X150114285Y-92404663D02*
X149542857Y-92404663D01*
X149828571Y-92404663D02*
X149828571Y-91404663D01*
X149828571Y-91404663D02*
X149733333Y-91547520D01*
X149733333Y-91547520D02*
X149638095Y-91642758D01*
X149638095Y-91642758D02*
X149542857Y-91690377D01*
X157313333Y-78686663D02*
X156980000Y-78210472D01*
X156741905Y-78686663D02*
X156741905Y-77686663D01*
X156741905Y-77686663D02*
X157122857Y-77686663D01*
X157122857Y-77686663D02*
X157218095Y-77734282D01*
X157218095Y-77734282D02*
X157265714Y-77781901D01*
X157265714Y-77781901D02*
X157313333Y-77877139D01*
X157313333Y-77877139D02*
X157313333Y-78019996D01*
X157313333Y-78019996D02*
X157265714Y-78115234D01*
X157265714Y-78115234D02*
X157218095Y-78162853D01*
X157218095Y-78162853D02*
X157122857Y-78210472D01*
X157122857Y-78210472D02*
X156741905Y-78210472D01*
X158170476Y-78019996D02*
X158170476Y-78686663D01*
X157932381Y-77639044D02*
X157694286Y-78353329D01*
X157694286Y-78353329D02*
X158313333Y-78353329D01*
D11*
%TO.C,C9*%
X171965000Y-70600748D02*
X171965000Y-71123252D01*
X173435000Y-70600748D02*
X173435000Y-71123252D01*
%TO.C,U3*%
D12*
X126209000Y-89488200D02*
G75*
G02*
X125909000Y-89488200I-150000J0D01*
G01*
X125909000Y-89488200D02*
G75*
G02*
X126209000Y-89488200I150000J0D01*
G01*
D11*
%TO.C,J1*%
X149930000Y-68690000D02*
X149930000Y-70390000D01*
X159270000Y-68690000D02*
X159270000Y-70390000D01*
%TO.C,J3*%
X143443000Y-98619000D02*
X143443000Y-99949000D01*
X142113000Y-98619000D02*
X143443000Y-98619000D01*
X140843000Y-101279000D02*
X133163000Y-101279000D01*
X140843000Y-98619000D02*
X140843000Y-101279000D01*
X140843000Y-98619000D02*
X133163000Y-98619000D01*
X133163000Y-98619000D02*
X133163000Y-101279000D01*
%TO.C,C12*%
X153390000Y-89340580D02*
X153390000Y-89059420D01*
X154410000Y-89340580D02*
X154410000Y-89059420D01*
%TO.C,R2*%
X156937258Y-82577500D02*
X156462742Y-82577500D01*
X156937258Y-83622500D02*
X156462742Y-83622500D01*
%TO.C,D2*%
X160186000Y-69129000D02*
X160186000Y-71789000D01*
X161886000Y-69129000D02*
X160186000Y-69129000D01*
X161886000Y-69129000D02*
X161886000Y-71789000D01*
%TO.C,J2*%
X161530000Y-81030000D02*
X161530000Y-79700000D01*
X162860000Y-81030000D02*
X161530000Y-81030000D01*
X164130000Y-78370000D02*
X171810000Y-78370000D01*
X164130000Y-81030000D02*
X164130000Y-78370000D01*
X164130000Y-81030000D02*
X171810000Y-81030000D01*
X171810000Y-81030000D02*
X171810000Y-78370000D01*
%TO.C,D1*%
X119153000Y-83859000D02*
X119153000Y-86144000D01*
X120623000Y-83859000D02*
X119153000Y-83859000D01*
X120623000Y-86144000D02*
X120623000Y-83859000D01*
%TO.C,C10*%
X166723748Y-74953000D02*
X167246252Y-74953000D01*
X166723748Y-76423000D02*
X167246252Y-76423000D01*
%TO.C,R6*%
X130699742Y-99426500D02*
X131174258Y-99426500D01*
X130699742Y-100471500D02*
X131174258Y-100471500D01*
%TO.C,JP1*%
X118558000Y-90048000D02*
X118558000Y-87448000D01*
X121218000Y-87448000D02*
X118558000Y-87448000D01*
X121218000Y-90048000D02*
X118558000Y-90048000D01*
X121218000Y-90048000D02*
X121218000Y-87448000D01*
X121218000Y-91318000D02*
X121218000Y-92648000D01*
X121218000Y-92648000D02*
X119888000Y-92648000D01*
%TO.C,J4*%
X133163000Y-90619000D02*
X133163000Y-93279000D01*
X140843000Y-90619000D02*
X133163000Y-90619000D01*
X140843000Y-90619000D02*
X140843000Y-93279000D01*
X140843000Y-93279000D02*
X133163000Y-93279000D01*
X142113000Y-90619000D02*
X143443000Y-90619000D01*
X143443000Y-90619000D02*
X143443000Y-91949000D01*
%TO.C,C5*%
X167790000Y-86459420D02*
X167790000Y-86740580D01*
X168810000Y-86459420D02*
X168810000Y-86740580D01*
%TO.C,R3*%
X151283500Y-76249258D02*
X151283500Y-75774742D01*
X152328500Y-76249258D02*
X152328500Y-75774742D01*
%TO.C,C6*%
X155790000Y-91259420D02*
X155790000Y-91540580D01*
X156810000Y-91259420D02*
X156810000Y-91540580D01*
%TO.C,C1*%
X169390000Y-86459420D02*
X169390000Y-86740580D01*
X170410000Y-86459420D02*
X170410000Y-86740580D01*
%TO.C,J5*%
X173755000Y-79920000D02*
X173755000Y-80920000D01*
X173755000Y-80920000D02*
X174755000Y-80420000D01*
X174755000Y-80420000D02*
X173755000Y-79920000D01*
X175145000Y-75210000D02*
X184265000Y-75210000D01*
X175145000Y-83450000D02*
X176455000Y-83450000D01*
X175145000Y-95790000D02*
X175145000Y-75210000D01*
X176455000Y-76510000D02*
X182955000Y-76510000D01*
X176455000Y-83450000D02*
X176455000Y-76510000D01*
X176455000Y-87550000D02*
X175145000Y-87550000D01*
X176455000Y-87550000D02*
X176455000Y-87550000D01*
X176455000Y-94490000D02*
X176455000Y-87550000D01*
X182955000Y-76510000D02*
X182955000Y-94490000D01*
X182955000Y-94490000D02*
X176455000Y-94490000D01*
X184265000Y-75210000D02*
X184265000Y-95790000D01*
X184265000Y-95790000D02*
X175145000Y-95790000D01*
%TO.C,C14*%
X123569000Y-90691580D02*
X123569000Y-90410420D01*
X124589000Y-90691580D02*
X124589000Y-90410420D01*
%TO.C,D3*%
X154746400Y-72939000D02*
X154746400Y-75599000D01*
X156446400Y-72939000D02*
X154746400Y-72939000D01*
X156446400Y-72939000D02*
X156446400Y-75599000D01*
%TO.C,FB1*%
X153137258Y-94777500D02*
X152662742Y-94777500D01*
X153137258Y-95822500D02*
X152662742Y-95822500D01*
%TO.C,D4*%
X152746400Y-72939000D02*
X152746400Y-75599000D01*
X154446400Y-72939000D02*
X152746400Y-72939000D01*
X154446400Y-72939000D02*
X154446400Y-75599000D01*
%TO.C,C4*%
X155790000Y-85740580D02*
X155790000Y-85459420D01*
X156810000Y-85740580D02*
X156810000Y-85459420D01*
%TO.C,C7*%
X155859420Y-94790000D02*
X156140580Y-94790000D01*
X155859420Y-95810000D02*
X156140580Y-95810000D01*
%TO.C,R9*%
X170380000Y-92875000D02*
X173180000Y-92875000D01*
X170380000Y-97075000D02*
X173180000Y-97075000D01*
X170380000Y-97075000D02*
G75*
G02*
X170393963Y-92865758I1400000J2100000D01*
G01*
X173180000Y-92875000D02*
G75*
G02*
X173166037Y-97084242I-1400000J-2100000D01*
G01*
%TO.C,R7*%
X128126258Y-99426500D02*
X127651742Y-99426500D01*
X128126258Y-100471500D02*
X127651742Y-100471500D01*
%TO.C,JP2*%
X149730000Y-87130000D02*
X149730000Y-85800000D01*
X151060000Y-87130000D02*
X149730000Y-87130000D01*
X152330000Y-84470000D02*
X154930000Y-84470000D01*
X152330000Y-87130000D02*
X152330000Y-84470000D01*
X152330000Y-87130000D02*
X154930000Y-87130000D01*
X154930000Y-87130000D02*
X154930000Y-84470000D01*
%TO.C,U1*%
X165075000Y-67452000D02*
X165075000Y-68712000D01*
X165075000Y-74272000D02*
X165075000Y-73012000D01*
X168835000Y-67452000D02*
X165075000Y-67452000D01*
X168835000Y-74272000D02*
X165075000Y-74272000D01*
X170355000Y-74502000D02*
X169875000Y-74502000D01*
X170115000Y-74172000D01*
X170355000Y-74502000D01*
G36*
X170355000Y-74502000D02*
G01*
X169875000Y-74502000D01*
X170115000Y-74172000D01*
X170355000Y-74502000D01*
G37*
%TO.C,C2*%
X165040580Y-94590000D02*
X164759420Y-94590000D01*
X165040580Y-95610000D02*
X164759420Y-95610000D01*
%TO.C,R5*%
X153387742Y-82577500D02*
X153862258Y-82577500D01*
X153387742Y-83622500D02*
X153862258Y-83622500D01*
%TO.C,C3*%
X159659420Y-82590000D02*
X159940580Y-82590000D01*
X159659420Y-83610000D02*
X159940580Y-83610000D01*
%TO.C,U2*%
X158690000Y-85490000D02*
X158690000Y-85940000D01*
X158690000Y-92710000D02*
X158690000Y-92260000D01*
X159140000Y-85490000D02*
X158690000Y-85490000D01*
X159140000Y-92710000D02*
X158690000Y-92710000D01*
X165460000Y-85490000D02*
X165910000Y-85490000D01*
X165460000Y-92710000D02*
X165910000Y-92710000D01*
X165910000Y-85490000D02*
X165910000Y-85940000D01*
X165910000Y-92710000D02*
X165910000Y-92260000D01*
X158100000Y-85940000D02*
X157760000Y-85470000D01*
X158440000Y-85470000D01*
X158100000Y-85940000D01*
G36*
X158100000Y-85940000D02*
G01*
X157760000Y-85470000D01*
X158440000Y-85470000D01*
X158100000Y-85940000D01*
G37*
%TO.C,R8*%
X167717500Y-96032258D02*
X167717500Y-95557742D01*
X168762500Y-96032258D02*
X168762500Y-95557742D01*
%TO.C,R1*%
X119365500Y-82469258D02*
X119365500Y-81994742D01*
X120410500Y-82469258D02*
X120410500Y-81994742D01*
%TO.C,C8*%
X149940580Y-94790000D02*
X149659420Y-94790000D01*
X149940580Y-95810000D02*
X149659420Y-95810000D01*
%TO.C,C11*%
X157790000Y-94359420D02*
X157790000Y-94640580D01*
X158810000Y-94359420D02*
X158810000Y-94640580D01*
%TO.C,C13*%
X153390000Y-92159420D02*
X153390000Y-92440580D01*
X154410000Y-92159420D02*
X154410000Y-92440580D01*
%TO.C,Y1*%
X151400000Y-87850000D02*
X147400000Y-87850000D01*
X151400000Y-91150000D02*
X151400000Y-87850000D01*
%TO.C,R4*%
X156871500Y-76249258D02*
X156871500Y-75774742D01*
X157916500Y-76249258D02*
X157916500Y-75774742D01*
%TD*%
M02*
