%TF.GenerationSoftware,KiCad,Pcbnew,8.0.2*%
%TF.CreationDate,2024-05-29T18:10:03+12:00*%
%TF.ProjectId,power_supply,706f7765-725f-4737-9570-706c792e6b69,0.1.0*%
%TF.SameCoordinates,Original*%
%TF.FileFunction,Copper,L2,Bot*%
%TF.FilePolarity,Positive*%
%FSLAX46Y46*%
G04 Gerber Fmt 4.6, Leading zero omitted, Abs format (unit mm)*
G04 Created by KiCad (PCBNEW 8.0.2) date 2024-05-29 18:10:03*
%MOMM*%
%LPD*%
G01*
G04 APERTURE LIST*
G04 Aperture macros list*
%AMRoundRect*
0 Rectangle with rounded corners*
0 $1 Rounding radius*
0 $2 $3 $4 $5 $6 $7 $8 $9 X,Y pos of 4 corners*
0 Add a 4 corners polygon primitive as box body*
4,1,4,$2,$3,$4,$5,$6,$7,$8,$9,$2,$3,0*
0 Add four circle primitives for the rounded corners*
1,1,$1+$1,$2,$3*
1,1,$1+$1,$4,$5*
1,1,$1+$1,$6,$7*
1,1,$1+$1,$8,$9*
0 Add four rect primitives between the rounded corners*
20,1,$1+$1,$2,$3,$4,$5,0*
20,1,$1+$1,$4,$5,$6,$7,0*
20,1,$1+$1,$6,$7,$8,$9,0*
20,1,$1+$1,$8,$9,$2,$3,0*%
G04 Aperture macros list end*
%TA.AperFunction,NonConductor*%
%ADD10C,0.200000*%
%TD*%
%TA.AperFunction,ComponentPad*%
%ADD11R,1.905000X2.000000*%
%TD*%
%TA.AperFunction,ComponentPad*%
%ADD12O,1.905000X2.000000*%
%TD*%
%TA.AperFunction,ComponentPad*%
%ADD13R,1.700000X1.700000*%
%TD*%
%TA.AperFunction,ComponentPad*%
%ADD14O,1.700000X1.700000*%
%TD*%
%TA.AperFunction,ComponentPad*%
%ADD15RoundRect,0.250000X0.600000X-0.600000X0.600000X0.600000X-0.600000X0.600000X-0.600000X-0.600000X0*%
%TD*%
%TA.AperFunction,ComponentPad*%
%ADD16C,1.700000*%
%TD*%
%TA.AperFunction,ComponentPad*%
%ADD17R,1.600000X1.600000*%
%TD*%
%TA.AperFunction,ComponentPad*%
%ADD18C,1.600000*%
%TD*%
%TA.AperFunction,ComponentPad*%
%ADD19C,1.440000*%
%TD*%
%TA.AperFunction,ViaPad*%
%ADD20C,1.600000*%
%TD*%
%TA.AperFunction,ViaPad*%
%ADD21C,0.600000*%
%TD*%
%TA.AperFunction,ViaPad*%
%ADD22C,1.000000*%
%TD*%
%TA.AperFunction,Conductor*%
%ADD23C,0.130000*%
%TD*%
G04 APERTURE END LIST*
D10*
X136000000Y-75990000D02*
X148520000Y-75990000D01*
X148520000Y-88470000D01*
X136000000Y-88470000D01*
X136000000Y-75990000D01*
D11*
%TO.P,Q1,1,G*%
%TO.N,/GATE_DRIVE*%
X152385000Y-88045000D03*
D12*
%TO.P,Q1,2,D*%
%TO.N,/DRAIN*%
X154925000Y-88045000D03*
%TO.P,Q1,3,S*%
%TO.N,/CURRENT_SENSE*%
X157465000Y-88045000D03*
%TD*%
D13*
%TO.P,J2,1,Pin_1*%
%TO.N,GND*%
X126000000Y-97300000D03*
D14*
%TO.P,J2,2,Pin_2*%
X126000000Y-94760000D03*
%TO.P,J2,3,Pin_3*%
X126000000Y-92220000D03*
%TO.P,J2,4,Pin_4*%
%TO.N,LATCH*%
X126000000Y-89680000D03*
%TO.P,J2,5,Pin_5*%
%TO.N,CLK*%
X126000000Y-87140000D03*
%TO.P,J2,6,Pin_6*%
%TO.N,OE*%
X126000000Y-84600000D03*
%TO.P,J2,7,Pin_7*%
%TO.N,SER*%
X126000000Y-82060000D03*
%TO.P,J2,8,Pin_8*%
%TO.N,+3V3*%
X126000000Y-79520000D03*
%TO.P,J2,9,Pin_9*%
%TO.N,VBUS*%
X126000000Y-76980000D03*
%TO.P,J2,10,Pin_10*%
X126000000Y-74440000D03*
%TD*%
D15*
%TO.P,J3,1,Pin_1*%
%TO.N,GND*%
X173920000Y-87100000D03*
D16*
%TO.P,J3,2,Pin_2*%
X173920000Y-84560000D03*
%TO.P,J3,3,Pin_3*%
X176460000Y-87100000D03*
%TO.P,J3,4,Pin_4*%
%TO.N,+3V3*%
X176460000Y-84560000D03*
%TO.P,J3,5,Pin_5*%
%TO.N,170V*%
X179000000Y-87100000D03*
%TO.P,J3,6,Pin_6*%
%TO.N,SER*%
X179000000Y-84560000D03*
%TO.P,J3,7,Pin_7*%
%TO.N,170V*%
X181540000Y-87100000D03*
%TO.P,J3,8,Pin_8*%
%TO.N,OE*%
X181540000Y-84560000D03*
%TO.P,J3,9,Pin_9*%
%TO.N,CLK*%
X184080000Y-87100000D03*
%TO.P,J3,10,Pin_10*%
%TO.N,LATCH*%
X184080000Y-84560000D03*
%TD*%
D17*
%TO.P,C4,1*%
%TO.N,170V*%
X161600000Y-77892651D03*
D18*
%TO.P,C4,2*%
%TO.N,GND*%
X161600000Y-74392651D03*
%TD*%
D19*
%TO.P,RV1,1,1*%
%TO.N,FB*%
X163875000Y-91565000D03*
%TO.P,RV1,2,2*%
%TO.N,/FB_PD*%
X166415000Y-94105000D03*
%TO.P,RV1,3,3*%
X163875000Y-96645000D03*
%TD*%
D20*
%TO.N,GND*%
X144500000Y-93390000D03*
D21*
X160300000Y-92640000D03*
D22*
X150800000Y-95340000D03*
D21*
X160300000Y-94740000D03*
D22*
X152300000Y-95340000D03*
D21*
X159500000Y-92640000D03*
D22*
X160100000Y-95740000D03*
D21*
X159500000Y-94740000D03*
D22*
X153000000Y-73640000D03*
X153000000Y-74740000D03*
D20*
X158000000Y-74090000D03*
X156250000Y-74090000D03*
X159750000Y-74090000D03*
X154500000Y-74040000D03*
D21*
X168500000Y-91640000D03*
%TO.N,SER*%
X179000000Y-90640000D03*
%TO.N,OE*%
X181600000Y-90740000D03*
%TD*%
D23*
%TO.N,SER*%
X177700000Y-89340000D02*
X177700000Y-85860000D01*
X179000000Y-90640000D02*
X177700000Y-89340000D01*
X177700000Y-85860000D02*
X179000000Y-84560000D01*
%TO.N,OE*%
X182800000Y-85820000D02*
X181540000Y-84560000D01*
X182800000Y-89540000D02*
X182800000Y-85820000D01*
X181600000Y-90740000D02*
X182800000Y-89540000D01*
%TD*%
%TA.AperFunction,Conductor*%
%TO.N,GND*%
G36*
X186003032Y-66500648D02*
G01*
X186336929Y-66517052D01*
X186349037Y-66518245D01*
X186452146Y-66533539D01*
X186676699Y-66566849D01*
X186688617Y-66569219D01*
X187009951Y-66649709D01*
X187021588Y-66653240D01*
X187092806Y-66678722D01*
X187333467Y-66764832D01*
X187344688Y-66769479D01*
X187644163Y-66911120D01*
X187654871Y-66916844D01*
X187938988Y-67087137D01*
X187949106Y-67093897D01*
X188215170Y-67291224D01*
X188224576Y-67298944D01*
X188470013Y-67521395D01*
X188478604Y-67529986D01*
X188665755Y-67736475D01*
X188701055Y-67775423D01*
X188708775Y-67784829D01*
X188906102Y-68050893D01*
X188912862Y-68061011D01*
X189041776Y-68276092D01*
X189083148Y-68345116D01*
X189088883Y-68355844D01*
X189205651Y-68602730D01*
X189230514Y-68655297D01*
X189235170Y-68666540D01*
X189346759Y-68978411D01*
X189350292Y-68990055D01*
X189430777Y-69311369D01*
X189433151Y-69323305D01*
X189481754Y-69650962D01*
X189482947Y-69663071D01*
X189499351Y-69996966D01*
X189499500Y-70003051D01*
X189499500Y-100996948D01*
X189499351Y-101003033D01*
X189482947Y-101336928D01*
X189481754Y-101349037D01*
X189433151Y-101676694D01*
X189430777Y-101688630D01*
X189350292Y-102009944D01*
X189346759Y-102021588D01*
X189235170Y-102333459D01*
X189230514Y-102344702D01*
X189088885Y-102644151D01*
X189083148Y-102654883D01*
X188912862Y-102938988D01*
X188906102Y-102949106D01*
X188708775Y-103215170D01*
X188701055Y-103224576D01*
X188478611Y-103470006D01*
X188470006Y-103478611D01*
X188224576Y-103701055D01*
X188215170Y-103708775D01*
X187949106Y-103906102D01*
X187938988Y-103912862D01*
X187654883Y-104083148D01*
X187644151Y-104088885D01*
X187344702Y-104230514D01*
X187333459Y-104235170D01*
X187021588Y-104346759D01*
X187009944Y-104350292D01*
X186688630Y-104430777D01*
X186676694Y-104433151D01*
X186349037Y-104481754D01*
X186336928Y-104482947D01*
X186021989Y-104498419D01*
X186003031Y-104499351D01*
X185996949Y-104499500D01*
X120003051Y-104499500D01*
X119996968Y-104499351D01*
X119976900Y-104498365D01*
X119663071Y-104482947D01*
X119650962Y-104481754D01*
X119323305Y-104433151D01*
X119311369Y-104430777D01*
X118990055Y-104350292D01*
X118978411Y-104346759D01*
X118666540Y-104235170D01*
X118655301Y-104230515D01*
X118355844Y-104088883D01*
X118345121Y-104083150D01*
X118061011Y-103912862D01*
X118050893Y-103906102D01*
X117784829Y-103708775D01*
X117775423Y-103701055D01*
X117736475Y-103665755D01*
X117529986Y-103478604D01*
X117521395Y-103470013D01*
X117298944Y-103224576D01*
X117291224Y-103215170D01*
X117093897Y-102949106D01*
X117087137Y-102938988D01*
X116979766Y-102759850D01*
X116916844Y-102654871D01*
X116911120Y-102644163D01*
X116769479Y-102344688D01*
X116764829Y-102333459D01*
X116653240Y-102021588D01*
X116649707Y-102009944D01*
X116640958Y-101975015D01*
X116569219Y-101688617D01*
X116566848Y-101676694D01*
X116518245Y-101349037D01*
X116517052Y-101336927D01*
X116500649Y-101003032D01*
X116500500Y-100996948D01*
X116500500Y-100878456D01*
X118145500Y-100878456D01*
X118145500Y-101121543D01*
X118145501Y-101121559D01*
X118177230Y-101362569D01*
X118240149Y-101597386D01*
X118333175Y-101821972D01*
X118333182Y-101821987D01*
X118454730Y-102032516D01*
X118602722Y-102225380D01*
X118602730Y-102225389D01*
X118774611Y-102397270D01*
X118774619Y-102397277D01*
X118967483Y-102545269D01*
X119178012Y-102666817D01*
X119178027Y-102666824D01*
X119294171Y-102714932D01*
X119402612Y-102759850D01*
X119637429Y-102822769D01*
X119878450Y-102854500D01*
X119878457Y-102854500D01*
X120121543Y-102854500D01*
X120121550Y-102854500D01*
X120362571Y-102822769D01*
X120597388Y-102759850D01*
X120821984Y-102666819D01*
X121032516Y-102545269D01*
X121225380Y-102397278D01*
X121225384Y-102397273D01*
X121225389Y-102397270D01*
X121397270Y-102225389D01*
X121397273Y-102225384D01*
X121397278Y-102225380D01*
X121545269Y-102032516D01*
X121666819Y-101821984D01*
X121759850Y-101597388D01*
X121822769Y-101362571D01*
X121854500Y-101121550D01*
X121854500Y-100878456D01*
X184145500Y-100878456D01*
X184145500Y-101121543D01*
X184145501Y-101121559D01*
X184177230Y-101362569D01*
X184240149Y-101597386D01*
X184333175Y-101821972D01*
X184333182Y-101821987D01*
X184454730Y-102032516D01*
X184602722Y-102225380D01*
X184602730Y-102225389D01*
X184774611Y-102397270D01*
X184774619Y-102397277D01*
X184967483Y-102545269D01*
X185178012Y-102666817D01*
X185178027Y-102666824D01*
X185294171Y-102714932D01*
X185402612Y-102759850D01*
X185637429Y-102822769D01*
X185878450Y-102854500D01*
X185878457Y-102854500D01*
X186121543Y-102854500D01*
X186121550Y-102854500D01*
X186362571Y-102822769D01*
X186597388Y-102759850D01*
X186821984Y-102666819D01*
X187032516Y-102545269D01*
X187225380Y-102397278D01*
X187225384Y-102397273D01*
X187225389Y-102397270D01*
X187397270Y-102225389D01*
X187397273Y-102225384D01*
X187397278Y-102225380D01*
X187545269Y-102032516D01*
X187666819Y-101821984D01*
X187759850Y-101597388D01*
X187822769Y-101362571D01*
X187854500Y-101121550D01*
X187854500Y-100878450D01*
X187822769Y-100637429D01*
X187759850Y-100402612D01*
X187666819Y-100178016D01*
X187666817Y-100178012D01*
X187545269Y-99967483D01*
X187397277Y-99774619D01*
X187397270Y-99774611D01*
X187225389Y-99602730D01*
X187225380Y-99602722D01*
X187032516Y-99454730D01*
X186821987Y-99333182D01*
X186821972Y-99333175D01*
X186597386Y-99240149D01*
X186362569Y-99177230D01*
X186121559Y-99145501D01*
X186121556Y-99145500D01*
X186121550Y-99145500D01*
X185878450Y-99145500D01*
X185878444Y-99145500D01*
X185878440Y-99145501D01*
X185637430Y-99177230D01*
X185402613Y-99240149D01*
X185178027Y-99333175D01*
X185178012Y-99333182D01*
X184967483Y-99454730D01*
X184774619Y-99602722D01*
X184602722Y-99774619D01*
X184454730Y-99967483D01*
X184333182Y-100178012D01*
X184333175Y-100178027D01*
X184240149Y-100402613D01*
X184177230Y-100637430D01*
X184145501Y-100878440D01*
X184145500Y-100878456D01*
X121854500Y-100878456D01*
X121854500Y-100878450D01*
X121822769Y-100637429D01*
X121759850Y-100402612D01*
X121666819Y-100178016D01*
X121666817Y-100178012D01*
X121545269Y-99967483D01*
X121397277Y-99774619D01*
X121397270Y-99774611D01*
X121225389Y-99602730D01*
X121225380Y-99602722D01*
X121032516Y-99454730D01*
X120821987Y-99333182D01*
X120821972Y-99333175D01*
X120597386Y-99240149D01*
X120362569Y-99177230D01*
X120121559Y-99145501D01*
X120121556Y-99145500D01*
X120121550Y-99145500D01*
X119878450Y-99145500D01*
X119878444Y-99145500D01*
X119878440Y-99145501D01*
X119637430Y-99177230D01*
X119402613Y-99240149D01*
X119178027Y-99333175D01*
X119178012Y-99333182D01*
X118967483Y-99454730D01*
X118774619Y-99602722D01*
X118602722Y-99774619D01*
X118454730Y-99967483D01*
X118333182Y-100178012D01*
X118333175Y-100178027D01*
X118240149Y-100402613D01*
X118177230Y-100637430D01*
X118145501Y-100878440D01*
X118145500Y-100878456D01*
X116500500Y-100878456D01*
X116500500Y-96644998D01*
X162649838Y-96644998D01*
X162649838Y-96645001D01*
X162668450Y-96857741D01*
X162668452Y-96857752D01*
X162723721Y-97064022D01*
X162723723Y-97064026D01*
X162723724Y-97064030D01*
X162766171Y-97155058D01*
X162813977Y-97257578D01*
X162936472Y-97432521D01*
X163087478Y-97583527D01*
X163087481Y-97583529D01*
X163262419Y-97706021D01*
X163262421Y-97706022D01*
X163262420Y-97706022D01*
X163326936Y-97736106D01*
X163455970Y-97796276D01*
X163662253Y-97851549D01*
X163814215Y-97864844D01*
X163874998Y-97870162D01*
X163875000Y-97870162D01*
X163875002Y-97870162D01*
X163928186Y-97865508D01*
X164087747Y-97851549D01*
X164294030Y-97796276D01*
X164487581Y-97706021D01*
X164662519Y-97583529D01*
X164813529Y-97432519D01*
X164936021Y-97257581D01*
X165026276Y-97064030D01*
X165081549Y-96857747D01*
X165100162Y-96645000D01*
X165081549Y-96432253D01*
X165026276Y-96225970D01*
X164936021Y-96032419D01*
X164813529Y-95857481D01*
X164813527Y-95857478D01*
X164662521Y-95706472D01*
X164487578Y-95583977D01*
X164487579Y-95583977D01*
X164358547Y-95523809D01*
X164294030Y-95493724D01*
X164294026Y-95493723D01*
X164294022Y-95493721D01*
X164087752Y-95438452D01*
X164087748Y-95438451D01*
X164087747Y-95438451D01*
X164087746Y-95438450D01*
X164087741Y-95438450D01*
X163875002Y-95419838D01*
X163874998Y-95419838D01*
X163662258Y-95438450D01*
X163662247Y-95438452D01*
X163455977Y-95493721D01*
X163455968Y-95493725D01*
X163262421Y-95583977D01*
X163087478Y-95706472D01*
X162936472Y-95857478D01*
X162813977Y-96032421D01*
X162723725Y-96225968D01*
X162723721Y-96225977D01*
X162668452Y-96432247D01*
X162668450Y-96432258D01*
X162649838Y-96644998D01*
X116500500Y-96644998D01*
X116500500Y-94104998D01*
X165189838Y-94104998D01*
X165189838Y-94105001D01*
X165208450Y-94317741D01*
X165208452Y-94317752D01*
X165263721Y-94524022D01*
X165263723Y-94524026D01*
X165263724Y-94524030D01*
X165306171Y-94615058D01*
X165353977Y-94717578D01*
X165476472Y-94892521D01*
X165627478Y-95043527D01*
X165627481Y-95043529D01*
X165802419Y-95166021D01*
X165802421Y-95166022D01*
X165802420Y-95166022D01*
X165866936Y-95196106D01*
X165995970Y-95256276D01*
X166202253Y-95311549D01*
X166354215Y-95324844D01*
X166414998Y-95330162D01*
X166415000Y-95330162D01*
X166415002Y-95330162D01*
X166468186Y-95325508D01*
X166627747Y-95311549D01*
X166834030Y-95256276D01*
X167027581Y-95166021D01*
X167202519Y-95043529D01*
X167353529Y-94892519D01*
X167476021Y-94717581D01*
X167566276Y-94524030D01*
X167621549Y-94317747D01*
X167640162Y-94105000D01*
X167621549Y-93892253D01*
X167566276Y-93685970D01*
X167476021Y-93492419D01*
X167353529Y-93317481D01*
X167353527Y-93317478D01*
X167202521Y-93166472D01*
X167027578Y-93043977D01*
X167027579Y-93043977D01*
X166898547Y-92983809D01*
X166834030Y-92953724D01*
X166834026Y-92953723D01*
X166834022Y-92953721D01*
X166627752Y-92898452D01*
X166627748Y-92898451D01*
X166627747Y-92898451D01*
X166627746Y-92898450D01*
X166627741Y-92898450D01*
X166415002Y-92879838D01*
X166414998Y-92879838D01*
X166202258Y-92898450D01*
X166202247Y-92898452D01*
X165995977Y-92953721D01*
X165995968Y-92953725D01*
X165802421Y-93043977D01*
X165627478Y-93166472D01*
X165476472Y-93317478D01*
X165353977Y-93492421D01*
X165263725Y-93685968D01*
X165263721Y-93685977D01*
X165208452Y-93892247D01*
X165208450Y-93892258D01*
X165189838Y-94104998D01*
X116500500Y-94104998D01*
X116500500Y-91564998D01*
X162649838Y-91564998D01*
X162649838Y-91565001D01*
X162668450Y-91777741D01*
X162668452Y-91777752D01*
X162723721Y-91984022D01*
X162723723Y-91984026D01*
X162723724Y-91984030D01*
X162766171Y-92075058D01*
X162813977Y-92177578D01*
X162936472Y-92352521D01*
X163087478Y-92503527D01*
X163087481Y-92503529D01*
X163262419Y-92626021D01*
X163262421Y-92626022D01*
X163262420Y-92626022D01*
X163326936Y-92656106D01*
X163455970Y-92716276D01*
X163662253Y-92771549D01*
X163814215Y-92784844D01*
X163874998Y-92790162D01*
X163875000Y-92790162D01*
X163875002Y-92790162D01*
X163928186Y-92785508D01*
X164087747Y-92771549D01*
X164294030Y-92716276D01*
X164487581Y-92626021D01*
X164662519Y-92503529D01*
X164813529Y-92352519D01*
X164936021Y-92177581D01*
X165026276Y-91984030D01*
X165081549Y-91777747D01*
X165100162Y-91565000D01*
X165081549Y-91352253D01*
X165026276Y-91145970D01*
X164936021Y-90952419D01*
X164813529Y-90777481D01*
X164813527Y-90777478D01*
X164662521Y-90626472D01*
X164487578Y-90503977D01*
X164487579Y-90503977D01*
X164358547Y-90443809D01*
X164294030Y-90413724D01*
X164294026Y-90413723D01*
X164294022Y-90413721D01*
X164087752Y-90358452D01*
X164087748Y-90358451D01*
X164087747Y-90358451D01*
X164087746Y-90358450D01*
X164087741Y-90358450D01*
X163875002Y-90339838D01*
X163874998Y-90339838D01*
X163662258Y-90358450D01*
X163662247Y-90358452D01*
X163455977Y-90413721D01*
X163455968Y-90413725D01*
X163262421Y-90503977D01*
X163087478Y-90626472D01*
X162936472Y-90777478D01*
X162813977Y-90952421D01*
X162723725Y-91145968D01*
X162723721Y-91145977D01*
X162668452Y-91352247D01*
X162668450Y-91352258D01*
X162649838Y-91564998D01*
X116500500Y-91564998D01*
X116500500Y-74439999D01*
X124644341Y-74439999D01*
X124644341Y-74440000D01*
X124664936Y-74675403D01*
X124664938Y-74675413D01*
X124726094Y-74903655D01*
X124726096Y-74903659D01*
X124726097Y-74903663D01*
X124825965Y-75117830D01*
X124825967Y-75117834D01*
X124961501Y-75311395D01*
X124961506Y-75311402D01*
X125128597Y-75478493D01*
X125128603Y-75478498D01*
X125314158Y-75608425D01*
X125357783Y-75663002D01*
X125364977Y-75732500D01*
X125333454Y-75794855D01*
X125314158Y-75811575D01*
X125128597Y-75941505D01*
X124961505Y-76108597D01*
X124825965Y-76302169D01*
X124825964Y-76302171D01*
X124726098Y-76516335D01*
X124726094Y-76516344D01*
X124664938Y-76744586D01*
X124664936Y-76744596D01*
X124644341Y-76979999D01*
X124644341Y-76980000D01*
X124664936Y-77215403D01*
X124664938Y-77215413D01*
X124726094Y-77443655D01*
X124726096Y-77443659D01*
X124726097Y-77443663D01*
X124825965Y-77657830D01*
X124825967Y-77657834D01*
X124961501Y-77851395D01*
X124961506Y-77851402D01*
X125128597Y-78018493D01*
X125128603Y-78018498D01*
X125314158Y-78148425D01*
X125357783Y-78203002D01*
X125364977Y-78272500D01*
X125333454Y-78334855D01*
X125314158Y-78351575D01*
X125128597Y-78481505D01*
X124961505Y-78648597D01*
X124825965Y-78842169D01*
X124825964Y-78842171D01*
X124726098Y-79056335D01*
X124726094Y-79056344D01*
X124664938Y-79284586D01*
X124664936Y-79284596D01*
X124644341Y-79519999D01*
X124644341Y-79520000D01*
X124664936Y-79755403D01*
X124664938Y-79755413D01*
X124726094Y-79983655D01*
X124726096Y-79983659D01*
X124726097Y-79983663D01*
X124825965Y-80197830D01*
X124825967Y-80197834D01*
X124961501Y-80391395D01*
X124961506Y-80391402D01*
X125128597Y-80558493D01*
X125128603Y-80558498D01*
X125314158Y-80688425D01*
X125357783Y-80743002D01*
X125364977Y-80812500D01*
X125333454Y-80874855D01*
X125314158Y-80891575D01*
X125128597Y-81021505D01*
X124961505Y-81188597D01*
X124825965Y-81382169D01*
X124825964Y-81382171D01*
X124726098Y-81596335D01*
X124726094Y-81596344D01*
X124664938Y-81824586D01*
X124664936Y-81824596D01*
X124644341Y-82059999D01*
X124644341Y-82060000D01*
X124664936Y-82295403D01*
X124664938Y-82295413D01*
X124726094Y-82523655D01*
X124726096Y-82523659D01*
X124726097Y-82523663D01*
X124825965Y-82737830D01*
X124825967Y-82737834D01*
X124961501Y-82931395D01*
X124961506Y-82931402D01*
X125128597Y-83098493D01*
X125128603Y-83098498D01*
X125314158Y-83228425D01*
X125357783Y-83283002D01*
X125364977Y-83352500D01*
X125333454Y-83414855D01*
X125314158Y-83431575D01*
X125128597Y-83561505D01*
X124961505Y-83728597D01*
X124825965Y-83922169D01*
X124825964Y-83922171D01*
X124726098Y-84136335D01*
X124726094Y-84136344D01*
X124664938Y-84364586D01*
X124664936Y-84364596D01*
X124644341Y-84599999D01*
X124644341Y-84600000D01*
X124664936Y-84835403D01*
X124664938Y-84835413D01*
X124726094Y-85063655D01*
X124726096Y-85063659D01*
X124726097Y-85063663D01*
X124790706Y-85202217D01*
X124825965Y-85277830D01*
X124825967Y-85277834D01*
X124961501Y-85471395D01*
X124961506Y-85471402D01*
X125128597Y-85638493D01*
X125128603Y-85638498D01*
X125314158Y-85768425D01*
X125357783Y-85823002D01*
X125364977Y-85892500D01*
X125333454Y-85954855D01*
X125314158Y-85971575D01*
X125128597Y-86101505D01*
X124961505Y-86268597D01*
X124825965Y-86462169D01*
X124825964Y-86462171D01*
X124726098Y-86676335D01*
X124726094Y-86676344D01*
X124664938Y-86904586D01*
X124664936Y-86904596D01*
X124644341Y-87139999D01*
X124644341Y-87140000D01*
X124664936Y-87375403D01*
X124664938Y-87375413D01*
X124726094Y-87603655D01*
X124726096Y-87603659D01*
X124726097Y-87603663D01*
X124790706Y-87742217D01*
X124825965Y-87817830D01*
X124825967Y-87817834D01*
X124961501Y-88011395D01*
X124961506Y-88011402D01*
X125128597Y-88178493D01*
X125128603Y-88178498D01*
X125314158Y-88308425D01*
X125357783Y-88363002D01*
X125364977Y-88432500D01*
X125333454Y-88494855D01*
X125314158Y-88511575D01*
X125128597Y-88641505D01*
X124961505Y-88808597D01*
X124825965Y-89002169D01*
X124825964Y-89002171D01*
X124726098Y-89216335D01*
X124726094Y-89216344D01*
X124664938Y-89444586D01*
X124664936Y-89444596D01*
X124644341Y-89679999D01*
X124644341Y-89680000D01*
X124664936Y-89915403D01*
X124664938Y-89915413D01*
X124726094Y-90143655D01*
X124726096Y-90143659D01*
X124726097Y-90143663D01*
X124769965Y-90237737D01*
X124825965Y-90357830D01*
X124825967Y-90357834D01*
X124848825Y-90390478D01*
X124961505Y-90551401D01*
X125128599Y-90718495D01*
X125159316Y-90740003D01*
X125322165Y-90854032D01*
X125322167Y-90854033D01*
X125322170Y-90854035D01*
X125536337Y-90953903D01*
X125764592Y-91015063D01*
X125952918Y-91031539D01*
X125999999Y-91035659D01*
X126000000Y-91035659D01*
X126000001Y-91035659D01*
X126039234Y-91032226D01*
X126235408Y-91015063D01*
X126463663Y-90953903D01*
X126677830Y-90854035D01*
X126871401Y-90718495D01*
X127038495Y-90551401D01*
X127174035Y-90357830D01*
X127273903Y-90143663D01*
X127335063Y-89915408D01*
X127355659Y-89680000D01*
X127335063Y-89444592D01*
X127273903Y-89216337D01*
X127174035Y-89002171D01*
X127140699Y-88954561D01*
X127038494Y-88808597D01*
X126871402Y-88641506D01*
X126871396Y-88641501D01*
X126685842Y-88511575D01*
X126642217Y-88456998D01*
X126635023Y-88387500D01*
X126666546Y-88325145D01*
X126685842Y-88308425D01*
X126734960Y-88274032D01*
X126871401Y-88178495D01*
X127038495Y-88011401D01*
X127174035Y-87817830D01*
X127273903Y-87603663D01*
X127335063Y-87375408D01*
X127355659Y-87140000D01*
X127335063Y-86904592D01*
X127273903Y-86676337D01*
X127174035Y-86462171D01*
X127153928Y-86433454D01*
X127038494Y-86268597D01*
X126871402Y-86101506D01*
X126871396Y-86101501D01*
X126685842Y-85971575D01*
X126642217Y-85916998D01*
X126635023Y-85847500D01*
X126666546Y-85785145D01*
X126685842Y-85768425D01*
X126783894Y-85699768D01*
X126871401Y-85638495D01*
X127038495Y-85471401D01*
X127174035Y-85277830D01*
X127273903Y-85063663D01*
X127335063Y-84835408D01*
X127355659Y-84600000D01*
X127335063Y-84364592D01*
X127273903Y-84136337D01*
X127174035Y-83922171D01*
X127153928Y-83893454D01*
X127038494Y-83728597D01*
X126871402Y-83561506D01*
X126871396Y-83561501D01*
X126685842Y-83431575D01*
X126642217Y-83376998D01*
X126635023Y-83307500D01*
X126666546Y-83245145D01*
X126685842Y-83228425D01*
X126720237Y-83204341D01*
X126871401Y-83098495D01*
X127038495Y-82931401D01*
X127174035Y-82737830D01*
X127273903Y-82523663D01*
X127335063Y-82295408D01*
X127355659Y-82060000D01*
X127335063Y-81824592D01*
X127273903Y-81596337D01*
X127174035Y-81382171D01*
X127038495Y-81188599D01*
X127038494Y-81188597D01*
X126871402Y-81021506D01*
X126871396Y-81021501D01*
X126685842Y-80891575D01*
X126642217Y-80836998D01*
X126635023Y-80767500D01*
X126666546Y-80705145D01*
X126685842Y-80688425D01*
X126708026Y-80672891D01*
X126871401Y-80558495D01*
X127038495Y-80391401D01*
X127174035Y-80197830D01*
X127273903Y-79983663D01*
X127335063Y-79755408D01*
X127355659Y-79520000D01*
X127335063Y-79284592D01*
X127273903Y-79056337D01*
X127174035Y-78842171D01*
X127102869Y-78740534D01*
X127038494Y-78648597D01*
X126871402Y-78481506D01*
X126871396Y-78481501D01*
X126685842Y-78351575D01*
X126642217Y-78296998D01*
X126635023Y-78227500D01*
X126666546Y-78165145D01*
X126685842Y-78148425D01*
X126708026Y-78132891D01*
X126871401Y-78018495D01*
X127038495Y-77851401D01*
X127174035Y-77657830D01*
X127273903Y-77443663D01*
X127335063Y-77215408D01*
X127355659Y-76980000D01*
X127335063Y-76744592D01*
X127273903Y-76516337D01*
X127174035Y-76302171D01*
X127038495Y-76108599D01*
X127038494Y-76108597D01*
X126871402Y-75941506D01*
X126871396Y-75941501D01*
X126827755Y-75910943D01*
X135399500Y-75910943D01*
X135399500Y-88549057D01*
X135424272Y-88641505D01*
X135440423Y-88701783D01*
X135440426Y-88701790D01*
X135519475Y-88838709D01*
X135519479Y-88838714D01*
X135519480Y-88838716D01*
X135631284Y-88950520D01*
X135631286Y-88950521D01*
X135631290Y-88950524D01*
X135720747Y-89002171D01*
X135768216Y-89029577D01*
X135920943Y-89070500D01*
X135920945Y-89070500D01*
X148599055Y-89070500D01*
X148599057Y-89070500D01*
X148751784Y-89029577D01*
X148888716Y-88950520D01*
X149000520Y-88838716D01*
X149079577Y-88701784D01*
X149120500Y-88549057D01*
X149120500Y-86997135D01*
X150932000Y-86997135D01*
X150932000Y-89092870D01*
X150932001Y-89092876D01*
X150938408Y-89152483D01*
X150988702Y-89287328D01*
X150988706Y-89287335D01*
X151074952Y-89402544D01*
X151074955Y-89402547D01*
X151190164Y-89488793D01*
X151190171Y-89488797D01*
X151325017Y-89539091D01*
X151325016Y-89539091D01*
X151331944Y-89539835D01*
X151384627Y-89545500D01*
X153385372Y-89545499D01*
X153444983Y-89539091D01*
X153579831Y-89488796D01*
X153695046Y-89402546D01*
X153781296Y-89287331D01*
X153791690Y-89259460D01*
X153833560Y-89203527D01*
X153899023Y-89179108D01*
X153967297Y-89193958D01*
X153980746Y-89202465D01*
X154163462Y-89335217D01*
X154295599Y-89402544D01*
X154367244Y-89439049D01*
X154584751Y-89509721D01*
X154584752Y-89509721D01*
X154584755Y-89509722D01*
X154810646Y-89545500D01*
X154810647Y-89545500D01*
X155039353Y-89545500D01*
X155039354Y-89545500D01*
X155265245Y-89509722D01*
X155265248Y-89509721D01*
X155265249Y-89509721D01*
X155482755Y-89439049D01*
X155482755Y-89439048D01*
X155482758Y-89439048D01*
X155686538Y-89335217D01*
X155871566Y-89200786D01*
X156033286Y-89039066D01*
X156094683Y-88954559D01*
X156150012Y-88911896D01*
X156219625Y-88905917D01*
X156281420Y-88938523D01*
X156295314Y-88954556D01*
X156356714Y-89039066D01*
X156518434Y-89200786D01*
X156703462Y-89335217D01*
X156835599Y-89402544D01*
X156907244Y-89439049D01*
X157124751Y-89509721D01*
X157124752Y-89509721D01*
X157124755Y-89509722D01*
X157350646Y-89545500D01*
X157350647Y-89545500D01*
X157579353Y-89545500D01*
X157579354Y-89545500D01*
X157805245Y-89509722D01*
X157805248Y-89509721D01*
X157805249Y-89509721D01*
X158022755Y-89439049D01*
X158022755Y-89439048D01*
X158022758Y-89439048D01*
X158226538Y-89335217D01*
X158411566Y-89200786D01*
X158573286Y-89039066D01*
X158707717Y-88854038D01*
X158811548Y-88650258D01*
X158844430Y-88549057D01*
X158882221Y-88432749D01*
X158882221Y-88432748D01*
X158882222Y-88432745D01*
X158918000Y-88206854D01*
X158918000Y-87883146D01*
X158882222Y-87657255D01*
X158882221Y-87657251D01*
X158882221Y-87657250D01*
X158811549Y-87439744D01*
X158758387Y-87335408D01*
X158707717Y-87235962D01*
X158573286Y-87050934D01*
X158411566Y-86889214D01*
X158226538Y-86754783D01*
X158022755Y-86650950D01*
X157805248Y-86580278D01*
X157619812Y-86550908D01*
X157579354Y-86544500D01*
X157350646Y-86544500D01*
X157310188Y-86550908D01*
X157124753Y-86580278D01*
X157124750Y-86580278D01*
X156907244Y-86650950D01*
X156703461Y-86754783D01*
X156637550Y-86802671D01*
X156518434Y-86889214D01*
X156518432Y-86889216D01*
X156518431Y-86889216D01*
X156356715Y-87050932D01*
X156295318Y-87135438D01*
X156239987Y-87178103D01*
X156170374Y-87184082D01*
X156108579Y-87151476D01*
X156094682Y-87135438D01*
X156083773Y-87120423D01*
X156033286Y-87050934D01*
X155871566Y-86889214D01*
X155686538Y-86754783D01*
X155482755Y-86650950D01*
X155265248Y-86580278D01*
X155079812Y-86550908D01*
X155039354Y-86544500D01*
X154810646Y-86544500D01*
X154770188Y-86550908D01*
X154584753Y-86580278D01*
X154584750Y-86580278D01*
X154367244Y-86650950D01*
X154163461Y-86754783D01*
X154059194Y-86830538D01*
X154012332Y-86864586D01*
X153980759Y-86887525D01*
X153914952Y-86911005D01*
X153846898Y-86895180D01*
X153798203Y-86845074D01*
X153791690Y-86830538D01*
X153781296Y-86802669D01*
X153781293Y-86802664D01*
X153695047Y-86687455D01*
X153695044Y-86687452D01*
X153579835Y-86601206D01*
X153579828Y-86601202D01*
X153444982Y-86550908D01*
X153444983Y-86550908D01*
X153385383Y-86544501D01*
X153385381Y-86544500D01*
X153385373Y-86544500D01*
X153385364Y-86544500D01*
X151384629Y-86544500D01*
X151384623Y-86544501D01*
X151325016Y-86550908D01*
X151190171Y-86601202D01*
X151190164Y-86601206D01*
X151074955Y-86687452D01*
X151074952Y-86687455D01*
X150988706Y-86802664D01*
X150988702Y-86802671D01*
X150938408Y-86937517D01*
X150932001Y-86997116D01*
X150932000Y-86997135D01*
X149120500Y-86997135D01*
X149120500Y-84559999D01*
X175104341Y-84559999D01*
X175104341Y-84560000D01*
X175124936Y-84795403D01*
X175124938Y-84795413D01*
X175186094Y-85023655D01*
X175186096Y-85023659D01*
X175186097Y-85023663D01*
X175204750Y-85063664D01*
X175285965Y-85237830D01*
X175285967Y-85237834D01*
X175313973Y-85277830D01*
X175421505Y-85431401D01*
X175588599Y-85598495D01*
X175645722Y-85638493D01*
X175782165Y-85734032D01*
X175782167Y-85734033D01*
X175782170Y-85734035D01*
X175996337Y-85833903D01*
X176224592Y-85895063D01*
X176412918Y-85911539D01*
X176459999Y-85915659D01*
X176460000Y-85915659D01*
X176460001Y-85915659D01*
X176499234Y-85912226D01*
X176695408Y-85895063D01*
X176923663Y-85833903D01*
X176958096Y-85817846D01*
X177027170Y-85807354D01*
X177090955Y-85835872D01*
X177129196Y-85894348D01*
X177134500Y-85930228D01*
X177134500Y-89265550D01*
X177134500Y-89414450D01*
X177160028Y-89509721D01*
X177173038Y-89558276D01*
X177173039Y-89558277D01*
X177247484Y-89687221D01*
X177247488Y-89687226D01*
X178163013Y-90602751D01*
X178196498Y-90664074D01*
X178198552Y-90676548D01*
X178214630Y-90819250D01*
X178214631Y-90819254D01*
X178274211Y-90989523D01*
X178337045Y-91089522D01*
X178370184Y-91142262D01*
X178497738Y-91269816D01*
X178588080Y-91326582D01*
X178628943Y-91352258D01*
X178650478Y-91365789D01*
X178661984Y-91369815D01*
X178820745Y-91425368D01*
X178820750Y-91425369D01*
X178999996Y-91445565D01*
X179000000Y-91445565D01*
X179000004Y-91445565D01*
X179179249Y-91425369D01*
X179179252Y-91425368D01*
X179179255Y-91425368D01*
X179349522Y-91365789D01*
X179502262Y-91269816D01*
X179629816Y-91142262D01*
X179725789Y-90989522D01*
X179785368Y-90819255D01*
X179790180Y-90776548D01*
X179805565Y-90640003D01*
X179805565Y-90639996D01*
X179785369Y-90460750D01*
X179785368Y-90460745D01*
X179768914Y-90413721D01*
X179725789Y-90290478D01*
X179629816Y-90137738D01*
X179502262Y-90010184D01*
X179413852Y-89954632D01*
X179349523Y-89914211D01*
X179179254Y-89854631D01*
X179179250Y-89854630D01*
X179036548Y-89838552D01*
X178972134Y-89811485D01*
X178962751Y-89803013D01*
X178301819Y-89142081D01*
X178268334Y-89080758D01*
X178265500Y-89054400D01*
X178265500Y-88442250D01*
X178285185Y-88375211D01*
X178337989Y-88329456D01*
X178407147Y-88319512D01*
X178441901Y-88329867D01*
X178536337Y-88373903D01*
X178536342Y-88373904D01*
X178536344Y-88373905D01*
X178576024Y-88384537D01*
X178764592Y-88435063D01*
X178952918Y-88451539D01*
X178999999Y-88455659D01*
X179000000Y-88455659D01*
X179000001Y-88455659D01*
X179046668Y-88451576D01*
X179235408Y-88435063D01*
X179463663Y-88373903D01*
X179677830Y-88274035D01*
X179871401Y-88138495D01*
X180038495Y-87971401D01*
X180168425Y-87785842D01*
X180223002Y-87742217D01*
X180292500Y-87735023D01*
X180354855Y-87766546D01*
X180371575Y-87785842D01*
X180501500Y-87971395D01*
X180501505Y-87971401D01*
X180668599Y-88138495D01*
X180725722Y-88178493D01*
X180862165Y-88274032D01*
X180862167Y-88274033D01*
X180862170Y-88274035D01*
X181076337Y-88373903D01*
X181076343Y-88373904D01*
X181076344Y-88373905D01*
X181116024Y-88384537D01*
X181304592Y-88435063D01*
X181492918Y-88451539D01*
X181539999Y-88455659D01*
X181540000Y-88455659D01*
X181540001Y-88455659D01*
X181586668Y-88451576D01*
X181775408Y-88435063D01*
X182003663Y-88373903D01*
X182058098Y-88348519D01*
X182127171Y-88338028D01*
X182190956Y-88366547D01*
X182229196Y-88425023D01*
X182234500Y-88460902D01*
X182234500Y-89254399D01*
X182214815Y-89321438D01*
X182198181Y-89342080D01*
X181637247Y-89903013D01*
X181575924Y-89936498D01*
X181563450Y-89938552D01*
X181420749Y-89954630D01*
X181420745Y-89954631D01*
X181250476Y-90014211D01*
X181097737Y-90110184D01*
X180970184Y-90237737D01*
X180874211Y-90390476D01*
X180814631Y-90560745D01*
X180814630Y-90560750D01*
X180794435Y-90739996D01*
X180794435Y-90740003D01*
X180814630Y-90919249D01*
X180814631Y-90919254D01*
X180874211Y-91089523D01*
X180909684Y-91145977D01*
X180970184Y-91242262D01*
X181097738Y-91369816D01*
X181250478Y-91465789D01*
X181420745Y-91525368D01*
X181420750Y-91525369D01*
X181599996Y-91545565D01*
X181600000Y-91545565D01*
X181600004Y-91545565D01*
X181779249Y-91525369D01*
X181779252Y-91525368D01*
X181779255Y-91525368D01*
X181949522Y-91465789D01*
X182102262Y-91369816D01*
X182229816Y-91242262D01*
X182325789Y-91089522D01*
X182385368Y-90919255D01*
X182392717Y-90854035D01*
X182401447Y-90776548D01*
X182428513Y-90712134D01*
X182436976Y-90702760D01*
X183252513Y-89887225D01*
X183326962Y-89758275D01*
X183365500Y-89614450D01*
X183365500Y-89465550D01*
X183365500Y-88451576D01*
X183385185Y-88384537D01*
X183437989Y-88338782D01*
X183507147Y-88328838D01*
X183541900Y-88339192D01*
X183616337Y-88373903D01*
X183616342Y-88373904D01*
X183616344Y-88373905D01*
X183656024Y-88384537D01*
X183844592Y-88435063D01*
X184032918Y-88451539D01*
X184079999Y-88455659D01*
X184080000Y-88455659D01*
X184080001Y-88455659D01*
X184126668Y-88451576D01*
X184315408Y-88435063D01*
X184543663Y-88373903D01*
X184757830Y-88274035D01*
X184951401Y-88138495D01*
X185118495Y-87971401D01*
X185254035Y-87777830D01*
X185353903Y-87563663D01*
X185415063Y-87335408D01*
X185435659Y-87100000D01*
X185415063Y-86864592D01*
X185357819Y-86650952D01*
X185353905Y-86636344D01*
X185353904Y-86636343D01*
X185353903Y-86636337D01*
X185254035Y-86422171D01*
X185248425Y-86414158D01*
X185118494Y-86228597D01*
X184951402Y-86061506D01*
X184951396Y-86061501D01*
X184765842Y-85931575D01*
X184722217Y-85876998D01*
X184715023Y-85807500D01*
X184746546Y-85745145D01*
X184765842Y-85728425D01*
X184806768Y-85699768D01*
X184951401Y-85598495D01*
X185118495Y-85431401D01*
X185254035Y-85237830D01*
X185353903Y-85023663D01*
X185415063Y-84795408D01*
X185435659Y-84560000D01*
X185415063Y-84324592D01*
X185353903Y-84096337D01*
X185254035Y-83882171D01*
X185248425Y-83874158D01*
X185118494Y-83688597D01*
X184951402Y-83521506D01*
X184951395Y-83521501D01*
X184757834Y-83385967D01*
X184757830Y-83385965D01*
X184686064Y-83352500D01*
X184543663Y-83286097D01*
X184543659Y-83286096D01*
X184543655Y-83286094D01*
X184315413Y-83224938D01*
X184315403Y-83224936D01*
X184080001Y-83204341D01*
X184079999Y-83204341D01*
X183844596Y-83224936D01*
X183844586Y-83224938D01*
X183616344Y-83286094D01*
X183616335Y-83286098D01*
X183402171Y-83385964D01*
X183402169Y-83385965D01*
X183208597Y-83521505D01*
X183041505Y-83688597D01*
X182911575Y-83874158D01*
X182856998Y-83917783D01*
X182787500Y-83924977D01*
X182725145Y-83893454D01*
X182708425Y-83874158D01*
X182578494Y-83688597D01*
X182411402Y-83521506D01*
X182411395Y-83521501D01*
X182217834Y-83385967D01*
X182217830Y-83385965D01*
X182146064Y-83352500D01*
X182003663Y-83286097D01*
X182003659Y-83286096D01*
X182003655Y-83286094D01*
X181775413Y-83224938D01*
X181775403Y-83224936D01*
X181540001Y-83204341D01*
X181539999Y-83204341D01*
X181304596Y-83224936D01*
X181304586Y-83224938D01*
X181076344Y-83286094D01*
X181076335Y-83286098D01*
X180862171Y-83385964D01*
X180862169Y-83385965D01*
X180668597Y-83521505D01*
X180501505Y-83688597D01*
X180371575Y-83874158D01*
X180316998Y-83917783D01*
X180247500Y-83924977D01*
X180185145Y-83893454D01*
X180168425Y-83874158D01*
X180038494Y-83688597D01*
X179871402Y-83521506D01*
X179871395Y-83521501D01*
X179677834Y-83385967D01*
X179677830Y-83385965D01*
X179606064Y-83352500D01*
X179463663Y-83286097D01*
X179463659Y-83286096D01*
X179463655Y-83286094D01*
X179235413Y-83224938D01*
X179235403Y-83224936D01*
X179000001Y-83204341D01*
X178999999Y-83204341D01*
X178764596Y-83224936D01*
X178764586Y-83224938D01*
X178536344Y-83286094D01*
X178536335Y-83286098D01*
X178322171Y-83385964D01*
X178322169Y-83385965D01*
X178128597Y-83521505D01*
X177961505Y-83688597D01*
X177831575Y-83874158D01*
X177776998Y-83917783D01*
X177707500Y-83924977D01*
X177645145Y-83893454D01*
X177628425Y-83874158D01*
X177498494Y-83688597D01*
X177331402Y-83521506D01*
X177331395Y-83521501D01*
X177137834Y-83385967D01*
X177137830Y-83385965D01*
X177066064Y-83352500D01*
X176923663Y-83286097D01*
X176923659Y-83286096D01*
X176923655Y-83286094D01*
X176695413Y-83224938D01*
X176695403Y-83224936D01*
X176460001Y-83204341D01*
X176459999Y-83204341D01*
X176224596Y-83224936D01*
X176224586Y-83224938D01*
X175996344Y-83286094D01*
X175996335Y-83286098D01*
X175782171Y-83385964D01*
X175782169Y-83385965D01*
X175588597Y-83521505D01*
X175421505Y-83688597D01*
X175285965Y-83882169D01*
X175285964Y-83882171D01*
X175186098Y-84096335D01*
X175186094Y-84096344D01*
X175124938Y-84324586D01*
X175124936Y-84324596D01*
X175104341Y-84559999D01*
X149120500Y-84559999D01*
X149120500Y-77044786D01*
X160299500Y-77044786D01*
X160299500Y-78740521D01*
X160299501Y-78740527D01*
X160305908Y-78800134D01*
X160356202Y-78934979D01*
X160356206Y-78934986D01*
X160442452Y-79050195D01*
X160442455Y-79050198D01*
X160557664Y-79136444D01*
X160557671Y-79136448D01*
X160692517Y-79186742D01*
X160692516Y-79186742D01*
X160699444Y-79187486D01*
X160752127Y-79193151D01*
X162447872Y-79193150D01*
X162507483Y-79186742D01*
X162642331Y-79136447D01*
X162757546Y-79050197D01*
X162843796Y-78934982D01*
X162894091Y-78800134D01*
X162900500Y-78740524D01*
X162900499Y-77044779D01*
X162894091Y-76985168D01*
X162892163Y-76980000D01*
X162843797Y-76850322D01*
X162843793Y-76850315D01*
X162757547Y-76735106D01*
X162757544Y-76735103D01*
X162642335Y-76648857D01*
X162642328Y-76648853D01*
X162507482Y-76598559D01*
X162507483Y-76598559D01*
X162447883Y-76592152D01*
X162447881Y-76592151D01*
X162447873Y-76592151D01*
X162447864Y-76592151D01*
X160752129Y-76592151D01*
X160752123Y-76592152D01*
X160692516Y-76598559D01*
X160557671Y-76648853D01*
X160557664Y-76648857D01*
X160442455Y-76735103D01*
X160442452Y-76735106D01*
X160356206Y-76850315D01*
X160356202Y-76850322D01*
X160305908Y-76985168D01*
X160299501Y-77044767D01*
X160299501Y-77044774D01*
X160299500Y-77044786D01*
X149120500Y-77044786D01*
X149120500Y-75910943D01*
X149079577Y-75758216D01*
X149051740Y-75710000D01*
X149000524Y-75621290D01*
X149000518Y-75621282D01*
X148888717Y-75509481D01*
X148888709Y-75509475D01*
X148751790Y-75430426D01*
X148751786Y-75430424D01*
X148751784Y-75430423D01*
X148599057Y-75389500D01*
X136079057Y-75389500D01*
X135920943Y-75389500D01*
X135768216Y-75430423D01*
X135768209Y-75430426D01*
X135631290Y-75509475D01*
X135631282Y-75509481D01*
X135519481Y-75621282D01*
X135519475Y-75621290D01*
X135440426Y-75758209D01*
X135440423Y-75758216D01*
X135399500Y-75910943D01*
X126827755Y-75910943D01*
X126685842Y-75811575D01*
X126642217Y-75756998D01*
X126635023Y-75687500D01*
X126666546Y-75625145D01*
X126685842Y-75608425D01*
X126827148Y-75509481D01*
X126871401Y-75478495D01*
X127038495Y-75311401D01*
X127174035Y-75117830D01*
X127273903Y-74903663D01*
X127335063Y-74675408D01*
X127355659Y-74440000D01*
X127335063Y-74204592D01*
X127273903Y-73976337D01*
X127174035Y-73762171D01*
X127038495Y-73568599D01*
X127038494Y-73568597D01*
X126871402Y-73401506D01*
X126871395Y-73401501D01*
X126677834Y-73265967D01*
X126677830Y-73265965D01*
X126677828Y-73265964D01*
X126463663Y-73166097D01*
X126463659Y-73166096D01*
X126463655Y-73166094D01*
X126235413Y-73104938D01*
X126235403Y-73104936D01*
X126000001Y-73084341D01*
X125999999Y-73084341D01*
X125764596Y-73104936D01*
X125764586Y-73104938D01*
X125536344Y-73166094D01*
X125536335Y-73166098D01*
X125322171Y-73265964D01*
X125322169Y-73265965D01*
X125128597Y-73401505D01*
X124961505Y-73568597D01*
X124825965Y-73762169D01*
X124825964Y-73762171D01*
X124726098Y-73976335D01*
X124726094Y-73976344D01*
X124664938Y-74204586D01*
X124664936Y-74204596D01*
X124644341Y-74439999D01*
X116500500Y-74439999D01*
X116500500Y-70003051D01*
X116500649Y-69996967D01*
X116506471Y-69878456D01*
X118145500Y-69878456D01*
X118145500Y-70121543D01*
X118145501Y-70121559D01*
X118177230Y-70362569D01*
X118240149Y-70597386D01*
X118333175Y-70821972D01*
X118333182Y-70821987D01*
X118454730Y-71032516D01*
X118602722Y-71225380D01*
X118602730Y-71225389D01*
X118774611Y-71397270D01*
X118774619Y-71397277D01*
X118967483Y-71545269D01*
X119178012Y-71666817D01*
X119178027Y-71666824D01*
X119294171Y-71714932D01*
X119402612Y-71759850D01*
X119637429Y-71822769D01*
X119878450Y-71854500D01*
X119878457Y-71854500D01*
X120121543Y-71854500D01*
X120121550Y-71854500D01*
X120362571Y-71822769D01*
X120597388Y-71759850D01*
X120821984Y-71666819D01*
X121032516Y-71545269D01*
X121225380Y-71397278D01*
X121225384Y-71397273D01*
X121225389Y-71397270D01*
X121397270Y-71225389D01*
X121397273Y-71225384D01*
X121397278Y-71225380D01*
X121545269Y-71032516D01*
X121666819Y-70821984D01*
X121759850Y-70597388D01*
X121822769Y-70362571D01*
X121854500Y-70121550D01*
X121854500Y-69878456D01*
X184145500Y-69878456D01*
X184145500Y-70121543D01*
X184145501Y-70121559D01*
X184177230Y-70362569D01*
X184240149Y-70597386D01*
X184333175Y-70821972D01*
X184333182Y-70821987D01*
X184454730Y-71032516D01*
X184602722Y-71225380D01*
X184602730Y-71225389D01*
X184774611Y-71397270D01*
X184774619Y-71397277D01*
X184967483Y-71545269D01*
X185178012Y-71666817D01*
X185178027Y-71666824D01*
X185294171Y-71714932D01*
X185402612Y-71759850D01*
X185637429Y-71822769D01*
X185878450Y-71854500D01*
X185878457Y-71854500D01*
X186121543Y-71854500D01*
X186121550Y-71854500D01*
X186362571Y-71822769D01*
X186597388Y-71759850D01*
X186821984Y-71666819D01*
X187032516Y-71545269D01*
X187225380Y-71397278D01*
X187225384Y-71397273D01*
X187225389Y-71397270D01*
X187397270Y-71225389D01*
X187397273Y-71225384D01*
X187397278Y-71225380D01*
X187545269Y-71032516D01*
X187666819Y-70821984D01*
X187759850Y-70597388D01*
X187822769Y-70362571D01*
X187854500Y-70121550D01*
X187854500Y-69878450D01*
X187822769Y-69637429D01*
X187759850Y-69402612D01*
X187666819Y-69178016D01*
X187666817Y-69178012D01*
X187545269Y-68967483D01*
X187397277Y-68774619D01*
X187397270Y-68774611D01*
X187225389Y-68602730D01*
X187225380Y-68602722D01*
X187032516Y-68454730D01*
X186821987Y-68333182D01*
X186821972Y-68333175D01*
X186597386Y-68240149D01*
X186362569Y-68177230D01*
X186121559Y-68145501D01*
X186121556Y-68145500D01*
X186121550Y-68145500D01*
X185878450Y-68145500D01*
X185878444Y-68145500D01*
X185878440Y-68145501D01*
X185637430Y-68177230D01*
X185402613Y-68240149D01*
X185178027Y-68333175D01*
X185178012Y-68333182D01*
X184967483Y-68454730D01*
X184774619Y-68602722D01*
X184602722Y-68774619D01*
X184454730Y-68967483D01*
X184333182Y-69178012D01*
X184333175Y-69178027D01*
X184240149Y-69402613D01*
X184177230Y-69637430D01*
X184145501Y-69878440D01*
X184145500Y-69878456D01*
X121854500Y-69878456D01*
X121854500Y-69878450D01*
X121822769Y-69637429D01*
X121759850Y-69402612D01*
X121666819Y-69178016D01*
X121666817Y-69178012D01*
X121545269Y-68967483D01*
X121397277Y-68774619D01*
X121397270Y-68774611D01*
X121225389Y-68602730D01*
X121225380Y-68602722D01*
X121032516Y-68454730D01*
X120821987Y-68333182D01*
X120821972Y-68333175D01*
X120597386Y-68240149D01*
X120362569Y-68177230D01*
X120121559Y-68145501D01*
X120121556Y-68145500D01*
X120121550Y-68145500D01*
X119878450Y-68145500D01*
X119878444Y-68145500D01*
X119878440Y-68145501D01*
X119637430Y-68177230D01*
X119402613Y-68240149D01*
X119178027Y-68333175D01*
X119178012Y-68333182D01*
X118967483Y-68454730D01*
X118774619Y-68602722D01*
X118602722Y-68774619D01*
X118454730Y-68967483D01*
X118333182Y-69178012D01*
X118333175Y-69178027D01*
X118240149Y-69402613D01*
X118177230Y-69637430D01*
X118145501Y-69878440D01*
X118145500Y-69878456D01*
X116506471Y-69878456D01*
X116517052Y-69663072D01*
X116518245Y-69650962D01*
X116520252Y-69637429D01*
X116566849Y-69323296D01*
X116569218Y-69311385D01*
X116649710Y-68990043D01*
X116653240Y-68978411D01*
X116657150Y-68967483D01*
X116764835Y-68666525D01*
X116769476Y-68655318D01*
X116911124Y-68355828D01*
X116916840Y-68345136D01*
X117087145Y-68060998D01*
X117093888Y-68050905D01*
X117291232Y-67784818D01*
X117298935Y-67775433D01*
X117521405Y-67529975D01*
X117529975Y-67521405D01*
X117775433Y-67298935D01*
X117784818Y-67291232D01*
X118050905Y-67093888D01*
X118060998Y-67087145D01*
X118345136Y-66916840D01*
X118355828Y-66911124D01*
X118655318Y-66769476D01*
X118666525Y-66764835D01*
X118978412Y-66653239D01*
X118990043Y-66649710D01*
X119311385Y-66569218D01*
X119323296Y-66566849D01*
X119650962Y-66518244D01*
X119663068Y-66517052D01*
X119996967Y-66500648D01*
X120003051Y-66500500D01*
X120065892Y-66500500D01*
X185934108Y-66500500D01*
X185996949Y-66500500D01*
X186003032Y-66500648D01*
G37*
%TD.AperFunction*%
%TD*%
M02*
