%TF.GenerationSoftware,KiCad,Pcbnew,8.0.3*%
%TF.CreationDate,2024-07-12T14:04:41+12:00*%
%TF.ProjectId,nixie_board,6e697869-655f-4626-9f61-72642e6b6963,0.1.2*%
%TF.SameCoordinates,Original*%
%TF.FileFunction,Soldermask,Top*%
%TF.FilePolarity,Negative*%
%FSLAX46Y46*%
G04 Gerber Fmt 4.6, Leading zero omitted, Abs format (unit mm)*
G04 Created by KiCad (PCBNEW 8.0.3) date 2024-07-12 14:04:41*
%MOMM*%
%LPD*%
G01*
G04 APERTURE LIST*
G04 Aperture macros list*
%AMRoundRect*
0 Rectangle with rounded corners*
0 $1 Rounding radius*
0 $2 $3 $4 $5 $6 $7 $8 $9 X,Y pos of 4 corners*
0 Add a 4 corners polygon primitive as box body*
4,1,4,$2,$3,$4,$5,$6,$7,$8,$9,$2,$3,0*
0 Add four circle primitives for the rounded corners*
1,1,$1+$1,$2,$3*
1,1,$1+$1,$4,$5*
1,1,$1+$1,$6,$7*
1,1,$1+$1,$8,$9*
0 Add four rect primitives between the rounded corners*
20,1,$1+$1,$2,$3,$4,$5,0*
20,1,$1+$1,$4,$5,$6,$7,0*
20,1,$1+$1,$6,$7,$8,$9,0*
20,1,$1+$1,$8,$9,$2,$3,0*%
G04 Aperture macros list end*
%ADD10RoundRect,0.200000X-0.200000X-0.275000X0.200000X-0.275000X0.200000X0.275000X-0.200000X0.275000X0*%
%ADD11RoundRect,0.200000X0.200000X0.275000X-0.200000X0.275000X-0.200000X-0.275000X0.200000X-0.275000X0*%
%ADD12RoundRect,0.150000X-0.587500X-0.150000X0.587500X-0.150000X0.587500X0.150000X-0.587500X0.150000X0*%
%ADD13RoundRect,0.250000X0.625000X-0.312500X0.625000X0.312500X-0.625000X0.312500X-0.625000X-0.312500X0*%
%ADD14C,3.200000*%
%ADD15RoundRect,0.250000X-0.625000X0.312500X-0.625000X-0.312500X0.625000X-0.312500X0.625000X0.312500X0*%
%ADD16RoundRect,0.150000X0.587500X0.150000X-0.587500X0.150000X-0.587500X-0.150000X0.587500X-0.150000X0*%
%ADD17C,1.000000*%
%ADD18C,3.000000*%
%ADD19RoundRect,0.150000X0.825000X0.150000X-0.825000X0.150000X-0.825000X-0.150000X0.825000X-0.150000X0*%
%ADD20RoundRect,0.150000X0.150000X-0.825000X0.150000X0.825000X-0.150000X0.825000X-0.150000X-0.825000X0*%
%ADD21RoundRect,0.150000X-0.825000X-0.150000X0.825000X-0.150000X0.825000X0.150000X-0.825000X0.150000X0*%
%ADD22RoundRect,0.250000X-0.600000X0.600000X-0.600000X-0.600000X0.600000X-0.600000X0.600000X0.600000X0*%
%ADD23C,1.700000*%
G04 APERTURE END LIST*
D10*
%TO.C,R3*%
X54575000Y-86600000D03*
X56225000Y-86600000D03*
%TD*%
D11*
%TO.C,R32*%
X97387500Y-98950000D03*
X95737500Y-98950000D03*
%TD*%
D12*
%TO.C,Q14*%
X92062500Y-93050000D03*
X92062500Y-94950000D03*
X93937500Y-94000000D03*
%TD*%
D13*
%TO.C,R37*%
X137860000Y-95462500D03*
X137860000Y-92537500D03*
%TD*%
%TO.C,R23*%
X213000000Y-66462500D03*
X213000000Y-63537500D03*
%TD*%
D10*
%TO.C,R10*%
X54675000Y-66600000D03*
X56325000Y-66600000D03*
%TD*%
D14*
%TO.C,H3*%
X50000000Y-112000000D03*
%TD*%
D15*
%TO.C,R50*%
X207490000Y-94057500D03*
X207490000Y-96982500D03*
%TD*%
D10*
%TO.C,R9*%
X54675000Y-71600000D03*
X56325000Y-71600000D03*
%TD*%
D11*
%TO.C,R28*%
X73387500Y-98950000D03*
X71737500Y-98950000D03*
%TD*%
D16*
%TO.C,Q15*%
X93937500Y-98950000D03*
X93937500Y-97050000D03*
X92062500Y-98000000D03*
%TD*%
D12*
%TO.C,Q11*%
X58000000Y-91650000D03*
X58000000Y-93550000D03*
X59875000Y-92600000D03*
%TD*%
D13*
%TO.C,R17*%
X162000000Y-66462500D03*
X162000000Y-63537500D03*
%TD*%
D11*
%TO.C,R22*%
X63300000Y-91600000D03*
X61650000Y-91600000D03*
%TD*%
D13*
%TO.C,R33*%
X113860000Y-95462500D03*
X113860000Y-92537500D03*
%TD*%
D17*
%TO.C,N1*%
X69000000Y-80000000D03*
D18*
X73000000Y-88000000D03*
X74750000Y-84500000D03*
X74750000Y-80000000D03*
X74750000Y-75500000D03*
X73000000Y-72000000D03*
X69000000Y-71000000D03*
X65000000Y-72000000D03*
X63250000Y-75500000D03*
X63250000Y-80000000D03*
X63250000Y-84500000D03*
X65000000Y-88000000D03*
X69000000Y-89000000D03*
%TD*%
D15*
%TO.C,R26*%
X63490000Y-94057500D03*
X63490000Y-96982500D03*
%TD*%
D19*
%TO.C,U1*%
X251475000Y-109445000D03*
X251475000Y-108175000D03*
X251475000Y-106905000D03*
X251475000Y-105635000D03*
X251475000Y-104365000D03*
X251475000Y-103095000D03*
X251475000Y-101825000D03*
X251475000Y-100555000D03*
X246525000Y-100555000D03*
X246525000Y-101825000D03*
X246525000Y-103095000D03*
X246525000Y-104365000D03*
X246525000Y-105635000D03*
X246525000Y-106905000D03*
X246525000Y-108175000D03*
X246525000Y-109445000D03*
%TD*%
D15*
%TO.C,R54*%
X231490000Y-94057500D03*
X231490000Y-96982500D03*
%TD*%
D13*
%TO.C,R51*%
X217000000Y-93462500D03*
X217000000Y-90537500D03*
%TD*%
D12*
%TO.C,Q18*%
X140062500Y-93050000D03*
X140062500Y-94950000D03*
X141937500Y-94000000D03*
%TD*%
D13*
%TO.C,R53*%
X233860000Y-95462500D03*
X233860000Y-92537500D03*
%TD*%
D12*
%TO.C,Q2*%
X58000000Y-86600000D03*
X58000000Y-88500000D03*
X59875000Y-87550000D03*
%TD*%
D13*
%TO.C,R21*%
X189000000Y-66462500D03*
X189000000Y-63537500D03*
%TD*%
D14*
%TO.C,H4*%
X256000000Y-112000000D03*
%TD*%
D10*
%TO.C,R4*%
X54675000Y-81600000D03*
X56325000Y-81600000D03*
%TD*%
D13*
%TO.C,R55*%
X241000000Y-93462500D03*
X241000000Y-90537500D03*
%TD*%
D12*
%TO.C,Q22*%
X188062500Y-93050000D03*
X188062500Y-94950000D03*
X189937500Y-94000000D03*
%TD*%
D17*
%TO.C,N8*%
X237000000Y-80000000D03*
D18*
X241000000Y-88000000D03*
X242750000Y-84500000D03*
X242750000Y-80000000D03*
X242750000Y-75500000D03*
X241000000Y-72000000D03*
X237000000Y-71000000D03*
X233000000Y-72000000D03*
X231250000Y-75500000D03*
X231250000Y-80000000D03*
X231250000Y-84500000D03*
X233000000Y-88000000D03*
X237000000Y-89000000D03*
%TD*%
D14*
%TO.C,H2*%
X256000000Y-65000000D03*
%TD*%
D17*
%TO.C,N2*%
X93000000Y-80000000D03*
D18*
X97000000Y-88000000D03*
X98750000Y-84500000D03*
X98750000Y-80000000D03*
X98750000Y-75500000D03*
X97000000Y-72000000D03*
X93000000Y-71000000D03*
X89000000Y-72000000D03*
X87250000Y-75500000D03*
X87250000Y-80000000D03*
X87250000Y-84500000D03*
X89000000Y-88000000D03*
X93000000Y-89000000D03*
%TD*%
D13*
%TO.C,R31*%
X97000000Y-93462500D03*
X97000000Y-90537500D03*
%TD*%
D17*
%TO.C,N3*%
X117000000Y-80000000D03*
D18*
X121000000Y-88000000D03*
X122750000Y-84500000D03*
X122750000Y-80000000D03*
X122750000Y-75500000D03*
X121000000Y-72000000D03*
X117000000Y-71000000D03*
X113000000Y-72000000D03*
X111250000Y-75500000D03*
X111250000Y-80000000D03*
X111250000Y-84500000D03*
X113000000Y-88000000D03*
X117000000Y-89000000D03*
%TD*%
D16*
%TO.C,Q21*%
X165937500Y-98950000D03*
X165937500Y-97050000D03*
X164062500Y-98000000D03*
%TD*%
D13*
%TO.C,R41*%
X161860000Y-95462500D03*
X161860000Y-92537500D03*
%TD*%
D17*
%TO.C,N4*%
X141000000Y-80000000D03*
D18*
X145000000Y-88000000D03*
X146750000Y-84500000D03*
X146750000Y-80000000D03*
X146750000Y-75500000D03*
X145000000Y-72000000D03*
X141000000Y-71000000D03*
X137000000Y-72000000D03*
X135250000Y-75500000D03*
X135250000Y-80000000D03*
X135250000Y-84500000D03*
X137000000Y-88000000D03*
X141000000Y-89000000D03*
%TD*%
D11*
%TO.C,R52*%
X217387500Y-98950000D03*
X215737500Y-98950000D03*
%TD*%
D10*
%TO.C,R8*%
X54675000Y-76600000D03*
X56325000Y-76600000D03*
%TD*%
D12*
%TO.C,Q4*%
X58062500Y-76550000D03*
X58062500Y-78450000D03*
X59937500Y-77500000D03*
%TD*%
D13*
%TO.C,R16*%
X153000000Y-66462500D03*
X153000000Y-63537500D03*
%TD*%
D16*
%TO.C,Q19*%
X141937500Y-98950000D03*
X141937500Y-97050000D03*
X140062500Y-98000000D03*
%TD*%
D14*
%TO.C,H1*%
X50000000Y-65000000D03*
%TD*%
D16*
%TO.C,Q23*%
X189937500Y-98950000D03*
X189937500Y-97050000D03*
X188062500Y-98000000D03*
%TD*%
D15*
%TO.C,R38*%
X135490000Y-94057500D03*
X135490000Y-96982500D03*
%TD*%
D13*
%TO.C,R18*%
X168000000Y-66462500D03*
X168000000Y-63537500D03*
%TD*%
D11*
%TO.C,R44*%
X169387500Y-98950000D03*
X167737500Y-98950000D03*
%TD*%
D20*
%TO.C,U2*%
X148555000Y-102475000D03*
X149825000Y-102475000D03*
X151095000Y-102475000D03*
X152365000Y-102475000D03*
X153635000Y-102475000D03*
X154905000Y-102475000D03*
X156175000Y-102475000D03*
X157445000Y-102475000D03*
X157445000Y-97525000D03*
X156175000Y-97525000D03*
X154905000Y-97525000D03*
X153635000Y-97525000D03*
X152365000Y-97525000D03*
X151095000Y-97525000D03*
X149825000Y-97525000D03*
X148555000Y-97525000D03*
%TD*%
D13*
%TO.C,R27*%
X73000000Y-93462500D03*
X73000000Y-90537500D03*
%TD*%
D11*
%TO.C,R15*%
X252325000Y-81000000D03*
X250675000Y-81000000D03*
%TD*%
%TO.C,R2*%
X252325000Y-91000000D03*
X250675000Y-91000000D03*
%TD*%
D13*
%TO.C,R47*%
X193000000Y-93462500D03*
X193000000Y-90537500D03*
%TD*%
D16*
%TO.C,Q17*%
X117937500Y-98950000D03*
X117937500Y-97050000D03*
X116062500Y-98000000D03*
%TD*%
D12*
%TO.C,Q16*%
X116062500Y-93050000D03*
X116062500Y-94950000D03*
X117937500Y-94000000D03*
%TD*%
D11*
%TO.C,R13*%
X252325000Y-71000000D03*
X250675000Y-71000000D03*
%TD*%
D13*
%TO.C,R7*%
X117000000Y-66462500D03*
X117000000Y-63537500D03*
%TD*%
D11*
%TO.C,R19*%
X252425000Y-86000000D03*
X250775000Y-86000000D03*
%TD*%
D13*
%TO.C,R25*%
X65860000Y-95462500D03*
X65860000Y-92537500D03*
%TD*%
D11*
%TO.C,R40*%
X145387500Y-98950000D03*
X143737500Y-98950000D03*
%TD*%
%TO.C,R36*%
X121387500Y-98950000D03*
X119737500Y-98950000D03*
%TD*%
D13*
%TO.C,R49*%
X209860000Y-95462500D03*
X209860000Y-92537500D03*
%TD*%
D12*
%TO.C,Q26*%
X236062500Y-93050000D03*
X236062500Y-94950000D03*
X237937500Y-94000000D03*
%TD*%
%TO.C,Q3*%
X58062500Y-81550000D03*
X58062500Y-83450000D03*
X59937500Y-82500000D03*
%TD*%
D13*
%TO.C,R12*%
X144000000Y-66462500D03*
X144000000Y-63537500D03*
%TD*%
%TO.C,R39*%
X145000000Y-93462500D03*
X145000000Y-90537500D03*
%TD*%
D12*
%TO.C,Q20*%
X164062500Y-93050000D03*
X164062500Y-94950000D03*
X165937500Y-94000000D03*
%TD*%
D11*
%TO.C,R56*%
X241387500Y-98950000D03*
X239737500Y-98950000D03*
%TD*%
D17*
%TO.C,N7*%
X213000000Y-80000000D03*
D18*
X217000000Y-88000000D03*
X218750000Y-84500000D03*
X218750000Y-80000000D03*
X218750000Y-75500000D03*
X217000000Y-72000000D03*
X213000000Y-71000000D03*
X209000000Y-72000000D03*
X207250000Y-75500000D03*
X207250000Y-80000000D03*
X207250000Y-84500000D03*
X209000000Y-88000000D03*
X213000000Y-89000000D03*
%TD*%
D16*
%TO.C,Q9*%
X248937500Y-80950000D03*
X248937500Y-79050000D03*
X247062500Y-80000000D03*
%TD*%
%TO.C,Q8*%
X249000000Y-76000000D03*
X249000000Y-74100000D03*
X247125000Y-75050000D03*
%TD*%
D15*
%TO.C,R30*%
X87490000Y-94057500D03*
X87490000Y-96982500D03*
%TD*%
%TO.C,R34*%
X111490000Y-94057500D03*
X111490000Y-96982500D03*
%TD*%
D10*
%TO.C,R20*%
X54575000Y-91700000D03*
X56225000Y-91700000D03*
%TD*%
D17*
%TO.C,N5*%
X165000000Y-80000000D03*
D18*
X169000000Y-88000000D03*
X170750000Y-84500000D03*
X170750000Y-80000000D03*
X170750000Y-75500000D03*
X169000000Y-72000000D03*
X165000000Y-71000000D03*
X161000000Y-72000000D03*
X159250000Y-75500000D03*
X159250000Y-80000000D03*
X159250000Y-84500000D03*
X161000000Y-88000000D03*
X165000000Y-89000000D03*
%TD*%
D13*
%TO.C,R43*%
X169000000Y-93462500D03*
X169000000Y-90537500D03*
%TD*%
D12*
%TO.C,Q12*%
X68062500Y-93050000D03*
X68062500Y-94950000D03*
X69937500Y-94000000D03*
%TD*%
%TO.C,Q6*%
X58062500Y-66550000D03*
X58062500Y-68450000D03*
X59937500Y-67500000D03*
%TD*%
D13*
%TO.C,R35*%
X121000000Y-93462500D03*
X121000000Y-90537500D03*
%TD*%
D16*
%TO.C,Q25*%
X213937500Y-98950000D03*
X213937500Y-97050000D03*
X212062500Y-98000000D03*
%TD*%
D11*
%TO.C,R48*%
X193387500Y-98950000D03*
X191737500Y-98950000D03*
%TD*%
D16*
%TO.C,Q7*%
X248937500Y-70950000D03*
X248937500Y-69050000D03*
X247062500Y-70000000D03*
%TD*%
%TO.C,Q13*%
X69937500Y-98950000D03*
X69937500Y-97050000D03*
X68062500Y-98000000D03*
%TD*%
D13*
%TO.C,R5*%
X69000000Y-66462500D03*
X69000000Y-63537500D03*
%TD*%
%TO.C,R24*%
X237000000Y-66462500D03*
X237000000Y-63537500D03*
%TD*%
D10*
%TO.C,R1*%
X56175000Y-111500000D03*
X57825000Y-111500000D03*
%TD*%
D13*
%TO.C,R11*%
X138000000Y-66462500D03*
X138000000Y-63537500D03*
%TD*%
D12*
%TO.C,Q5*%
X58062500Y-71550000D03*
X58062500Y-73450000D03*
X59937500Y-72500000D03*
%TD*%
D16*
%TO.C,Q10*%
X249000000Y-86000000D03*
X249000000Y-84100000D03*
X247125000Y-85050000D03*
%TD*%
D13*
%TO.C,R45*%
X185860000Y-95462500D03*
X185860000Y-92537500D03*
%TD*%
D16*
%TO.C,Q1*%
X248937500Y-90950000D03*
X248937500Y-89050000D03*
X247062500Y-90000000D03*
%TD*%
D21*
%TO.C,U3*%
X54525000Y-100555000D03*
X54525000Y-101825000D03*
X54525000Y-103095000D03*
X54525000Y-104365000D03*
X54525000Y-105635000D03*
X54525000Y-106905000D03*
X54525000Y-108175000D03*
X54525000Y-109445000D03*
X59475000Y-109445000D03*
X59475000Y-108175000D03*
X59475000Y-106905000D03*
X59475000Y-105635000D03*
X59475000Y-104365000D03*
X59475000Y-103095000D03*
X59475000Y-101825000D03*
X59475000Y-100555000D03*
%TD*%
D16*
%TO.C,Q27*%
X237937500Y-98950000D03*
X237937500Y-97050000D03*
X236062500Y-98000000D03*
%TD*%
D13*
%TO.C,R29*%
X89860000Y-95462500D03*
X89860000Y-92537500D03*
%TD*%
D12*
%TO.C,Q24*%
X212062500Y-93050000D03*
X212062500Y-94950000D03*
X213937500Y-94000000D03*
%TD*%
D13*
%TO.C,R6*%
X93000000Y-66462500D03*
X93000000Y-63537500D03*
%TD*%
D17*
%TO.C,N6*%
X189000000Y-80000000D03*
D18*
X193000000Y-88000000D03*
X194750000Y-84500000D03*
X194750000Y-80000000D03*
X194750000Y-75500000D03*
X193000000Y-72000000D03*
X189000000Y-71000000D03*
X185000000Y-72000000D03*
X183250000Y-75500000D03*
X183250000Y-80000000D03*
X183250000Y-84500000D03*
X185000000Y-88000000D03*
X189000000Y-89000000D03*
%TD*%
D15*
%TO.C,R46*%
X183490000Y-94057500D03*
X183490000Y-96982500D03*
%TD*%
%TO.C,R42*%
X159490000Y-94057500D03*
X159490000Y-96982500D03*
%TD*%
D11*
%TO.C,R14*%
X252425000Y-76000000D03*
X250775000Y-76000000D03*
%TD*%
D22*
%TO.C,J1*%
X231920000Y-104000000D03*
D23*
X231920000Y-106540000D03*
X234460000Y-104000000D03*
X234460000Y-106540000D03*
X237000000Y-104000000D03*
X237000000Y-106540000D03*
X239540000Y-104000000D03*
X239540000Y-106540000D03*
X242080000Y-104000000D03*
X242080000Y-106540000D03*
%TD*%
M02*
