%TF.GenerationSoftware,KiCad,Pcbnew,8.0.3*%
%TF.CreationDate,2024-07-12T14:04:41+12:00*%
%TF.ProjectId,nixie_board,6e697869-655f-4626-9f61-72642e6b6963,0.1.2*%
%TF.SameCoordinates,Original*%
%TF.FileFunction,Soldermask,Bot*%
%TF.FilePolarity,Negative*%
%FSLAX46Y46*%
G04 Gerber Fmt 4.6, Leading zero omitted, Abs format (unit mm)*
G04 Created by KiCad (PCBNEW 8.0.3) date 2024-07-12 14:04:41*
%MOMM*%
%LPD*%
G01*
G04 APERTURE LIST*
G04 Aperture macros list*
%AMRoundRect*
0 Rectangle with rounded corners*
0 $1 Rounding radius*
0 $2 $3 $4 $5 $6 $7 $8 $9 X,Y pos of 4 corners*
0 Add a 4 corners polygon primitive as box body*
4,1,4,$2,$3,$4,$5,$6,$7,$8,$9,$2,$3,0*
0 Add four circle primitives for the rounded corners*
1,1,$1+$1,$2,$3*
1,1,$1+$1,$4,$5*
1,1,$1+$1,$6,$7*
1,1,$1+$1,$8,$9*
0 Add four rect primitives between the rounded corners*
20,1,$1+$1,$2,$3,$4,$5,0*
20,1,$1+$1,$4,$5,$6,$7,0*
20,1,$1+$1,$6,$7,$8,$9,0*
20,1,$1+$1,$8,$9,$2,$3,0*%
G04 Aperture macros list end*
%ADD10C,3.200000*%
%ADD11C,1.000000*%
%ADD12C,3.000000*%
%ADD13RoundRect,0.250000X-0.600000X0.600000X-0.600000X-0.600000X0.600000X-0.600000X0.600000X0.600000X0*%
%ADD14C,1.700000*%
G04 APERTURE END LIST*
D10*
%TO.C,H3*%
X50000000Y-112000000D03*
%TD*%
D11*
%TO.C,N1*%
X69000000Y-80000000D03*
D12*
X73000000Y-88000000D03*
X74750000Y-84500000D03*
X74750000Y-80000000D03*
X74750000Y-75500000D03*
X73000000Y-72000000D03*
X69000000Y-71000000D03*
X65000000Y-72000000D03*
X63250000Y-75500000D03*
X63250000Y-80000000D03*
X63250000Y-84500000D03*
X65000000Y-88000000D03*
X69000000Y-89000000D03*
%TD*%
D10*
%TO.C,H4*%
X256000000Y-112000000D03*
%TD*%
D11*
%TO.C,N8*%
X237000000Y-80000000D03*
D12*
X241000000Y-88000000D03*
X242750000Y-84500000D03*
X242750000Y-80000000D03*
X242750000Y-75500000D03*
X241000000Y-72000000D03*
X237000000Y-71000000D03*
X233000000Y-72000000D03*
X231250000Y-75500000D03*
X231250000Y-80000000D03*
X231250000Y-84500000D03*
X233000000Y-88000000D03*
X237000000Y-89000000D03*
%TD*%
D10*
%TO.C,H2*%
X256000000Y-65000000D03*
%TD*%
D11*
%TO.C,N2*%
X93000000Y-80000000D03*
D12*
X97000000Y-88000000D03*
X98750000Y-84500000D03*
X98750000Y-80000000D03*
X98750000Y-75500000D03*
X97000000Y-72000000D03*
X93000000Y-71000000D03*
X89000000Y-72000000D03*
X87250000Y-75500000D03*
X87250000Y-80000000D03*
X87250000Y-84500000D03*
X89000000Y-88000000D03*
X93000000Y-89000000D03*
%TD*%
D11*
%TO.C,N3*%
X117000000Y-80000000D03*
D12*
X121000000Y-88000000D03*
X122750000Y-84500000D03*
X122750000Y-80000000D03*
X122750000Y-75500000D03*
X121000000Y-72000000D03*
X117000000Y-71000000D03*
X113000000Y-72000000D03*
X111250000Y-75500000D03*
X111250000Y-80000000D03*
X111250000Y-84500000D03*
X113000000Y-88000000D03*
X117000000Y-89000000D03*
%TD*%
D11*
%TO.C,N4*%
X141000000Y-80000000D03*
D12*
X145000000Y-88000000D03*
X146750000Y-84500000D03*
X146750000Y-80000000D03*
X146750000Y-75500000D03*
X145000000Y-72000000D03*
X141000000Y-71000000D03*
X137000000Y-72000000D03*
X135250000Y-75500000D03*
X135250000Y-80000000D03*
X135250000Y-84500000D03*
X137000000Y-88000000D03*
X141000000Y-89000000D03*
%TD*%
D10*
%TO.C,H1*%
X50000000Y-65000000D03*
%TD*%
D11*
%TO.C,N7*%
X213000000Y-80000000D03*
D12*
X217000000Y-88000000D03*
X218750000Y-84500000D03*
X218750000Y-80000000D03*
X218750000Y-75500000D03*
X217000000Y-72000000D03*
X213000000Y-71000000D03*
X209000000Y-72000000D03*
X207250000Y-75500000D03*
X207250000Y-80000000D03*
X207250000Y-84500000D03*
X209000000Y-88000000D03*
X213000000Y-89000000D03*
%TD*%
D11*
%TO.C,N5*%
X165000000Y-80000000D03*
D12*
X169000000Y-88000000D03*
X170750000Y-84500000D03*
X170750000Y-80000000D03*
X170750000Y-75500000D03*
X169000000Y-72000000D03*
X165000000Y-71000000D03*
X161000000Y-72000000D03*
X159250000Y-75500000D03*
X159250000Y-80000000D03*
X159250000Y-84500000D03*
X161000000Y-88000000D03*
X165000000Y-89000000D03*
%TD*%
D11*
%TO.C,N6*%
X189000000Y-80000000D03*
D12*
X193000000Y-88000000D03*
X194750000Y-84500000D03*
X194750000Y-80000000D03*
X194750000Y-75500000D03*
X193000000Y-72000000D03*
X189000000Y-71000000D03*
X185000000Y-72000000D03*
X183250000Y-75500000D03*
X183250000Y-80000000D03*
X183250000Y-84500000D03*
X185000000Y-88000000D03*
X189000000Y-89000000D03*
%TD*%
D13*
%TO.C,J1*%
X231920000Y-104000000D03*
D14*
X231920000Y-106540000D03*
X234460000Y-104000000D03*
X234460000Y-106540000D03*
X237000000Y-104000000D03*
X237000000Y-106540000D03*
X239540000Y-104000000D03*
X239540000Y-106540000D03*
X242080000Y-104000000D03*
X242080000Y-106540000D03*
%TD*%
M02*
