%TF.GenerationSoftware,KiCad,Pcbnew,8.0.3*%
%TF.CreationDate,2024-06-16T18:09:26+12:00*%
%TF.ProjectId,nixie_board,6e697869-655f-4626-9f61-72642e6b6963,0.1.1*%
%TF.SameCoordinates,Original*%
%TF.FileFunction,Drillmap*%
%TF.FilePolarity,Positive*%
%FSLAX45Y45*%
G04 Gerber Fmt 4.5, Leading zero omitted, Abs format (unit mm)*
G04 Created by KiCad (PCBNEW 8.0.3) date 2024-06-16 18:09:26*
%MOMM*%
%LPD*%
G01*
G04 APERTURE LIST*
%ADD10C,0.050000*%
%ADD11C,0.200000*%
%ADD12C,0.100000*%
%ADD13C,0.168000*%
G04 APERTURE END LIST*
D10*
X4650000Y-6500000D02*
X4650000Y-11200000D01*
X25600000Y-6150000D02*
X5000000Y-6150000D01*
X5000000Y-11550000D02*
G75*
G02*
X4650000Y-11200000I0J350000D01*
G01*
X25950000Y-11200000D02*
G75*
G02*
X25600000Y-11550000I-350000J0D01*
G01*
X25600000Y-6150000D02*
G75*
G02*
X25950000Y-6500000I0J-350000D01*
G01*
X25600000Y-11550000D02*
X5000000Y-11550000D01*
X25950000Y-11200000D02*
X25950000Y-6500000D01*
X4650000Y-6500000D02*
G75*
G02*
X5000000Y-6150000I350000J0D01*
G01*
D11*
D12*
X5365000Y-9335000D02*
X5395000Y-9365000D01*
X5395000Y-9335000D02*
X5365000Y-9365000D01*
X5565000Y-10925000D02*
X5595000Y-10955000D01*
X5595000Y-10925000D02*
X5565000Y-10955000D01*
X5675000Y-8835000D02*
X5705000Y-8865000D01*
X5705000Y-8835000D02*
X5675000Y-8865000D01*
X5685000Y-6825000D02*
X5715000Y-6855000D01*
X5715000Y-6825000D02*
X5685000Y-6855000D01*
X5685000Y-7325000D02*
X5715000Y-7355000D01*
X5715000Y-7325000D02*
X5685000Y-7355000D01*
X5685000Y-7825000D02*
X5715000Y-7855000D01*
X5715000Y-7825000D02*
X5685000Y-7855000D01*
X5685000Y-8325000D02*
X5715000Y-8355000D01*
X5715000Y-8325000D02*
X5685000Y-8355000D01*
X6677000Y-6962000D02*
X6707000Y-6992000D01*
X6707000Y-6962000D02*
X6677000Y-6992000D01*
X6865000Y-9685000D02*
X6895000Y-9715000D01*
X6895000Y-9685000D02*
X6865000Y-9715000D01*
X9265000Y-9685000D02*
X9295000Y-9715000D01*
X9295000Y-9685000D02*
X9265000Y-9715000D01*
X9480000Y-6791000D02*
X9510000Y-6821000D01*
X9510000Y-6791000D02*
X9480000Y-6821000D01*
X11488000Y-6800000D02*
X11518000Y-6830000D01*
X11518000Y-6800000D02*
X11488000Y-6830000D01*
X11665000Y-9685000D02*
X11695000Y-9715000D01*
X11695000Y-9685000D02*
X11665000Y-9715000D01*
X13219000Y-6779000D02*
X13249000Y-6809000D01*
X13249000Y-6779000D02*
X13219000Y-6809000D01*
X13887000Y-6805000D02*
X13917000Y-6835000D01*
X13917000Y-6805000D02*
X13887000Y-6835000D01*
X14065000Y-9685000D02*
X14095000Y-9715000D01*
X14095000Y-9685000D02*
X14065000Y-9715000D01*
X14775000Y-10641500D02*
X14805000Y-10671500D01*
X14805000Y-10641500D02*
X14775000Y-10671500D01*
X14776000Y-9742000D02*
X14806000Y-9772000D01*
X14806000Y-9742000D02*
X14776000Y-9772000D01*
X15225000Y-9875000D02*
X15255000Y-9905000D01*
X15255000Y-9875000D02*
X15225000Y-9905000D01*
X15235000Y-10985000D02*
X15265000Y-11015000D01*
X15265000Y-10985000D02*
X15235000Y-11015000D01*
X15285000Y-6798500D02*
X15315000Y-6828500D01*
X15315000Y-6798500D02*
X15285000Y-6828500D01*
X15335000Y-11085000D02*
X15365000Y-11115000D01*
X15365000Y-11085000D02*
X15335000Y-11115000D01*
X15355000Y-9875000D02*
X15385000Y-9905000D01*
X15385000Y-9875000D02*
X15355000Y-9905000D01*
X15485000Y-9885000D02*
X15515000Y-9915000D01*
X15515000Y-9885000D02*
X15485000Y-9915000D01*
X15485000Y-11185000D02*
X15515000Y-11215000D01*
X15515000Y-11185000D02*
X15485000Y-11215000D01*
X15735000Y-9885000D02*
X15765000Y-9915000D01*
X15765000Y-9885000D02*
X15735000Y-9915000D01*
X15735000Y-10885000D02*
X15765000Y-10915000D01*
X15765000Y-10885000D02*
X15735000Y-10915000D01*
X15855000Y-10155000D02*
X15885000Y-10185000D01*
X15885000Y-10155000D02*
X15855000Y-10185000D01*
X15935000Y-10285000D02*
X15965000Y-10315000D01*
X15965000Y-10285000D02*
X15935000Y-10315000D01*
X15935000Y-10885000D02*
X15965000Y-10915000D01*
X15965000Y-10885000D02*
X15935000Y-10915000D01*
X16085000Y-6793000D02*
X16115000Y-6823000D01*
X16115000Y-6793000D02*
X16085000Y-6823000D01*
X16465000Y-9685000D02*
X16495000Y-9715000D01*
X16495000Y-9685000D02*
X16465000Y-9715000D01*
X18865000Y-9685000D02*
X18895000Y-9715000D01*
X18895000Y-9685000D02*
X18865000Y-9715000D01*
X19285000Y-6791000D02*
X19315000Y-6821000D01*
X19315000Y-6791000D02*
X19285000Y-6821000D01*
X21265000Y-9685000D02*
X21295000Y-9715000D01*
X21295000Y-9685000D02*
X21265000Y-9715000D01*
X21481000Y-6806000D02*
X21511000Y-6836000D01*
X21511000Y-6806000D02*
X21481000Y-6836000D01*
X23665000Y-9685000D02*
X23695000Y-9715000D01*
X23695000Y-9685000D02*
X23665000Y-9715000D01*
X23885000Y-6858000D02*
X23915000Y-6888000D01*
X23915000Y-6858000D02*
X23885000Y-6888000D01*
X23935000Y-11135000D02*
X23965000Y-11165000D01*
X23965000Y-11135000D02*
X23935000Y-11165000D01*
X24185000Y-11235000D02*
X24215000Y-11265000D01*
X24215000Y-11235000D02*
X24185000Y-11265000D01*
X24385000Y-11135000D02*
X24415000Y-11165000D01*
X24415000Y-11135000D02*
X24385000Y-11165000D01*
X24765000Y-6885000D02*
X24795000Y-6915000D01*
X24795000Y-6885000D02*
X24765000Y-6915000D01*
X24765000Y-7885000D02*
X24795000Y-7915000D01*
X24795000Y-7885000D02*
X24765000Y-7915000D01*
X24765000Y-8885000D02*
X24795000Y-8915000D01*
X24795000Y-8885000D02*
X24765000Y-8915000D01*
X24775000Y-7385000D02*
X24805000Y-7415000D01*
X24805000Y-7385000D02*
X24775000Y-7415000D01*
X24775000Y-8395000D02*
X24805000Y-8425000D01*
X24805000Y-8395000D02*
X24775000Y-8425000D01*
X24995000Y-10035000D02*
X25025000Y-10065000D01*
X25025000Y-10035000D02*
X24995000Y-10065000D01*
X23242000Y-10400000D02*
G75*
G02*
X23142000Y-10400000I-50000J0D01*
G01*
X23142000Y-10400000D02*
G75*
G02*
X23242000Y-10400000I50000J0D01*
G01*
X23242000Y-10654000D02*
G75*
G02*
X23142000Y-10654000I-50000J0D01*
G01*
X23142000Y-10654000D02*
G75*
G02*
X23242000Y-10654000I50000J0D01*
G01*
X23496000Y-10400000D02*
G75*
G02*
X23396000Y-10400000I-50000J0D01*
G01*
X23396000Y-10400000D02*
G75*
G02*
X23496000Y-10400000I50000J0D01*
G01*
X23496000Y-10654000D02*
G75*
G02*
X23396000Y-10654000I-50000J0D01*
G01*
X23396000Y-10654000D02*
G75*
G02*
X23496000Y-10654000I50000J0D01*
G01*
X23750000Y-10400000D02*
G75*
G02*
X23650000Y-10400000I-50000J0D01*
G01*
X23650000Y-10400000D02*
G75*
G02*
X23750000Y-10400000I50000J0D01*
G01*
X23750000Y-10654000D02*
G75*
G02*
X23650000Y-10654000I-50000J0D01*
G01*
X23650000Y-10654000D02*
G75*
G02*
X23750000Y-10654000I50000J0D01*
G01*
X24004000Y-10400000D02*
G75*
G02*
X23904000Y-10400000I-50000J0D01*
G01*
X23904000Y-10400000D02*
G75*
G02*
X24004000Y-10400000I50000J0D01*
G01*
X24004000Y-10654000D02*
G75*
G02*
X23904000Y-10654000I-50000J0D01*
G01*
X23904000Y-10654000D02*
G75*
G02*
X24004000Y-10654000I50000J0D01*
G01*
X24258000Y-10400000D02*
G75*
G02*
X24158000Y-10400000I-50000J0D01*
G01*
X24158000Y-10400000D02*
G75*
G02*
X24258000Y-10400000I50000J0D01*
G01*
X24258000Y-10654000D02*
G75*
G02*
X24158000Y-10654000I-50000J0D01*
G01*
X24158000Y-10654000D02*
G75*
G02*
X24258000Y-10654000I50000J0D01*
G01*
D13*
X6325000Y-7466000D02*
X6325000Y-7634000D01*
X6241000Y-7550000D02*
X6409000Y-7550000D01*
X6325000Y-7916000D02*
X6325000Y-8084000D01*
X6241000Y-8000000D02*
X6409000Y-8000000D01*
X6325000Y-8366000D02*
X6325000Y-8534000D01*
X6241000Y-8450000D02*
X6409000Y-8450000D01*
X6500000Y-7116000D02*
X6500000Y-7284000D01*
X6416000Y-7200000D02*
X6584000Y-7200000D01*
X6500000Y-8716000D02*
X6500000Y-8884000D01*
X6416000Y-8800000D02*
X6584000Y-8800000D01*
X6900000Y-7016000D02*
X6900000Y-7184000D01*
X6816000Y-7100000D02*
X6984000Y-7100000D01*
X6900000Y-8816000D02*
X6900000Y-8984000D01*
X6816000Y-8900000D02*
X6984000Y-8900000D01*
X7300000Y-7116000D02*
X7300000Y-7284000D01*
X7216000Y-7200000D02*
X7384000Y-7200000D01*
X7300000Y-8716000D02*
X7300000Y-8884000D01*
X7216000Y-8800000D02*
X7384000Y-8800000D01*
X7475000Y-7466000D02*
X7475000Y-7634000D01*
X7391000Y-7550000D02*
X7559000Y-7550000D01*
X7475000Y-7916000D02*
X7475000Y-8084000D01*
X7391000Y-8000000D02*
X7559000Y-8000000D01*
X7475000Y-8366000D02*
X7475000Y-8534000D01*
X7391000Y-8450000D02*
X7559000Y-8450000D01*
X8725000Y-7466000D02*
X8725000Y-7634000D01*
X8641000Y-7550000D02*
X8809000Y-7550000D01*
X8725000Y-7916000D02*
X8725000Y-8084000D01*
X8641000Y-8000000D02*
X8809000Y-8000000D01*
X8725000Y-8366000D02*
X8725000Y-8534000D01*
X8641000Y-8450000D02*
X8809000Y-8450000D01*
X8900000Y-7116000D02*
X8900000Y-7284000D01*
X8816000Y-7200000D02*
X8984000Y-7200000D01*
X8900000Y-8716000D02*
X8900000Y-8884000D01*
X8816000Y-8800000D02*
X8984000Y-8800000D01*
X9300000Y-7016000D02*
X9300000Y-7184000D01*
X9216000Y-7100000D02*
X9384000Y-7100000D01*
X9300000Y-8816000D02*
X9300000Y-8984000D01*
X9216000Y-8900000D02*
X9384000Y-8900000D01*
X9700000Y-7116000D02*
X9700000Y-7284000D01*
X9616000Y-7200000D02*
X9784000Y-7200000D01*
X9700000Y-8716000D02*
X9700000Y-8884000D01*
X9616000Y-8800000D02*
X9784000Y-8800000D01*
X9875000Y-7466000D02*
X9875000Y-7634000D01*
X9791000Y-7550000D02*
X9959000Y-7550000D01*
X9875000Y-7916000D02*
X9875000Y-8084000D01*
X9791000Y-8000000D02*
X9959000Y-8000000D01*
X9875000Y-8366000D02*
X9875000Y-8534000D01*
X9791000Y-8450000D02*
X9959000Y-8450000D01*
X11125000Y-7466000D02*
X11125000Y-7634000D01*
X11041000Y-7550000D02*
X11209000Y-7550000D01*
X11125000Y-7916000D02*
X11125000Y-8084000D01*
X11041000Y-8000000D02*
X11209000Y-8000000D01*
X11125000Y-8366000D02*
X11125000Y-8534000D01*
X11041000Y-8450000D02*
X11209000Y-8450000D01*
X11300000Y-7116000D02*
X11300000Y-7284000D01*
X11216000Y-7200000D02*
X11384000Y-7200000D01*
X11300000Y-8716000D02*
X11300000Y-8884000D01*
X11216000Y-8800000D02*
X11384000Y-8800000D01*
X11700000Y-7016000D02*
X11700000Y-7184000D01*
X11616000Y-7100000D02*
X11784000Y-7100000D01*
X11700000Y-8816000D02*
X11700000Y-8984000D01*
X11616000Y-8900000D02*
X11784000Y-8900000D01*
X12100000Y-7116000D02*
X12100000Y-7284000D01*
X12016000Y-7200000D02*
X12184000Y-7200000D01*
X12100000Y-8716000D02*
X12100000Y-8884000D01*
X12016000Y-8800000D02*
X12184000Y-8800000D01*
X12275000Y-7466000D02*
X12275000Y-7634000D01*
X12191000Y-7550000D02*
X12359000Y-7550000D01*
X12275000Y-7916000D02*
X12275000Y-8084000D01*
X12191000Y-8000000D02*
X12359000Y-8000000D01*
X12275000Y-8366000D02*
X12275000Y-8534000D01*
X12191000Y-8450000D02*
X12359000Y-8450000D01*
X13525000Y-7466000D02*
X13525000Y-7634000D01*
X13441000Y-7550000D02*
X13609000Y-7550000D01*
X13525000Y-7916000D02*
X13525000Y-8084000D01*
X13441000Y-8000000D02*
X13609000Y-8000000D01*
X13525000Y-8366000D02*
X13525000Y-8534000D01*
X13441000Y-8450000D02*
X13609000Y-8450000D01*
X13700000Y-7116000D02*
X13700000Y-7284000D01*
X13616000Y-7200000D02*
X13784000Y-7200000D01*
X13700000Y-8716000D02*
X13700000Y-8884000D01*
X13616000Y-8800000D02*
X13784000Y-8800000D01*
X14100000Y-7016000D02*
X14100000Y-7184000D01*
X14016000Y-7100000D02*
X14184000Y-7100000D01*
X14100000Y-8816000D02*
X14100000Y-8984000D01*
X14016000Y-8900000D02*
X14184000Y-8900000D01*
X14500000Y-7116000D02*
X14500000Y-7284000D01*
X14416000Y-7200000D02*
X14584000Y-7200000D01*
X14500000Y-8716000D02*
X14500000Y-8884000D01*
X14416000Y-8800000D02*
X14584000Y-8800000D01*
X14675000Y-7466000D02*
X14675000Y-7634000D01*
X14591000Y-7550000D02*
X14759000Y-7550000D01*
X14675000Y-7916000D02*
X14675000Y-8084000D01*
X14591000Y-8000000D02*
X14759000Y-8000000D01*
X14675000Y-8366000D02*
X14675000Y-8534000D01*
X14591000Y-8450000D02*
X14759000Y-8450000D01*
X15925000Y-7466000D02*
X15925000Y-7634000D01*
X15841000Y-7550000D02*
X16009000Y-7550000D01*
X15925000Y-7916000D02*
X15925000Y-8084000D01*
X15841000Y-8000000D02*
X16009000Y-8000000D01*
X15925000Y-8366000D02*
X15925000Y-8534000D01*
X15841000Y-8450000D02*
X16009000Y-8450000D01*
X16100000Y-7116000D02*
X16100000Y-7284000D01*
X16016000Y-7200000D02*
X16184000Y-7200000D01*
X16100000Y-8716000D02*
X16100000Y-8884000D01*
X16016000Y-8800000D02*
X16184000Y-8800000D01*
X16500000Y-7016000D02*
X16500000Y-7184000D01*
X16416000Y-7100000D02*
X16584000Y-7100000D01*
X16500000Y-8816000D02*
X16500000Y-8984000D01*
X16416000Y-8900000D02*
X16584000Y-8900000D01*
X16900000Y-7116000D02*
X16900000Y-7284000D01*
X16816000Y-7200000D02*
X16984000Y-7200000D01*
X16900000Y-8716000D02*
X16900000Y-8884000D01*
X16816000Y-8800000D02*
X16984000Y-8800000D01*
X17075000Y-7466000D02*
X17075000Y-7634000D01*
X16991000Y-7550000D02*
X17159000Y-7550000D01*
X17075000Y-7916000D02*
X17075000Y-8084000D01*
X16991000Y-8000000D02*
X17159000Y-8000000D01*
X17075000Y-8366000D02*
X17075000Y-8534000D01*
X16991000Y-8450000D02*
X17159000Y-8450000D01*
X18325000Y-7466000D02*
X18325000Y-7634000D01*
X18241000Y-7550000D02*
X18409000Y-7550000D01*
X18325000Y-7916000D02*
X18325000Y-8084000D01*
X18241000Y-8000000D02*
X18409000Y-8000000D01*
X18325000Y-8366000D02*
X18325000Y-8534000D01*
X18241000Y-8450000D02*
X18409000Y-8450000D01*
X18500000Y-7116000D02*
X18500000Y-7284000D01*
X18416000Y-7200000D02*
X18584000Y-7200000D01*
X18500000Y-8716000D02*
X18500000Y-8884000D01*
X18416000Y-8800000D02*
X18584000Y-8800000D01*
X18900000Y-7016000D02*
X18900000Y-7184000D01*
X18816000Y-7100000D02*
X18984000Y-7100000D01*
X18900000Y-8816000D02*
X18900000Y-8984000D01*
X18816000Y-8900000D02*
X18984000Y-8900000D01*
X19300000Y-7116000D02*
X19300000Y-7284000D01*
X19216000Y-7200000D02*
X19384000Y-7200000D01*
X19300000Y-8716000D02*
X19300000Y-8884000D01*
X19216000Y-8800000D02*
X19384000Y-8800000D01*
X19475000Y-7466000D02*
X19475000Y-7634000D01*
X19391000Y-7550000D02*
X19559000Y-7550000D01*
X19475000Y-7916000D02*
X19475000Y-8084000D01*
X19391000Y-8000000D02*
X19559000Y-8000000D01*
X19475000Y-8366000D02*
X19475000Y-8534000D01*
X19391000Y-8450000D02*
X19559000Y-8450000D01*
X20725000Y-7466000D02*
X20725000Y-7634000D01*
X20641000Y-7550000D02*
X20809000Y-7550000D01*
X20725000Y-7916000D02*
X20725000Y-8084000D01*
X20641000Y-8000000D02*
X20809000Y-8000000D01*
X20725000Y-8366000D02*
X20725000Y-8534000D01*
X20641000Y-8450000D02*
X20809000Y-8450000D01*
X20900000Y-7116000D02*
X20900000Y-7284000D01*
X20816000Y-7200000D02*
X20984000Y-7200000D01*
X20900000Y-8716000D02*
X20900000Y-8884000D01*
X20816000Y-8800000D02*
X20984000Y-8800000D01*
X21300000Y-7016000D02*
X21300000Y-7184000D01*
X21216000Y-7100000D02*
X21384000Y-7100000D01*
X21300000Y-8816000D02*
X21300000Y-8984000D01*
X21216000Y-8900000D02*
X21384000Y-8900000D01*
X21700000Y-7116000D02*
X21700000Y-7284000D01*
X21616000Y-7200000D02*
X21784000Y-7200000D01*
X21700000Y-8716000D02*
X21700000Y-8884000D01*
X21616000Y-8800000D02*
X21784000Y-8800000D01*
X21875000Y-7466000D02*
X21875000Y-7634000D01*
X21791000Y-7550000D02*
X21959000Y-7550000D01*
X21875000Y-7916000D02*
X21875000Y-8084000D01*
X21791000Y-8000000D02*
X21959000Y-8000000D01*
X21875000Y-8366000D02*
X21875000Y-8534000D01*
X21791000Y-8450000D02*
X21959000Y-8450000D01*
X23125000Y-7466000D02*
X23125000Y-7634000D01*
X23041000Y-7550000D02*
X23209000Y-7550000D01*
X23125000Y-7916000D02*
X23125000Y-8084000D01*
X23041000Y-8000000D02*
X23209000Y-8000000D01*
X23125000Y-8366000D02*
X23125000Y-8534000D01*
X23041000Y-8450000D02*
X23209000Y-8450000D01*
X23300000Y-7116000D02*
X23300000Y-7284000D01*
X23216000Y-7200000D02*
X23384000Y-7200000D01*
X23300000Y-8716000D02*
X23300000Y-8884000D01*
X23216000Y-8800000D02*
X23384000Y-8800000D01*
X23700000Y-7016000D02*
X23700000Y-7184000D01*
X23616000Y-7100000D02*
X23784000Y-7100000D01*
X23700000Y-8816000D02*
X23700000Y-8984000D01*
X23616000Y-8900000D02*
X23784000Y-8900000D01*
X24100000Y-7116000D02*
X24100000Y-7284000D01*
X24016000Y-7200000D02*
X24184000Y-7200000D01*
X24100000Y-8716000D02*
X24100000Y-8884000D01*
X24016000Y-8800000D02*
X24184000Y-8800000D01*
X24275000Y-7466000D02*
X24275000Y-7634000D01*
X24191000Y-7550000D02*
X24359000Y-7550000D01*
X24275000Y-7916000D02*
X24275000Y-8084000D01*
X24191000Y-8000000D02*
X24359000Y-8000000D01*
X24275000Y-8366000D02*
X24275000Y-8534000D01*
X24191000Y-8450000D02*
X24359000Y-8450000D01*
D11*
X4908277Y-11863984D02*
X4908277Y-11663984D01*
X4908277Y-11663984D02*
X4955896Y-11663984D01*
X4955896Y-11663984D02*
X4984467Y-11673508D01*
X4984467Y-11673508D02*
X5003515Y-11692555D01*
X5003515Y-11692555D02*
X5013039Y-11711603D01*
X5013039Y-11711603D02*
X5022563Y-11749698D01*
X5022563Y-11749698D02*
X5022563Y-11778269D01*
X5022563Y-11778269D02*
X5013039Y-11816365D01*
X5013039Y-11816365D02*
X5003515Y-11835412D01*
X5003515Y-11835412D02*
X4984467Y-11854460D01*
X4984467Y-11854460D02*
X4955896Y-11863984D01*
X4955896Y-11863984D02*
X4908277Y-11863984D01*
X5108277Y-11863984D02*
X5108277Y-11730650D01*
X5108277Y-11768746D02*
X5117801Y-11749698D01*
X5117801Y-11749698D02*
X5127324Y-11740174D01*
X5127324Y-11740174D02*
X5146372Y-11730650D01*
X5146372Y-11730650D02*
X5165420Y-11730650D01*
X5232086Y-11863984D02*
X5232086Y-11730650D01*
X5232086Y-11663984D02*
X5222563Y-11673508D01*
X5222563Y-11673508D02*
X5232086Y-11683031D01*
X5232086Y-11683031D02*
X5241610Y-11673508D01*
X5241610Y-11673508D02*
X5232086Y-11663984D01*
X5232086Y-11663984D02*
X5232086Y-11683031D01*
X5355896Y-11863984D02*
X5336848Y-11854460D01*
X5336848Y-11854460D02*
X5327324Y-11835412D01*
X5327324Y-11835412D02*
X5327324Y-11663984D01*
X5460658Y-11863984D02*
X5441610Y-11854460D01*
X5441610Y-11854460D02*
X5432086Y-11835412D01*
X5432086Y-11835412D02*
X5432086Y-11663984D01*
X5689229Y-11863984D02*
X5689229Y-11663984D01*
X5689229Y-11663984D02*
X5755896Y-11806841D01*
X5755896Y-11806841D02*
X5822562Y-11663984D01*
X5822562Y-11663984D02*
X5822562Y-11863984D01*
X6003515Y-11863984D02*
X6003515Y-11759222D01*
X6003515Y-11759222D02*
X5993991Y-11740174D01*
X5993991Y-11740174D02*
X5974943Y-11730650D01*
X5974943Y-11730650D02*
X5936848Y-11730650D01*
X5936848Y-11730650D02*
X5917801Y-11740174D01*
X6003515Y-11854460D02*
X5984467Y-11863984D01*
X5984467Y-11863984D02*
X5936848Y-11863984D01*
X5936848Y-11863984D02*
X5917801Y-11854460D01*
X5917801Y-11854460D02*
X5908277Y-11835412D01*
X5908277Y-11835412D02*
X5908277Y-11816365D01*
X5908277Y-11816365D02*
X5917801Y-11797317D01*
X5917801Y-11797317D02*
X5936848Y-11787793D01*
X5936848Y-11787793D02*
X5984467Y-11787793D01*
X5984467Y-11787793D02*
X6003515Y-11778269D01*
X6098753Y-11730650D02*
X6098753Y-11930650D01*
X6098753Y-11740174D02*
X6117801Y-11730650D01*
X6117801Y-11730650D02*
X6155896Y-11730650D01*
X6155896Y-11730650D02*
X6174943Y-11740174D01*
X6174943Y-11740174D02*
X6184467Y-11749698D01*
X6184467Y-11749698D02*
X6193991Y-11768746D01*
X6193991Y-11768746D02*
X6193991Y-11825888D01*
X6193991Y-11825888D02*
X6184467Y-11844936D01*
X6184467Y-11844936D02*
X6174943Y-11854460D01*
X6174943Y-11854460D02*
X6155896Y-11863984D01*
X6155896Y-11863984D02*
X6117801Y-11863984D01*
X6117801Y-11863984D02*
X6098753Y-11854460D01*
X6279705Y-11844936D02*
X6289229Y-11854460D01*
X6289229Y-11854460D02*
X6279705Y-11863984D01*
X6279705Y-11863984D02*
X6270182Y-11854460D01*
X6270182Y-11854460D02*
X6279705Y-11844936D01*
X6279705Y-11844936D02*
X6279705Y-11863984D01*
X6279705Y-11740174D02*
X6289229Y-11749698D01*
X6289229Y-11749698D02*
X6279705Y-11759222D01*
X6279705Y-11759222D02*
X6270182Y-11749698D01*
X6270182Y-11749698D02*
X6279705Y-11740174D01*
X6279705Y-11740174D02*
X6279705Y-11759222D01*
D12*
X4617500Y-12177500D02*
X4647500Y-12207500D01*
X4647500Y-12177500D02*
X4617500Y-12207500D01*
D11*
X4946372Y-12083984D02*
X4965420Y-12083984D01*
X4965420Y-12083984D02*
X4984467Y-12093508D01*
X4984467Y-12093508D02*
X4993991Y-12103031D01*
X4993991Y-12103031D02*
X5003515Y-12122079D01*
X5003515Y-12122079D02*
X5013039Y-12160174D01*
X5013039Y-12160174D02*
X5013039Y-12207793D01*
X5013039Y-12207793D02*
X5003515Y-12245888D01*
X5003515Y-12245888D02*
X4993991Y-12264936D01*
X4993991Y-12264936D02*
X4984467Y-12274460D01*
X4984467Y-12274460D02*
X4965420Y-12283984D01*
X4965420Y-12283984D02*
X4946372Y-12283984D01*
X4946372Y-12283984D02*
X4927324Y-12274460D01*
X4927324Y-12274460D02*
X4917801Y-12264936D01*
X4917801Y-12264936D02*
X4908277Y-12245888D01*
X4908277Y-12245888D02*
X4898753Y-12207793D01*
X4898753Y-12207793D02*
X4898753Y-12160174D01*
X4898753Y-12160174D02*
X4908277Y-12122079D01*
X4908277Y-12122079D02*
X4917801Y-12103031D01*
X4917801Y-12103031D02*
X4927324Y-12093508D01*
X4927324Y-12093508D02*
X4946372Y-12083984D01*
X5098753Y-12264936D02*
X5108277Y-12274460D01*
X5108277Y-12274460D02*
X5098753Y-12283984D01*
X5098753Y-12283984D02*
X5089229Y-12274460D01*
X5089229Y-12274460D02*
X5098753Y-12264936D01*
X5098753Y-12264936D02*
X5098753Y-12283984D01*
X5174944Y-12083984D02*
X5298753Y-12083984D01*
X5298753Y-12083984D02*
X5232086Y-12160174D01*
X5232086Y-12160174D02*
X5260658Y-12160174D01*
X5260658Y-12160174D02*
X5279705Y-12169698D01*
X5279705Y-12169698D02*
X5289229Y-12179222D01*
X5289229Y-12179222D02*
X5298753Y-12198269D01*
X5298753Y-12198269D02*
X5298753Y-12245888D01*
X5298753Y-12245888D02*
X5289229Y-12264936D01*
X5289229Y-12264936D02*
X5279705Y-12274460D01*
X5279705Y-12274460D02*
X5260658Y-12283984D01*
X5260658Y-12283984D02*
X5203515Y-12283984D01*
X5203515Y-12283984D02*
X5184467Y-12274460D01*
X5184467Y-12274460D02*
X5174944Y-12264936D01*
X5422563Y-12083984D02*
X5441610Y-12083984D01*
X5441610Y-12083984D02*
X5460658Y-12093508D01*
X5460658Y-12093508D02*
X5470182Y-12103031D01*
X5470182Y-12103031D02*
X5479705Y-12122079D01*
X5479705Y-12122079D02*
X5489229Y-12160174D01*
X5489229Y-12160174D02*
X5489229Y-12207793D01*
X5489229Y-12207793D02*
X5479705Y-12245888D01*
X5479705Y-12245888D02*
X5470182Y-12264936D01*
X5470182Y-12264936D02*
X5460658Y-12274460D01*
X5460658Y-12274460D02*
X5441610Y-12283984D01*
X5441610Y-12283984D02*
X5422563Y-12283984D01*
X5422563Y-12283984D02*
X5403515Y-12274460D01*
X5403515Y-12274460D02*
X5393991Y-12264936D01*
X5393991Y-12264936D02*
X5384467Y-12245888D01*
X5384467Y-12245888D02*
X5374944Y-12207793D01*
X5374944Y-12207793D02*
X5374944Y-12160174D01*
X5374944Y-12160174D02*
X5384467Y-12122079D01*
X5384467Y-12122079D02*
X5393991Y-12103031D01*
X5393991Y-12103031D02*
X5403515Y-12093508D01*
X5403515Y-12093508D02*
X5422563Y-12083984D01*
X5613039Y-12083984D02*
X5632086Y-12083984D01*
X5632086Y-12083984D02*
X5651134Y-12093508D01*
X5651134Y-12093508D02*
X5660658Y-12103031D01*
X5660658Y-12103031D02*
X5670182Y-12122079D01*
X5670182Y-12122079D02*
X5679705Y-12160174D01*
X5679705Y-12160174D02*
X5679705Y-12207793D01*
X5679705Y-12207793D02*
X5670182Y-12245888D01*
X5670182Y-12245888D02*
X5660658Y-12264936D01*
X5660658Y-12264936D02*
X5651134Y-12274460D01*
X5651134Y-12274460D02*
X5632086Y-12283984D01*
X5632086Y-12283984D02*
X5613039Y-12283984D01*
X5613039Y-12283984D02*
X5593991Y-12274460D01*
X5593991Y-12274460D02*
X5584467Y-12264936D01*
X5584467Y-12264936D02*
X5574944Y-12245888D01*
X5574944Y-12245888D02*
X5565420Y-12207793D01*
X5565420Y-12207793D02*
X5565420Y-12160174D01*
X5565420Y-12160174D02*
X5574944Y-12122079D01*
X5574944Y-12122079D02*
X5584467Y-12103031D01*
X5584467Y-12103031D02*
X5593991Y-12093508D01*
X5593991Y-12093508D02*
X5613039Y-12083984D01*
X5765420Y-12283984D02*
X5765420Y-12150650D01*
X5765420Y-12169698D02*
X5774943Y-12160174D01*
X5774943Y-12160174D02*
X5793991Y-12150650D01*
X5793991Y-12150650D02*
X5822563Y-12150650D01*
X5822563Y-12150650D02*
X5841610Y-12160174D01*
X5841610Y-12160174D02*
X5851134Y-12179222D01*
X5851134Y-12179222D02*
X5851134Y-12283984D01*
X5851134Y-12179222D02*
X5860658Y-12160174D01*
X5860658Y-12160174D02*
X5879705Y-12150650D01*
X5879705Y-12150650D02*
X5908277Y-12150650D01*
X5908277Y-12150650D02*
X5927324Y-12160174D01*
X5927324Y-12160174D02*
X5936848Y-12179222D01*
X5936848Y-12179222D02*
X5936848Y-12283984D01*
X6032086Y-12283984D02*
X6032086Y-12150650D01*
X6032086Y-12169698D02*
X6041610Y-12160174D01*
X6041610Y-12160174D02*
X6060658Y-12150650D01*
X6060658Y-12150650D02*
X6089229Y-12150650D01*
X6089229Y-12150650D02*
X6108277Y-12160174D01*
X6108277Y-12160174D02*
X6117801Y-12179222D01*
X6117801Y-12179222D02*
X6117801Y-12283984D01*
X6117801Y-12179222D02*
X6127324Y-12160174D01*
X6127324Y-12160174D02*
X6146372Y-12150650D01*
X6146372Y-12150650D02*
X6174943Y-12150650D01*
X6174943Y-12150650D02*
X6193991Y-12160174D01*
X6193991Y-12160174D02*
X6203515Y-12179222D01*
X6203515Y-12179222D02*
X6203515Y-12283984D01*
X6593991Y-12074460D02*
X6422563Y-12331603D01*
X6851134Y-12083984D02*
X6870182Y-12083984D01*
X6870182Y-12083984D02*
X6889229Y-12093508D01*
X6889229Y-12093508D02*
X6898753Y-12103031D01*
X6898753Y-12103031D02*
X6908277Y-12122079D01*
X6908277Y-12122079D02*
X6917801Y-12160174D01*
X6917801Y-12160174D02*
X6917801Y-12207793D01*
X6917801Y-12207793D02*
X6908277Y-12245888D01*
X6908277Y-12245888D02*
X6898753Y-12264936D01*
X6898753Y-12264936D02*
X6889229Y-12274460D01*
X6889229Y-12274460D02*
X6870182Y-12283984D01*
X6870182Y-12283984D02*
X6851134Y-12283984D01*
X6851134Y-12283984D02*
X6832086Y-12274460D01*
X6832086Y-12274460D02*
X6822563Y-12264936D01*
X6822563Y-12264936D02*
X6813039Y-12245888D01*
X6813039Y-12245888D02*
X6803515Y-12207793D01*
X6803515Y-12207793D02*
X6803515Y-12160174D01*
X6803515Y-12160174D02*
X6813039Y-12122079D01*
X6813039Y-12122079D02*
X6822563Y-12103031D01*
X6822563Y-12103031D02*
X6832086Y-12093508D01*
X6832086Y-12093508D02*
X6851134Y-12083984D01*
X7003515Y-12264936D02*
X7013039Y-12274460D01*
X7013039Y-12274460D02*
X7003515Y-12283984D01*
X7003515Y-12283984D02*
X6993991Y-12274460D01*
X6993991Y-12274460D02*
X7003515Y-12264936D01*
X7003515Y-12264936D02*
X7003515Y-12283984D01*
X7136848Y-12083984D02*
X7155896Y-12083984D01*
X7155896Y-12083984D02*
X7174944Y-12093508D01*
X7174944Y-12093508D02*
X7184467Y-12103031D01*
X7184467Y-12103031D02*
X7193991Y-12122079D01*
X7193991Y-12122079D02*
X7203515Y-12160174D01*
X7203515Y-12160174D02*
X7203515Y-12207793D01*
X7203515Y-12207793D02*
X7193991Y-12245888D01*
X7193991Y-12245888D02*
X7184467Y-12264936D01*
X7184467Y-12264936D02*
X7174944Y-12274460D01*
X7174944Y-12274460D02*
X7155896Y-12283984D01*
X7155896Y-12283984D02*
X7136848Y-12283984D01*
X7136848Y-12283984D02*
X7117801Y-12274460D01*
X7117801Y-12274460D02*
X7108277Y-12264936D01*
X7108277Y-12264936D02*
X7098753Y-12245888D01*
X7098753Y-12245888D02*
X7089229Y-12207793D01*
X7089229Y-12207793D02*
X7089229Y-12160174D01*
X7089229Y-12160174D02*
X7098753Y-12122079D01*
X7098753Y-12122079D02*
X7108277Y-12103031D01*
X7108277Y-12103031D02*
X7117801Y-12093508D01*
X7117801Y-12093508D02*
X7136848Y-12083984D01*
X7393991Y-12283984D02*
X7279706Y-12283984D01*
X7336848Y-12283984D02*
X7336848Y-12083984D01*
X7336848Y-12083984D02*
X7317801Y-12112555D01*
X7317801Y-12112555D02*
X7298753Y-12131603D01*
X7298753Y-12131603D02*
X7279706Y-12141127D01*
X7584467Y-12283984D02*
X7470182Y-12283984D01*
X7527325Y-12283984D02*
X7527325Y-12083984D01*
X7527325Y-12083984D02*
X7508277Y-12112555D01*
X7508277Y-12112555D02*
X7489229Y-12131603D01*
X7489229Y-12131603D02*
X7470182Y-12141127D01*
X7698753Y-12169698D02*
X7679706Y-12160174D01*
X7679706Y-12160174D02*
X7670182Y-12150650D01*
X7670182Y-12150650D02*
X7660658Y-12131603D01*
X7660658Y-12131603D02*
X7660658Y-12122079D01*
X7660658Y-12122079D02*
X7670182Y-12103031D01*
X7670182Y-12103031D02*
X7679706Y-12093508D01*
X7679706Y-12093508D02*
X7698753Y-12083984D01*
X7698753Y-12083984D02*
X7736848Y-12083984D01*
X7736848Y-12083984D02*
X7755896Y-12093508D01*
X7755896Y-12093508D02*
X7765420Y-12103031D01*
X7765420Y-12103031D02*
X7774944Y-12122079D01*
X7774944Y-12122079D02*
X7774944Y-12131603D01*
X7774944Y-12131603D02*
X7765420Y-12150650D01*
X7765420Y-12150650D02*
X7755896Y-12160174D01*
X7755896Y-12160174D02*
X7736848Y-12169698D01*
X7736848Y-12169698D02*
X7698753Y-12169698D01*
X7698753Y-12169698D02*
X7679706Y-12179222D01*
X7679706Y-12179222D02*
X7670182Y-12188746D01*
X7670182Y-12188746D02*
X7660658Y-12207793D01*
X7660658Y-12207793D02*
X7660658Y-12245888D01*
X7660658Y-12245888D02*
X7670182Y-12264936D01*
X7670182Y-12264936D02*
X7679706Y-12274460D01*
X7679706Y-12274460D02*
X7698753Y-12283984D01*
X7698753Y-12283984D02*
X7736848Y-12283984D01*
X7736848Y-12283984D02*
X7755896Y-12274460D01*
X7755896Y-12274460D02*
X7765420Y-12264936D01*
X7765420Y-12264936D02*
X7774944Y-12245888D01*
X7774944Y-12245888D02*
X7774944Y-12207793D01*
X7774944Y-12207793D02*
X7765420Y-12188746D01*
X7765420Y-12188746D02*
X7755896Y-12179222D01*
X7755896Y-12179222D02*
X7736848Y-12169698D01*
X7851134Y-12083984D02*
X7851134Y-12122079D01*
X7927325Y-12083984D02*
X7927325Y-12122079D01*
X8222563Y-12360174D02*
X8213039Y-12350650D01*
X8213039Y-12350650D02*
X8193991Y-12322079D01*
X8193991Y-12322079D02*
X8184468Y-12303031D01*
X8184468Y-12303031D02*
X8174944Y-12274460D01*
X8174944Y-12274460D02*
X8165420Y-12226841D01*
X8165420Y-12226841D02*
X8165420Y-12188746D01*
X8165420Y-12188746D02*
X8174944Y-12141127D01*
X8174944Y-12141127D02*
X8184468Y-12112555D01*
X8184468Y-12112555D02*
X8193991Y-12093508D01*
X8193991Y-12093508D02*
X8213039Y-12064936D01*
X8213039Y-12064936D02*
X8222563Y-12055412D01*
X8384468Y-12150650D02*
X8384468Y-12283984D01*
X8336848Y-12074460D02*
X8289229Y-12217317D01*
X8289229Y-12217317D02*
X8413039Y-12217317D01*
X8470182Y-12083984D02*
X8603515Y-12083984D01*
X8603515Y-12083984D02*
X8517801Y-12283984D01*
X8832087Y-12283984D02*
X8832087Y-12083984D01*
X8917801Y-12283984D02*
X8917801Y-12179222D01*
X8917801Y-12179222D02*
X8908277Y-12160174D01*
X8908277Y-12160174D02*
X8889230Y-12150650D01*
X8889230Y-12150650D02*
X8860658Y-12150650D01*
X8860658Y-12150650D02*
X8841611Y-12160174D01*
X8841611Y-12160174D02*
X8832087Y-12169698D01*
X9041611Y-12283984D02*
X9022563Y-12274460D01*
X9022563Y-12274460D02*
X9013039Y-12264936D01*
X9013039Y-12264936D02*
X9003515Y-12245888D01*
X9003515Y-12245888D02*
X9003515Y-12188746D01*
X9003515Y-12188746D02*
X9013039Y-12169698D01*
X9013039Y-12169698D02*
X9022563Y-12160174D01*
X9022563Y-12160174D02*
X9041611Y-12150650D01*
X9041611Y-12150650D02*
X9070182Y-12150650D01*
X9070182Y-12150650D02*
X9089230Y-12160174D01*
X9089230Y-12160174D02*
X9098753Y-12169698D01*
X9098753Y-12169698D02*
X9108277Y-12188746D01*
X9108277Y-12188746D02*
X9108277Y-12245888D01*
X9108277Y-12245888D02*
X9098753Y-12264936D01*
X9098753Y-12264936D02*
X9089230Y-12274460D01*
X9089230Y-12274460D02*
X9070182Y-12283984D01*
X9070182Y-12283984D02*
X9041611Y-12283984D01*
X9222563Y-12283984D02*
X9203515Y-12274460D01*
X9203515Y-12274460D02*
X9193992Y-12255412D01*
X9193992Y-12255412D02*
X9193992Y-12083984D01*
X9374944Y-12274460D02*
X9355896Y-12283984D01*
X9355896Y-12283984D02*
X9317801Y-12283984D01*
X9317801Y-12283984D02*
X9298753Y-12274460D01*
X9298753Y-12274460D02*
X9289230Y-12255412D01*
X9289230Y-12255412D02*
X9289230Y-12179222D01*
X9289230Y-12179222D02*
X9298753Y-12160174D01*
X9298753Y-12160174D02*
X9317801Y-12150650D01*
X9317801Y-12150650D02*
X9355896Y-12150650D01*
X9355896Y-12150650D02*
X9374944Y-12160174D01*
X9374944Y-12160174D02*
X9384468Y-12179222D01*
X9384468Y-12179222D02*
X9384468Y-12198269D01*
X9384468Y-12198269D02*
X9289230Y-12217317D01*
X9460658Y-12274460D02*
X9479706Y-12283984D01*
X9479706Y-12283984D02*
X9517801Y-12283984D01*
X9517801Y-12283984D02*
X9536849Y-12274460D01*
X9536849Y-12274460D02*
X9546373Y-12255412D01*
X9546373Y-12255412D02*
X9546373Y-12245888D01*
X9546373Y-12245888D02*
X9536849Y-12226841D01*
X9536849Y-12226841D02*
X9517801Y-12217317D01*
X9517801Y-12217317D02*
X9489230Y-12217317D01*
X9489230Y-12217317D02*
X9470182Y-12207793D01*
X9470182Y-12207793D02*
X9460658Y-12188746D01*
X9460658Y-12188746D02*
X9460658Y-12179222D01*
X9460658Y-12179222D02*
X9470182Y-12160174D01*
X9470182Y-12160174D02*
X9489230Y-12150650D01*
X9489230Y-12150650D02*
X9517801Y-12150650D01*
X9517801Y-12150650D02*
X9536849Y-12160174D01*
X9613039Y-12360174D02*
X9622563Y-12350650D01*
X9622563Y-12350650D02*
X9641611Y-12322079D01*
X9641611Y-12322079D02*
X9651134Y-12303031D01*
X9651134Y-12303031D02*
X9660658Y-12274460D01*
X9660658Y-12274460D02*
X9670182Y-12226841D01*
X9670182Y-12226841D02*
X9670182Y-12188746D01*
X9670182Y-12188746D02*
X9660658Y-12141127D01*
X9660658Y-12141127D02*
X9651134Y-12112555D01*
X9651134Y-12112555D02*
X9641611Y-12093508D01*
X9641611Y-12093508D02*
X9622563Y-12064936D01*
X9622563Y-12064936D02*
X9613039Y-12055412D01*
D12*
X4647500Y-12456500D02*
G75*
G02*
X4547500Y-12456500I-50000J0D01*
G01*
X4547500Y-12456500D02*
G75*
G02*
X4647500Y-12456500I50000J0D01*
G01*
D11*
X5013039Y-12547984D02*
X4898753Y-12547984D01*
X4955896Y-12547984D02*
X4955896Y-12347984D01*
X4955896Y-12347984D02*
X4936848Y-12376555D01*
X4936848Y-12376555D02*
X4917801Y-12395603D01*
X4917801Y-12395603D02*
X4898753Y-12405127D01*
X5098753Y-12528936D02*
X5108277Y-12538460D01*
X5108277Y-12538460D02*
X5098753Y-12547984D01*
X5098753Y-12547984D02*
X5089229Y-12538460D01*
X5089229Y-12538460D02*
X5098753Y-12528936D01*
X5098753Y-12528936D02*
X5098753Y-12547984D01*
X5232086Y-12347984D02*
X5251134Y-12347984D01*
X5251134Y-12347984D02*
X5270182Y-12357508D01*
X5270182Y-12357508D02*
X5279705Y-12367031D01*
X5279705Y-12367031D02*
X5289229Y-12386079D01*
X5289229Y-12386079D02*
X5298753Y-12424174D01*
X5298753Y-12424174D02*
X5298753Y-12471793D01*
X5298753Y-12471793D02*
X5289229Y-12509888D01*
X5289229Y-12509888D02*
X5279705Y-12528936D01*
X5279705Y-12528936D02*
X5270182Y-12538460D01*
X5270182Y-12538460D02*
X5251134Y-12547984D01*
X5251134Y-12547984D02*
X5232086Y-12547984D01*
X5232086Y-12547984D02*
X5213039Y-12538460D01*
X5213039Y-12538460D02*
X5203515Y-12528936D01*
X5203515Y-12528936D02*
X5193991Y-12509888D01*
X5193991Y-12509888D02*
X5184467Y-12471793D01*
X5184467Y-12471793D02*
X5184467Y-12424174D01*
X5184467Y-12424174D02*
X5193991Y-12386079D01*
X5193991Y-12386079D02*
X5203515Y-12367031D01*
X5203515Y-12367031D02*
X5213039Y-12357508D01*
X5213039Y-12357508D02*
X5232086Y-12347984D01*
X5422563Y-12347984D02*
X5441610Y-12347984D01*
X5441610Y-12347984D02*
X5460658Y-12357508D01*
X5460658Y-12357508D02*
X5470182Y-12367031D01*
X5470182Y-12367031D02*
X5479705Y-12386079D01*
X5479705Y-12386079D02*
X5489229Y-12424174D01*
X5489229Y-12424174D02*
X5489229Y-12471793D01*
X5489229Y-12471793D02*
X5479705Y-12509888D01*
X5479705Y-12509888D02*
X5470182Y-12528936D01*
X5470182Y-12528936D02*
X5460658Y-12538460D01*
X5460658Y-12538460D02*
X5441610Y-12547984D01*
X5441610Y-12547984D02*
X5422563Y-12547984D01*
X5422563Y-12547984D02*
X5403515Y-12538460D01*
X5403515Y-12538460D02*
X5393991Y-12528936D01*
X5393991Y-12528936D02*
X5384467Y-12509888D01*
X5384467Y-12509888D02*
X5374944Y-12471793D01*
X5374944Y-12471793D02*
X5374944Y-12424174D01*
X5374944Y-12424174D02*
X5384467Y-12386079D01*
X5384467Y-12386079D02*
X5393991Y-12367031D01*
X5393991Y-12367031D02*
X5403515Y-12357508D01*
X5403515Y-12357508D02*
X5422563Y-12347984D01*
X5613039Y-12347984D02*
X5632086Y-12347984D01*
X5632086Y-12347984D02*
X5651134Y-12357508D01*
X5651134Y-12357508D02*
X5660658Y-12367031D01*
X5660658Y-12367031D02*
X5670182Y-12386079D01*
X5670182Y-12386079D02*
X5679705Y-12424174D01*
X5679705Y-12424174D02*
X5679705Y-12471793D01*
X5679705Y-12471793D02*
X5670182Y-12509888D01*
X5670182Y-12509888D02*
X5660658Y-12528936D01*
X5660658Y-12528936D02*
X5651134Y-12538460D01*
X5651134Y-12538460D02*
X5632086Y-12547984D01*
X5632086Y-12547984D02*
X5613039Y-12547984D01*
X5613039Y-12547984D02*
X5593991Y-12538460D01*
X5593991Y-12538460D02*
X5584467Y-12528936D01*
X5584467Y-12528936D02*
X5574944Y-12509888D01*
X5574944Y-12509888D02*
X5565420Y-12471793D01*
X5565420Y-12471793D02*
X5565420Y-12424174D01*
X5565420Y-12424174D02*
X5574944Y-12386079D01*
X5574944Y-12386079D02*
X5584467Y-12367031D01*
X5584467Y-12367031D02*
X5593991Y-12357508D01*
X5593991Y-12357508D02*
X5613039Y-12347984D01*
X5765420Y-12547984D02*
X5765420Y-12414650D01*
X5765420Y-12433698D02*
X5774943Y-12424174D01*
X5774943Y-12424174D02*
X5793991Y-12414650D01*
X5793991Y-12414650D02*
X5822563Y-12414650D01*
X5822563Y-12414650D02*
X5841610Y-12424174D01*
X5841610Y-12424174D02*
X5851134Y-12443222D01*
X5851134Y-12443222D02*
X5851134Y-12547984D01*
X5851134Y-12443222D02*
X5860658Y-12424174D01*
X5860658Y-12424174D02*
X5879705Y-12414650D01*
X5879705Y-12414650D02*
X5908277Y-12414650D01*
X5908277Y-12414650D02*
X5927324Y-12424174D01*
X5927324Y-12424174D02*
X5936848Y-12443222D01*
X5936848Y-12443222D02*
X5936848Y-12547984D01*
X6032086Y-12547984D02*
X6032086Y-12414650D01*
X6032086Y-12433698D02*
X6041610Y-12424174D01*
X6041610Y-12424174D02*
X6060658Y-12414650D01*
X6060658Y-12414650D02*
X6089229Y-12414650D01*
X6089229Y-12414650D02*
X6108277Y-12424174D01*
X6108277Y-12424174D02*
X6117801Y-12443222D01*
X6117801Y-12443222D02*
X6117801Y-12547984D01*
X6117801Y-12443222D02*
X6127324Y-12424174D01*
X6127324Y-12424174D02*
X6146372Y-12414650D01*
X6146372Y-12414650D02*
X6174943Y-12414650D01*
X6174943Y-12414650D02*
X6193991Y-12424174D01*
X6193991Y-12424174D02*
X6203515Y-12443222D01*
X6203515Y-12443222D02*
X6203515Y-12547984D01*
X6593991Y-12338460D02*
X6422563Y-12595603D01*
X6851134Y-12347984D02*
X6870182Y-12347984D01*
X6870182Y-12347984D02*
X6889229Y-12357508D01*
X6889229Y-12357508D02*
X6898753Y-12367031D01*
X6898753Y-12367031D02*
X6908277Y-12386079D01*
X6908277Y-12386079D02*
X6917801Y-12424174D01*
X6917801Y-12424174D02*
X6917801Y-12471793D01*
X6917801Y-12471793D02*
X6908277Y-12509888D01*
X6908277Y-12509888D02*
X6898753Y-12528936D01*
X6898753Y-12528936D02*
X6889229Y-12538460D01*
X6889229Y-12538460D02*
X6870182Y-12547984D01*
X6870182Y-12547984D02*
X6851134Y-12547984D01*
X6851134Y-12547984D02*
X6832086Y-12538460D01*
X6832086Y-12538460D02*
X6822563Y-12528936D01*
X6822563Y-12528936D02*
X6813039Y-12509888D01*
X6813039Y-12509888D02*
X6803515Y-12471793D01*
X6803515Y-12471793D02*
X6803515Y-12424174D01*
X6803515Y-12424174D02*
X6813039Y-12386079D01*
X6813039Y-12386079D02*
X6822563Y-12367031D01*
X6822563Y-12367031D02*
X6832086Y-12357508D01*
X6832086Y-12357508D02*
X6851134Y-12347984D01*
X7003515Y-12528936D02*
X7013039Y-12538460D01*
X7013039Y-12538460D02*
X7003515Y-12547984D01*
X7003515Y-12547984D02*
X6993991Y-12538460D01*
X6993991Y-12538460D02*
X7003515Y-12528936D01*
X7003515Y-12528936D02*
X7003515Y-12547984D01*
X7136848Y-12347984D02*
X7155896Y-12347984D01*
X7155896Y-12347984D02*
X7174944Y-12357508D01*
X7174944Y-12357508D02*
X7184467Y-12367031D01*
X7184467Y-12367031D02*
X7193991Y-12386079D01*
X7193991Y-12386079D02*
X7203515Y-12424174D01*
X7203515Y-12424174D02*
X7203515Y-12471793D01*
X7203515Y-12471793D02*
X7193991Y-12509888D01*
X7193991Y-12509888D02*
X7184467Y-12528936D01*
X7184467Y-12528936D02*
X7174944Y-12538460D01*
X7174944Y-12538460D02*
X7155896Y-12547984D01*
X7155896Y-12547984D02*
X7136848Y-12547984D01*
X7136848Y-12547984D02*
X7117801Y-12538460D01*
X7117801Y-12538460D02*
X7108277Y-12528936D01*
X7108277Y-12528936D02*
X7098753Y-12509888D01*
X7098753Y-12509888D02*
X7089229Y-12471793D01*
X7089229Y-12471793D02*
X7089229Y-12424174D01*
X7089229Y-12424174D02*
X7098753Y-12386079D01*
X7098753Y-12386079D02*
X7108277Y-12367031D01*
X7108277Y-12367031D02*
X7117801Y-12357508D01*
X7117801Y-12357508D02*
X7136848Y-12347984D01*
X7270182Y-12347984D02*
X7393991Y-12347984D01*
X7393991Y-12347984D02*
X7327325Y-12424174D01*
X7327325Y-12424174D02*
X7355896Y-12424174D01*
X7355896Y-12424174D02*
X7374944Y-12433698D01*
X7374944Y-12433698D02*
X7384467Y-12443222D01*
X7384467Y-12443222D02*
X7393991Y-12462269D01*
X7393991Y-12462269D02*
X7393991Y-12509888D01*
X7393991Y-12509888D02*
X7384467Y-12528936D01*
X7384467Y-12528936D02*
X7374944Y-12538460D01*
X7374944Y-12538460D02*
X7355896Y-12547984D01*
X7355896Y-12547984D02*
X7298753Y-12547984D01*
X7298753Y-12547984D02*
X7279706Y-12538460D01*
X7279706Y-12538460D02*
X7270182Y-12528936D01*
X7489229Y-12547984D02*
X7527325Y-12547984D01*
X7527325Y-12547984D02*
X7546372Y-12538460D01*
X7546372Y-12538460D02*
X7555896Y-12528936D01*
X7555896Y-12528936D02*
X7574944Y-12500365D01*
X7574944Y-12500365D02*
X7584467Y-12462269D01*
X7584467Y-12462269D02*
X7584467Y-12386079D01*
X7584467Y-12386079D02*
X7574944Y-12367031D01*
X7574944Y-12367031D02*
X7565420Y-12357508D01*
X7565420Y-12357508D02*
X7546372Y-12347984D01*
X7546372Y-12347984D02*
X7508277Y-12347984D01*
X7508277Y-12347984D02*
X7489229Y-12357508D01*
X7489229Y-12357508D02*
X7479706Y-12367031D01*
X7479706Y-12367031D02*
X7470182Y-12386079D01*
X7470182Y-12386079D02*
X7470182Y-12433698D01*
X7470182Y-12433698D02*
X7479706Y-12452746D01*
X7479706Y-12452746D02*
X7489229Y-12462269D01*
X7489229Y-12462269D02*
X7508277Y-12471793D01*
X7508277Y-12471793D02*
X7546372Y-12471793D01*
X7546372Y-12471793D02*
X7565420Y-12462269D01*
X7565420Y-12462269D02*
X7574944Y-12452746D01*
X7574944Y-12452746D02*
X7584467Y-12433698D01*
X7755896Y-12414650D02*
X7755896Y-12547984D01*
X7708277Y-12338460D02*
X7660658Y-12481317D01*
X7660658Y-12481317D02*
X7784467Y-12481317D01*
X7851134Y-12347984D02*
X7851134Y-12386079D01*
X7927325Y-12347984D02*
X7927325Y-12386079D01*
X8222563Y-12624174D02*
X8213039Y-12614650D01*
X8213039Y-12614650D02*
X8193991Y-12586079D01*
X8193991Y-12586079D02*
X8184468Y-12567031D01*
X8184468Y-12567031D02*
X8174944Y-12538460D01*
X8174944Y-12538460D02*
X8165420Y-12490841D01*
X8165420Y-12490841D02*
X8165420Y-12452746D01*
X8165420Y-12452746D02*
X8174944Y-12405127D01*
X8174944Y-12405127D02*
X8184468Y-12376555D01*
X8184468Y-12376555D02*
X8193991Y-12357508D01*
X8193991Y-12357508D02*
X8213039Y-12328936D01*
X8213039Y-12328936D02*
X8222563Y-12319412D01*
X8403515Y-12547984D02*
X8289229Y-12547984D01*
X8346372Y-12547984D02*
X8346372Y-12347984D01*
X8346372Y-12347984D02*
X8327325Y-12376555D01*
X8327325Y-12376555D02*
X8308277Y-12395603D01*
X8308277Y-12395603D02*
X8289229Y-12405127D01*
X8527325Y-12347984D02*
X8546372Y-12347984D01*
X8546372Y-12347984D02*
X8565420Y-12357508D01*
X8565420Y-12357508D02*
X8574944Y-12367031D01*
X8574944Y-12367031D02*
X8584468Y-12386079D01*
X8584468Y-12386079D02*
X8593991Y-12424174D01*
X8593991Y-12424174D02*
X8593991Y-12471793D01*
X8593991Y-12471793D02*
X8584468Y-12509888D01*
X8584468Y-12509888D02*
X8574944Y-12528936D01*
X8574944Y-12528936D02*
X8565420Y-12538460D01*
X8565420Y-12538460D02*
X8546372Y-12547984D01*
X8546372Y-12547984D02*
X8527325Y-12547984D01*
X8527325Y-12547984D02*
X8508277Y-12538460D01*
X8508277Y-12538460D02*
X8498753Y-12528936D01*
X8498753Y-12528936D02*
X8489230Y-12509888D01*
X8489230Y-12509888D02*
X8479706Y-12471793D01*
X8479706Y-12471793D02*
X8479706Y-12424174D01*
X8479706Y-12424174D02*
X8489230Y-12386079D01*
X8489230Y-12386079D02*
X8498753Y-12367031D01*
X8498753Y-12367031D02*
X8508277Y-12357508D01*
X8508277Y-12357508D02*
X8527325Y-12347984D01*
X8832087Y-12547984D02*
X8832087Y-12347984D01*
X8917801Y-12547984D02*
X8917801Y-12443222D01*
X8917801Y-12443222D02*
X8908277Y-12424174D01*
X8908277Y-12424174D02*
X8889230Y-12414650D01*
X8889230Y-12414650D02*
X8860658Y-12414650D01*
X8860658Y-12414650D02*
X8841611Y-12424174D01*
X8841611Y-12424174D02*
X8832087Y-12433698D01*
X9041611Y-12547984D02*
X9022563Y-12538460D01*
X9022563Y-12538460D02*
X9013039Y-12528936D01*
X9013039Y-12528936D02*
X9003515Y-12509888D01*
X9003515Y-12509888D02*
X9003515Y-12452746D01*
X9003515Y-12452746D02*
X9013039Y-12433698D01*
X9013039Y-12433698D02*
X9022563Y-12424174D01*
X9022563Y-12424174D02*
X9041611Y-12414650D01*
X9041611Y-12414650D02*
X9070182Y-12414650D01*
X9070182Y-12414650D02*
X9089230Y-12424174D01*
X9089230Y-12424174D02*
X9098753Y-12433698D01*
X9098753Y-12433698D02*
X9108277Y-12452746D01*
X9108277Y-12452746D02*
X9108277Y-12509888D01*
X9108277Y-12509888D02*
X9098753Y-12528936D01*
X9098753Y-12528936D02*
X9089230Y-12538460D01*
X9089230Y-12538460D02*
X9070182Y-12547984D01*
X9070182Y-12547984D02*
X9041611Y-12547984D01*
X9222563Y-12547984D02*
X9203515Y-12538460D01*
X9203515Y-12538460D02*
X9193992Y-12519412D01*
X9193992Y-12519412D02*
X9193992Y-12347984D01*
X9374944Y-12538460D02*
X9355896Y-12547984D01*
X9355896Y-12547984D02*
X9317801Y-12547984D01*
X9317801Y-12547984D02*
X9298753Y-12538460D01*
X9298753Y-12538460D02*
X9289230Y-12519412D01*
X9289230Y-12519412D02*
X9289230Y-12443222D01*
X9289230Y-12443222D02*
X9298753Y-12424174D01*
X9298753Y-12424174D02*
X9317801Y-12414650D01*
X9317801Y-12414650D02*
X9355896Y-12414650D01*
X9355896Y-12414650D02*
X9374944Y-12424174D01*
X9374944Y-12424174D02*
X9384468Y-12443222D01*
X9384468Y-12443222D02*
X9384468Y-12462269D01*
X9384468Y-12462269D02*
X9289230Y-12481317D01*
X9460658Y-12538460D02*
X9479706Y-12547984D01*
X9479706Y-12547984D02*
X9517801Y-12547984D01*
X9517801Y-12547984D02*
X9536849Y-12538460D01*
X9536849Y-12538460D02*
X9546373Y-12519412D01*
X9546373Y-12519412D02*
X9546373Y-12509888D01*
X9546373Y-12509888D02*
X9536849Y-12490841D01*
X9536849Y-12490841D02*
X9517801Y-12481317D01*
X9517801Y-12481317D02*
X9489230Y-12481317D01*
X9489230Y-12481317D02*
X9470182Y-12471793D01*
X9470182Y-12471793D02*
X9460658Y-12452746D01*
X9460658Y-12452746D02*
X9460658Y-12443222D01*
X9460658Y-12443222D02*
X9470182Y-12424174D01*
X9470182Y-12424174D02*
X9489230Y-12414650D01*
X9489230Y-12414650D02*
X9517801Y-12414650D01*
X9517801Y-12414650D02*
X9536849Y-12424174D01*
X9613039Y-12624174D02*
X9622563Y-12614650D01*
X9622563Y-12614650D02*
X9641611Y-12586079D01*
X9641611Y-12586079D02*
X9651134Y-12567031D01*
X9651134Y-12567031D02*
X9660658Y-12538460D01*
X9660658Y-12538460D02*
X9670182Y-12490841D01*
X9670182Y-12490841D02*
X9670182Y-12452746D01*
X9670182Y-12452746D02*
X9660658Y-12405127D01*
X9660658Y-12405127D02*
X9651134Y-12376555D01*
X9651134Y-12376555D02*
X9641611Y-12357508D01*
X9641611Y-12357508D02*
X9622563Y-12328936D01*
X9622563Y-12328936D02*
X9613039Y-12319412D01*
D13*
X4563500Y-12636500D02*
X4563500Y-12804500D01*
X4479500Y-12720500D02*
X4647500Y-12720500D01*
D11*
X5013039Y-12811984D02*
X4898753Y-12811984D01*
X4955896Y-12811984D02*
X4955896Y-12611984D01*
X4955896Y-12611984D02*
X4936848Y-12640555D01*
X4936848Y-12640555D02*
X4917801Y-12659603D01*
X4917801Y-12659603D02*
X4898753Y-12669127D01*
X5098753Y-12792936D02*
X5108277Y-12802460D01*
X5108277Y-12802460D02*
X5098753Y-12811984D01*
X5098753Y-12811984D02*
X5089229Y-12802460D01*
X5089229Y-12802460D02*
X5098753Y-12792936D01*
X5098753Y-12792936D02*
X5098753Y-12811984D01*
X5279705Y-12611984D02*
X5241610Y-12611984D01*
X5241610Y-12611984D02*
X5222563Y-12621508D01*
X5222563Y-12621508D02*
X5213039Y-12631031D01*
X5213039Y-12631031D02*
X5193991Y-12659603D01*
X5193991Y-12659603D02*
X5184467Y-12697698D01*
X5184467Y-12697698D02*
X5184467Y-12773888D01*
X5184467Y-12773888D02*
X5193991Y-12792936D01*
X5193991Y-12792936D02*
X5203515Y-12802460D01*
X5203515Y-12802460D02*
X5222563Y-12811984D01*
X5222563Y-12811984D02*
X5260658Y-12811984D01*
X5260658Y-12811984D02*
X5279705Y-12802460D01*
X5279705Y-12802460D02*
X5289229Y-12792936D01*
X5289229Y-12792936D02*
X5298753Y-12773888D01*
X5298753Y-12773888D02*
X5298753Y-12726269D01*
X5298753Y-12726269D02*
X5289229Y-12707222D01*
X5289229Y-12707222D02*
X5279705Y-12697698D01*
X5279705Y-12697698D02*
X5260658Y-12688174D01*
X5260658Y-12688174D02*
X5222563Y-12688174D01*
X5222563Y-12688174D02*
X5203515Y-12697698D01*
X5203515Y-12697698D02*
X5193991Y-12707222D01*
X5193991Y-12707222D02*
X5184467Y-12726269D01*
X5413039Y-12697698D02*
X5393991Y-12688174D01*
X5393991Y-12688174D02*
X5384467Y-12678650D01*
X5384467Y-12678650D02*
X5374944Y-12659603D01*
X5374944Y-12659603D02*
X5374944Y-12650079D01*
X5374944Y-12650079D02*
X5384467Y-12631031D01*
X5384467Y-12631031D02*
X5393991Y-12621508D01*
X5393991Y-12621508D02*
X5413039Y-12611984D01*
X5413039Y-12611984D02*
X5451134Y-12611984D01*
X5451134Y-12611984D02*
X5470182Y-12621508D01*
X5470182Y-12621508D02*
X5479705Y-12631031D01*
X5479705Y-12631031D02*
X5489229Y-12650079D01*
X5489229Y-12650079D02*
X5489229Y-12659603D01*
X5489229Y-12659603D02*
X5479705Y-12678650D01*
X5479705Y-12678650D02*
X5470182Y-12688174D01*
X5470182Y-12688174D02*
X5451134Y-12697698D01*
X5451134Y-12697698D02*
X5413039Y-12697698D01*
X5413039Y-12697698D02*
X5393991Y-12707222D01*
X5393991Y-12707222D02*
X5384467Y-12716746D01*
X5384467Y-12716746D02*
X5374944Y-12735793D01*
X5374944Y-12735793D02*
X5374944Y-12773888D01*
X5374944Y-12773888D02*
X5384467Y-12792936D01*
X5384467Y-12792936D02*
X5393991Y-12802460D01*
X5393991Y-12802460D02*
X5413039Y-12811984D01*
X5413039Y-12811984D02*
X5451134Y-12811984D01*
X5451134Y-12811984D02*
X5470182Y-12802460D01*
X5470182Y-12802460D02*
X5479705Y-12792936D01*
X5479705Y-12792936D02*
X5489229Y-12773888D01*
X5489229Y-12773888D02*
X5489229Y-12735793D01*
X5489229Y-12735793D02*
X5479705Y-12716746D01*
X5479705Y-12716746D02*
X5470182Y-12707222D01*
X5470182Y-12707222D02*
X5451134Y-12697698D01*
X5613039Y-12611984D02*
X5632086Y-12611984D01*
X5632086Y-12611984D02*
X5651134Y-12621508D01*
X5651134Y-12621508D02*
X5660658Y-12631031D01*
X5660658Y-12631031D02*
X5670182Y-12650079D01*
X5670182Y-12650079D02*
X5679705Y-12688174D01*
X5679705Y-12688174D02*
X5679705Y-12735793D01*
X5679705Y-12735793D02*
X5670182Y-12773888D01*
X5670182Y-12773888D02*
X5660658Y-12792936D01*
X5660658Y-12792936D02*
X5651134Y-12802460D01*
X5651134Y-12802460D02*
X5632086Y-12811984D01*
X5632086Y-12811984D02*
X5613039Y-12811984D01*
X5613039Y-12811984D02*
X5593991Y-12802460D01*
X5593991Y-12802460D02*
X5584467Y-12792936D01*
X5584467Y-12792936D02*
X5574944Y-12773888D01*
X5574944Y-12773888D02*
X5565420Y-12735793D01*
X5565420Y-12735793D02*
X5565420Y-12688174D01*
X5565420Y-12688174D02*
X5574944Y-12650079D01*
X5574944Y-12650079D02*
X5584467Y-12631031D01*
X5584467Y-12631031D02*
X5593991Y-12621508D01*
X5593991Y-12621508D02*
X5613039Y-12611984D01*
X5765420Y-12811984D02*
X5765420Y-12678650D01*
X5765420Y-12697698D02*
X5774943Y-12688174D01*
X5774943Y-12688174D02*
X5793991Y-12678650D01*
X5793991Y-12678650D02*
X5822563Y-12678650D01*
X5822563Y-12678650D02*
X5841610Y-12688174D01*
X5841610Y-12688174D02*
X5851134Y-12707222D01*
X5851134Y-12707222D02*
X5851134Y-12811984D01*
X5851134Y-12707222D02*
X5860658Y-12688174D01*
X5860658Y-12688174D02*
X5879705Y-12678650D01*
X5879705Y-12678650D02*
X5908277Y-12678650D01*
X5908277Y-12678650D02*
X5927324Y-12688174D01*
X5927324Y-12688174D02*
X5936848Y-12707222D01*
X5936848Y-12707222D02*
X5936848Y-12811984D01*
X6032086Y-12811984D02*
X6032086Y-12678650D01*
X6032086Y-12697698D02*
X6041610Y-12688174D01*
X6041610Y-12688174D02*
X6060658Y-12678650D01*
X6060658Y-12678650D02*
X6089229Y-12678650D01*
X6089229Y-12678650D02*
X6108277Y-12688174D01*
X6108277Y-12688174D02*
X6117801Y-12707222D01*
X6117801Y-12707222D02*
X6117801Y-12811984D01*
X6117801Y-12707222D02*
X6127324Y-12688174D01*
X6127324Y-12688174D02*
X6146372Y-12678650D01*
X6146372Y-12678650D02*
X6174943Y-12678650D01*
X6174943Y-12678650D02*
X6193991Y-12688174D01*
X6193991Y-12688174D02*
X6203515Y-12707222D01*
X6203515Y-12707222D02*
X6203515Y-12811984D01*
X6593991Y-12602460D02*
X6422563Y-12859603D01*
X6851134Y-12611984D02*
X6870182Y-12611984D01*
X6870182Y-12611984D02*
X6889229Y-12621508D01*
X6889229Y-12621508D02*
X6898753Y-12631031D01*
X6898753Y-12631031D02*
X6908277Y-12650079D01*
X6908277Y-12650079D02*
X6917801Y-12688174D01*
X6917801Y-12688174D02*
X6917801Y-12735793D01*
X6917801Y-12735793D02*
X6908277Y-12773888D01*
X6908277Y-12773888D02*
X6898753Y-12792936D01*
X6898753Y-12792936D02*
X6889229Y-12802460D01*
X6889229Y-12802460D02*
X6870182Y-12811984D01*
X6870182Y-12811984D02*
X6851134Y-12811984D01*
X6851134Y-12811984D02*
X6832086Y-12802460D01*
X6832086Y-12802460D02*
X6822563Y-12792936D01*
X6822563Y-12792936D02*
X6813039Y-12773888D01*
X6813039Y-12773888D02*
X6803515Y-12735793D01*
X6803515Y-12735793D02*
X6803515Y-12688174D01*
X6803515Y-12688174D02*
X6813039Y-12650079D01*
X6813039Y-12650079D02*
X6822563Y-12631031D01*
X6822563Y-12631031D02*
X6832086Y-12621508D01*
X6832086Y-12621508D02*
X6851134Y-12611984D01*
X7003515Y-12792936D02*
X7013039Y-12802460D01*
X7013039Y-12802460D02*
X7003515Y-12811984D01*
X7003515Y-12811984D02*
X6993991Y-12802460D01*
X6993991Y-12802460D02*
X7003515Y-12792936D01*
X7003515Y-12792936D02*
X7003515Y-12811984D01*
X7136848Y-12611984D02*
X7155896Y-12611984D01*
X7155896Y-12611984D02*
X7174944Y-12621508D01*
X7174944Y-12621508D02*
X7184467Y-12631031D01*
X7184467Y-12631031D02*
X7193991Y-12650079D01*
X7193991Y-12650079D02*
X7203515Y-12688174D01*
X7203515Y-12688174D02*
X7203515Y-12735793D01*
X7203515Y-12735793D02*
X7193991Y-12773888D01*
X7193991Y-12773888D02*
X7184467Y-12792936D01*
X7184467Y-12792936D02*
X7174944Y-12802460D01*
X7174944Y-12802460D02*
X7155896Y-12811984D01*
X7155896Y-12811984D02*
X7136848Y-12811984D01*
X7136848Y-12811984D02*
X7117801Y-12802460D01*
X7117801Y-12802460D02*
X7108277Y-12792936D01*
X7108277Y-12792936D02*
X7098753Y-12773888D01*
X7098753Y-12773888D02*
X7089229Y-12735793D01*
X7089229Y-12735793D02*
X7089229Y-12688174D01*
X7089229Y-12688174D02*
X7098753Y-12650079D01*
X7098753Y-12650079D02*
X7108277Y-12631031D01*
X7108277Y-12631031D02*
X7117801Y-12621508D01*
X7117801Y-12621508D02*
X7136848Y-12611984D01*
X7374944Y-12611984D02*
X7336848Y-12611984D01*
X7336848Y-12611984D02*
X7317801Y-12621508D01*
X7317801Y-12621508D02*
X7308277Y-12631031D01*
X7308277Y-12631031D02*
X7289229Y-12659603D01*
X7289229Y-12659603D02*
X7279706Y-12697698D01*
X7279706Y-12697698D02*
X7279706Y-12773888D01*
X7279706Y-12773888D02*
X7289229Y-12792936D01*
X7289229Y-12792936D02*
X7298753Y-12802460D01*
X7298753Y-12802460D02*
X7317801Y-12811984D01*
X7317801Y-12811984D02*
X7355896Y-12811984D01*
X7355896Y-12811984D02*
X7374944Y-12802460D01*
X7374944Y-12802460D02*
X7384467Y-12792936D01*
X7384467Y-12792936D02*
X7393991Y-12773888D01*
X7393991Y-12773888D02*
X7393991Y-12726269D01*
X7393991Y-12726269D02*
X7384467Y-12707222D01*
X7384467Y-12707222D02*
X7374944Y-12697698D01*
X7374944Y-12697698D02*
X7355896Y-12688174D01*
X7355896Y-12688174D02*
X7317801Y-12688174D01*
X7317801Y-12688174D02*
X7298753Y-12697698D01*
X7298753Y-12697698D02*
X7289229Y-12707222D01*
X7289229Y-12707222D02*
X7279706Y-12726269D01*
X7565420Y-12611984D02*
X7527325Y-12611984D01*
X7527325Y-12611984D02*
X7508277Y-12621508D01*
X7508277Y-12621508D02*
X7498753Y-12631031D01*
X7498753Y-12631031D02*
X7479706Y-12659603D01*
X7479706Y-12659603D02*
X7470182Y-12697698D01*
X7470182Y-12697698D02*
X7470182Y-12773888D01*
X7470182Y-12773888D02*
X7479706Y-12792936D01*
X7479706Y-12792936D02*
X7489229Y-12802460D01*
X7489229Y-12802460D02*
X7508277Y-12811984D01*
X7508277Y-12811984D02*
X7546372Y-12811984D01*
X7546372Y-12811984D02*
X7565420Y-12802460D01*
X7565420Y-12802460D02*
X7574944Y-12792936D01*
X7574944Y-12792936D02*
X7584467Y-12773888D01*
X7584467Y-12773888D02*
X7584467Y-12726269D01*
X7584467Y-12726269D02*
X7574944Y-12707222D01*
X7574944Y-12707222D02*
X7565420Y-12697698D01*
X7565420Y-12697698D02*
X7546372Y-12688174D01*
X7546372Y-12688174D02*
X7508277Y-12688174D01*
X7508277Y-12688174D02*
X7489229Y-12697698D01*
X7489229Y-12697698D02*
X7479706Y-12707222D01*
X7479706Y-12707222D02*
X7470182Y-12726269D01*
X7774944Y-12811984D02*
X7660658Y-12811984D01*
X7717801Y-12811984D02*
X7717801Y-12611984D01*
X7717801Y-12611984D02*
X7698753Y-12640555D01*
X7698753Y-12640555D02*
X7679706Y-12659603D01*
X7679706Y-12659603D02*
X7660658Y-12669127D01*
X7851134Y-12611984D02*
X7851134Y-12650079D01*
X7927325Y-12611984D02*
X7927325Y-12650079D01*
X8222563Y-12888174D02*
X8213039Y-12878650D01*
X8213039Y-12878650D02*
X8193991Y-12850079D01*
X8193991Y-12850079D02*
X8184468Y-12831031D01*
X8184468Y-12831031D02*
X8174944Y-12802460D01*
X8174944Y-12802460D02*
X8165420Y-12754841D01*
X8165420Y-12754841D02*
X8165420Y-12716746D01*
X8165420Y-12716746D02*
X8174944Y-12669127D01*
X8174944Y-12669127D02*
X8184468Y-12640555D01*
X8184468Y-12640555D02*
X8193991Y-12621508D01*
X8193991Y-12621508D02*
X8213039Y-12592936D01*
X8213039Y-12592936D02*
X8222563Y-12583412D01*
X8308277Y-12811984D02*
X8346372Y-12811984D01*
X8346372Y-12811984D02*
X8365420Y-12802460D01*
X8365420Y-12802460D02*
X8374944Y-12792936D01*
X8374944Y-12792936D02*
X8393991Y-12764365D01*
X8393991Y-12764365D02*
X8403515Y-12726269D01*
X8403515Y-12726269D02*
X8403515Y-12650079D01*
X8403515Y-12650079D02*
X8393991Y-12631031D01*
X8393991Y-12631031D02*
X8384468Y-12621508D01*
X8384468Y-12621508D02*
X8365420Y-12611984D01*
X8365420Y-12611984D02*
X8327325Y-12611984D01*
X8327325Y-12611984D02*
X8308277Y-12621508D01*
X8308277Y-12621508D02*
X8298753Y-12631031D01*
X8298753Y-12631031D02*
X8289229Y-12650079D01*
X8289229Y-12650079D02*
X8289229Y-12697698D01*
X8289229Y-12697698D02*
X8298753Y-12716746D01*
X8298753Y-12716746D02*
X8308277Y-12726269D01*
X8308277Y-12726269D02*
X8327325Y-12735793D01*
X8327325Y-12735793D02*
X8365420Y-12735793D01*
X8365420Y-12735793D02*
X8384468Y-12726269D01*
X8384468Y-12726269D02*
X8393991Y-12716746D01*
X8393991Y-12716746D02*
X8403515Y-12697698D01*
X8574944Y-12611984D02*
X8536849Y-12611984D01*
X8536849Y-12611984D02*
X8517801Y-12621508D01*
X8517801Y-12621508D02*
X8508277Y-12631031D01*
X8508277Y-12631031D02*
X8489230Y-12659603D01*
X8489230Y-12659603D02*
X8479706Y-12697698D01*
X8479706Y-12697698D02*
X8479706Y-12773888D01*
X8479706Y-12773888D02*
X8489230Y-12792936D01*
X8489230Y-12792936D02*
X8498753Y-12802460D01*
X8498753Y-12802460D02*
X8517801Y-12811984D01*
X8517801Y-12811984D02*
X8555896Y-12811984D01*
X8555896Y-12811984D02*
X8574944Y-12802460D01*
X8574944Y-12802460D02*
X8584468Y-12792936D01*
X8584468Y-12792936D02*
X8593991Y-12773888D01*
X8593991Y-12773888D02*
X8593991Y-12726269D01*
X8593991Y-12726269D02*
X8584468Y-12707222D01*
X8584468Y-12707222D02*
X8574944Y-12697698D01*
X8574944Y-12697698D02*
X8555896Y-12688174D01*
X8555896Y-12688174D02*
X8517801Y-12688174D01*
X8517801Y-12688174D02*
X8498753Y-12697698D01*
X8498753Y-12697698D02*
X8489230Y-12707222D01*
X8489230Y-12707222D02*
X8479706Y-12726269D01*
X8832087Y-12811984D02*
X8832087Y-12611984D01*
X8917801Y-12811984D02*
X8917801Y-12707222D01*
X8917801Y-12707222D02*
X8908277Y-12688174D01*
X8908277Y-12688174D02*
X8889230Y-12678650D01*
X8889230Y-12678650D02*
X8860658Y-12678650D01*
X8860658Y-12678650D02*
X8841611Y-12688174D01*
X8841611Y-12688174D02*
X8832087Y-12697698D01*
X9041611Y-12811984D02*
X9022563Y-12802460D01*
X9022563Y-12802460D02*
X9013039Y-12792936D01*
X9013039Y-12792936D02*
X9003515Y-12773888D01*
X9003515Y-12773888D02*
X9003515Y-12716746D01*
X9003515Y-12716746D02*
X9013039Y-12697698D01*
X9013039Y-12697698D02*
X9022563Y-12688174D01*
X9022563Y-12688174D02*
X9041611Y-12678650D01*
X9041611Y-12678650D02*
X9070182Y-12678650D01*
X9070182Y-12678650D02*
X9089230Y-12688174D01*
X9089230Y-12688174D02*
X9098753Y-12697698D01*
X9098753Y-12697698D02*
X9108277Y-12716746D01*
X9108277Y-12716746D02*
X9108277Y-12773888D01*
X9108277Y-12773888D02*
X9098753Y-12792936D01*
X9098753Y-12792936D02*
X9089230Y-12802460D01*
X9089230Y-12802460D02*
X9070182Y-12811984D01*
X9070182Y-12811984D02*
X9041611Y-12811984D01*
X9222563Y-12811984D02*
X9203515Y-12802460D01*
X9203515Y-12802460D02*
X9193992Y-12783412D01*
X9193992Y-12783412D02*
X9193992Y-12611984D01*
X9374944Y-12802460D02*
X9355896Y-12811984D01*
X9355896Y-12811984D02*
X9317801Y-12811984D01*
X9317801Y-12811984D02*
X9298753Y-12802460D01*
X9298753Y-12802460D02*
X9289230Y-12783412D01*
X9289230Y-12783412D02*
X9289230Y-12707222D01*
X9289230Y-12707222D02*
X9298753Y-12688174D01*
X9298753Y-12688174D02*
X9317801Y-12678650D01*
X9317801Y-12678650D02*
X9355896Y-12678650D01*
X9355896Y-12678650D02*
X9374944Y-12688174D01*
X9374944Y-12688174D02*
X9384468Y-12707222D01*
X9384468Y-12707222D02*
X9384468Y-12726269D01*
X9384468Y-12726269D02*
X9289230Y-12745317D01*
X9460658Y-12802460D02*
X9479706Y-12811984D01*
X9479706Y-12811984D02*
X9517801Y-12811984D01*
X9517801Y-12811984D02*
X9536849Y-12802460D01*
X9536849Y-12802460D02*
X9546373Y-12783412D01*
X9546373Y-12783412D02*
X9546373Y-12773888D01*
X9546373Y-12773888D02*
X9536849Y-12754841D01*
X9536849Y-12754841D02*
X9517801Y-12745317D01*
X9517801Y-12745317D02*
X9489230Y-12745317D01*
X9489230Y-12745317D02*
X9470182Y-12735793D01*
X9470182Y-12735793D02*
X9460658Y-12716746D01*
X9460658Y-12716746D02*
X9460658Y-12707222D01*
X9460658Y-12707222D02*
X9470182Y-12688174D01*
X9470182Y-12688174D02*
X9489230Y-12678650D01*
X9489230Y-12678650D02*
X9517801Y-12678650D01*
X9517801Y-12678650D02*
X9536849Y-12688174D01*
X9613039Y-12888174D02*
X9622563Y-12878650D01*
X9622563Y-12878650D02*
X9641611Y-12850079D01*
X9641611Y-12850079D02*
X9651134Y-12831031D01*
X9651134Y-12831031D02*
X9660658Y-12802460D01*
X9660658Y-12802460D02*
X9670182Y-12754841D01*
X9670182Y-12754841D02*
X9670182Y-12716746D01*
X9670182Y-12716746D02*
X9660658Y-12669127D01*
X9660658Y-12669127D02*
X9651134Y-12640555D01*
X9651134Y-12640555D02*
X9641611Y-12621508D01*
X9641611Y-12621508D02*
X9622563Y-12592936D01*
X9622563Y-12592936D02*
X9613039Y-12583412D01*
M02*
