%TF.GenerationSoftware,KiCad,Pcbnew,8.0.2*%
%TF.CreationDate,2024-05-29T18:11:17+12:00*%
%TF.ProjectId,nixie_board,6e697869-655f-4626-9f61-72642e6b6963,0.1.0*%
%TF.SameCoordinates,Original*%
%TF.FileFunction,Legend,Top*%
%TF.FilePolarity,Positive*%
%FSLAX46Y46*%
G04 Gerber Fmt 4.6, Leading zero omitted, Abs format (unit mm)*
G04 Created by KiCad (PCBNEW 8.0.2) date 2024-05-29 18:11:17*
%MOMM*%
%LPD*%
G01*
G04 APERTURE LIST*
%ADD10C,0.153000*%
%ADD11C,0.120000*%
%ADD12C,0.100000*%
G04 APERTURE END LIST*
D10*
X55233333Y-85624663D02*
X54900000Y-85148472D01*
X54661905Y-85624663D02*
X54661905Y-84624663D01*
X54661905Y-84624663D02*
X55042857Y-84624663D01*
X55042857Y-84624663D02*
X55138095Y-84672282D01*
X55138095Y-84672282D02*
X55185714Y-84719901D01*
X55185714Y-84719901D02*
X55233333Y-84815139D01*
X55233333Y-84815139D02*
X55233333Y-84957996D01*
X55233333Y-84957996D02*
X55185714Y-85053234D01*
X55185714Y-85053234D02*
X55138095Y-85100853D01*
X55138095Y-85100853D02*
X55042857Y-85148472D01*
X55042857Y-85148472D02*
X54661905Y-85148472D01*
X55566667Y-84624663D02*
X56185714Y-84624663D01*
X56185714Y-84624663D02*
X55852381Y-85005615D01*
X55852381Y-85005615D02*
X55995238Y-85005615D01*
X55995238Y-85005615D02*
X56090476Y-85053234D01*
X56090476Y-85053234D02*
X56138095Y-85100853D01*
X56138095Y-85100853D02*
X56185714Y-85196091D01*
X56185714Y-85196091D02*
X56185714Y-85434186D01*
X56185714Y-85434186D02*
X56138095Y-85529424D01*
X56138095Y-85529424D02*
X56090476Y-85577044D01*
X56090476Y-85577044D02*
X55995238Y-85624663D01*
X55995238Y-85624663D02*
X55709524Y-85624663D01*
X55709524Y-85624663D02*
X55614286Y-85577044D01*
X55614286Y-85577044D02*
X55566667Y-85529424D01*
X95919642Y-98104663D02*
X95586309Y-97628472D01*
X95348214Y-98104663D02*
X95348214Y-97104663D01*
X95348214Y-97104663D02*
X95729166Y-97104663D01*
X95729166Y-97104663D02*
X95824404Y-97152282D01*
X95824404Y-97152282D02*
X95872023Y-97199901D01*
X95872023Y-97199901D02*
X95919642Y-97295139D01*
X95919642Y-97295139D02*
X95919642Y-97437996D01*
X95919642Y-97437996D02*
X95872023Y-97533234D01*
X95872023Y-97533234D02*
X95824404Y-97580853D01*
X95824404Y-97580853D02*
X95729166Y-97628472D01*
X95729166Y-97628472D02*
X95348214Y-97628472D01*
X96252976Y-97104663D02*
X96872023Y-97104663D01*
X96872023Y-97104663D02*
X96538690Y-97485615D01*
X96538690Y-97485615D02*
X96681547Y-97485615D01*
X96681547Y-97485615D02*
X96776785Y-97533234D01*
X96776785Y-97533234D02*
X96824404Y-97580853D01*
X96824404Y-97580853D02*
X96872023Y-97676091D01*
X96872023Y-97676091D02*
X96872023Y-97914186D01*
X96872023Y-97914186D02*
X96824404Y-98009424D01*
X96824404Y-98009424D02*
X96776785Y-98057044D01*
X96776785Y-98057044D02*
X96681547Y-98104663D01*
X96681547Y-98104663D02*
X96395833Y-98104663D01*
X96395833Y-98104663D02*
X96300595Y-98057044D01*
X96300595Y-98057044D02*
X96252976Y-98009424D01*
X97252976Y-97199901D02*
X97300595Y-97152282D01*
X97300595Y-97152282D02*
X97395833Y-97104663D01*
X97395833Y-97104663D02*
X97633928Y-97104663D01*
X97633928Y-97104663D02*
X97729166Y-97152282D01*
X97729166Y-97152282D02*
X97776785Y-97199901D01*
X97776785Y-97199901D02*
X97824404Y-97295139D01*
X97824404Y-97295139D02*
X97824404Y-97390377D01*
X97824404Y-97390377D02*
X97776785Y-97533234D01*
X97776785Y-97533234D02*
X97205357Y-98104663D01*
X97205357Y-98104663D02*
X97824404Y-98104663D01*
X92428571Y-91949901D02*
X92333333Y-91902282D01*
X92333333Y-91902282D02*
X92238095Y-91807044D01*
X92238095Y-91807044D02*
X92095238Y-91664186D01*
X92095238Y-91664186D02*
X92000000Y-91616567D01*
X92000000Y-91616567D02*
X91904762Y-91616567D01*
X91952381Y-91854663D02*
X91857143Y-91807044D01*
X91857143Y-91807044D02*
X91761905Y-91711805D01*
X91761905Y-91711805D02*
X91714286Y-91521329D01*
X91714286Y-91521329D02*
X91714286Y-91187996D01*
X91714286Y-91187996D02*
X91761905Y-90997520D01*
X91761905Y-90997520D02*
X91857143Y-90902282D01*
X91857143Y-90902282D02*
X91952381Y-90854663D01*
X91952381Y-90854663D02*
X92142857Y-90854663D01*
X92142857Y-90854663D02*
X92238095Y-90902282D01*
X92238095Y-90902282D02*
X92333333Y-90997520D01*
X92333333Y-90997520D02*
X92380952Y-91187996D01*
X92380952Y-91187996D02*
X92380952Y-91521329D01*
X92380952Y-91521329D02*
X92333333Y-91711805D01*
X92333333Y-91711805D02*
X92238095Y-91807044D01*
X92238095Y-91807044D02*
X92142857Y-91854663D01*
X92142857Y-91854663D02*
X91952381Y-91854663D01*
X93333333Y-91854663D02*
X92761905Y-91854663D01*
X93047619Y-91854663D02*
X93047619Y-90854663D01*
X93047619Y-90854663D02*
X92952381Y-90997520D01*
X92952381Y-90997520D02*
X92857143Y-91092758D01*
X92857143Y-91092758D02*
X92761905Y-91140377D01*
X94190476Y-91187996D02*
X94190476Y-91854663D01*
X93952381Y-90807044D02*
X93714286Y-91521329D01*
X93714286Y-91521329D02*
X94333333Y-91521329D01*
X137227142Y-91494663D02*
X136893809Y-91018472D01*
X136655714Y-91494663D02*
X136655714Y-90494663D01*
X136655714Y-90494663D02*
X137036666Y-90494663D01*
X137036666Y-90494663D02*
X137131904Y-90542282D01*
X137131904Y-90542282D02*
X137179523Y-90589901D01*
X137179523Y-90589901D02*
X137227142Y-90685139D01*
X137227142Y-90685139D02*
X137227142Y-90827996D01*
X137227142Y-90827996D02*
X137179523Y-90923234D01*
X137179523Y-90923234D02*
X137131904Y-90970853D01*
X137131904Y-90970853D02*
X137036666Y-91018472D01*
X137036666Y-91018472D02*
X136655714Y-91018472D01*
X137560476Y-90494663D02*
X138179523Y-90494663D01*
X138179523Y-90494663D02*
X137846190Y-90875615D01*
X137846190Y-90875615D02*
X137989047Y-90875615D01*
X137989047Y-90875615D02*
X138084285Y-90923234D01*
X138084285Y-90923234D02*
X138131904Y-90970853D01*
X138131904Y-90970853D02*
X138179523Y-91066091D01*
X138179523Y-91066091D02*
X138179523Y-91304186D01*
X138179523Y-91304186D02*
X138131904Y-91399424D01*
X138131904Y-91399424D02*
X138084285Y-91447044D01*
X138084285Y-91447044D02*
X137989047Y-91494663D01*
X137989047Y-91494663D02*
X137703333Y-91494663D01*
X137703333Y-91494663D02*
X137608095Y-91447044D01*
X137608095Y-91447044D02*
X137560476Y-91399424D01*
X138512857Y-90494663D02*
X139179523Y-90494663D01*
X139179523Y-90494663D02*
X138750952Y-91494663D01*
X211634663Y-65642857D02*
X211158472Y-65976190D01*
X211634663Y-66214285D02*
X210634663Y-66214285D01*
X210634663Y-66214285D02*
X210634663Y-65833333D01*
X210634663Y-65833333D02*
X210682282Y-65738095D01*
X210682282Y-65738095D02*
X210729901Y-65690476D01*
X210729901Y-65690476D02*
X210825139Y-65642857D01*
X210825139Y-65642857D02*
X210967996Y-65642857D01*
X210967996Y-65642857D02*
X211063234Y-65690476D01*
X211063234Y-65690476D02*
X211110853Y-65738095D01*
X211110853Y-65738095D02*
X211158472Y-65833333D01*
X211158472Y-65833333D02*
X211158472Y-66214285D01*
X210729901Y-65261904D02*
X210682282Y-65214285D01*
X210682282Y-65214285D02*
X210634663Y-65119047D01*
X210634663Y-65119047D02*
X210634663Y-64880952D01*
X210634663Y-64880952D02*
X210682282Y-64785714D01*
X210682282Y-64785714D02*
X210729901Y-64738095D01*
X210729901Y-64738095D02*
X210825139Y-64690476D01*
X210825139Y-64690476D02*
X210920377Y-64690476D01*
X210920377Y-64690476D02*
X211063234Y-64738095D01*
X211063234Y-64738095D02*
X211634663Y-65309523D01*
X211634663Y-65309523D02*
X211634663Y-64690476D01*
X210634663Y-64357142D02*
X210634663Y-63738095D01*
X210634663Y-63738095D02*
X211015615Y-64071428D01*
X211015615Y-64071428D02*
X211015615Y-63928571D01*
X211015615Y-63928571D02*
X211063234Y-63833333D01*
X211063234Y-63833333D02*
X211110853Y-63785714D01*
X211110853Y-63785714D02*
X211206091Y-63738095D01*
X211206091Y-63738095D02*
X211444186Y-63738095D01*
X211444186Y-63738095D02*
X211539424Y-63785714D01*
X211539424Y-63785714D02*
X211587044Y-63833333D01*
X211587044Y-63833333D02*
X211634663Y-63928571D01*
X211634663Y-63928571D02*
X211634663Y-64214285D01*
X211634663Y-64214285D02*
X211587044Y-64309523D01*
X211587044Y-64309523D02*
X211539424Y-64357142D01*
X54857142Y-65624663D02*
X54523809Y-65148472D01*
X54285714Y-65624663D02*
X54285714Y-64624663D01*
X54285714Y-64624663D02*
X54666666Y-64624663D01*
X54666666Y-64624663D02*
X54761904Y-64672282D01*
X54761904Y-64672282D02*
X54809523Y-64719901D01*
X54809523Y-64719901D02*
X54857142Y-64815139D01*
X54857142Y-64815139D02*
X54857142Y-64957996D01*
X54857142Y-64957996D02*
X54809523Y-65053234D01*
X54809523Y-65053234D02*
X54761904Y-65100853D01*
X54761904Y-65100853D02*
X54666666Y-65148472D01*
X54666666Y-65148472D02*
X54285714Y-65148472D01*
X55809523Y-65624663D02*
X55238095Y-65624663D01*
X55523809Y-65624663D02*
X55523809Y-64624663D01*
X55523809Y-64624663D02*
X55428571Y-64767520D01*
X55428571Y-64767520D02*
X55333333Y-64862758D01*
X55333333Y-64862758D02*
X55238095Y-64910377D01*
X56428571Y-64624663D02*
X56523809Y-64624663D01*
X56523809Y-64624663D02*
X56619047Y-64672282D01*
X56619047Y-64672282D02*
X56666666Y-64719901D01*
X56666666Y-64719901D02*
X56714285Y-64815139D01*
X56714285Y-64815139D02*
X56761904Y-65005615D01*
X56761904Y-65005615D02*
X56761904Y-65243710D01*
X56761904Y-65243710D02*
X56714285Y-65434186D01*
X56714285Y-65434186D02*
X56666666Y-65529424D01*
X56666666Y-65529424D02*
X56619047Y-65577044D01*
X56619047Y-65577044D02*
X56523809Y-65624663D01*
X56523809Y-65624663D02*
X56428571Y-65624663D01*
X56428571Y-65624663D02*
X56333333Y-65577044D01*
X56333333Y-65577044D02*
X56285714Y-65529424D01*
X56285714Y-65529424D02*
X56238095Y-65434186D01*
X56238095Y-65434186D02*
X56190476Y-65243710D01*
X56190476Y-65243710D02*
X56190476Y-65005615D01*
X56190476Y-65005615D02*
X56238095Y-64815139D01*
X56238095Y-64815139D02*
X56285714Y-64719901D01*
X56285714Y-64719901D02*
X56333333Y-64672282D01*
X56333333Y-64672282D02*
X56428571Y-64624663D01*
X206344663Y-96162857D02*
X205868472Y-96496190D01*
X206344663Y-96734285D02*
X205344663Y-96734285D01*
X205344663Y-96734285D02*
X205344663Y-96353333D01*
X205344663Y-96353333D02*
X205392282Y-96258095D01*
X205392282Y-96258095D02*
X205439901Y-96210476D01*
X205439901Y-96210476D02*
X205535139Y-96162857D01*
X205535139Y-96162857D02*
X205677996Y-96162857D01*
X205677996Y-96162857D02*
X205773234Y-96210476D01*
X205773234Y-96210476D02*
X205820853Y-96258095D01*
X205820853Y-96258095D02*
X205868472Y-96353333D01*
X205868472Y-96353333D02*
X205868472Y-96734285D01*
X205344663Y-95258095D02*
X205344663Y-95734285D01*
X205344663Y-95734285D02*
X205820853Y-95781904D01*
X205820853Y-95781904D02*
X205773234Y-95734285D01*
X205773234Y-95734285D02*
X205725615Y-95639047D01*
X205725615Y-95639047D02*
X205725615Y-95400952D01*
X205725615Y-95400952D02*
X205773234Y-95305714D01*
X205773234Y-95305714D02*
X205820853Y-95258095D01*
X205820853Y-95258095D02*
X205916091Y-95210476D01*
X205916091Y-95210476D02*
X206154186Y-95210476D01*
X206154186Y-95210476D02*
X206249424Y-95258095D01*
X206249424Y-95258095D02*
X206297044Y-95305714D01*
X206297044Y-95305714D02*
X206344663Y-95400952D01*
X206344663Y-95400952D02*
X206344663Y-95639047D01*
X206344663Y-95639047D02*
X206297044Y-95734285D01*
X206297044Y-95734285D02*
X206249424Y-95781904D01*
X205344663Y-94591428D02*
X205344663Y-94496190D01*
X205344663Y-94496190D02*
X205392282Y-94400952D01*
X205392282Y-94400952D02*
X205439901Y-94353333D01*
X205439901Y-94353333D02*
X205535139Y-94305714D01*
X205535139Y-94305714D02*
X205725615Y-94258095D01*
X205725615Y-94258095D02*
X205963710Y-94258095D01*
X205963710Y-94258095D02*
X206154186Y-94305714D01*
X206154186Y-94305714D02*
X206249424Y-94353333D01*
X206249424Y-94353333D02*
X206297044Y-94400952D01*
X206297044Y-94400952D02*
X206344663Y-94496190D01*
X206344663Y-94496190D02*
X206344663Y-94591428D01*
X206344663Y-94591428D02*
X206297044Y-94686666D01*
X206297044Y-94686666D02*
X206249424Y-94734285D01*
X206249424Y-94734285D02*
X206154186Y-94781904D01*
X206154186Y-94781904D02*
X205963710Y-94829523D01*
X205963710Y-94829523D02*
X205725615Y-94829523D01*
X205725615Y-94829523D02*
X205535139Y-94781904D01*
X205535139Y-94781904D02*
X205439901Y-94734285D01*
X205439901Y-94734285D02*
X205392282Y-94686666D01*
X205392282Y-94686666D02*
X205344663Y-94591428D01*
X55333333Y-70624663D02*
X55000000Y-70148472D01*
X54761905Y-70624663D02*
X54761905Y-69624663D01*
X54761905Y-69624663D02*
X55142857Y-69624663D01*
X55142857Y-69624663D02*
X55238095Y-69672282D01*
X55238095Y-69672282D02*
X55285714Y-69719901D01*
X55285714Y-69719901D02*
X55333333Y-69815139D01*
X55333333Y-69815139D02*
X55333333Y-69957996D01*
X55333333Y-69957996D02*
X55285714Y-70053234D01*
X55285714Y-70053234D02*
X55238095Y-70100853D01*
X55238095Y-70100853D02*
X55142857Y-70148472D01*
X55142857Y-70148472D02*
X54761905Y-70148472D01*
X55809524Y-70624663D02*
X56000000Y-70624663D01*
X56000000Y-70624663D02*
X56095238Y-70577044D01*
X56095238Y-70577044D02*
X56142857Y-70529424D01*
X56142857Y-70529424D02*
X56238095Y-70386567D01*
X56238095Y-70386567D02*
X56285714Y-70196091D01*
X56285714Y-70196091D02*
X56285714Y-69815139D01*
X56285714Y-69815139D02*
X56238095Y-69719901D01*
X56238095Y-69719901D02*
X56190476Y-69672282D01*
X56190476Y-69672282D02*
X56095238Y-69624663D01*
X56095238Y-69624663D02*
X55904762Y-69624663D01*
X55904762Y-69624663D02*
X55809524Y-69672282D01*
X55809524Y-69672282D02*
X55761905Y-69719901D01*
X55761905Y-69719901D02*
X55714286Y-69815139D01*
X55714286Y-69815139D02*
X55714286Y-70053234D01*
X55714286Y-70053234D02*
X55761905Y-70148472D01*
X55761905Y-70148472D02*
X55809524Y-70196091D01*
X55809524Y-70196091D02*
X55904762Y-70243710D01*
X55904762Y-70243710D02*
X56095238Y-70243710D01*
X56095238Y-70243710D02*
X56190476Y-70196091D01*
X56190476Y-70196091D02*
X56238095Y-70148472D01*
X56238095Y-70148472D02*
X56285714Y-70053234D01*
X71919642Y-98104663D02*
X71586309Y-97628472D01*
X71348214Y-98104663D02*
X71348214Y-97104663D01*
X71348214Y-97104663D02*
X71729166Y-97104663D01*
X71729166Y-97104663D02*
X71824404Y-97152282D01*
X71824404Y-97152282D02*
X71872023Y-97199901D01*
X71872023Y-97199901D02*
X71919642Y-97295139D01*
X71919642Y-97295139D02*
X71919642Y-97437996D01*
X71919642Y-97437996D02*
X71872023Y-97533234D01*
X71872023Y-97533234D02*
X71824404Y-97580853D01*
X71824404Y-97580853D02*
X71729166Y-97628472D01*
X71729166Y-97628472D02*
X71348214Y-97628472D01*
X72300595Y-97199901D02*
X72348214Y-97152282D01*
X72348214Y-97152282D02*
X72443452Y-97104663D01*
X72443452Y-97104663D02*
X72681547Y-97104663D01*
X72681547Y-97104663D02*
X72776785Y-97152282D01*
X72776785Y-97152282D02*
X72824404Y-97199901D01*
X72824404Y-97199901D02*
X72872023Y-97295139D01*
X72872023Y-97295139D02*
X72872023Y-97390377D01*
X72872023Y-97390377D02*
X72824404Y-97533234D01*
X72824404Y-97533234D02*
X72252976Y-98104663D01*
X72252976Y-98104663D02*
X72872023Y-98104663D01*
X73443452Y-97533234D02*
X73348214Y-97485615D01*
X73348214Y-97485615D02*
X73300595Y-97437996D01*
X73300595Y-97437996D02*
X73252976Y-97342758D01*
X73252976Y-97342758D02*
X73252976Y-97295139D01*
X73252976Y-97295139D02*
X73300595Y-97199901D01*
X73300595Y-97199901D02*
X73348214Y-97152282D01*
X73348214Y-97152282D02*
X73443452Y-97104663D01*
X73443452Y-97104663D02*
X73633928Y-97104663D01*
X73633928Y-97104663D02*
X73729166Y-97152282D01*
X73729166Y-97152282D02*
X73776785Y-97199901D01*
X73776785Y-97199901D02*
X73824404Y-97295139D01*
X73824404Y-97295139D02*
X73824404Y-97342758D01*
X73824404Y-97342758D02*
X73776785Y-97437996D01*
X73776785Y-97437996D02*
X73729166Y-97485615D01*
X73729166Y-97485615D02*
X73633928Y-97533234D01*
X73633928Y-97533234D02*
X73443452Y-97533234D01*
X73443452Y-97533234D02*
X73348214Y-97580853D01*
X73348214Y-97580853D02*
X73300595Y-97628472D01*
X73300595Y-97628472D02*
X73252976Y-97723710D01*
X73252976Y-97723710D02*
X73252976Y-97914186D01*
X73252976Y-97914186D02*
X73300595Y-98009424D01*
X73300595Y-98009424D02*
X73348214Y-98057044D01*
X73348214Y-98057044D02*
X73443452Y-98104663D01*
X73443452Y-98104663D02*
X73633928Y-98104663D01*
X73633928Y-98104663D02*
X73729166Y-98057044D01*
X73729166Y-98057044D02*
X73776785Y-98009424D01*
X73776785Y-98009424D02*
X73824404Y-97914186D01*
X73824404Y-97914186D02*
X73824404Y-97723710D01*
X73824404Y-97723710D02*
X73776785Y-97628472D01*
X73776785Y-97628472D02*
X73729166Y-97580853D01*
X73729166Y-97580853D02*
X73633928Y-97533234D01*
X92428571Y-101249901D02*
X92333333Y-101202282D01*
X92333333Y-101202282D02*
X92238095Y-101107044D01*
X92238095Y-101107044D02*
X92095238Y-100964186D01*
X92095238Y-100964186D02*
X92000000Y-100916567D01*
X92000000Y-100916567D02*
X91904762Y-100916567D01*
X91952381Y-101154663D02*
X91857143Y-101107044D01*
X91857143Y-101107044D02*
X91761905Y-101011805D01*
X91761905Y-101011805D02*
X91714286Y-100821329D01*
X91714286Y-100821329D02*
X91714286Y-100487996D01*
X91714286Y-100487996D02*
X91761905Y-100297520D01*
X91761905Y-100297520D02*
X91857143Y-100202282D01*
X91857143Y-100202282D02*
X91952381Y-100154663D01*
X91952381Y-100154663D02*
X92142857Y-100154663D01*
X92142857Y-100154663D02*
X92238095Y-100202282D01*
X92238095Y-100202282D02*
X92333333Y-100297520D01*
X92333333Y-100297520D02*
X92380952Y-100487996D01*
X92380952Y-100487996D02*
X92380952Y-100821329D01*
X92380952Y-100821329D02*
X92333333Y-101011805D01*
X92333333Y-101011805D02*
X92238095Y-101107044D01*
X92238095Y-101107044D02*
X92142857Y-101154663D01*
X92142857Y-101154663D02*
X91952381Y-101154663D01*
X93333333Y-101154663D02*
X92761905Y-101154663D01*
X93047619Y-101154663D02*
X93047619Y-100154663D01*
X93047619Y-100154663D02*
X92952381Y-100297520D01*
X92952381Y-100297520D02*
X92857143Y-100392758D01*
X92857143Y-100392758D02*
X92761905Y-100440377D01*
X94238095Y-100154663D02*
X93761905Y-100154663D01*
X93761905Y-100154663D02*
X93714286Y-100630853D01*
X93714286Y-100630853D02*
X93761905Y-100583234D01*
X93761905Y-100583234D02*
X93857143Y-100535615D01*
X93857143Y-100535615D02*
X94095238Y-100535615D01*
X94095238Y-100535615D02*
X94190476Y-100583234D01*
X94190476Y-100583234D02*
X94238095Y-100630853D01*
X94238095Y-100630853D02*
X94285714Y-100726091D01*
X94285714Y-100726091D02*
X94285714Y-100964186D01*
X94285714Y-100964186D02*
X94238095Y-101059424D01*
X94238095Y-101059424D02*
X94190476Y-101107044D01*
X94190476Y-101107044D02*
X94095238Y-101154663D01*
X94095238Y-101154663D02*
X93857143Y-101154663D01*
X93857143Y-101154663D02*
X93761905Y-101107044D01*
X93761905Y-101107044D02*
X93714286Y-101059424D01*
X160634663Y-65642857D02*
X160158472Y-65976190D01*
X160634663Y-66214285D02*
X159634663Y-66214285D01*
X159634663Y-66214285D02*
X159634663Y-65833333D01*
X159634663Y-65833333D02*
X159682282Y-65738095D01*
X159682282Y-65738095D02*
X159729901Y-65690476D01*
X159729901Y-65690476D02*
X159825139Y-65642857D01*
X159825139Y-65642857D02*
X159967996Y-65642857D01*
X159967996Y-65642857D02*
X160063234Y-65690476D01*
X160063234Y-65690476D02*
X160110853Y-65738095D01*
X160110853Y-65738095D02*
X160158472Y-65833333D01*
X160158472Y-65833333D02*
X160158472Y-66214285D01*
X160634663Y-64690476D02*
X160634663Y-65261904D01*
X160634663Y-64976190D02*
X159634663Y-64976190D01*
X159634663Y-64976190D02*
X159777520Y-65071428D01*
X159777520Y-65071428D02*
X159872758Y-65166666D01*
X159872758Y-65166666D02*
X159920377Y-65261904D01*
X159634663Y-64357142D02*
X159634663Y-63690476D01*
X159634663Y-63690476D02*
X160634663Y-64119047D01*
X113227142Y-91494663D02*
X112893809Y-91018472D01*
X112655714Y-91494663D02*
X112655714Y-90494663D01*
X112655714Y-90494663D02*
X113036666Y-90494663D01*
X113036666Y-90494663D02*
X113131904Y-90542282D01*
X113131904Y-90542282D02*
X113179523Y-90589901D01*
X113179523Y-90589901D02*
X113227142Y-90685139D01*
X113227142Y-90685139D02*
X113227142Y-90827996D01*
X113227142Y-90827996D02*
X113179523Y-90923234D01*
X113179523Y-90923234D02*
X113131904Y-90970853D01*
X113131904Y-90970853D02*
X113036666Y-91018472D01*
X113036666Y-91018472D02*
X112655714Y-91018472D01*
X113560476Y-90494663D02*
X114179523Y-90494663D01*
X114179523Y-90494663D02*
X113846190Y-90875615D01*
X113846190Y-90875615D02*
X113989047Y-90875615D01*
X113989047Y-90875615D02*
X114084285Y-90923234D01*
X114084285Y-90923234D02*
X114131904Y-90970853D01*
X114131904Y-90970853D02*
X114179523Y-91066091D01*
X114179523Y-91066091D02*
X114179523Y-91304186D01*
X114179523Y-91304186D02*
X114131904Y-91399424D01*
X114131904Y-91399424D02*
X114084285Y-91447044D01*
X114084285Y-91447044D02*
X113989047Y-91494663D01*
X113989047Y-91494663D02*
X113703333Y-91494663D01*
X113703333Y-91494663D02*
X113608095Y-91447044D01*
X113608095Y-91447044D02*
X113560476Y-91399424D01*
X114512857Y-90494663D02*
X115131904Y-90494663D01*
X115131904Y-90494663D02*
X114798571Y-90875615D01*
X114798571Y-90875615D02*
X114941428Y-90875615D01*
X114941428Y-90875615D02*
X115036666Y-90923234D01*
X115036666Y-90923234D02*
X115084285Y-90970853D01*
X115084285Y-90970853D02*
X115131904Y-91066091D01*
X115131904Y-91066091D02*
X115131904Y-91304186D01*
X115131904Y-91304186D02*
X115084285Y-91399424D01*
X115084285Y-91399424D02*
X115036666Y-91447044D01*
X115036666Y-91447044D02*
X114941428Y-91494663D01*
X114941428Y-91494663D02*
X114655714Y-91494663D01*
X114655714Y-91494663D02*
X114560476Y-91447044D01*
X114560476Y-91447044D02*
X114512857Y-91399424D01*
X68238095Y-68654663D02*
X68238095Y-67654663D01*
X68238095Y-67654663D02*
X68809523Y-68654663D01*
X68809523Y-68654663D02*
X68809523Y-67654663D01*
X69809523Y-68654663D02*
X69238095Y-68654663D01*
X69523809Y-68654663D02*
X69523809Y-67654663D01*
X69523809Y-67654663D02*
X69428571Y-67797520D01*
X69428571Y-67797520D02*
X69333333Y-67892758D01*
X69333333Y-67892758D02*
X69238095Y-67940377D01*
X62344663Y-96162857D02*
X61868472Y-96496190D01*
X62344663Y-96734285D02*
X61344663Y-96734285D01*
X61344663Y-96734285D02*
X61344663Y-96353333D01*
X61344663Y-96353333D02*
X61392282Y-96258095D01*
X61392282Y-96258095D02*
X61439901Y-96210476D01*
X61439901Y-96210476D02*
X61535139Y-96162857D01*
X61535139Y-96162857D02*
X61677996Y-96162857D01*
X61677996Y-96162857D02*
X61773234Y-96210476D01*
X61773234Y-96210476D02*
X61820853Y-96258095D01*
X61820853Y-96258095D02*
X61868472Y-96353333D01*
X61868472Y-96353333D02*
X61868472Y-96734285D01*
X61439901Y-95781904D02*
X61392282Y-95734285D01*
X61392282Y-95734285D02*
X61344663Y-95639047D01*
X61344663Y-95639047D02*
X61344663Y-95400952D01*
X61344663Y-95400952D02*
X61392282Y-95305714D01*
X61392282Y-95305714D02*
X61439901Y-95258095D01*
X61439901Y-95258095D02*
X61535139Y-95210476D01*
X61535139Y-95210476D02*
X61630377Y-95210476D01*
X61630377Y-95210476D02*
X61773234Y-95258095D01*
X61773234Y-95258095D02*
X62344663Y-95829523D01*
X62344663Y-95829523D02*
X62344663Y-95210476D01*
X61344663Y-94353333D02*
X61344663Y-94543809D01*
X61344663Y-94543809D02*
X61392282Y-94639047D01*
X61392282Y-94639047D02*
X61439901Y-94686666D01*
X61439901Y-94686666D02*
X61582758Y-94781904D01*
X61582758Y-94781904D02*
X61773234Y-94829523D01*
X61773234Y-94829523D02*
X62154186Y-94829523D01*
X62154186Y-94829523D02*
X62249424Y-94781904D01*
X62249424Y-94781904D02*
X62297044Y-94734285D01*
X62297044Y-94734285D02*
X62344663Y-94639047D01*
X62344663Y-94639047D02*
X62344663Y-94448571D01*
X62344663Y-94448571D02*
X62297044Y-94353333D01*
X62297044Y-94353333D02*
X62249424Y-94305714D01*
X62249424Y-94305714D02*
X62154186Y-94258095D01*
X62154186Y-94258095D02*
X61916091Y-94258095D01*
X61916091Y-94258095D02*
X61820853Y-94305714D01*
X61820853Y-94305714D02*
X61773234Y-94353333D01*
X61773234Y-94353333D02*
X61725615Y-94448571D01*
X61725615Y-94448571D02*
X61725615Y-94639047D01*
X61725615Y-94639047D02*
X61773234Y-94734285D01*
X61773234Y-94734285D02*
X61820853Y-94781904D01*
X61820853Y-94781904D02*
X61916091Y-94829523D01*
X248238095Y-110354663D02*
X248238095Y-111164186D01*
X248238095Y-111164186D02*
X248285714Y-111259424D01*
X248285714Y-111259424D02*
X248333333Y-111307044D01*
X248333333Y-111307044D02*
X248428571Y-111354663D01*
X248428571Y-111354663D02*
X248619047Y-111354663D01*
X248619047Y-111354663D02*
X248714285Y-111307044D01*
X248714285Y-111307044D02*
X248761904Y-111259424D01*
X248761904Y-111259424D02*
X248809523Y-111164186D01*
X248809523Y-111164186D02*
X248809523Y-110354663D01*
X249809523Y-111354663D02*
X249238095Y-111354663D01*
X249523809Y-111354663D02*
X249523809Y-110354663D01*
X249523809Y-110354663D02*
X249428571Y-110497520D01*
X249428571Y-110497520D02*
X249333333Y-110592758D01*
X249333333Y-110592758D02*
X249238095Y-110640377D01*
X230344663Y-96162857D02*
X229868472Y-96496190D01*
X230344663Y-96734285D02*
X229344663Y-96734285D01*
X229344663Y-96734285D02*
X229344663Y-96353333D01*
X229344663Y-96353333D02*
X229392282Y-96258095D01*
X229392282Y-96258095D02*
X229439901Y-96210476D01*
X229439901Y-96210476D02*
X229535139Y-96162857D01*
X229535139Y-96162857D02*
X229677996Y-96162857D01*
X229677996Y-96162857D02*
X229773234Y-96210476D01*
X229773234Y-96210476D02*
X229820853Y-96258095D01*
X229820853Y-96258095D02*
X229868472Y-96353333D01*
X229868472Y-96353333D02*
X229868472Y-96734285D01*
X229344663Y-95258095D02*
X229344663Y-95734285D01*
X229344663Y-95734285D02*
X229820853Y-95781904D01*
X229820853Y-95781904D02*
X229773234Y-95734285D01*
X229773234Y-95734285D02*
X229725615Y-95639047D01*
X229725615Y-95639047D02*
X229725615Y-95400952D01*
X229725615Y-95400952D02*
X229773234Y-95305714D01*
X229773234Y-95305714D02*
X229820853Y-95258095D01*
X229820853Y-95258095D02*
X229916091Y-95210476D01*
X229916091Y-95210476D02*
X230154186Y-95210476D01*
X230154186Y-95210476D02*
X230249424Y-95258095D01*
X230249424Y-95258095D02*
X230297044Y-95305714D01*
X230297044Y-95305714D02*
X230344663Y-95400952D01*
X230344663Y-95400952D02*
X230344663Y-95639047D01*
X230344663Y-95639047D02*
X230297044Y-95734285D01*
X230297044Y-95734285D02*
X230249424Y-95781904D01*
X229677996Y-94353333D02*
X230344663Y-94353333D01*
X229297044Y-94591428D02*
X230011329Y-94829523D01*
X230011329Y-94829523D02*
X230011329Y-94210476D01*
X215634663Y-92642857D02*
X215158472Y-92976190D01*
X215634663Y-93214285D02*
X214634663Y-93214285D01*
X214634663Y-93214285D02*
X214634663Y-92833333D01*
X214634663Y-92833333D02*
X214682282Y-92738095D01*
X214682282Y-92738095D02*
X214729901Y-92690476D01*
X214729901Y-92690476D02*
X214825139Y-92642857D01*
X214825139Y-92642857D02*
X214967996Y-92642857D01*
X214967996Y-92642857D02*
X215063234Y-92690476D01*
X215063234Y-92690476D02*
X215110853Y-92738095D01*
X215110853Y-92738095D02*
X215158472Y-92833333D01*
X215158472Y-92833333D02*
X215158472Y-93214285D01*
X214634663Y-91738095D02*
X214634663Y-92214285D01*
X214634663Y-92214285D02*
X215110853Y-92261904D01*
X215110853Y-92261904D02*
X215063234Y-92214285D01*
X215063234Y-92214285D02*
X215015615Y-92119047D01*
X215015615Y-92119047D02*
X215015615Y-91880952D01*
X215015615Y-91880952D02*
X215063234Y-91785714D01*
X215063234Y-91785714D02*
X215110853Y-91738095D01*
X215110853Y-91738095D02*
X215206091Y-91690476D01*
X215206091Y-91690476D02*
X215444186Y-91690476D01*
X215444186Y-91690476D02*
X215539424Y-91738095D01*
X215539424Y-91738095D02*
X215587044Y-91785714D01*
X215587044Y-91785714D02*
X215634663Y-91880952D01*
X215634663Y-91880952D02*
X215634663Y-92119047D01*
X215634663Y-92119047D02*
X215587044Y-92214285D01*
X215587044Y-92214285D02*
X215539424Y-92261904D01*
X215634663Y-90738095D02*
X215634663Y-91309523D01*
X215634663Y-91023809D02*
X214634663Y-91023809D01*
X214634663Y-91023809D02*
X214777520Y-91119047D01*
X214777520Y-91119047D02*
X214872758Y-91214285D01*
X214872758Y-91214285D02*
X214920377Y-91309523D01*
X140428571Y-91949901D02*
X140333333Y-91902282D01*
X140333333Y-91902282D02*
X140238095Y-91807044D01*
X140238095Y-91807044D02*
X140095238Y-91664186D01*
X140095238Y-91664186D02*
X140000000Y-91616567D01*
X140000000Y-91616567D02*
X139904762Y-91616567D01*
X139952381Y-91854663D02*
X139857143Y-91807044D01*
X139857143Y-91807044D02*
X139761905Y-91711805D01*
X139761905Y-91711805D02*
X139714286Y-91521329D01*
X139714286Y-91521329D02*
X139714286Y-91187996D01*
X139714286Y-91187996D02*
X139761905Y-90997520D01*
X139761905Y-90997520D02*
X139857143Y-90902282D01*
X139857143Y-90902282D02*
X139952381Y-90854663D01*
X139952381Y-90854663D02*
X140142857Y-90854663D01*
X140142857Y-90854663D02*
X140238095Y-90902282D01*
X140238095Y-90902282D02*
X140333333Y-90997520D01*
X140333333Y-90997520D02*
X140380952Y-91187996D01*
X140380952Y-91187996D02*
X140380952Y-91521329D01*
X140380952Y-91521329D02*
X140333333Y-91711805D01*
X140333333Y-91711805D02*
X140238095Y-91807044D01*
X140238095Y-91807044D02*
X140142857Y-91854663D01*
X140142857Y-91854663D02*
X139952381Y-91854663D01*
X141333333Y-91854663D02*
X140761905Y-91854663D01*
X141047619Y-91854663D02*
X141047619Y-90854663D01*
X141047619Y-90854663D02*
X140952381Y-90997520D01*
X140952381Y-90997520D02*
X140857143Y-91092758D01*
X140857143Y-91092758D02*
X140761905Y-91140377D01*
X141904762Y-91283234D02*
X141809524Y-91235615D01*
X141809524Y-91235615D02*
X141761905Y-91187996D01*
X141761905Y-91187996D02*
X141714286Y-91092758D01*
X141714286Y-91092758D02*
X141714286Y-91045139D01*
X141714286Y-91045139D02*
X141761905Y-90949901D01*
X141761905Y-90949901D02*
X141809524Y-90902282D01*
X141809524Y-90902282D02*
X141904762Y-90854663D01*
X141904762Y-90854663D02*
X142095238Y-90854663D01*
X142095238Y-90854663D02*
X142190476Y-90902282D01*
X142190476Y-90902282D02*
X142238095Y-90949901D01*
X142238095Y-90949901D02*
X142285714Y-91045139D01*
X142285714Y-91045139D02*
X142285714Y-91092758D01*
X142285714Y-91092758D02*
X142238095Y-91187996D01*
X142238095Y-91187996D02*
X142190476Y-91235615D01*
X142190476Y-91235615D02*
X142095238Y-91283234D01*
X142095238Y-91283234D02*
X141904762Y-91283234D01*
X141904762Y-91283234D02*
X141809524Y-91330853D01*
X141809524Y-91330853D02*
X141761905Y-91378472D01*
X141761905Y-91378472D02*
X141714286Y-91473710D01*
X141714286Y-91473710D02*
X141714286Y-91664186D01*
X141714286Y-91664186D02*
X141761905Y-91759424D01*
X141761905Y-91759424D02*
X141809524Y-91807044D01*
X141809524Y-91807044D02*
X141904762Y-91854663D01*
X141904762Y-91854663D02*
X142095238Y-91854663D01*
X142095238Y-91854663D02*
X142190476Y-91807044D01*
X142190476Y-91807044D02*
X142238095Y-91759424D01*
X142238095Y-91759424D02*
X142285714Y-91664186D01*
X142285714Y-91664186D02*
X142285714Y-91473710D01*
X142285714Y-91473710D02*
X142238095Y-91378472D01*
X142238095Y-91378472D02*
X142190476Y-91330853D01*
X142190476Y-91330853D02*
X142095238Y-91283234D01*
X233227142Y-91494663D02*
X232893809Y-91018472D01*
X232655714Y-91494663D02*
X232655714Y-90494663D01*
X232655714Y-90494663D02*
X233036666Y-90494663D01*
X233036666Y-90494663D02*
X233131904Y-90542282D01*
X233131904Y-90542282D02*
X233179523Y-90589901D01*
X233179523Y-90589901D02*
X233227142Y-90685139D01*
X233227142Y-90685139D02*
X233227142Y-90827996D01*
X233227142Y-90827996D02*
X233179523Y-90923234D01*
X233179523Y-90923234D02*
X233131904Y-90970853D01*
X233131904Y-90970853D02*
X233036666Y-91018472D01*
X233036666Y-91018472D02*
X232655714Y-91018472D01*
X234131904Y-90494663D02*
X233655714Y-90494663D01*
X233655714Y-90494663D02*
X233608095Y-90970853D01*
X233608095Y-90970853D02*
X233655714Y-90923234D01*
X233655714Y-90923234D02*
X233750952Y-90875615D01*
X233750952Y-90875615D02*
X233989047Y-90875615D01*
X233989047Y-90875615D02*
X234084285Y-90923234D01*
X234084285Y-90923234D02*
X234131904Y-90970853D01*
X234131904Y-90970853D02*
X234179523Y-91066091D01*
X234179523Y-91066091D02*
X234179523Y-91304186D01*
X234179523Y-91304186D02*
X234131904Y-91399424D01*
X234131904Y-91399424D02*
X234084285Y-91447044D01*
X234084285Y-91447044D02*
X233989047Y-91494663D01*
X233989047Y-91494663D02*
X233750952Y-91494663D01*
X233750952Y-91494663D02*
X233655714Y-91447044D01*
X233655714Y-91447044D02*
X233608095Y-91399424D01*
X234512857Y-90494663D02*
X235131904Y-90494663D01*
X235131904Y-90494663D02*
X234798571Y-90875615D01*
X234798571Y-90875615D02*
X234941428Y-90875615D01*
X234941428Y-90875615D02*
X235036666Y-90923234D01*
X235036666Y-90923234D02*
X235084285Y-90970853D01*
X235084285Y-90970853D02*
X235131904Y-91066091D01*
X235131904Y-91066091D02*
X235131904Y-91304186D01*
X235131904Y-91304186D02*
X235084285Y-91399424D01*
X235084285Y-91399424D02*
X235036666Y-91447044D01*
X235036666Y-91447044D02*
X234941428Y-91494663D01*
X234941428Y-91494663D02*
X234655714Y-91494663D01*
X234655714Y-91494663D02*
X234560476Y-91447044D01*
X234560476Y-91447044D02*
X234512857Y-91399424D01*
X58842261Y-85549901D02*
X58747023Y-85502282D01*
X58747023Y-85502282D02*
X58651785Y-85407044D01*
X58651785Y-85407044D02*
X58508928Y-85264186D01*
X58508928Y-85264186D02*
X58413690Y-85216567D01*
X58413690Y-85216567D02*
X58318452Y-85216567D01*
X58366071Y-85454663D02*
X58270833Y-85407044D01*
X58270833Y-85407044D02*
X58175595Y-85311805D01*
X58175595Y-85311805D02*
X58127976Y-85121329D01*
X58127976Y-85121329D02*
X58127976Y-84787996D01*
X58127976Y-84787996D02*
X58175595Y-84597520D01*
X58175595Y-84597520D02*
X58270833Y-84502282D01*
X58270833Y-84502282D02*
X58366071Y-84454663D01*
X58366071Y-84454663D02*
X58556547Y-84454663D01*
X58556547Y-84454663D02*
X58651785Y-84502282D01*
X58651785Y-84502282D02*
X58747023Y-84597520D01*
X58747023Y-84597520D02*
X58794642Y-84787996D01*
X58794642Y-84787996D02*
X58794642Y-85121329D01*
X58794642Y-85121329D02*
X58747023Y-85311805D01*
X58747023Y-85311805D02*
X58651785Y-85407044D01*
X58651785Y-85407044D02*
X58556547Y-85454663D01*
X58556547Y-85454663D02*
X58366071Y-85454663D01*
X59175595Y-84549901D02*
X59223214Y-84502282D01*
X59223214Y-84502282D02*
X59318452Y-84454663D01*
X59318452Y-84454663D02*
X59556547Y-84454663D01*
X59556547Y-84454663D02*
X59651785Y-84502282D01*
X59651785Y-84502282D02*
X59699404Y-84549901D01*
X59699404Y-84549901D02*
X59747023Y-84645139D01*
X59747023Y-84645139D02*
X59747023Y-84740377D01*
X59747023Y-84740377D02*
X59699404Y-84883234D01*
X59699404Y-84883234D02*
X59127976Y-85454663D01*
X59127976Y-85454663D02*
X59747023Y-85454663D01*
X58366071Y-90449901D02*
X58270833Y-90402282D01*
X58270833Y-90402282D02*
X58175595Y-90307044D01*
X58175595Y-90307044D02*
X58032738Y-90164186D01*
X58032738Y-90164186D02*
X57937500Y-90116567D01*
X57937500Y-90116567D02*
X57842262Y-90116567D01*
X57889881Y-90354663D02*
X57794643Y-90307044D01*
X57794643Y-90307044D02*
X57699405Y-90211805D01*
X57699405Y-90211805D02*
X57651786Y-90021329D01*
X57651786Y-90021329D02*
X57651786Y-89687996D01*
X57651786Y-89687996D02*
X57699405Y-89497520D01*
X57699405Y-89497520D02*
X57794643Y-89402282D01*
X57794643Y-89402282D02*
X57889881Y-89354663D01*
X57889881Y-89354663D02*
X58080357Y-89354663D01*
X58080357Y-89354663D02*
X58175595Y-89402282D01*
X58175595Y-89402282D02*
X58270833Y-89497520D01*
X58270833Y-89497520D02*
X58318452Y-89687996D01*
X58318452Y-89687996D02*
X58318452Y-90021329D01*
X58318452Y-90021329D02*
X58270833Y-90211805D01*
X58270833Y-90211805D02*
X58175595Y-90307044D01*
X58175595Y-90307044D02*
X58080357Y-90354663D01*
X58080357Y-90354663D02*
X57889881Y-90354663D01*
X59270833Y-90354663D02*
X58699405Y-90354663D01*
X58985119Y-90354663D02*
X58985119Y-89354663D01*
X58985119Y-89354663D02*
X58889881Y-89497520D01*
X58889881Y-89497520D02*
X58794643Y-89592758D01*
X58794643Y-89592758D02*
X58699405Y-89640377D01*
X60223214Y-90354663D02*
X59651786Y-90354663D01*
X59937500Y-90354663D02*
X59937500Y-89354663D01*
X59937500Y-89354663D02*
X59842262Y-89497520D01*
X59842262Y-89497520D02*
X59747024Y-89592758D01*
X59747024Y-89592758D02*
X59651786Y-89640377D01*
X187634663Y-65642857D02*
X187158472Y-65976190D01*
X187634663Y-66214285D02*
X186634663Y-66214285D01*
X186634663Y-66214285D02*
X186634663Y-65833333D01*
X186634663Y-65833333D02*
X186682282Y-65738095D01*
X186682282Y-65738095D02*
X186729901Y-65690476D01*
X186729901Y-65690476D02*
X186825139Y-65642857D01*
X186825139Y-65642857D02*
X186967996Y-65642857D01*
X186967996Y-65642857D02*
X187063234Y-65690476D01*
X187063234Y-65690476D02*
X187110853Y-65738095D01*
X187110853Y-65738095D02*
X187158472Y-65833333D01*
X187158472Y-65833333D02*
X187158472Y-66214285D01*
X186729901Y-65261904D02*
X186682282Y-65214285D01*
X186682282Y-65214285D02*
X186634663Y-65119047D01*
X186634663Y-65119047D02*
X186634663Y-64880952D01*
X186634663Y-64880952D02*
X186682282Y-64785714D01*
X186682282Y-64785714D02*
X186729901Y-64738095D01*
X186729901Y-64738095D02*
X186825139Y-64690476D01*
X186825139Y-64690476D02*
X186920377Y-64690476D01*
X186920377Y-64690476D02*
X187063234Y-64738095D01*
X187063234Y-64738095D02*
X187634663Y-65309523D01*
X187634663Y-65309523D02*
X187634663Y-64690476D01*
X187634663Y-63738095D02*
X187634663Y-64309523D01*
X187634663Y-64023809D02*
X186634663Y-64023809D01*
X186634663Y-64023809D02*
X186777520Y-64119047D01*
X186777520Y-64119047D02*
X186872758Y-64214285D01*
X186872758Y-64214285D02*
X186920377Y-64309523D01*
X55333333Y-80624663D02*
X55000000Y-80148472D01*
X54761905Y-80624663D02*
X54761905Y-79624663D01*
X54761905Y-79624663D02*
X55142857Y-79624663D01*
X55142857Y-79624663D02*
X55238095Y-79672282D01*
X55238095Y-79672282D02*
X55285714Y-79719901D01*
X55285714Y-79719901D02*
X55333333Y-79815139D01*
X55333333Y-79815139D02*
X55333333Y-79957996D01*
X55333333Y-79957996D02*
X55285714Y-80053234D01*
X55285714Y-80053234D02*
X55238095Y-80100853D01*
X55238095Y-80100853D02*
X55142857Y-80148472D01*
X55142857Y-80148472D02*
X54761905Y-80148472D01*
X56190476Y-79957996D02*
X56190476Y-80624663D01*
X55952381Y-79577044D02*
X55714286Y-80291329D01*
X55714286Y-80291329D02*
X56333333Y-80291329D01*
X239634663Y-92642857D02*
X239158472Y-92976190D01*
X239634663Y-93214285D02*
X238634663Y-93214285D01*
X238634663Y-93214285D02*
X238634663Y-92833333D01*
X238634663Y-92833333D02*
X238682282Y-92738095D01*
X238682282Y-92738095D02*
X238729901Y-92690476D01*
X238729901Y-92690476D02*
X238825139Y-92642857D01*
X238825139Y-92642857D02*
X238967996Y-92642857D01*
X238967996Y-92642857D02*
X239063234Y-92690476D01*
X239063234Y-92690476D02*
X239110853Y-92738095D01*
X239110853Y-92738095D02*
X239158472Y-92833333D01*
X239158472Y-92833333D02*
X239158472Y-93214285D01*
X238634663Y-91738095D02*
X238634663Y-92214285D01*
X238634663Y-92214285D02*
X239110853Y-92261904D01*
X239110853Y-92261904D02*
X239063234Y-92214285D01*
X239063234Y-92214285D02*
X239015615Y-92119047D01*
X239015615Y-92119047D02*
X239015615Y-91880952D01*
X239015615Y-91880952D02*
X239063234Y-91785714D01*
X239063234Y-91785714D02*
X239110853Y-91738095D01*
X239110853Y-91738095D02*
X239206091Y-91690476D01*
X239206091Y-91690476D02*
X239444186Y-91690476D01*
X239444186Y-91690476D02*
X239539424Y-91738095D01*
X239539424Y-91738095D02*
X239587044Y-91785714D01*
X239587044Y-91785714D02*
X239634663Y-91880952D01*
X239634663Y-91880952D02*
X239634663Y-92119047D01*
X239634663Y-92119047D02*
X239587044Y-92214285D01*
X239587044Y-92214285D02*
X239539424Y-92261904D01*
X238634663Y-90785714D02*
X238634663Y-91261904D01*
X238634663Y-91261904D02*
X239110853Y-91309523D01*
X239110853Y-91309523D02*
X239063234Y-91261904D01*
X239063234Y-91261904D02*
X239015615Y-91166666D01*
X239015615Y-91166666D02*
X239015615Y-90928571D01*
X239015615Y-90928571D02*
X239063234Y-90833333D01*
X239063234Y-90833333D02*
X239110853Y-90785714D01*
X239110853Y-90785714D02*
X239206091Y-90738095D01*
X239206091Y-90738095D02*
X239444186Y-90738095D01*
X239444186Y-90738095D02*
X239539424Y-90785714D01*
X239539424Y-90785714D02*
X239587044Y-90833333D01*
X239587044Y-90833333D02*
X239634663Y-90928571D01*
X239634663Y-90928571D02*
X239634663Y-91166666D01*
X239634663Y-91166666D02*
X239587044Y-91261904D01*
X239587044Y-91261904D02*
X239539424Y-91309523D01*
X188428571Y-91949901D02*
X188333333Y-91902282D01*
X188333333Y-91902282D02*
X188238095Y-91807044D01*
X188238095Y-91807044D02*
X188095238Y-91664186D01*
X188095238Y-91664186D02*
X188000000Y-91616567D01*
X188000000Y-91616567D02*
X187904762Y-91616567D01*
X187952381Y-91854663D02*
X187857143Y-91807044D01*
X187857143Y-91807044D02*
X187761905Y-91711805D01*
X187761905Y-91711805D02*
X187714286Y-91521329D01*
X187714286Y-91521329D02*
X187714286Y-91187996D01*
X187714286Y-91187996D02*
X187761905Y-90997520D01*
X187761905Y-90997520D02*
X187857143Y-90902282D01*
X187857143Y-90902282D02*
X187952381Y-90854663D01*
X187952381Y-90854663D02*
X188142857Y-90854663D01*
X188142857Y-90854663D02*
X188238095Y-90902282D01*
X188238095Y-90902282D02*
X188333333Y-90997520D01*
X188333333Y-90997520D02*
X188380952Y-91187996D01*
X188380952Y-91187996D02*
X188380952Y-91521329D01*
X188380952Y-91521329D02*
X188333333Y-91711805D01*
X188333333Y-91711805D02*
X188238095Y-91807044D01*
X188238095Y-91807044D02*
X188142857Y-91854663D01*
X188142857Y-91854663D02*
X187952381Y-91854663D01*
X188761905Y-90949901D02*
X188809524Y-90902282D01*
X188809524Y-90902282D02*
X188904762Y-90854663D01*
X188904762Y-90854663D02*
X189142857Y-90854663D01*
X189142857Y-90854663D02*
X189238095Y-90902282D01*
X189238095Y-90902282D02*
X189285714Y-90949901D01*
X189285714Y-90949901D02*
X189333333Y-91045139D01*
X189333333Y-91045139D02*
X189333333Y-91140377D01*
X189333333Y-91140377D02*
X189285714Y-91283234D01*
X189285714Y-91283234D02*
X188714286Y-91854663D01*
X188714286Y-91854663D02*
X189333333Y-91854663D01*
X189714286Y-90949901D02*
X189761905Y-90902282D01*
X189761905Y-90902282D02*
X189857143Y-90854663D01*
X189857143Y-90854663D02*
X190095238Y-90854663D01*
X190095238Y-90854663D02*
X190190476Y-90902282D01*
X190190476Y-90902282D02*
X190238095Y-90949901D01*
X190238095Y-90949901D02*
X190285714Y-91045139D01*
X190285714Y-91045139D02*
X190285714Y-91140377D01*
X190285714Y-91140377D02*
X190238095Y-91283234D01*
X190238095Y-91283234D02*
X189666667Y-91854663D01*
X189666667Y-91854663D02*
X190285714Y-91854663D01*
X236238095Y-68654663D02*
X236238095Y-67654663D01*
X236238095Y-67654663D02*
X236809523Y-68654663D01*
X236809523Y-68654663D02*
X236809523Y-67654663D01*
X237428571Y-68083234D02*
X237333333Y-68035615D01*
X237333333Y-68035615D02*
X237285714Y-67987996D01*
X237285714Y-67987996D02*
X237238095Y-67892758D01*
X237238095Y-67892758D02*
X237238095Y-67845139D01*
X237238095Y-67845139D02*
X237285714Y-67749901D01*
X237285714Y-67749901D02*
X237333333Y-67702282D01*
X237333333Y-67702282D02*
X237428571Y-67654663D01*
X237428571Y-67654663D02*
X237619047Y-67654663D01*
X237619047Y-67654663D02*
X237714285Y-67702282D01*
X237714285Y-67702282D02*
X237761904Y-67749901D01*
X237761904Y-67749901D02*
X237809523Y-67845139D01*
X237809523Y-67845139D02*
X237809523Y-67892758D01*
X237809523Y-67892758D02*
X237761904Y-67987996D01*
X237761904Y-67987996D02*
X237714285Y-68035615D01*
X237714285Y-68035615D02*
X237619047Y-68083234D01*
X237619047Y-68083234D02*
X237428571Y-68083234D01*
X237428571Y-68083234D02*
X237333333Y-68130853D01*
X237333333Y-68130853D02*
X237285714Y-68178472D01*
X237285714Y-68178472D02*
X237238095Y-68273710D01*
X237238095Y-68273710D02*
X237238095Y-68464186D01*
X237238095Y-68464186D02*
X237285714Y-68559424D01*
X237285714Y-68559424D02*
X237333333Y-68607044D01*
X237333333Y-68607044D02*
X237428571Y-68654663D01*
X237428571Y-68654663D02*
X237619047Y-68654663D01*
X237619047Y-68654663D02*
X237714285Y-68607044D01*
X237714285Y-68607044D02*
X237761904Y-68559424D01*
X237761904Y-68559424D02*
X237809523Y-68464186D01*
X237809523Y-68464186D02*
X237809523Y-68273710D01*
X237809523Y-68273710D02*
X237761904Y-68178472D01*
X237761904Y-68178472D02*
X237714285Y-68130853D01*
X237714285Y-68130853D02*
X237619047Y-68083234D01*
X92238095Y-68654663D02*
X92238095Y-67654663D01*
X92238095Y-67654663D02*
X92809523Y-68654663D01*
X92809523Y-68654663D02*
X92809523Y-67654663D01*
X93238095Y-67749901D02*
X93285714Y-67702282D01*
X93285714Y-67702282D02*
X93380952Y-67654663D01*
X93380952Y-67654663D02*
X93619047Y-67654663D01*
X93619047Y-67654663D02*
X93714285Y-67702282D01*
X93714285Y-67702282D02*
X93761904Y-67749901D01*
X93761904Y-67749901D02*
X93809523Y-67845139D01*
X93809523Y-67845139D02*
X93809523Y-67940377D01*
X93809523Y-67940377D02*
X93761904Y-68083234D01*
X93761904Y-68083234D02*
X93190476Y-68654663D01*
X93190476Y-68654663D02*
X93809523Y-68654663D01*
X95634663Y-92642857D02*
X95158472Y-92976190D01*
X95634663Y-93214285D02*
X94634663Y-93214285D01*
X94634663Y-93214285D02*
X94634663Y-92833333D01*
X94634663Y-92833333D02*
X94682282Y-92738095D01*
X94682282Y-92738095D02*
X94729901Y-92690476D01*
X94729901Y-92690476D02*
X94825139Y-92642857D01*
X94825139Y-92642857D02*
X94967996Y-92642857D01*
X94967996Y-92642857D02*
X95063234Y-92690476D01*
X95063234Y-92690476D02*
X95110853Y-92738095D01*
X95110853Y-92738095D02*
X95158472Y-92833333D01*
X95158472Y-92833333D02*
X95158472Y-93214285D01*
X94634663Y-92309523D02*
X94634663Y-91690476D01*
X94634663Y-91690476D02*
X95015615Y-92023809D01*
X95015615Y-92023809D02*
X95015615Y-91880952D01*
X95015615Y-91880952D02*
X95063234Y-91785714D01*
X95063234Y-91785714D02*
X95110853Y-91738095D01*
X95110853Y-91738095D02*
X95206091Y-91690476D01*
X95206091Y-91690476D02*
X95444186Y-91690476D01*
X95444186Y-91690476D02*
X95539424Y-91738095D01*
X95539424Y-91738095D02*
X95587044Y-91785714D01*
X95587044Y-91785714D02*
X95634663Y-91880952D01*
X95634663Y-91880952D02*
X95634663Y-92166666D01*
X95634663Y-92166666D02*
X95587044Y-92261904D01*
X95587044Y-92261904D02*
X95539424Y-92309523D01*
X95634663Y-90738095D02*
X95634663Y-91309523D01*
X95634663Y-91023809D02*
X94634663Y-91023809D01*
X94634663Y-91023809D02*
X94777520Y-91119047D01*
X94777520Y-91119047D02*
X94872758Y-91214285D01*
X94872758Y-91214285D02*
X94920377Y-91309523D01*
X116238095Y-68654663D02*
X116238095Y-67654663D01*
X116238095Y-67654663D02*
X116809523Y-68654663D01*
X116809523Y-68654663D02*
X116809523Y-67654663D01*
X117190476Y-67654663D02*
X117809523Y-67654663D01*
X117809523Y-67654663D02*
X117476190Y-68035615D01*
X117476190Y-68035615D02*
X117619047Y-68035615D01*
X117619047Y-68035615D02*
X117714285Y-68083234D01*
X117714285Y-68083234D02*
X117761904Y-68130853D01*
X117761904Y-68130853D02*
X117809523Y-68226091D01*
X117809523Y-68226091D02*
X117809523Y-68464186D01*
X117809523Y-68464186D02*
X117761904Y-68559424D01*
X117761904Y-68559424D02*
X117714285Y-68607044D01*
X117714285Y-68607044D02*
X117619047Y-68654663D01*
X117619047Y-68654663D02*
X117333333Y-68654663D01*
X117333333Y-68654663D02*
X117238095Y-68607044D01*
X117238095Y-68607044D02*
X117190476Y-68559424D01*
X164428571Y-101249901D02*
X164333333Y-101202282D01*
X164333333Y-101202282D02*
X164238095Y-101107044D01*
X164238095Y-101107044D02*
X164095238Y-100964186D01*
X164095238Y-100964186D02*
X164000000Y-100916567D01*
X164000000Y-100916567D02*
X163904762Y-100916567D01*
X163952381Y-101154663D02*
X163857143Y-101107044D01*
X163857143Y-101107044D02*
X163761905Y-101011805D01*
X163761905Y-101011805D02*
X163714286Y-100821329D01*
X163714286Y-100821329D02*
X163714286Y-100487996D01*
X163714286Y-100487996D02*
X163761905Y-100297520D01*
X163761905Y-100297520D02*
X163857143Y-100202282D01*
X163857143Y-100202282D02*
X163952381Y-100154663D01*
X163952381Y-100154663D02*
X164142857Y-100154663D01*
X164142857Y-100154663D02*
X164238095Y-100202282D01*
X164238095Y-100202282D02*
X164333333Y-100297520D01*
X164333333Y-100297520D02*
X164380952Y-100487996D01*
X164380952Y-100487996D02*
X164380952Y-100821329D01*
X164380952Y-100821329D02*
X164333333Y-101011805D01*
X164333333Y-101011805D02*
X164238095Y-101107044D01*
X164238095Y-101107044D02*
X164142857Y-101154663D01*
X164142857Y-101154663D02*
X163952381Y-101154663D01*
X164761905Y-100249901D02*
X164809524Y-100202282D01*
X164809524Y-100202282D02*
X164904762Y-100154663D01*
X164904762Y-100154663D02*
X165142857Y-100154663D01*
X165142857Y-100154663D02*
X165238095Y-100202282D01*
X165238095Y-100202282D02*
X165285714Y-100249901D01*
X165285714Y-100249901D02*
X165333333Y-100345139D01*
X165333333Y-100345139D02*
X165333333Y-100440377D01*
X165333333Y-100440377D02*
X165285714Y-100583234D01*
X165285714Y-100583234D02*
X164714286Y-101154663D01*
X164714286Y-101154663D02*
X165333333Y-101154663D01*
X166285714Y-101154663D02*
X165714286Y-101154663D01*
X166000000Y-101154663D02*
X166000000Y-100154663D01*
X166000000Y-100154663D02*
X165904762Y-100297520D01*
X165904762Y-100297520D02*
X165809524Y-100392758D01*
X165809524Y-100392758D02*
X165714286Y-100440377D01*
X161227142Y-91494663D02*
X160893809Y-91018472D01*
X160655714Y-91494663D02*
X160655714Y-90494663D01*
X160655714Y-90494663D02*
X161036666Y-90494663D01*
X161036666Y-90494663D02*
X161131904Y-90542282D01*
X161131904Y-90542282D02*
X161179523Y-90589901D01*
X161179523Y-90589901D02*
X161227142Y-90685139D01*
X161227142Y-90685139D02*
X161227142Y-90827996D01*
X161227142Y-90827996D02*
X161179523Y-90923234D01*
X161179523Y-90923234D02*
X161131904Y-90970853D01*
X161131904Y-90970853D02*
X161036666Y-91018472D01*
X161036666Y-91018472D02*
X160655714Y-91018472D01*
X162084285Y-90827996D02*
X162084285Y-91494663D01*
X161846190Y-90447044D02*
X161608095Y-91161329D01*
X161608095Y-91161329D02*
X162227142Y-91161329D01*
X163131904Y-91494663D02*
X162560476Y-91494663D01*
X162846190Y-91494663D02*
X162846190Y-90494663D01*
X162846190Y-90494663D02*
X162750952Y-90637520D01*
X162750952Y-90637520D02*
X162655714Y-90732758D01*
X162655714Y-90732758D02*
X162560476Y-90780377D01*
X140238095Y-68654663D02*
X140238095Y-67654663D01*
X140238095Y-67654663D02*
X140809523Y-68654663D01*
X140809523Y-68654663D02*
X140809523Y-67654663D01*
X141714285Y-67987996D02*
X141714285Y-68654663D01*
X141476190Y-67607044D02*
X141238095Y-68321329D01*
X141238095Y-68321329D02*
X141857142Y-68321329D01*
X215919642Y-98104663D02*
X215586309Y-97628472D01*
X215348214Y-98104663D02*
X215348214Y-97104663D01*
X215348214Y-97104663D02*
X215729166Y-97104663D01*
X215729166Y-97104663D02*
X215824404Y-97152282D01*
X215824404Y-97152282D02*
X215872023Y-97199901D01*
X215872023Y-97199901D02*
X215919642Y-97295139D01*
X215919642Y-97295139D02*
X215919642Y-97437996D01*
X215919642Y-97437996D02*
X215872023Y-97533234D01*
X215872023Y-97533234D02*
X215824404Y-97580853D01*
X215824404Y-97580853D02*
X215729166Y-97628472D01*
X215729166Y-97628472D02*
X215348214Y-97628472D01*
X216824404Y-97104663D02*
X216348214Y-97104663D01*
X216348214Y-97104663D02*
X216300595Y-97580853D01*
X216300595Y-97580853D02*
X216348214Y-97533234D01*
X216348214Y-97533234D02*
X216443452Y-97485615D01*
X216443452Y-97485615D02*
X216681547Y-97485615D01*
X216681547Y-97485615D02*
X216776785Y-97533234D01*
X216776785Y-97533234D02*
X216824404Y-97580853D01*
X216824404Y-97580853D02*
X216872023Y-97676091D01*
X216872023Y-97676091D02*
X216872023Y-97914186D01*
X216872023Y-97914186D02*
X216824404Y-98009424D01*
X216824404Y-98009424D02*
X216776785Y-98057044D01*
X216776785Y-98057044D02*
X216681547Y-98104663D01*
X216681547Y-98104663D02*
X216443452Y-98104663D01*
X216443452Y-98104663D02*
X216348214Y-98057044D01*
X216348214Y-98057044D02*
X216300595Y-98009424D01*
X217252976Y-97199901D02*
X217300595Y-97152282D01*
X217300595Y-97152282D02*
X217395833Y-97104663D01*
X217395833Y-97104663D02*
X217633928Y-97104663D01*
X217633928Y-97104663D02*
X217729166Y-97152282D01*
X217729166Y-97152282D02*
X217776785Y-97199901D01*
X217776785Y-97199901D02*
X217824404Y-97295139D01*
X217824404Y-97295139D02*
X217824404Y-97390377D01*
X217824404Y-97390377D02*
X217776785Y-97533234D01*
X217776785Y-97533234D02*
X217205357Y-98104663D01*
X217205357Y-98104663D02*
X217824404Y-98104663D01*
X55333333Y-75624663D02*
X55000000Y-75148472D01*
X54761905Y-75624663D02*
X54761905Y-74624663D01*
X54761905Y-74624663D02*
X55142857Y-74624663D01*
X55142857Y-74624663D02*
X55238095Y-74672282D01*
X55238095Y-74672282D02*
X55285714Y-74719901D01*
X55285714Y-74719901D02*
X55333333Y-74815139D01*
X55333333Y-74815139D02*
X55333333Y-74957996D01*
X55333333Y-74957996D02*
X55285714Y-75053234D01*
X55285714Y-75053234D02*
X55238095Y-75100853D01*
X55238095Y-75100853D02*
X55142857Y-75148472D01*
X55142857Y-75148472D02*
X54761905Y-75148472D01*
X55904762Y-75053234D02*
X55809524Y-75005615D01*
X55809524Y-75005615D02*
X55761905Y-74957996D01*
X55761905Y-74957996D02*
X55714286Y-74862758D01*
X55714286Y-74862758D02*
X55714286Y-74815139D01*
X55714286Y-74815139D02*
X55761905Y-74719901D01*
X55761905Y-74719901D02*
X55809524Y-74672282D01*
X55809524Y-74672282D02*
X55904762Y-74624663D01*
X55904762Y-74624663D02*
X56095238Y-74624663D01*
X56095238Y-74624663D02*
X56190476Y-74672282D01*
X56190476Y-74672282D02*
X56238095Y-74719901D01*
X56238095Y-74719901D02*
X56285714Y-74815139D01*
X56285714Y-74815139D02*
X56285714Y-74862758D01*
X56285714Y-74862758D02*
X56238095Y-74957996D01*
X56238095Y-74957996D02*
X56190476Y-75005615D01*
X56190476Y-75005615D02*
X56095238Y-75053234D01*
X56095238Y-75053234D02*
X55904762Y-75053234D01*
X55904762Y-75053234D02*
X55809524Y-75100853D01*
X55809524Y-75100853D02*
X55761905Y-75148472D01*
X55761905Y-75148472D02*
X55714286Y-75243710D01*
X55714286Y-75243710D02*
X55714286Y-75434186D01*
X55714286Y-75434186D02*
X55761905Y-75529424D01*
X55761905Y-75529424D02*
X55809524Y-75577044D01*
X55809524Y-75577044D02*
X55904762Y-75624663D01*
X55904762Y-75624663D02*
X56095238Y-75624663D01*
X56095238Y-75624663D02*
X56190476Y-75577044D01*
X56190476Y-75577044D02*
X56238095Y-75529424D01*
X56238095Y-75529424D02*
X56285714Y-75434186D01*
X56285714Y-75434186D02*
X56285714Y-75243710D01*
X56285714Y-75243710D02*
X56238095Y-75148472D01*
X56238095Y-75148472D02*
X56190476Y-75100853D01*
X56190476Y-75100853D02*
X56095238Y-75053234D01*
X58904761Y-75499901D02*
X58809523Y-75452282D01*
X58809523Y-75452282D02*
X58714285Y-75357044D01*
X58714285Y-75357044D02*
X58571428Y-75214186D01*
X58571428Y-75214186D02*
X58476190Y-75166567D01*
X58476190Y-75166567D02*
X58380952Y-75166567D01*
X58428571Y-75404663D02*
X58333333Y-75357044D01*
X58333333Y-75357044D02*
X58238095Y-75261805D01*
X58238095Y-75261805D02*
X58190476Y-75071329D01*
X58190476Y-75071329D02*
X58190476Y-74737996D01*
X58190476Y-74737996D02*
X58238095Y-74547520D01*
X58238095Y-74547520D02*
X58333333Y-74452282D01*
X58333333Y-74452282D02*
X58428571Y-74404663D01*
X58428571Y-74404663D02*
X58619047Y-74404663D01*
X58619047Y-74404663D02*
X58714285Y-74452282D01*
X58714285Y-74452282D02*
X58809523Y-74547520D01*
X58809523Y-74547520D02*
X58857142Y-74737996D01*
X58857142Y-74737996D02*
X58857142Y-75071329D01*
X58857142Y-75071329D02*
X58809523Y-75261805D01*
X58809523Y-75261805D02*
X58714285Y-75357044D01*
X58714285Y-75357044D02*
X58619047Y-75404663D01*
X58619047Y-75404663D02*
X58428571Y-75404663D01*
X59714285Y-74737996D02*
X59714285Y-75404663D01*
X59476190Y-74357044D02*
X59238095Y-75071329D01*
X59238095Y-75071329D02*
X59857142Y-75071329D01*
X151634663Y-65642857D02*
X151158472Y-65976190D01*
X151634663Y-66214285D02*
X150634663Y-66214285D01*
X150634663Y-66214285D02*
X150634663Y-65833333D01*
X150634663Y-65833333D02*
X150682282Y-65738095D01*
X150682282Y-65738095D02*
X150729901Y-65690476D01*
X150729901Y-65690476D02*
X150825139Y-65642857D01*
X150825139Y-65642857D02*
X150967996Y-65642857D01*
X150967996Y-65642857D02*
X151063234Y-65690476D01*
X151063234Y-65690476D02*
X151110853Y-65738095D01*
X151110853Y-65738095D02*
X151158472Y-65833333D01*
X151158472Y-65833333D02*
X151158472Y-66214285D01*
X151634663Y-64690476D02*
X151634663Y-65261904D01*
X151634663Y-64976190D02*
X150634663Y-64976190D01*
X150634663Y-64976190D02*
X150777520Y-65071428D01*
X150777520Y-65071428D02*
X150872758Y-65166666D01*
X150872758Y-65166666D02*
X150920377Y-65261904D01*
X150634663Y-63833333D02*
X150634663Y-64023809D01*
X150634663Y-64023809D02*
X150682282Y-64119047D01*
X150682282Y-64119047D02*
X150729901Y-64166666D01*
X150729901Y-64166666D02*
X150872758Y-64261904D01*
X150872758Y-64261904D02*
X151063234Y-64309523D01*
X151063234Y-64309523D02*
X151444186Y-64309523D01*
X151444186Y-64309523D02*
X151539424Y-64261904D01*
X151539424Y-64261904D02*
X151587044Y-64214285D01*
X151587044Y-64214285D02*
X151634663Y-64119047D01*
X151634663Y-64119047D02*
X151634663Y-63928571D01*
X151634663Y-63928571D02*
X151587044Y-63833333D01*
X151587044Y-63833333D02*
X151539424Y-63785714D01*
X151539424Y-63785714D02*
X151444186Y-63738095D01*
X151444186Y-63738095D02*
X151206091Y-63738095D01*
X151206091Y-63738095D02*
X151110853Y-63785714D01*
X151110853Y-63785714D02*
X151063234Y-63833333D01*
X151063234Y-63833333D02*
X151015615Y-63928571D01*
X151015615Y-63928571D02*
X151015615Y-64119047D01*
X151015615Y-64119047D02*
X151063234Y-64214285D01*
X151063234Y-64214285D02*
X151110853Y-64261904D01*
X151110853Y-64261904D02*
X151206091Y-64309523D01*
X140428571Y-101249901D02*
X140333333Y-101202282D01*
X140333333Y-101202282D02*
X140238095Y-101107044D01*
X140238095Y-101107044D02*
X140095238Y-100964186D01*
X140095238Y-100964186D02*
X140000000Y-100916567D01*
X140000000Y-100916567D02*
X139904762Y-100916567D01*
X139952381Y-101154663D02*
X139857143Y-101107044D01*
X139857143Y-101107044D02*
X139761905Y-101011805D01*
X139761905Y-101011805D02*
X139714286Y-100821329D01*
X139714286Y-100821329D02*
X139714286Y-100487996D01*
X139714286Y-100487996D02*
X139761905Y-100297520D01*
X139761905Y-100297520D02*
X139857143Y-100202282D01*
X139857143Y-100202282D02*
X139952381Y-100154663D01*
X139952381Y-100154663D02*
X140142857Y-100154663D01*
X140142857Y-100154663D02*
X140238095Y-100202282D01*
X140238095Y-100202282D02*
X140333333Y-100297520D01*
X140333333Y-100297520D02*
X140380952Y-100487996D01*
X140380952Y-100487996D02*
X140380952Y-100821329D01*
X140380952Y-100821329D02*
X140333333Y-101011805D01*
X140333333Y-101011805D02*
X140238095Y-101107044D01*
X140238095Y-101107044D02*
X140142857Y-101154663D01*
X140142857Y-101154663D02*
X139952381Y-101154663D01*
X141333333Y-101154663D02*
X140761905Y-101154663D01*
X141047619Y-101154663D02*
X141047619Y-100154663D01*
X141047619Y-100154663D02*
X140952381Y-100297520D01*
X140952381Y-100297520D02*
X140857143Y-100392758D01*
X140857143Y-100392758D02*
X140761905Y-100440377D01*
X141809524Y-101154663D02*
X142000000Y-101154663D01*
X142000000Y-101154663D02*
X142095238Y-101107044D01*
X142095238Y-101107044D02*
X142142857Y-101059424D01*
X142142857Y-101059424D02*
X142238095Y-100916567D01*
X142238095Y-100916567D02*
X142285714Y-100726091D01*
X142285714Y-100726091D02*
X142285714Y-100345139D01*
X142285714Y-100345139D02*
X142238095Y-100249901D01*
X142238095Y-100249901D02*
X142190476Y-100202282D01*
X142190476Y-100202282D02*
X142095238Y-100154663D01*
X142095238Y-100154663D02*
X141904762Y-100154663D01*
X141904762Y-100154663D02*
X141809524Y-100202282D01*
X141809524Y-100202282D02*
X141761905Y-100249901D01*
X141761905Y-100249901D02*
X141714286Y-100345139D01*
X141714286Y-100345139D02*
X141714286Y-100583234D01*
X141714286Y-100583234D02*
X141761905Y-100678472D01*
X141761905Y-100678472D02*
X141809524Y-100726091D01*
X141809524Y-100726091D02*
X141904762Y-100773710D01*
X141904762Y-100773710D02*
X142095238Y-100773710D01*
X142095238Y-100773710D02*
X142190476Y-100726091D01*
X142190476Y-100726091D02*
X142238095Y-100678472D01*
X142238095Y-100678472D02*
X142285714Y-100583234D01*
X188428571Y-101249901D02*
X188333333Y-101202282D01*
X188333333Y-101202282D02*
X188238095Y-101107044D01*
X188238095Y-101107044D02*
X188095238Y-100964186D01*
X188095238Y-100964186D02*
X188000000Y-100916567D01*
X188000000Y-100916567D02*
X187904762Y-100916567D01*
X187952381Y-101154663D02*
X187857143Y-101107044D01*
X187857143Y-101107044D02*
X187761905Y-101011805D01*
X187761905Y-101011805D02*
X187714286Y-100821329D01*
X187714286Y-100821329D02*
X187714286Y-100487996D01*
X187714286Y-100487996D02*
X187761905Y-100297520D01*
X187761905Y-100297520D02*
X187857143Y-100202282D01*
X187857143Y-100202282D02*
X187952381Y-100154663D01*
X187952381Y-100154663D02*
X188142857Y-100154663D01*
X188142857Y-100154663D02*
X188238095Y-100202282D01*
X188238095Y-100202282D02*
X188333333Y-100297520D01*
X188333333Y-100297520D02*
X188380952Y-100487996D01*
X188380952Y-100487996D02*
X188380952Y-100821329D01*
X188380952Y-100821329D02*
X188333333Y-101011805D01*
X188333333Y-101011805D02*
X188238095Y-101107044D01*
X188238095Y-101107044D02*
X188142857Y-101154663D01*
X188142857Y-101154663D02*
X187952381Y-101154663D01*
X188761905Y-100249901D02*
X188809524Y-100202282D01*
X188809524Y-100202282D02*
X188904762Y-100154663D01*
X188904762Y-100154663D02*
X189142857Y-100154663D01*
X189142857Y-100154663D02*
X189238095Y-100202282D01*
X189238095Y-100202282D02*
X189285714Y-100249901D01*
X189285714Y-100249901D02*
X189333333Y-100345139D01*
X189333333Y-100345139D02*
X189333333Y-100440377D01*
X189333333Y-100440377D02*
X189285714Y-100583234D01*
X189285714Y-100583234D02*
X188714286Y-101154663D01*
X188714286Y-101154663D02*
X189333333Y-101154663D01*
X189666667Y-100154663D02*
X190285714Y-100154663D01*
X190285714Y-100154663D02*
X189952381Y-100535615D01*
X189952381Y-100535615D02*
X190095238Y-100535615D01*
X190095238Y-100535615D02*
X190190476Y-100583234D01*
X190190476Y-100583234D02*
X190238095Y-100630853D01*
X190238095Y-100630853D02*
X190285714Y-100726091D01*
X190285714Y-100726091D02*
X190285714Y-100964186D01*
X190285714Y-100964186D02*
X190238095Y-101059424D01*
X190238095Y-101059424D02*
X190190476Y-101107044D01*
X190190476Y-101107044D02*
X190095238Y-101154663D01*
X190095238Y-101154663D02*
X189809524Y-101154663D01*
X189809524Y-101154663D02*
X189714286Y-101107044D01*
X189714286Y-101107044D02*
X189666667Y-101059424D01*
X134344663Y-96162857D02*
X133868472Y-96496190D01*
X134344663Y-96734285D02*
X133344663Y-96734285D01*
X133344663Y-96734285D02*
X133344663Y-96353333D01*
X133344663Y-96353333D02*
X133392282Y-96258095D01*
X133392282Y-96258095D02*
X133439901Y-96210476D01*
X133439901Y-96210476D02*
X133535139Y-96162857D01*
X133535139Y-96162857D02*
X133677996Y-96162857D01*
X133677996Y-96162857D02*
X133773234Y-96210476D01*
X133773234Y-96210476D02*
X133820853Y-96258095D01*
X133820853Y-96258095D02*
X133868472Y-96353333D01*
X133868472Y-96353333D02*
X133868472Y-96734285D01*
X133344663Y-95829523D02*
X133344663Y-95210476D01*
X133344663Y-95210476D02*
X133725615Y-95543809D01*
X133725615Y-95543809D02*
X133725615Y-95400952D01*
X133725615Y-95400952D02*
X133773234Y-95305714D01*
X133773234Y-95305714D02*
X133820853Y-95258095D01*
X133820853Y-95258095D02*
X133916091Y-95210476D01*
X133916091Y-95210476D02*
X134154186Y-95210476D01*
X134154186Y-95210476D02*
X134249424Y-95258095D01*
X134249424Y-95258095D02*
X134297044Y-95305714D01*
X134297044Y-95305714D02*
X134344663Y-95400952D01*
X134344663Y-95400952D02*
X134344663Y-95686666D01*
X134344663Y-95686666D02*
X134297044Y-95781904D01*
X134297044Y-95781904D02*
X134249424Y-95829523D01*
X133773234Y-94639047D02*
X133725615Y-94734285D01*
X133725615Y-94734285D02*
X133677996Y-94781904D01*
X133677996Y-94781904D02*
X133582758Y-94829523D01*
X133582758Y-94829523D02*
X133535139Y-94829523D01*
X133535139Y-94829523D02*
X133439901Y-94781904D01*
X133439901Y-94781904D02*
X133392282Y-94734285D01*
X133392282Y-94734285D02*
X133344663Y-94639047D01*
X133344663Y-94639047D02*
X133344663Y-94448571D01*
X133344663Y-94448571D02*
X133392282Y-94353333D01*
X133392282Y-94353333D02*
X133439901Y-94305714D01*
X133439901Y-94305714D02*
X133535139Y-94258095D01*
X133535139Y-94258095D02*
X133582758Y-94258095D01*
X133582758Y-94258095D02*
X133677996Y-94305714D01*
X133677996Y-94305714D02*
X133725615Y-94353333D01*
X133725615Y-94353333D02*
X133773234Y-94448571D01*
X133773234Y-94448571D02*
X133773234Y-94639047D01*
X133773234Y-94639047D02*
X133820853Y-94734285D01*
X133820853Y-94734285D02*
X133868472Y-94781904D01*
X133868472Y-94781904D02*
X133963710Y-94829523D01*
X133963710Y-94829523D02*
X134154186Y-94829523D01*
X134154186Y-94829523D02*
X134249424Y-94781904D01*
X134249424Y-94781904D02*
X134297044Y-94734285D01*
X134297044Y-94734285D02*
X134344663Y-94639047D01*
X134344663Y-94639047D02*
X134344663Y-94448571D01*
X134344663Y-94448571D02*
X134297044Y-94353333D01*
X134297044Y-94353333D02*
X134249424Y-94305714D01*
X134249424Y-94305714D02*
X134154186Y-94258095D01*
X134154186Y-94258095D02*
X133963710Y-94258095D01*
X133963710Y-94258095D02*
X133868472Y-94305714D01*
X133868472Y-94305714D02*
X133820853Y-94353333D01*
X133820853Y-94353333D02*
X133773234Y-94448571D01*
X166634663Y-65642857D02*
X166158472Y-65976190D01*
X166634663Y-66214285D02*
X165634663Y-66214285D01*
X165634663Y-66214285D02*
X165634663Y-65833333D01*
X165634663Y-65833333D02*
X165682282Y-65738095D01*
X165682282Y-65738095D02*
X165729901Y-65690476D01*
X165729901Y-65690476D02*
X165825139Y-65642857D01*
X165825139Y-65642857D02*
X165967996Y-65642857D01*
X165967996Y-65642857D02*
X166063234Y-65690476D01*
X166063234Y-65690476D02*
X166110853Y-65738095D01*
X166110853Y-65738095D02*
X166158472Y-65833333D01*
X166158472Y-65833333D02*
X166158472Y-66214285D01*
X166634663Y-64690476D02*
X166634663Y-65261904D01*
X166634663Y-64976190D02*
X165634663Y-64976190D01*
X165634663Y-64976190D02*
X165777520Y-65071428D01*
X165777520Y-65071428D02*
X165872758Y-65166666D01*
X165872758Y-65166666D02*
X165920377Y-65261904D01*
X166063234Y-64119047D02*
X166015615Y-64214285D01*
X166015615Y-64214285D02*
X165967996Y-64261904D01*
X165967996Y-64261904D02*
X165872758Y-64309523D01*
X165872758Y-64309523D02*
X165825139Y-64309523D01*
X165825139Y-64309523D02*
X165729901Y-64261904D01*
X165729901Y-64261904D02*
X165682282Y-64214285D01*
X165682282Y-64214285D02*
X165634663Y-64119047D01*
X165634663Y-64119047D02*
X165634663Y-63928571D01*
X165634663Y-63928571D02*
X165682282Y-63833333D01*
X165682282Y-63833333D02*
X165729901Y-63785714D01*
X165729901Y-63785714D02*
X165825139Y-63738095D01*
X165825139Y-63738095D02*
X165872758Y-63738095D01*
X165872758Y-63738095D02*
X165967996Y-63785714D01*
X165967996Y-63785714D02*
X166015615Y-63833333D01*
X166015615Y-63833333D02*
X166063234Y-63928571D01*
X166063234Y-63928571D02*
X166063234Y-64119047D01*
X166063234Y-64119047D02*
X166110853Y-64214285D01*
X166110853Y-64214285D02*
X166158472Y-64261904D01*
X166158472Y-64261904D02*
X166253710Y-64309523D01*
X166253710Y-64309523D02*
X166444186Y-64309523D01*
X166444186Y-64309523D02*
X166539424Y-64261904D01*
X166539424Y-64261904D02*
X166587044Y-64214285D01*
X166587044Y-64214285D02*
X166634663Y-64119047D01*
X166634663Y-64119047D02*
X166634663Y-63928571D01*
X166634663Y-63928571D02*
X166587044Y-63833333D01*
X166587044Y-63833333D02*
X166539424Y-63785714D01*
X166539424Y-63785714D02*
X166444186Y-63738095D01*
X166444186Y-63738095D02*
X166253710Y-63738095D01*
X166253710Y-63738095D02*
X166158472Y-63785714D01*
X166158472Y-63785714D02*
X166110853Y-63833333D01*
X166110853Y-63833333D02*
X166063234Y-63928571D01*
X167919642Y-98104663D02*
X167586309Y-97628472D01*
X167348214Y-98104663D02*
X167348214Y-97104663D01*
X167348214Y-97104663D02*
X167729166Y-97104663D01*
X167729166Y-97104663D02*
X167824404Y-97152282D01*
X167824404Y-97152282D02*
X167872023Y-97199901D01*
X167872023Y-97199901D02*
X167919642Y-97295139D01*
X167919642Y-97295139D02*
X167919642Y-97437996D01*
X167919642Y-97437996D02*
X167872023Y-97533234D01*
X167872023Y-97533234D02*
X167824404Y-97580853D01*
X167824404Y-97580853D02*
X167729166Y-97628472D01*
X167729166Y-97628472D02*
X167348214Y-97628472D01*
X168776785Y-97437996D02*
X168776785Y-98104663D01*
X168538690Y-97057044D02*
X168300595Y-97771329D01*
X168300595Y-97771329D02*
X168919642Y-97771329D01*
X169729166Y-97437996D02*
X169729166Y-98104663D01*
X169491071Y-97057044D02*
X169252976Y-97771329D01*
X169252976Y-97771329D02*
X169872023Y-97771329D01*
X146554663Y-100761904D02*
X147364186Y-100761904D01*
X147364186Y-100761904D02*
X147459424Y-100714285D01*
X147459424Y-100714285D02*
X147507044Y-100666666D01*
X147507044Y-100666666D02*
X147554663Y-100571428D01*
X147554663Y-100571428D02*
X147554663Y-100380952D01*
X147554663Y-100380952D02*
X147507044Y-100285714D01*
X147507044Y-100285714D02*
X147459424Y-100238095D01*
X147459424Y-100238095D02*
X147364186Y-100190476D01*
X147364186Y-100190476D02*
X146554663Y-100190476D01*
X146649901Y-99761904D02*
X146602282Y-99714285D01*
X146602282Y-99714285D02*
X146554663Y-99619047D01*
X146554663Y-99619047D02*
X146554663Y-99380952D01*
X146554663Y-99380952D02*
X146602282Y-99285714D01*
X146602282Y-99285714D02*
X146649901Y-99238095D01*
X146649901Y-99238095D02*
X146745139Y-99190476D01*
X146745139Y-99190476D02*
X146840377Y-99190476D01*
X146840377Y-99190476D02*
X146983234Y-99238095D01*
X146983234Y-99238095D02*
X147554663Y-99809523D01*
X147554663Y-99809523D02*
X147554663Y-99190476D01*
X71634663Y-92642857D02*
X71158472Y-92976190D01*
X71634663Y-93214285D02*
X70634663Y-93214285D01*
X70634663Y-93214285D02*
X70634663Y-92833333D01*
X70634663Y-92833333D02*
X70682282Y-92738095D01*
X70682282Y-92738095D02*
X70729901Y-92690476D01*
X70729901Y-92690476D02*
X70825139Y-92642857D01*
X70825139Y-92642857D02*
X70967996Y-92642857D01*
X70967996Y-92642857D02*
X71063234Y-92690476D01*
X71063234Y-92690476D02*
X71110853Y-92738095D01*
X71110853Y-92738095D02*
X71158472Y-92833333D01*
X71158472Y-92833333D02*
X71158472Y-93214285D01*
X70729901Y-92261904D02*
X70682282Y-92214285D01*
X70682282Y-92214285D02*
X70634663Y-92119047D01*
X70634663Y-92119047D02*
X70634663Y-91880952D01*
X70634663Y-91880952D02*
X70682282Y-91785714D01*
X70682282Y-91785714D02*
X70729901Y-91738095D01*
X70729901Y-91738095D02*
X70825139Y-91690476D01*
X70825139Y-91690476D02*
X70920377Y-91690476D01*
X70920377Y-91690476D02*
X71063234Y-91738095D01*
X71063234Y-91738095D02*
X71634663Y-92309523D01*
X71634663Y-92309523D02*
X71634663Y-91690476D01*
X70634663Y-91357142D02*
X70634663Y-90690476D01*
X70634663Y-90690476D02*
X71634663Y-91119047D01*
X250857142Y-82884663D02*
X250523809Y-82408472D01*
X250285714Y-82884663D02*
X250285714Y-81884663D01*
X250285714Y-81884663D02*
X250666666Y-81884663D01*
X250666666Y-81884663D02*
X250761904Y-81932282D01*
X250761904Y-81932282D02*
X250809523Y-81979901D01*
X250809523Y-81979901D02*
X250857142Y-82075139D01*
X250857142Y-82075139D02*
X250857142Y-82217996D01*
X250857142Y-82217996D02*
X250809523Y-82313234D01*
X250809523Y-82313234D02*
X250761904Y-82360853D01*
X250761904Y-82360853D02*
X250666666Y-82408472D01*
X250666666Y-82408472D02*
X250285714Y-82408472D01*
X251809523Y-82884663D02*
X251238095Y-82884663D01*
X251523809Y-82884663D02*
X251523809Y-81884663D01*
X251523809Y-81884663D02*
X251428571Y-82027520D01*
X251428571Y-82027520D02*
X251333333Y-82122758D01*
X251333333Y-82122758D02*
X251238095Y-82170377D01*
X252714285Y-81884663D02*
X252238095Y-81884663D01*
X252238095Y-81884663D02*
X252190476Y-82360853D01*
X252190476Y-82360853D02*
X252238095Y-82313234D01*
X252238095Y-82313234D02*
X252333333Y-82265615D01*
X252333333Y-82265615D02*
X252571428Y-82265615D01*
X252571428Y-82265615D02*
X252666666Y-82313234D01*
X252666666Y-82313234D02*
X252714285Y-82360853D01*
X252714285Y-82360853D02*
X252761904Y-82456091D01*
X252761904Y-82456091D02*
X252761904Y-82694186D01*
X252761904Y-82694186D02*
X252714285Y-82789424D01*
X252714285Y-82789424D02*
X252666666Y-82837044D01*
X252666666Y-82837044D02*
X252571428Y-82884663D01*
X252571428Y-82884663D02*
X252333333Y-82884663D01*
X252333333Y-82884663D02*
X252238095Y-82837044D01*
X252238095Y-82837044D02*
X252190476Y-82789424D01*
X251333333Y-92884663D02*
X251000000Y-92408472D01*
X250761905Y-92884663D02*
X250761905Y-91884663D01*
X250761905Y-91884663D02*
X251142857Y-91884663D01*
X251142857Y-91884663D02*
X251238095Y-91932282D01*
X251238095Y-91932282D02*
X251285714Y-91979901D01*
X251285714Y-91979901D02*
X251333333Y-92075139D01*
X251333333Y-92075139D02*
X251333333Y-92217996D01*
X251333333Y-92217996D02*
X251285714Y-92313234D01*
X251285714Y-92313234D02*
X251238095Y-92360853D01*
X251238095Y-92360853D02*
X251142857Y-92408472D01*
X251142857Y-92408472D02*
X250761905Y-92408472D01*
X251714286Y-91979901D02*
X251761905Y-91932282D01*
X251761905Y-91932282D02*
X251857143Y-91884663D01*
X251857143Y-91884663D02*
X252095238Y-91884663D01*
X252095238Y-91884663D02*
X252190476Y-91932282D01*
X252190476Y-91932282D02*
X252238095Y-91979901D01*
X252238095Y-91979901D02*
X252285714Y-92075139D01*
X252285714Y-92075139D02*
X252285714Y-92170377D01*
X252285714Y-92170377D02*
X252238095Y-92313234D01*
X252238095Y-92313234D02*
X251666667Y-92884663D01*
X251666667Y-92884663D02*
X252285714Y-92884663D01*
X191634663Y-92642857D02*
X191158472Y-92976190D01*
X191634663Y-93214285D02*
X190634663Y-93214285D01*
X190634663Y-93214285D02*
X190634663Y-92833333D01*
X190634663Y-92833333D02*
X190682282Y-92738095D01*
X190682282Y-92738095D02*
X190729901Y-92690476D01*
X190729901Y-92690476D02*
X190825139Y-92642857D01*
X190825139Y-92642857D02*
X190967996Y-92642857D01*
X190967996Y-92642857D02*
X191063234Y-92690476D01*
X191063234Y-92690476D02*
X191110853Y-92738095D01*
X191110853Y-92738095D02*
X191158472Y-92833333D01*
X191158472Y-92833333D02*
X191158472Y-93214285D01*
X190967996Y-91785714D02*
X191634663Y-91785714D01*
X190587044Y-92023809D02*
X191301329Y-92261904D01*
X191301329Y-92261904D02*
X191301329Y-91642857D01*
X190634663Y-91357142D02*
X190634663Y-90690476D01*
X190634663Y-90690476D02*
X191634663Y-91119047D01*
X116428571Y-101249901D02*
X116333333Y-101202282D01*
X116333333Y-101202282D02*
X116238095Y-101107044D01*
X116238095Y-101107044D02*
X116095238Y-100964186D01*
X116095238Y-100964186D02*
X116000000Y-100916567D01*
X116000000Y-100916567D02*
X115904762Y-100916567D01*
X115952381Y-101154663D02*
X115857143Y-101107044D01*
X115857143Y-101107044D02*
X115761905Y-101011805D01*
X115761905Y-101011805D02*
X115714286Y-100821329D01*
X115714286Y-100821329D02*
X115714286Y-100487996D01*
X115714286Y-100487996D02*
X115761905Y-100297520D01*
X115761905Y-100297520D02*
X115857143Y-100202282D01*
X115857143Y-100202282D02*
X115952381Y-100154663D01*
X115952381Y-100154663D02*
X116142857Y-100154663D01*
X116142857Y-100154663D02*
X116238095Y-100202282D01*
X116238095Y-100202282D02*
X116333333Y-100297520D01*
X116333333Y-100297520D02*
X116380952Y-100487996D01*
X116380952Y-100487996D02*
X116380952Y-100821329D01*
X116380952Y-100821329D02*
X116333333Y-101011805D01*
X116333333Y-101011805D02*
X116238095Y-101107044D01*
X116238095Y-101107044D02*
X116142857Y-101154663D01*
X116142857Y-101154663D02*
X115952381Y-101154663D01*
X117333333Y-101154663D02*
X116761905Y-101154663D01*
X117047619Y-101154663D02*
X117047619Y-100154663D01*
X117047619Y-100154663D02*
X116952381Y-100297520D01*
X116952381Y-100297520D02*
X116857143Y-100392758D01*
X116857143Y-100392758D02*
X116761905Y-100440377D01*
X117666667Y-100154663D02*
X118333333Y-100154663D01*
X118333333Y-100154663D02*
X117904762Y-101154663D01*
X116428571Y-91949901D02*
X116333333Y-91902282D01*
X116333333Y-91902282D02*
X116238095Y-91807044D01*
X116238095Y-91807044D02*
X116095238Y-91664186D01*
X116095238Y-91664186D02*
X116000000Y-91616567D01*
X116000000Y-91616567D02*
X115904762Y-91616567D01*
X115952381Y-91854663D02*
X115857143Y-91807044D01*
X115857143Y-91807044D02*
X115761905Y-91711805D01*
X115761905Y-91711805D02*
X115714286Y-91521329D01*
X115714286Y-91521329D02*
X115714286Y-91187996D01*
X115714286Y-91187996D02*
X115761905Y-90997520D01*
X115761905Y-90997520D02*
X115857143Y-90902282D01*
X115857143Y-90902282D02*
X115952381Y-90854663D01*
X115952381Y-90854663D02*
X116142857Y-90854663D01*
X116142857Y-90854663D02*
X116238095Y-90902282D01*
X116238095Y-90902282D02*
X116333333Y-90997520D01*
X116333333Y-90997520D02*
X116380952Y-91187996D01*
X116380952Y-91187996D02*
X116380952Y-91521329D01*
X116380952Y-91521329D02*
X116333333Y-91711805D01*
X116333333Y-91711805D02*
X116238095Y-91807044D01*
X116238095Y-91807044D02*
X116142857Y-91854663D01*
X116142857Y-91854663D02*
X115952381Y-91854663D01*
X117333333Y-91854663D02*
X116761905Y-91854663D01*
X117047619Y-91854663D02*
X117047619Y-90854663D01*
X117047619Y-90854663D02*
X116952381Y-90997520D01*
X116952381Y-90997520D02*
X116857143Y-91092758D01*
X116857143Y-91092758D02*
X116761905Y-91140377D01*
X118190476Y-90854663D02*
X118000000Y-90854663D01*
X118000000Y-90854663D02*
X117904762Y-90902282D01*
X117904762Y-90902282D02*
X117857143Y-90949901D01*
X117857143Y-90949901D02*
X117761905Y-91092758D01*
X117761905Y-91092758D02*
X117714286Y-91283234D01*
X117714286Y-91283234D02*
X117714286Y-91664186D01*
X117714286Y-91664186D02*
X117761905Y-91759424D01*
X117761905Y-91759424D02*
X117809524Y-91807044D01*
X117809524Y-91807044D02*
X117904762Y-91854663D01*
X117904762Y-91854663D02*
X118095238Y-91854663D01*
X118095238Y-91854663D02*
X118190476Y-91807044D01*
X118190476Y-91807044D02*
X118238095Y-91759424D01*
X118238095Y-91759424D02*
X118285714Y-91664186D01*
X118285714Y-91664186D02*
X118285714Y-91426091D01*
X118285714Y-91426091D02*
X118238095Y-91330853D01*
X118238095Y-91330853D02*
X118190476Y-91283234D01*
X118190476Y-91283234D02*
X118095238Y-91235615D01*
X118095238Y-91235615D02*
X117904762Y-91235615D01*
X117904762Y-91235615D02*
X117809524Y-91283234D01*
X117809524Y-91283234D02*
X117761905Y-91330853D01*
X117761905Y-91330853D02*
X117714286Y-91426091D01*
X250857142Y-72884663D02*
X250523809Y-72408472D01*
X250285714Y-72884663D02*
X250285714Y-71884663D01*
X250285714Y-71884663D02*
X250666666Y-71884663D01*
X250666666Y-71884663D02*
X250761904Y-71932282D01*
X250761904Y-71932282D02*
X250809523Y-71979901D01*
X250809523Y-71979901D02*
X250857142Y-72075139D01*
X250857142Y-72075139D02*
X250857142Y-72217996D01*
X250857142Y-72217996D02*
X250809523Y-72313234D01*
X250809523Y-72313234D02*
X250761904Y-72360853D01*
X250761904Y-72360853D02*
X250666666Y-72408472D01*
X250666666Y-72408472D02*
X250285714Y-72408472D01*
X251809523Y-72884663D02*
X251238095Y-72884663D01*
X251523809Y-72884663D02*
X251523809Y-71884663D01*
X251523809Y-71884663D02*
X251428571Y-72027520D01*
X251428571Y-72027520D02*
X251333333Y-72122758D01*
X251333333Y-72122758D02*
X251238095Y-72170377D01*
X252142857Y-71884663D02*
X252761904Y-71884663D01*
X252761904Y-71884663D02*
X252428571Y-72265615D01*
X252428571Y-72265615D02*
X252571428Y-72265615D01*
X252571428Y-72265615D02*
X252666666Y-72313234D01*
X252666666Y-72313234D02*
X252714285Y-72360853D01*
X252714285Y-72360853D02*
X252761904Y-72456091D01*
X252761904Y-72456091D02*
X252761904Y-72694186D01*
X252761904Y-72694186D02*
X252714285Y-72789424D01*
X252714285Y-72789424D02*
X252666666Y-72837044D01*
X252666666Y-72837044D02*
X252571428Y-72884663D01*
X252571428Y-72884663D02*
X252285714Y-72884663D01*
X252285714Y-72884663D02*
X252190476Y-72837044D01*
X252190476Y-72837044D02*
X252142857Y-72789424D01*
X115634663Y-65166666D02*
X115158472Y-65499999D01*
X115634663Y-65738094D02*
X114634663Y-65738094D01*
X114634663Y-65738094D02*
X114634663Y-65357142D01*
X114634663Y-65357142D02*
X114682282Y-65261904D01*
X114682282Y-65261904D02*
X114729901Y-65214285D01*
X114729901Y-65214285D02*
X114825139Y-65166666D01*
X114825139Y-65166666D02*
X114967996Y-65166666D01*
X114967996Y-65166666D02*
X115063234Y-65214285D01*
X115063234Y-65214285D02*
X115110853Y-65261904D01*
X115110853Y-65261904D02*
X115158472Y-65357142D01*
X115158472Y-65357142D02*
X115158472Y-65738094D01*
X114634663Y-64833332D02*
X114634663Y-64166666D01*
X114634663Y-64166666D02*
X115634663Y-64595237D01*
X250957142Y-87884663D02*
X250623809Y-87408472D01*
X250385714Y-87884663D02*
X250385714Y-86884663D01*
X250385714Y-86884663D02*
X250766666Y-86884663D01*
X250766666Y-86884663D02*
X250861904Y-86932282D01*
X250861904Y-86932282D02*
X250909523Y-86979901D01*
X250909523Y-86979901D02*
X250957142Y-87075139D01*
X250957142Y-87075139D02*
X250957142Y-87217996D01*
X250957142Y-87217996D02*
X250909523Y-87313234D01*
X250909523Y-87313234D02*
X250861904Y-87360853D01*
X250861904Y-87360853D02*
X250766666Y-87408472D01*
X250766666Y-87408472D02*
X250385714Y-87408472D01*
X251909523Y-87884663D02*
X251338095Y-87884663D01*
X251623809Y-87884663D02*
X251623809Y-86884663D01*
X251623809Y-86884663D02*
X251528571Y-87027520D01*
X251528571Y-87027520D02*
X251433333Y-87122758D01*
X251433333Y-87122758D02*
X251338095Y-87170377D01*
X252385714Y-87884663D02*
X252576190Y-87884663D01*
X252576190Y-87884663D02*
X252671428Y-87837044D01*
X252671428Y-87837044D02*
X252719047Y-87789424D01*
X252719047Y-87789424D02*
X252814285Y-87646567D01*
X252814285Y-87646567D02*
X252861904Y-87456091D01*
X252861904Y-87456091D02*
X252861904Y-87075139D01*
X252861904Y-87075139D02*
X252814285Y-86979901D01*
X252814285Y-86979901D02*
X252766666Y-86932282D01*
X252766666Y-86932282D02*
X252671428Y-86884663D01*
X252671428Y-86884663D02*
X252480952Y-86884663D01*
X252480952Y-86884663D02*
X252385714Y-86932282D01*
X252385714Y-86932282D02*
X252338095Y-86979901D01*
X252338095Y-86979901D02*
X252290476Y-87075139D01*
X252290476Y-87075139D02*
X252290476Y-87313234D01*
X252290476Y-87313234D02*
X252338095Y-87408472D01*
X252338095Y-87408472D02*
X252385714Y-87456091D01*
X252385714Y-87456091D02*
X252480952Y-87503710D01*
X252480952Y-87503710D02*
X252671428Y-87503710D01*
X252671428Y-87503710D02*
X252766666Y-87456091D01*
X252766666Y-87456091D02*
X252814285Y-87408472D01*
X252814285Y-87408472D02*
X252861904Y-87313234D01*
X65227142Y-91494663D02*
X64893809Y-91018472D01*
X64655714Y-91494663D02*
X64655714Y-90494663D01*
X64655714Y-90494663D02*
X65036666Y-90494663D01*
X65036666Y-90494663D02*
X65131904Y-90542282D01*
X65131904Y-90542282D02*
X65179523Y-90589901D01*
X65179523Y-90589901D02*
X65227142Y-90685139D01*
X65227142Y-90685139D02*
X65227142Y-90827996D01*
X65227142Y-90827996D02*
X65179523Y-90923234D01*
X65179523Y-90923234D02*
X65131904Y-90970853D01*
X65131904Y-90970853D02*
X65036666Y-91018472D01*
X65036666Y-91018472D02*
X64655714Y-91018472D01*
X65608095Y-90589901D02*
X65655714Y-90542282D01*
X65655714Y-90542282D02*
X65750952Y-90494663D01*
X65750952Y-90494663D02*
X65989047Y-90494663D01*
X65989047Y-90494663D02*
X66084285Y-90542282D01*
X66084285Y-90542282D02*
X66131904Y-90589901D01*
X66131904Y-90589901D02*
X66179523Y-90685139D01*
X66179523Y-90685139D02*
X66179523Y-90780377D01*
X66179523Y-90780377D02*
X66131904Y-90923234D01*
X66131904Y-90923234D02*
X65560476Y-91494663D01*
X65560476Y-91494663D02*
X66179523Y-91494663D01*
X67084285Y-90494663D02*
X66608095Y-90494663D01*
X66608095Y-90494663D02*
X66560476Y-90970853D01*
X66560476Y-90970853D02*
X66608095Y-90923234D01*
X66608095Y-90923234D02*
X66703333Y-90875615D01*
X66703333Y-90875615D02*
X66941428Y-90875615D01*
X66941428Y-90875615D02*
X67036666Y-90923234D01*
X67036666Y-90923234D02*
X67084285Y-90970853D01*
X67084285Y-90970853D02*
X67131904Y-91066091D01*
X67131904Y-91066091D02*
X67131904Y-91304186D01*
X67131904Y-91304186D02*
X67084285Y-91399424D01*
X67084285Y-91399424D02*
X67036666Y-91447044D01*
X67036666Y-91447044D02*
X66941428Y-91494663D01*
X66941428Y-91494663D02*
X66703333Y-91494663D01*
X66703333Y-91494663D02*
X66608095Y-91447044D01*
X66608095Y-91447044D02*
X66560476Y-91399424D01*
X143919642Y-98104663D02*
X143586309Y-97628472D01*
X143348214Y-98104663D02*
X143348214Y-97104663D01*
X143348214Y-97104663D02*
X143729166Y-97104663D01*
X143729166Y-97104663D02*
X143824404Y-97152282D01*
X143824404Y-97152282D02*
X143872023Y-97199901D01*
X143872023Y-97199901D02*
X143919642Y-97295139D01*
X143919642Y-97295139D02*
X143919642Y-97437996D01*
X143919642Y-97437996D02*
X143872023Y-97533234D01*
X143872023Y-97533234D02*
X143824404Y-97580853D01*
X143824404Y-97580853D02*
X143729166Y-97628472D01*
X143729166Y-97628472D02*
X143348214Y-97628472D01*
X144776785Y-97437996D02*
X144776785Y-98104663D01*
X144538690Y-97057044D02*
X144300595Y-97771329D01*
X144300595Y-97771329D02*
X144919642Y-97771329D01*
X145491071Y-97104663D02*
X145586309Y-97104663D01*
X145586309Y-97104663D02*
X145681547Y-97152282D01*
X145681547Y-97152282D02*
X145729166Y-97199901D01*
X145729166Y-97199901D02*
X145776785Y-97295139D01*
X145776785Y-97295139D02*
X145824404Y-97485615D01*
X145824404Y-97485615D02*
X145824404Y-97723710D01*
X145824404Y-97723710D02*
X145776785Y-97914186D01*
X145776785Y-97914186D02*
X145729166Y-98009424D01*
X145729166Y-98009424D02*
X145681547Y-98057044D01*
X145681547Y-98057044D02*
X145586309Y-98104663D01*
X145586309Y-98104663D02*
X145491071Y-98104663D01*
X145491071Y-98104663D02*
X145395833Y-98057044D01*
X145395833Y-98057044D02*
X145348214Y-98009424D01*
X145348214Y-98009424D02*
X145300595Y-97914186D01*
X145300595Y-97914186D02*
X145252976Y-97723710D01*
X145252976Y-97723710D02*
X145252976Y-97485615D01*
X145252976Y-97485615D02*
X145300595Y-97295139D01*
X145300595Y-97295139D02*
X145348214Y-97199901D01*
X145348214Y-97199901D02*
X145395833Y-97152282D01*
X145395833Y-97152282D02*
X145491071Y-97104663D01*
X119919642Y-98104663D02*
X119586309Y-97628472D01*
X119348214Y-98104663D02*
X119348214Y-97104663D01*
X119348214Y-97104663D02*
X119729166Y-97104663D01*
X119729166Y-97104663D02*
X119824404Y-97152282D01*
X119824404Y-97152282D02*
X119872023Y-97199901D01*
X119872023Y-97199901D02*
X119919642Y-97295139D01*
X119919642Y-97295139D02*
X119919642Y-97437996D01*
X119919642Y-97437996D02*
X119872023Y-97533234D01*
X119872023Y-97533234D02*
X119824404Y-97580853D01*
X119824404Y-97580853D02*
X119729166Y-97628472D01*
X119729166Y-97628472D02*
X119348214Y-97628472D01*
X120252976Y-97104663D02*
X120872023Y-97104663D01*
X120872023Y-97104663D02*
X120538690Y-97485615D01*
X120538690Y-97485615D02*
X120681547Y-97485615D01*
X120681547Y-97485615D02*
X120776785Y-97533234D01*
X120776785Y-97533234D02*
X120824404Y-97580853D01*
X120824404Y-97580853D02*
X120872023Y-97676091D01*
X120872023Y-97676091D02*
X120872023Y-97914186D01*
X120872023Y-97914186D02*
X120824404Y-98009424D01*
X120824404Y-98009424D02*
X120776785Y-98057044D01*
X120776785Y-98057044D02*
X120681547Y-98104663D01*
X120681547Y-98104663D02*
X120395833Y-98104663D01*
X120395833Y-98104663D02*
X120300595Y-98057044D01*
X120300595Y-98057044D02*
X120252976Y-98009424D01*
X121729166Y-97104663D02*
X121538690Y-97104663D01*
X121538690Y-97104663D02*
X121443452Y-97152282D01*
X121443452Y-97152282D02*
X121395833Y-97199901D01*
X121395833Y-97199901D02*
X121300595Y-97342758D01*
X121300595Y-97342758D02*
X121252976Y-97533234D01*
X121252976Y-97533234D02*
X121252976Y-97914186D01*
X121252976Y-97914186D02*
X121300595Y-98009424D01*
X121300595Y-98009424D02*
X121348214Y-98057044D01*
X121348214Y-98057044D02*
X121443452Y-98104663D01*
X121443452Y-98104663D02*
X121633928Y-98104663D01*
X121633928Y-98104663D02*
X121729166Y-98057044D01*
X121729166Y-98057044D02*
X121776785Y-98009424D01*
X121776785Y-98009424D02*
X121824404Y-97914186D01*
X121824404Y-97914186D02*
X121824404Y-97676091D01*
X121824404Y-97676091D02*
X121776785Y-97580853D01*
X121776785Y-97580853D02*
X121729166Y-97533234D01*
X121729166Y-97533234D02*
X121633928Y-97485615D01*
X121633928Y-97485615D02*
X121443452Y-97485615D01*
X121443452Y-97485615D02*
X121348214Y-97533234D01*
X121348214Y-97533234D02*
X121300595Y-97580853D01*
X121300595Y-97580853D02*
X121252976Y-97676091D01*
X209227142Y-91494663D02*
X208893809Y-91018472D01*
X208655714Y-91494663D02*
X208655714Y-90494663D01*
X208655714Y-90494663D02*
X209036666Y-90494663D01*
X209036666Y-90494663D02*
X209131904Y-90542282D01*
X209131904Y-90542282D02*
X209179523Y-90589901D01*
X209179523Y-90589901D02*
X209227142Y-90685139D01*
X209227142Y-90685139D02*
X209227142Y-90827996D01*
X209227142Y-90827996D02*
X209179523Y-90923234D01*
X209179523Y-90923234D02*
X209131904Y-90970853D01*
X209131904Y-90970853D02*
X209036666Y-91018472D01*
X209036666Y-91018472D02*
X208655714Y-91018472D01*
X210084285Y-90827996D02*
X210084285Y-91494663D01*
X209846190Y-90447044D02*
X209608095Y-91161329D01*
X209608095Y-91161329D02*
X210227142Y-91161329D01*
X210655714Y-91494663D02*
X210846190Y-91494663D01*
X210846190Y-91494663D02*
X210941428Y-91447044D01*
X210941428Y-91447044D02*
X210989047Y-91399424D01*
X210989047Y-91399424D02*
X211084285Y-91256567D01*
X211084285Y-91256567D02*
X211131904Y-91066091D01*
X211131904Y-91066091D02*
X211131904Y-90685139D01*
X211131904Y-90685139D02*
X211084285Y-90589901D01*
X211084285Y-90589901D02*
X211036666Y-90542282D01*
X211036666Y-90542282D02*
X210941428Y-90494663D01*
X210941428Y-90494663D02*
X210750952Y-90494663D01*
X210750952Y-90494663D02*
X210655714Y-90542282D01*
X210655714Y-90542282D02*
X210608095Y-90589901D01*
X210608095Y-90589901D02*
X210560476Y-90685139D01*
X210560476Y-90685139D02*
X210560476Y-90923234D01*
X210560476Y-90923234D02*
X210608095Y-91018472D01*
X210608095Y-91018472D02*
X210655714Y-91066091D01*
X210655714Y-91066091D02*
X210750952Y-91113710D01*
X210750952Y-91113710D02*
X210941428Y-91113710D01*
X210941428Y-91113710D02*
X211036666Y-91066091D01*
X211036666Y-91066091D02*
X211084285Y-91018472D01*
X211084285Y-91018472D02*
X211131904Y-90923234D01*
X236428571Y-91949901D02*
X236333333Y-91902282D01*
X236333333Y-91902282D02*
X236238095Y-91807044D01*
X236238095Y-91807044D02*
X236095238Y-91664186D01*
X236095238Y-91664186D02*
X236000000Y-91616567D01*
X236000000Y-91616567D02*
X235904762Y-91616567D01*
X235952381Y-91854663D02*
X235857143Y-91807044D01*
X235857143Y-91807044D02*
X235761905Y-91711805D01*
X235761905Y-91711805D02*
X235714286Y-91521329D01*
X235714286Y-91521329D02*
X235714286Y-91187996D01*
X235714286Y-91187996D02*
X235761905Y-90997520D01*
X235761905Y-90997520D02*
X235857143Y-90902282D01*
X235857143Y-90902282D02*
X235952381Y-90854663D01*
X235952381Y-90854663D02*
X236142857Y-90854663D01*
X236142857Y-90854663D02*
X236238095Y-90902282D01*
X236238095Y-90902282D02*
X236333333Y-90997520D01*
X236333333Y-90997520D02*
X236380952Y-91187996D01*
X236380952Y-91187996D02*
X236380952Y-91521329D01*
X236380952Y-91521329D02*
X236333333Y-91711805D01*
X236333333Y-91711805D02*
X236238095Y-91807044D01*
X236238095Y-91807044D02*
X236142857Y-91854663D01*
X236142857Y-91854663D02*
X235952381Y-91854663D01*
X236761905Y-90949901D02*
X236809524Y-90902282D01*
X236809524Y-90902282D02*
X236904762Y-90854663D01*
X236904762Y-90854663D02*
X237142857Y-90854663D01*
X237142857Y-90854663D02*
X237238095Y-90902282D01*
X237238095Y-90902282D02*
X237285714Y-90949901D01*
X237285714Y-90949901D02*
X237333333Y-91045139D01*
X237333333Y-91045139D02*
X237333333Y-91140377D01*
X237333333Y-91140377D02*
X237285714Y-91283234D01*
X237285714Y-91283234D02*
X236714286Y-91854663D01*
X236714286Y-91854663D02*
X237333333Y-91854663D01*
X238190476Y-90854663D02*
X238000000Y-90854663D01*
X238000000Y-90854663D02*
X237904762Y-90902282D01*
X237904762Y-90902282D02*
X237857143Y-90949901D01*
X237857143Y-90949901D02*
X237761905Y-91092758D01*
X237761905Y-91092758D02*
X237714286Y-91283234D01*
X237714286Y-91283234D02*
X237714286Y-91664186D01*
X237714286Y-91664186D02*
X237761905Y-91759424D01*
X237761905Y-91759424D02*
X237809524Y-91807044D01*
X237809524Y-91807044D02*
X237904762Y-91854663D01*
X237904762Y-91854663D02*
X238095238Y-91854663D01*
X238095238Y-91854663D02*
X238190476Y-91807044D01*
X238190476Y-91807044D02*
X238238095Y-91759424D01*
X238238095Y-91759424D02*
X238285714Y-91664186D01*
X238285714Y-91664186D02*
X238285714Y-91426091D01*
X238285714Y-91426091D02*
X238238095Y-91330853D01*
X238238095Y-91330853D02*
X238190476Y-91283234D01*
X238190476Y-91283234D02*
X238095238Y-91235615D01*
X238095238Y-91235615D02*
X237904762Y-91235615D01*
X237904762Y-91235615D02*
X237809524Y-91283234D01*
X237809524Y-91283234D02*
X237761905Y-91330853D01*
X237761905Y-91330853D02*
X237714286Y-91426091D01*
X56833333Y-112884663D02*
X56500000Y-112408472D01*
X56261905Y-112884663D02*
X56261905Y-111884663D01*
X56261905Y-111884663D02*
X56642857Y-111884663D01*
X56642857Y-111884663D02*
X56738095Y-111932282D01*
X56738095Y-111932282D02*
X56785714Y-111979901D01*
X56785714Y-111979901D02*
X56833333Y-112075139D01*
X56833333Y-112075139D02*
X56833333Y-112217996D01*
X56833333Y-112217996D02*
X56785714Y-112313234D01*
X56785714Y-112313234D02*
X56738095Y-112360853D01*
X56738095Y-112360853D02*
X56642857Y-112408472D01*
X56642857Y-112408472D02*
X56261905Y-112408472D01*
X57785714Y-112884663D02*
X57214286Y-112884663D01*
X57500000Y-112884663D02*
X57500000Y-111884663D01*
X57500000Y-111884663D02*
X57404762Y-112027520D01*
X57404762Y-112027520D02*
X57309524Y-112122758D01*
X57309524Y-112122758D02*
X57214286Y-112170377D01*
X58904761Y-80499901D02*
X58809523Y-80452282D01*
X58809523Y-80452282D02*
X58714285Y-80357044D01*
X58714285Y-80357044D02*
X58571428Y-80214186D01*
X58571428Y-80214186D02*
X58476190Y-80166567D01*
X58476190Y-80166567D02*
X58380952Y-80166567D01*
X58428571Y-80404663D02*
X58333333Y-80357044D01*
X58333333Y-80357044D02*
X58238095Y-80261805D01*
X58238095Y-80261805D02*
X58190476Y-80071329D01*
X58190476Y-80071329D02*
X58190476Y-79737996D01*
X58190476Y-79737996D02*
X58238095Y-79547520D01*
X58238095Y-79547520D02*
X58333333Y-79452282D01*
X58333333Y-79452282D02*
X58428571Y-79404663D01*
X58428571Y-79404663D02*
X58619047Y-79404663D01*
X58619047Y-79404663D02*
X58714285Y-79452282D01*
X58714285Y-79452282D02*
X58809523Y-79547520D01*
X58809523Y-79547520D02*
X58857142Y-79737996D01*
X58857142Y-79737996D02*
X58857142Y-80071329D01*
X58857142Y-80071329D02*
X58809523Y-80261805D01*
X58809523Y-80261805D02*
X58714285Y-80357044D01*
X58714285Y-80357044D02*
X58619047Y-80404663D01*
X58619047Y-80404663D02*
X58428571Y-80404663D01*
X59190476Y-79404663D02*
X59809523Y-79404663D01*
X59809523Y-79404663D02*
X59476190Y-79785615D01*
X59476190Y-79785615D02*
X59619047Y-79785615D01*
X59619047Y-79785615D02*
X59714285Y-79833234D01*
X59714285Y-79833234D02*
X59761904Y-79880853D01*
X59761904Y-79880853D02*
X59809523Y-79976091D01*
X59809523Y-79976091D02*
X59809523Y-80214186D01*
X59809523Y-80214186D02*
X59761904Y-80309424D01*
X59761904Y-80309424D02*
X59714285Y-80357044D01*
X59714285Y-80357044D02*
X59619047Y-80404663D01*
X59619047Y-80404663D02*
X59333333Y-80404663D01*
X59333333Y-80404663D02*
X59238095Y-80357044D01*
X59238095Y-80357044D02*
X59190476Y-80309424D01*
X142634663Y-65642857D02*
X142158472Y-65976190D01*
X142634663Y-66214285D02*
X141634663Y-66214285D01*
X141634663Y-66214285D02*
X141634663Y-65833333D01*
X141634663Y-65833333D02*
X141682282Y-65738095D01*
X141682282Y-65738095D02*
X141729901Y-65690476D01*
X141729901Y-65690476D02*
X141825139Y-65642857D01*
X141825139Y-65642857D02*
X141967996Y-65642857D01*
X141967996Y-65642857D02*
X142063234Y-65690476D01*
X142063234Y-65690476D02*
X142110853Y-65738095D01*
X142110853Y-65738095D02*
X142158472Y-65833333D01*
X142158472Y-65833333D02*
X142158472Y-66214285D01*
X142634663Y-64690476D02*
X142634663Y-65261904D01*
X142634663Y-64976190D02*
X141634663Y-64976190D01*
X141634663Y-64976190D02*
X141777520Y-65071428D01*
X141777520Y-65071428D02*
X141872758Y-65166666D01*
X141872758Y-65166666D02*
X141920377Y-65261904D01*
X141729901Y-64309523D02*
X141682282Y-64261904D01*
X141682282Y-64261904D02*
X141634663Y-64166666D01*
X141634663Y-64166666D02*
X141634663Y-63928571D01*
X141634663Y-63928571D02*
X141682282Y-63833333D01*
X141682282Y-63833333D02*
X141729901Y-63785714D01*
X141729901Y-63785714D02*
X141825139Y-63738095D01*
X141825139Y-63738095D02*
X141920377Y-63738095D01*
X141920377Y-63738095D02*
X142063234Y-63785714D01*
X142063234Y-63785714D02*
X142634663Y-64357142D01*
X142634663Y-64357142D02*
X142634663Y-63738095D01*
X54757142Y-90524663D02*
X54423809Y-90048472D01*
X54185714Y-90524663D02*
X54185714Y-89524663D01*
X54185714Y-89524663D02*
X54566666Y-89524663D01*
X54566666Y-89524663D02*
X54661904Y-89572282D01*
X54661904Y-89572282D02*
X54709523Y-89619901D01*
X54709523Y-89619901D02*
X54757142Y-89715139D01*
X54757142Y-89715139D02*
X54757142Y-89857996D01*
X54757142Y-89857996D02*
X54709523Y-89953234D01*
X54709523Y-89953234D02*
X54661904Y-90000853D01*
X54661904Y-90000853D02*
X54566666Y-90048472D01*
X54566666Y-90048472D02*
X54185714Y-90048472D01*
X55138095Y-89619901D02*
X55185714Y-89572282D01*
X55185714Y-89572282D02*
X55280952Y-89524663D01*
X55280952Y-89524663D02*
X55519047Y-89524663D01*
X55519047Y-89524663D02*
X55614285Y-89572282D01*
X55614285Y-89572282D02*
X55661904Y-89619901D01*
X55661904Y-89619901D02*
X55709523Y-89715139D01*
X55709523Y-89715139D02*
X55709523Y-89810377D01*
X55709523Y-89810377D02*
X55661904Y-89953234D01*
X55661904Y-89953234D02*
X55090476Y-90524663D01*
X55090476Y-90524663D02*
X55709523Y-90524663D01*
X56328571Y-89524663D02*
X56423809Y-89524663D01*
X56423809Y-89524663D02*
X56519047Y-89572282D01*
X56519047Y-89572282D02*
X56566666Y-89619901D01*
X56566666Y-89619901D02*
X56614285Y-89715139D01*
X56614285Y-89715139D02*
X56661904Y-89905615D01*
X56661904Y-89905615D02*
X56661904Y-90143710D01*
X56661904Y-90143710D02*
X56614285Y-90334186D01*
X56614285Y-90334186D02*
X56566666Y-90429424D01*
X56566666Y-90429424D02*
X56519047Y-90477044D01*
X56519047Y-90477044D02*
X56423809Y-90524663D01*
X56423809Y-90524663D02*
X56328571Y-90524663D01*
X56328571Y-90524663D02*
X56233333Y-90477044D01*
X56233333Y-90477044D02*
X56185714Y-90429424D01*
X56185714Y-90429424D02*
X56138095Y-90334186D01*
X56138095Y-90334186D02*
X56090476Y-90143710D01*
X56090476Y-90143710D02*
X56090476Y-89905615D01*
X56090476Y-89905615D02*
X56138095Y-89715139D01*
X56138095Y-89715139D02*
X56185714Y-89619901D01*
X56185714Y-89619901D02*
X56233333Y-89572282D01*
X56233333Y-89572282D02*
X56328571Y-89524663D01*
X143634663Y-92642857D02*
X143158472Y-92976190D01*
X143634663Y-93214285D02*
X142634663Y-93214285D01*
X142634663Y-93214285D02*
X142634663Y-92833333D01*
X142634663Y-92833333D02*
X142682282Y-92738095D01*
X142682282Y-92738095D02*
X142729901Y-92690476D01*
X142729901Y-92690476D02*
X142825139Y-92642857D01*
X142825139Y-92642857D02*
X142967996Y-92642857D01*
X142967996Y-92642857D02*
X143063234Y-92690476D01*
X143063234Y-92690476D02*
X143110853Y-92738095D01*
X143110853Y-92738095D02*
X143158472Y-92833333D01*
X143158472Y-92833333D02*
X143158472Y-93214285D01*
X142634663Y-92309523D02*
X142634663Y-91690476D01*
X142634663Y-91690476D02*
X143015615Y-92023809D01*
X143015615Y-92023809D02*
X143015615Y-91880952D01*
X143015615Y-91880952D02*
X143063234Y-91785714D01*
X143063234Y-91785714D02*
X143110853Y-91738095D01*
X143110853Y-91738095D02*
X143206091Y-91690476D01*
X143206091Y-91690476D02*
X143444186Y-91690476D01*
X143444186Y-91690476D02*
X143539424Y-91738095D01*
X143539424Y-91738095D02*
X143587044Y-91785714D01*
X143587044Y-91785714D02*
X143634663Y-91880952D01*
X143634663Y-91880952D02*
X143634663Y-92166666D01*
X143634663Y-92166666D02*
X143587044Y-92261904D01*
X143587044Y-92261904D02*
X143539424Y-92309523D01*
X143634663Y-91214285D02*
X143634663Y-91023809D01*
X143634663Y-91023809D02*
X143587044Y-90928571D01*
X143587044Y-90928571D02*
X143539424Y-90880952D01*
X143539424Y-90880952D02*
X143396567Y-90785714D01*
X143396567Y-90785714D02*
X143206091Y-90738095D01*
X143206091Y-90738095D02*
X142825139Y-90738095D01*
X142825139Y-90738095D02*
X142729901Y-90785714D01*
X142729901Y-90785714D02*
X142682282Y-90833333D01*
X142682282Y-90833333D02*
X142634663Y-90928571D01*
X142634663Y-90928571D02*
X142634663Y-91119047D01*
X142634663Y-91119047D02*
X142682282Y-91214285D01*
X142682282Y-91214285D02*
X142729901Y-91261904D01*
X142729901Y-91261904D02*
X142825139Y-91309523D01*
X142825139Y-91309523D02*
X143063234Y-91309523D01*
X143063234Y-91309523D02*
X143158472Y-91261904D01*
X143158472Y-91261904D02*
X143206091Y-91214285D01*
X143206091Y-91214285D02*
X143253710Y-91119047D01*
X143253710Y-91119047D02*
X143253710Y-90928571D01*
X143253710Y-90928571D02*
X143206091Y-90833333D01*
X143206091Y-90833333D02*
X143158472Y-90785714D01*
X143158472Y-90785714D02*
X143063234Y-90738095D01*
X164428571Y-91949901D02*
X164333333Y-91902282D01*
X164333333Y-91902282D02*
X164238095Y-91807044D01*
X164238095Y-91807044D02*
X164095238Y-91664186D01*
X164095238Y-91664186D02*
X164000000Y-91616567D01*
X164000000Y-91616567D02*
X163904762Y-91616567D01*
X163952381Y-91854663D02*
X163857143Y-91807044D01*
X163857143Y-91807044D02*
X163761905Y-91711805D01*
X163761905Y-91711805D02*
X163714286Y-91521329D01*
X163714286Y-91521329D02*
X163714286Y-91187996D01*
X163714286Y-91187996D02*
X163761905Y-90997520D01*
X163761905Y-90997520D02*
X163857143Y-90902282D01*
X163857143Y-90902282D02*
X163952381Y-90854663D01*
X163952381Y-90854663D02*
X164142857Y-90854663D01*
X164142857Y-90854663D02*
X164238095Y-90902282D01*
X164238095Y-90902282D02*
X164333333Y-90997520D01*
X164333333Y-90997520D02*
X164380952Y-91187996D01*
X164380952Y-91187996D02*
X164380952Y-91521329D01*
X164380952Y-91521329D02*
X164333333Y-91711805D01*
X164333333Y-91711805D02*
X164238095Y-91807044D01*
X164238095Y-91807044D02*
X164142857Y-91854663D01*
X164142857Y-91854663D02*
X163952381Y-91854663D01*
X164761905Y-90949901D02*
X164809524Y-90902282D01*
X164809524Y-90902282D02*
X164904762Y-90854663D01*
X164904762Y-90854663D02*
X165142857Y-90854663D01*
X165142857Y-90854663D02*
X165238095Y-90902282D01*
X165238095Y-90902282D02*
X165285714Y-90949901D01*
X165285714Y-90949901D02*
X165333333Y-91045139D01*
X165333333Y-91045139D02*
X165333333Y-91140377D01*
X165333333Y-91140377D02*
X165285714Y-91283234D01*
X165285714Y-91283234D02*
X164714286Y-91854663D01*
X164714286Y-91854663D02*
X165333333Y-91854663D01*
X165952381Y-90854663D02*
X166047619Y-90854663D01*
X166047619Y-90854663D02*
X166142857Y-90902282D01*
X166142857Y-90902282D02*
X166190476Y-90949901D01*
X166190476Y-90949901D02*
X166238095Y-91045139D01*
X166238095Y-91045139D02*
X166285714Y-91235615D01*
X166285714Y-91235615D02*
X166285714Y-91473710D01*
X166285714Y-91473710D02*
X166238095Y-91664186D01*
X166238095Y-91664186D02*
X166190476Y-91759424D01*
X166190476Y-91759424D02*
X166142857Y-91807044D01*
X166142857Y-91807044D02*
X166047619Y-91854663D01*
X166047619Y-91854663D02*
X165952381Y-91854663D01*
X165952381Y-91854663D02*
X165857143Y-91807044D01*
X165857143Y-91807044D02*
X165809524Y-91759424D01*
X165809524Y-91759424D02*
X165761905Y-91664186D01*
X165761905Y-91664186D02*
X165714286Y-91473710D01*
X165714286Y-91473710D02*
X165714286Y-91235615D01*
X165714286Y-91235615D02*
X165761905Y-91045139D01*
X165761905Y-91045139D02*
X165809524Y-90949901D01*
X165809524Y-90949901D02*
X165857143Y-90902282D01*
X165857143Y-90902282D02*
X165952381Y-90854663D01*
X239919642Y-98104663D02*
X239586309Y-97628472D01*
X239348214Y-98104663D02*
X239348214Y-97104663D01*
X239348214Y-97104663D02*
X239729166Y-97104663D01*
X239729166Y-97104663D02*
X239824404Y-97152282D01*
X239824404Y-97152282D02*
X239872023Y-97199901D01*
X239872023Y-97199901D02*
X239919642Y-97295139D01*
X239919642Y-97295139D02*
X239919642Y-97437996D01*
X239919642Y-97437996D02*
X239872023Y-97533234D01*
X239872023Y-97533234D02*
X239824404Y-97580853D01*
X239824404Y-97580853D02*
X239729166Y-97628472D01*
X239729166Y-97628472D02*
X239348214Y-97628472D01*
X240824404Y-97104663D02*
X240348214Y-97104663D01*
X240348214Y-97104663D02*
X240300595Y-97580853D01*
X240300595Y-97580853D02*
X240348214Y-97533234D01*
X240348214Y-97533234D02*
X240443452Y-97485615D01*
X240443452Y-97485615D02*
X240681547Y-97485615D01*
X240681547Y-97485615D02*
X240776785Y-97533234D01*
X240776785Y-97533234D02*
X240824404Y-97580853D01*
X240824404Y-97580853D02*
X240872023Y-97676091D01*
X240872023Y-97676091D02*
X240872023Y-97914186D01*
X240872023Y-97914186D02*
X240824404Y-98009424D01*
X240824404Y-98009424D02*
X240776785Y-98057044D01*
X240776785Y-98057044D02*
X240681547Y-98104663D01*
X240681547Y-98104663D02*
X240443452Y-98104663D01*
X240443452Y-98104663D02*
X240348214Y-98057044D01*
X240348214Y-98057044D02*
X240300595Y-98009424D01*
X241729166Y-97104663D02*
X241538690Y-97104663D01*
X241538690Y-97104663D02*
X241443452Y-97152282D01*
X241443452Y-97152282D02*
X241395833Y-97199901D01*
X241395833Y-97199901D02*
X241300595Y-97342758D01*
X241300595Y-97342758D02*
X241252976Y-97533234D01*
X241252976Y-97533234D02*
X241252976Y-97914186D01*
X241252976Y-97914186D02*
X241300595Y-98009424D01*
X241300595Y-98009424D02*
X241348214Y-98057044D01*
X241348214Y-98057044D02*
X241443452Y-98104663D01*
X241443452Y-98104663D02*
X241633928Y-98104663D01*
X241633928Y-98104663D02*
X241729166Y-98057044D01*
X241729166Y-98057044D02*
X241776785Y-98009424D01*
X241776785Y-98009424D02*
X241824404Y-97914186D01*
X241824404Y-97914186D02*
X241824404Y-97676091D01*
X241824404Y-97676091D02*
X241776785Y-97580853D01*
X241776785Y-97580853D02*
X241729166Y-97533234D01*
X241729166Y-97533234D02*
X241633928Y-97485615D01*
X241633928Y-97485615D02*
X241443452Y-97485615D01*
X241443452Y-97485615D02*
X241348214Y-97533234D01*
X241348214Y-97533234D02*
X241300595Y-97580853D01*
X241300595Y-97580853D02*
X241252976Y-97676091D01*
X212238095Y-68654663D02*
X212238095Y-67654663D01*
X212238095Y-67654663D02*
X212809523Y-68654663D01*
X212809523Y-68654663D02*
X212809523Y-67654663D01*
X213190476Y-67654663D02*
X213857142Y-67654663D01*
X213857142Y-67654663D02*
X213428571Y-68654663D01*
X247902261Y-83109901D02*
X247807023Y-83062282D01*
X247807023Y-83062282D02*
X247711785Y-82967044D01*
X247711785Y-82967044D02*
X247568928Y-82824186D01*
X247568928Y-82824186D02*
X247473690Y-82776567D01*
X247473690Y-82776567D02*
X247378452Y-82776567D01*
X247426071Y-83014663D02*
X247330833Y-82967044D01*
X247330833Y-82967044D02*
X247235595Y-82871805D01*
X247235595Y-82871805D02*
X247187976Y-82681329D01*
X247187976Y-82681329D02*
X247187976Y-82347996D01*
X247187976Y-82347996D02*
X247235595Y-82157520D01*
X247235595Y-82157520D02*
X247330833Y-82062282D01*
X247330833Y-82062282D02*
X247426071Y-82014663D01*
X247426071Y-82014663D02*
X247616547Y-82014663D01*
X247616547Y-82014663D02*
X247711785Y-82062282D01*
X247711785Y-82062282D02*
X247807023Y-82157520D01*
X247807023Y-82157520D02*
X247854642Y-82347996D01*
X247854642Y-82347996D02*
X247854642Y-82681329D01*
X247854642Y-82681329D02*
X247807023Y-82871805D01*
X247807023Y-82871805D02*
X247711785Y-82967044D01*
X247711785Y-82967044D02*
X247616547Y-83014663D01*
X247616547Y-83014663D02*
X247426071Y-83014663D01*
X248330833Y-83014663D02*
X248521309Y-83014663D01*
X248521309Y-83014663D02*
X248616547Y-82967044D01*
X248616547Y-82967044D02*
X248664166Y-82919424D01*
X248664166Y-82919424D02*
X248759404Y-82776567D01*
X248759404Y-82776567D02*
X248807023Y-82586091D01*
X248807023Y-82586091D02*
X248807023Y-82205139D01*
X248807023Y-82205139D02*
X248759404Y-82109901D01*
X248759404Y-82109901D02*
X248711785Y-82062282D01*
X248711785Y-82062282D02*
X248616547Y-82014663D01*
X248616547Y-82014663D02*
X248426071Y-82014663D01*
X248426071Y-82014663D02*
X248330833Y-82062282D01*
X248330833Y-82062282D02*
X248283214Y-82109901D01*
X248283214Y-82109901D02*
X248235595Y-82205139D01*
X248235595Y-82205139D02*
X248235595Y-82443234D01*
X248235595Y-82443234D02*
X248283214Y-82538472D01*
X248283214Y-82538472D02*
X248330833Y-82586091D01*
X248330833Y-82586091D02*
X248426071Y-82633710D01*
X248426071Y-82633710D02*
X248616547Y-82633710D01*
X248616547Y-82633710D02*
X248711785Y-82586091D01*
X248711785Y-82586091D02*
X248759404Y-82538472D01*
X248759404Y-82538472D02*
X248807023Y-82443234D01*
X247964761Y-78159901D02*
X247869523Y-78112282D01*
X247869523Y-78112282D02*
X247774285Y-78017044D01*
X247774285Y-78017044D02*
X247631428Y-77874186D01*
X247631428Y-77874186D02*
X247536190Y-77826567D01*
X247536190Y-77826567D02*
X247440952Y-77826567D01*
X247488571Y-78064663D02*
X247393333Y-78017044D01*
X247393333Y-78017044D02*
X247298095Y-77921805D01*
X247298095Y-77921805D02*
X247250476Y-77731329D01*
X247250476Y-77731329D02*
X247250476Y-77397996D01*
X247250476Y-77397996D02*
X247298095Y-77207520D01*
X247298095Y-77207520D02*
X247393333Y-77112282D01*
X247393333Y-77112282D02*
X247488571Y-77064663D01*
X247488571Y-77064663D02*
X247679047Y-77064663D01*
X247679047Y-77064663D02*
X247774285Y-77112282D01*
X247774285Y-77112282D02*
X247869523Y-77207520D01*
X247869523Y-77207520D02*
X247917142Y-77397996D01*
X247917142Y-77397996D02*
X247917142Y-77731329D01*
X247917142Y-77731329D02*
X247869523Y-77921805D01*
X247869523Y-77921805D02*
X247774285Y-78017044D01*
X247774285Y-78017044D02*
X247679047Y-78064663D01*
X247679047Y-78064663D02*
X247488571Y-78064663D01*
X248488571Y-77493234D02*
X248393333Y-77445615D01*
X248393333Y-77445615D02*
X248345714Y-77397996D01*
X248345714Y-77397996D02*
X248298095Y-77302758D01*
X248298095Y-77302758D02*
X248298095Y-77255139D01*
X248298095Y-77255139D02*
X248345714Y-77159901D01*
X248345714Y-77159901D02*
X248393333Y-77112282D01*
X248393333Y-77112282D02*
X248488571Y-77064663D01*
X248488571Y-77064663D02*
X248679047Y-77064663D01*
X248679047Y-77064663D02*
X248774285Y-77112282D01*
X248774285Y-77112282D02*
X248821904Y-77159901D01*
X248821904Y-77159901D02*
X248869523Y-77255139D01*
X248869523Y-77255139D02*
X248869523Y-77302758D01*
X248869523Y-77302758D02*
X248821904Y-77397996D01*
X248821904Y-77397996D02*
X248774285Y-77445615D01*
X248774285Y-77445615D02*
X248679047Y-77493234D01*
X248679047Y-77493234D02*
X248488571Y-77493234D01*
X248488571Y-77493234D02*
X248393333Y-77540853D01*
X248393333Y-77540853D02*
X248345714Y-77588472D01*
X248345714Y-77588472D02*
X248298095Y-77683710D01*
X248298095Y-77683710D02*
X248298095Y-77874186D01*
X248298095Y-77874186D02*
X248345714Y-77969424D01*
X248345714Y-77969424D02*
X248393333Y-78017044D01*
X248393333Y-78017044D02*
X248488571Y-78064663D01*
X248488571Y-78064663D02*
X248679047Y-78064663D01*
X248679047Y-78064663D02*
X248774285Y-78017044D01*
X248774285Y-78017044D02*
X248821904Y-77969424D01*
X248821904Y-77969424D02*
X248869523Y-77874186D01*
X248869523Y-77874186D02*
X248869523Y-77683710D01*
X248869523Y-77683710D02*
X248821904Y-77588472D01*
X248821904Y-77588472D02*
X248774285Y-77540853D01*
X248774285Y-77540853D02*
X248679047Y-77493234D01*
X86344663Y-96162857D02*
X85868472Y-96496190D01*
X86344663Y-96734285D02*
X85344663Y-96734285D01*
X85344663Y-96734285D02*
X85344663Y-96353333D01*
X85344663Y-96353333D02*
X85392282Y-96258095D01*
X85392282Y-96258095D02*
X85439901Y-96210476D01*
X85439901Y-96210476D02*
X85535139Y-96162857D01*
X85535139Y-96162857D02*
X85677996Y-96162857D01*
X85677996Y-96162857D02*
X85773234Y-96210476D01*
X85773234Y-96210476D02*
X85820853Y-96258095D01*
X85820853Y-96258095D02*
X85868472Y-96353333D01*
X85868472Y-96353333D02*
X85868472Y-96734285D01*
X85344663Y-95829523D02*
X85344663Y-95210476D01*
X85344663Y-95210476D02*
X85725615Y-95543809D01*
X85725615Y-95543809D02*
X85725615Y-95400952D01*
X85725615Y-95400952D02*
X85773234Y-95305714D01*
X85773234Y-95305714D02*
X85820853Y-95258095D01*
X85820853Y-95258095D02*
X85916091Y-95210476D01*
X85916091Y-95210476D02*
X86154186Y-95210476D01*
X86154186Y-95210476D02*
X86249424Y-95258095D01*
X86249424Y-95258095D02*
X86297044Y-95305714D01*
X86297044Y-95305714D02*
X86344663Y-95400952D01*
X86344663Y-95400952D02*
X86344663Y-95686666D01*
X86344663Y-95686666D02*
X86297044Y-95781904D01*
X86297044Y-95781904D02*
X86249424Y-95829523D01*
X85344663Y-94591428D02*
X85344663Y-94496190D01*
X85344663Y-94496190D02*
X85392282Y-94400952D01*
X85392282Y-94400952D02*
X85439901Y-94353333D01*
X85439901Y-94353333D02*
X85535139Y-94305714D01*
X85535139Y-94305714D02*
X85725615Y-94258095D01*
X85725615Y-94258095D02*
X85963710Y-94258095D01*
X85963710Y-94258095D02*
X86154186Y-94305714D01*
X86154186Y-94305714D02*
X86249424Y-94353333D01*
X86249424Y-94353333D02*
X86297044Y-94400952D01*
X86297044Y-94400952D02*
X86344663Y-94496190D01*
X86344663Y-94496190D02*
X86344663Y-94591428D01*
X86344663Y-94591428D02*
X86297044Y-94686666D01*
X86297044Y-94686666D02*
X86249424Y-94734285D01*
X86249424Y-94734285D02*
X86154186Y-94781904D01*
X86154186Y-94781904D02*
X85963710Y-94829523D01*
X85963710Y-94829523D02*
X85725615Y-94829523D01*
X85725615Y-94829523D02*
X85535139Y-94781904D01*
X85535139Y-94781904D02*
X85439901Y-94734285D01*
X85439901Y-94734285D02*
X85392282Y-94686666D01*
X85392282Y-94686666D02*
X85344663Y-94591428D01*
X110344663Y-96162857D02*
X109868472Y-96496190D01*
X110344663Y-96734285D02*
X109344663Y-96734285D01*
X109344663Y-96734285D02*
X109344663Y-96353333D01*
X109344663Y-96353333D02*
X109392282Y-96258095D01*
X109392282Y-96258095D02*
X109439901Y-96210476D01*
X109439901Y-96210476D02*
X109535139Y-96162857D01*
X109535139Y-96162857D02*
X109677996Y-96162857D01*
X109677996Y-96162857D02*
X109773234Y-96210476D01*
X109773234Y-96210476D02*
X109820853Y-96258095D01*
X109820853Y-96258095D02*
X109868472Y-96353333D01*
X109868472Y-96353333D02*
X109868472Y-96734285D01*
X109344663Y-95829523D02*
X109344663Y-95210476D01*
X109344663Y-95210476D02*
X109725615Y-95543809D01*
X109725615Y-95543809D02*
X109725615Y-95400952D01*
X109725615Y-95400952D02*
X109773234Y-95305714D01*
X109773234Y-95305714D02*
X109820853Y-95258095D01*
X109820853Y-95258095D02*
X109916091Y-95210476D01*
X109916091Y-95210476D02*
X110154186Y-95210476D01*
X110154186Y-95210476D02*
X110249424Y-95258095D01*
X110249424Y-95258095D02*
X110297044Y-95305714D01*
X110297044Y-95305714D02*
X110344663Y-95400952D01*
X110344663Y-95400952D02*
X110344663Y-95686666D01*
X110344663Y-95686666D02*
X110297044Y-95781904D01*
X110297044Y-95781904D02*
X110249424Y-95829523D01*
X109677996Y-94353333D02*
X110344663Y-94353333D01*
X109297044Y-94591428D02*
X110011329Y-94829523D01*
X110011329Y-94829523D02*
X110011329Y-94210476D01*
X164238095Y-68654663D02*
X164238095Y-67654663D01*
X164238095Y-67654663D02*
X164809523Y-68654663D01*
X164809523Y-68654663D02*
X164809523Y-67654663D01*
X165761904Y-67654663D02*
X165285714Y-67654663D01*
X165285714Y-67654663D02*
X165238095Y-68130853D01*
X165238095Y-68130853D02*
X165285714Y-68083234D01*
X165285714Y-68083234D02*
X165380952Y-68035615D01*
X165380952Y-68035615D02*
X165619047Y-68035615D01*
X165619047Y-68035615D02*
X165714285Y-68083234D01*
X165714285Y-68083234D02*
X165761904Y-68130853D01*
X165761904Y-68130853D02*
X165809523Y-68226091D01*
X165809523Y-68226091D02*
X165809523Y-68464186D01*
X165809523Y-68464186D02*
X165761904Y-68559424D01*
X165761904Y-68559424D02*
X165714285Y-68607044D01*
X165714285Y-68607044D02*
X165619047Y-68654663D01*
X165619047Y-68654663D02*
X165380952Y-68654663D01*
X165380952Y-68654663D02*
X165285714Y-68607044D01*
X165285714Y-68607044D02*
X165238095Y-68559424D01*
X167634663Y-92642857D02*
X167158472Y-92976190D01*
X167634663Y-93214285D02*
X166634663Y-93214285D01*
X166634663Y-93214285D02*
X166634663Y-92833333D01*
X166634663Y-92833333D02*
X166682282Y-92738095D01*
X166682282Y-92738095D02*
X166729901Y-92690476D01*
X166729901Y-92690476D02*
X166825139Y-92642857D01*
X166825139Y-92642857D02*
X166967996Y-92642857D01*
X166967996Y-92642857D02*
X167063234Y-92690476D01*
X167063234Y-92690476D02*
X167110853Y-92738095D01*
X167110853Y-92738095D02*
X167158472Y-92833333D01*
X167158472Y-92833333D02*
X167158472Y-93214285D01*
X166967996Y-91785714D02*
X167634663Y-91785714D01*
X166587044Y-92023809D02*
X167301329Y-92261904D01*
X167301329Y-92261904D02*
X167301329Y-91642857D01*
X166634663Y-91357142D02*
X166634663Y-90738095D01*
X166634663Y-90738095D02*
X167015615Y-91071428D01*
X167015615Y-91071428D02*
X167015615Y-90928571D01*
X167015615Y-90928571D02*
X167063234Y-90833333D01*
X167063234Y-90833333D02*
X167110853Y-90785714D01*
X167110853Y-90785714D02*
X167206091Y-90738095D01*
X167206091Y-90738095D02*
X167444186Y-90738095D01*
X167444186Y-90738095D02*
X167539424Y-90785714D01*
X167539424Y-90785714D02*
X167587044Y-90833333D01*
X167587044Y-90833333D02*
X167634663Y-90928571D01*
X167634663Y-90928571D02*
X167634663Y-91214285D01*
X167634663Y-91214285D02*
X167587044Y-91309523D01*
X167587044Y-91309523D02*
X167539424Y-91357142D01*
X68428571Y-91949901D02*
X68333333Y-91902282D01*
X68333333Y-91902282D02*
X68238095Y-91807044D01*
X68238095Y-91807044D02*
X68095238Y-91664186D01*
X68095238Y-91664186D02*
X68000000Y-91616567D01*
X68000000Y-91616567D02*
X67904762Y-91616567D01*
X67952381Y-91854663D02*
X67857143Y-91807044D01*
X67857143Y-91807044D02*
X67761905Y-91711805D01*
X67761905Y-91711805D02*
X67714286Y-91521329D01*
X67714286Y-91521329D02*
X67714286Y-91187996D01*
X67714286Y-91187996D02*
X67761905Y-90997520D01*
X67761905Y-90997520D02*
X67857143Y-90902282D01*
X67857143Y-90902282D02*
X67952381Y-90854663D01*
X67952381Y-90854663D02*
X68142857Y-90854663D01*
X68142857Y-90854663D02*
X68238095Y-90902282D01*
X68238095Y-90902282D02*
X68333333Y-90997520D01*
X68333333Y-90997520D02*
X68380952Y-91187996D01*
X68380952Y-91187996D02*
X68380952Y-91521329D01*
X68380952Y-91521329D02*
X68333333Y-91711805D01*
X68333333Y-91711805D02*
X68238095Y-91807044D01*
X68238095Y-91807044D02*
X68142857Y-91854663D01*
X68142857Y-91854663D02*
X67952381Y-91854663D01*
X69333333Y-91854663D02*
X68761905Y-91854663D01*
X69047619Y-91854663D02*
X69047619Y-90854663D01*
X69047619Y-90854663D02*
X68952381Y-90997520D01*
X68952381Y-90997520D02*
X68857143Y-91092758D01*
X68857143Y-91092758D02*
X68761905Y-91140377D01*
X69714286Y-90949901D02*
X69761905Y-90902282D01*
X69761905Y-90902282D02*
X69857143Y-90854663D01*
X69857143Y-90854663D02*
X70095238Y-90854663D01*
X70095238Y-90854663D02*
X70190476Y-90902282D01*
X70190476Y-90902282D02*
X70238095Y-90949901D01*
X70238095Y-90949901D02*
X70285714Y-91045139D01*
X70285714Y-91045139D02*
X70285714Y-91140377D01*
X70285714Y-91140377D02*
X70238095Y-91283234D01*
X70238095Y-91283234D02*
X69666667Y-91854663D01*
X69666667Y-91854663D02*
X70285714Y-91854663D01*
X58904761Y-65499901D02*
X58809523Y-65452282D01*
X58809523Y-65452282D02*
X58714285Y-65357044D01*
X58714285Y-65357044D02*
X58571428Y-65214186D01*
X58571428Y-65214186D02*
X58476190Y-65166567D01*
X58476190Y-65166567D02*
X58380952Y-65166567D01*
X58428571Y-65404663D02*
X58333333Y-65357044D01*
X58333333Y-65357044D02*
X58238095Y-65261805D01*
X58238095Y-65261805D02*
X58190476Y-65071329D01*
X58190476Y-65071329D02*
X58190476Y-64737996D01*
X58190476Y-64737996D02*
X58238095Y-64547520D01*
X58238095Y-64547520D02*
X58333333Y-64452282D01*
X58333333Y-64452282D02*
X58428571Y-64404663D01*
X58428571Y-64404663D02*
X58619047Y-64404663D01*
X58619047Y-64404663D02*
X58714285Y-64452282D01*
X58714285Y-64452282D02*
X58809523Y-64547520D01*
X58809523Y-64547520D02*
X58857142Y-64737996D01*
X58857142Y-64737996D02*
X58857142Y-65071329D01*
X58857142Y-65071329D02*
X58809523Y-65261805D01*
X58809523Y-65261805D02*
X58714285Y-65357044D01*
X58714285Y-65357044D02*
X58619047Y-65404663D01*
X58619047Y-65404663D02*
X58428571Y-65404663D01*
X59714285Y-64404663D02*
X59523809Y-64404663D01*
X59523809Y-64404663D02*
X59428571Y-64452282D01*
X59428571Y-64452282D02*
X59380952Y-64499901D01*
X59380952Y-64499901D02*
X59285714Y-64642758D01*
X59285714Y-64642758D02*
X59238095Y-64833234D01*
X59238095Y-64833234D02*
X59238095Y-65214186D01*
X59238095Y-65214186D02*
X59285714Y-65309424D01*
X59285714Y-65309424D02*
X59333333Y-65357044D01*
X59333333Y-65357044D02*
X59428571Y-65404663D01*
X59428571Y-65404663D02*
X59619047Y-65404663D01*
X59619047Y-65404663D02*
X59714285Y-65357044D01*
X59714285Y-65357044D02*
X59761904Y-65309424D01*
X59761904Y-65309424D02*
X59809523Y-65214186D01*
X59809523Y-65214186D02*
X59809523Y-64976091D01*
X59809523Y-64976091D02*
X59761904Y-64880853D01*
X59761904Y-64880853D02*
X59714285Y-64833234D01*
X59714285Y-64833234D02*
X59619047Y-64785615D01*
X59619047Y-64785615D02*
X59428571Y-64785615D01*
X59428571Y-64785615D02*
X59333333Y-64833234D01*
X59333333Y-64833234D02*
X59285714Y-64880853D01*
X59285714Y-64880853D02*
X59238095Y-64976091D01*
X119634663Y-92642857D02*
X119158472Y-92976190D01*
X119634663Y-93214285D02*
X118634663Y-93214285D01*
X118634663Y-93214285D02*
X118634663Y-92833333D01*
X118634663Y-92833333D02*
X118682282Y-92738095D01*
X118682282Y-92738095D02*
X118729901Y-92690476D01*
X118729901Y-92690476D02*
X118825139Y-92642857D01*
X118825139Y-92642857D02*
X118967996Y-92642857D01*
X118967996Y-92642857D02*
X119063234Y-92690476D01*
X119063234Y-92690476D02*
X119110853Y-92738095D01*
X119110853Y-92738095D02*
X119158472Y-92833333D01*
X119158472Y-92833333D02*
X119158472Y-93214285D01*
X118634663Y-92309523D02*
X118634663Y-91690476D01*
X118634663Y-91690476D02*
X119015615Y-92023809D01*
X119015615Y-92023809D02*
X119015615Y-91880952D01*
X119015615Y-91880952D02*
X119063234Y-91785714D01*
X119063234Y-91785714D02*
X119110853Y-91738095D01*
X119110853Y-91738095D02*
X119206091Y-91690476D01*
X119206091Y-91690476D02*
X119444186Y-91690476D01*
X119444186Y-91690476D02*
X119539424Y-91738095D01*
X119539424Y-91738095D02*
X119587044Y-91785714D01*
X119587044Y-91785714D02*
X119634663Y-91880952D01*
X119634663Y-91880952D02*
X119634663Y-92166666D01*
X119634663Y-92166666D02*
X119587044Y-92261904D01*
X119587044Y-92261904D02*
X119539424Y-92309523D01*
X118634663Y-90785714D02*
X118634663Y-91261904D01*
X118634663Y-91261904D02*
X119110853Y-91309523D01*
X119110853Y-91309523D02*
X119063234Y-91261904D01*
X119063234Y-91261904D02*
X119015615Y-91166666D01*
X119015615Y-91166666D02*
X119015615Y-90928571D01*
X119015615Y-90928571D02*
X119063234Y-90833333D01*
X119063234Y-90833333D02*
X119110853Y-90785714D01*
X119110853Y-90785714D02*
X119206091Y-90738095D01*
X119206091Y-90738095D02*
X119444186Y-90738095D01*
X119444186Y-90738095D02*
X119539424Y-90785714D01*
X119539424Y-90785714D02*
X119587044Y-90833333D01*
X119587044Y-90833333D02*
X119634663Y-90928571D01*
X119634663Y-90928571D02*
X119634663Y-91166666D01*
X119634663Y-91166666D02*
X119587044Y-91261904D01*
X119587044Y-91261904D02*
X119539424Y-91309523D01*
X212428571Y-101249901D02*
X212333333Y-101202282D01*
X212333333Y-101202282D02*
X212238095Y-101107044D01*
X212238095Y-101107044D02*
X212095238Y-100964186D01*
X212095238Y-100964186D02*
X212000000Y-100916567D01*
X212000000Y-100916567D02*
X211904762Y-100916567D01*
X211952381Y-101154663D02*
X211857143Y-101107044D01*
X211857143Y-101107044D02*
X211761905Y-101011805D01*
X211761905Y-101011805D02*
X211714286Y-100821329D01*
X211714286Y-100821329D02*
X211714286Y-100487996D01*
X211714286Y-100487996D02*
X211761905Y-100297520D01*
X211761905Y-100297520D02*
X211857143Y-100202282D01*
X211857143Y-100202282D02*
X211952381Y-100154663D01*
X211952381Y-100154663D02*
X212142857Y-100154663D01*
X212142857Y-100154663D02*
X212238095Y-100202282D01*
X212238095Y-100202282D02*
X212333333Y-100297520D01*
X212333333Y-100297520D02*
X212380952Y-100487996D01*
X212380952Y-100487996D02*
X212380952Y-100821329D01*
X212380952Y-100821329D02*
X212333333Y-101011805D01*
X212333333Y-101011805D02*
X212238095Y-101107044D01*
X212238095Y-101107044D02*
X212142857Y-101154663D01*
X212142857Y-101154663D02*
X211952381Y-101154663D01*
X212761905Y-100249901D02*
X212809524Y-100202282D01*
X212809524Y-100202282D02*
X212904762Y-100154663D01*
X212904762Y-100154663D02*
X213142857Y-100154663D01*
X213142857Y-100154663D02*
X213238095Y-100202282D01*
X213238095Y-100202282D02*
X213285714Y-100249901D01*
X213285714Y-100249901D02*
X213333333Y-100345139D01*
X213333333Y-100345139D02*
X213333333Y-100440377D01*
X213333333Y-100440377D02*
X213285714Y-100583234D01*
X213285714Y-100583234D02*
X212714286Y-101154663D01*
X212714286Y-101154663D02*
X213333333Y-101154663D01*
X214238095Y-100154663D02*
X213761905Y-100154663D01*
X213761905Y-100154663D02*
X213714286Y-100630853D01*
X213714286Y-100630853D02*
X213761905Y-100583234D01*
X213761905Y-100583234D02*
X213857143Y-100535615D01*
X213857143Y-100535615D02*
X214095238Y-100535615D01*
X214095238Y-100535615D02*
X214190476Y-100583234D01*
X214190476Y-100583234D02*
X214238095Y-100630853D01*
X214238095Y-100630853D02*
X214285714Y-100726091D01*
X214285714Y-100726091D02*
X214285714Y-100964186D01*
X214285714Y-100964186D02*
X214238095Y-101059424D01*
X214238095Y-101059424D02*
X214190476Y-101107044D01*
X214190476Y-101107044D02*
X214095238Y-101154663D01*
X214095238Y-101154663D02*
X213857143Y-101154663D01*
X213857143Y-101154663D02*
X213761905Y-101107044D01*
X213761905Y-101107044D02*
X213714286Y-101059424D01*
X191919642Y-98104663D02*
X191586309Y-97628472D01*
X191348214Y-98104663D02*
X191348214Y-97104663D01*
X191348214Y-97104663D02*
X191729166Y-97104663D01*
X191729166Y-97104663D02*
X191824404Y-97152282D01*
X191824404Y-97152282D02*
X191872023Y-97199901D01*
X191872023Y-97199901D02*
X191919642Y-97295139D01*
X191919642Y-97295139D02*
X191919642Y-97437996D01*
X191919642Y-97437996D02*
X191872023Y-97533234D01*
X191872023Y-97533234D02*
X191824404Y-97580853D01*
X191824404Y-97580853D02*
X191729166Y-97628472D01*
X191729166Y-97628472D02*
X191348214Y-97628472D01*
X192776785Y-97437996D02*
X192776785Y-98104663D01*
X192538690Y-97057044D02*
X192300595Y-97771329D01*
X192300595Y-97771329D02*
X192919642Y-97771329D01*
X193443452Y-97533234D02*
X193348214Y-97485615D01*
X193348214Y-97485615D02*
X193300595Y-97437996D01*
X193300595Y-97437996D02*
X193252976Y-97342758D01*
X193252976Y-97342758D02*
X193252976Y-97295139D01*
X193252976Y-97295139D02*
X193300595Y-97199901D01*
X193300595Y-97199901D02*
X193348214Y-97152282D01*
X193348214Y-97152282D02*
X193443452Y-97104663D01*
X193443452Y-97104663D02*
X193633928Y-97104663D01*
X193633928Y-97104663D02*
X193729166Y-97152282D01*
X193729166Y-97152282D02*
X193776785Y-97199901D01*
X193776785Y-97199901D02*
X193824404Y-97295139D01*
X193824404Y-97295139D02*
X193824404Y-97342758D01*
X193824404Y-97342758D02*
X193776785Y-97437996D01*
X193776785Y-97437996D02*
X193729166Y-97485615D01*
X193729166Y-97485615D02*
X193633928Y-97533234D01*
X193633928Y-97533234D02*
X193443452Y-97533234D01*
X193443452Y-97533234D02*
X193348214Y-97580853D01*
X193348214Y-97580853D02*
X193300595Y-97628472D01*
X193300595Y-97628472D02*
X193252976Y-97723710D01*
X193252976Y-97723710D02*
X193252976Y-97914186D01*
X193252976Y-97914186D02*
X193300595Y-98009424D01*
X193300595Y-98009424D02*
X193348214Y-98057044D01*
X193348214Y-98057044D02*
X193443452Y-98104663D01*
X193443452Y-98104663D02*
X193633928Y-98104663D01*
X193633928Y-98104663D02*
X193729166Y-98057044D01*
X193729166Y-98057044D02*
X193776785Y-98009424D01*
X193776785Y-98009424D02*
X193824404Y-97914186D01*
X193824404Y-97914186D02*
X193824404Y-97723710D01*
X193824404Y-97723710D02*
X193776785Y-97628472D01*
X193776785Y-97628472D02*
X193729166Y-97580853D01*
X193729166Y-97580853D02*
X193633928Y-97533234D01*
X247902261Y-73109901D02*
X247807023Y-73062282D01*
X247807023Y-73062282D02*
X247711785Y-72967044D01*
X247711785Y-72967044D02*
X247568928Y-72824186D01*
X247568928Y-72824186D02*
X247473690Y-72776567D01*
X247473690Y-72776567D02*
X247378452Y-72776567D01*
X247426071Y-73014663D02*
X247330833Y-72967044D01*
X247330833Y-72967044D02*
X247235595Y-72871805D01*
X247235595Y-72871805D02*
X247187976Y-72681329D01*
X247187976Y-72681329D02*
X247187976Y-72347996D01*
X247187976Y-72347996D02*
X247235595Y-72157520D01*
X247235595Y-72157520D02*
X247330833Y-72062282D01*
X247330833Y-72062282D02*
X247426071Y-72014663D01*
X247426071Y-72014663D02*
X247616547Y-72014663D01*
X247616547Y-72014663D02*
X247711785Y-72062282D01*
X247711785Y-72062282D02*
X247807023Y-72157520D01*
X247807023Y-72157520D02*
X247854642Y-72347996D01*
X247854642Y-72347996D02*
X247854642Y-72681329D01*
X247854642Y-72681329D02*
X247807023Y-72871805D01*
X247807023Y-72871805D02*
X247711785Y-72967044D01*
X247711785Y-72967044D02*
X247616547Y-73014663D01*
X247616547Y-73014663D02*
X247426071Y-73014663D01*
X248187976Y-72014663D02*
X248854642Y-72014663D01*
X248854642Y-72014663D02*
X248426071Y-73014663D01*
X68428571Y-101249901D02*
X68333333Y-101202282D01*
X68333333Y-101202282D02*
X68238095Y-101107044D01*
X68238095Y-101107044D02*
X68095238Y-100964186D01*
X68095238Y-100964186D02*
X68000000Y-100916567D01*
X68000000Y-100916567D02*
X67904762Y-100916567D01*
X67952381Y-101154663D02*
X67857143Y-101107044D01*
X67857143Y-101107044D02*
X67761905Y-101011805D01*
X67761905Y-101011805D02*
X67714286Y-100821329D01*
X67714286Y-100821329D02*
X67714286Y-100487996D01*
X67714286Y-100487996D02*
X67761905Y-100297520D01*
X67761905Y-100297520D02*
X67857143Y-100202282D01*
X67857143Y-100202282D02*
X67952381Y-100154663D01*
X67952381Y-100154663D02*
X68142857Y-100154663D01*
X68142857Y-100154663D02*
X68238095Y-100202282D01*
X68238095Y-100202282D02*
X68333333Y-100297520D01*
X68333333Y-100297520D02*
X68380952Y-100487996D01*
X68380952Y-100487996D02*
X68380952Y-100821329D01*
X68380952Y-100821329D02*
X68333333Y-101011805D01*
X68333333Y-101011805D02*
X68238095Y-101107044D01*
X68238095Y-101107044D02*
X68142857Y-101154663D01*
X68142857Y-101154663D02*
X67952381Y-101154663D01*
X69333333Y-101154663D02*
X68761905Y-101154663D01*
X69047619Y-101154663D02*
X69047619Y-100154663D01*
X69047619Y-100154663D02*
X68952381Y-100297520D01*
X68952381Y-100297520D02*
X68857143Y-100392758D01*
X68857143Y-100392758D02*
X68761905Y-100440377D01*
X69666667Y-100154663D02*
X70285714Y-100154663D01*
X70285714Y-100154663D02*
X69952381Y-100535615D01*
X69952381Y-100535615D02*
X70095238Y-100535615D01*
X70095238Y-100535615D02*
X70190476Y-100583234D01*
X70190476Y-100583234D02*
X70238095Y-100630853D01*
X70238095Y-100630853D02*
X70285714Y-100726091D01*
X70285714Y-100726091D02*
X70285714Y-100964186D01*
X70285714Y-100964186D02*
X70238095Y-101059424D01*
X70238095Y-101059424D02*
X70190476Y-101107044D01*
X70190476Y-101107044D02*
X70095238Y-101154663D01*
X70095238Y-101154663D02*
X69809524Y-101154663D01*
X69809524Y-101154663D02*
X69714286Y-101107044D01*
X69714286Y-101107044D02*
X69666667Y-101059424D01*
X54757142Y-95454663D02*
X54423809Y-94978472D01*
X54185714Y-95454663D02*
X54185714Y-94454663D01*
X54185714Y-94454663D02*
X54566666Y-94454663D01*
X54566666Y-94454663D02*
X54661904Y-94502282D01*
X54661904Y-94502282D02*
X54709523Y-94549901D01*
X54709523Y-94549901D02*
X54757142Y-94645139D01*
X54757142Y-94645139D02*
X54757142Y-94787996D01*
X54757142Y-94787996D02*
X54709523Y-94883234D01*
X54709523Y-94883234D02*
X54661904Y-94930853D01*
X54661904Y-94930853D02*
X54566666Y-94978472D01*
X54566666Y-94978472D02*
X54185714Y-94978472D01*
X55138095Y-94549901D02*
X55185714Y-94502282D01*
X55185714Y-94502282D02*
X55280952Y-94454663D01*
X55280952Y-94454663D02*
X55519047Y-94454663D01*
X55519047Y-94454663D02*
X55614285Y-94502282D01*
X55614285Y-94502282D02*
X55661904Y-94549901D01*
X55661904Y-94549901D02*
X55709523Y-94645139D01*
X55709523Y-94645139D02*
X55709523Y-94740377D01*
X55709523Y-94740377D02*
X55661904Y-94883234D01*
X55661904Y-94883234D02*
X55090476Y-95454663D01*
X55090476Y-95454663D02*
X55709523Y-95454663D01*
X56090476Y-94549901D02*
X56138095Y-94502282D01*
X56138095Y-94502282D02*
X56233333Y-94454663D01*
X56233333Y-94454663D02*
X56471428Y-94454663D01*
X56471428Y-94454663D02*
X56566666Y-94502282D01*
X56566666Y-94502282D02*
X56614285Y-94549901D01*
X56614285Y-94549901D02*
X56661904Y-94645139D01*
X56661904Y-94645139D02*
X56661904Y-94740377D01*
X56661904Y-94740377D02*
X56614285Y-94883234D01*
X56614285Y-94883234D02*
X56042857Y-95454663D01*
X56042857Y-95454663D02*
X56661904Y-95454663D01*
X67634663Y-65166666D02*
X67158472Y-65499999D01*
X67634663Y-65738094D02*
X66634663Y-65738094D01*
X66634663Y-65738094D02*
X66634663Y-65357142D01*
X66634663Y-65357142D02*
X66682282Y-65261904D01*
X66682282Y-65261904D02*
X66729901Y-65214285D01*
X66729901Y-65214285D02*
X66825139Y-65166666D01*
X66825139Y-65166666D02*
X66967996Y-65166666D01*
X66967996Y-65166666D02*
X67063234Y-65214285D01*
X67063234Y-65214285D02*
X67110853Y-65261904D01*
X67110853Y-65261904D02*
X67158472Y-65357142D01*
X67158472Y-65357142D02*
X67158472Y-65738094D01*
X66634663Y-64261904D02*
X66634663Y-64738094D01*
X66634663Y-64738094D02*
X67110853Y-64785713D01*
X67110853Y-64785713D02*
X67063234Y-64738094D01*
X67063234Y-64738094D02*
X67015615Y-64642856D01*
X67015615Y-64642856D02*
X67015615Y-64404761D01*
X67015615Y-64404761D02*
X67063234Y-64309523D01*
X67063234Y-64309523D02*
X67110853Y-64261904D01*
X67110853Y-64261904D02*
X67206091Y-64214285D01*
X67206091Y-64214285D02*
X67444186Y-64214285D01*
X67444186Y-64214285D02*
X67539424Y-64261904D01*
X67539424Y-64261904D02*
X67587044Y-64309523D01*
X67587044Y-64309523D02*
X67634663Y-64404761D01*
X67634663Y-64404761D02*
X67634663Y-64642856D01*
X67634663Y-64642856D02*
X67587044Y-64738094D01*
X67587044Y-64738094D02*
X67539424Y-64785713D01*
X235634663Y-65642857D02*
X235158472Y-65976190D01*
X235634663Y-66214285D02*
X234634663Y-66214285D01*
X234634663Y-66214285D02*
X234634663Y-65833333D01*
X234634663Y-65833333D02*
X234682282Y-65738095D01*
X234682282Y-65738095D02*
X234729901Y-65690476D01*
X234729901Y-65690476D02*
X234825139Y-65642857D01*
X234825139Y-65642857D02*
X234967996Y-65642857D01*
X234967996Y-65642857D02*
X235063234Y-65690476D01*
X235063234Y-65690476D02*
X235110853Y-65738095D01*
X235110853Y-65738095D02*
X235158472Y-65833333D01*
X235158472Y-65833333D02*
X235158472Y-66214285D01*
X234729901Y-65261904D02*
X234682282Y-65214285D01*
X234682282Y-65214285D02*
X234634663Y-65119047D01*
X234634663Y-65119047D02*
X234634663Y-64880952D01*
X234634663Y-64880952D02*
X234682282Y-64785714D01*
X234682282Y-64785714D02*
X234729901Y-64738095D01*
X234729901Y-64738095D02*
X234825139Y-64690476D01*
X234825139Y-64690476D02*
X234920377Y-64690476D01*
X234920377Y-64690476D02*
X235063234Y-64738095D01*
X235063234Y-64738095D02*
X235634663Y-65309523D01*
X235634663Y-65309523D02*
X235634663Y-64690476D01*
X234967996Y-63833333D02*
X235634663Y-63833333D01*
X234587044Y-64071428D02*
X235301329Y-64309523D01*
X235301329Y-64309523D02*
X235301329Y-63690476D01*
X136634663Y-65642857D02*
X136158472Y-65976190D01*
X136634663Y-66214285D02*
X135634663Y-66214285D01*
X135634663Y-66214285D02*
X135634663Y-65833333D01*
X135634663Y-65833333D02*
X135682282Y-65738095D01*
X135682282Y-65738095D02*
X135729901Y-65690476D01*
X135729901Y-65690476D02*
X135825139Y-65642857D01*
X135825139Y-65642857D02*
X135967996Y-65642857D01*
X135967996Y-65642857D02*
X136063234Y-65690476D01*
X136063234Y-65690476D02*
X136110853Y-65738095D01*
X136110853Y-65738095D02*
X136158472Y-65833333D01*
X136158472Y-65833333D02*
X136158472Y-66214285D01*
X136634663Y-64690476D02*
X136634663Y-65261904D01*
X136634663Y-64976190D02*
X135634663Y-64976190D01*
X135634663Y-64976190D02*
X135777520Y-65071428D01*
X135777520Y-65071428D02*
X135872758Y-65166666D01*
X135872758Y-65166666D02*
X135920377Y-65261904D01*
X136634663Y-63738095D02*
X136634663Y-64309523D01*
X136634663Y-64023809D02*
X135634663Y-64023809D01*
X135634663Y-64023809D02*
X135777520Y-64119047D01*
X135777520Y-64119047D02*
X135872758Y-64214285D01*
X135872758Y-64214285D02*
X135920377Y-64309523D01*
X58904761Y-70499901D02*
X58809523Y-70452282D01*
X58809523Y-70452282D02*
X58714285Y-70357044D01*
X58714285Y-70357044D02*
X58571428Y-70214186D01*
X58571428Y-70214186D02*
X58476190Y-70166567D01*
X58476190Y-70166567D02*
X58380952Y-70166567D01*
X58428571Y-70404663D02*
X58333333Y-70357044D01*
X58333333Y-70357044D02*
X58238095Y-70261805D01*
X58238095Y-70261805D02*
X58190476Y-70071329D01*
X58190476Y-70071329D02*
X58190476Y-69737996D01*
X58190476Y-69737996D02*
X58238095Y-69547520D01*
X58238095Y-69547520D02*
X58333333Y-69452282D01*
X58333333Y-69452282D02*
X58428571Y-69404663D01*
X58428571Y-69404663D02*
X58619047Y-69404663D01*
X58619047Y-69404663D02*
X58714285Y-69452282D01*
X58714285Y-69452282D02*
X58809523Y-69547520D01*
X58809523Y-69547520D02*
X58857142Y-69737996D01*
X58857142Y-69737996D02*
X58857142Y-70071329D01*
X58857142Y-70071329D02*
X58809523Y-70261805D01*
X58809523Y-70261805D02*
X58714285Y-70357044D01*
X58714285Y-70357044D02*
X58619047Y-70404663D01*
X58619047Y-70404663D02*
X58428571Y-70404663D01*
X59761904Y-69404663D02*
X59285714Y-69404663D01*
X59285714Y-69404663D02*
X59238095Y-69880853D01*
X59238095Y-69880853D02*
X59285714Y-69833234D01*
X59285714Y-69833234D02*
X59380952Y-69785615D01*
X59380952Y-69785615D02*
X59619047Y-69785615D01*
X59619047Y-69785615D02*
X59714285Y-69833234D01*
X59714285Y-69833234D02*
X59761904Y-69880853D01*
X59761904Y-69880853D02*
X59809523Y-69976091D01*
X59809523Y-69976091D02*
X59809523Y-70214186D01*
X59809523Y-70214186D02*
X59761904Y-70309424D01*
X59761904Y-70309424D02*
X59714285Y-70357044D01*
X59714285Y-70357044D02*
X59619047Y-70404663D01*
X59619047Y-70404663D02*
X59380952Y-70404663D01*
X59380952Y-70404663D02*
X59285714Y-70357044D01*
X59285714Y-70357044D02*
X59238095Y-70309424D01*
X247488571Y-88159901D02*
X247393333Y-88112282D01*
X247393333Y-88112282D02*
X247298095Y-88017044D01*
X247298095Y-88017044D02*
X247155238Y-87874186D01*
X247155238Y-87874186D02*
X247060000Y-87826567D01*
X247060000Y-87826567D02*
X246964762Y-87826567D01*
X247012381Y-88064663D02*
X246917143Y-88017044D01*
X246917143Y-88017044D02*
X246821905Y-87921805D01*
X246821905Y-87921805D02*
X246774286Y-87731329D01*
X246774286Y-87731329D02*
X246774286Y-87397996D01*
X246774286Y-87397996D02*
X246821905Y-87207520D01*
X246821905Y-87207520D02*
X246917143Y-87112282D01*
X246917143Y-87112282D02*
X247012381Y-87064663D01*
X247012381Y-87064663D02*
X247202857Y-87064663D01*
X247202857Y-87064663D02*
X247298095Y-87112282D01*
X247298095Y-87112282D02*
X247393333Y-87207520D01*
X247393333Y-87207520D02*
X247440952Y-87397996D01*
X247440952Y-87397996D02*
X247440952Y-87731329D01*
X247440952Y-87731329D02*
X247393333Y-87921805D01*
X247393333Y-87921805D02*
X247298095Y-88017044D01*
X247298095Y-88017044D02*
X247202857Y-88064663D01*
X247202857Y-88064663D02*
X247012381Y-88064663D01*
X248393333Y-88064663D02*
X247821905Y-88064663D01*
X248107619Y-88064663D02*
X248107619Y-87064663D01*
X248107619Y-87064663D02*
X248012381Y-87207520D01*
X248012381Y-87207520D02*
X247917143Y-87302758D01*
X247917143Y-87302758D02*
X247821905Y-87350377D01*
X249012381Y-87064663D02*
X249107619Y-87064663D01*
X249107619Y-87064663D02*
X249202857Y-87112282D01*
X249202857Y-87112282D02*
X249250476Y-87159901D01*
X249250476Y-87159901D02*
X249298095Y-87255139D01*
X249298095Y-87255139D02*
X249345714Y-87445615D01*
X249345714Y-87445615D02*
X249345714Y-87683710D01*
X249345714Y-87683710D02*
X249298095Y-87874186D01*
X249298095Y-87874186D02*
X249250476Y-87969424D01*
X249250476Y-87969424D02*
X249202857Y-88017044D01*
X249202857Y-88017044D02*
X249107619Y-88064663D01*
X249107619Y-88064663D02*
X249012381Y-88064663D01*
X249012381Y-88064663D02*
X248917143Y-88017044D01*
X248917143Y-88017044D02*
X248869524Y-87969424D01*
X248869524Y-87969424D02*
X248821905Y-87874186D01*
X248821905Y-87874186D02*
X248774286Y-87683710D01*
X248774286Y-87683710D02*
X248774286Y-87445615D01*
X248774286Y-87445615D02*
X248821905Y-87255139D01*
X248821905Y-87255139D02*
X248869524Y-87159901D01*
X248869524Y-87159901D02*
X248917143Y-87112282D01*
X248917143Y-87112282D02*
X249012381Y-87064663D01*
X185227142Y-91494663D02*
X184893809Y-91018472D01*
X184655714Y-91494663D02*
X184655714Y-90494663D01*
X184655714Y-90494663D02*
X185036666Y-90494663D01*
X185036666Y-90494663D02*
X185131904Y-90542282D01*
X185131904Y-90542282D02*
X185179523Y-90589901D01*
X185179523Y-90589901D02*
X185227142Y-90685139D01*
X185227142Y-90685139D02*
X185227142Y-90827996D01*
X185227142Y-90827996D02*
X185179523Y-90923234D01*
X185179523Y-90923234D02*
X185131904Y-90970853D01*
X185131904Y-90970853D02*
X185036666Y-91018472D01*
X185036666Y-91018472D02*
X184655714Y-91018472D01*
X186084285Y-90827996D02*
X186084285Y-91494663D01*
X185846190Y-90447044D02*
X185608095Y-91161329D01*
X185608095Y-91161329D02*
X186227142Y-91161329D01*
X187084285Y-90494663D02*
X186608095Y-90494663D01*
X186608095Y-90494663D02*
X186560476Y-90970853D01*
X186560476Y-90970853D02*
X186608095Y-90923234D01*
X186608095Y-90923234D02*
X186703333Y-90875615D01*
X186703333Y-90875615D02*
X186941428Y-90875615D01*
X186941428Y-90875615D02*
X187036666Y-90923234D01*
X187036666Y-90923234D02*
X187084285Y-90970853D01*
X187084285Y-90970853D02*
X187131904Y-91066091D01*
X187131904Y-91066091D02*
X187131904Y-91304186D01*
X187131904Y-91304186D02*
X187084285Y-91399424D01*
X187084285Y-91399424D02*
X187036666Y-91447044D01*
X187036666Y-91447044D02*
X186941428Y-91494663D01*
X186941428Y-91494663D02*
X186703333Y-91494663D01*
X186703333Y-91494663D02*
X186608095Y-91447044D01*
X186608095Y-91447044D02*
X186560476Y-91399424D01*
X247902261Y-93109901D02*
X247807023Y-93062282D01*
X247807023Y-93062282D02*
X247711785Y-92967044D01*
X247711785Y-92967044D02*
X247568928Y-92824186D01*
X247568928Y-92824186D02*
X247473690Y-92776567D01*
X247473690Y-92776567D02*
X247378452Y-92776567D01*
X247426071Y-93014663D02*
X247330833Y-92967044D01*
X247330833Y-92967044D02*
X247235595Y-92871805D01*
X247235595Y-92871805D02*
X247187976Y-92681329D01*
X247187976Y-92681329D02*
X247187976Y-92347996D01*
X247187976Y-92347996D02*
X247235595Y-92157520D01*
X247235595Y-92157520D02*
X247330833Y-92062282D01*
X247330833Y-92062282D02*
X247426071Y-92014663D01*
X247426071Y-92014663D02*
X247616547Y-92014663D01*
X247616547Y-92014663D02*
X247711785Y-92062282D01*
X247711785Y-92062282D02*
X247807023Y-92157520D01*
X247807023Y-92157520D02*
X247854642Y-92347996D01*
X247854642Y-92347996D02*
X247854642Y-92681329D01*
X247854642Y-92681329D02*
X247807023Y-92871805D01*
X247807023Y-92871805D02*
X247711785Y-92967044D01*
X247711785Y-92967044D02*
X247616547Y-93014663D01*
X247616547Y-93014663D02*
X247426071Y-93014663D01*
X248807023Y-93014663D02*
X248235595Y-93014663D01*
X248521309Y-93014663D02*
X248521309Y-92014663D01*
X248521309Y-92014663D02*
X248426071Y-92157520D01*
X248426071Y-92157520D02*
X248330833Y-92252758D01*
X248330833Y-92252758D02*
X248235595Y-92300377D01*
X56238095Y-98554663D02*
X56238095Y-99364186D01*
X56238095Y-99364186D02*
X56285714Y-99459424D01*
X56285714Y-99459424D02*
X56333333Y-99507044D01*
X56333333Y-99507044D02*
X56428571Y-99554663D01*
X56428571Y-99554663D02*
X56619047Y-99554663D01*
X56619047Y-99554663D02*
X56714285Y-99507044D01*
X56714285Y-99507044D02*
X56761904Y-99459424D01*
X56761904Y-99459424D02*
X56809523Y-99364186D01*
X56809523Y-99364186D02*
X56809523Y-98554663D01*
X57190476Y-98554663D02*
X57809523Y-98554663D01*
X57809523Y-98554663D02*
X57476190Y-98935615D01*
X57476190Y-98935615D02*
X57619047Y-98935615D01*
X57619047Y-98935615D02*
X57714285Y-98983234D01*
X57714285Y-98983234D02*
X57761904Y-99030853D01*
X57761904Y-99030853D02*
X57809523Y-99126091D01*
X57809523Y-99126091D02*
X57809523Y-99364186D01*
X57809523Y-99364186D02*
X57761904Y-99459424D01*
X57761904Y-99459424D02*
X57714285Y-99507044D01*
X57714285Y-99507044D02*
X57619047Y-99554663D01*
X57619047Y-99554663D02*
X57333333Y-99554663D01*
X57333333Y-99554663D02*
X57238095Y-99507044D01*
X57238095Y-99507044D02*
X57190476Y-99459424D01*
X236428571Y-101249901D02*
X236333333Y-101202282D01*
X236333333Y-101202282D02*
X236238095Y-101107044D01*
X236238095Y-101107044D02*
X236095238Y-100964186D01*
X236095238Y-100964186D02*
X236000000Y-100916567D01*
X236000000Y-100916567D02*
X235904762Y-100916567D01*
X235952381Y-101154663D02*
X235857143Y-101107044D01*
X235857143Y-101107044D02*
X235761905Y-101011805D01*
X235761905Y-101011805D02*
X235714286Y-100821329D01*
X235714286Y-100821329D02*
X235714286Y-100487996D01*
X235714286Y-100487996D02*
X235761905Y-100297520D01*
X235761905Y-100297520D02*
X235857143Y-100202282D01*
X235857143Y-100202282D02*
X235952381Y-100154663D01*
X235952381Y-100154663D02*
X236142857Y-100154663D01*
X236142857Y-100154663D02*
X236238095Y-100202282D01*
X236238095Y-100202282D02*
X236333333Y-100297520D01*
X236333333Y-100297520D02*
X236380952Y-100487996D01*
X236380952Y-100487996D02*
X236380952Y-100821329D01*
X236380952Y-100821329D02*
X236333333Y-101011805D01*
X236333333Y-101011805D02*
X236238095Y-101107044D01*
X236238095Y-101107044D02*
X236142857Y-101154663D01*
X236142857Y-101154663D02*
X235952381Y-101154663D01*
X236761905Y-100249901D02*
X236809524Y-100202282D01*
X236809524Y-100202282D02*
X236904762Y-100154663D01*
X236904762Y-100154663D02*
X237142857Y-100154663D01*
X237142857Y-100154663D02*
X237238095Y-100202282D01*
X237238095Y-100202282D02*
X237285714Y-100249901D01*
X237285714Y-100249901D02*
X237333333Y-100345139D01*
X237333333Y-100345139D02*
X237333333Y-100440377D01*
X237333333Y-100440377D02*
X237285714Y-100583234D01*
X237285714Y-100583234D02*
X236714286Y-101154663D01*
X236714286Y-101154663D02*
X237333333Y-101154663D01*
X237666667Y-100154663D02*
X238333333Y-100154663D01*
X238333333Y-100154663D02*
X237904762Y-101154663D01*
X89227142Y-91494663D02*
X88893809Y-91018472D01*
X88655714Y-91494663D02*
X88655714Y-90494663D01*
X88655714Y-90494663D02*
X89036666Y-90494663D01*
X89036666Y-90494663D02*
X89131904Y-90542282D01*
X89131904Y-90542282D02*
X89179523Y-90589901D01*
X89179523Y-90589901D02*
X89227142Y-90685139D01*
X89227142Y-90685139D02*
X89227142Y-90827996D01*
X89227142Y-90827996D02*
X89179523Y-90923234D01*
X89179523Y-90923234D02*
X89131904Y-90970853D01*
X89131904Y-90970853D02*
X89036666Y-91018472D01*
X89036666Y-91018472D02*
X88655714Y-91018472D01*
X89608095Y-90589901D02*
X89655714Y-90542282D01*
X89655714Y-90542282D02*
X89750952Y-90494663D01*
X89750952Y-90494663D02*
X89989047Y-90494663D01*
X89989047Y-90494663D02*
X90084285Y-90542282D01*
X90084285Y-90542282D02*
X90131904Y-90589901D01*
X90131904Y-90589901D02*
X90179523Y-90685139D01*
X90179523Y-90685139D02*
X90179523Y-90780377D01*
X90179523Y-90780377D02*
X90131904Y-90923234D01*
X90131904Y-90923234D02*
X89560476Y-91494663D01*
X89560476Y-91494663D02*
X90179523Y-91494663D01*
X90655714Y-91494663D02*
X90846190Y-91494663D01*
X90846190Y-91494663D02*
X90941428Y-91447044D01*
X90941428Y-91447044D02*
X90989047Y-91399424D01*
X90989047Y-91399424D02*
X91084285Y-91256567D01*
X91084285Y-91256567D02*
X91131904Y-91066091D01*
X91131904Y-91066091D02*
X91131904Y-90685139D01*
X91131904Y-90685139D02*
X91084285Y-90589901D01*
X91084285Y-90589901D02*
X91036666Y-90542282D01*
X91036666Y-90542282D02*
X90941428Y-90494663D01*
X90941428Y-90494663D02*
X90750952Y-90494663D01*
X90750952Y-90494663D02*
X90655714Y-90542282D01*
X90655714Y-90542282D02*
X90608095Y-90589901D01*
X90608095Y-90589901D02*
X90560476Y-90685139D01*
X90560476Y-90685139D02*
X90560476Y-90923234D01*
X90560476Y-90923234D02*
X90608095Y-91018472D01*
X90608095Y-91018472D02*
X90655714Y-91066091D01*
X90655714Y-91066091D02*
X90750952Y-91113710D01*
X90750952Y-91113710D02*
X90941428Y-91113710D01*
X90941428Y-91113710D02*
X91036666Y-91066091D01*
X91036666Y-91066091D02*
X91084285Y-91018472D01*
X91084285Y-91018472D02*
X91131904Y-90923234D01*
X212428571Y-91949901D02*
X212333333Y-91902282D01*
X212333333Y-91902282D02*
X212238095Y-91807044D01*
X212238095Y-91807044D02*
X212095238Y-91664186D01*
X212095238Y-91664186D02*
X212000000Y-91616567D01*
X212000000Y-91616567D02*
X211904762Y-91616567D01*
X211952381Y-91854663D02*
X211857143Y-91807044D01*
X211857143Y-91807044D02*
X211761905Y-91711805D01*
X211761905Y-91711805D02*
X211714286Y-91521329D01*
X211714286Y-91521329D02*
X211714286Y-91187996D01*
X211714286Y-91187996D02*
X211761905Y-90997520D01*
X211761905Y-90997520D02*
X211857143Y-90902282D01*
X211857143Y-90902282D02*
X211952381Y-90854663D01*
X211952381Y-90854663D02*
X212142857Y-90854663D01*
X212142857Y-90854663D02*
X212238095Y-90902282D01*
X212238095Y-90902282D02*
X212333333Y-90997520D01*
X212333333Y-90997520D02*
X212380952Y-91187996D01*
X212380952Y-91187996D02*
X212380952Y-91521329D01*
X212380952Y-91521329D02*
X212333333Y-91711805D01*
X212333333Y-91711805D02*
X212238095Y-91807044D01*
X212238095Y-91807044D02*
X212142857Y-91854663D01*
X212142857Y-91854663D02*
X211952381Y-91854663D01*
X212761905Y-90949901D02*
X212809524Y-90902282D01*
X212809524Y-90902282D02*
X212904762Y-90854663D01*
X212904762Y-90854663D02*
X213142857Y-90854663D01*
X213142857Y-90854663D02*
X213238095Y-90902282D01*
X213238095Y-90902282D02*
X213285714Y-90949901D01*
X213285714Y-90949901D02*
X213333333Y-91045139D01*
X213333333Y-91045139D02*
X213333333Y-91140377D01*
X213333333Y-91140377D02*
X213285714Y-91283234D01*
X213285714Y-91283234D02*
X212714286Y-91854663D01*
X212714286Y-91854663D02*
X213333333Y-91854663D01*
X214190476Y-91187996D02*
X214190476Y-91854663D01*
X213952381Y-90807044D02*
X213714286Y-91521329D01*
X213714286Y-91521329D02*
X214333333Y-91521329D01*
X91634663Y-65166666D02*
X91158472Y-65499999D01*
X91634663Y-65738094D02*
X90634663Y-65738094D01*
X90634663Y-65738094D02*
X90634663Y-65357142D01*
X90634663Y-65357142D02*
X90682282Y-65261904D01*
X90682282Y-65261904D02*
X90729901Y-65214285D01*
X90729901Y-65214285D02*
X90825139Y-65166666D01*
X90825139Y-65166666D02*
X90967996Y-65166666D01*
X90967996Y-65166666D02*
X91063234Y-65214285D01*
X91063234Y-65214285D02*
X91110853Y-65261904D01*
X91110853Y-65261904D02*
X91158472Y-65357142D01*
X91158472Y-65357142D02*
X91158472Y-65738094D01*
X90634663Y-64309523D02*
X90634663Y-64499999D01*
X90634663Y-64499999D02*
X90682282Y-64595237D01*
X90682282Y-64595237D02*
X90729901Y-64642856D01*
X90729901Y-64642856D02*
X90872758Y-64738094D01*
X90872758Y-64738094D02*
X91063234Y-64785713D01*
X91063234Y-64785713D02*
X91444186Y-64785713D01*
X91444186Y-64785713D02*
X91539424Y-64738094D01*
X91539424Y-64738094D02*
X91587044Y-64690475D01*
X91587044Y-64690475D02*
X91634663Y-64595237D01*
X91634663Y-64595237D02*
X91634663Y-64404761D01*
X91634663Y-64404761D02*
X91587044Y-64309523D01*
X91587044Y-64309523D02*
X91539424Y-64261904D01*
X91539424Y-64261904D02*
X91444186Y-64214285D01*
X91444186Y-64214285D02*
X91206091Y-64214285D01*
X91206091Y-64214285D02*
X91110853Y-64261904D01*
X91110853Y-64261904D02*
X91063234Y-64309523D01*
X91063234Y-64309523D02*
X91015615Y-64404761D01*
X91015615Y-64404761D02*
X91015615Y-64595237D01*
X91015615Y-64595237D02*
X91063234Y-64690475D01*
X91063234Y-64690475D02*
X91110853Y-64738094D01*
X91110853Y-64738094D02*
X91206091Y-64785713D01*
X188238095Y-68654663D02*
X188238095Y-67654663D01*
X188238095Y-67654663D02*
X188809523Y-68654663D01*
X188809523Y-68654663D02*
X188809523Y-67654663D01*
X189714285Y-67654663D02*
X189523809Y-67654663D01*
X189523809Y-67654663D02*
X189428571Y-67702282D01*
X189428571Y-67702282D02*
X189380952Y-67749901D01*
X189380952Y-67749901D02*
X189285714Y-67892758D01*
X189285714Y-67892758D02*
X189238095Y-68083234D01*
X189238095Y-68083234D02*
X189238095Y-68464186D01*
X189238095Y-68464186D02*
X189285714Y-68559424D01*
X189285714Y-68559424D02*
X189333333Y-68607044D01*
X189333333Y-68607044D02*
X189428571Y-68654663D01*
X189428571Y-68654663D02*
X189619047Y-68654663D01*
X189619047Y-68654663D02*
X189714285Y-68607044D01*
X189714285Y-68607044D02*
X189761904Y-68559424D01*
X189761904Y-68559424D02*
X189809523Y-68464186D01*
X189809523Y-68464186D02*
X189809523Y-68226091D01*
X189809523Y-68226091D02*
X189761904Y-68130853D01*
X189761904Y-68130853D02*
X189714285Y-68083234D01*
X189714285Y-68083234D02*
X189619047Y-68035615D01*
X189619047Y-68035615D02*
X189428571Y-68035615D01*
X189428571Y-68035615D02*
X189333333Y-68083234D01*
X189333333Y-68083234D02*
X189285714Y-68130853D01*
X189285714Y-68130853D02*
X189238095Y-68226091D01*
X182344663Y-96162857D02*
X181868472Y-96496190D01*
X182344663Y-96734285D02*
X181344663Y-96734285D01*
X181344663Y-96734285D02*
X181344663Y-96353333D01*
X181344663Y-96353333D02*
X181392282Y-96258095D01*
X181392282Y-96258095D02*
X181439901Y-96210476D01*
X181439901Y-96210476D02*
X181535139Y-96162857D01*
X181535139Y-96162857D02*
X181677996Y-96162857D01*
X181677996Y-96162857D02*
X181773234Y-96210476D01*
X181773234Y-96210476D02*
X181820853Y-96258095D01*
X181820853Y-96258095D02*
X181868472Y-96353333D01*
X181868472Y-96353333D02*
X181868472Y-96734285D01*
X181677996Y-95305714D02*
X182344663Y-95305714D01*
X181297044Y-95543809D02*
X182011329Y-95781904D01*
X182011329Y-95781904D02*
X182011329Y-95162857D01*
X181344663Y-94353333D02*
X181344663Y-94543809D01*
X181344663Y-94543809D02*
X181392282Y-94639047D01*
X181392282Y-94639047D02*
X181439901Y-94686666D01*
X181439901Y-94686666D02*
X181582758Y-94781904D01*
X181582758Y-94781904D02*
X181773234Y-94829523D01*
X181773234Y-94829523D02*
X182154186Y-94829523D01*
X182154186Y-94829523D02*
X182249424Y-94781904D01*
X182249424Y-94781904D02*
X182297044Y-94734285D01*
X182297044Y-94734285D02*
X182344663Y-94639047D01*
X182344663Y-94639047D02*
X182344663Y-94448571D01*
X182344663Y-94448571D02*
X182297044Y-94353333D01*
X182297044Y-94353333D02*
X182249424Y-94305714D01*
X182249424Y-94305714D02*
X182154186Y-94258095D01*
X182154186Y-94258095D02*
X181916091Y-94258095D01*
X181916091Y-94258095D02*
X181820853Y-94305714D01*
X181820853Y-94305714D02*
X181773234Y-94353333D01*
X181773234Y-94353333D02*
X181725615Y-94448571D01*
X181725615Y-94448571D02*
X181725615Y-94639047D01*
X181725615Y-94639047D02*
X181773234Y-94734285D01*
X181773234Y-94734285D02*
X181820853Y-94781904D01*
X181820853Y-94781904D02*
X181916091Y-94829523D01*
X158324663Y-95382857D02*
X157848472Y-95716190D01*
X158324663Y-95954285D02*
X157324663Y-95954285D01*
X157324663Y-95954285D02*
X157324663Y-95573333D01*
X157324663Y-95573333D02*
X157372282Y-95478095D01*
X157372282Y-95478095D02*
X157419901Y-95430476D01*
X157419901Y-95430476D02*
X157515139Y-95382857D01*
X157515139Y-95382857D02*
X157657996Y-95382857D01*
X157657996Y-95382857D02*
X157753234Y-95430476D01*
X157753234Y-95430476D02*
X157800853Y-95478095D01*
X157800853Y-95478095D02*
X157848472Y-95573333D01*
X157848472Y-95573333D02*
X157848472Y-95954285D01*
X157657996Y-94525714D02*
X158324663Y-94525714D01*
X157277044Y-94763809D02*
X157991329Y-95001904D01*
X157991329Y-95001904D02*
X157991329Y-94382857D01*
X157419901Y-94049523D02*
X157372282Y-94001904D01*
X157372282Y-94001904D02*
X157324663Y-93906666D01*
X157324663Y-93906666D02*
X157324663Y-93668571D01*
X157324663Y-93668571D02*
X157372282Y-93573333D01*
X157372282Y-93573333D02*
X157419901Y-93525714D01*
X157419901Y-93525714D02*
X157515139Y-93478095D01*
X157515139Y-93478095D02*
X157610377Y-93478095D01*
X157610377Y-93478095D02*
X157753234Y-93525714D01*
X157753234Y-93525714D02*
X158324663Y-94097142D01*
X158324663Y-94097142D02*
X158324663Y-93478095D01*
X250957142Y-77884663D02*
X250623809Y-77408472D01*
X250385714Y-77884663D02*
X250385714Y-76884663D01*
X250385714Y-76884663D02*
X250766666Y-76884663D01*
X250766666Y-76884663D02*
X250861904Y-76932282D01*
X250861904Y-76932282D02*
X250909523Y-76979901D01*
X250909523Y-76979901D02*
X250957142Y-77075139D01*
X250957142Y-77075139D02*
X250957142Y-77217996D01*
X250957142Y-77217996D02*
X250909523Y-77313234D01*
X250909523Y-77313234D02*
X250861904Y-77360853D01*
X250861904Y-77360853D02*
X250766666Y-77408472D01*
X250766666Y-77408472D02*
X250385714Y-77408472D01*
X251909523Y-77884663D02*
X251338095Y-77884663D01*
X251623809Y-77884663D02*
X251623809Y-76884663D01*
X251623809Y-76884663D02*
X251528571Y-77027520D01*
X251528571Y-77027520D02*
X251433333Y-77122758D01*
X251433333Y-77122758D02*
X251338095Y-77170377D01*
X252766666Y-77217996D02*
X252766666Y-77884663D01*
X252528571Y-76837044D02*
X252290476Y-77551329D01*
X252290476Y-77551329D02*
X252909523Y-77551329D01*
D11*
%TO.C,R3*%
X55162742Y-86077500D02*
X55637258Y-86077500D01*
X55162742Y-87122500D02*
X55637258Y-87122500D01*
%TO.C,R32*%
X96799758Y-98427500D02*
X96325242Y-98427500D01*
X96799758Y-99472500D02*
X96325242Y-99472500D01*
%TO.C,Q14*%
X93000000Y-92440000D02*
X92350000Y-92440000D01*
X93000000Y-92440000D02*
X93650000Y-92440000D01*
X93000000Y-95560000D02*
X92350000Y-95560000D01*
X93000000Y-95560000D02*
X93650000Y-95560000D01*
X91837500Y-92490000D02*
X91597500Y-92160000D01*
X92077500Y-92160000D01*
X91837500Y-92490000D01*
G36*
X91837500Y-92490000D02*
G01*
X91597500Y-92160000D01*
X92077500Y-92160000D01*
X91837500Y-92490000D01*
G37*
%TO.C,R37*%
X136950000Y-94727064D02*
X136950000Y-93272936D01*
X138770000Y-94727064D02*
X138770000Y-93272936D01*
%TO.C,R23*%
X212090000Y-65727064D02*
X212090000Y-64272936D01*
X213910000Y-65727064D02*
X213910000Y-64272936D01*
%TO.C,R10*%
X55262742Y-66077500D02*
X55737258Y-66077500D01*
X55262742Y-67122500D02*
X55737258Y-67122500D01*
%TO.C,R50*%
X206580000Y-94792936D02*
X206580000Y-96247064D01*
X208400000Y-94792936D02*
X208400000Y-96247064D01*
%TO.C,R9*%
X55262742Y-71077500D02*
X55737258Y-71077500D01*
X55262742Y-72122500D02*
X55737258Y-72122500D01*
%TO.C,R28*%
X72799758Y-98427500D02*
X72325242Y-98427500D01*
X72799758Y-99472500D02*
X72325242Y-99472500D01*
%TO.C,Q15*%
X93000000Y-96440000D02*
X92350000Y-96440000D01*
X93000000Y-96440000D02*
X93650000Y-96440000D01*
X93000000Y-99560000D02*
X92350000Y-99560000D01*
X93000000Y-99560000D02*
X93650000Y-99560000D01*
X94402500Y-99840000D02*
X93922500Y-99840000D01*
X94162500Y-99510000D01*
X94402500Y-99840000D01*
G36*
X94402500Y-99840000D02*
G01*
X93922500Y-99840000D01*
X94162500Y-99510000D01*
X94402500Y-99840000D01*
G37*
%TO.C,R17*%
X161090000Y-65727064D02*
X161090000Y-64272936D01*
X162910000Y-65727064D02*
X162910000Y-64272936D01*
%TO.C,R33*%
X112950000Y-94727064D02*
X112950000Y-93272936D01*
X114770000Y-94727064D02*
X114770000Y-93272936D01*
D12*
%TO.C,N1*%
X74530000Y-89530000D02*
X77070000Y-89530000D01*
X74530000Y-92070000D02*
X74530000Y-89530000D01*
D11*
%TO.C,R26*%
X62580000Y-94792936D02*
X62580000Y-96247064D01*
X64400000Y-94792936D02*
X64400000Y-96247064D01*
%TO.C,U1*%
X249000000Y-99940000D02*
X247050000Y-99940000D01*
X249000000Y-99940000D02*
X250950000Y-99940000D01*
X249000000Y-110060000D02*
X247050000Y-110060000D01*
X249000000Y-110060000D02*
X250950000Y-110060000D01*
X251940000Y-110335000D02*
X251460000Y-110335000D01*
X251700000Y-110005000D01*
X251940000Y-110335000D01*
G36*
X251940000Y-110335000D02*
G01*
X251460000Y-110335000D01*
X251700000Y-110005000D01*
X251940000Y-110335000D01*
G37*
%TO.C,R54*%
X230580000Y-94792936D02*
X230580000Y-96247064D01*
X232400000Y-94792936D02*
X232400000Y-96247064D01*
%TO.C,R51*%
X216090000Y-92727064D02*
X216090000Y-91272936D01*
X217910000Y-92727064D02*
X217910000Y-91272936D01*
%TO.C,Q18*%
X141000000Y-92440000D02*
X140350000Y-92440000D01*
X141000000Y-92440000D02*
X141650000Y-92440000D01*
X141000000Y-95560000D02*
X140350000Y-95560000D01*
X141000000Y-95560000D02*
X141650000Y-95560000D01*
X139837500Y-92490000D02*
X139597500Y-92160000D01*
X140077500Y-92160000D01*
X139837500Y-92490000D01*
G36*
X139837500Y-92490000D02*
G01*
X139597500Y-92160000D01*
X140077500Y-92160000D01*
X139837500Y-92490000D01*
G37*
%TO.C,R53*%
X232950000Y-94727064D02*
X232950000Y-93272936D01*
X234770000Y-94727064D02*
X234770000Y-93272936D01*
%TO.C,Q2*%
X58937500Y-85990000D02*
X58287500Y-85990000D01*
X58937500Y-85990000D02*
X59587500Y-85990000D01*
X58937500Y-89110000D02*
X58287500Y-89110000D01*
X58937500Y-89110000D02*
X59587500Y-89110000D01*
X57775000Y-86040000D02*
X57535000Y-85710000D01*
X58015000Y-85710000D01*
X57775000Y-86040000D01*
G36*
X57775000Y-86040000D02*
G01*
X57535000Y-85710000D01*
X58015000Y-85710000D01*
X57775000Y-86040000D01*
G37*
%TO.C,Q11*%
X58937500Y-90890000D02*
X58287500Y-90890000D01*
X58937500Y-90890000D02*
X59587500Y-90890000D01*
X58937500Y-94010000D02*
X58287500Y-94010000D01*
X58937500Y-94010000D02*
X59587500Y-94010000D01*
X57775000Y-90940000D02*
X57535000Y-90610000D01*
X58015000Y-90610000D01*
X57775000Y-90940000D01*
G36*
X57775000Y-90940000D02*
G01*
X57535000Y-90610000D01*
X58015000Y-90610000D01*
X57775000Y-90940000D01*
G37*
%TO.C,R21*%
X188090000Y-65727064D02*
X188090000Y-64272936D01*
X189910000Y-65727064D02*
X189910000Y-64272936D01*
%TO.C,R4*%
X55262742Y-81077500D02*
X55737258Y-81077500D01*
X55262742Y-82122500D02*
X55737258Y-82122500D01*
%TO.C,R55*%
X240090000Y-92727064D02*
X240090000Y-91272936D01*
X241910000Y-92727064D02*
X241910000Y-91272936D01*
%TO.C,Q22*%
X189000000Y-92440000D02*
X188350000Y-92440000D01*
X189000000Y-92440000D02*
X189650000Y-92440000D01*
X189000000Y-95560000D02*
X188350000Y-95560000D01*
X189000000Y-95560000D02*
X189650000Y-95560000D01*
X187837500Y-92490000D02*
X187597500Y-92160000D01*
X188077500Y-92160000D01*
X187837500Y-92490000D01*
G36*
X187837500Y-92490000D02*
G01*
X187597500Y-92160000D01*
X188077500Y-92160000D01*
X187837500Y-92490000D01*
G37*
D12*
%TO.C,N8*%
X242530000Y-89530000D02*
X245070000Y-89530000D01*
X242530000Y-92070000D02*
X242530000Y-89530000D01*
%TO.C,N2*%
X98530000Y-89530000D02*
X101070000Y-89530000D01*
X98530000Y-92070000D02*
X98530000Y-89530000D01*
D11*
%TO.C,R31*%
X96090000Y-92727064D02*
X96090000Y-91272936D01*
X97910000Y-92727064D02*
X97910000Y-91272936D01*
D12*
%TO.C,N3*%
X122530000Y-89530000D02*
X125070000Y-89530000D01*
X122530000Y-92070000D02*
X122530000Y-89530000D01*
D11*
%TO.C,Q21*%
X165000000Y-96440000D02*
X164350000Y-96440000D01*
X165000000Y-96440000D02*
X165650000Y-96440000D01*
X165000000Y-99560000D02*
X164350000Y-99560000D01*
X165000000Y-99560000D02*
X165650000Y-99560000D01*
X166402500Y-99840000D02*
X165922500Y-99840000D01*
X166162500Y-99510000D01*
X166402500Y-99840000D01*
G36*
X166402500Y-99840000D02*
G01*
X165922500Y-99840000D01*
X166162500Y-99510000D01*
X166402500Y-99840000D01*
G37*
%TO.C,R41*%
X160950000Y-94727064D02*
X160950000Y-93272936D01*
X162770000Y-94727064D02*
X162770000Y-93272936D01*
D12*
%TO.C,N4*%
X146530000Y-89530000D02*
X149070000Y-89530000D01*
X146530000Y-92070000D02*
X146530000Y-89530000D01*
D11*
%TO.C,R52*%
X216799758Y-98427500D02*
X216325242Y-98427500D01*
X216799758Y-99472500D02*
X216325242Y-99472500D01*
%TO.C,R8*%
X55262742Y-76077500D02*
X55737258Y-76077500D01*
X55262742Y-77122500D02*
X55737258Y-77122500D01*
%TO.C,Q4*%
X59000000Y-75940000D02*
X58350000Y-75940000D01*
X59000000Y-75940000D02*
X59650000Y-75940000D01*
X59000000Y-79060000D02*
X58350000Y-79060000D01*
X59000000Y-79060000D02*
X59650000Y-79060000D01*
X57837500Y-75990000D02*
X57597500Y-75660000D01*
X58077500Y-75660000D01*
X57837500Y-75990000D01*
G36*
X57837500Y-75990000D02*
G01*
X57597500Y-75660000D01*
X58077500Y-75660000D01*
X57837500Y-75990000D01*
G37*
%TO.C,R16*%
X152090000Y-65727064D02*
X152090000Y-64272936D01*
X153910000Y-65727064D02*
X153910000Y-64272936D01*
%TO.C,Q19*%
X141000000Y-96440000D02*
X140350000Y-96440000D01*
X141000000Y-96440000D02*
X141650000Y-96440000D01*
X141000000Y-99560000D02*
X140350000Y-99560000D01*
X141000000Y-99560000D02*
X141650000Y-99560000D01*
X142402500Y-99840000D02*
X141922500Y-99840000D01*
X142162500Y-99510000D01*
X142402500Y-99840000D01*
G36*
X142402500Y-99840000D02*
G01*
X141922500Y-99840000D01*
X142162500Y-99510000D01*
X142402500Y-99840000D01*
G37*
%TO.C,Q23*%
X189000000Y-96440000D02*
X188350000Y-96440000D01*
X189000000Y-96440000D02*
X189650000Y-96440000D01*
X189000000Y-99560000D02*
X188350000Y-99560000D01*
X189000000Y-99560000D02*
X189650000Y-99560000D01*
X190402500Y-99840000D02*
X189922500Y-99840000D01*
X190162500Y-99510000D01*
X190402500Y-99840000D01*
G36*
X190402500Y-99840000D02*
G01*
X189922500Y-99840000D01*
X190162500Y-99510000D01*
X190402500Y-99840000D01*
G37*
%TO.C,R38*%
X134580000Y-94792936D02*
X134580000Y-96247064D01*
X136400000Y-94792936D02*
X136400000Y-96247064D01*
%TO.C,R18*%
X167090000Y-65727064D02*
X167090000Y-64272936D01*
X168910000Y-65727064D02*
X168910000Y-64272936D01*
%TO.C,R44*%
X168799758Y-98427500D02*
X168325242Y-98427500D01*
X168799758Y-99472500D02*
X168325242Y-99472500D01*
%TO.C,U2*%
X147940000Y-100000000D02*
X147940000Y-98050000D01*
X147940000Y-100000000D02*
X147940000Y-101950000D01*
X158060000Y-100000000D02*
X158060000Y-98050000D01*
X158060000Y-100000000D02*
X158060000Y-101950000D01*
X147995000Y-102700000D02*
X147665000Y-102940000D01*
X147665000Y-102460000D01*
X147995000Y-102700000D01*
G36*
X147995000Y-102700000D02*
G01*
X147665000Y-102940000D01*
X147665000Y-102460000D01*
X147995000Y-102700000D01*
G37*
%TO.C,R27*%
X72090000Y-92727064D02*
X72090000Y-91272936D01*
X73910000Y-92727064D02*
X73910000Y-91272936D01*
%TO.C,R15*%
X251737258Y-80477500D02*
X251262742Y-80477500D01*
X251737258Y-81522500D02*
X251262742Y-81522500D01*
%TO.C,R2*%
X251737258Y-90477500D02*
X251262742Y-90477500D01*
X251737258Y-91522500D02*
X251262742Y-91522500D01*
%TO.C,R47*%
X192090000Y-92727064D02*
X192090000Y-91272936D01*
X193910000Y-92727064D02*
X193910000Y-91272936D01*
%TO.C,Q17*%
X117000000Y-96440000D02*
X116350000Y-96440000D01*
X117000000Y-96440000D02*
X117650000Y-96440000D01*
X117000000Y-99560000D02*
X116350000Y-99560000D01*
X117000000Y-99560000D02*
X117650000Y-99560000D01*
X118402500Y-99840000D02*
X117922500Y-99840000D01*
X118162500Y-99510000D01*
X118402500Y-99840000D01*
G36*
X118402500Y-99840000D02*
G01*
X117922500Y-99840000D01*
X118162500Y-99510000D01*
X118402500Y-99840000D01*
G37*
%TO.C,Q16*%
X117000000Y-92440000D02*
X116350000Y-92440000D01*
X117000000Y-92440000D02*
X117650000Y-92440000D01*
X117000000Y-95560000D02*
X116350000Y-95560000D01*
X117000000Y-95560000D02*
X117650000Y-95560000D01*
X115837500Y-92490000D02*
X115597500Y-92160000D01*
X116077500Y-92160000D01*
X115837500Y-92490000D01*
G36*
X115837500Y-92490000D02*
G01*
X115597500Y-92160000D01*
X116077500Y-92160000D01*
X115837500Y-92490000D01*
G37*
%TO.C,R13*%
X251737258Y-70477500D02*
X251262742Y-70477500D01*
X251737258Y-71522500D02*
X251262742Y-71522500D01*
%TO.C,R7*%
X116090000Y-65727064D02*
X116090000Y-64272936D01*
X117910000Y-65727064D02*
X117910000Y-64272936D01*
%TO.C,R19*%
X251837258Y-85477500D02*
X251362742Y-85477500D01*
X251837258Y-86522500D02*
X251362742Y-86522500D01*
%TO.C,R25*%
X64950000Y-94727064D02*
X64950000Y-93272936D01*
X66770000Y-94727064D02*
X66770000Y-93272936D01*
%TO.C,R40*%
X144799758Y-98427500D02*
X144325242Y-98427500D01*
X144799758Y-99472500D02*
X144325242Y-99472500D01*
%TO.C,R36*%
X120799758Y-98427500D02*
X120325242Y-98427500D01*
X120799758Y-99472500D02*
X120325242Y-99472500D01*
%TO.C,R49*%
X208950000Y-94727064D02*
X208950000Y-93272936D01*
X210770000Y-94727064D02*
X210770000Y-93272936D01*
%TO.C,Q26*%
X237000000Y-92440000D02*
X236350000Y-92440000D01*
X237000000Y-92440000D02*
X237650000Y-92440000D01*
X237000000Y-95560000D02*
X236350000Y-95560000D01*
X237000000Y-95560000D02*
X237650000Y-95560000D01*
X235837500Y-92490000D02*
X235597500Y-92160000D01*
X236077500Y-92160000D01*
X235837500Y-92490000D01*
G36*
X235837500Y-92490000D02*
G01*
X235597500Y-92160000D01*
X236077500Y-92160000D01*
X235837500Y-92490000D01*
G37*
%TO.C,R1*%
X57237258Y-110477500D02*
X56762742Y-110477500D01*
X57237258Y-111522500D02*
X56762742Y-111522500D01*
%TO.C,Q3*%
X59000000Y-80940000D02*
X58350000Y-80940000D01*
X59000000Y-80940000D02*
X59650000Y-80940000D01*
X59000000Y-84060000D02*
X58350000Y-84060000D01*
X59000000Y-84060000D02*
X59650000Y-84060000D01*
X57837500Y-80990000D02*
X57597500Y-80660000D01*
X58077500Y-80660000D01*
X57837500Y-80990000D01*
G36*
X57837500Y-80990000D02*
G01*
X57597500Y-80660000D01*
X58077500Y-80660000D01*
X57837500Y-80990000D01*
G37*
%TO.C,R12*%
X143090000Y-65727064D02*
X143090000Y-64272936D01*
X144910000Y-65727064D02*
X144910000Y-64272936D01*
%TO.C,R20*%
X55162742Y-90977500D02*
X55637258Y-90977500D01*
X55162742Y-92022500D02*
X55637258Y-92022500D01*
%TO.C,R39*%
X144090000Y-92727064D02*
X144090000Y-91272936D01*
X145910000Y-92727064D02*
X145910000Y-91272936D01*
%TO.C,Q20*%
X165000000Y-92440000D02*
X164350000Y-92440000D01*
X165000000Y-92440000D02*
X165650000Y-92440000D01*
X165000000Y-95560000D02*
X164350000Y-95560000D01*
X165000000Y-95560000D02*
X165650000Y-95560000D01*
X163837500Y-92490000D02*
X163597500Y-92160000D01*
X164077500Y-92160000D01*
X163837500Y-92490000D01*
G36*
X163837500Y-92490000D02*
G01*
X163597500Y-92160000D01*
X164077500Y-92160000D01*
X163837500Y-92490000D01*
G37*
%TO.C,R56*%
X240799758Y-98427500D02*
X240325242Y-98427500D01*
X240799758Y-99472500D02*
X240325242Y-99472500D01*
D12*
%TO.C,N7*%
X218530000Y-89530000D02*
X221070000Y-89530000D01*
X218530000Y-92070000D02*
X218530000Y-89530000D01*
D11*
%TO.C,Q9*%
X248000000Y-78440000D02*
X247350000Y-78440000D01*
X248000000Y-78440000D02*
X248650000Y-78440000D01*
X248000000Y-81560000D02*
X247350000Y-81560000D01*
X248000000Y-81560000D02*
X248650000Y-81560000D01*
X249402500Y-81840000D02*
X248922500Y-81840000D01*
X249162500Y-81510000D01*
X249402500Y-81840000D01*
G36*
X249402500Y-81840000D02*
G01*
X248922500Y-81840000D01*
X249162500Y-81510000D01*
X249402500Y-81840000D01*
G37*
%TO.C,Q8*%
X248062500Y-73490000D02*
X247412500Y-73490000D01*
X248062500Y-73490000D02*
X248712500Y-73490000D01*
X248062500Y-76610000D02*
X247412500Y-76610000D01*
X248062500Y-76610000D02*
X248712500Y-76610000D01*
X249465000Y-76890000D02*
X248985000Y-76890000D01*
X249225000Y-76560000D01*
X249465000Y-76890000D01*
G36*
X249465000Y-76890000D02*
G01*
X248985000Y-76890000D01*
X249225000Y-76560000D01*
X249465000Y-76890000D01*
G37*
%TO.C,R30*%
X86580000Y-94792936D02*
X86580000Y-96247064D01*
X88400000Y-94792936D02*
X88400000Y-96247064D01*
%TO.C,R34*%
X110580000Y-94792936D02*
X110580000Y-96247064D01*
X112400000Y-94792936D02*
X112400000Y-96247064D01*
D12*
%TO.C,N5*%
X170530000Y-89530000D02*
X173070000Y-89530000D01*
X170530000Y-92070000D02*
X170530000Y-89530000D01*
D11*
%TO.C,R43*%
X168090000Y-92727064D02*
X168090000Y-91272936D01*
X169910000Y-92727064D02*
X169910000Y-91272936D01*
%TO.C,Q12*%
X69000000Y-92440000D02*
X68350000Y-92440000D01*
X69000000Y-92440000D02*
X69650000Y-92440000D01*
X69000000Y-95560000D02*
X68350000Y-95560000D01*
X69000000Y-95560000D02*
X69650000Y-95560000D01*
X67837500Y-92490000D02*
X67597500Y-92160000D01*
X68077500Y-92160000D01*
X67837500Y-92490000D01*
G36*
X67837500Y-92490000D02*
G01*
X67597500Y-92160000D01*
X68077500Y-92160000D01*
X67837500Y-92490000D01*
G37*
%TO.C,Q6*%
X59000000Y-65940000D02*
X58350000Y-65940000D01*
X59000000Y-65940000D02*
X59650000Y-65940000D01*
X59000000Y-69060000D02*
X58350000Y-69060000D01*
X59000000Y-69060000D02*
X59650000Y-69060000D01*
X57837500Y-65990000D02*
X57597500Y-65660000D01*
X58077500Y-65660000D01*
X57837500Y-65990000D01*
G36*
X57837500Y-65990000D02*
G01*
X57597500Y-65660000D01*
X58077500Y-65660000D01*
X57837500Y-65990000D01*
G37*
%TO.C,R35*%
X120090000Y-92727064D02*
X120090000Y-91272936D01*
X121910000Y-92727064D02*
X121910000Y-91272936D01*
%TO.C,Q25*%
X213000000Y-96440000D02*
X212350000Y-96440000D01*
X213000000Y-96440000D02*
X213650000Y-96440000D01*
X213000000Y-99560000D02*
X212350000Y-99560000D01*
X213000000Y-99560000D02*
X213650000Y-99560000D01*
X214402500Y-99840000D02*
X213922500Y-99840000D01*
X214162500Y-99510000D01*
X214402500Y-99840000D01*
G36*
X214402500Y-99840000D02*
G01*
X213922500Y-99840000D01*
X214162500Y-99510000D01*
X214402500Y-99840000D01*
G37*
%TO.C,R48*%
X192799758Y-98427500D02*
X192325242Y-98427500D01*
X192799758Y-99472500D02*
X192325242Y-99472500D01*
%TO.C,Q7*%
X248000000Y-68440000D02*
X247350000Y-68440000D01*
X248000000Y-68440000D02*
X248650000Y-68440000D01*
X248000000Y-71560000D02*
X247350000Y-71560000D01*
X248000000Y-71560000D02*
X248650000Y-71560000D01*
X249402500Y-71840000D02*
X248922500Y-71840000D01*
X249162500Y-71510000D01*
X249402500Y-71840000D01*
G36*
X249402500Y-71840000D02*
G01*
X248922500Y-71840000D01*
X249162500Y-71510000D01*
X249402500Y-71840000D01*
G37*
%TO.C,Q13*%
X69000000Y-96440000D02*
X68350000Y-96440000D01*
X69000000Y-96440000D02*
X69650000Y-96440000D01*
X69000000Y-99560000D02*
X68350000Y-99560000D01*
X69000000Y-99560000D02*
X69650000Y-99560000D01*
X70402500Y-99840000D02*
X69922500Y-99840000D01*
X70162500Y-99510000D01*
X70402500Y-99840000D01*
G36*
X70402500Y-99840000D02*
G01*
X69922500Y-99840000D01*
X70162500Y-99510000D01*
X70402500Y-99840000D01*
G37*
%TO.C,R22*%
X55637258Y-92977500D02*
X55162742Y-92977500D01*
X55637258Y-94022500D02*
X55162742Y-94022500D01*
%TO.C,R5*%
X68090000Y-65727064D02*
X68090000Y-64272936D01*
X69910000Y-65727064D02*
X69910000Y-64272936D01*
%TO.C,R24*%
X236090000Y-65727064D02*
X236090000Y-64272936D01*
X237910000Y-65727064D02*
X237910000Y-64272936D01*
%TO.C,R11*%
X137090000Y-65727064D02*
X137090000Y-64272936D01*
X138910000Y-65727064D02*
X138910000Y-64272936D01*
%TO.C,Q5*%
X59000000Y-70940000D02*
X58350000Y-70940000D01*
X59000000Y-70940000D02*
X59650000Y-70940000D01*
X59000000Y-74060000D02*
X58350000Y-74060000D01*
X59000000Y-74060000D02*
X59650000Y-74060000D01*
X57837500Y-70990000D02*
X57597500Y-70660000D01*
X58077500Y-70660000D01*
X57837500Y-70990000D01*
G36*
X57837500Y-70990000D02*
G01*
X57597500Y-70660000D01*
X58077500Y-70660000D01*
X57837500Y-70990000D01*
G37*
%TO.C,Q10*%
X248062500Y-83490000D02*
X247412500Y-83490000D01*
X248062500Y-83490000D02*
X248712500Y-83490000D01*
X248062500Y-86610000D02*
X247412500Y-86610000D01*
X248062500Y-86610000D02*
X248712500Y-86610000D01*
X249465000Y-86890000D02*
X248985000Y-86890000D01*
X249225000Y-86560000D01*
X249465000Y-86890000D01*
G36*
X249465000Y-86890000D02*
G01*
X248985000Y-86890000D01*
X249225000Y-86560000D01*
X249465000Y-86890000D01*
G37*
%TO.C,R45*%
X184950000Y-94727064D02*
X184950000Y-93272936D01*
X186770000Y-94727064D02*
X186770000Y-93272936D01*
%TO.C,Q1*%
X248000000Y-88440000D02*
X247350000Y-88440000D01*
X248000000Y-88440000D02*
X248650000Y-88440000D01*
X248000000Y-91560000D02*
X247350000Y-91560000D01*
X248000000Y-91560000D02*
X248650000Y-91560000D01*
X249402500Y-91840000D02*
X248922500Y-91840000D01*
X249162500Y-91510000D01*
X249402500Y-91840000D01*
G36*
X249402500Y-91840000D02*
G01*
X248922500Y-91840000D01*
X249162500Y-91510000D01*
X249402500Y-91840000D01*
G37*
%TO.C,U3*%
X57000000Y-99940000D02*
X55050000Y-99940000D01*
X57000000Y-99940000D02*
X58950000Y-99940000D01*
X57000000Y-110060000D02*
X55050000Y-110060000D01*
X57000000Y-110060000D02*
X58950000Y-110060000D01*
X54300000Y-99995000D02*
X54060000Y-99665000D01*
X54540000Y-99665000D01*
X54300000Y-99995000D01*
G36*
X54300000Y-99995000D02*
G01*
X54060000Y-99665000D01*
X54540000Y-99665000D01*
X54300000Y-99995000D01*
G37*
%TO.C,Q27*%
X237000000Y-96440000D02*
X236350000Y-96440000D01*
X237000000Y-96440000D02*
X237650000Y-96440000D01*
X237000000Y-99560000D02*
X236350000Y-99560000D01*
X237000000Y-99560000D02*
X237650000Y-99560000D01*
X238402500Y-99840000D02*
X237922500Y-99840000D01*
X238162500Y-99510000D01*
X238402500Y-99840000D01*
G36*
X238402500Y-99840000D02*
G01*
X237922500Y-99840000D01*
X238162500Y-99510000D01*
X238402500Y-99840000D01*
G37*
%TO.C,R29*%
X88950000Y-94727064D02*
X88950000Y-93272936D01*
X90770000Y-94727064D02*
X90770000Y-93272936D01*
%TO.C,Q24*%
X213000000Y-92440000D02*
X212350000Y-92440000D01*
X213000000Y-92440000D02*
X213650000Y-92440000D01*
X213000000Y-95560000D02*
X212350000Y-95560000D01*
X213000000Y-95560000D02*
X213650000Y-95560000D01*
X211837500Y-92490000D02*
X211597500Y-92160000D01*
X212077500Y-92160000D01*
X211837500Y-92490000D01*
G36*
X211837500Y-92490000D02*
G01*
X211597500Y-92160000D01*
X212077500Y-92160000D01*
X211837500Y-92490000D01*
G37*
%TO.C,R6*%
X92090000Y-65727064D02*
X92090000Y-64272936D01*
X93910000Y-65727064D02*
X93910000Y-64272936D01*
D12*
%TO.C,N6*%
X194530000Y-89530000D02*
X197070000Y-89530000D01*
X194530000Y-92070000D02*
X194530000Y-89530000D01*
D11*
%TO.C,R46*%
X182580000Y-94792936D02*
X182580000Y-96247064D01*
X184400000Y-94792936D02*
X184400000Y-96247064D01*
%TO.C,R42*%
X158580000Y-94792936D02*
X158580000Y-96247064D01*
X160400000Y-94792936D02*
X160400000Y-96247064D01*
%TO.C,R14*%
X251837258Y-75477500D02*
X251362742Y-75477500D01*
X251837258Y-76522500D02*
X251362742Y-76522500D01*
%TD*%
M02*
