M48
; DRILL file {KiCad 8.0.3} date 2024-06-09T23:29:47+1200
; FORMAT={-:-/ absolute / metric / decimal}
; #@! TF.CreationDate,2024-06-09T23:29:47+12:00
; #@! TF.GenerationSoftware,Kicad,Pcbnew,8.0.3
; #@! TF.FileFunction,Plated,1,2,PTH
FMAT,2
METRIC
; #@! TA.AperFunction,Plated,PTH,ViaDrill
T1C0.300
; #@! TA.AperFunction,Plated,PTH,ComponentDrill
T2C1.000
; #@! TA.AperFunction,Plated,PTH,ComponentDrill
T3C1.680
%
G90
G05
T1
X53.8Y-93.5
X55.8Y-109.4
X56.9Y-88.5
X57.0Y-68.4
X57.0Y-73.4
X57.0Y-78.4
X57.0Y-83.4
X66.92Y-69.77
X68.8Y-97.0
X92.8Y-97.0
X94.95Y-68.06
X115.03Y-68.15
X116.8Y-97.0
X132.34Y-67.94
X139.02Y-68.2
X140.8Y-97.0
X147.9Y-106.565
X147.91Y-97.57
X152.4Y-98.9
X152.5Y-110.0
X153.0Y-68.135
X153.5Y-111.0
X153.7Y-98.9
X155.0Y-99.0
X155.0Y-112.0
X157.5Y-99.0
X157.5Y-109.0
X158.7Y-101.7
X159.5Y-103.0
X159.5Y-109.0
X161.0Y-68.08
X164.8Y-97.0
X188.8Y-97.0
X193.0Y-68.06
X212.8Y-97.0
X214.96Y-68.21
X236.8Y-97.0
X239.0Y-68.73
X239.5Y-111.5
X242.0Y-112.5
X244.0Y-111.5
X247.8Y-69.0
X247.8Y-79.0
X247.8Y-89.0
X247.9Y-74.0
X247.9Y-84.1
X250.1Y-100.5
T2
X231.92Y-104.0
X231.92Y-106.54
X234.46Y-104.0
X234.46Y-106.54
X237.0Y-104.0
X237.0Y-106.54
X239.54Y-104.0
X239.54Y-106.54
X242.08Y-104.0
X242.08Y-106.54
T3
X63.25Y-75.5
X63.25Y-80.0
X63.25Y-84.5
X65.0Y-72.0
X65.0Y-88.0
X69.0Y-71.0
X69.0Y-89.0
X73.0Y-72.0
X73.0Y-88.0
X74.75Y-75.5
X74.75Y-80.0
X74.75Y-84.5
X87.25Y-75.5
X87.25Y-80.0
X87.25Y-84.5
X89.0Y-72.0
X89.0Y-88.0
X93.0Y-71.0
X93.0Y-89.0
X97.0Y-72.0
X97.0Y-88.0
X98.75Y-75.5
X98.75Y-80.0
X98.75Y-84.5
X111.25Y-75.5
X111.25Y-80.0
X111.25Y-84.5
X113.0Y-72.0
X113.0Y-88.0
X117.0Y-71.0
X117.0Y-89.0
X121.0Y-72.0
X121.0Y-88.0
X122.75Y-75.5
X122.75Y-80.0
X122.75Y-84.5
X135.25Y-75.5
X135.25Y-80.0
X135.25Y-84.5
X137.0Y-72.0
X137.0Y-88.0
X141.0Y-71.0
X141.0Y-89.0
X145.0Y-72.0
X145.0Y-88.0
X146.75Y-75.5
X146.75Y-80.0
X146.75Y-84.5
X159.25Y-75.5
X159.25Y-80.0
X159.25Y-84.5
X161.0Y-72.0
X161.0Y-88.0
X165.0Y-71.0
X165.0Y-89.0
X169.0Y-72.0
X169.0Y-88.0
X170.75Y-75.5
X170.75Y-80.0
X170.75Y-84.5
X183.25Y-75.5
X183.25Y-80.0
X183.25Y-84.5
X185.0Y-72.0
X185.0Y-88.0
X189.0Y-71.0
X189.0Y-89.0
X193.0Y-72.0
X193.0Y-88.0
X194.75Y-75.5
X194.75Y-80.0
X194.75Y-84.5
X207.25Y-75.5
X207.25Y-80.0
X207.25Y-84.5
X209.0Y-72.0
X209.0Y-88.0
X213.0Y-71.0
X213.0Y-89.0
X217.0Y-72.0
X217.0Y-88.0
X218.75Y-75.5
X218.75Y-80.0
X218.75Y-84.5
X231.25Y-75.5
X231.25Y-80.0
X231.25Y-84.5
X233.0Y-72.0
X233.0Y-88.0
X237.0Y-71.0
X237.0Y-89.0
X241.0Y-72.0
X241.0Y-88.0
X242.75Y-75.5
X242.75Y-80.0
X242.75Y-84.5
M30
