<?xml version="1.0" encoding="UTF-8" standalone="no"?>
<!-- Created with Inkscape (http://www.inkscape.org/) -->

<svg
   width="594mm"
   height="420mm"
   viewBox="0 0 594 420"
   version="1.1"
   id="svg1"
   inkscape:version="1.3.2 (091e20ef0f, 2023-11-25, custom)"
   sodipodi:docname="steel_panels.svg"
   xmlns:inkscape="http://www.inkscape.org/namespaces/inkscape"
   xmlns:sodipodi="http://sodipodi.sourceforge.net/DTD/sodipodi-0.dtd"
   xmlns="http://www.w3.org/2000/svg"
   xmlns:svg="http://www.w3.org/2000/svg">
  <sodipodi:namedview
     id="namedview1"
     pagecolor="#ffffff"
     bordercolor="#000000"
     borderopacity="0.25"
     inkscape:showpageshadow="2"
     inkscape:pageopacity="0.0"
     inkscape:pagecheckerboard="0"
     inkscape:deskcolor="#d1d1d1"
     inkscape:document-units="mm"
     inkscape:zoom="1"
     inkscape:cx="760.5"
     inkscape:cy="424.5"
     inkscape:window-width="1406"
     inkscape:window-height="1411"
     inkscape:window-x="0"
     inkscape:window-y="27"
     inkscape:window-maximized="1"
     inkscape:current-layer="layer1" />
  <defs
     id="defs1" />
  <g
     inkscape:label="Layer 1"
     inkscape:groupmode="layer"
     id="layer1">
    <path
       d="m 71.342851,233.74423 a 1.6,1.6 0 0 0 -3.2,0 1.6,1.6 0 0 0 3.2,0 z"
       style="fill:none;stroke:#ff0000;stroke-width:0.0352778;stroke-dasharray:none;stroke-opacity:1"
       id="path34-6" />
    <path
       d="m 16.042851,7.4442313 a 1.6000002,1.6000002 0 0 0 -3.2,0 1.6000002,1.6000002 0 0 0 3.2,0 z"
       style="fill:none;stroke:#ff0000;stroke-width:0.0352778;stroke-dasharray:none;stroke-opacity:1"
       id="path45-6" />
    <path
       d="m 71.342851,7.4442313 a 1.6,1.6 0 0 0 -3.2,0 1.6,1.6 0 0 0 3.2,0 z"
       style="fill:none;stroke:#ff0000;stroke-width:0.0352778;stroke-dasharray:none;stroke-opacity:1"
       id="path49-8" />
    <path
       d="m 25.392851,98.444238 a 1.6000002,1.6000002 0 0 0 -3.2,0 1.6000002,1.6000002 0 0 0 3.2,0 z"
       style="fill:none;stroke:#ff0000;stroke-width:0.0352778;stroke-dasharray:none;stroke-opacity:1"
       id="path64-3" />
    <path
       d="m 25.392851,32.944229 a 1.6000002,1.6000002 0 0 0 -3.2,0 1.6000002,1.6000002 0 0 0 3.2,0 z"
       style="fill:none;stroke:#ff0000;stroke-width:0.0352778;stroke-dasharray:none;stroke-opacity:1"
       id="path68" />
    <path
       d="m 16.042851,233.74423 a 1.6000002,1.6000002 0 0 0 -3.2,0 1.6000002,1.6000002 0 0 0 3.2,0 z"
       style="fill:none;stroke:#ff0000;stroke-width:0.0352778;stroke-dasharray:none;stroke-opacity:1"
       id="path78" />
    <path
       id="path79"
       style="fill:none;stroke:#ff0000;stroke-width:0.0352778;stroke-dasharray:none;stroke-opacity:1"
       d="m 70.092851,202.59422 a 2.5,2.5 0 0 0 0,-4.99999 m 0,4.99999 a 2.5,2.5 0 0 0 0,-4.99999 m -56,0 a 2.5,2.5 0 0 0 0,4.99999 m 55.99999,-5.00086 h -56.00004 m 56.00004,5.00063 h -56.00004 m 5e-5,-4.99976 a 2.5,2.5 0 0 0 0,4.99999 m 55.99999,-2.3e-4 h -56.00004 m 56.00004,-5.00063 h -56.00004" />
    <path
       id="path82"
       style="fill:none;stroke:#ff0000;stroke-width:0.0352778;stroke-dasharray:none;stroke-opacity:1"
       d="m 2.2928511,238.64423 a 0.75000008,0.75000008 0 0 0 0.75,0.75002 m 0,-237.6000197 a 0.75000008,0.75000008 0 0 0 -0.75,0.750002 m 79.0999999,0 a 0.75000008,0.75000008 0 0 0 -0.75,-0.750002 m 0,237.6000197 a 0.75000008,0.75000008 0 0 0 0.75,-0.75002 m -0.75,-236.8499487 H 3.0427411 m -0.74982,0.749829 V 238.64346 m 0.74982,0.75142 H 80.642851 m 0.75,-0.75142 V 2.5441103" />
    <path
       d="m 25.392851,159.94424 a 1.6000002,1.6000002 0 0 0 -3.2,0 1.6000002,1.6000002 0 0 0 3.2,0 z"
       style="fill:none;stroke:#ff0000;stroke-width:0.0352778;stroke-dasharray:none;stroke-opacity:1"
       id="path84" />
    <path
       id="path89"
       style="fill:none;stroke:#ff0000;stroke-width:0.0352778;stroke-dasharray:none;stroke-opacity:1"
       d="m 70.092841,217.59321 h -56.00004 m 56.00004,-4.99797 h -56.00004 m 56.00005,4.99901 a 2.50001,2.50001 0 0 0 0,-5.00002 m -56,0 a 2.50001,2.50001 0 0 0 0,5.00002 m 55.99999,-4.99901 h -56.00004 m 56.00005,4.99901 a 2.50001,2.50001 0 0 0 0,-5.00002 m -56,0 a 2.50001,2.50001 0 0 0 0,5.00002 m 55.99999,-10e-4 h -56.00004" />
    <path
       id="path90"
       style="fill:none;stroke:#ff0000;stroke-width:0.0352778;stroke-dasharray:none;stroke-opacity:1"
       d="m 70.092841,187.59476 h -56.00004 m 56.00004,-5.00063 h -56.00004 m 56.00005,5.0001 a 2.5,2.5 0 0 0 0,-4.99999 m -56,0 a 2.5,2.5 0 0 0 0,4.99999 m 56,0 a 2.5,2.5 0 0 0 0,-4.99999 m -10e-6,-1.1e-4 h -56.00004 m 56.00004,5.00063 h -56.00004 m 5e-5,-5.00052 a 2.5,2.5 0 0 0 0,4.99999" />
    <path
       id="path92"
       style="fill:none;stroke:#ff0000;stroke-width:0.0352778;stroke-dasharray:none;stroke-opacity:1"
       d="m 70.092841,190.09507 h -56.00004 m 56.00004,4.99798 h -56.00004 m 56.00005,0.001 a 2.5,2.5 0 0 0 0,-4.99999 m -56,0 a 2.5,2.5 0 0 0 0,4.99999 m 55.99999,-0.001 h -56.00004 m 56.00004,-4.99798 h -56.00004 m 5e-5,-8.2e-4 a 2.5,2.5 0 0 0 0,4.99999 m 56,0 a 2.5,2.5 0 0 0 0,-4.99999" />
    <path
       id="path94"
       style="fill:none;stroke:#ff0000;stroke-width:0.0352778;stroke-dasharray:none;stroke-opacity:1"
       d="m 70.092841,210.09492 h -56.00004 m 56.00004,-5.00062 h -56.00004 m 56.00005,4.99993 a 2.5,2.5 0 0 0 0,-4.99999 m -56,0 a 2.5,2.5 0 0 0 0,4.99999 m 0,-4.99999 a 2.5,2.5 0 0 0 0,4.99999 m 56,0 a 2.5,2.5 0 0 0 0,-4.99999 m -10e-6,6e-5 h -56.00004 m 56.00004,5.00062 h -56.00004" />
    <path
       d="m 88.164771,156.50052 a 1.6000002,1.6000002 0 0 0 -3.2,0 1.6000002,1.6000002 0 0 0 3.2,0 z"
       style="fill:none;stroke:#ff0000;stroke-width:0.0352778;stroke-dasharray:none;stroke-opacity:1"
       id="path53-5" />
    <path
       d="m 88.164771,86.200504 a 1.6000002,1.6000002 0 0 0 -3.2,0 1.6000002,1.6000002 0 0 0 3.2,0 z"
       style="fill:none;stroke:#ff0000;stroke-width:0.0352778;stroke-dasharray:none;stroke-opacity:1"
       id="path55-9" />
    <path
       d="m 314.46477,86.200504 a 1.6000002,1.6000002 0 0 0 -3.2,0 1.6000002,1.6000002 0 0 0 3.2,0 z"
       style="fill:none;stroke:#ff0000;stroke-width:0.0352778;stroke-dasharray:none;stroke-opacity:1"
       id="path94-2" />
    <path
       d="m 314.46477,156.50052 a 1.6000002,1.6000002 0 0 0 -3.2,0 1.6000002,1.6000002 0 0 0 3.2,0 z"
       style="fill:none;stroke:#ff0000;stroke-width:0.0352778;stroke-dasharray:none;stroke-opacity:1"
       id="path100" />
    <path
       d="m 108.31477,141.85052 a 3.1,3.1 0 0 0 -6.2,0 3.1,3.1 0 0 0 6.2,0 z"
       style="fill:none;stroke:#ff0000;stroke-width:0.0352778;stroke-dasharray:none;stroke-opacity:1"
       id="path105" />
    <path
       d="m 118.31477,141.85052 a 3.1,3.1 0 0 0 -6.2,0 3.1,3.1 0 0 0 6.2,0 z"
       style="fill:none;stroke:#ff0000;stroke-width:0.0352778;stroke-dasharray:none;stroke-opacity:1"
       id="path145" />
    <path
       id="path186"
       style="fill:none;stroke:#ff0000;stroke-width:0.0352778;stroke-dasharray:none;stroke-opacity:1"
       d="m 317.01477,82.800505 a 0.75000008,0.75000008 0 0 0 -0.75,-0.750001 m 0,78.600006 a 0.75000008,0.75000008 0 0 0 0.75,-0.74999 m -234.599999,0 a 0.75000008,0.75000008 0 0 0 0.75,0.74999 M 317.01488,82.800532 V 159.90039 M 83.164761,160.65181 H 316.26479 M 82.414661,82.800532 v 77.099858 m 0.75011,-77.849886 a 0.75000008,0.75000008 0 0 0 -0.75,0.750001 m 0.74999,-0.750067 H 316.26479" />
    <path
       id="path216"
       style="fill:none;stroke:#ff0000;stroke-width:0.0352778;stroke-dasharray:none;stroke-opacity:1"
       d="m 177.46477,115.30138 a 5.9999998,5.9999998 0 0 0 3.20787,5.31074 m 0,0 a 15.132812,15.132812 0 0 0 14.08426,0 m 0,0 a 5.9999998,5.9999998 0 0 0 3.20787,-5.31074 m 0,8.4e-4 V 99.400768 m -3.20787,-5.31187 a 15.132812,15.132812 0 0 0 -14.08426,0 m 17.29213,5.31076 a 5.9999998,5.9999998 0 0 0 -3.20787,-5.31076 m -14.08426,26.523222 a 15.132812,15.132812 0 0 0 14.08426,0 m -17.29213,-5.31074 a 5.9999998,5.9999998 0 0 0 3.20787,5.31074 M 194.7569,94.088898 a 15.132812,15.132812 0 0 0 -14.08426,0 m 14.08426,26.523222 a 5.9999998,5.9999998 0 0 0 3.20787,-5.31074 m 0,-15.901722 a 5.9999998,5.9999998 0 0 0 -3.20787,-5.31076 m -17.29213,5.31187 v 15.901452 m 3.20787,-21.213322 a 5.9999998,5.9999998 0 0 0 -3.20787,5.31076 m 3.20787,-5.31076 a 5.9999998,5.9999998 0 0 0 -3.20787,5.31076 m 0,0.001 v 15.901452 m 20.5,0 V 99.400668" />
    <path
       id="path217"
       style="fill:none;stroke:#ff0000;stroke-width:0.0352778;stroke-dasharray:none;stroke-opacity:1"
       d="m 201.46477,115.30138 a 5.9999998,5.9999998 0 0 0 3.20787,5.31074 m 0,0 a 15.132812,15.132812 0 0 0 14.08426,0 m 0,0 a 5.9999998,5.9999998 0 0 0 3.20787,-5.31074 m 0,8.4e-4 V 99.400768 m -3.20787,-5.31187 a 15.132812,15.132812 0 0 0 -14.08426,0 m 17.29213,5.31076 a 5.9999998,5.9999998 0 0 0 -3.20787,-5.31076 m -14.08426,26.523222 a 15.132812,15.132812 0 0 0 14.08426,0 m -17.29213,-5.31074 a 5.9999998,5.9999998 0 0 0 3.20787,5.31074 M 218.7569,94.088898 a 15.132812,15.132812 0 0 0 -14.08426,0 m 17.29213,5.31076 a 5.9999998,5.9999998 0 0 0 -3.20787,-5.31076 m 0,26.523222 a 5.9999998,5.9999998 0 0 0 3.20787,-5.31074 m -20.5,-15.900612 v 15.901452 m 3.20787,-21.213322 a 5.9999998,5.9999998 0 0 0 -3.20787,5.31076 m 3.20787,-5.31076 a 5.9999998,5.9999998 0 0 0 -3.20787,5.31076 m 0,0.001 v 15.901452 m 20.5,0 V 99.400668" />
    <path
       id="path218"
       style="fill:none;stroke:#ff0000;stroke-width:0.0352778;stroke-dasharray:none;stroke-opacity:1"
       d="m 225.46477,115.30138 a 5.9999998,5.9999998 0 0 0 3.20787,5.31074 m 0,0 a 15.132812,15.132812 0 0 0 14.08426,0 m 0,0 a 5.9999998,5.9999998 0 0 0 3.20787,-5.31074 m -4e-5,8.4e-4 V 99.400768 m -3.20783,-5.31187 a 15.132812,15.132812 0 0 0 -14.08426,0 m 17.29213,5.31076 a 5.9999998,5.9999998 0 0 0 -3.20787,-5.31076 m 3.20787,5.31076 a 5.9999998,5.9999998 0 0 0 -3.20787,-5.31076 m -14.08426,26.523222 a 15.132812,15.132812 0 0 0 14.08426,0 m -17.29213,-5.31074 a 5.9999998,5.9999998 0 0 0 3.20787,5.31074 M 242.7569,94.088898 a 15.132812,15.132812 0 0 0 -14.08426,0 m 14.08426,26.523222 a 5.9999998,5.9999998 0 0 0 3.20787,-5.31074 M 225.46476,99.400768 v 15.901452 m 3.20788,-21.213322 a 5.9999998,5.9999998 0 0 0 -3.20787,5.31076 m 3.20787,-5.31076 a 5.9999998,5.9999998 0 0 0 -3.20787,5.31076 m -10e-6,0.001 v 15.901452 m 20.49997,0 V 99.400668" />
    <path
       id="path219"
       style="fill:none;stroke:#ff0000;stroke-width:0.0352778;stroke-dasharray:none;stroke-opacity:1"
       d="m 249.46477,115.30138 a 5.9999998,5.9999998 0 0 0 3.20787,5.31074 m 0,0 a 15.132812,15.132812 0 0 0 14.08426,0 M 252.67264,94.088898 a 5.9999998,5.9999998 0 0 0 -3.20787,5.31076 m 17.29213,21.212462 a 5.9999998,5.9999998 0 0 0 3.20787,-5.31074 m 5e-5,8.4e-4 V 99.400768 m -3.20792,-5.31187 a 15.132812,15.132812 0 0 0 -14.08426,0 m 17.29213,5.31076 a 5.9999998,5.9999998 0 0 0 -3.20787,-5.31076 m 3.20787,5.31076 a 5.9999998,5.9999998 0 0 0 -3.20787,-5.31076 m -14.08426,26.523222 a 15.132812,15.132812 0 0 0 14.08426,0 m -17.29213,-5.31074 a 5.9999998,5.9999998 0 0 0 3.20787,5.31074 M 266.7569,94.088898 a 15.132812,15.132812 0 0 0 -14.08426,0 m 14.08426,26.523222 a 5.9999998,5.9999998 0 0 0 3.20787,-5.31074 M 249.46464,99.400768 v 15.901452 m 3.208,-21.213322 a 5.9999998,5.9999998 0 0 0 -3.20787,5.31076 m -1.3e-4,0.001 v 15.901452 m 20.50018,0 V 99.400668" />
    <path
       id="path220"
       style="fill:none;stroke:#ff0000;stroke-width:0.0352778;stroke-dasharray:none;stroke-opacity:1"
       d="m 273.46477,115.30138 a 5.9999998,5.9999998 0 0 0 3.20787,5.31074 m 0,0 a 15.132812,15.132812 0 0 0 14.08426,0 m 0,0 a 5.9999998,5.9999998 0 0 0 3.20787,-5.31074 m -1.3e-4,8.4e-4 V 99.400768 m -3.20774,-5.31187 a 15.132812,15.132812 0 0 0 -14.08426,0 m 17.29213,5.31076 a 5.9999998,5.9999998 0 0 0 -3.20787,-5.31076 m 3.20787,5.31076 a 5.9999998,5.9999998 0 0 0 -3.20787,-5.31076 m -14.08426,26.523222 a 15.132812,15.132812 0 0 0 14.08426,0 m -17.29213,-5.31074 a 5.9999998,5.9999998 0 0 0 3.20787,5.31074 M 290.7569,94.088898 a 15.132812,15.132812 0 0 0 -14.08426,0 m 14.08426,26.523222 a 5.9999998,5.9999998 0 0 0 3.20787,-5.31074 M 273.46473,99.400768 v 15.901452 m 3.20791,-21.213322 a 5.9999998,5.9999998 0 0 0 -3.20787,5.31076 m 3.20787,-5.31076 a 5.9999998,5.9999998 0 0 0 -3.20787,5.31076 m -4e-5,0.001 v 15.901452 m 20.49991,0 V 99.400668" />
    <path
       id="path221"
       style="fill:none;stroke:#ff0000;stroke-width:0.0352778;stroke-dasharray:none;stroke-opacity:1"
       d="m 140.53977,148.87552 a 0.69999991,0.69999991 0 0 0 0.7,-0.70001 m 0,-12.64999 a 0.69999991,0.69999991 0 0 0 -0.7,-0.70001 m 0.69997,0.69882 v 12.65237 m -14.04991,-12.65237 v 12.65237 m 14.04991,-12.65237 v 12.65237 m -13.35008,-13.35087 h 12.64999 m -12.64999,14.04937 h 12.64999 m -13.34988,-0.69969 a 0.69999991,0.69999991 0 0 0 0.7,0.70001 m 0,-14.05001 a 0.69999991,0.69999991 0 0 0 -0.7,0.70001 m 14.05,0 a 0.69999991,0.69999991 0 0 0 -0.7,-0.70001 m 0,14.05001 a 0.69999991,0.69999991 0 0 0 0.7,-0.70001 m -13.35,-13.35 a 0.69999991,0.69999991 0 0 0 -0.7,0.70001 m 0.69989,-0.69969 h 12.64999 m -13.34988,13.34968 a 0.69999991,0.69999991 0 0 0 0.7,0.70001 m -0.69994,-13.35119 v 12.65237 m 0.69983,0.6985 h 12.64999" />
    <path
       id="path225"
       style="fill:none;stroke:#ff0000;stroke-width:0.0352778;stroke-dasharray:none;stroke-opacity:1"
       d="m 165.98966,148.8752 h 12.65012 m -1e-5,3.2e-4 a 0.69999991,0.69999991 0 0 0 0.7,-0.70001 m -10e-6,-12.65118 v 12.65237 m 10e-6,-12.65118 a 0.69999991,0.69999991 0 0 0 -0.7,-0.70001 m -13.34994,0.69882 v 12.65237 m 0.69983,0.6985 h 12.65012 m -12.65012,-14.04937 h 12.65012 m -13.35001,13.34968 a 0.69999991,0.69999991 0 0 0 0.7,0.70001 m 12.65,0 a 0.69999991,0.69999991 0 0 0 0.7,-0.70001 m -14.05,0 a 0.69999991,0.69999991 0 0 0 0.7,0.70001 m 13.34999,-13.35119 v 12.65237 m 10e-6,-12.65118 a 0.69999991,0.69999991 0 0 0 -0.7,-0.70001 m -13.34994,0.69882 v 12.65237 m 0.69994,-13.35119 a 0.69999991,0.69999991 0 0 0 -0.7,0.70001 m 0.69989,-0.69969 h 12.65012 m -12.65001,-3.2e-4 a 0.69999991,0.69999991 0 0 0 -0.7,0.70001" />
    <path
       id="path226"
       style="fill:none;stroke:#ff0000;stroke-width:0.0352778;stroke-dasharray:none;stroke-opacity:1"
       d="m 122.7569,94.088898 a 15.132812,15.132812 0 0 0 -14.08426,0 m -3.20787,21.212482 a 5.9999998,5.9999998 0 0 0 3.20787,5.31074 m 0,-26.523222 a 5.9999998,5.9999998 0 0 0 -3.20787,5.31076 m 20.5,0 a 5.9999998,5.9999998 0 0 0 -3.20787,-5.31076 m -14.08426,26.523222 a 15.132812,15.132812 0 0 0 14.08426,0 m 0,0 a 5.9999998,5.9999998 0 0 0 3.20787,-5.31074 M 122.7569,94.088898 a 15.132812,15.132812 0 0 0 -14.08426,0 m -3.20787,21.212482 a 5.9999998,5.9999998 0 0 0 3.20787,5.31074 m 14.08426,0 a 5.9999998,5.9999998 0 0 0 3.20787,-5.31074 m -17.29213,5.31074 a 15.132812,15.132812 0 0 0 14.08426,0 M 108.67264,94.088898 a 5.9999998,5.9999998 0 0 0 -3.20787,5.31076 m 1.3e-4,0.001 v 15.901452 m 20.49991,0 V 99.400668 m 0,15.901452 V 99.400668 m -20.49991,0 v 15.901452 m 20.49987,-15.902562 a 5.9999998,5.9999998 0 0 0 -3.20787,-5.31076" />
    <path
       id="path227"
       style="fill:none;stroke:#ff0000;stroke-width:0.0352778;stroke-dasharray:none;stroke-opacity:1"
       d="m 146.7569,94.088898 a 15.132812,15.132812 0 0 0 -14.08426,0 m -3.20787,21.212482 a 5.9999998,5.9999998 0 0 0 3.20787,5.31074 m 0,0 a 15.132812,15.132812 0 0 0 14.08426,0 m 0,0 a 5.9999998,5.9999998 0 0 0 3.20787,-5.31074 m 1.3e-4,8.4e-4 V 99.400768 m -1.3e-4,-0.001 a 5.9999998,5.9999998 0 0 0 -3.20787,-5.31076 m -14.08426,26.523222 a 15.132812,15.132812 0 0 0 14.08426,0 m -17.29213,-5.31074 a 5.9999998,5.9999998 0 0 0 3.20787,5.31074 M 146.7569,94.089008 a 15.132812,15.132812 0 0 0 -14.08426,0 m 17.29213,5.31076 a 5.9999998,5.9999998 0 0 0 -3.20787,-5.31076 m 0,26.523222 a 5.9999998,5.9999998 0 0 0 3.20787,-5.31074 M 129.46472,99.400868 v 15.901452 m 3.20792,-21.213322 a 5.9999998,5.9999998 0 0 0 -3.20787,5.31076 m 3.20787,-5.31076 a 5.9999998,5.9999998 0 0 0 -3.20787,5.31076 m -5e-5,10e-4 v 15.901452 m 20.50018,0 V 99.400768" />
    <path
       id="path228"
       style="fill:none;stroke:#ff0000;stroke-width:0.0352778;stroke-dasharray:none;stroke-opacity:1"
       d="m 146.23983,135.52433 v 12.65237 m 0.69983,0.6985 h 12.64999 m 1.2e-4,3.2e-4 a 0.69999991,0.69999991 0 0 0 0.7,-0.70001 m -3e-5,-12.65118 v 12.65237 m 3e-5,-12.65118 a 0.69999991,0.69999991 0 0 0 -0.7,-0.70001 m -13.34994,0.69882 v 12.65237 m 14.04991,-12.65237 v 12.65237 m -13.35008,0.6985 h 12.64999 m -12.64999,-14.04937 h 12.64999 m -13.34988,13.34968 a 0.69999991,0.69999991 0 0 0 0.7,0.70001 m 12.65,0 a 0.69999991,0.69999991 0 0 0 0.7,-0.70001 m -14.05,0 a 0.69999991,0.69999991 0 0 0 0.7,0.70001 m 13.35,-13.35 a 0.69999991,0.69999991 0 0 0 -0.7,-0.70001 m -12.65,0 a 0.69999991,0.69999991 0 0 0 -0.7,0.70001 m 0.69989,-0.69969 h 12.64999 m -12.64988,-3.2e-4 a 0.69999991,0.69999991 0 0 0 -0.7,0.70001" />
    <path
       id="path229"
       style="fill:none;stroke:#ff0000;stroke-width:0.0352778;stroke-dasharray:none;stroke-opacity:1"
       d="m 170.7569,94.088898 a 15.132812,15.132812 0 0 0 -14.08426,0 m -3.20787,21.212482 a 5.9999998,5.9999998 0 0 0 3.20787,5.31074 m 0,0 a 15.132812,15.132812 0 0 0 14.08426,0 m 0,0 a 5.9999998,5.9999998 0 0 0 3.20787,-5.31074 m 1e-5,8.4e-4 V 99.400768 m -1e-5,-0.001 a 5.9999998,5.9999998 0 0 0 -3.20787,-5.31076 m -14.08426,26.523222 a 15.132812,15.132812 0 0 0 14.08426,0 m -17.29213,-5.31074 a 5.9999998,5.9999998 0 0 0 3.20787,5.31074 M 170.7569,94.089008 a 15.132812,15.132812 0 0 0 -14.08426,0 m 17.29213,5.31076 a 5.9999998,5.9999998 0 0 0 -3.20787,-5.31076 m 0,26.523222 a 5.9999998,5.9999998 0 0 0 3.20787,-5.31074 M 153.46481,99.400868 v 15.901452 m 3.20783,-21.213322 a 5.9999998,5.9999998 0 0 0 -3.20787,5.31076 m 3.20787,-5.31076 a 5.9999998,5.9999998 0 0 0 -3.20787,5.31076 m 4e-5,10e-4 v 15.901452 m 20.49997,0 V 99.400768" />
    <path
       d="m 170.29724,172.58192 a 1.6,1.6 0 0 0 -3.2,0 1.6,1.6 0 0 0 3.2,0 z"
       style="fill:none;stroke:#ff0000;stroke-width:0.0352778;stroke-dasharray:none;stroke-opacity:1"
       id="path35-0" />
    <path
       d="m 237.59724,172.58192 a 1.6,1.6 0 0 0 -3.2,0 1.6,1.6 0 0 0 3.2,0 z"
       style="fill:none;stroke:#ff0000;stroke-width:0.0352778;stroke-dasharray:none;stroke-opacity:1"
       id="path36-6" />
    <path
       d="m 237.59724,229.48191 a 1.6,1.6 0 0 0 -3.2,0 1.6,1.6 0 0 0 3.2,0 z"
       style="fill:none;stroke:#ff0000;stroke-width:0.0352778;stroke-dasharray:none;stroke-opacity:1"
       id="path38-9" />
    <path
       d="m 170.29724,229.48191 a 1.6,1.6 0 0 0 -3.2,0 1.6,1.6 0 0 0 3.2,0 z"
       style="fill:none;stroke:#ff0000;stroke-width:0.0352778;stroke-dasharray:none;stroke-opacity:1"
       id="path40-09" />
    <path
       id="path48-7"
       style="fill:none;stroke:#ff0000;stroke-width:0.0352778;stroke-dasharray:none;stroke-opacity:1"
       d="m 163.29724,161.73193 a 0.75000008,0.75000008 0 0 0 -0.75,0.75 m 78.35,-0.75007 h -77.60011 m -0.74982,0.75009 v 77.09985 m 78.34993,0.75012 a 0.75000008,0.75000008 0 0 0 0.75,-0.74999 m 0,-77.09998 v 77.09985 m -0.75,0.75142 h -77.60011 m 78.35011,-77.85129 a 0.75000008,0.75000008 0 0 0 -0.75,-0.75 m -78.35,77.85 a 0.75000008,0.75000008 0 0 0 0.75,0.74999" />
    <path
       d="m 90.164661,172.58192 a 1.6,1.6 0 0 0 -3.2,0 1.6,1.6 0 0 0 3.2,0 z"
       style="fill:none;stroke:#ff0000;stroke-width:0.0352778;stroke-dasharray:none;stroke-opacity:1"
       id="path35-0-5" />
    <path
       d="m 157.46466,172.58192 a 1.6,1.6 0 0 0 -3.2,0 1.6,1.6 0 0 0 3.2,0 z"
       style="fill:none;stroke:#ff0000;stroke-width:0.0352778;stroke-dasharray:none;stroke-opacity:1"
       id="path36-6-6" />
    <path
       d="m 157.46466,229.48191 a 1.6,1.6 0 0 0 -3.2,0 1.6,1.6 0 0 0 3.2,0 z"
       style="fill:none;stroke:#ff0000;stroke-width:0.0352778;stroke-dasharray:none;stroke-opacity:1"
       id="path38-9-9" />
    <path
       d="m 90.164661,229.48191 a 1.6,1.6 0 0 0 -3.2,0 1.6,1.6 0 0 0 3.2,0 z"
       style="fill:none;stroke:#ff0000;stroke-width:0.0352778;stroke-dasharray:none;stroke-opacity:1"
       id="path40-09-8" />
    <path
       id="path48-7-8"
       style="fill:none;stroke:#ff0000;stroke-width:0.0352778;stroke-dasharray:none;stroke-opacity:1"
       d="m 83.164661,161.73193 a 0.75000008,0.75000008 0 0 0 -0.75,0.75 m 78.349999,-0.75007 H 83.164551 m -0.74982,0.75009 v 77.09985 m 78.349929,0.75012 a 0.75000008,0.75000008 0 0 0 0.75,-0.74999 m 0,-77.09998 v 77.09985 m -0.75,0.75142 H 83.164551 m 78.350109,-77.85129 a 0.75000008,0.75000008 0 0 0 -0.75,-0.75 m -78.349999,77.85 a 0.75000008,0.75000008 0 0 0 0.75,0.74999" />
    <path
       d="m 88.065311,70.84423 a 1.6,1.6 0 0 0 0,-3.2 1.6,1.6 0 0 0 0,3.2 z"
       style="fill:none;stroke:#ff0000;stroke-width:0.0352778;stroke-dasharray:none;stroke-opacity:1"
       id="path34-38" />
    <path
       d="m 314.3653,15.54423 a 1.6000002,1.6000002 0 0 0 0,-3.2 1.6000002,1.6000002 0 0 0 0,3.2 z"
       style="fill:none;stroke:#ff0000;stroke-width:0.0352778;stroke-dasharray:none;stroke-opacity:1"
       id="path35-5" />
    <path
       d="m 88.065311,15.54423 a 1.6000002,1.6000002 0 0 0 0,-3.2 1.6000002,1.6000002 0 0 0 0,3.2 z"
       style="fill:none;stroke:#ff0000;stroke-width:0.0352778;stroke-dasharray:none;stroke-opacity:1"
       id="path36-61" />
    <path
       d="m 314.3653,70.84423 a 1.6,1.6 0 0 0 0,-3.2 1.6,1.6 0 0 0 0,3.2 z"
       style="fill:none;stroke:#ff0000;stroke-width:0.0352778;stroke-dasharray:none;stroke-opacity:1"
       id="path46-4" />
    <path
       id="path49-3"
       style="fill:none;stroke:#ff0000;stroke-width:0.0352778;stroke-dasharray:none;stroke-opacity:1"
       d="m 320.0153,2.5442303 a 0.75000008,0.75000008 0 0 0 -0.75,-0.75 m -236.099989,0 a 0.75000008,0.75000008 0 0 0 -0.75002,0.75 M 82.414661,80.14423 V 2.5441203 m 6.3e-4,77.6001097 a 0.75000008,0.75000008 0 0 0 0.75002,0.75 m 236.100109,0 H 83.166081 M 319.26542,1.7943003 H 83.166081 M 320.01525,80.14423 V 2.5441203 M 319.2653,80.89423 a 0.75000008,0.75000008 0 0 0 0.75,-0.75" />
  </g>
</svg>
