%TF.GenerationSoftware,KiCad,Pcbnew,8.0.3*%
%TF.CreationDate,2024-06-16T18:08:45+12:00*%
%TF.ProjectId,power_supply,706f7765-725f-4737-9570-706c792e6b69,0.1.1*%
%TF.SameCoordinates,Original*%
%TF.FileFunction,Copper,L2,Bot*%
%TF.FilePolarity,Positive*%
%FSLAX46Y46*%
G04 Gerber Fmt 4.6, Leading zero omitted, Abs format (unit mm)*
G04 Created by KiCad (PCBNEW 8.0.3) date 2024-06-16 18:08:45*
%MOMM*%
%LPD*%
G01*
G04 APERTURE LIST*
G04 Aperture macros list*
%AMRoundRect*
0 Rectangle with rounded corners*
0 $1 Rounding radius*
0 $2 $3 $4 $5 $6 $7 $8 $9 X,Y pos of 4 corners*
0 Add a 4 corners polygon primitive as box body*
4,1,4,$2,$3,$4,$5,$6,$7,$8,$9,$2,$3,0*
0 Add four circle primitives for the rounded corners*
1,1,$1+$1,$2,$3*
1,1,$1+$1,$4,$5*
1,1,$1+$1,$6,$7*
1,1,$1+$1,$8,$9*
0 Add four rect primitives between the rounded corners*
20,1,$1+$1,$2,$3,$4,$5,0*
20,1,$1+$1,$4,$5,$6,$7,0*
20,1,$1+$1,$6,$7,$8,$9,0*
20,1,$1+$1,$8,$9,$2,$3,0*%
G04 Aperture macros list end*
%TA.AperFunction,NonConductor*%
%ADD10C,0.200000*%
%TD*%
%TA.AperFunction,ComponentPad*%
%ADD11R,1.905000X2.000000*%
%TD*%
%TA.AperFunction,ComponentPad*%
%ADD12O,1.905000X2.000000*%
%TD*%
%TA.AperFunction,ComponentPad*%
%ADD13RoundRect,0.250000X-0.600000X-0.600000X0.600000X-0.600000X0.600000X0.600000X-0.600000X0.600000X0*%
%TD*%
%TA.AperFunction,ComponentPad*%
%ADD14C,1.700000*%
%TD*%
%TA.AperFunction,ComponentPad*%
%ADD15RoundRect,0.250000X0.600000X-0.600000X0.600000X0.600000X-0.600000X0.600000X-0.600000X-0.600000X0*%
%TD*%
%TA.AperFunction,ComponentPad*%
%ADD16R,1.600000X1.600000*%
%TD*%
%TA.AperFunction,ComponentPad*%
%ADD17C,1.600000*%
%TD*%
%TA.AperFunction,ComponentPad*%
%ADD18C,1.440000*%
%TD*%
%TA.AperFunction,ViaPad*%
%ADD19C,1.600000*%
%TD*%
%TA.AperFunction,ViaPad*%
%ADD20C,0.600000*%
%TD*%
%TA.AperFunction,ViaPad*%
%ADD21C,1.000000*%
%TD*%
%TA.AperFunction,Conductor*%
%ADD22C,0.130000*%
%TD*%
G04 APERTURE END LIST*
D10*
X136000000Y-75990000D02*
X148520000Y-75990000D01*
X148520000Y-88470000D01*
X136000000Y-88470000D01*
X136000000Y-75990000D01*
D11*
%TO.P,Q1,1,G*%
%TO.N,/GATE_DRIVE*%
X152385000Y-88045000D03*
D12*
%TO.P,Q1,2,D*%
%TO.N,/DRAIN*%
X154925000Y-88045000D03*
%TO.P,Q1,3,S*%
%TO.N,/CURRENT_SENSE*%
X157465000Y-88045000D03*
%TD*%
D13*
%TO.P,J2,1,Pin_1*%
%TO.N,GND*%
X123707500Y-80420000D03*
D14*
%TO.P,J2,2,Pin_2*%
X126247500Y-80420000D03*
%TO.P,J2,3,Pin_3*%
X123707500Y-82960000D03*
%TO.P,J2,4,Pin_4*%
%TO.N,LATCH*%
X126247500Y-82960000D03*
%TO.P,J2,5,Pin_5*%
%TO.N,CLK*%
X123707500Y-85500000D03*
%TO.P,J2,6,Pin_6*%
%TO.N,OE*%
X126247500Y-85500000D03*
%TO.P,J2,7,Pin_7*%
%TO.N,SER*%
X123707500Y-88040000D03*
%TO.P,J2,8,Pin_8*%
%TO.N,+3V3*%
X126247500Y-88040000D03*
%TO.P,J2,9,Pin_9*%
%TO.N,VBUS*%
X123707500Y-90580000D03*
%TO.P,J2,10,Pin_10*%
X126247500Y-90580000D03*
%TD*%
D15*
%TO.P,J3,1,Pin_1*%
%TO.N,GND*%
X173920000Y-87100000D03*
D14*
%TO.P,J3,2,Pin_2*%
X173920000Y-84560000D03*
%TO.P,J3,3,Pin_3*%
X176460000Y-87100000D03*
%TO.P,J3,4,Pin_4*%
%TO.N,+3V3*%
X176460000Y-84560000D03*
%TO.P,J3,5,Pin_5*%
%TO.N,170V*%
X179000000Y-87100000D03*
%TO.P,J3,6,Pin_6*%
%TO.N,SER*%
X179000000Y-84560000D03*
%TO.P,J3,7,Pin_7*%
%TO.N,170V*%
X181540000Y-87100000D03*
%TO.P,J3,8,Pin_8*%
%TO.N,OE*%
X181540000Y-84560000D03*
%TO.P,J3,9,Pin_9*%
%TO.N,CLK*%
X184080000Y-87100000D03*
%TO.P,J3,10,Pin_10*%
%TO.N,LATCH*%
X184080000Y-84560000D03*
%TD*%
D16*
%TO.P,C4,1*%
%TO.N,170V*%
X161600000Y-77892651D03*
D17*
%TO.P,C4,2*%
%TO.N,GND*%
X161600000Y-74392651D03*
%TD*%
D18*
%TO.P,RV1,1,1*%
%TO.N,FB*%
X163875000Y-91565000D03*
%TO.P,RV1,2,2*%
%TO.N,/FB_PD*%
X166415000Y-94105000D03*
%TO.P,RV1,3,3*%
X163875000Y-96645000D03*
%TD*%
D19*
%TO.N,GND*%
X144500000Y-93390000D03*
D20*
X160300000Y-92640000D03*
D21*
X150800000Y-95340000D03*
D20*
X160300000Y-94740000D03*
D21*
X152300000Y-95340000D03*
D20*
X159500000Y-92640000D03*
D21*
X160100000Y-95740000D03*
D20*
X159500000Y-94740000D03*
D21*
X153000000Y-73640000D03*
X153000000Y-74740000D03*
D19*
X158000000Y-74090000D03*
X156250000Y-74090000D03*
X159750000Y-74090000D03*
X154500000Y-74040000D03*
D20*
X168500000Y-91640000D03*
%TO.N,SER*%
X179000000Y-90640000D03*
%TO.N,OE*%
X181600000Y-90740000D03*
X131064000Y-91821000D03*
X128778000Y-86995000D03*
X131064000Y-100203000D03*
X131064000Y-98425000D03*
X131064000Y-89281000D03*
%TD*%
D22*
%TO.N,SER*%
X177700000Y-89340000D02*
X177700000Y-85860000D01*
X179000000Y-90640000D02*
X177700000Y-89340000D01*
X177700000Y-85860000D02*
X179000000Y-84560000D01*
%TO.N,OE*%
X182800000Y-85820000D02*
X181540000Y-84560000D01*
X131064000Y-100203000D02*
X131064000Y-98425000D01*
X182800000Y-89540000D02*
X182800000Y-85820000D01*
X127283000Y-85500000D02*
X126247500Y-85500000D01*
X128778000Y-86995000D02*
X127283000Y-85500000D01*
X131064000Y-91821000D02*
X131064000Y-89281000D01*
X181600000Y-90740000D02*
X182800000Y-89540000D01*
%TD*%
%TA.AperFunction,Conductor*%
%TO.N,GND*%
G36*
X186003032Y-66500648D02*
G01*
X186336929Y-66517052D01*
X186349037Y-66518245D01*
X186452146Y-66533539D01*
X186676699Y-66566849D01*
X186688617Y-66569219D01*
X187009951Y-66649709D01*
X187021588Y-66653240D01*
X187092806Y-66678722D01*
X187333467Y-66764832D01*
X187344688Y-66769479D01*
X187644163Y-66911120D01*
X187654871Y-66916844D01*
X187938988Y-67087137D01*
X187949106Y-67093897D01*
X188215170Y-67291224D01*
X188224576Y-67298944D01*
X188470013Y-67521395D01*
X188478604Y-67529986D01*
X188665755Y-67736475D01*
X188701055Y-67775423D01*
X188708775Y-67784829D01*
X188906102Y-68050893D01*
X188912862Y-68061011D01*
X189041776Y-68276092D01*
X189083148Y-68345116D01*
X189088883Y-68355844D01*
X189205651Y-68602730D01*
X189230514Y-68655297D01*
X189235170Y-68666540D01*
X189346759Y-68978411D01*
X189350292Y-68990055D01*
X189430777Y-69311369D01*
X189433151Y-69323305D01*
X189481754Y-69650962D01*
X189482947Y-69663071D01*
X189499351Y-69996966D01*
X189499500Y-70003051D01*
X189499500Y-100996948D01*
X189499351Y-101003033D01*
X189482947Y-101336928D01*
X189481754Y-101349037D01*
X189433151Y-101676694D01*
X189430777Y-101688630D01*
X189350292Y-102009944D01*
X189346759Y-102021588D01*
X189235170Y-102333459D01*
X189230514Y-102344702D01*
X189088885Y-102644151D01*
X189083148Y-102654883D01*
X188912862Y-102938988D01*
X188906102Y-102949106D01*
X188708775Y-103215170D01*
X188701055Y-103224576D01*
X188478611Y-103470006D01*
X188470006Y-103478611D01*
X188224576Y-103701055D01*
X188215170Y-103708775D01*
X187949106Y-103906102D01*
X187938988Y-103912862D01*
X187654883Y-104083148D01*
X187644151Y-104088885D01*
X187344702Y-104230514D01*
X187333459Y-104235170D01*
X187021588Y-104346759D01*
X187009944Y-104350292D01*
X186688630Y-104430777D01*
X186676694Y-104433151D01*
X186349037Y-104481754D01*
X186336928Y-104482947D01*
X186021989Y-104498419D01*
X186003031Y-104499351D01*
X185996949Y-104499500D01*
X120003051Y-104499500D01*
X119996968Y-104499351D01*
X119976900Y-104498365D01*
X119663071Y-104482947D01*
X119650962Y-104481754D01*
X119323305Y-104433151D01*
X119311369Y-104430777D01*
X118990055Y-104350292D01*
X118978411Y-104346759D01*
X118666540Y-104235170D01*
X118655301Y-104230515D01*
X118355844Y-104088883D01*
X118345121Y-104083150D01*
X118061011Y-103912862D01*
X118050893Y-103906102D01*
X117784829Y-103708775D01*
X117775423Y-103701055D01*
X117736475Y-103665755D01*
X117529986Y-103478604D01*
X117521395Y-103470013D01*
X117298944Y-103224576D01*
X117291224Y-103215170D01*
X117093897Y-102949106D01*
X117087137Y-102938988D01*
X116979766Y-102759850D01*
X116916844Y-102654871D01*
X116911120Y-102644163D01*
X116769479Y-102344688D01*
X116764829Y-102333459D01*
X116653240Y-102021588D01*
X116649707Y-102009944D01*
X116640958Y-101975015D01*
X116569219Y-101688617D01*
X116566848Y-101676694D01*
X116518245Y-101349037D01*
X116517052Y-101336927D01*
X116500649Y-101003032D01*
X116500500Y-100996948D01*
X116500500Y-100878456D01*
X118145500Y-100878456D01*
X118145500Y-101121543D01*
X118145501Y-101121559D01*
X118177230Y-101362569D01*
X118240149Y-101597386D01*
X118333175Y-101821972D01*
X118333182Y-101821987D01*
X118454730Y-102032516D01*
X118602722Y-102225380D01*
X118602730Y-102225389D01*
X118774611Y-102397270D01*
X118774619Y-102397277D01*
X118967483Y-102545269D01*
X119178012Y-102666817D01*
X119178027Y-102666824D01*
X119294171Y-102714932D01*
X119402612Y-102759850D01*
X119637429Y-102822769D01*
X119878450Y-102854500D01*
X119878457Y-102854500D01*
X120121543Y-102854500D01*
X120121550Y-102854500D01*
X120362571Y-102822769D01*
X120597388Y-102759850D01*
X120821984Y-102666819D01*
X121032516Y-102545269D01*
X121225380Y-102397278D01*
X121225384Y-102397273D01*
X121225389Y-102397270D01*
X121397270Y-102225389D01*
X121397273Y-102225384D01*
X121397278Y-102225380D01*
X121545269Y-102032516D01*
X121666819Y-101821984D01*
X121759850Y-101597388D01*
X121822769Y-101362571D01*
X121854500Y-101121550D01*
X121854500Y-100878450D01*
X121822769Y-100637429D01*
X121759850Y-100402612D01*
X121666819Y-100178016D01*
X121666817Y-100178012D01*
X121545269Y-99967483D01*
X121397277Y-99774619D01*
X121397270Y-99774611D01*
X121225389Y-99602730D01*
X121225380Y-99602722D01*
X121032516Y-99454730D01*
X120821987Y-99333182D01*
X120821972Y-99333175D01*
X120597386Y-99240149D01*
X120362569Y-99177230D01*
X120121559Y-99145501D01*
X120121556Y-99145500D01*
X120121550Y-99145500D01*
X119878450Y-99145500D01*
X119878444Y-99145500D01*
X119878440Y-99145501D01*
X119637430Y-99177230D01*
X119402613Y-99240149D01*
X119178027Y-99333175D01*
X119178012Y-99333182D01*
X118967483Y-99454730D01*
X118774619Y-99602722D01*
X118602722Y-99774619D01*
X118454730Y-99967483D01*
X118333182Y-100178012D01*
X118333175Y-100178027D01*
X118240149Y-100402613D01*
X118177230Y-100637430D01*
X118145501Y-100878440D01*
X118145500Y-100878456D01*
X116500500Y-100878456D01*
X116500500Y-98424996D01*
X130258435Y-98424996D01*
X130258435Y-98425003D01*
X130278630Y-98604249D01*
X130278631Y-98604254D01*
X130338211Y-98774523D01*
X130434184Y-98927262D01*
X130462181Y-98955259D01*
X130495666Y-99016582D01*
X130498500Y-99042940D01*
X130498500Y-99585060D01*
X130478815Y-99652099D01*
X130462181Y-99672741D01*
X130434184Y-99700737D01*
X130338211Y-99853476D01*
X130278631Y-100023745D01*
X130278630Y-100023750D01*
X130258435Y-100202996D01*
X130258435Y-100203003D01*
X130278630Y-100382249D01*
X130278631Y-100382254D01*
X130338211Y-100552523D01*
X130391562Y-100637430D01*
X130434184Y-100705262D01*
X130561738Y-100832816D01*
X130714478Y-100928789D01*
X130884745Y-100988368D01*
X130884750Y-100988369D01*
X131063996Y-101008565D01*
X131064000Y-101008565D01*
X131064004Y-101008565D01*
X131243249Y-100988369D01*
X131243252Y-100988368D01*
X131243255Y-100988368D01*
X131413522Y-100928789D01*
X131493626Y-100878456D01*
X184145500Y-100878456D01*
X184145500Y-101121543D01*
X184145501Y-101121559D01*
X184177230Y-101362569D01*
X184240149Y-101597386D01*
X184333175Y-101821972D01*
X184333182Y-101821987D01*
X184454730Y-102032516D01*
X184602722Y-102225380D01*
X184602730Y-102225389D01*
X184774611Y-102397270D01*
X184774619Y-102397277D01*
X184967483Y-102545269D01*
X185178012Y-102666817D01*
X185178027Y-102666824D01*
X185294171Y-102714932D01*
X185402612Y-102759850D01*
X185637429Y-102822769D01*
X185878450Y-102854500D01*
X185878457Y-102854500D01*
X186121543Y-102854500D01*
X186121550Y-102854500D01*
X186362571Y-102822769D01*
X186597388Y-102759850D01*
X186821984Y-102666819D01*
X187032516Y-102545269D01*
X187225380Y-102397278D01*
X187225384Y-102397273D01*
X187225389Y-102397270D01*
X187397270Y-102225389D01*
X187397273Y-102225384D01*
X187397278Y-102225380D01*
X187545269Y-102032516D01*
X187666819Y-101821984D01*
X187759850Y-101597388D01*
X187822769Y-101362571D01*
X187854500Y-101121550D01*
X187854500Y-100878450D01*
X187822769Y-100637429D01*
X187759850Y-100402612D01*
X187666819Y-100178016D01*
X187666817Y-100178012D01*
X187545269Y-99967483D01*
X187397277Y-99774619D01*
X187397270Y-99774611D01*
X187225389Y-99602730D01*
X187225380Y-99602722D01*
X187032516Y-99454730D01*
X186821987Y-99333182D01*
X186821972Y-99333175D01*
X186597386Y-99240149D01*
X186362569Y-99177230D01*
X186121559Y-99145501D01*
X186121556Y-99145500D01*
X186121550Y-99145500D01*
X185878450Y-99145500D01*
X185878444Y-99145500D01*
X185878440Y-99145501D01*
X185637430Y-99177230D01*
X185402613Y-99240149D01*
X185178027Y-99333175D01*
X185178012Y-99333182D01*
X184967483Y-99454730D01*
X184774619Y-99602722D01*
X184602722Y-99774619D01*
X184454730Y-99967483D01*
X184333182Y-100178012D01*
X184333175Y-100178027D01*
X184240149Y-100402613D01*
X184177230Y-100637430D01*
X184145501Y-100878440D01*
X184145500Y-100878456D01*
X131493626Y-100878456D01*
X131566262Y-100832816D01*
X131693816Y-100705262D01*
X131789789Y-100552522D01*
X131849368Y-100382255D01*
X131869565Y-100203000D01*
X131866751Y-100178027D01*
X131849369Y-100023750D01*
X131849368Y-100023745D01*
X131789788Y-99853476D01*
X131740239Y-99774620D01*
X131693816Y-99700738D01*
X131665819Y-99672741D01*
X131632334Y-99611418D01*
X131629500Y-99585060D01*
X131629500Y-99042940D01*
X131649185Y-98975901D01*
X131665819Y-98955259D01*
X131693816Y-98927262D01*
X131789789Y-98774522D01*
X131849368Y-98604255D01*
X131869565Y-98425000D01*
X131849368Y-98245745D01*
X131789789Y-98075478D01*
X131693816Y-97922738D01*
X131566262Y-97795184D01*
X131413523Y-97699211D01*
X131243254Y-97639631D01*
X131243249Y-97639630D01*
X131064004Y-97619435D01*
X131063996Y-97619435D01*
X130884750Y-97639630D01*
X130884745Y-97639631D01*
X130714476Y-97699211D01*
X130561737Y-97795184D01*
X130434184Y-97922737D01*
X130338211Y-98075476D01*
X130278631Y-98245745D01*
X130278630Y-98245750D01*
X130258435Y-98424996D01*
X116500500Y-98424996D01*
X116500500Y-96644998D01*
X162649838Y-96644998D01*
X162649838Y-96645001D01*
X162668450Y-96857741D01*
X162668452Y-96857752D01*
X162723721Y-97064022D01*
X162723723Y-97064026D01*
X162723724Y-97064030D01*
X162766171Y-97155058D01*
X162813977Y-97257578D01*
X162936472Y-97432521D01*
X163087478Y-97583527D01*
X163087481Y-97583529D01*
X163262419Y-97706021D01*
X163262421Y-97706022D01*
X163262420Y-97706022D01*
X163326936Y-97736106D01*
X163455970Y-97796276D01*
X163662253Y-97851549D01*
X163814215Y-97864844D01*
X163874998Y-97870162D01*
X163875000Y-97870162D01*
X163875002Y-97870162D01*
X163928186Y-97865508D01*
X164087747Y-97851549D01*
X164294030Y-97796276D01*
X164487581Y-97706021D01*
X164662519Y-97583529D01*
X164813529Y-97432519D01*
X164936021Y-97257581D01*
X165026276Y-97064030D01*
X165081549Y-96857747D01*
X165100162Y-96645000D01*
X165081549Y-96432253D01*
X165026276Y-96225970D01*
X164936021Y-96032419D01*
X164813529Y-95857481D01*
X164813527Y-95857478D01*
X164662521Y-95706472D01*
X164487578Y-95583977D01*
X164487579Y-95583977D01*
X164358547Y-95523809D01*
X164294030Y-95493724D01*
X164294026Y-95493723D01*
X164294022Y-95493721D01*
X164087752Y-95438452D01*
X164087748Y-95438451D01*
X164087747Y-95438451D01*
X164087746Y-95438450D01*
X164087741Y-95438450D01*
X163875002Y-95419838D01*
X163874998Y-95419838D01*
X163662258Y-95438450D01*
X163662247Y-95438452D01*
X163455977Y-95493721D01*
X163455968Y-95493725D01*
X163262421Y-95583977D01*
X163087478Y-95706472D01*
X162936472Y-95857478D01*
X162813977Y-96032421D01*
X162723725Y-96225968D01*
X162723721Y-96225977D01*
X162668452Y-96432247D01*
X162668450Y-96432258D01*
X162649838Y-96644998D01*
X116500500Y-96644998D01*
X116500500Y-94104998D01*
X165189838Y-94104998D01*
X165189838Y-94105001D01*
X165208450Y-94317741D01*
X165208452Y-94317752D01*
X165263721Y-94524022D01*
X165263723Y-94524026D01*
X165263724Y-94524030D01*
X165306171Y-94615058D01*
X165353977Y-94717578D01*
X165476472Y-94892521D01*
X165627478Y-95043527D01*
X165627481Y-95043529D01*
X165802419Y-95166021D01*
X165802421Y-95166022D01*
X165802420Y-95166022D01*
X165866936Y-95196106D01*
X165995970Y-95256276D01*
X166202253Y-95311549D01*
X166354215Y-95324844D01*
X166414998Y-95330162D01*
X166415000Y-95330162D01*
X166415002Y-95330162D01*
X166468186Y-95325508D01*
X166627747Y-95311549D01*
X166834030Y-95256276D01*
X167027581Y-95166021D01*
X167202519Y-95043529D01*
X167353529Y-94892519D01*
X167476021Y-94717581D01*
X167566276Y-94524030D01*
X167621549Y-94317747D01*
X167640162Y-94105000D01*
X167621549Y-93892253D01*
X167566276Y-93685970D01*
X167476021Y-93492419D01*
X167353529Y-93317481D01*
X167353527Y-93317478D01*
X167202521Y-93166472D01*
X167027578Y-93043977D01*
X167027579Y-93043977D01*
X166898547Y-92983809D01*
X166834030Y-92953724D01*
X166834026Y-92953723D01*
X166834022Y-92953721D01*
X166627752Y-92898452D01*
X166627748Y-92898451D01*
X166627747Y-92898451D01*
X166627746Y-92898450D01*
X166627741Y-92898450D01*
X166415002Y-92879838D01*
X166414998Y-92879838D01*
X166202258Y-92898450D01*
X166202247Y-92898452D01*
X165995977Y-92953721D01*
X165995968Y-92953725D01*
X165802421Y-93043977D01*
X165627478Y-93166472D01*
X165476472Y-93317478D01*
X165353977Y-93492421D01*
X165263725Y-93685968D01*
X165263721Y-93685977D01*
X165208452Y-93892247D01*
X165208450Y-93892258D01*
X165189838Y-94104998D01*
X116500500Y-94104998D01*
X116500500Y-85499999D01*
X122351841Y-85499999D01*
X122351841Y-85500000D01*
X122372436Y-85735403D01*
X122372438Y-85735413D01*
X122433594Y-85963655D01*
X122433596Y-85963659D01*
X122433597Y-85963663D01*
X122437500Y-85972032D01*
X122533465Y-86177830D01*
X122533467Y-86177834D01*
X122640725Y-86331013D01*
X122669001Y-86371396D01*
X122669006Y-86371402D01*
X122836097Y-86538493D01*
X122836103Y-86538498D01*
X123021658Y-86668425D01*
X123065283Y-86723002D01*
X123072477Y-86792500D01*
X123040954Y-86854855D01*
X123021658Y-86871575D01*
X122836097Y-87001505D01*
X122669005Y-87168597D01*
X122533465Y-87362169D01*
X122533464Y-87362171D01*
X122439901Y-87562816D01*
X122435605Y-87572032D01*
X122433598Y-87576335D01*
X122433594Y-87576344D01*
X122372438Y-87804586D01*
X122372436Y-87804596D01*
X122351841Y-88039999D01*
X122351841Y-88040000D01*
X122372436Y-88275403D01*
X122372438Y-88275413D01*
X122433594Y-88503655D01*
X122433596Y-88503659D01*
X122433597Y-88503663D01*
X122513504Y-88675023D01*
X122533465Y-88717830D01*
X122533467Y-88717834D01*
X122618105Y-88838709D01*
X122669001Y-88911396D01*
X122669006Y-88911402D01*
X122836097Y-89078493D01*
X122836103Y-89078498D01*
X123021658Y-89208425D01*
X123065283Y-89263002D01*
X123072477Y-89332500D01*
X123040954Y-89394855D01*
X123021658Y-89411575D01*
X122836097Y-89541505D01*
X122669005Y-89708597D01*
X122533465Y-89902169D01*
X122533464Y-89902171D01*
X122433598Y-90116335D01*
X122433594Y-90116344D01*
X122372438Y-90344586D01*
X122372436Y-90344596D01*
X122351841Y-90579999D01*
X122351841Y-90580000D01*
X122372436Y-90815403D01*
X122372438Y-90815413D01*
X122433594Y-91043655D01*
X122433596Y-91043659D01*
X122433597Y-91043663D01*
X122454982Y-91089523D01*
X122533465Y-91257830D01*
X122533467Y-91257834D01*
X122641781Y-91412521D01*
X122669005Y-91451401D01*
X122836099Y-91618495D01*
X122869311Y-91641750D01*
X123029665Y-91754032D01*
X123029667Y-91754033D01*
X123029670Y-91754035D01*
X123243837Y-91853903D01*
X123472092Y-91915063D01*
X123660418Y-91931539D01*
X123707499Y-91935659D01*
X123707500Y-91935659D01*
X123707501Y-91935659D01*
X123746734Y-91932226D01*
X123942908Y-91915063D01*
X124171163Y-91853903D01*
X124385330Y-91754035D01*
X124578901Y-91618495D01*
X124745995Y-91451401D01*
X124875925Y-91265842D01*
X124930502Y-91222217D01*
X125000000Y-91215023D01*
X125062355Y-91246546D01*
X125079075Y-91265842D01*
X125209000Y-91451395D01*
X125209005Y-91451401D01*
X125376099Y-91618495D01*
X125409311Y-91641750D01*
X125569665Y-91754032D01*
X125569667Y-91754033D01*
X125569670Y-91754035D01*
X125783837Y-91853903D01*
X126012092Y-91915063D01*
X126200418Y-91931539D01*
X126247499Y-91935659D01*
X126247500Y-91935659D01*
X126247501Y-91935659D01*
X126286734Y-91932226D01*
X126482908Y-91915063D01*
X126711163Y-91853903D01*
X126925330Y-91754035D01*
X127118901Y-91618495D01*
X127285995Y-91451401D01*
X127421535Y-91257830D01*
X127521403Y-91043663D01*
X127582563Y-90815408D01*
X127603159Y-90580000D01*
X127582563Y-90344592D01*
X127521403Y-90116337D01*
X127421535Y-89902171D01*
X127415925Y-89894158D01*
X127285994Y-89708597D01*
X127118902Y-89541506D01*
X127118896Y-89541501D01*
X126933342Y-89411575D01*
X126889717Y-89356998D01*
X126882523Y-89287500D01*
X126885811Y-89280996D01*
X130258435Y-89280996D01*
X130258435Y-89281003D01*
X130278630Y-89460249D01*
X130278631Y-89460254D01*
X130338211Y-89630523D01*
X130434184Y-89783262D01*
X130462181Y-89811259D01*
X130495666Y-89872582D01*
X130498500Y-89898940D01*
X130498500Y-91203060D01*
X130478815Y-91270099D01*
X130462181Y-91290741D01*
X130434184Y-91318737D01*
X130338211Y-91471476D01*
X130278631Y-91641745D01*
X130278630Y-91641750D01*
X130258435Y-91820996D01*
X130258435Y-91821003D01*
X130278630Y-92000249D01*
X130278631Y-92000254D01*
X130338211Y-92170523D01*
X130342646Y-92177581D01*
X130434184Y-92323262D01*
X130561738Y-92450816D01*
X130714478Y-92546789D01*
X130884745Y-92606368D01*
X130884750Y-92606369D01*
X131063996Y-92626565D01*
X131064000Y-92626565D01*
X131064004Y-92626565D01*
X131243249Y-92606369D01*
X131243252Y-92606368D01*
X131243255Y-92606368D01*
X131413522Y-92546789D01*
X131566262Y-92450816D01*
X131693816Y-92323262D01*
X131789789Y-92170522D01*
X131849368Y-92000255D01*
X131869565Y-91821000D01*
X131864692Y-91777752D01*
X131849369Y-91641750D01*
X131849368Y-91641745D01*
X131822513Y-91564998D01*
X162649838Y-91564998D01*
X162649838Y-91565001D01*
X162668450Y-91777741D01*
X162668452Y-91777752D01*
X162723721Y-91984022D01*
X162723723Y-91984026D01*
X162723724Y-91984030D01*
X162731290Y-92000255D01*
X162813977Y-92177578D01*
X162936472Y-92352521D01*
X163087478Y-92503527D01*
X163087481Y-92503529D01*
X163262419Y-92626021D01*
X163262421Y-92626022D01*
X163262420Y-92626022D01*
X163326936Y-92656106D01*
X163455970Y-92716276D01*
X163662253Y-92771549D01*
X163814215Y-92784844D01*
X163874998Y-92790162D01*
X163875000Y-92790162D01*
X163875002Y-92790162D01*
X163928186Y-92785508D01*
X164087747Y-92771549D01*
X164294030Y-92716276D01*
X164487581Y-92626021D01*
X164662519Y-92503529D01*
X164813529Y-92352519D01*
X164936021Y-92177581D01*
X165026276Y-91984030D01*
X165081549Y-91777747D01*
X165100162Y-91565000D01*
X165081549Y-91352253D01*
X165026276Y-91145970D01*
X164936021Y-90952419D01*
X164813529Y-90777481D01*
X164813527Y-90777478D01*
X164662521Y-90626472D01*
X164487578Y-90503977D01*
X164487579Y-90503977D01*
X164358547Y-90443809D01*
X164294030Y-90413724D01*
X164294026Y-90413723D01*
X164294022Y-90413721D01*
X164087752Y-90358452D01*
X164087748Y-90358451D01*
X164087747Y-90358451D01*
X164087746Y-90358450D01*
X164087741Y-90358450D01*
X163875002Y-90339838D01*
X163874998Y-90339838D01*
X163662258Y-90358450D01*
X163662247Y-90358452D01*
X163455977Y-90413721D01*
X163455968Y-90413725D01*
X163262421Y-90503977D01*
X163087478Y-90626472D01*
X162936472Y-90777478D01*
X162813977Y-90952421D01*
X162723725Y-91145968D01*
X162723721Y-91145977D01*
X162668452Y-91352247D01*
X162668450Y-91352258D01*
X162649838Y-91564998D01*
X131822513Y-91564998D01*
X131789789Y-91471478D01*
X131786214Y-91465789D01*
X131723380Y-91365789D01*
X131693816Y-91318738D01*
X131665819Y-91290741D01*
X131632334Y-91229418D01*
X131629500Y-91203060D01*
X131629500Y-89898940D01*
X131649185Y-89831901D01*
X131665819Y-89811259D01*
X131674065Y-89803013D01*
X131693816Y-89783262D01*
X131789789Y-89630522D01*
X131849368Y-89460255D01*
X131849369Y-89460249D01*
X131869565Y-89281003D01*
X131869565Y-89280996D01*
X131849369Y-89101750D01*
X131849368Y-89101745D01*
X131846263Y-89092872D01*
X131789789Y-88931478D01*
X131777174Y-88911402D01*
X131693815Y-88778737D01*
X131566262Y-88651184D01*
X131413523Y-88555211D01*
X131243254Y-88495631D01*
X131243249Y-88495630D01*
X131064004Y-88475435D01*
X131063996Y-88475435D01*
X130884750Y-88495630D01*
X130884745Y-88495631D01*
X130714476Y-88555211D01*
X130561737Y-88651184D01*
X130434184Y-88778737D01*
X130338211Y-88931476D01*
X130278631Y-89101745D01*
X130278630Y-89101750D01*
X130258435Y-89280996D01*
X126885811Y-89280996D01*
X126914046Y-89225145D01*
X126933342Y-89208425D01*
X127028091Y-89142081D01*
X127118901Y-89078495D01*
X127285995Y-88911401D01*
X127421535Y-88717830D01*
X127521403Y-88503663D01*
X127582563Y-88275408D01*
X127603159Y-88040000D01*
X127582563Y-87804592D01*
X127521403Y-87576337D01*
X127421535Y-87362171D01*
X127415925Y-87354158D01*
X127285994Y-87168597D01*
X127118902Y-87001506D01*
X127118896Y-87001501D01*
X126933342Y-86871575D01*
X126889717Y-86816998D01*
X126882523Y-86747500D01*
X126914046Y-86685145D01*
X126933342Y-86668425D01*
X127029346Y-86601202D01*
X127118901Y-86538495D01*
X127232648Y-86424748D01*
X127293971Y-86391263D01*
X127363663Y-86396247D01*
X127408010Y-86424748D01*
X127941013Y-86957751D01*
X127974498Y-87019074D01*
X127976552Y-87031548D01*
X127992630Y-87174250D01*
X127992631Y-87174254D01*
X128052211Y-87344523D01*
X128070390Y-87373454D01*
X128148184Y-87497262D01*
X128275738Y-87624816D01*
X128428478Y-87720789D01*
X128489716Y-87742217D01*
X128598745Y-87780368D01*
X128598750Y-87780369D01*
X128777996Y-87800565D01*
X128778000Y-87800565D01*
X128778004Y-87800565D01*
X128957249Y-87780369D01*
X128957252Y-87780368D01*
X128957255Y-87780368D01*
X129127522Y-87720789D01*
X129280262Y-87624816D01*
X129407816Y-87497262D01*
X129503789Y-87344522D01*
X129563368Y-87174255D01*
X129563369Y-87174249D01*
X129583565Y-86995003D01*
X129583565Y-86994996D01*
X129563369Y-86815750D01*
X129563368Y-86815745D01*
X129558793Y-86802671D01*
X129503789Y-86645478D01*
X129498045Y-86636337D01*
X129407815Y-86492737D01*
X129280262Y-86365184D01*
X129127523Y-86269211D01*
X128957254Y-86209631D01*
X128957250Y-86209630D01*
X128814548Y-86193552D01*
X128750134Y-86166485D01*
X128740751Y-86158013D01*
X127630226Y-85047488D01*
X127630221Y-85047484D01*
X127522285Y-84985168D01*
X127474070Y-84934602D01*
X127471903Y-84930185D01*
X127421537Y-84822175D01*
X127421534Y-84822169D01*
X127285994Y-84628597D01*
X127118902Y-84461506D01*
X127118896Y-84461501D01*
X126933342Y-84331575D01*
X126889717Y-84276998D01*
X126882523Y-84207500D01*
X126914046Y-84145145D01*
X126933342Y-84128425D01*
X126991122Y-84087967D01*
X127118901Y-83998495D01*
X127285995Y-83831401D01*
X127421535Y-83637830D01*
X127521403Y-83423663D01*
X127582563Y-83195408D01*
X127603159Y-82960000D01*
X127582563Y-82724592D01*
X127521403Y-82496337D01*
X127421535Y-82282171D01*
X127285995Y-82088599D01*
X127285994Y-82088597D01*
X127118902Y-81921506D01*
X127118895Y-81921501D01*
X126925334Y-81785967D01*
X126925330Y-81785965D01*
X126925328Y-81785964D01*
X126711163Y-81686097D01*
X126711159Y-81686096D01*
X126711155Y-81686094D01*
X126482913Y-81624938D01*
X126482903Y-81624936D01*
X126247501Y-81604341D01*
X126247499Y-81604341D01*
X126012096Y-81624936D01*
X126012086Y-81624938D01*
X125783844Y-81686094D01*
X125783835Y-81686098D01*
X125569671Y-81785964D01*
X125569669Y-81785965D01*
X125376097Y-81921505D01*
X125209005Y-82088597D01*
X125073465Y-82282169D01*
X125073464Y-82282171D01*
X124973598Y-82496335D01*
X124973594Y-82496344D01*
X124912438Y-82724586D01*
X124912436Y-82724596D01*
X124891841Y-82959999D01*
X124891841Y-82960000D01*
X124912436Y-83195403D01*
X124912438Y-83195413D01*
X124973594Y-83423655D01*
X124973596Y-83423659D01*
X124973597Y-83423663D01*
X125019220Y-83521501D01*
X125073465Y-83637830D01*
X125073467Y-83637834D01*
X125209001Y-83831395D01*
X125209006Y-83831402D01*
X125376097Y-83998493D01*
X125376103Y-83998498D01*
X125561658Y-84128425D01*
X125605283Y-84183002D01*
X125612477Y-84252500D01*
X125580954Y-84314855D01*
X125561658Y-84331575D01*
X125376097Y-84461505D01*
X125209005Y-84628597D01*
X125079075Y-84814158D01*
X125024498Y-84857783D01*
X124955000Y-84864977D01*
X124892645Y-84833454D01*
X124875925Y-84814158D01*
X124745994Y-84628597D01*
X124578902Y-84461506D01*
X124578895Y-84461501D01*
X124385334Y-84325967D01*
X124385330Y-84325965D01*
X124382373Y-84324586D01*
X124171163Y-84226097D01*
X124171159Y-84226096D01*
X124171155Y-84226094D01*
X123942913Y-84164938D01*
X123942903Y-84164936D01*
X123707501Y-84144341D01*
X123707499Y-84144341D01*
X123472096Y-84164936D01*
X123472086Y-84164938D01*
X123243844Y-84226094D01*
X123243835Y-84226098D01*
X123029671Y-84325964D01*
X123029669Y-84325965D01*
X122836097Y-84461505D01*
X122669005Y-84628597D01*
X122533465Y-84822169D01*
X122533464Y-84822171D01*
X122439901Y-85022816D01*
X122435605Y-85032032D01*
X122433598Y-85036335D01*
X122433594Y-85036344D01*
X122372438Y-85264586D01*
X122372436Y-85264596D01*
X122351841Y-85499999D01*
X116500500Y-85499999D01*
X116500500Y-75910943D01*
X135399500Y-75910943D01*
X135399500Y-88549057D01*
X135433253Y-88675023D01*
X135440423Y-88701783D01*
X135440426Y-88701790D01*
X135519475Y-88838709D01*
X135519479Y-88838714D01*
X135519480Y-88838716D01*
X135631284Y-88950520D01*
X135631286Y-88950521D01*
X135631290Y-88950524D01*
X135768209Y-89029573D01*
X135768216Y-89029577D01*
X135920943Y-89070500D01*
X135920945Y-89070500D01*
X148599055Y-89070500D01*
X148599057Y-89070500D01*
X148751784Y-89029577D01*
X148888716Y-88950520D01*
X149000520Y-88838716D01*
X149079577Y-88701784D01*
X149120500Y-88549057D01*
X149120500Y-86997135D01*
X150932000Y-86997135D01*
X150932000Y-89092870D01*
X150932001Y-89092876D01*
X150938408Y-89152483D01*
X150988702Y-89287328D01*
X150988706Y-89287335D01*
X151074952Y-89402544D01*
X151074955Y-89402547D01*
X151190164Y-89488793D01*
X151190171Y-89488797D01*
X151325017Y-89539091D01*
X151325016Y-89539091D01*
X151331944Y-89539835D01*
X151384627Y-89545500D01*
X153385372Y-89545499D01*
X153444983Y-89539091D01*
X153579831Y-89488796D01*
X153695046Y-89402546D01*
X153781296Y-89287331D01*
X153791690Y-89259460D01*
X153833560Y-89203527D01*
X153899023Y-89179108D01*
X153967297Y-89193958D01*
X153980746Y-89202465D01*
X154163462Y-89335217D01*
X154295599Y-89402544D01*
X154367244Y-89439049D01*
X154584751Y-89509721D01*
X154584752Y-89509721D01*
X154584755Y-89509722D01*
X154810646Y-89545500D01*
X154810647Y-89545500D01*
X155039353Y-89545500D01*
X155039354Y-89545500D01*
X155265245Y-89509722D01*
X155265248Y-89509721D01*
X155265249Y-89509721D01*
X155482755Y-89439049D01*
X155482755Y-89439048D01*
X155482758Y-89439048D01*
X155686538Y-89335217D01*
X155871566Y-89200786D01*
X156033286Y-89039066D01*
X156094683Y-88954559D01*
X156150012Y-88911896D01*
X156219625Y-88905917D01*
X156281420Y-88938523D01*
X156295314Y-88954556D01*
X156356714Y-89039066D01*
X156518434Y-89200786D01*
X156703462Y-89335217D01*
X156835599Y-89402544D01*
X156907244Y-89439049D01*
X157124751Y-89509721D01*
X157124752Y-89509721D01*
X157124755Y-89509722D01*
X157350646Y-89545500D01*
X157350647Y-89545500D01*
X157579353Y-89545500D01*
X157579354Y-89545500D01*
X157805245Y-89509722D01*
X157805248Y-89509721D01*
X157805249Y-89509721D01*
X158022755Y-89439049D01*
X158022755Y-89439048D01*
X158022758Y-89439048D01*
X158226538Y-89335217D01*
X158411566Y-89200786D01*
X158573286Y-89039066D01*
X158707717Y-88854038D01*
X158811548Y-88650258D01*
X158844430Y-88549057D01*
X158882221Y-88432749D01*
X158882221Y-88432748D01*
X158882222Y-88432745D01*
X158918000Y-88206854D01*
X158918000Y-87883146D01*
X158882222Y-87657255D01*
X158882221Y-87657251D01*
X158882221Y-87657250D01*
X158811549Y-87439744D01*
X158790169Y-87397783D01*
X158707717Y-87235962D01*
X158573286Y-87050934D01*
X158411566Y-86889214D01*
X158226538Y-86754783D01*
X158212244Y-86747500D01*
X158022755Y-86650950D01*
X157805248Y-86580278D01*
X157619812Y-86550908D01*
X157579354Y-86544500D01*
X157350646Y-86544500D01*
X157310188Y-86550908D01*
X157124753Y-86580278D01*
X157124750Y-86580278D01*
X156907244Y-86650950D01*
X156703461Y-86754783D01*
X156599194Y-86830538D01*
X156518434Y-86889214D01*
X156518432Y-86889216D01*
X156518431Y-86889216D01*
X156356715Y-87050932D01*
X156295318Y-87135438D01*
X156239987Y-87178103D01*
X156170374Y-87184082D01*
X156108579Y-87151476D01*
X156094682Y-87135438D01*
X156083773Y-87120423D01*
X156033286Y-87050934D01*
X155871566Y-86889214D01*
X155686538Y-86754783D01*
X155672244Y-86747500D01*
X155482755Y-86650950D01*
X155265248Y-86580278D01*
X155079812Y-86550908D01*
X155039354Y-86544500D01*
X154810646Y-86544500D01*
X154770188Y-86550908D01*
X154584753Y-86580278D01*
X154584750Y-86580278D01*
X154367244Y-86650950D01*
X154163461Y-86754783D01*
X154059194Y-86830538D01*
X154010434Y-86865965D01*
X153980759Y-86887525D01*
X153914952Y-86911005D01*
X153846898Y-86895180D01*
X153798203Y-86845074D01*
X153791690Y-86830538D01*
X153781296Y-86802669D01*
X153781293Y-86802664D01*
X153695047Y-86687455D01*
X153695044Y-86687452D01*
X153579835Y-86601206D01*
X153579828Y-86601202D01*
X153444982Y-86550908D01*
X153444983Y-86550908D01*
X153385383Y-86544501D01*
X153385381Y-86544500D01*
X153385373Y-86544500D01*
X153385364Y-86544500D01*
X151384629Y-86544500D01*
X151384623Y-86544501D01*
X151325016Y-86550908D01*
X151190171Y-86601202D01*
X151190164Y-86601206D01*
X151074955Y-86687452D01*
X151074952Y-86687455D01*
X150988706Y-86802664D01*
X150988702Y-86802671D01*
X150938408Y-86937517D01*
X150932001Y-86997116D01*
X150932000Y-86997135D01*
X149120500Y-86997135D01*
X149120500Y-84559999D01*
X175104341Y-84559999D01*
X175104341Y-84560000D01*
X175124936Y-84795403D01*
X175124938Y-84795413D01*
X175186094Y-85023655D01*
X175186096Y-85023659D01*
X175186097Y-85023663D01*
X175197207Y-85047488D01*
X175285965Y-85237830D01*
X175285967Y-85237834D01*
X175394281Y-85392521D01*
X175421505Y-85431401D01*
X175588599Y-85598495D01*
X175685384Y-85666265D01*
X175782165Y-85734032D01*
X175782167Y-85734033D01*
X175782170Y-85734035D01*
X175996337Y-85833903D01*
X176224592Y-85895063D01*
X176412918Y-85911539D01*
X176459999Y-85915659D01*
X176460000Y-85915659D01*
X176460001Y-85915659D01*
X176499234Y-85912226D01*
X176695408Y-85895063D01*
X176923663Y-85833903D01*
X176958096Y-85817846D01*
X177027170Y-85807354D01*
X177090955Y-85835872D01*
X177129196Y-85894348D01*
X177134500Y-85930228D01*
X177134500Y-89265550D01*
X177134500Y-89414450D01*
X177160028Y-89509721D01*
X177173038Y-89558276D01*
X177173039Y-89558277D01*
X177247484Y-89687221D01*
X177247488Y-89687226D01*
X178163013Y-90602751D01*
X178196498Y-90664074D01*
X178198552Y-90676548D01*
X178214630Y-90819250D01*
X178214631Y-90819254D01*
X178274211Y-90989523D01*
X178337045Y-91089522D01*
X178370184Y-91142262D01*
X178497738Y-91269816D01*
X178531040Y-91290741D01*
X178628943Y-91352258D01*
X178650478Y-91365789D01*
X178661984Y-91369815D01*
X178820745Y-91425368D01*
X178820750Y-91425369D01*
X178999996Y-91445565D01*
X179000000Y-91445565D01*
X179000004Y-91445565D01*
X179179249Y-91425369D01*
X179179252Y-91425368D01*
X179179255Y-91425368D01*
X179349522Y-91365789D01*
X179502262Y-91269816D01*
X179629816Y-91142262D01*
X179725789Y-90989522D01*
X179785368Y-90819255D01*
X179785801Y-90815413D01*
X179805565Y-90640003D01*
X179805565Y-90639996D01*
X179785369Y-90460750D01*
X179785368Y-90460745D01*
X179768914Y-90413721D01*
X179725789Y-90290478D01*
X179629816Y-90137738D01*
X179502262Y-90010184D01*
X179413852Y-89954632D01*
X179349523Y-89914211D01*
X179179254Y-89854631D01*
X179179250Y-89854630D01*
X179036548Y-89838552D01*
X178972134Y-89811485D01*
X178962751Y-89803013D01*
X178301819Y-89142081D01*
X178268334Y-89080758D01*
X178265500Y-89054400D01*
X178265500Y-88442250D01*
X178285185Y-88375211D01*
X178337989Y-88329456D01*
X178407147Y-88319512D01*
X178441901Y-88329867D01*
X178536337Y-88373903D01*
X178536342Y-88373904D01*
X178536344Y-88373905D01*
X178576024Y-88384537D01*
X178764592Y-88435063D01*
X178952918Y-88451539D01*
X178999999Y-88455659D01*
X179000000Y-88455659D01*
X179000001Y-88455659D01*
X179046668Y-88451576D01*
X179235408Y-88435063D01*
X179463663Y-88373903D01*
X179677830Y-88274035D01*
X179871401Y-88138495D01*
X180038495Y-87971401D01*
X180168425Y-87785842D01*
X180223002Y-87742217D01*
X180292500Y-87735023D01*
X180354855Y-87766546D01*
X180371575Y-87785842D01*
X180501500Y-87971395D01*
X180501505Y-87971401D01*
X180668599Y-88138495D01*
X180765384Y-88206265D01*
X180862165Y-88274032D01*
X180862167Y-88274033D01*
X180862170Y-88274035D01*
X181076337Y-88373903D01*
X181076343Y-88373904D01*
X181076344Y-88373905D01*
X181116024Y-88384537D01*
X181304592Y-88435063D01*
X181492918Y-88451539D01*
X181539999Y-88455659D01*
X181540000Y-88455659D01*
X181540001Y-88455659D01*
X181586668Y-88451576D01*
X181775408Y-88435063D01*
X182003663Y-88373903D01*
X182058098Y-88348519D01*
X182127171Y-88338028D01*
X182190956Y-88366547D01*
X182229196Y-88425023D01*
X182234500Y-88460902D01*
X182234500Y-89254399D01*
X182214815Y-89321438D01*
X182198181Y-89342080D01*
X181637247Y-89903013D01*
X181575924Y-89936498D01*
X181563450Y-89938552D01*
X181420749Y-89954630D01*
X181420745Y-89954631D01*
X181250476Y-90014211D01*
X181097737Y-90110184D01*
X180970184Y-90237737D01*
X180874211Y-90390476D01*
X180814631Y-90560745D01*
X180814630Y-90560750D01*
X180794435Y-90739996D01*
X180794435Y-90740003D01*
X180814630Y-90919249D01*
X180814631Y-90919254D01*
X180874211Y-91089523D01*
X180957589Y-91222217D01*
X180970184Y-91242262D01*
X181097738Y-91369816D01*
X181186148Y-91425368D01*
X181227579Y-91451401D01*
X181250478Y-91465789D01*
X181420745Y-91525368D01*
X181420750Y-91525369D01*
X181599996Y-91545565D01*
X181600000Y-91545565D01*
X181600004Y-91545565D01*
X181779249Y-91525369D01*
X181779252Y-91525368D01*
X181779255Y-91525368D01*
X181949522Y-91465789D01*
X182102262Y-91369816D01*
X182229816Y-91242262D01*
X182325789Y-91089522D01*
X182385368Y-90919255D01*
X182401447Y-90776547D01*
X182428513Y-90712134D01*
X182436976Y-90702760D01*
X183252513Y-89887225D01*
X183326962Y-89758275D01*
X183365500Y-89614450D01*
X183365500Y-89465550D01*
X183365500Y-88451576D01*
X183385185Y-88384537D01*
X183437989Y-88338782D01*
X183507147Y-88328838D01*
X183541900Y-88339192D01*
X183616337Y-88373903D01*
X183616342Y-88373904D01*
X183616344Y-88373905D01*
X183656024Y-88384537D01*
X183844592Y-88435063D01*
X184032918Y-88451539D01*
X184079999Y-88455659D01*
X184080000Y-88455659D01*
X184080001Y-88455659D01*
X184126668Y-88451576D01*
X184315408Y-88435063D01*
X184543663Y-88373903D01*
X184757830Y-88274035D01*
X184951401Y-88138495D01*
X185118495Y-87971401D01*
X185254035Y-87777830D01*
X185353903Y-87563663D01*
X185415063Y-87335408D01*
X185435659Y-87100000D01*
X185415063Y-86864592D01*
X185357819Y-86650952D01*
X185353905Y-86636344D01*
X185353904Y-86636343D01*
X185353903Y-86636337D01*
X185254035Y-86422171D01*
X185248425Y-86414158D01*
X185118494Y-86228597D01*
X184951402Y-86061506D01*
X184951396Y-86061501D01*
X184765842Y-85931575D01*
X184722217Y-85876998D01*
X184715023Y-85807500D01*
X184746546Y-85745145D01*
X184765842Y-85728425D01*
X184806768Y-85699768D01*
X184951401Y-85598495D01*
X185118495Y-85431401D01*
X185254035Y-85237830D01*
X185353903Y-85023663D01*
X185415063Y-84795408D01*
X185435659Y-84560000D01*
X185415063Y-84324592D01*
X185353903Y-84096337D01*
X185254035Y-83882171D01*
X185248425Y-83874158D01*
X185118494Y-83688597D01*
X184951402Y-83521506D01*
X184951395Y-83521501D01*
X184757834Y-83385967D01*
X184757830Y-83385965D01*
X184757828Y-83385964D01*
X184543663Y-83286097D01*
X184543659Y-83286096D01*
X184543655Y-83286094D01*
X184315413Y-83224938D01*
X184315403Y-83224936D01*
X184080001Y-83204341D01*
X184079999Y-83204341D01*
X183844596Y-83224936D01*
X183844586Y-83224938D01*
X183616344Y-83286094D01*
X183616335Y-83286098D01*
X183402171Y-83385964D01*
X183402169Y-83385965D01*
X183208597Y-83521505D01*
X183041505Y-83688597D01*
X182911575Y-83874158D01*
X182856998Y-83917783D01*
X182787500Y-83924977D01*
X182725145Y-83893454D01*
X182708425Y-83874158D01*
X182578494Y-83688597D01*
X182411402Y-83521506D01*
X182411395Y-83521501D01*
X182217834Y-83385967D01*
X182217830Y-83385965D01*
X182217828Y-83385964D01*
X182003663Y-83286097D01*
X182003659Y-83286096D01*
X182003655Y-83286094D01*
X181775413Y-83224938D01*
X181775403Y-83224936D01*
X181540001Y-83204341D01*
X181539999Y-83204341D01*
X181304596Y-83224936D01*
X181304586Y-83224938D01*
X181076344Y-83286094D01*
X181076335Y-83286098D01*
X180862171Y-83385964D01*
X180862169Y-83385965D01*
X180668597Y-83521505D01*
X180501505Y-83688597D01*
X180371575Y-83874158D01*
X180316998Y-83917783D01*
X180247500Y-83924977D01*
X180185145Y-83893454D01*
X180168425Y-83874158D01*
X180038494Y-83688597D01*
X179871402Y-83521506D01*
X179871395Y-83521501D01*
X179677834Y-83385967D01*
X179677830Y-83385965D01*
X179677828Y-83385964D01*
X179463663Y-83286097D01*
X179463659Y-83286096D01*
X179463655Y-83286094D01*
X179235413Y-83224938D01*
X179235403Y-83224936D01*
X179000001Y-83204341D01*
X178999999Y-83204341D01*
X178764596Y-83224936D01*
X178764586Y-83224938D01*
X178536344Y-83286094D01*
X178536335Y-83286098D01*
X178322171Y-83385964D01*
X178322169Y-83385965D01*
X178128597Y-83521505D01*
X177961505Y-83688597D01*
X177831575Y-83874158D01*
X177776998Y-83917783D01*
X177707500Y-83924977D01*
X177645145Y-83893454D01*
X177628425Y-83874158D01*
X177498494Y-83688597D01*
X177331402Y-83521506D01*
X177331395Y-83521501D01*
X177137834Y-83385967D01*
X177137830Y-83385965D01*
X177137828Y-83385964D01*
X176923663Y-83286097D01*
X176923659Y-83286096D01*
X176923655Y-83286094D01*
X176695413Y-83224938D01*
X176695403Y-83224936D01*
X176460001Y-83204341D01*
X176459999Y-83204341D01*
X176224596Y-83224936D01*
X176224586Y-83224938D01*
X175996344Y-83286094D01*
X175996335Y-83286098D01*
X175782171Y-83385964D01*
X175782169Y-83385965D01*
X175588597Y-83521505D01*
X175421505Y-83688597D01*
X175285965Y-83882169D01*
X175285964Y-83882171D01*
X175186098Y-84096335D01*
X175186094Y-84096344D01*
X175124938Y-84324586D01*
X175124936Y-84324596D01*
X175104341Y-84559999D01*
X149120500Y-84559999D01*
X149120500Y-77044786D01*
X160299500Y-77044786D01*
X160299500Y-78740521D01*
X160299501Y-78740527D01*
X160305908Y-78800134D01*
X160356202Y-78934979D01*
X160356206Y-78934986D01*
X160442452Y-79050195D01*
X160442455Y-79050198D01*
X160557664Y-79136444D01*
X160557671Y-79136448D01*
X160692517Y-79186742D01*
X160692516Y-79186742D01*
X160699444Y-79187486D01*
X160752127Y-79193151D01*
X162447872Y-79193150D01*
X162507483Y-79186742D01*
X162642331Y-79136447D01*
X162757546Y-79050197D01*
X162843796Y-78934982D01*
X162894091Y-78800134D01*
X162900500Y-78740524D01*
X162900499Y-77044779D01*
X162894091Y-76985168D01*
X162843796Y-76850320D01*
X162843795Y-76850319D01*
X162843793Y-76850315D01*
X162757547Y-76735106D01*
X162757544Y-76735103D01*
X162642335Y-76648857D01*
X162642328Y-76648853D01*
X162507482Y-76598559D01*
X162507483Y-76598559D01*
X162447883Y-76592152D01*
X162447881Y-76592151D01*
X162447873Y-76592151D01*
X162447864Y-76592151D01*
X160752129Y-76592151D01*
X160752123Y-76592152D01*
X160692516Y-76598559D01*
X160557671Y-76648853D01*
X160557664Y-76648857D01*
X160442455Y-76735103D01*
X160442452Y-76735106D01*
X160356206Y-76850315D01*
X160356202Y-76850322D01*
X160305908Y-76985168D01*
X160299501Y-77044767D01*
X160299501Y-77044774D01*
X160299500Y-77044786D01*
X149120500Y-77044786D01*
X149120500Y-75910943D01*
X149079577Y-75758216D01*
X149079573Y-75758209D01*
X149000524Y-75621290D01*
X149000518Y-75621282D01*
X148888717Y-75509481D01*
X148888709Y-75509475D01*
X148751790Y-75430426D01*
X148751786Y-75430424D01*
X148751784Y-75430423D01*
X148599057Y-75389500D01*
X136079057Y-75389500D01*
X135920943Y-75389500D01*
X135768216Y-75430423D01*
X135768209Y-75430426D01*
X135631290Y-75509475D01*
X135631282Y-75509481D01*
X135519481Y-75621282D01*
X135519475Y-75621290D01*
X135440426Y-75758209D01*
X135440423Y-75758216D01*
X135399500Y-75910943D01*
X116500500Y-75910943D01*
X116500500Y-70003051D01*
X116500649Y-69996967D01*
X116506471Y-69878456D01*
X118145500Y-69878456D01*
X118145500Y-70121543D01*
X118145501Y-70121559D01*
X118177230Y-70362569D01*
X118240149Y-70597386D01*
X118333175Y-70821972D01*
X118333182Y-70821987D01*
X118454730Y-71032516D01*
X118602722Y-71225380D01*
X118602730Y-71225389D01*
X118774611Y-71397270D01*
X118774619Y-71397277D01*
X118967483Y-71545269D01*
X119178012Y-71666817D01*
X119178027Y-71666824D01*
X119294171Y-71714932D01*
X119402612Y-71759850D01*
X119637429Y-71822769D01*
X119878450Y-71854500D01*
X119878457Y-71854500D01*
X120121543Y-71854500D01*
X120121550Y-71854500D01*
X120362571Y-71822769D01*
X120597388Y-71759850D01*
X120821984Y-71666819D01*
X121032516Y-71545269D01*
X121225380Y-71397278D01*
X121225384Y-71397273D01*
X121225389Y-71397270D01*
X121397270Y-71225389D01*
X121397273Y-71225384D01*
X121397278Y-71225380D01*
X121545269Y-71032516D01*
X121666819Y-70821984D01*
X121759850Y-70597388D01*
X121822769Y-70362571D01*
X121854500Y-70121550D01*
X121854500Y-69878456D01*
X184145500Y-69878456D01*
X184145500Y-70121543D01*
X184145501Y-70121559D01*
X184177230Y-70362569D01*
X184240149Y-70597386D01*
X184333175Y-70821972D01*
X184333182Y-70821987D01*
X184454730Y-71032516D01*
X184602722Y-71225380D01*
X184602730Y-71225389D01*
X184774611Y-71397270D01*
X184774619Y-71397277D01*
X184967483Y-71545269D01*
X185178012Y-71666817D01*
X185178027Y-71666824D01*
X185294171Y-71714932D01*
X185402612Y-71759850D01*
X185637429Y-71822769D01*
X185878450Y-71854500D01*
X185878457Y-71854500D01*
X186121543Y-71854500D01*
X186121550Y-71854500D01*
X186362571Y-71822769D01*
X186597388Y-71759850D01*
X186821984Y-71666819D01*
X187032516Y-71545269D01*
X187225380Y-71397278D01*
X187225384Y-71397273D01*
X187225389Y-71397270D01*
X187397270Y-71225389D01*
X187397273Y-71225384D01*
X187397278Y-71225380D01*
X187545269Y-71032516D01*
X187666819Y-70821984D01*
X187759850Y-70597388D01*
X187822769Y-70362571D01*
X187854500Y-70121550D01*
X187854500Y-69878450D01*
X187822769Y-69637429D01*
X187759850Y-69402612D01*
X187666819Y-69178016D01*
X187666817Y-69178012D01*
X187545269Y-68967483D01*
X187397277Y-68774619D01*
X187397270Y-68774611D01*
X187225389Y-68602730D01*
X187225380Y-68602722D01*
X187032516Y-68454730D01*
X186821987Y-68333182D01*
X186821972Y-68333175D01*
X186597386Y-68240149D01*
X186362569Y-68177230D01*
X186121559Y-68145501D01*
X186121556Y-68145500D01*
X186121550Y-68145500D01*
X185878450Y-68145500D01*
X185878444Y-68145500D01*
X185878440Y-68145501D01*
X185637430Y-68177230D01*
X185402613Y-68240149D01*
X185178027Y-68333175D01*
X185178012Y-68333182D01*
X184967483Y-68454730D01*
X184774619Y-68602722D01*
X184602722Y-68774619D01*
X184454730Y-68967483D01*
X184333182Y-69178012D01*
X184333175Y-69178027D01*
X184240149Y-69402613D01*
X184177230Y-69637430D01*
X184145501Y-69878440D01*
X184145500Y-69878456D01*
X121854500Y-69878456D01*
X121854500Y-69878450D01*
X121822769Y-69637429D01*
X121759850Y-69402612D01*
X121666819Y-69178016D01*
X121666817Y-69178012D01*
X121545269Y-68967483D01*
X121397277Y-68774619D01*
X121397270Y-68774611D01*
X121225389Y-68602730D01*
X121225380Y-68602722D01*
X121032516Y-68454730D01*
X120821987Y-68333182D01*
X120821972Y-68333175D01*
X120597386Y-68240149D01*
X120362569Y-68177230D01*
X120121559Y-68145501D01*
X120121556Y-68145500D01*
X120121550Y-68145500D01*
X119878450Y-68145500D01*
X119878444Y-68145500D01*
X119878440Y-68145501D01*
X119637430Y-68177230D01*
X119402613Y-68240149D01*
X119178027Y-68333175D01*
X119178012Y-68333182D01*
X118967483Y-68454730D01*
X118774619Y-68602722D01*
X118602722Y-68774619D01*
X118454730Y-68967483D01*
X118333182Y-69178012D01*
X118333175Y-69178027D01*
X118240149Y-69402613D01*
X118177230Y-69637430D01*
X118145501Y-69878440D01*
X118145500Y-69878456D01*
X116506471Y-69878456D01*
X116517052Y-69663072D01*
X116518245Y-69650962D01*
X116520252Y-69637429D01*
X116566849Y-69323296D01*
X116569218Y-69311385D01*
X116649710Y-68990043D01*
X116653240Y-68978411D01*
X116657150Y-68967483D01*
X116764835Y-68666525D01*
X116769476Y-68655318D01*
X116911124Y-68355828D01*
X116916840Y-68345136D01*
X117087145Y-68060998D01*
X117093888Y-68050905D01*
X117291232Y-67784818D01*
X117298935Y-67775433D01*
X117521405Y-67529975D01*
X117529975Y-67521405D01*
X117775433Y-67298935D01*
X117784818Y-67291232D01*
X118050905Y-67093888D01*
X118060998Y-67087145D01*
X118345136Y-66916840D01*
X118355828Y-66911124D01*
X118655318Y-66769476D01*
X118666525Y-66764835D01*
X118978412Y-66653239D01*
X118990043Y-66649710D01*
X119311385Y-66569218D01*
X119323296Y-66566849D01*
X119650962Y-66518244D01*
X119663068Y-66517052D01*
X119996967Y-66500648D01*
X120003051Y-66500500D01*
X120065892Y-66500500D01*
X185934108Y-66500500D01*
X185996949Y-66500500D01*
X186003032Y-66500648D01*
G37*
%TD.AperFunction*%
%TD*%
M02*
