M48
; DRILL file {KiCad 8.0.2} date 2024-05-29T18:12:23+1200
; FORMAT={-:-/ absolute / metric / decimal}
; #@! TF.CreationDate,2024-05-29T18:12:23+12:00
; #@! TF.GenerationSoftware,Kicad,Pcbnew,8.0.2
; #@! TF.FileFunction,Plated,1,2,PTH
FMAT,2
METRIC
; #@! TA.AperFunction,Plated,PTH,ViaDrill
T1C0.300
; #@! TA.AperFunction,Plated,PTH,ViaDrill
T2C0.500
; #@! TA.AperFunction,Plated,PTH,ComponentDrill
T3C0.600
; #@! TA.AperFunction,Plated,PTH,ViaDrill
T4C0.800
; #@! TA.AperFunction,Plated,PTH,ComponentDrill
T5C0.800
; #@! TA.AperFunction,Plated,PTH,ComponentDrill
T6C1.000
; #@! TA.AperFunction,Plated,PTH,ComponentDrill
T7C1.900
%
G90
G05
T1
X123.5Y-88.9
X129.5Y-98.5
X130.4Y-89.5
X131.5Y-97.5
X132.6Y-102.7
X135.7Y-96.3
X139.5Y-96.3
X143.2Y-96.3
X147.2Y-88.6
X148.2Y-95.3
X151.5Y-74.8
X151.8Y-90.3
X152.0Y-83.1
X153.9Y-77.6
X153.9Y-87.6
X153.9Y-93.9
X155.4Y-79.1
X155.5Y-76.7
X155.5Y-84.8
X156.1Y-78.4
X156.8Y-96.1
X157.0Y-89.7
X157.1Y-92.4
X157.7Y-74.8
X158.2Y-92.7
X158.3Y-96.1
X159.4Y-90.6
X162.2Y-83.6
X162.2Y-86.3
X163.1Y-83.6
X163.1Y-86.4
T2
X160.5Y-82.1
X164.1Y-96.1
X170.9Y-87.3
T4
X130.0Y-84.5
X151.806Y-69.964
X151.806Y-73.012
X157.394Y-73.012
X169.202Y-75.434
X171.234Y-73.402
X171.234Y-75.434
T5
X170.28Y-94.975
X173.28Y-94.975
T6
X126.0Y-98.5
X126.0Y-101.04
X135.97Y-101.1
X137.3Y-91.1
X137.3Y-93.64
X138.51Y-101.1
X141.05Y-91.1
X141.05Y-93.64
X141.05Y-101.1
X143.59Y-101.1
X144.75Y-91.1
X144.75Y-93.64
X146.13Y-101.1
X151.06Y-85.8
X153.6Y-85.8
X162.86Y-79.7
X165.4Y-79.7
X167.94Y-79.7
X170.48Y-79.7
X176.4Y-74.44
X176.4Y-76.98
X176.4Y-79.52
X176.4Y-82.06
X176.4Y-84.6
X176.4Y-87.14
X176.4Y-89.68
X176.4Y-92.22
X176.4Y-94.76
X176.4Y-97.3
T7
X125.95Y-77.0
X147.05Y-77.0
T3
G00X150.28Y-67.94
M15
G01X150.28Y-67.34
M16
G05
G00X150.28Y-71.74
M15
G01X150.28Y-71.14
M16
G05
G00X158.92Y-67.94
M15
G01X158.92Y-67.34
M16
G05
G00X158.92Y-71.74
M15
G01X158.92Y-71.14
M16
G05
M30
