%TF.GenerationSoftware,KiCad,Pcbnew,8.0.2*%
%TF.CreationDate,2024-05-29T18:12:24+12:00*%
%TF.ProjectId,microcontroller,6d696372-6f63-46f6-9e74-726f6c6c6572,0.1.0*%
%TF.SameCoordinates,Original*%
%TF.FileFunction,Copper,L1,Top*%
%TF.FilePolarity,Positive*%
%FSLAX46Y46*%
G04 Gerber Fmt 4.6, Leading zero omitted, Abs format (unit mm)*
G04 Created by KiCad (PCBNEW 8.0.2) date 2024-05-29 18:12:24*
%MOMM*%
%LPD*%
G01*
G04 APERTURE LIST*
G04 Aperture macros list*
%AMRoundRect*
0 Rectangle with rounded corners*
0 $1 Rounding radius*
0 $2 $3 $4 $5 $6 $7 $8 $9 X,Y pos of 4 corners*
0 Add a 4 corners polygon primitive as box body*
4,1,4,$2,$3,$4,$5,$6,$7,$8,$9,$2,$3,0*
0 Add four circle primitives for the rounded corners*
1,1,$1+$1,$2,$3*
1,1,$1+$1,$4,$5*
1,1,$1+$1,$6,$7*
1,1,$1+$1,$8,$9*
0 Add four rect primitives between the rounded corners*
20,1,$1+$1,$2,$3,$4,$5,0*
20,1,$1+$1,$4,$5,$6,$7,0*
20,1,$1+$1,$6,$7,$8,$9,0*
20,1,$1+$1,$8,$9,$2,$3,0*%
G04 Aperture macros list end*
%TA.AperFunction,SMDPad,CuDef*%
%ADD10RoundRect,0.250000X-0.475000X0.250000X-0.475000X-0.250000X0.475000X-0.250000X0.475000X0.250000X0*%
%TD*%
%TA.AperFunction,SMDPad,CuDef*%
%ADD11RoundRect,0.079500X-0.910500X-0.185500X0.910500X-0.185500X0.910500X0.185500X-0.910500X0.185500X0*%
%TD*%
%TA.AperFunction,SMDPad,CuDef*%
%ADD12RoundRect,0.175000X0.175000X0.425000X-0.175000X0.425000X-0.175000X-0.425000X0.175000X-0.425000X0*%
%TD*%
%TA.AperFunction,SMDPad,CuDef*%
%ADD13RoundRect,0.190000X-0.190000X-0.410000X0.190000X-0.410000X0.190000X0.410000X-0.190000X0.410000X0*%
%TD*%
%TA.AperFunction,SMDPad,CuDef*%
%ADD14RoundRect,0.200000X-0.200000X-0.400000X0.200000X-0.400000X0.200000X0.400000X-0.200000X0.400000X0*%
%TD*%
%TA.AperFunction,SMDPad,CuDef*%
%ADD15RoundRect,0.175000X-0.175000X-0.425000X0.175000X-0.425000X0.175000X0.425000X-0.175000X0.425000X0*%
%TD*%
%TA.AperFunction,SMDPad,CuDef*%
%ADD16RoundRect,0.190000X0.190000X0.410000X-0.190000X0.410000X-0.190000X-0.410000X0.190000X-0.410000X0*%
%TD*%
%TA.AperFunction,SMDPad,CuDef*%
%ADD17RoundRect,0.200000X0.200000X0.400000X-0.200000X0.400000X-0.200000X-0.400000X0.200000X-0.400000X0*%
%TD*%
%TA.AperFunction,ComponentPad*%
%ADD18O,1.100000X1.700000*%
%TD*%
%TA.AperFunction,SMDPad,CuDef*%
%ADD19RoundRect,0.225000X0.250000X-0.225000X0.250000X0.225000X-0.250000X0.225000X-0.250000X-0.225000X0*%
%TD*%
%TA.AperFunction,ComponentPad*%
%ADD20R,1.700000X1.700000*%
%TD*%
%TA.AperFunction,ComponentPad*%
%ADD21O,1.700000X1.700000*%
%TD*%
%TA.AperFunction,SMDPad,CuDef*%
%ADD22RoundRect,0.200000X0.200000X0.275000X-0.200000X0.275000X-0.200000X-0.275000X0.200000X-0.275000X0*%
%TD*%
%TA.AperFunction,SMDPad,CuDef*%
%ADD23RoundRect,0.218750X0.256250X-0.218750X0.256250X0.218750X-0.256250X0.218750X-0.256250X-0.218750X0*%
%TD*%
%TA.AperFunction,SMDPad,CuDef*%
%ADD24RoundRect,0.250000X-0.250000X-0.475000X0.250000X-0.475000X0.250000X0.475000X-0.250000X0.475000X0*%
%TD*%
%TA.AperFunction,SMDPad,CuDef*%
%ADD25RoundRect,0.200000X-0.275000X0.200000X-0.275000X-0.200000X0.275000X-0.200000X0.275000X0.200000X0*%
%TD*%
%TA.AperFunction,SMDPad,CuDef*%
%ADD26RoundRect,0.225000X-0.250000X0.225000X-0.250000X-0.225000X0.250000X-0.225000X0.250000X0.225000X0*%
%TD*%
%TA.AperFunction,SMDPad,CuDef*%
%ADD27RoundRect,0.200000X-0.200000X-0.275000X0.200000X-0.275000X0.200000X0.275000X-0.200000X0.275000X0*%
%TD*%
%TA.AperFunction,ComponentPad*%
%ADD28C,2.600000*%
%TD*%
%TA.AperFunction,SMDPad,CuDef*%
%ADD29C,17.900000*%
%TD*%
%TA.AperFunction,SMDPad,CuDef*%
%ADD30RoundRect,0.218750X0.218750X0.256250X-0.218750X0.256250X-0.218750X-0.256250X0.218750X-0.256250X0*%
%TD*%
%TA.AperFunction,SMDPad,CuDef*%
%ADD31RoundRect,0.225000X-0.225000X-0.250000X0.225000X-0.250000X0.225000X0.250000X-0.225000X0.250000X0*%
%TD*%
%TA.AperFunction,ComponentPad*%
%ADD32C,1.600000*%
%TD*%
%TA.AperFunction,SMDPad,CuDef*%
%ADD33RoundRect,0.200000X0.275000X-0.200000X0.275000X0.200000X-0.275000X0.200000X-0.275000X-0.200000X0*%
%TD*%
%TA.AperFunction,SMDPad,CuDef*%
%ADD34RoundRect,0.375000X0.625000X0.375000X-0.625000X0.375000X-0.625000X-0.375000X0.625000X-0.375000X0*%
%TD*%
%TA.AperFunction,SMDPad,CuDef*%
%ADD35RoundRect,0.500000X0.500000X1.400000X-0.500000X1.400000X-0.500000X-1.400000X0.500000X-1.400000X0*%
%TD*%
%TA.AperFunction,SMDPad,CuDef*%
%ADD36RoundRect,0.225000X0.225000X0.250000X-0.225000X0.250000X-0.225000X-0.250000X0.225000X-0.250000X0*%
%TD*%
%TA.AperFunction,SMDPad,CuDef*%
%ADD37RoundRect,0.075000X-0.662500X-0.075000X0.662500X-0.075000X0.662500X0.075000X-0.662500X0.075000X0*%
%TD*%
%TA.AperFunction,SMDPad,CuDef*%
%ADD38RoundRect,0.075000X-0.075000X-0.662500X0.075000X-0.662500X0.075000X0.662500X-0.075000X0.662500X0*%
%TD*%
%TA.AperFunction,SMDPad,CuDef*%
%ADD39R,1.400000X1.200000*%
%TD*%
%TA.AperFunction,ViaPad*%
%ADD40C,0.600000*%
%TD*%
%TA.AperFunction,ViaPad*%
%ADD41C,1.600000*%
%TD*%
%TA.AperFunction,ViaPad*%
%ADD42C,1.000000*%
%TD*%
%TA.AperFunction,Conductor*%
%ADD43C,0.300000*%
%TD*%
%TA.AperFunction,Conductor*%
%ADD44C,0.130000*%
%TD*%
%TA.AperFunction,Conductor*%
%ADD45C,0.500000*%
%TD*%
%TA.AperFunction,Conductor*%
%ADD46C,0.800000*%
%TD*%
%TA.AperFunction,Conductor*%
%ADD47C,1.200000*%
%TD*%
G04 APERTURE END LIST*
D10*
%TO.P,C10,1*%
%TO.N,VBUS*%
X171869000Y-69912000D03*
%TO.P,C10,2*%
%TO.N,GND*%
X171869000Y-71812000D03*
%TD*%
D11*
%TO.P,U1,1,32KHZ*%
%TO.N,unconnected-(U1-32KHZ-Pad1)*%
X125465000Y-90181000D03*
%TO.P,U1,2,VCC*%
%TO.N,+3V3*%
X125465000Y-91451000D03*
%TO.P,U1,3,~{INT}/SQW*%
%TO.N,unconnected-(U1-~{INT}{slash}SQW-Pad3)*%
X125465000Y-92721000D03*
%TO.P,U1,4,~{RST}*%
%TO.N,unconnected-(U1-~{RST}-Pad4)*%
X125465000Y-93991000D03*
%TO.P,U1,5,GND*%
%TO.N,GND*%
X130395000Y-90181000D03*
%TO.P,U1,6,VBAT*%
%TO.N,+BATT*%
X130395000Y-91451000D03*
%TO.P,U1,7,SDA*%
%TO.N,SDA*%
X130395000Y-92721000D03*
%TO.P,U1,8,SCL*%
%TO.N,SCL*%
X130395000Y-93991000D03*
%TD*%
D12*
%TO.P,J3,A5,CC1*%
%TO.N,USB_CC1*%
X155100000Y-71520000D03*
D13*
%TO.P,J3,A9,VBUS*%
%TO.N,VBUS*%
X153080000Y-71520000D03*
D14*
%TO.P,J3,A12,GND*%
%TO.N,GND*%
X151850000Y-71520000D03*
D15*
%TO.P,J3,B5,CC2*%
%TO.N,USB_CC2*%
X154100000Y-71520000D03*
D16*
%TO.P,J3,B9,VBUS*%
%TO.N,VBUS*%
X156120000Y-71520000D03*
D17*
%TO.P,J3,B12,GND*%
%TO.N,GND*%
X157350000Y-71520000D03*
D18*
%TO.P,J3,S1,SHIELD*%
%TO.N,unconnected-(J3-SHIELD-PadS1)*%
X158920000Y-71440000D03*
%TO.N,unconnected-(J3-SHIELD-PadS1)_1*%
X158920000Y-67640000D03*
%TO.N,unconnected-(J3-SHIELD-PadS1)_2*%
X150280000Y-71440000D03*
%TO.N,unconnected-(J3-SHIELD-PadS1)_0*%
X150280000Y-67640000D03*
%TD*%
D19*
%TO.P,C13,1*%
%TO.N,HSE_IN*%
X153900000Y-89975000D03*
%TO.P,C13,2*%
%TO.N,GND*%
X153900000Y-88425000D03*
%TD*%
D20*
%TO.P,SW1,1,A*%
%TO.N,+3V3*%
X137300000Y-91100000D03*
D21*
%TO.P,SW1,2,B*%
%TO.N,POWER_SW*%
X137300000Y-93640000D03*
%TD*%
D22*
%TO.P,R7,1*%
%TO.N,/BOOT0*%
X157525000Y-83100000D03*
%TO.P,R7,2*%
%TO.N,/JMP_BOOT0*%
X155875000Y-83100000D03*
%TD*%
D20*
%TO.P,J4,1,Pin_1*%
%TO.N,GND*%
X162860000Y-79700000D03*
D21*
%TO.P,J4,2,Pin_2*%
%TO.N,/SWCLK*%
X165400000Y-79700000D03*
%TO.P,J4,3,Pin_3*%
%TO.N,/SWDIO*%
X167940000Y-79700000D03*
%TO.P,J4,4,Pin_4*%
%TO.N,+3V3*%
X170480000Y-79700000D03*
%TD*%
D23*
%TO.P,D1,1,K*%
%TO.N,/PWR_LED_K*%
X128700000Y-102650000D03*
%TO.P,D1,2,A*%
%TO.N,/PWR_LED_A*%
X128700000Y-101075000D03*
%TD*%
D24*
%TO.P,C11,1*%
%TO.N,+3V3*%
X165204000Y-75688000D03*
%TO.P,C11,2*%
%TO.N,GND*%
X167104000Y-75688000D03*
%TD*%
D25*
%TO.P,R11,1*%
%TO.N,SCL*%
X132400000Y-94075000D03*
%TO.P,R11,2*%
%TO.N,+3V3*%
X132400000Y-95725000D03*
%TD*%
D20*
%TO.P,JP1,1,A*%
%TO.N,+3V3*%
X126000000Y-98500000D03*
D21*
%TO.P,JP1,2,B*%
%TO.N,/PWR_LED_A*%
X126000000Y-101040000D03*
%TD*%
D20*
%TO.P,J1,1,Pin_1*%
%TO.N,GND*%
X146130000Y-101100000D03*
D21*
%TO.P,J1,2,Pin_2*%
%TO.N,SECOND_SW_H*%
X143590000Y-101100000D03*
%TO.P,J1,3,Pin_3*%
%TO.N,MINUTE_SW_H*%
X141050000Y-101100000D03*
%TO.P,J1,4,Pin_4*%
%TO.N,HOUR_SW_H*%
X138510000Y-101100000D03*
%TO.P,J1,5,Pin_5*%
%TO.N,+3V3*%
X135970000Y-101100000D03*
%TD*%
D26*
%TO.P,C6,1*%
%TO.N,+3V3*%
X168300000Y-85825000D03*
%TO.P,C6,2*%
%TO.N,GND*%
X168300000Y-87375000D03*
%TD*%
D27*
%TO.P,R9,1*%
%TO.N,GND*%
X152251000Y-74790000D03*
%TO.P,R9,2*%
%TO.N,USB_CC2*%
X153901000Y-74790000D03*
%TD*%
D28*
%TO.P,BT1,1,+*%
%TO.N,+BATT*%
X125950000Y-77000000D03*
X147050000Y-77000000D03*
D29*
%TO.P,BT1,2,-*%
%TO.N,GND*%
X136500000Y-77000000D03*
%TD*%
D26*
%TO.P,C7,1*%
%TO.N,+3.3VA*%
X156300000Y-90625000D03*
%TO.P,C7,2*%
%TO.N,GND*%
X156300000Y-92175000D03*
%TD*%
%TO.P,C2,1*%
%TO.N,+3V3*%
X169900000Y-85825000D03*
%TO.P,C2,2*%
%TO.N,GND*%
X169900000Y-87375000D03*
%TD*%
D20*
%TO.P,J2,1,Pin_1*%
%TO.N,GND*%
X176400000Y-97300000D03*
D21*
%TO.P,J2,2,Pin_2*%
X176400000Y-94760000D03*
%TO.P,J2,3,Pin_3*%
X176400000Y-92220000D03*
%TO.P,J2,4,Pin_4*%
%TO.N,LATCH*%
X176400000Y-89680000D03*
%TO.P,J2,5,Pin_5*%
%TO.N,CLK*%
X176400000Y-87140000D03*
%TO.P,J2,6,Pin_6*%
%TO.N,OE*%
X176400000Y-84600000D03*
%TO.P,J2,7,Pin_7*%
%TO.N,SER*%
X176400000Y-82060000D03*
%TO.P,J2,8,Pin_8*%
%TO.N,+3V3*%
X176400000Y-79520000D03*
%TO.P,J2,9,Pin_9*%
%TO.N,VBUS*%
X176400000Y-76980000D03*
%TO.P,J2,10,Pin_10*%
X176400000Y-74440000D03*
%TD*%
D19*
%TO.P,C1,1*%
%TO.N,+3V3*%
X123500000Y-91275000D03*
%TO.P,C1,2*%
%TO.N,GND*%
X123500000Y-89725000D03*
%TD*%
D30*
%TO.P,FB1,1*%
%TO.N,+3.3VA*%
X153687500Y-95300000D03*
%TO.P,FB1,2*%
%TO.N,+3V3*%
X152112500Y-95300000D03*
%TD*%
D19*
%TO.P,C5,1*%
%TO.N,+3V3*%
X156300000Y-86375000D03*
%TO.P,C5,2*%
%TO.N,GND*%
X156300000Y-84825000D03*
%TD*%
D31*
%TO.P,C8,1*%
%TO.N,+3.3VA*%
X155225000Y-95300000D03*
%TO.P,C8,2*%
%TO.N,GND*%
X156775000Y-95300000D03*
%TD*%
D32*
%TO.P,R5,1*%
%TO.N,LDR*%
X170280000Y-94975000D03*
%TO.P,R5,2*%
%TO.N,GND*%
X173280000Y-94975000D03*
%TD*%
D33*
%TO.P,R12,1*%
%TO.N,SDA*%
X132400000Y-92625000D03*
%TO.P,R12,2*%
%TO.N,+3V3*%
X132400000Y-90975000D03*
%TD*%
D20*
%TO.P,JP2,1,A*%
%TO.N,+3V3*%
X151060000Y-85800000D03*
D21*
%TO.P,JP2,2,B*%
%TO.N,/JMP_BOOT0*%
X153600000Y-85800000D03*
%TD*%
D27*
%TO.P,R2,1*%
%TO.N,GND*%
X140225000Y-96300000D03*
%TO.P,R2,2*%
%TO.N,MODE_SW*%
X141875000Y-96300000D03*
%TD*%
D34*
%TO.P,U2,1,GND*%
%TO.N,GND*%
X169304000Y-73162000D03*
%TO.P,U2,2,VO*%
%TO.N,+3V3*%
X169304000Y-70862000D03*
D35*
X163004000Y-70862000D03*
D34*
%TO.P,U2,3,VI*%
%TO.N,VBUS*%
X169304000Y-68562000D03*
%TD*%
D36*
%TO.P,C3,1*%
%TO.N,+3V3*%
X165675000Y-95100000D03*
%TO.P,C3,2*%
%TO.N,GND*%
X164125000Y-95100000D03*
%TD*%
D27*
%TO.P,R8,1*%
%TO.N,GND*%
X152800000Y-83100000D03*
%TO.P,R8,2*%
%TO.N,/JMP_BOOT0*%
X154450000Y-83100000D03*
%TD*%
D31*
%TO.P,C4,1*%
%TO.N,+3V3*%
X159025000Y-83100000D03*
%TO.P,C4,2*%
%TO.N,GND*%
X160575000Y-83100000D03*
%TD*%
D20*
%TO.P,SW2,1,A*%
%TO.N,+3V3*%
X141050000Y-91100000D03*
D21*
%TO.P,SW2,2,B*%
%TO.N,MODE_SW*%
X141050000Y-93640000D03*
%TD*%
D27*
%TO.P,R1,1*%
%TO.N,GND*%
X136475000Y-96300000D03*
%TO.P,R1,2*%
%TO.N,POWER_SW*%
X138125000Y-96300000D03*
%TD*%
D37*
%TO.P,U3,1,VBAT*%
%TO.N,+3V3*%
X158137500Y-86350000D03*
%TO.P,U3,2,PC13*%
%TO.N,unconnected-(U3-PC13-Pad2)*%
X158137500Y-86850000D03*
%TO.P,U3,3,PC14*%
%TO.N,unconnected-(U3-PC14-Pad3)*%
X158137500Y-87350000D03*
%TO.P,U3,4,PC15*%
%TO.N,unconnected-(U3-PC15-Pad4)*%
X158137500Y-87850000D03*
%TO.P,U3,5,PD0*%
%TO.N,HSE_IN*%
X158137500Y-88350000D03*
%TO.P,U3,6,PD1*%
%TO.N,HSE_OUT*%
X158137500Y-88850000D03*
%TO.P,U3,7,NRST*%
%TO.N,/NRST*%
X158137500Y-89350000D03*
%TO.P,U3,8,VSSA*%
%TO.N,GND*%
X158137500Y-89850000D03*
%TO.P,U3,9,VDDA*%
%TO.N,+3.3VA*%
X158137500Y-90350000D03*
%TO.P,U3,10,PA0*%
%TO.N,unconnected-(U3-PA0-Pad10)*%
X158137500Y-90850000D03*
%TO.P,U3,11,PA1*%
%TO.N,USB_CC2*%
X158137500Y-91350000D03*
%TO.P,U3,12,PA2*%
%TO.N,USB_CC1*%
X158137500Y-91850000D03*
D38*
%TO.P,U3,13,PA3*%
%TO.N,ADJUST_SW*%
X159550000Y-93262500D03*
%TO.P,U3,14,PA4*%
%TO.N,MODE_SW*%
X160050000Y-93262500D03*
%TO.P,U3,15,PA5*%
%TO.N,POWER_SW*%
X160550000Y-93262500D03*
%TO.P,U3,16,PA6*%
%TO.N,HOUR_SW_H*%
X161050000Y-93262500D03*
%TO.P,U3,17,PA7*%
%TO.N,MINUTE_SW_H*%
X161550000Y-93262500D03*
%TO.P,U3,18,PB0*%
%TO.N,SECOND_SW_H*%
X162050000Y-93262500D03*
%TO.P,U3,19,PB1*%
%TO.N,LDR*%
X162550000Y-93262500D03*
%TO.P,U3,20,PB2*%
%TO.N,unconnected-(U3-PB2-Pad20)*%
X163050000Y-93262500D03*
%TO.P,U3,21,PB10*%
%TO.N,SCL*%
X163550000Y-93262500D03*
%TO.P,U3,22,PB11*%
%TO.N,SDA*%
X164050000Y-93262500D03*
%TO.P,U3,23,VSS*%
%TO.N,GND*%
X164550000Y-93262500D03*
%TO.P,U3,24,VDD*%
%TO.N,+3V3*%
X165050000Y-93262500D03*
D37*
%TO.P,U3,25,PB12*%
%TO.N,LATCH*%
X166462500Y-91850000D03*
%TO.P,U3,26,PB13*%
%TO.N,CLK*%
X166462500Y-91350000D03*
%TO.P,U3,27,PB14*%
%TO.N,OE*%
X166462500Y-90850000D03*
%TO.P,U3,28,PB15*%
%TO.N,SER*%
X166462500Y-90350000D03*
%TO.P,U3,29,PA8*%
%TO.N,unconnected-(U3-PA8-Pad29)*%
X166462500Y-89850000D03*
%TO.P,U3,30,PA9*%
%TO.N,unconnected-(U3-PA9-Pad30)*%
X166462500Y-89350000D03*
%TO.P,U3,31,PA10*%
%TO.N,unconnected-(U3-PA10-Pad31)*%
X166462500Y-88850000D03*
%TO.P,U3,32,PA11*%
%TO.N,unconnected-(U3-PA11-Pad32)*%
X166462500Y-88350000D03*
%TO.P,U3,33,PA12*%
%TO.N,unconnected-(U3-PA12-Pad33)*%
X166462500Y-87850000D03*
%TO.P,U3,34,PA13*%
%TO.N,/SWDIO*%
X166462500Y-87350000D03*
%TO.P,U3,35,VSS*%
%TO.N,GND*%
X166462500Y-86850000D03*
%TO.P,U3,36,VDD*%
%TO.N,+3V3*%
X166462500Y-86350000D03*
D38*
%TO.P,U3,37,PA14*%
%TO.N,/SWCLK*%
X165050000Y-84937500D03*
%TO.P,U3,38,PA15*%
%TO.N,unconnected-(U3-PA15-Pad38)*%
X164550000Y-84937500D03*
%TO.P,U3,39,PB3*%
%TO.N,unconnected-(U3-PB3-Pad39)*%
X164050000Y-84937500D03*
%TO.P,U3,40,PB4*%
%TO.N,unconnected-(U3-PB4-Pad40)*%
X163550000Y-84937500D03*
%TO.P,U3,41,PB5*%
%TO.N,unconnected-(U3-PB5-Pad41)*%
X163050000Y-84937500D03*
%TO.P,U3,42,PB6*%
%TO.N,unconnected-(U3-PB6-Pad42)*%
X162550000Y-84937500D03*
%TO.P,U3,43,PB7*%
%TO.N,unconnected-(U3-PB7-Pad43)*%
X162050000Y-84937500D03*
%TO.P,U3,44,BOOT0*%
%TO.N,/BOOT0*%
X161550000Y-84937500D03*
%TO.P,U3,45,PB8*%
%TO.N,unconnected-(U3-PB8-Pad45)*%
X161050000Y-84937500D03*
%TO.P,U3,46,PB9*%
%TO.N,unconnected-(U3-PB9-Pad46)*%
X160550000Y-84937500D03*
%TO.P,U3,47,VSS*%
%TO.N,GND*%
X160050000Y-84937500D03*
%TO.P,U3,48,VDD*%
%TO.N,+3V3*%
X159550000Y-84937500D03*
%TD*%
D33*
%TO.P,R4,1*%
%TO.N,+3V3*%
X168240000Y-96620000D03*
%TO.P,R4,2*%
%TO.N,LDR*%
X168240000Y-94970000D03*
%TD*%
D27*
%TO.P,R6,1*%
%TO.N,/PWR_LED_K*%
X130200000Y-102675000D03*
%TO.P,R6,2*%
%TO.N,GND*%
X131850000Y-102675000D03*
%TD*%
D36*
%TO.P,C9,1*%
%TO.N,+3V3*%
X150575000Y-95300000D03*
%TO.P,C9,2*%
%TO.N,GND*%
X149025000Y-95300000D03*
%TD*%
D27*
%TO.P,R3,1*%
%TO.N,GND*%
X143925000Y-96300000D03*
%TO.P,R3,2*%
%TO.N,ADJUST_SW*%
X145575000Y-96300000D03*
%TD*%
D26*
%TO.P,C12,1*%
%TO.N,/NRST*%
X158300000Y-93725000D03*
%TO.P,C12,2*%
%TO.N,GND*%
X158300000Y-95275000D03*
%TD*%
%TO.P,C14,1*%
%TO.N,HSE_OUT*%
X153900000Y-91525000D03*
%TO.P,C14,2*%
%TO.N,GND*%
X153900000Y-93075000D03*
%TD*%
D39*
%TO.P,Y1,1,1*%
%TO.N,HSE_IN*%
X150500000Y-88650000D03*
%TO.P,Y1,2,2*%
%TO.N,GND*%
X148300000Y-88650000D03*
%TO.P,Y1,3,3*%
%TO.N,HSE_OUT*%
X148300000Y-90350000D03*
%TO.P,Y1,4,4*%
%TO.N,GND*%
X150500000Y-90350000D03*
%TD*%
D22*
%TO.P,R10,1*%
%TO.N,GND*%
X156949000Y-74790000D03*
%TO.P,R10,2*%
%TO.N,USB_CC1*%
X155299000Y-74790000D03*
%TD*%
D20*
%TO.P,SW3,1,A*%
%TO.N,+3V3*%
X144750000Y-91100000D03*
D21*
%TO.P,SW3,2,B*%
%TO.N,ADJUST_SW*%
X144750000Y-93640000D03*
%TD*%
D40*
%TO.N,GND*%
X135700000Y-96300000D03*
D41*
X171234000Y-75434000D03*
D40*
X143200000Y-96300000D03*
X151800000Y-90300000D03*
X147200000Y-88600000D03*
X152000000Y-83100000D03*
X156800000Y-96100000D03*
X130400000Y-89500000D03*
D41*
X157394000Y-73012000D03*
D42*
X170900000Y-87300000D03*
D41*
X151806000Y-73012000D03*
D40*
X158300000Y-96100000D03*
X157700000Y-74800000D03*
X132600000Y-102700000D03*
D42*
X160500000Y-82100000D03*
D41*
X151806000Y-69964000D03*
D40*
X153900000Y-93900000D03*
X155500000Y-84800000D03*
X139500000Y-96300000D03*
X157000000Y-89700000D03*
D42*
X164100000Y-96100000D03*
D40*
X151500000Y-74800000D03*
D41*
X171234000Y-73402000D03*
X130000000Y-84500000D03*
D40*
X148200000Y-95300000D03*
X153900000Y-87600000D03*
X123500000Y-88900000D03*
D41*
X169202000Y-75434000D03*
D40*
X157100000Y-92400000D03*
%TO.N,+3V3*%
X129500000Y-98500000D03*
X131500000Y-97500000D03*
%TO.N,/NRST*%
X158200000Y-92700000D03*
X159400000Y-90600000D03*
%TO.N,USB_CC2*%
X155400000Y-79100000D03*
X153900000Y-77600000D03*
X162200000Y-86300000D03*
X162200000Y-83600000D03*
%TO.N,USB_CC1*%
X155500000Y-76700000D03*
X163100000Y-86400000D03*
X163100000Y-83600000D03*
X156100000Y-78400000D03*
%TD*%
D43*
%TO.N,GND*%
X152800000Y-83100000D02*
X152000000Y-83100000D01*
D44*
X152251000Y-74790000D02*
X151510000Y-74790000D01*
D45*
X164125000Y-96075000D02*
X164100000Y-96100000D01*
D43*
X131850000Y-102675000D02*
X132575000Y-102675000D01*
X164550000Y-94050000D02*
X164125000Y-94475000D01*
X157150000Y-89850000D02*
X157000000Y-89700000D01*
X155525000Y-84825000D02*
X155500000Y-84800000D01*
D45*
X169900000Y-87375000D02*
X168300000Y-87375000D01*
D43*
X130395000Y-90181000D02*
X130395000Y-89505000D01*
D44*
X136475000Y-96300000D02*
X135700000Y-96300000D01*
D43*
X147250000Y-88650000D02*
X147200000Y-88600000D01*
D46*
X136500000Y-78000000D02*
X130000000Y-84500000D01*
D44*
X156949000Y-74790000D02*
X157690000Y-74790000D01*
D43*
X164550000Y-93262500D02*
X164550000Y-94050000D01*
D45*
X169900000Y-87375000D02*
X170825000Y-87375000D01*
X160575000Y-83100000D02*
X160575000Y-82175000D01*
D43*
X156775000Y-96075000D02*
X156800000Y-96100000D01*
X149025000Y-95300000D02*
X148200000Y-95300000D01*
X156775000Y-95300000D02*
X156775000Y-96075000D01*
X166462500Y-86850000D02*
X167199882Y-86850000D01*
D45*
X160575000Y-82175000D02*
X160500000Y-82100000D01*
D43*
X167199882Y-86850000D02*
X167724882Y-87375000D01*
X160050000Y-84937500D02*
X160050000Y-84150000D01*
D45*
X170825000Y-87375000D02*
X170900000Y-87300000D01*
D43*
X156875000Y-92175000D02*
X157100000Y-92400000D01*
X164125000Y-94475000D02*
X164125000Y-95100000D01*
D46*
X136500000Y-77000000D02*
X136500000Y-78000000D01*
X151850000Y-71520000D02*
X151850000Y-72968000D01*
D43*
X160050000Y-84150000D02*
X160575000Y-83625000D01*
X158300000Y-95275000D02*
X158300000Y-96100000D01*
D46*
X151850000Y-71520000D02*
X151850000Y-70008000D01*
D43*
X151750000Y-90350000D02*
X151800000Y-90300000D01*
X153900000Y-88425000D02*
X153900000Y-87600000D01*
X167724882Y-87375000D02*
X168300000Y-87375000D01*
X123500000Y-89725000D02*
X123500000Y-88900000D01*
X153900000Y-93075000D02*
X153900000Y-93900000D01*
X130395000Y-89505000D02*
X130400000Y-89500000D01*
X160575000Y-83625000D02*
X160575000Y-83100000D01*
D44*
X157690000Y-74790000D02*
X157700000Y-74800000D01*
D46*
X157350000Y-71520000D02*
X157350000Y-72968000D01*
D43*
X158137500Y-89850000D02*
X157150000Y-89850000D01*
X132575000Y-102675000D02*
X132600000Y-102700000D01*
D46*
X151850000Y-72968000D02*
X151806000Y-73012000D01*
D43*
X156300000Y-84825000D02*
X155525000Y-84825000D01*
D46*
X151850000Y-70008000D02*
X151806000Y-69964000D01*
X157350000Y-72968000D02*
X157394000Y-73012000D01*
D44*
X140225000Y-96300000D02*
X139500000Y-96300000D01*
D43*
X156300000Y-92175000D02*
X156875000Y-92175000D01*
X150500000Y-90350000D02*
X151750000Y-90350000D01*
X148300000Y-88650000D02*
X147250000Y-88650000D01*
D44*
X151510000Y-74790000D02*
X151500000Y-74800000D01*
X143925000Y-96300000D02*
X143200000Y-96300000D01*
D45*
X164125000Y-95100000D02*
X164125000Y-96075000D01*
D43*
%TO.N,+BATT*%
X125950000Y-87996000D02*
X125950000Y-77000000D01*
X141604000Y-87996000D02*
X125950000Y-87996000D01*
X147050000Y-77000000D02*
X147050000Y-82550000D01*
X147050000Y-82550000D02*
X141604000Y-87996000D01*
X129405000Y-91451000D02*
X125950000Y-87996000D01*
X130395000Y-91451000D02*
X129405000Y-91451000D01*
D45*
%TO.N,+3V3*%
X168240000Y-96620000D02*
X167727500Y-97132500D01*
D43*
X125465000Y-91451000D02*
X126451000Y-91451000D01*
D45*
X177300000Y-99000000D02*
X169575000Y-99000000D01*
D43*
X152112500Y-95300000D02*
X150575000Y-95300000D01*
D45*
X144750000Y-89450000D02*
X148400000Y-85800000D01*
D43*
X156300000Y-86375000D02*
X155675000Y-87000000D01*
X165050000Y-94050000D02*
X165675000Y-94675000D01*
D45*
X167116000Y-77600000D02*
X155400000Y-77600000D01*
D43*
X126000000Y-98500000D02*
X126000000Y-98000000D01*
D45*
X168400000Y-77600000D02*
X168400000Y-77620000D01*
X167116000Y-77600000D02*
X168400000Y-77600000D01*
D43*
X165050000Y-93262500D02*
X165050000Y-94050000D01*
D45*
X144750000Y-91100000D02*
X146375000Y-91100000D01*
D43*
X132400000Y-96600000D02*
X132400000Y-95725000D01*
D45*
X155400000Y-77600000D02*
X151900000Y-81100000D01*
X133375000Y-95725000D02*
X134200000Y-94900000D01*
X169575000Y-99000000D02*
X167727500Y-97152500D01*
X146375000Y-91100000D02*
X150575000Y-95300000D01*
D43*
X159550000Y-84937500D02*
X159550000Y-84150000D01*
D45*
X157025000Y-81100000D02*
X159025000Y-83100000D01*
D43*
X131500000Y-97500000D02*
X132400000Y-96600000D01*
X158137500Y-86350000D02*
X156325000Y-86350000D01*
X167775000Y-85825000D02*
X168300000Y-85825000D01*
D45*
X176400000Y-79520000D02*
X178000000Y-81120000D01*
X134200000Y-99330000D02*
X135970000Y-101100000D01*
X167727500Y-97152500D02*
X165675000Y-95100000D01*
X134200000Y-91100000D02*
X132525000Y-91100000D01*
D43*
X166462500Y-86350000D02*
X167250000Y-86350000D01*
D45*
X170480000Y-79700000D02*
X176220000Y-79700000D01*
X170480000Y-79700000D02*
X169900000Y-80280000D01*
X134200000Y-94900000D02*
X134200000Y-99330000D01*
D43*
X159025000Y-83625000D02*
X159025000Y-83100000D01*
X123676000Y-91451000D02*
X123500000Y-91275000D01*
D45*
X151900000Y-81100000D02*
X151060000Y-81940000D01*
D43*
X155675000Y-87000000D02*
X152260000Y-87000000D01*
D45*
X167727500Y-97132500D02*
X167727500Y-97152500D01*
X176220000Y-79700000D02*
X176400000Y-79520000D01*
D43*
X127500000Y-96500000D02*
X127500000Y-92500000D01*
X165675000Y-94675000D02*
X165675000Y-95100000D01*
X167250000Y-86350000D02*
X167775000Y-85825000D01*
D45*
X132525000Y-91100000D02*
X132400000Y-90975000D01*
X151900000Y-81100000D02*
X157025000Y-81100000D01*
X178000000Y-81120000D02*
X178000000Y-98300000D01*
X134200000Y-91100000D02*
X134200000Y-94900000D01*
X165204000Y-75688000D02*
X167116000Y-77600000D01*
D43*
X126451000Y-91451000D02*
X127500000Y-92500000D01*
X159550000Y-84150000D02*
X159025000Y-83625000D01*
X125465000Y-91451000D02*
X123676000Y-91451000D01*
D45*
X178000000Y-98300000D02*
X177300000Y-99000000D01*
D43*
X126000000Y-98500000D02*
X129500000Y-98500000D01*
D45*
X137300000Y-91100000D02*
X134200000Y-91100000D01*
X144750000Y-91100000D02*
X144750000Y-89450000D01*
D43*
X156325000Y-86350000D02*
X156300000Y-86375000D01*
X152260000Y-87000000D02*
X151060000Y-85800000D01*
D45*
X169900000Y-85825000D02*
X168300000Y-85825000D01*
X168400000Y-77620000D02*
X170480000Y-79700000D01*
X144750000Y-91100000D02*
X137300000Y-91100000D01*
X132400000Y-95725000D02*
X133375000Y-95725000D01*
X148400000Y-85800000D02*
X151060000Y-85800000D01*
D43*
X126000000Y-98000000D02*
X127500000Y-96500000D01*
D45*
X169900000Y-80280000D02*
X169900000Y-85825000D01*
X151060000Y-81940000D02*
X151060000Y-85800000D01*
D43*
%TO.N,+3.3VA*%
X155225000Y-95300000D02*
X155225000Y-91700000D01*
X155225000Y-91700000D02*
X156300000Y-90625000D01*
X158137500Y-90350000D02*
X156575000Y-90350000D01*
X156575000Y-90350000D02*
X156300000Y-90625000D01*
X153687500Y-95300000D02*
X155225000Y-95300000D01*
D47*
%TO.N,VBUS*%
X168362000Y-68562000D02*
X167400000Y-67600000D01*
D46*
X156120000Y-71520000D02*
X156120000Y-70320000D01*
D47*
X167400000Y-67600000D02*
X173400000Y-67600000D01*
D46*
X156120000Y-70320000D02*
X155400000Y-69600000D01*
X153080000Y-71520000D02*
X153080000Y-70420000D01*
X153900000Y-69600000D02*
X154400000Y-69600000D01*
D47*
X169304000Y-68562000D02*
X168362000Y-68562000D01*
D46*
X153080000Y-70420000D02*
X153900000Y-69600000D01*
D47*
X173400000Y-67600000D02*
X176400000Y-70600000D01*
X176400000Y-70600000D02*
X176400000Y-76980000D01*
X161900000Y-67600000D02*
X159900000Y-69600000D01*
X167400000Y-67600000D02*
X161900000Y-67600000D01*
X159900000Y-69600000D02*
X155400000Y-69600000D01*
D46*
X154400000Y-69600000D02*
X155400000Y-69600000D01*
D44*
%TO.N,/NRST*%
X158200000Y-93625000D02*
X158300000Y-93725000D01*
X158200000Y-92700000D02*
X158200000Y-93625000D01*
X158137500Y-89350000D02*
X158874999Y-89350000D01*
X158874999Y-89350000D02*
X159400000Y-89875001D01*
X159400000Y-89875001D02*
X159400000Y-90600000D01*
%TO.N,HSE_IN*%
X150500000Y-88650000D02*
X152575000Y-88650000D01*
X153900000Y-89975000D02*
X155525000Y-88350000D01*
X153900000Y-89900000D02*
X153900000Y-89975000D01*
X152575000Y-88650000D02*
X153900000Y-89975000D01*
X155525000Y-88350000D02*
X158137500Y-88350000D01*
%TO.N,HSE_OUT*%
X158137500Y-88850000D02*
X156950000Y-88850000D01*
X149475000Y-91525000D02*
X148300000Y-90350000D01*
X156950000Y-88850000D02*
X154275000Y-91525000D01*
X153900000Y-91525000D02*
X149475000Y-91525000D01*
X154275000Y-91525000D02*
X153900000Y-91525000D01*
D43*
%TO.N,/PWR_LED_K*%
X128700000Y-102650000D02*
X130175000Y-102650000D01*
X130175000Y-102650000D02*
X130200000Y-102675000D01*
%TO.N,/PWR_LED_A*%
X126000000Y-101040000D02*
X128665000Y-101040000D01*
X128665000Y-101040000D02*
X128700000Y-101075000D01*
D44*
%TO.N,USB_CC2*%
X155400000Y-79100000D02*
X155600000Y-79300000D01*
X153901000Y-74790000D02*
X153901000Y-76100000D01*
X162200000Y-88600000D02*
X162200000Y-86300000D01*
X155600000Y-79300000D02*
X158900000Y-79300000D01*
X154100000Y-71520000D02*
X154100000Y-74591000D01*
X162200000Y-82600000D02*
X162200000Y-83600000D01*
X159450000Y-91350000D02*
X162200000Y-88600000D01*
X153900000Y-76101000D02*
X153901000Y-76100000D01*
X158900000Y-79300000D02*
X162200000Y-82600000D01*
X153900000Y-77600000D02*
X153900000Y-76101000D01*
X154100000Y-74591000D02*
X153901000Y-74790000D01*
X158137500Y-91350000D02*
X159450000Y-91350000D01*
X153901000Y-76100000D02*
X153901000Y-76101000D01*
%TO.N,USB_CC1*%
X158137500Y-91850000D02*
X160650000Y-91850000D01*
X163100000Y-82400000D02*
X159400000Y-78700000D01*
X163100000Y-89400000D02*
X163100000Y-86400000D01*
X160650000Y-91850000D02*
X163100000Y-89400000D01*
X156400000Y-78700000D02*
X156100000Y-78400000D01*
X159400000Y-78700000D02*
X156400000Y-78700000D01*
X163100000Y-83600000D02*
X163100000Y-82400000D01*
X155100000Y-71520000D02*
X155100000Y-74591000D01*
X155100000Y-74591000D02*
X155299000Y-74790000D01*
X155500000Y-76700000D02*
X155299000Y-76499000D01*
X155299000Y-76499000D02*
X155299000Y-74790000D01*
%TO.N,/SWCLK*%
X165050000Y-84937500D02*
X165050000Y-80050000D01*
X165050000Y-80050000D02*
X165400000Y-79700000D01*
%TO.N,/SWDIO*%
X165550000Y-87350000D02*
X165200000Y-87000000D01*
X165200000Y-87000000D02*
X165200000Y-86300000D01*
X165200000Y-86300000D02*
X167940000Y-83560000D01*
X166462500Y-87350000D02*
X165550000Y-87350000D01*
X167940000Y-83560000D02*
X167940000Y-79700000D01*
%TO.N,MINUTE_SW_H*%
X143550000Y-98600000D02*
X141050000Y-101100000D01*
X161550000Y-93262500D02*
X161550000Y-97550000D01*
X161550000Y-97550000D02*
X160500000Y-98600000D01*
X160500000Y-98600000D02*
X143550000Y-98600000D01*
%TO.N,SECOND_SW_H*%
X145590000Y-99100000D02*
X143590000Y-101100000D01*
X162050000Y-97950000D02*
X160900000Y-99100000D01*
X162050000Y-93262500D02*
X162050000Y-97950000D01*
X160900000Y-99100000D02*
X145590000Y-99100000D01*
%TO.N,HOUR_SW_H*%
X141510000Y-98100000D02*
X138510000Y-101100000D01*
X161050000Y-97150000D02*
X160100000Y-98100000D01*
X161050000Y-93262500D02*
X161050000Y-97150000D01*
X160100000Y-98100000D02*
X141510000Y-98100000D01*
%TO.N,/JMP_BOOT0*%
X155875000Y-83100000D02*
X154450000Y-83100000D01*
X154450000Y-84950000D02*
X153600000Y-85800000D01*
X154450000Y-83100000D02*
X154450000Y-84950000D01*
%TO.N,POWER_SW*%
X138125000Y-94465000D02*
X138125000Y-96300000D01*
X160550000Y-93262500D02*
X160550000Y-96850000D01*
X137300000Y-93640000D02*
X138125000Y-94465000D01*
X139425000Y-97600000D02*
X138125000Y-96300000D01*
X160550000Y-96850000D02*
X159800000Y-97600000D01*
X159800000Y-97600000D02*
X139425000Y-97600000D01*
%TO.N,MODE_SW*%
X141050000Y-93640000D02*
X141875000Y-94465000D01*
X159500000Y-97100000D02*
X142675000Y-97100000D01*
X160050000Y-96550000D02*
X159500000Y-97100000D01*
X160050000Y-93262500D02*
X160050000Y-96550000D01*
X141875000Y-94465000D02*
X141875000Y-96300000D01*
X142675000Y-97100000D02*
X141875000Y-96300000D01*
%TO.N,ADJUST_SW*%
X145575000Y-94465000D02*
X145575000Y-96300000D01*
X145975000Y-96700000D02*
X145575000Y-96300000D01*
X144750000Y-93640000D02*
X145575000Y-94465000D01*
X159550000Y-96300000D02*
X159150000Y-96700000D01*
X159150000Y-96700000D02*
X145975000Y-96700000D01*
X159550000Y-96300000D02*
X159550000Y-93262500D01*
%TO.N,/BOOT0*%
X161550000Y-84937500D02*
X161550000Y-85950000D01*
X161400000Y-86100000D02*
X159400000Y-86100000D01*
X159400000Y-86100000D02*
X157525000Y-84225000D01*
X161550000Y-85950000D02*
X161400000Y-86100000D01*
X157525000Y-84225000D02*
X157525000Y-83100000D01*
%TO.N,SCL*%
X163249999Y-94300000D02*
X163550000Y-93999999D01*
X162600000Y-99600000D02*
X162600000Y-94600000D01*
X162900000Y-94300000D02*
X163249999Y-94300000D01*
X159600000Y-102600000D02*
X162600000Y-99600000D01*
X130395000Y-93991000D02*
X132316000Y-93991000D01*
X130395000Y-93991000D02*
X130395000Y-97495000D01*
X163550000Y-93999999D02*
X163550000Y-93262500D01*
X162600000Y-94600000D02*
X162900000Y-94300000D01*
X130395000Y-97495000D02*
X135500000Y-102600000D01*
X132316000Y-93991000D02*
X132400000Y-94075000D01*
X135500000Y-102600000D02*
X159600000Y-102600000D01*
%TO.N,SDA*%
X163300000Y-100000000D02*
X163300000Y-94816338D01*
X128800000Y-93600000D02*
X128800000Y-96700000D01*
X130395000Y-92721000D02*
X129679000Y-92721000D01*
X129679000Y-92721000D02*
X128800000Y-93600000D01*
X160100000Y-103200000D02*
X163300000Y-100000000D01*
X130395000Y-92721000D02*
X129579000Y-92721000D01*
X132304000Y-92721000D02*
X132400000Y-92625000D01*
X130395000Y-92721000D02*
X132304000Y-92721000D01*
X164050000Y-94066338D02*
X164050000Y-93262500D01*
X135300000Y-103200000D02*
X160100000Y-103200000D01*
X128800000Y-96700000D02*
X135300000Y-103200000D01*
X163300000Y-94816338D02*
X164050000Y-94066338D01*
%TO.N,SER*%
X173100000Y-86600000D02*
X173100000Y-85360000D01*
X167350000Y-90350000D02*
X168400000Y-89300000D01*
X170400000Y-89300000D02*
X173100000Y-86600000D01*
X168400000Y-89300000D02*
X170400000Y-89300000D01*
X173100000Y-85360000D02*
X176400000Y-82060000D01*
X166462500Y-90350000D02*
X167350000Y-90350000D01*
%TO.N,OE*%
X167850000Y-90850000D02*
X168500000Y-90200000D01*
X166462500Y-90850000D02*
X167850000Y-90850000D01*
X168500000Y-90200000D02*
X170800000Y-90200000D01*
X170800000Y-90200000D02*
X176400000Y-84600000D01*
%TO.N,CLK*%
X166462500Y-91350000D02*
X167850000Y-91350000D01*
X171840000Y-91700000D02*
X176400000Y-87140000D01*
X168200000Y-91700000D02*
X171840000Y-91700000D01*
X167850000Y-91350000D02*
X168200000Y-91700000D01*
%TO.N,LATCH*%
X167800000Y-92400000D02*
X173680000Y-92400000D01*
X167250000Y-91850000D02*
X167800000Y-92400000D01*
X166462500Y-91850000D02*
X167250000Y-91850000D01*
X173680000Y-92400000D02*
X176400000Y-89680000D01*
%TO.N,LDR*%
X165220000Y-92010000D02*
X168180000Y-94970000D01*
X168180000Y-94970000D02*
X168240000Y-94970000D01*
D45*
X170275000Y-94970000D02*
X170280000Y-94975000D01*
X168240000Y-94970000D02*
X170275000Y-94970000D01*
D44*
X162550000Y-92270000D02*
X162810000Y-92010000D01*
X162550000Y-93262500D02*
X162550000Y-92270000D01*
X162810000Y-92010000D02*
X165220000Y-92010000D01*
%TD*%
%TA.AperFunction,Conductor*%
%TO.N,GND*%
G36*
X172447039Y-71389685D02*
G01*
X172492794Y-71442489D01*
X172504000Y-71494000D01*
X172504000Y-76326000D01*
X172484315Y-76393039D01*
X172431511Y-76438794D01*
X172380000Y-76450000D01*
X167078729Y-76450000D01*
X167011690Y-76430315D01*
X166991048Y-76413681D01*
X166698319Y-76120951D01*
X166664834Y-76059628D01*
X166662000Y-76033270D01*
X166662000Y-75050000D01*
X166681685Y-74982961D01*
X166734489Y-74937206D01*
X166786000Y-74926000D01*
X168186000Y-74926000D01*
X168186000Y-72510000D01*
X168205685Y-72442961D01*
X168258489Y-72397206D01*
X168310000Y-72386000D01*
X171234000Y-72386000D01*
X171234000Y-71494000D01*
X171253685Y-71426961D01*
X171306489Y-71381206D01*
X171358000Y-71370000D01*
X172380000Y-71370000D01*
X172447039Y-71389685D01*
G37*
%TD.AperFunction*%
%TD*%
%TA.AperFunction,Conductor*%
%TO.N,+3V3*%
G36*
X165843039Y-69349685D02*
G01*
X165888794Y-69402489D01*
X165900000Y-69454000D01*
X165900000Y-70100000D01*
X170094000Y-70100000D01*
X170161039Y-70119685D01*
X170206794Y-70172489D01*
X170218000Y-70224000D01*
X170218000Y-71500000D01*
X170198315Y-71567039D01*
X170145511Y-71612794D01*
X170094000Y-71624000D01*
X165900000Y-71624000D01*
X165900000Y-76326000D01*
X165880315Y-76393039D01*
X165827511Y-76438794D01*
X165776000Y-76450000D01*
X162214000Y-76450000D01*
X162146961Y-76430315D01*
X162101206Y-76377511D01*
X162090000Y-76326000D01*
X162090000Y-69454000D01*
X162109685Y-69386961D01*
X162162489Y-69341206D01*
X162214000Y-69330000D01*
X165776000Y-69330000D01*
X165843039Y-69349685D01*
G37*
%TD.AperFunction*%
%TD*%
%TA.AperFunction,Conductor*%
%TO.N,VBUS*%
G36*
X172701039Y-67833685D02*
G01*
X172746794Y-67886489D01*
X172758000Y-67938000D01*
X172758000Y-70230000D01*
X172738315Y-70297039D01*
X172685511Y-70342794D01*
X172634000Y-70354000D01*
X171104000Y-70354000D01*
X171036961Y-70334315D01*
X170991206Y-70281511D01*
X170980000Y-70230000D01*
X170980000Y-69338000D01*
X168310000Y-69338000D01*
X168242961Y-69318315D01*
X168197206Y-69265511D01*
X168186000Y-69214000D01*
X168186000Y-67938000D01*
X168205685Y-67870961D01*
X168258489Y-67825206D01*
X168310000Y-67814000D01*
X172634000Y-67814000D01*
X172701039Y-67833685D01*
G37*
%TD.AperFunction*%
%TD*%
M02*
