%TF.GenerationSoftware,KiCad,Pcbnew,8.0.2*%
%TF.CreationDate,2024-05-29T18:12:24+12:00*%
%TF.ProjectId,microcontroller,6d696372-6f63-46f6-9e74-726f6c6c6572,0.1.0*%
%TF.SameCoordinates,Original*%
%TF.FileFunction,Soldermask,Bot*%
%TF.FilePolarity,Negative*%
%FSLAX46Y46*%
G04 Gerber Fmt 4.6, Leading zero omitted, Abs format (unit mm)*
G04 Created by KiCad (PCBNEW 8.0.2) date 2024-05-29 18:12:24*
%MOMM*%
%LPD*%
G01*
G04 APERTURE LIST*
%ADD10C,3.200000*%
%ADD11O,1.100000X1.700000*%
%ADD12R,1.700000X1.700000*%
%ADD13O,1.700000X1.700000*%
%ADD14C,2.600000*%
%ADD15C,1.600000*%
G04 APERTURE END LIST*
D10*
%TO.C,H1*%
X120000000Y-70000000D03*
%TD*%
D11*
%TO.C,J3*%
X158920000Y-71440000D03*
X158920000Y-67640000D03*
X150280000Y-71440000D03*
X150280000Y-67640000D03*
%TD*%
D12*
%TO.C,SW1*%
X137300000Y-91100000D03*
D13*
X137300000Y-93640000D03*
%TD*%
D12*
%TO.C,J4*%
X162860000Y-79700000D03*
D13*
X165400000Y-79700000D03*
X167940000Y-79700000D03*
X170480000Y-79700000D03*
%TD*%
D12*
%TO.C,JP1*%
X126000000Y-98500000D03*
D13*
X126000000Y-101040000D03*
%TD*%
D10*
%TO.C,H3*%
X120000000Y-101000000D03*
%TD*%
D12*
%TO.C,J1*%
X146130000Y-101100000D03*
D13*
X143590000Y-101100000D03*
X141050000Y-101100000D03*
X138510000Y-101100000D03*
X135970000Y-101100000D03*
%TD*%
D14*
%TO.C,BT1*%
X125950000Y-77000000D03*
X147050000Y-77000000D03*
%TD*%
D12*
%TO.C,J2*%
X176400000Y-97300000D03*
D13*
X176400000Y-94760000D03*
X176400000Y-92220000D03*
X176400000Y-89680000D03*
X176400000Y-87140000D03*
X176400000Y-84600000D03*
X176400000Y-82060000D03*
X176400000Y-79520000D03*
X176400000Y-76980000D03*
X176400000Y-74440000D03*
%TD*%
D15*
%TO.C,R5*%
X170280000Y-94975000D03*
X173280000Y-94975000D03*
%TD*%
D12*
%TO.C,JP2*%
X151060000Y-85800000D03*
D13*
X153600000Y-85800000D03*
%TD*%
D12*
%TO.C,SW2*%
X141050000Y-91100000D03*
D13*
X141050000Y-93640000D03*
%TD*%
D10*
%TO.C,H2*%
X182000000Y-70000000D03*
%TD*%
%TO.C,H4*%
X182000000Y-101000000D03*
%TD*%
D12*
%TO.C,SW3*%
X144750000Y-91100000D03*
D13*
X144750000Y-93640000D03*
%TD*%
M02*
